<?xml version="1.0" encoding="utf-8"?>
<!-- Generator: Adobe Illustrator 18.1.1, SVG Export Plug-In . SVG Version: 6.00 Build 0)  -->
<!DOCTYPE svg PUBLIC "-//W3C//DTD SVG 1.1//EN" "http://www.w3.org/Graphics/SVG/1.1/DTD/svg11.dtd">
<svg version="1.1" id="Layer_1" xmlns="http://www.w3.org/2000/svg" xmlns:xlink="http://www.w3.org/1999/xlink" x="0px" y="0px"
	 viewBox="0 0 100 100" enable-background="new 0 0 100 100" xml:space="preserve">
<g>
	<path fill="#2C4351" d="M25.5,73.4c-2-1.3-4.7-0.7-5.9,1.3L7.7,93.4c-1.3,2-0.7,4.7,1.3,5.9c0.7,0.5,1.5,0.7,2.3,0.7
		c1.4,0,2.8-0.7,3.6-2l11.8-18.6C28.1,77.4,27.5,74.7,25.5,73.4z"/>
	<path fill="#2C4351" d="M42,72.9c-2.3-0.5-4.6,1-5.1,3.3l-3.9,18.6c-0.5,2.3,1,4.6,3.3,5.1c0.3,0.1,0.6,0.1,0.9,0.1
		c2,0,3.8-1.4,4.2-3.4L45.3,78C45.8,75.6,44.3,73.3,42,72.9z"/>
	<path fill="#2C4351" d="M63.2,76.2c-0.5-2.3-2.8-3.8-5.1-3.3c-2.3,0.5-3.8,2.8-3.3,5.1l3.9,18.6c0.4,2,2.2,3.4,4.2,3.4
		c0.3,0,0.6,0,0.9-0.1c2.3-0.5,3.8-2.8,3.3-5.1L63.2,76.2z"/>
	<path fill="#2C4351" d="M92.3,93.4L80.4,74.8c-1.3-2-3.9-2.6-5.9-1.3c-2,1.3-2.6,3.9-1.3,5.9L85,98c0.8,1.3,2.2,2,3.6,2
		c0.8,0,1.6-0.2,2.3-0.7C93,98.1,93.6,95.4,92.3,93.4z"/>
	<path fill="#2C4351" d="M81.4,66.3c0-15.4-11.3-26.1-28.4-27.2V6.4c0-1.7-1.4-3-3-3c-1.7,0-3,1.4-3,3v32.8
		c-17.1,1.1-28.4,11.8-28.4,27.2v0.5h62.9V66.3z"/>
</g>
</svg>
