<?xml version="1.0" encoding="utf-8"?>
<!-- Generator: Adobe Illustrator 18.1.1, SVG Export Plug-In . SVG Version: 6.00 Build 0)  -->
<!DOCTYPE svg PUBLIC "-//W3C//DTD SVG 1.1//EN" "http://www.w3.org/Graphics/SVG/1.1/DTD/svg11.dtd">
<svg version="1.1" id="Layer_1" xmlns="http://www.w3.org/2000/svg" xmlns:xlink="http://www.w3.org/1999/xlink" x="0px" y="0px"
	 viewBox="0 0 100 100" enable-background="new 0 0 100 100" xml:space="preserve">
<path fill="#2C4351" d="M84.5,74.7c-3.7,0-7,1.6-9.3,4.1c-0.9-0.4-1.7-0.8-2.5-1.2l19.5-20.3l-59.1-7.1l1.3,20.4
	c-1.4-0.3-2.6-0.5-3.5-0.8c-6.8-2.3-11.3-10.3-11.3-10.4l-1.1-1.9H6.6c-2.1,0-3.7,1.7-3.7,3.7c0,2.1,1.7,3.7,3.7,3.7h7.7
	c2.2,3.2,7.1,9.6,14.3,12c1.2,0.4,2.6,0.7,4.2,1l-2.1,7l0,0.4c0.2,1.4,1.4,4.1,4.8,4.5c0.1,0,0.3,0.1,0.7,0.1c1.1,0,3.4-0.4,5.8-3
	l6-7c0.4,0,0.8,0.1,1.2,0.1c6.3,0.7,15,1.6,16.7,2.5c1.5,0.8,3.7,1.9,6.1,3c-0.1,0.6-0.1,1.2-0.1,1.9c0,7,5.7,12.7,12.7,12.7
	c7,0,12.7-5.7,12.7-12.7C97.1,80.4,91.4,74.7,84.5,74.7z M39.2,84.3c-1.7,1.9-3,1.8-3.1,1.7c-1.1-0.2-1.5-0.7-1.6-1.1l2-6.6
	c2.2,0.3,4.6,0.6,7,0.9L39.2,84.3z M84.5,94.4c-3.7,0-6.7-2.8-7.1-6.5c3.5,1.6,6.4,2.9,6.7,3c0.5,0.2,1,0.3,1.5,0.3
	c1.4,0,2.8-0.8,3.4-2.2c0.8-1.9,0-4.1-1.9-4.9c-0.1,0-2.9-1.2-6.3-2.8c1.1-0.7,2.4-1.1,3.7-1.1c3.9,0,7.1,3.2,7.1,7.1
	C91.5,91.2,88.4,94.4,84.5,94.4z"/>
</svg>
