<?xml version="1.0" encoding="utf-8"?>
<!-- Generator: Adobe Illustrator 18.1.1, SVG Export Plug-In . SVG Version: 6.00 Build 0)  -->
<!DOCTYPE svg PUBLIC "-//W3C//DTD SVG 1.1//EN" "http://www.w3.org/Graphics/SVG/1.1/DTD/svg11.dtd">
<svg version="1.1" id="Layer_1" xmlns="http://www.w3.org/2000/svg" xmlns:xlink="http://www.w3.org/1999/xlink" x="0px" y="0px"
	 viewBox="0 0 100 100" enable-background="new 0 0 100 100" xml:space="preserve">
<path fill="#2C4351" d="M90.1,27.7l0.5-0.5c0.5-0.5,0.5-1.2-0.1-1.8l-0.9-0.9c0.7-1.5,0.4-3-0.9-4.2c-1.2-1.2-2.7-1.5-4.2-0.9
	l-0.9-0.9c-0.6-0.6-1.3-0.6-1.8-0.1l-0.5,0.5l-0.4-0.4c-0.6-0.6-1.4-0.6-2-0.1c-0.6,0.6-0.6,1.4,0,2l0.4,0.4l-1.8,1.8l-0.4-0.4
	c-0.6-0.6-1.4-0.6-2,0c-0.5,0.5-0.5,1.4,0.1,2l0.4,0.4l-1.9,1.9L73.3,26c-0.6-0.6-1.4-0.6-2-0.1c-0.6,0.6-0.6,1.4,0,2l0.4,0.4
	c-0.5,0.5-0.4,1.3,0.1,1.8l0.6,0.6L53.1,50.1c-6.7-4.8-13.6-4.6-19.7,1.4c-2,2-3.5,4.3-4.3,6.4c-5-0.8-10,0.9-14.5,5.4
	c-8.5,8.5-7.1,18.8,2.5,28.4c9.6,9.6,20,11,28.4,2.5c4.6-4.6,6.2-9.6,5.4-14.5c2.1-0.8,4.4-2.2,6.4-4.3c6.1-6.1,6.3-13,1.4-19.7
	l19.3-19.3l0.6,0.6c0.5,0.5,1.3,0.6,1.8,0.1l0.4,0.4c0.5,0.5,1.4,0.6,2,0c0.5-0.5,0.4-1.4-0.1-2l-0.4-0.4l1.9-1.9l0.4,0.4
	c0.5,0.5,1.4,0.6,2,0.1c0.6-0.6,0.5-1.5,0-2l-0.4-0.4l1.8-1.8l0.4,0.4c0.5,0.5,1.4,0.6,2,0c0.5-0.5,0.4-1.4-0.1-2L90.1,27.7z
	 M32.9,86.7L31.5,88c-0.4,0.4-1.1,0.4-1.5-0.1l-9-9c-0.4-0.4-0.6-1.2-0.1-1.6l1.4-1.4c0.5-0.5,1.2-0.4,1.7,0.1l9,9
	C33.3,85.5,33.4,86.2,32.9,86.7z M41,73.5c-3.1,0-5.6-2.5-5.6-5.6c0-3.1,2.5-5.6,5.6-5.6c3.1,0,5.6,2.5,5.6,5.6
	C46.6,71,44.1,73.5,41,73.5z"/>
</svg>
