<?xml version="1.0" encoding="UTF-8" standalone="no"?>
<svg
   xmlns:dc="http://purl.org/dc/elements/1.1/"
   xmlns:cc="http://creativecommons.org/ns#"
   xmlns:rdf="http://www.w3.org/1999/02/22-rdf-syntax-ns#"
   xmlns:svg="http://www.w3.org/2000/svg"
   xmlns="http://www.w3.org/2000/svg"
   viewBox="0 0 33.333332 33.333332"
   height="33.333332"
   width="33.333332"
   xml:space="preserve"
   id="svg2"
   version="1.1"><metadata
     id="metadata8"><rdf:RDF><cc:Work
         rdf:about=""><dc:format>image/svg+xml</dc:format><dc:type
           rdf:resource="http://purl.org/dc/dcmitype/StillImage" /></cc:Work></rdf:RDF></metadata><defs
     id="defs6"><clipPath
       id="clipPath18"
       clipPathUnits="userSpaceOnUse"><path
         id="path16"
         d="M 0,25 H 25 V 0 H 0 Z" /></clipPath></defs><g
     transform="matrix(1.3333333,0,0,-1.3333333,0,33.333333)"
     id="g10"><g
       id="g12"><g
         clip-path="url(#2C4351th18)"
         id="g14"><g
           transform="translate(24,15.649)"
           id="g20"><path
             id="path22"
             style="fill:#2C4351;fill-opacity:1;fill-rule:nonzero;stroke:none"
             d="m 0,0 c -0.673,0 -1,-0.59 -1,-1.319 v -3.33 h -21 v 8.173 c 0,0.729 -0.327,1.319 -1,1.319 -0.673,0 -1,-0.59 -1,-1.319 v -15.173 h 2 v 3 h 21 v -3 h 2 v 10.33 C 1,-0.59 0.673,0 0,0" /></g><g
           transform="translate(22,12.1181)"
           id="g24"><path
             id="path26"
             style="fill:#2C4351;fill-opacity:1;fill-rule:nonzero;stroke:none"
             d="M 0,0 C 0,1.668 -1.553,2.882 -3.222,2.882 H -13 v -3 H 0 Z" /></g><g
           transform="translate(5.0837,11.8041)"
           id="g28"><path
             id="path30"
             style="fill:#2C4351;fill-opacity:1;fill-rule:nonzero;stroke:none"
             d="M 0,0 C 1.309,-0.708 2.702,-0.495 3.11,0.476 3.519,1.446 2.79,2.807 1.48,3.516 0.172,4.224 -1.221,4.011 -1.63,3.04 -2.039,2.069 -1.309,0.708 0,0" /></g></g></g></g></svg>