<?xml version="1.0" encoding="utf-8"?>
<!-- Generator: Adobe Illustrator 18.1.1, SVG Export Plug-In . SVG Version: 6.00 Build 0)  -->
<!DOCTYPE svg PUBLIC "-//W3C//DTD SVG 1.1//EN" "http://www.w3.org/Graphics/SVG/1.1/DTD/svg11.dtd">
<svg version="1.1" id="Layer_1" xmlns="http://www.w3.org/2000/svg" xmlns:xlink="http://www.w3.org/1999/xlink" x="0px" y="0px"
	 viewBox="0 0 100 100" enable-background="new 0 0 100 100" xml:space="preserve">
<g>
	<path fill="#2C4351" d="M67.5,43.5c-13.9,0-25.1,11.3-25.1,25.1c0,0.2,0,0.3,0,0.5h5.2c0.2,0,0.4,0,0.7,0c0-0.2,0-0.3,0-0.5
		c0-10.1,7.9-18.5,17.8-19.2v38.5c-0.7-0.1-1.4-0.1-2.1-0.3c-0.2,2-0.8,3.9-1.7,5.6c1.7,0.4,3.5,0.6,5.3,0.6
		c13.9,0,25.1-11.3,25.1-25.1C92.7,54.8,81.4,43.5,67.5,43.5z M69,87.9V49.4c10,0.8,17.8,9.1,17.8,19.2C86.8,78.8,78.9,87.1,69,87.9
		z"/>
	<path fill="#2C4351" d="M47.6,71.2H22.2c-7.9,0-14.4,6.5-14.4,14.4c0,7.9,6.4,14.4,14.4,14.4h25.3c7.9,0,14.4-6.4,14.4-14.4
		C62,77.7,55.5,71.2,47.6,71.2z M53.3,81.6c-0.3,0.3-0.7,0.5-1.1,0.5c-0.3,0-0.7-0.1-0.9-0.3c-2.2-1.8-5.2-1.8-5.2-1.8l-11.2,0v14.1
		H22.2c-4.7,0-8.5-3.8-8.5-8.5s3.8-8.5,8.5-8.5h11.6c0,0,0,0,0.1,0H46c0.1,0,4-0.1,7.1,2.4C53.8,80,53.9,81,53.3,81.6z"/>
</g>
</svg>
