<?xml version="1.0" encoding="utf-8"?>
<!-- Generator: Adobe Illustrator 18.1.1, SVG Export Plug-In . SVG Version: 6.00 Build 0)  -->
<!DOCTYPE svg PUBLIC "-//W3C//DTD SVG 1.1//EN" "http://www.w3.org/Graphics/SVG/1.1/DTD/svg11.dtd">
<svg version="1.1" id="Layer_1" xmlns="http://www.w3.org/2000/svg" xmlns:xlink="http://www.w3.org/1999/xlink" x="0px" y="0px"
	 viewBox="0 0 100 100" enable-background="new 0 0 100 100" xml:space="preserve">
<g>
	<path fill="#2C4351" d="M19.5,56.3h7.7c1,0,1.9-0.8,1.9-1.9c0-1-0.8-1.9-1.9-1.9h-7.7c-1,0-1.9,0.8-1.9,1.9
		C17.6,55.4,18.4,56.3,19.5,56.3z"/>
	<path fill="#2C4351" d="M34.6,56.3h7.7c1,0,1.9-0.8,1.9-1.9c0-1-0.8-1.9-1.9-1.9h-7.7c-1,0-1.9,0.8-1.9,1.9
		C32.8,55.4,33.6,56.3,34.6,56.3z"/>
	<path fill="#2C4351" d="M71.7,55.3v-4.2l1.3-0.9c0.1,0.4,0.4,0.8,0.9,1c0.8,0.3,1.6-0.1,1.9-0.9c0.3-0.8-0.1-1.6-0.9-1.9
		c-0.1-0.1-0.3-0.1-0.5-0.1c0,0,0-0.1,0-0.1c0,0,0,0,0,0c0.3-0.8-0.1-1.6-0.9-1.9c-0.8-0.3-1.6,0.1-1.9,0.9
		c-0.2,0.5-0.1,1.1,0.3,1.5l-1.9,1.2h-0.4l0-10.7c0,0,0.4-4.3,3.4-4.3c2.9,0,3.3,3.2,3.3,5.2h3.1c0-6.1-3.3-8.2-6.4-8.2
		c-4.6,0-6.2,4.7-6.4,7.2v10.8h-0.2l-1.9-1.2c0.3-0.4,0.5-1,0.3-1.5c-0.3-0.8-1.1-1.2-1.9-0.9c-0.8,0.3-1.2,1.1-0.9,1.9c0,0,0,0,0,0
		c0,0,0,0.1,0,0.1c-0.2,0-0.3,0-0.5,0.1c-0.8,0.3-1.2,1.1-0.9,1.9c0.3,0.8,1.1,1.2,1.9,0.9c0.5-0.2,0.8-0.6,0.9-1l1.2,0.8v4.3H52.2
		V100h34.1V55.3H71.7z M64.7,66.1c-1.3,0-2.3-1-2.3-2.3c0-1.3,1-2.3,2.3-2.3c1.3,0,2.3,1,2.3,2.3C67,65,65.9,66.1,64.7,66.1z
		 M72.8,66.1c-1.3,0-2.3-1-2.3-2.3c0-1.3,1-2.3,2.3-2.3c1.3,0,2.3,1,2.3,2.3C75.1,65,74.1,66.1,72.8,66.1z"/>
	<path fill="#2C4351" d="M44.6,58.1H17.2c-2.9,0-5.3,2.4-5.3,5.3v6.8h38v-6.8C49.9,60.4,47.5,58.1,44.6,58.1z M18.7,66.1
		c-1.3,0-2.3-1-2.3-2.3c0-1.3,1-2.3,2.3-2.3c1.3,0,2.3,1,2.3,2.3C21,65,20,66.1,18.7,66.1z M26.8,66.1c-1.3,0-2.3-1-2.3-2.3
		c0-1.3,1-2.3,2.3-2.3c1.3,0,2.3,1,2.3,2.3C29.1,65,28.1,66.1,26.8,66.1z M34.9,66.1c-1.3,0-2.3-1-2.3-2.3c0-1.3,1-2.3,2.3-2.3
		c1.3,0,2.3,1,2.3,2.3C37.3,65,36.2,66.1,34.9,66.1z M43.1,66.1c-1.3,0-2.3-1-2.3-2.3c0-1.3,1-2.3,2.3-2.3c1.3,0,2.3,1,2.3,2.3
		C45.4,65,44.3,66.1,43.1,66.1z"/>
	<path fill="#2C4351" d="M11.9,94.7c0,2.9,2.4,5.3,5.3,5.3h27.4c2.9,0,5.3-2.4,5.3-5.3V72.4h-38V94.7z M19.7,76.6H42
		c1,0,1.8,0.8,1.8,1.8c0,1-0.8,1.8-1.8,1.8H19.7c-1,0-1.8-0.8-1.8-1.8C17.9,77.4,18.7,76.6,19.7,76.6z"/>
</g>
</svg>
