<?xml version="1.0" encoding="utf-8"?>
<!-- Generator: Adobe Illustrator 18.1.1, SVG Export Plug-In . SVG Version: 6.00 Build 0)  -->
<!DOCTYPE svg PUBLIC "-//W3C//DTD SVG 1.1//EN" "http://www.w3.org/Graphics/SVG/1.1/DTD/svg11.dtd">
<svg version="1.1" id="Layer_1" xmlns="http://www.w3.org/2000/svg" xmlns:xlink="http://www.w3.org/1999/xlink" x="0px" y="0px"
	 viewBox="0 0 100 100" enable-background="new 0 0 100 100" xml:space="preserve">
<path fill="#2C4351" d="M93.8,34.6l-41.5-23c-0.9-0.5-1.9-0.5-2.8,0l-41.5,23c-0.9,0.5-1.5,1.5-1.5,2.5V38c0,2.2,2.4,3.6,4.3,2.5
	l1.6-0.9v57.4c0,1.6,1.3,2.9,2.9,2.9h0.8c0.1,0,0.3,0,0.4,0c0.1,0,0.3,0,0.4,0h68c0.1,0,0.3,0,0.4,0c0.1,0,0.3,0,0.4,0h0.8
	c1.6,0,2.9-1.3,2.9-2.9V39.7l1.6,0.9c1.9,1.1,4.3-0.3,4.3-2.5v-0.8C95.3,36.1,94.7,35.2,93.8,34.6z M49.5,19.1
	c0.9-0.5,1.9-0.5,2.8,0L82.9,36c0,0.2,0,0.3,0,0.5v56.9H19.1V36.5c0-0.2,0-0.3,0-0.5L49.5,19.1z M70.1,36.5H31.8
	c-4.1,0-7.5,3.4-7.5,7.5c0,4.1,3.4,7.5,7.5,7.5h38.3c4.1,0,7.5-3.4,7.5-7.5C77.6,39.9,74.3,36.5,70.1,36.5z"/>
</svg>
