<?xml version="1.0" encoding="utf-8"?>
<!-- Generator: Adobe Illustrator 18.1.1, SVG Export Plug-In . SVG Version: 6.00 Build 0)  -->
<!DOCTYPE svg PUBLIC "-//W3C//DTD SVG 1.1//EN" "http://www.w3.org/Graphics/SVG/1.1/DTD/svg11.dtd">
<svg version="1.1" id="Layer_1" xmlns="http://www.w3.org/2000/svg" xmlns:xlink="http://www.w3.org/1999/xlink" x="0px" y="0px"
	 viewBox="0 0 100 100" enable-background="new 0 0 100 100" xml:space="preserve">
<g>
	<path fill="#2C4351" d="M21.1,84.6c-0.7-0.7-1.9-0.7-2.6,0c-0.3,0.3-0.4,0.6-0.7,1.2l-3.5,9.5c-0.1,0.2-0.1,0.4-0.1,0.7l-1.6,1.7
		c-0.5,0.5-0.5,1.4,0,2c0.5,0.5,1.4,0.5,2,0l1.7-1.8c0.2,0,0.3-0.1,0.5-0.1l9.5-3.5c0.6-0.3,0.9-0.3,1.2-0.7c0.7-0.7,0.7-1.9,0-2.6
		L21.1,84.6z"/>
	<path fill="#2C4351" d="M54.1,44.8l21.6-21.7c0.9-0.9,0.9-2.5,0-3.4c-0.9-0.9-2.5-0.9-3.4,0L50.6,41.4c-0.9,0.9-0.9,2.5,0,3.4
		C51.6,45.8,53.1,45.8,54.1,44.8z"/>
	<path fill="#2C4351" d="M23,80c-0.8,0.8-0.8,2.1,0,2.8l6.1,6.1c0.8,0.8,2.1,0.8,2.8,0l30.2-30.2l-9-9L23,80z"/>
	<path fill="#2C4351" d="M87.7,24.3c-2.5-2.5-6.5-2.5-9,0L56.9,46.2l9,9l21.9-21.9C90.2,30.7,90.2,26.7,87.7,24.3z"/>
</g>
</svg>
