<?xml version="1.0" encoding="utf-8"?>
<!-- Generator: Adobe Illustrator 18.1.1, SVG Export Plug-In . SVG Version: 6.00 Build 0)  -->
<!DOCTYPE svg PUBLIC "-//W3C//DTD SVG 1.1//EN" "http://www.w3.org/Graphics/SVG/1.1/DTD/svg11.dtd">
<svg version="1.1" id="Layer_1" xmlns="http://www.w3.org/2000/svg" xmlns:xlink="http://www.w3.org/1999/xlink" x="0px" y="0px"
	 viewBox="0 0 100 100" enable-background="new 0 0 100 100" xml:space="preserve">
<g>
	<path fill="#2C4351" d="M90.3,33.4L54,13.3c-2.1-1.1-4.7-1.1-6.7,0L10.8,33.4c-2.2,1.2-3.6,3.6-3.6,6.1v0.7c0,3.8,3.1,6.9,6.9,6.9
		c1.2,0,2.3-0.3,3.4-0.9l33-18.3l33,18.3c1,0.6,2.2,0.9,3.4,0.9c1.8,0,3.5-0.7,4.8-1.9c1.4-1.3,2.1-3.1,2.1-5v-0.7
		C93.9,37,92.5,34.6,90.3,33.4z"/>
	<path fill="#2C4351" d="M85.5,53.2h-0.8c-1.6,0-2.9,1.3-2.9,2.9v37.4H19.4V56.1c0-1.6-1.3-2.9-2.9-2.9h-0.8c-1.6,0-2.9,1.3-2.9,2.9
		v41.1c0,1.6,1.3,2.9,2.9,2.9h0.8c0.1,0,0.3,0,0.4,0c0.1,0,0.3,0,0.4,0h66.6c0.1,0,0.3,0,0.4,0c0.1,0,0.3,0,0.4,0h0.8
		c1.6,0,2.9-1.3,2.9-2.9V56.1C88.3,54.5,87,53.2,85.5,53.2z"/>
</g>
</svg>
