<?xml version="1.0" encoding="utf-8"?>
<!-- Generator: Adobe Illustrator 18.1.1, SVG Export Plug-In . SVG Version: 6.00 Build 0)  -->
<!DOCTYPE svg PUBLIC "-//W3C//DTD SVG 1.1//EN" "http://www.w3.org/Graphics/SVG/1.1/DTD/svg11.dtd">
<svg version="1.1" id="Layer_1" xmlns="http://www.w3.org/2000/svg" xmlns:xlink="http://www.w3.org/1999/xlink" x="0px" y="0px"
	 viewBox="0 0 50 50" enable-background="new 0 0 50 50" xml:space="preserve">
<path fill="#2C4351" d="M45.2,20c-4.5-3-8.1-4.7-10.3-5.6c4.2-0.4,8.7-1,13.4-2l-0.5-2.5c-4.8,1-9.4,1.6-13.8,2l0.1-0.8l0.7-3.5
	l-0.4-0.1L33.6,10l-0.5-0.1l-0.6-2.5l-0.4,0.1l0.3,3.2l0,1.2c-5.5,0.4-10.5,0.3-14.9,0.1L17.3,10c0,0,0.1-2.5,0-2.7
	c-0.1-0.2-0.4,0-0.4,0l-0.3,3.6h-0.5l-1.1-3.6l-0.4,0.1l0.6,2.5c0,0,0.2,1,0.3,2.1c-6-0.4-10.7-1.3-13.4-1.8l-0.5,2.5
	c2.7,0.6,7.1,1.3,12.8,1.8c-4.5,1.8-8.9,4.7-10.6,5.9c-0.4,0.3-0.5,0.8-0.3,1.3l3.7,7.1c0.2,0.5,0.8,0.7,1.2,0.5
	c2.2-0.7,5.4-1.3,5.4-1.3s0.1,18,0.1,21.5c0,0.3,0.3,0.6,0.6,0.6l20.2,0c0.5,0,0.8-0.4,0.8-0.8V27.9c1.7,0.3,4,1,5.3,1.4
	c0.6,0.2,1.2-0.1,1.5-0.7l3.2-7.1C45.9,21,45.7,20.3,45.2,20z M24.7,21.6c-5.6,0-7-4.7-7.4-6.9c2.1,0.1,4.4,0.2,6.9,0.2
	c2.5,0,5.2-0.1,7.9-0.3C31.8,16.8,30.4,21.6,24.7,21.6z"/>
</svg>
