<?xml version="1.0" encoding="utf-8"?>
<!-- Generator: Adobe Illustrator 18.1.1, SVG Export Plug-In . SVG Version: 6.00 Build 0)  -->
<!DOCTYPE svg PUBLIC "-//W3C//DTD SVG 1.1//EN" "http://www.w3.org/Graphics/SVG/1.1/DTD/svg11.dtd">
<svg version="1.1" id="Layer_1" xmlns="http://www.w3.org/2000/svg" xmlns:xlink="http://www.w3.org/1999/xlink" x="0px" y="0px"
	 viewBox="0 0 100 100" enable-background="new 0 0 100 100" xml:space="preserve">
<path fill="#2C4351" d="M86.2,32.5h-35l17.1-20.8c1.1-1.3,0.9-3.2-0.4-4.3c-1.3-1.1-3.2-0.9-4.3,0.4L47.1,27.9L36.3,15.6
	c-1.1-1.3-3-1.4-4.3-0.3c-1.3,1.1-1.4,3-0.3,4.3L43,32.5H13.8C8.1,32.5,3.6,37,3.6,42.7v47.1c0,5.6,4.6,10.2,10.2,10.2h72.5
	c5.6,0,10.2-4.6,10.2-10.2V42.7C96.4,37,91.9,32.5,86.2,32.5z M76.4,75c0,1.2-0.1,7.4-5.2,12.5c-3.2,3.2-7.6,5.2-12.5,5.2
	c-4.2,0.4-9.1,0.5-14,0.6c-5.5,0-10.2-0.1-14.8-0.6c-1.2,0-7.4-0.1-12.5-5.2c-3.2-3.2-5.2-7.6-5.2-12.5c-0.3-2.7-0.3-5.4-0.3-8.6
	c0-3.1,0-6.3,0.3-8.9c0-1.2,0.1-7.4,5.2-12.5c3.2-3.2,7.6-5.2,12.5-5.2c4.3-0.5,9.2-0.6,14.3-0.6c5.3,0,10,0.1,14.4,0.6
	c1.2,0,7.4,0.1,12.5,5.2c3.2,3.2,5.2,7.6,5.2,12.5c0.5,2.2,0.5,5.2,0.6,8.3C77,69.5,76.9,72.5,76.4,75z M86.2,66.4
	c-2.4,0-4.4-2-4.4-4.4c0-2.4,2-4.4,4.4-4.4c2.4,0,4.4,2,4.4,4.4C90.6,64.4,88.6,66.4,86.2,66.4z M86.2,52.3c-2.4,0-4.4-2-4.4-4.4
	c0-2.4,2-4.4,4.4-4.4c2.4,0,4.4,2,4.4,4.4C90.6,50.4,88.6,52.3,86.2,52.3z"/>
</svg>
