<?xml version="1.0" encoding="utf-8"?>
<!-- Generator: Adobe Illustrator 20.0.0, SVG Export Plug-In . SVG Version: 6.00 Build 0)  -->
<svg version="1.1" id="Слой_1" xmlns="http://www.w3.org/2000/svg" xmlns:xlink="http://www.w3.org/1999/xlink" x="0px" y="0px"
	 viewBox="0 0 106.7 109.9" style="enable-background:new 0 0 106.7 109.9;" xml:space="preserve">
<style type="text/css">
	.st0{fill:#2C4351;}
</style>
<path id="family" class="st0" d="M56.4,99.9v-10c0-0.9,0.2-1.8,0.6-2.6c0.6-1.2,1.5-2.2,2.7-2.8c0.8-0.5,1.8-0.7,2.7-0.8
	c0.1,0,0.2-0.1,0.2-0.1h8.8c2.8,0,6.3,2.9,6.3,6.3v10l19.2,0V70.1c0-11.4-9.2-20.6-20.6-20.6h-0.7c-5.5,0-10.8,2.2-14.7,6.2
	c-0.2,0.1-0.4,0.2-0.6,0.3c0-0.1,0-0.2,0-0.3c0-9.7-5.6-15.3-15.4-15.3h0c-4.4,0-8,1.2-10.6,3.4H23.8c-7.8,0-14,6.3-14,14v42
	 M33,99.9L33,99.9l0-21.3c0-4,3.2-7.2,7.2-7.2h9.7c0.6,0,1.1,0.1,1.7,0.3c0.6,0.2,1.1,0.4,1.6,0.7c0.3,1.9,1,3.7,2.1,5.3
	c0.5,0.7,1,1.4,1.7,2c-0.6,0.3-1.1,0.7-1.7,1.2c-1.7,1.5-3,3.4-3.7,5.6c-0.3,1.1-0.5,2.2-0.6,3.4v10 M52.6,63.2
	c-0.3,0.3-0.7,0.6-1.1,0.9c-1.9,1.2-4.2,1.8-6.5,1.7h0c-6.7,0-10-3.3-10-10c0-6.4,3.1-9.5,9.4-9.7c0.2,0,0.4-0.1,0.6-0.1h0
	c6.7,0,10,3.2,10,9.8C55,59,54.2,61.5,52.6,63.2 M76,69c0,2.9-0.7,5.2-2.2,6.6c-1.4,1.5-3.7,2.2-6.7,2.2h0c-1.7,0-3.3-0.4-4.8-1.1
	c-2.5-1.2-3.8-3.6-3.9-7.2c0-0.2-0.1-0.4-0.1-0.6c0-2.9,0.7-5.1,2.1-6.5c1.4-1.4,3.7-2.2,6.7-2.2h0c3,0,5.3,0.7,6.8,2.2
	C75.3,63.9,76,66.1,76,69 M76.1,46.2c10.2,0,15.3-5.8,15.3-15.3c0-9.6-5.1-15.1-15.3-15c-10.2,0-15.3,5.6-15.3,15.1
	C60.8,40.5,65.9,46.2,76.1,46.2 M30.6,40.4c10.2,0,15.3-5.7,15.3-15.3c0-9.6-5.1-15.1-15.3-15.1c-10.2,0-15.3,5.5-15.3,15
	C15.3,34.6,20.4,40.4,30.6,40.4"/>
</svg>
