<?xml version="1.0" encoding="UTF-8" standalone="no"?>
<svg
   xmlns:dc="http://purl.org/dc/elements/1.1/"
   xmlns:cc="http://creativecommons.org/ns#"
   xmlns:rdf="http://www.w3.org/1999/02/22-rdf-syntax-ns#"
   xmlns:svg="http://www.w3.org/2000/svg"
   xmlns="http://www.w3.org/2000/svg"
   viewBox="0 0 33.333332 33.333332"
   height="33.333332"
   width="33.333332"
   xml:space="preserve"
   id="svg2"
   version="1.1"><metadata
     id="metadata8"><rdf:RDF><cc:Work
         rdf:about=""><dc:format>image/svg+xml</dc:format><dc:type
           rdf:resource="http://purl.org/dc/dcmitype/StillImage" /></cc:Work></rdf:RDF></metadata><defs
     id="defs6"><clipPath
       id="clipPath18"
       clipPathUnits="userSpaceOnUse"><path
         id="path16"
         d="M 0,25 H 25 V 0 H 0 Z" /></clipPath></defs><g
     transform="matrix(1.3333333,0,0,-1.3333333,0,33.333333)"
     id="g10"><g
       id="g12"><g
         clip-path="url(#2C4351th18)"
         id="g14"><g
           transform="translate(6.9483,7.0324)"
           id="g20"><path
             id="path22"
             style="fill:#2C4351;fill-opacity:1;fill-rule:nonzero;stroke:none"
             d="m 0,0 c -1.889,0 -3.426,1.537 -3.426,3.426 0,1.89 1.537,3.427 3.426,3.427 1.889,0 3.426,-1.537 3.426,-3.427 C 3.426,1.537 1.889,0 0,0 M 11.103,0 C 9.214,0 7.677,1.537 7.677,3.426 c 0,1.89 1.537,3.427 3.426,3.427 1.889,0 3.426,-1.537 3.426,-3.427 C 14.529,1.537 12.992,0 11.103,0 m 6.818,3.559 -1.471,6.757 c -0.032,0.093 -0.82,2.29 -3.146,2.943 -0.361,0.1 -0.734,-0.11 -0.835,-0.47 -0.101,-0.36 0.109,-0.734 0.469,-0.835 0.211,-0.059 0.403,-0.138 0.579,-0.228 1.184,-0.604 1.626,-1.777 1.632,-1.776 L 15.922,6.385 16.417,4.103 H 15.816 C 15.483,6.417 13.508,8.207 11.103,8.207 8.994,8.207 7.221,6.826 6.587,4.927 6.28,5.089 5.93,5.19 5.552,5.19 5.173,5.19 4.823,5.089 4.516,4.927 3.883,6.826 2.109,8.207 0,8.207 c -2.404,0 -4.38,-1.79 -4.712,-4.104 h -0.602 l 0.491,2.272 0.755,3.496 c 0.005,0.014 0.445,1.237 1.654,1.856 0.177,0.09 0.369,0.168 0.579,0.227 0.36,0.101 0.571,0.475 0.47,0.835 -0.102,0.36 -0.475,0.57 -0.836,0.47 -2.325,-0.653 -3.114,-2.85 -3.168,-3.022 L -6.817,3.559 c -0.08,-0.365 0.152,-0.726 0.518,-0.805 0.048,-0.01 0.096,-0.016 0.144,-0.016 0.052,0 0.101,0.015 0.151,0.026 V 2.749 h 1.292 C -4.38,0.436 -2.404,-1.354 0,-1.354 c 2.574,0 4.665,2.049 4.763,4.599 h 0.042 c 0,0.32 0.342,0.591 0.747,0.591 0.405,0 0.746,-0.271 0.746,-0.591 h 0.043 c 0.097,-2.55 2.188,-4.599 4.762,-4.599 2.405,0 4.38,1.79 4.713,4.103 h 1.292 v 0.015 c 0.049,-0.011 0.098,-0.026 0.15,-0.026 0.048,0 0.096,0.006 0.145,0.016 0.365,0.079 0.597,0.44 0.518,0.805" /></g></g></g></g></svg>