<?xml version="1.0" encoding="UTF-8" standalone="no"?>
<svg
   xmlns:dc="http://purl.org/dc/elements/1.1/"
   xmlns:cc="http://creativecommons.org/ns#"
   xmlns:rdf="http://www.w3.org/1999/02/22-rdf-syntax-ns#"
   xmlns:svg="http://www.w3.org/2000/svg"
   xmlns="http://www.w3.org/2000/svg"
   viewBox="0 0 33.333332 33.333332"
   height="33.333332"
   width="33.333332"
   xml:space="preserve"
   id="svg2"
   version="1.1"><metadata
     id="metadata8"><rdf:RDF><cc:Work
         rdf:about=""><dc:format>image/svg+xml</dc:format><dc:type
           rdf:resource="http://purl.org/dc/dcmitype/StillImage" /></cc:Work></rdf:RDF></metadata><defs
     id="defs6"><clipPath
       id="clipPath18"
       clipPathUnits="userSpaceOnUse"><path
         id="path16"
         d="M 0,25 H 25 V 0 H 0 Z" /></clipPath></defs><g
     transform="matrix(1.3333333,0,0,-1.3333333,0,33.333333)"
     id="g10"><g
       id="g12"><g
         clip-path="url(#2C4351th18)"
         id="g14"><g
           transform="translate(8.2265,23.1452)"
           id="g20"><path
             id="path22"
             style="fill:#2C4351;fill-opacity:1;fill-rule:nonzero;stroke:none"
             d="m 0,0 c 1.398,0 2.231,-0.65 3.113,-1.338 0.838,-0.654 1.789,-1.395 3.162,-1.395 0.489,0 0.886,0.397 0.886,0.886 0,0.488 -0.397,0.885 -0.886,0.885 -0.39,0 -0.73,0.117 -1.068,0.307 0.948,0.324 2.014,0.603 2.765,0.658 1.591,0.115 3.669,-0.188 4.719,-1.131 0.418,-0.373 0.629,-0.812 0.648,-1.339 0.062,-1.737 -0.495,-2.663 -1.139,-3.736 -0.562,-0.935 -1.198,-1.994 -1.333,-3.582 -0.031,-0.362 -0.061,-0.756 -0.092,-1.172 -0.219,-2.885 -0.55,-7.244 -1.979,-9.269 -0.594,-0.842 -0.987,-0.982 -1.045,-0.968 -0.037,0.01 -0.164,0.139 -0.218,0.319 -0.016,0.194 0.139,0.889 0.253,1.397 0.441,1.971 1.045,4.671 -0.303,6.354 -0.682,0.852 -1.745,1.284 -3.261,1.284 -1.413,0 -2.476,-0.432 -3.158,-1.284 -1.348,-1.683 -0.744,-4.383 -0.303,-6.354 0.114,-0.508 0.269,-1.203 0.263,-1.347 -0.081,-0.292 -0.215,-0.471 -0.219,-0.492 -0.002,0 -0.315,0.062 -0.896,0.885 -1.527,2.163 -1.934,7.088 -2.177,10.031 l -0.052,0.616 c -0.135,1.588 -0.771,2.647 -1.333,3.582 -0.644,1.073 -1.201,1.999 -1.139,3.736 C -4.768,-1.793 -4.704,0 0,0 m -5.171,-7.116 c 0.529,-0.881 0.986,-1.641 1.086,-2.82 l 0.051,-0.611 c 0.275,-3.325 0.691,-8.349 2.496,-10.907 0.767,-1.086 1.55,-1.635 2.333,-1.635 0.096,0 0.193,0.008 0.29,0.025 0.76,0.132 1.376,0.791 1.646,1.765 0.134,0.482 0.009,1.088 -0.241,2.207 -0.342,1.53 -0.86,3.841 -0.044,4.86 0.335,0.418 0.915,0.62 1.879,0.62 0.861,0 1.441,-0.202 1.776,-0.62 0.816,-1.019 0.298,-3.33 -0.044,-4.86 -0.25,-1.119 -0.375,-1.725 -0.241,-2.207 0.191,-0.689 0.72,-1.482 1.632,-1.64 0.941,-0.16 1.887,0.405 2.795,1.691 1.711,2.425 2.05,6.894 2.298,10.157 0.031,0.411 0.061,0.798 0.091,1.155 0.101,1.179 0.557,1.939 1.086,2.82 0.69,1.149 1.472,2.451 1.392,4.712 -0.036,1.005 -0.464,1.903 -1.236,2.595 C 12.338,1.567 9.747,1.91 7.842,1.769 6.553,1.675 4.689,1.093 3.497,0.591 2.635,1.202 1.554,1.772 0,1.772 c -4.256,0 -6.464,-1.405 -6.563,-4.176 -0.08,-2.261 0.702,-3.563 1.392,-4.712" /></g></g></g></g></svg>