<?xml version="1.0" encoding="UTF-8" standalone="no"?>
<svg
   xmlns:dc="http://purl.org/dc/elements/1.1/"
   xmlns:cc="http://creativecommons.org/ns#"
   xmlns:rdf="http://www.w3.org/1999/02/22-rdf-syntax-ns#"
   xmlns:svg="http://www.w3.org/2000/svg"
   xmlns="http://www.w3.org/2000/svg"
   viewBox="0 0 33.333332 33.333332"
   height="33.333332"
   width="33.333332"
   xml:space="preserve"
   id="svg2"
   version="1.1"><metadata
     id="metadata8"><rdf:RDF><cc:Work
         rdf:about=""><dc:format>image/svg+xml</dc:format><dc:type
           rdf:resource="http://purl.org/dc/dcmitype/StillImage" /></cc:Work></rdf:RDF></metadata><defs
     id="defs6"><clipPath
       id="clipPath18"
       clipPathUnits="userSpaceOnUse"><path
         id="path16"
         d="M 0,25 H 25 V 0 H 0 Z" /></clipPath></defs><g
     transform="matrix(1.3333333,0,0,-1.3333333,0,33.333333)"
     id="g10"><g
       id="g12"><g
         clip-path="url(#2C4351th18)"
         id="g14"><g
           transform="translate(23.2875,11.093)"
           id="g20"><path
             id="path22"
             style="fill:#2C4351;fill-opacity:1;fill-rule:nonzero;stroke:none"
             d="m 0,0 c -0.624,-1.554 -1.915,-3.368 -4.544,-3.736 0.595,1.412 0.916,2.872 1.089,4.091 h 3.127 c 0.182,0 0.289,-0.066 0.333,-0.129 C 0.04,0.172 0.04,0.096 0,0 M 1.147,0.999 C 0.835,1.459 0.285,1.735 -0.328,1.735 h -2.981 c 0.031,0.449 0.042,0.822 0.047,1.089 0.002,0.254 -0.209,0.46 -0.465,0.46 H -22.24 c -0.255,0 -0.466,-0.206 -0.462,-0.46 0.025,-1.987 0.536,-9.822 6.885,-11.731 h -5.949 c -0.375,0 -0.792,-0.285 -0.929,-0.635 l -0.184,-0.478 c -0.137,-0.35 0.056,-0.635 0.433,-0.635 H -3.52 c 0.377,0 0.57,0.285 0.433,0.635 l -0.187,0.478 c -0.136,0.35 -0.552,0.635 -0.929,0.635 h -5.659 c 2.157,0.676 3.612,2.091 4.591,3.734 4.099,0.115 5.864,2.95 6.55,4.659 0.211,0.523 0.164,1.075 -0.132,1.513" /></g><g
           transform="translate(10.1291,14.9741)"
           id="g24"><path
             id="path26"
             style="fill:#2C4351;fill-opacity:1;fill-rule:nonzero;stroke:none"
             d="m 0,0 c 0.097,-0.11 0.233,-0.168 0.368,-0.168 0.115,0 0.229,0.04 0.321,0.119 C 0.891,0.128 0.914,0.436 0.739,0.64 0.725,0.656 -0.568,2.185 0.263,3.231 1.372,4.627 0.696,5.766 0.184,6.174 -0.025,6.343 -0.334,6.306 -0.501,6.096 -0.667,5.887 -0.635,5.581 -0.426,5.413 -0.307,5.312 0.24,4.771 -0.501,3.837 -1.836,2.158 -0.074,0.088 0,0" /></g><g
           transform="translate(12.7401,23.6962)"
           id="g28"><path
             id="path30"
             style="fill:#2C4351;fill-opacity:1;fill-rule:nonzero;stroke:none"
             d="m 0,0 c 0.209,0.168 0.24,0.474 0.074,0.683 -0.168,0.211 -0.476,0.244 -0.687,0.078 -0.509,-0.409 -1.185,-1.549 -0.076,-2.943 0.83,-1.046 -0.463,-2.577 -0.476,-2.591 -0.175,-0.204 -0.155,-0.512 0.049,-0.689 0.092,-0.081 0.207,-0.119 0.319,-0.119 0.137,0 0.274,0.056 0.371,0.168 0.074,0.088 1.836,2.158 0.5,3.837 C -0.667,-0.642 -0.119,-0.101 0,0" /></g></g></g></g></svg>