<?xml version="1.0" encoding="utf-8"?>
<!-- Generator: Adobe Illustrator 18.1.1, SVG Export Plug-In . SVG Version: 6.00 Build 0)  -->
<!DOCTYPE svg PUBLIC "-//W3C//DTD SVG 1.1//EN" "http://www.w3.org/Graphics/SVG/1.1/DTD/svg11.dtd">
<svg version="1.1" id="Layer_1" xmlns="http://www.w3.org/2000/svg" xmlns:xlink="http://www.w3.org/1999/xlink" x="0px" y="0px"
	 viewBox="0 0 100 100" enable-background="new 0 0 100 100" xml:space="preserve">
<g>
	<path fill="#2C4351" d="M77.5,30.7l2.6,5.9l8.4-14.7l-16.2-2.9l2.4,5.4C51.9,31.7,29,8.4,6.1,22.1v5.6C29.9,14,53.7,40.5,77.5,30.7
		z"/>
	<path fill="#2C4351" d="M74.8,87.8C51.9,95.3,29,72,6.1,85.8v5.6c23.8-13.8,47.6,12.6,71.4,2.7l2.6,5.9l8.4-14.7l-16.2-2.9
		L74.8,87.8z"/>
	<path fill="#2C4351" d="M32.1,73.7c21.4-12.7,5-34.4,5-34.4c0.1,3.4-3.4,7.6-3.4,7.6c-0.2-1.9-0.8-3.8-1.7-5.8
		c-0.9-1.9-1.9-3.5-3-4.8c-1.1-1.2-2.3-2.4-3.6-3.6c-1.4-1.2-2.3-1.9-2.8-2.3c-0.5-0.4-0.9-0.6-1.2-0.8c-0.2,8-2.7,15-7.6,21
		c-0.2-2.4-0.9-4.7-2.2-7.1c-0.1,1.8-0.8,4.2-2.2,7.2c-1.3,3-2.1,5.1-2.5,6.5c-0.7,3.4-0.3,6.4,1.2,8.9c1.5,2.6,4.5,5.1,8.9,7.6
		c-0.9-1.9-1.4-3.6-1.5-5.2c-0.1-1.6,0.1-2.9,0.5-3.9c0.4-1,1-2.1,1.9-3.4c1.6-2.3,2.6-4.6,3-6.9l0.5,0.9c0.3,0.6,0.4,1.6,0.6,2.9
		c0.1,1.3,0.1,2.9-0.2,5c1.5-1.7,2.5-4.1,3.2-7.3c0.7-3.2,0.8-5.6,0.5-7c3.8,2.6,6.3,6.4,7.6,11.3c1.3,4.9,0.9,9.5-1.2,13.7
		L32.1,73.7z"/>
	<path fill="#2C4351" d="M74.7,56.3c-7.5,2.4-15,1.5-22.4-0.3v6.7c8.4,2.2,16.8,3.3,25.2-0.1l2.6,5.9l8.4-14.7l-16.2-2.9L74.7,56.3z
		"/>
</g>
</svg>
