<?xml version="1.0" encoding="utf-8"?>
<!-- Generator: Adobe Illustrator 18.1.1, SVG Export Plug-In . SVG Version: 6.00 Build 0)  -->
<!DOCTYPE svg PUBLIC "-//W3C//DTD SVG 1.1//EN" "http://www.w3.org/Graphics/SVG/1.1/DTD/svg11.dtd">
<svg version="1.1" id="Layer_1" xmlns="http://www.w3.org/2000/svg" xmlns:xlink="http://www.w3.org/1999/xlink" x="0px" y="0px"
	 viewBox="0 0 100 100" enable-background="new 0 0 100 100" xml:space="preserve">
<g>
	<path fill="#2C4351" d="M72.5,37.5c0,0,5.5-7.2,4-12.6c-1.5-5.4-6-10.3-6-10.3s-6.2,7.9-3.3,13.5C69.9,33.2,71.1,34.3,72.5,37.5z"
		/>
	<path fill="#2C4351" d="M83.9,28.8c-5.3,1.8-8.1,10.4-8.1,10.4c3.5-0.7,5-0.3,10.6-0.9c6.3-0.7,9.3-10.3,9.3-10.3
		S89.2,27,83.9,28.8z"/>
	<path fill="#2C4351" d="M88.7,21c1.9-3.6,0.3-9.7,0-10.5c0,0-6.2,1.5-8.6,6c-2.4,4.5,0.2,10.3,0.2,10.3S86.8,24.6,88.7,21z"/>
	<path fill="#2C4351" d="M65.9,50.3c0,0,5.9-7.9,3.8-13c-2.1-5.1-6-9.7-6-9.7s-6.1,7.9-2.6,14.7C64.5,49,65.5,48.9,65.9,50.3z"/>
	<path fill="#2C4351" d="M59.2,62.9c0,0,5.9-7.6,3.8-12.7c-2.1-5.1-6.2-9.8-6.2-9.8s-5.6,7.6-3.1,13.1C56.4,59,58.2,60.9,59.2,62.9z
		"/>
	<path fill="#2C4351" d="M77.6,41.5C72.2,42.7,69,52,69,52c1.3-0.4,1.8,0.5,9.4-0.5C85.9,50.6,89,41,89,41S83,40.4,77.6,41.5z"/>
	<path fill="#2C4351" d="M70.4,54.6c-5.4,1.1-8.3,10.3-8.3,10.3C64.3,64.6,67,65,72.9,64c6-1,9-9.9,9-9.9S75.8,53.4,70.4,54.6z"/>
	<path fill="#2C4351" d="M63.9,67c-1.9,0.4-3.5,1.9-4.8,3.5c-0.2-0.7-0.6-1.3-1.3-1.7c-0.4-0.2-0.9-0.3-1.4-0.3c0.7-2,0.9-4.1,0.2-6
		c-2.1-5.1-6.2-9.8-6.2-9.8s-5.6,7.6-3.1,13.1c2,4.4,3.6,6.5,4.7,8.2c-3.6,6.1-11,17.2-19.1,21c-1.3,0.6-1.9,2.1-1.3,3.4
		c0.4,0.9,1.4,1.5,2.3,1.5c0.4,0,0.7-0.1,1.1-0.2c9.2-4.2,17.1-15.8,21.1-22.5c2.1-0.2,4.8,0.1,10.3-0.8c6-1,9-9.9,9-9.9
		S69.2,65.9,63.9,67z"/>
	<path fill="#2C4351" d="M23.2,41.4c0,0,3.4-8.4,0.5-13.2c-2.9-4.8-8.6-8.2-8.6-8.2s-3.8,9.3,0.5,13.9C19.5,38,20.9,38.7,23.2,41.4z
		"/>
	<path fill="#2C4351" d="M31.8,30c-4.6,3.2-5,12.2-5,12.2c3.2-1.6,4.8-1.6,10-3.8C42.7,36,43,26,43,26S36.4,26.8,31.8,30z"/>
	<path fill="#2C4351" d="M34.3,21.1c0.9-4-2.3-9.4-2.9-10.1c0,0-5.6,3.1-6.6,8.1c-1.1,5,2.9,9.9,2.9,9.9S33.4,25.1,34.3,21.1z"/>
	<path fill="#2C4351" d="M20.3,55.5c0,0,3.6-9.2,0.2-13.5C17,37.6,12,34.2,12,34.2s-3.7,9.3,1.4,14.9C18.6,54.7,19.5,54.3,20.3,55.5
		z"/>
	<path fill="#2C4351" d="M23.8,56.4c1.2-0.8,1.9,0,8.9-3c7-3,7.4-13,7.4-13s-6,1-10.9,3.6C24.3,46.5,23.8,56.4,23.8,56.4z"/>
	<path fill="#2C4351" d="M36.8,54.9c0,0-6.1,1-11,3.6c-1.9,1-3.1,3.1-3.9,5.2c-0.4-0.6-1-1-1.7-1.1c-0.5-0.1-0.9,0-1.3,0.1
		c0.2-2.3-0.1-4.7-1.4-6.4c-3.4-4.3-8.6-7.8-8.6-7.8s-3.3,8.8,0.6,13.4c3.2,3.8,5.4,5.4,6.9,6.7c-1.5,6.2-5.1,18.1-11.5,25.8
		c-0.9,1.1-0.8,2.7,0.3,3.6c0.5,0.4,1.1,0.6,1.7,0.6c0.7,0,1.5-0.3,2-0.9c7-8.3,10.8-20.6,12.5-27.4c2-0.7,4.6-1.2,9.5-3.5
		C36.2,64.3,36.8,54.9,36.8,54.9z"/>
</g>
</svg>
