<?xml version="1.0" encoding="utf-8"?>
<!-- Generator: Adobe Illustrator 18.1.1, SVG Export Plug-In . SVG Version: 6.00 Build 0)  -->
<!DOCTYPE svg PUBLIC "-//W3C//DTD SVG 1.1//EN" "http://www.w3.org/Graphics/SVG/1.1/DTD/svg11.dtd">
<svg version="1.1" id="Layer_1" xmlns="http://www.w3.org/2000/svg" xmlns:xlink="http://www.w3.org/1999/xlink" x="0px" y="0px"
	 viewBox="0 0 100 100" enable-background="new 0 0 100 100" xml:space="preserve">
<g>
	<path fill="#2C4351" d="M74.6,34l2.5,5.6l8-14l-15.4-2.7l2.3,5.1c-21.8,7-43.6-15.3-65.3-2.2v5.3C29.3,18.1,51.9,43.3,74.6,34z"/>
	<path fill="#2C4351" d="M52.5,58.5v6.4c7.5,1.8,15,2.5,22.4-0.5l2.5,5.6l8-14L70,53.3l2.3,5.1C65.7,60.5,59.1,59.9,52.5,58.5z"/>
	<path fill="#2C4351" d="M8.4,58.7c-0.8-0.2-1.7,0.3-1.9,1.2c-0.2,0.8,0.3,1.7,1.2,1.9l3.8,0.9l-4,2.5c-0.7,0.5-1,1.4-0.5,2.2
		C7.3,67.8,7.8,68,8.3,68c0.3,0,0.6-0.1,0.8-0.2l4-2.5l-0.9,3.8c-0.2,0.8,0.3,1.7,1.2,1.9c0.1,0,0.2,0,0.4,0c0.7,0,1.4-0.5,1.5-1.2
		l1.6-6.9l7.2-4.5V67l-5,5c-0.6,0.6-0.6,1.6,0,2.2c0.6,0.6,1.6,0.6,2.2,0l2.8-2.8v4.7c0,0.9,0.7,1.6,1.6,1.6s1.6-0.7,1.6-1.6v-4.7
		l2.8,2.8c0.3,0.3,0.7,0.5,1.1,0.5c0.4,0,0.8-0.2,1.1-0.5c0.6-0.6,0.6-1.6,0-2.2l-5-5v-8.6l7.4,4.3l1.8,6.8c0.2,0.7,0.8,1.2,1.5,1.2
		c0.1,0,0.3,0,0.4-0.1c0.8-0.2,1.3-1.1,1.1-1.9l-1-3.8l4,2.3c0.2,0.1,0.5,0.2,0.8,0.2c0.5,0,1.1-0.3,1.4-0.8
		c0.4-0.8,0.2-1.7-0.6-2.2l-4-2.3l3.8-1c0.8-0.2,1.3-1.1,1.1-1.9c-0.2-0.8-1.1-1.3-1.9-1.1L36.3,60l-7.5-4.4l7.4-4.6l6.9,1.6
		c0.1,0,0.2,0,0.4,0c0.7,0,1.4-0.5,1.5-1.2c0.2-0.8-0.3-1.7-1.2-1.9L40,48.7l4-2.5c0.7-0.5,1-1.4,0.5-2.2c-0.5-0.7-1.4-1-2.2-0.5
		l-4,2.5l0.9-3.8c0.2-0.8-0.3-1.7-1.2-1.9c-0.8-0.2-1.7,0.3-1.9,1.2l-1.6,6.9l-7.2,4.5v-8.5l5-5c0.6-0.6,0.6-1.6,0-2.2
		c-0.6-0.6-1.6-0.6-2.2,0l-2.8,2.8v-4.7c0-0.9-0.7-1.6-1.6-1.6s-1.6,0.7-1.6,1.6v4.7l-2.8-2.8c-0.6-0.6-1.6-0.6-2.2,0
		c-0.6,0.6-0.6,1.6,0,2.2l5,5v8.6l-7.4-4.3l-1.8-6.8c-0.2-0.8-1.1-1.3-1.9-1.1c-0.8,0.2-1.3,1.1-1.1,1.9l1,3.8l-4-2.3
		c-0.8-0.4-1.7-0.2-2.2,0.6c-0.4,0.8-0.2,1.7,0.6,2.2l4,2.3l-3.8,1c-0.8,0.2-1.3,1.1-1.1,1.9c0.2,0.7,0.8,1.2,1.5,1.2
		c0.1,0,0.3,0,0.4-0.1l6.8-1.8l7.5,4.4l-7.4,4.6L8.4,58.7z"/>
	<path fill="#2C4351" d="M71.9,88.4c-21.8,7.1-43.6-15.1-65.4-1.9v5.3c22.7-13.2,45.3,12,68,2.6l2.5,5.6l8-14l-15.4-2.7L71.9,88.4z"
		/>
</g>
</svg>
