<?xml version="1.0" encoding="UTF-8" standalone="no"?>
<svg
   xmlns:dc="http://purl.org/dc/elements/1.1/"
   xmlns:cc="http://creativecommons.org/ns#"
   xmlns:rdf="http://www.w3.org/1999/02/22-rdf-syntax-ns#"
   xmlns:svg="http://www.w3.org/2000/svg"
   xmlns="http://www.w3.org/2000/svg"
   viewBox="0 0 33.333332 33.333332"
   height="33.333332"
   width="33.333332"
   xml:space="preserve"
   id="svg2"
   version="1.1"><metadata
     id="metadata8"><rdf:RDF><cc:Work
         rdf:about=""><dc:format>image/svg+xml</dc:format><dc:type
           rdf:resource="http://purl.org/dc/dcmitype/StillImage" /></cc:Work></rdf:RDF></metadata><defs
     id="defs6"><clipPath
       id="clipPath18"
       clipPathUnits="userSpaceOnUse"><path
         id="path16"
         d="M 0,25 H 25 V 0 H 0 Z" /></clipPath></defs><g
     transform="matrix(1.3333333,0,0,-1.3333333,0,33.333333)"
     id="g10"><g
       id="g12"><g
         clip-path="url(#2C4351th18)"
         id="g14"><g
           transform="translate(12.5,1.0166)"
           id="g20"><path
             id="path22"
             style="fill:#2C4351;fill-opacity:1;fill-rule:nonzero;stroke:none"
             d="m 0,0 c -4.31,0 -7.319,2.625 -7.319,6.377 v 3.328 l 0.009,0.05 v 2.84 c 0,0.622 0.479,1.125 1.062,1.125 0.582,0 1.057,-0.508 1.057,-1.125 V 9.605 L -5.167,9.491 V 9.127 c 0,-0.279 0.23,-0.509 0.508,-0.509 0.279,0 0.509,0.23 0.509,0.509 v 9.571 c 0,0.612 0.463,1.116 1.035,1.116 0.569,0 1.037,-0.504 1.037,-1.116 V 10.95 c 0,-0.278 0.225,-0.508 0.508,-0.508 0.284,0 0.509,0.23 0.509,0.508 v 10.896 c 0,0.618 0.478,1.121 1.061,1.121 0.583,0 1.056,-0.503 1.056,-1.121 v -1.43 L 1.041,20.272 V 11.04 c 0,-0.279 0.229,-0.514 0.514,-0.514 0.278,0 0.507,0.235 0.507,0.514 v 0.816 l 0.016,0.071 v 8.415 c 0.039,0.583 0.488,1.051 1.046,1.051 0.582,0 1.056,-0.508 1.056,-1.126 V 17.272 L 4.174,17.213 V 10.9 c 0,-0.278 0.23,-0.508 0.515,-0.508 0.278,0 0.507,0.23 0.507,0.508 v 1.206 l 0.005,0.03 v 5.107 c 0.021,0.603 0.484,1.086 1.056,1.086 0.583,0 1.056,-0.503 1.056,-1.121 V 6.377 C 7.313,2.625 4.305,0 0,0 M -8.335,11.518 V 6.377 c 0,-4.355 3.422,-7.394 8.335,-7.394 4.907,0 8.335,3.039 8.335,7.394 v 10.831 c 0,1.18 -0.931,2.142 -2.078,2.142 -0.389,0 -0.742,-0.114 -1.056,-0.304 v 1.221 c 0,1.181 -0.932,2.143 -2.077,2.143 -0.395,0 -0.758,-0.125 -1.072,-0.319 -0.12,1.066 -0.986,1.892 -2.052,1.892 -1.147,0 -2.078,-0.961 -2.078,-2.141 v -1.306 c -0.303,0.185 -0.658,0.298 -1.037,0.298 -1.13,0 -2.052,-0.96 -2.052,-2.136 v -4.28 c -0.319,0.199 -0.687,0.324 -1.081,0.324 -1.151,0 -2.082,-0.962 -2.082,-2.143 v -1.036 z" /></g></g></g></g></svg>