<?xml version="1.0" encoding="UTF-8" standalone="no"?>
<svg
   xmlns:dc="http://purl.org/dc/elements/1.1/"
   xmlns:cc="http://creativecommons.org/ns#"
   xmlns:rdf="http://www.w3.org/1999/02/22-rdf-syntax-ns#"
   xmlns:svg="http://www.w3.org/2000/svg"
   xmlns="http://www.w3.org/2000/svg"
   viewBox="0 0 33.333332 33.333332"
   height="33.333332"
   width="33.333332"
   xml:space="preserve"
   id="svg2"
   version="1.1"><metadata
     id="metadata8"><rdf:RDF><cc:Work
         rdf:about=""><dc:format>image/svg+xml</dc:format><dc:type
           rdf:resource="http://purl.org/dc/dcmitype/StillImage" /></cc:Work></rdf:RDF></metadata><defs
     id="defs6"><clipPath
       id="clipPath18"
       clipPathUnits="userSpaceOnUse"><path
         id="path16"
         d="M 0,25 H 25 V 0 H 0 Z" /></clipPath></defs><g
     transform="matrix(1.3333333,0,0,-1.3333333,0,33.333333)"
     id="g10"><g
       id="g12"><g
         clip-path="url(#2C4351th18)"
         id="g14"><g
           transform="translate(13.6514,18.75)"
           id="g20"><path
             id="path22"
             style="fill:#2C4351;fill-opacity:1;fill-rule:nonzero;stroke:none"
             d="M 0,0 V -0.104 L -3.802,-2.5 c -0.208,-0.156 -0.104,-0.521 0.156,-0.521 h 9.063 c 0.26,0 0.364,0.365 0.156,0.521 L 1.979,-0.156 V 0 c 0,3.438 -2.812,6.25 -6.25,6.25 -3.489,0 -6.302,-2.812 -6.302,-6.25 v -17.76 c 0,-0.521 0.469,-0.99 0.99,-0.99 0.573,0 0.989,0.469 0.989,0.99 V 0 c 0,2.344 1.927,4.271 4.271,4.271 C -1.927,4.271 0,2.344 0,0" /></g><g
           transform="translate(17.9743,14.2708)"
           id="g24"><path
             id="path26"
             style="fill:#2C4351;fill-opacity:1;fill-rule:nonzero;stroke:none"
             d="m 0,0 c 0.518,0 0.937,-0.42 0.937,-0.937 0,-0.518 -0.419,-0.938 -0.937,-0.938 -0.518,0 -0.937,0.42 -0.937,0.938 C -0.937,-0.42 -0.518,0 0,0" /></g><g
           transform="translate(18.8597,10.7812)"
           id="g28"><path
             id="path30"
             style="fill:#2C4351;fill-opacity:1;fill-rule:nonzero;stroke:none"
             d="m 0,0 c 0.518,0 0.937,-0.42 0.937,-0.937 0,-0.518 -0.419,-0.938 -0.937,-0.938 -0.518,0 -0.937,0.42 -0.937,0.938 C -0.937,-0.42 -0.518,0 0,0" /></g><g
           transform="translate(19.693,7.2917)"
           id="g32"><path
             id="path34"
             style="fill:#2C4351;fill-opacity:1;fill-rule:nonzero;stroke:none"
             d="m 0,0 c 0.518,0 0.937,-0.42 0.937,-0.937 0,-0.518 -0.419,-0.938 -0.937,-0.938 -0.518,0 -0.937,0.42 -0.937,0.938 C -0.937,-0.42 -0.518,0 0,0" /></g><g
           transform="translate(20.5264,3.8021)"
           id="g36"><path
             id="path38"
             style="fill:#2C4351;fill-opacity:1;fill-rule:nonzero;stroke:none"
             d="m 0,0 c 0.518,0 0.937,-0.42 0.937,-0.937 0,-0.518 -0.419,-0.938 -0.937,-0.938 -0.518,0 -0.937,0.42 -0.937,0.938 C -0.937,-0.42 -0.518,0 0,0" /></g><g
           transform="translate(15.8389,14.2708)"
           id="g40"><path
             id="path42"
             style="fill:#2C4351;fill-opacity:1;fill-rule:nonzero;stroke:none"
             d="m 0,0 c 0.518,0 0.937,-0.42 0.937,-0.937 0,-0.518 -0.419,-0.938 -0.937,-0.938 -0.518,0 -0.937,0.42 -0.937,0.938 C -0.937,-0.42 -0.518,0 0,0" /></g><g
           transform="translate(16.0993,10.7812)"
           id="g44"><path
             id="path46"
             style="fill:#2C4351;fill-opacity:1;fill-rule:nonzero;stroke:none"
             d="m 0,0 c 0.518,0 0.937,-0.42 0.937,-0.937 0,-0.518 -0.419,-0.938 -0.937,-0.938 -0.518,0 -0.937,0.42 -0.937,0.938 C -0.937,-0.42 -0.518,0 0,0" /></g><g
           transform="translate(16.3597,7.2917)"
           id="g48"><path
             id="path50"
             style="fill:#2C4351;fill-opacity:1;fill-rule:nonzero;stroke:none"
             d="m 0,0 c 0.518,0 0.937,-0.42 0.937,-0.937 0,-0.518 -0.419,-0.938 -0.937,-0.938 -0.518,0 -0.937,0.42 -0.937,0.938 C -0.937,-0.42 -0.518,0 0,0" /></g><g
           transform="translate(16.6201,3.8021)"
           id="g52"><path
             id="path54"
             style="fill:#2C4351;fill-opacity:1;fill-rule:nonzero;stroke:none"
             d="m 0,0 c 0.518,0 0.937,-0.42 0.937,-0.937 0,-0.518 -0.419,-0.938 -0.937,-0.938 -0.518,0 -0.937,0.42 -0.937,0.938 C -0.937,-0.42 -0.518,0 0,0" /></g><g
           transform="translate(13.6514,14.2708)"
           id="g56"><path
             id="path58"
             style="fill:#2C4351;fill-opacity:1;fill-rule:nonzero;stroke:none"
             d="m 0,0 c 0.518,0 0.937,-0.42 0.937,-0.937 0,-0.518 -0.419,-0.938 -0.937,-0.938 -0.518,0 -0.937,0.42 -0.937,0.938 C -0.937,-0.42 -0.518,0 0,0" /></g><g
           transform="translate(13.391,10.7812)"
           id="g60"><path
             id="path62"
             style="fill:#2C4351;fill-opacity:1;fill-rule:nonzero;stroke:none"
             d="m 0,0 c 0.518,0 0.937,-0.42 0.937,-0.937 0,-0.518 -0.419,-0.938 -0.937,-0.938 -0.518,0 -0.937,0.42 -0.937,0.938 C -0.937,-0.42 -0.518,0 0,0" /></g><g
           transform="translate(13.0785,7.2917)"
           id="g64"><path
             id="path66"
             style="fill:#2C4351;fill-opacity:1;fill-rule:nonzero;stroke:none"
             d="m 0,0 c 0.518,0 0.937,-0.42 0.937,-0.937 0,-0.518 -0.419,-0.938 -0.937,-0.938 -0.518,0 -0.937,0.42 -0.937,0.938 C -0.937,-0.42 -0.518,0 0,0" /></g><g
           transform="translate(12.766,3.8021)"
           id="g68"><path
             id="path70"
             style="fill:#2C4351;fill-opacity:1;fill-rule:nonzero;stroke:none"
             d="m 0,0 c 0.518,0 0.937,-0.42 0.937,-0.937 0,-0.518 -0.419,-0.938 -0.937,-0.938 -0.518,0 -0.937,0.42 -0.937,0.938 C -0.937,-0.42 -0.518,0 0,0" /></g><g
           transform="translate(11.516,14.2708)"
           id="g72"><path
             id="path74"
             style="fill:#2C4351;fill-opacity:1;fill-rule:nonzero;stroke:none"
             d="m 0,0 c 0.518,0 0.937,-0.42 0.937,-0.937 0,-0.518 -0.419,-0.938 -0.937,-0.938 -0.518,0 -0.937,0.42 -0.937,0.938 C -0.937,-0.42 -0.518,0 0,0" /></g><g
           transform="translate(10.6826,10.7812)"
           id="g76"><path
             id="path78"
             style="fill:#2C4351;fill-opacity:1;fill-rule:nonzero;stroke:none"
             d="m 0,0 c 0.518,0 0.937,-0.42 0.937,-0.937 0,-0.518 -0.419,-0.938 -0.937,-0.938 -0.518,0 -0.937,0.42 -0.937,0.938 C -0.937,-0.42 -0.518,0 0,0" /></g><g
           transform="translate(9.7972,7.2917)"
           id="g80"><path
             id="path82"
             style="fill:#2C4351;fill-opacity:1;fill-rule:nonzero;stroke:none"
             d="m 0,0 c 0.518,0 0.937,-0.42 0.937,-0.937 0,-0.518 -0.419,-0.938 -0.937,-0.938 -0.518,0 -0.937,0.42 -0.937,0.938 C -0.937,-0.42 -0.518,0 0,0" /></g><g
           transform="translate(8.9639,3.8542)"
           id="g84"><path
             id="path86"
             style="fill:#2C4351;fill-opacity:1;fill-rule:nonzero;stroke:none"
             d="m 0,0 c 0.518,0 0.937,-0.42 0.937,-0.937 0,-0.518 -0.419,-0.938 -0.937,-0.938 -0.518,0 -0.937,0.42 -0.937,0.938 C -0.937,-0.42 -0.518,0 0,0" /></g></g></g></g></svg>