<?xml version="1.0" encoding="utf-8"?>
<!-- Generator: Adobe Illustrator 18.1.1, SVG Export Plug-In . SVG Version: 6.00 Build 0)  -->
<!DOCTYPE svg PUBLIC "-//W3C//DTD SVG 1.1//EN" "http://www.w3.org/Graphics/SVG/1.1/DTD/svg11.dtd">
<svg version="1.1" id="Layer_1" xmlns="http://www.w3.org/2000/svg" xmlns:xlink="http://www.w3.org/1999/xlink" x="0px" y="0px"
	 viewBox="0 0 100 100" enable-background="new 0 0 100 100" xml:space="preserve">
<g>
	<path fill="#2C4351" d="M36.1,64.9c0-2.9-2.4-5.3-5.3-5.3c-0.7,0-1.3,0.1-1.9,0.4c0.9-0.9,1.4-2.2,1.4-3.5c0-2.8-2.3-5-5-5
		c-0.4,0-0.9,0.1-1.3,0.2c1-0.9,1.7-2.2,1.7-3.6c0-2.6-2.1-4.8-4.8-4.8c-0.3,0-0.6,0-0.9,0.1c1.2-0.8,2.1-2.2,2.1-3.8
		c0-2.5-2-4.5-4.5-4.5c-0.1,0-0.2,0-0.3,0c1.2-0.7,2-2.1,2-3.6c0-2.3-1.9-4.2-4.2-4.2c-0.1,0-0.1,0-0.2,0c1.2-0.7,1.9-2,1.9-3.4
		c0-2.2-1.8-4-4-4c-2.2,0-4,1.8-4,4c0,2.2,1.8,4,4,4c0,0,0.1,0,0.1,0c-1.3,0.7-2.1,2.1-2.1,3.7c0,2.3,1.9,4.2,4.2,4.2
		c0.1,0,0.2,0,0.2,0c-1.3,0.8-2.2,2.2-2.2,3.9c0,2.5,2,4.5,4.5,4.5c0.3,0,0.5,0,0.8-0.1c-1.3,0.8-2.2,2.3-2.2,4
		c0,2.6,2.1,4.8,4.8,4.8c0.4,0,0.8-0.1,1.2-0.1c-1.1,0.9-1.8,2.3-1.8,3.8c0,2.8,2.3,5,5,5c0.6,0,1.2-0.1,1.7-0.3
		c-1,1-1.6,2.3-1.6,3.8c0,2.9,2.4,5.3,5.3,5.3C33.8,70.2,36.1,67.8,36.1,64.9z"/>
	<circle fill="#2C4351" cx="11.7" cy="16.2" r="3.7"/>
	<circle fill="#2C4351" cx="10.4" cy="8.9" r="3.4"/>
	<path fill="#2C4351" d="M60.8,66.3c-3.1,0-5.6,2.5-5.6,5.6c0,0.3,0,0.5,0.1,0.8c-0.9-2.1-3-3.5-5.4-3.5c-2.3,0-4.3,1.3-5.2,3.3
		c0-0.2,0-0.3,0-0.5c0-3.1-2.5-5.6-5.6-5.6c-3.1,0-5.6,2.5-5.6,5.6c0,3.1,2.5,5.6,5.6,5.6c2.2,0,4-1.2,5-3.1c0,0.2,0,0.4,0,0.6
		c0,1.5,0.6,2.9,1.6,4c-3,1.9-5,5.6-5,9.9c0,6.2,4.2,11.2,9.3,11.2c5.1,0,9.3-5,9.3-11.2c0-4.3-2-8.1-5-9.9c1-1,1.6-2.4,1.6-4
		c0-0.3,0-0.6-0.1-0.9c0.9,2,2.8,3.3,5.1,3.3c3.1,0,5.6-2.5,5.6-5.6C66.4,68.8,63.9,66.3,60.8,66.3z M50,94.5c-2,0-3.8-2.6-3.8-5.7
		c0-3.1,1.7-5.7,3.8-5.7c2,0,3.8,2.6,3.8,5.7C53.7,91.9,52,94.5,50,94.5z"/>
	<path fill="#2C4351" d="M87.1,19.8c-2.2,0-4,1.8-4,4c0,1.4,0.8,2.7,1.9,3.4c-0.1,0-0.1,0-0.2,0c-2.3,0-4.2,1.9-4.2,4.2
		c0,1.5,0.8,2.9,2,3.6c-0.1,0-0.2,0-0.3,0c-2.5,0-4.5,2-4.5,4.5c0,1.6,0.8,3,2.1,3.8c-0.3-0.1-0.6-0.1-0.9-0.1
		c-2.6,0-4.8,2.1-4.8,4.8c0,1.4,0.6,2.7,1.7,3.6c-0.4-0.1-0.8-0.2-1.3-0.2c-2.8,0-5,2.3-5,5c0,1.4,0.6,2.6,1.4,3.5
		c-0.6-0.2-1.2-0.4-1.9-0.4c-2.9,0-5.3,2.4-5.3,5.3c0,2.9,2.4,5.3,5.3,5.3c2.9,0,5.3-2.4,5.3-5.3c0-1.5-0.6-2.8-1.6-3.8
		c0.5,0.2,1.1,0.3,1.7,0.3c2.8,0,5-2.3,5-5c0-1.5-0.7-2.9-1.8-3.8c0.4,0.1,0.8,0.1,1.2,0.1c2.6,0,4.8-2.1,4.8-4.8
		c0-1.7-0.9-3.2-2.2-4c0.3,0,0.5,0.1,0.8,0.1c2.5,0,4.5-2,4.5-4.5c0-1.6-0.9-3.1-2.2-3.9c0.1,0,0.2,0,0.2,0c2.3,0,4.2-1.9,4.2-4.2
		c0-1.6-0.9-2.9-2.1-3.7c0,0,0.1,0,0.1,0c2.2,0,4-1.8,4-4C91.1,21.6,89.3,19.8,87.1,19.8z"/>
	<circle fill="#2C4351" cx="88.3" cy="16.2" r="3.7"/>
	<circle fill="#2C4351" cx="89.6" cy="8.9" r="3.4"/>
</g>
</svg>
