<?xml version="1.0" encoding="utf-8"?>
<!-- Generator: Adobe Illustrator 18.1.1, SVG Export Plug-In . SVG Version: 6.00 Build 0)  -->
<!DOCTYPE svg PUBLIC "-//W3C//DTD SVG 1.1//EN" "http://www.w3.org/Graphics/SVG/1.1/DTD/svg11.dtd">
<svg version="1.1" id="Layer_1" xmlns="http://www.w3.org/2000/svg" xmlns:xlink="http://www.w3.org/1999/xlink" x="0px" y="0px"
	 viewBox="0 0 100 100" enable-background="new 0 0 100 100" xml:space="preserve">
<g>
	<path fill="#2C4351" d="M46,76.3c-1.7,0-3.2,0.6-4.3,1.7c-2.6,2.6-3.6,6.5-2.4,9c0,0.1,0.1,0.1,0.1,0.2c1.6,4.9,5.1,7,7.9,7.3
		c3.3,0.4,5.4-0.6,6.5-3c1.7-4,0-10.2-2.8-13.2C49.8,77,47.9,76.3,46,76.3z"/>
	<path fill="#2C4351" d="M69.6,83.5c-0.4,0-0.8,0-1.2,0.1c-4.1,0.9-9.2,5.4-9.8,9.7c-0.3,2.4,0.9,4.3,3.7,5.8
		c1.1,0.6,2.4,0.9,3.8,0.9c2.3,0,4.7-0.9,6.8-2.5c0.1,0,0.1-0.1,0.2-0.1c2.4-1.4,3.8-5.1,3.1-8.7C75.6,85.4,72.4,83.5,69.6,83.5z"/>
	<path fill="#2C4351" d="M80.4,62.1c3.2,0,6.1-2.1,7-5.3c1.2-4-1-8.1-5-9.4c-1.7-0.5-3.4-0.4-4.9,0.2c-1.6-1.6-3.5-2.9-5.8-3.6
		c-2.3-0.7-4.6-0.8-6.8-0.3c-0.9-1.3-2.3-2.3-3.9-2.8c-3.9-1.2-8.1,1-9.4,5c-1,3.1,0.2,6.4,2.8,8.3c-0.5,2.4-0.4,4.7,0.3,6.9
		L46,58.3c-0.9-0.3-1.8-0.3-2.6-0.1c0-0.6-0.2-1.2-0.4-1.7c-1.1-3-6.9-3.7-9.6-8.9c-0.8-1.5-2-3.2-1.4-5.9c1.3,0.3,1.6,0.4,2.8,0.5
		c2,0.1,3.8-0.3,5.8-0.9c3.3-1.1,5.9-4.4,6.5-7.9c0.8-4.4-1-8.7-4.9-10.8c-4.1-2.2-9.8-1.4-12.6,2.2c-2.2,3-2.3,6.2-3.8,9.5
		c-0.6,1.3-3,1.4-4.1,2.4c-1.3,1.4-2.6,2.5-3.7,4.1c-2.8,3.7-5.7,7.3-7.6,11.5c-1.2,2.7-1.6,5.4-1.6,8.3c0,0,0,1.7,0.6,3.3v27.7
		c0,2.6,2.1,4.8,4.8,4.8c2.6,0,4.8-2.1,4.8-4.8V78.4l3,12.9c0.5,2.2,2.5,3.7,4.6,3.7c0.4,0,0.7,0,1.1-0.1c2.6-0.6,4.1-3.2,3.5-5.7
		L25,62.5c0-0.3,0-0.5,0-0.8c0-1.5,1.3-4.8,2.4-5.8c1,1.6,2.5,2.5,4,3.7c1.4,1.1,4.2,2.6,5.9,3c0.5,0.1,1.2,0.2,2,0.2
		c-0.3,2.5,1.2,5,3.7,5.8l6.1,1.9c-0.6,0.9-1.1,1.8-1.5,2.9c2.2,0.3,4.3,1.4,5.7,2.9c2.5,2.7,4.3,7.3,4.3,11.6
		c2.4-3.6,6.5-6.4,10.1-7.2c2-0.4,4.3-0.1,6.3,0.9c0.2-1.1,0.4-2.2,0.4-3.3l6,1.8c0.5,0.2,1,0.2,1.6,0.2c2.3,0,4.4-1.5,5.1-3.8
		c0.9-2.8-0.7-5.8-3.5-6.7l-7.2-2.2C78.1,66.2,79.5,64.3,80.4,62.1z M85.3,53.6c0.8,3.5-4.7,4.4-4.7,4.4c0.4-3.4-1.6-7.3-1.6-7.3
		C80.8,50,84.5,50.1,85.3,53.6z M56.8,51.2c0,0-4.4-2.8-1.5-5.9c2.5-2.8,6-1.3,7.2,0.3C62.5,45.5,58.6,47.4,56.8,51.2z M73.4,63.5
		c-1.2,3.9-5.4,5.3-9.3,4.1c-3.9-1.2-6.2-4.6-5-8.5c1.2-3.9,5.4-6.2,9.4-4.9C72.4,55.4,74.6,59.6,73.4,63.5z"/>
	<path fill="#2C4351" d="M67.4,57.4c-1-0.2-2.5-0.5-3.4,0.1c-1,0.7-1.1,1.9-0.5,2.8c0.6,1.1,1.8,1.6,3,2c1.2,0.4,2.6,0.7,3.5,0
		c0.9-0.7,0.9-2.1,0.3-3.1C69.7,58.2,68.5,57.7,67.4,57.4z"/>
</g>
</svg>
