<?xml version="1.0" encoding="utf-8"?>
<!-- Generator: Adobe Illustrator 18.1.1, SVG Export Plug-In . SVG Version: 6.00 Build 0)  -->
<!DOCTYPE svg PUBLIC "-//W3C//DTD SVG 1.1//EN" "http://www.w3.org/Graphics/SVG/1.1/DTD/svg11.dtd">
<svg version="1.1" id="Layer_1" xmlns="http://www.w3.org/2000/svg" xmlns:xlink="http://www.w3.org/1999/xlink" x="0px" y="0px"
	 viewBox="0 0 100 100" enable-background="new 0 0 100 100" xml:space="preserve">
<g>
	<path fill="#2C4351" d="M90,34.1V22.9c0-6.2-5-11.2-11.2-11.2H21.2c-6.2,0-11.2,5-11.2,11.2v11.2H90z M75.6,18.8
		c2.7,0,4.9,2.2,4.9,4.9c0,2.7-2.2,4.9-4.9,4.9c-2.7,0-4.9-2.2-4.9-4.9C70.8,21,72.9,18.8,75.6,18.8z M58.5,18.8
		c2.7,0,4.9,2.2,4.9,4.9c0,2.7-2.2,4.9-4.9,4.9c-2.7,0-4.9-2.2-4.9-4.9C53.7,21,55.8,18.8,58.5,18.8z M41.5,18.8
		c2.7,0,4.9,2.2,4.9,4.9c0,2.7-2.2,4.9-4.9,4.9c-2.7,0-4.9-2.2-4.9-4.9C36.6,21,38.8,18.8,41.5,18.8z M24.4,18.8
		c2.7,0,4.9,2.2,4.9,4.9c0,2.7-2.2,4.9-4.9,4.9c-2.7,0-4.9-2.2-4.9-4.9C19.5,21,21.7,18.8,24.4,18.8z"/>
	<path fill="#2C4351" d="M10,37.7v51.1C10,95,15,100,21.2,100h57.7C85,100,90,95,90,88.8V37.7H10z M75.7,80.7c0,3.7-3,6.7-6.7,6.7
		H31c-3.7,0-6.7-3-6.7-6.7v-16c0-3.7,3-6.7,6.7-6.7H69c3.7,0,6.7,3,6.7,6.7V80.7z M74.7,49.5H25.3c-1.4,0-2.5-1.1-2.5-2.5
		c0-1.4,1.1-2.5,2.5-2.5h49.5c1.4,0,2.5,1.1,2.5,2.5C77.3,48.4,76.1,49.5,74.7,49.5z"/>
</g>
</svg>
