<?xml version="1.0" encoding="UTF-8" standalone="no"?>
<svg
   xmlns:dc="http://purl.org/dc/elements/1.1/"
   xmlns:cc="http://creativecommons.org/ns#"
   xmlns:rdf="http://www.w3.org/1999/02/22-rdf-syntax-ns#"
   xmlns:svg="http://www.w3.org/2000/svg"
   xmlns="http://www.w3.org/2000/svg"
   viewBox="0 0 33.333332 33.333332"
   height="33.333332"
   width="33.333332"
   xml:space="preserve"
   id="svg2"
   version="1.1"><metadata
     id="metadata8"><rdf:RDF><cc:Work
         rdf:about=""><dc:format>image/svg+xml</dc:format><dc:type
           rdf:resource="http://purl.org/dc/dcmitype/StillImage" /></cc:Work></rdf:RDF></metadata><defs
     id="defs6"><clipPath
       id="clipPath18"
       clipPathUnits="userSpaceOnUse"><path
         id="path16"
         d="M 0,25 H 25 V 0 H 0 Z" /></clipPath></defs><g
     transform="matrix(1.3333333,0,0,-1.3333333,0,33.333333)"
     id="g10"><g
       id="g12"><g
         clip-path="url(#2C4351th18)"
         id="g14"><g
           transform="translate(12.5,1.0166)"
           id="g20"><path
             id="path22"
             style="fill:#2C4351;fill-opacity:1;fill-rule:nonzero;stroke:none"
             d="m 0,0 c -4.305,0 -7.313,2.625 -7.313,6.377 v 10.831 c 0,0.618 0.473,1.121 1.056,1.121 0.572,0 1.035,-0.483 1.056,-1.086 v -5.107 l 0.005,-0.03 V 10.9 c 0,-0.278 0.229,-0.508 0.507,-0.508 0.285,0 0.515,0.23 0.515,0.508 v 6.313 l -0.006,0.059 v 2.995 c 0,0.618 0.474,1.126 1.056,1.126 0.558,0 1.007,-0.468 1.046,-1.051 v -8.415 l 0.016,-0.071 V 11.04 c 0,-0.279 0.229,-0.514 0.507,-0.514 0.285,0 0.514,0.235 0.514,0.514 v 9.232 l -0.015,0.144 v 1.43 c 0,0.618 0.473,1.121 1.056,1.121 0.583,0 1.061,-0.503 1.061,-1.121 V 10.95 c 0,-0.278 0.225,-0.508 0.509,-0.508 0.283,0 0.508,0.23 0.508,0.508 v 7.748 c 0,0.612 0.468,1.116 1.037,1.116 0.572,0 1.035,-0.504 1.035,-1.116 V 9.127 c 0,-0.279 0.23,-0.509 0.509,-0.509 0.278,0 0.508,0.23 0.508,0.509 v 0.364 l 0.024,0.114 v 2.99 c 0,0.617 0.475,1.125 1.057,1.125 0.583,0 1.062,-0.503 1.062,-1.125 V 9.755 L 7.319,9.705 V 6.377 C 7.319,2.625 4.31,0 0,0 m 8.33,11.563 v 1.036 c 0,1.181 -0.931,2.143 -2.082,2.143 -0.394,0 -0.762,-0.125 -1.081,-0.324 v 4.28 c 0,1.176 -0.922,2.136 -2.052,2.136 -0.379,0 -0.734,-0.113 -1.037,-0.298 v 1.306 c 0,1.18 -0.931,2.141 -2.078,2.141 -1.066,0 -1.932,-0.826 -2.052,-1.892 -0.314,0.194 -0.677,0.319 -1.072,0.319 -1.145,0 -2.077,-0.962 -2.077,-2.143 v -1.221 c -0.314,0.19 -0.667,0.304 -1.056,0.304 -1.147,0 -2.078,-0.962 -2.078,-2.142 V 6.377 c 0,-4.355 3.428,-7.394 8.335,-7.394 4.913,0 8.335,3.039 8.335,7.394 v 5.141 z" /></g></g></g></g></svg>