<?xml version="1.0" encoding="utf-8"?>
<!-- Generator: Adobe Illustrator 18.1.1, SVG Export Plug-In . SVG Version: 6.00 Build 0)  -->
<!DOCTYPE svg PUBLIC "-//W3C//DTD SVG 1.1//EN" "http://www.w3.org/Graphics/SVG/1.1/DTD/svg11.dtd">
<svg version="1.1" id="Layer_1" xmlns="http://www.w3.org/2000/svg" xmlns:xlink="http://www.w3.org/1999/xlink" x="0px" y="0px"
	 viewBox="0 0 100 100" enable-background="new 0 0 100 100" xml:space="preserve">
<path fill="#2C4351" d="M73,69.5c-2.5-1.9-5.1-3.8-7.8-5.3c-6.1-3.4-13.3-4.9-20.2-4.4c6.1-4,12-8.6,16.6-14.3
	c1.8-2.3,4.3-5.7,4.8-9.9c0.6-4.9-1.9-9.8-6.1-12.6c-2-1.3-4.4-2-6.8-2.2c-1.4-1.3-3.2-2.4-5.1-3.1c-1.6-0.6-3.2-0.8-5-0.8
	c-3.5,0-6.8,1.1-9.3,3.2c-3.5,2.8-5,6.8-6.1,10.3c-2.9,9.4-3.7,19.3-2.5,29c-0.8,0.4-1.6,0.8-2.4,1.2c-1.7,0.9-3.6,2.2-4.5,3.9
	c-3.5,0.1-6.2,2.9-6.2,6.4c0,2.4,1.3,4.4,3.2,5.5l-4.8,18.3l3.2,0.8l4.8-18.3c3,0,5.5-2.1,6.1-4.8c0.2,0,0.3,0,0.5,0.1
	c4.3,0.3,8.7-0.6,12.5-2.8c2.2,4.5,8.2,17.9,5.5,29.8l3.2,0.7c2.6-11.5-2.1-24-4.9-30c0.5,0.2,1,0.3,1.5,0.5
	c2.5,3.7,9.3,15.1,8.8,29.1l3.3,0.1c0.4-11.9-3.9-21.8-7.2-27.5c4.8,1.7,9.6,3.6,14.4,5.2c8.3,2.7,17.1,4.6,25.8,3.5
	C83.2,77.1,78.1,73.3,73,69.5z M60.5,34.9c-0.2,2-1.3,4.2-3.5,6.9c-6.3,7.9-15.7,13.7-24.6,18.8c1.1-9.4,4.4-18.7,9.6-26.9
	c1.5-2.4,3.5-5.1,6.2-6.4c1.1-0.5,2.5-0.8,3.8-0.8c1.8,0,3.6,0.5,5,1.4C59.4,29.4,60.8,32.3,60.5,34.9z M33.3,32
	c0.8-2.7,2-5.7,4.2-7.5c1.5-1.2,3.6-1.9,5.7-1.9c0.4,0,0.8,0,1.2,0.1c-3.4,2-5.6,5.1-7.4,7.9c-2.4,3.8-4.4,7.7-6,11.8
	C31.5,38.9,32.2,35.4,33.3,32z"/>
</svg>
