<?xml version="1.0" encoding="utf-8"?>
<!-- Generator: Adobe Illustrator 18.1.1, SVG Export Plug-In . SVG Version: 6.00 Build 0)  -->
<!DOCTYPE svg PUBLIC "-//W3C//DTD SVG 1.1//EN" "http://www.w3.org/Graphics/SVG/1.1/DTD/svg11.dtd">
<svg version="1.1" id="Layer_1" xmlns="http://www.w3.org/2000/svg" xmlns:xlink="http://www.w3.org/1999/xlink" x="0px" y="0px"
	 viewBox="0 0 100 100" enable-background="new 0 0 100 100" xml:space="preserve">
<g>
	<path fill="#2C4351" d="M22.3,30.3c0-4,3.3-7.3,7.3-7.3h21.7c-2.7-8.9-11-15.3-20.7-15.3C18.7,7.7,9,17.4,9,29.4v49
		c0,12,9.7,21.6,21.6,21.6c12,0,21.6-9.7,21.6-21.6V37.6H29.6C25.6,37.6,22.3,34.4,22.3,30.3z M45.1,69.8c0,8-6.5,14.5-14.5,14.5
		c-8,0-14.5-6.5-14.5-14.5c0-8,6.5-14.5,14.5-14.5C38.6,55.4,45.1,61.8,45.1,69.8z"/>
	<path fill="#2C4351" d="M83.7,24H29.6c-3.5,0-6.3,2.8-6.3,6.3c0,3.5,2.8,6.3,6.3,6.3h54.1c3.5,0,6.3-2.8,6.3-6.3
		C90,26.8,87.2,24,83.7,24z"/>
	<path fill="#2C4351" d="M30.6,79.2c1.3,0,2.3-1,2.3-2.3V62.8c0-1.3-1-2.3-2.3-2.3c-1.3,0-2.3,1-2.3,2.3v14.1
		C28.2,78.1,29.3,79.2,30.6,79.2z"/>
</g>
</svg>
