<?xml version="1.0" encoding="utf-8"?>
<!-- Generator: Adobe Illustrator 18.1.1, SVG Export Plug-In . SVG Version: 6.00 Build 0)  -->
<!DOCTYPE svg PUBLIC "-//W3C//DTD SVG 1.1//EN" "http://www.w3.org/Graphics/SVG/1.1/DTD/svg11.dtd">
<svg version="1.1" id="Layer_1" xmlns="http://www.w3.org/2000/svg" xmlns:xlink="http://www.w3.org/1999/xlink" x="0px" y="0px"
	 viewBox="0 0 50 50" enable-background="new 0 0 50 50" xml:space="preserve">
<g>
	<path fill="#2C4351" d="M29.5,36.4c-8-1.2-17.3-2.2-26-2.5v1.5c4.6,0.5,13.5,1.5,23,3.1L29.5,36.4z"/>
	<path fill="#2C4351" d="M24,40.3c-6.4-1.2-13.5-2.2-20.4-2.8v1.6c4.2,0.6,10.6,1.7,17.7,3.2L24,40.3z"/>
	<path fill="#2C4351" d="M18.7,44.1c-4.8-1.1-9.9-2.1-15.1-2.8v1.8c3.3,0.7,7.7,1.7,12.5,2.9L18.7,44.1z"/>
	<path fill="#2C4351" d="M3.6,47.4c2.2,0.6,4.7,1.4,7.5,2.2l2.7-1.9c-3.2-0.9-6.6-1.7-10.1-2.4V47.4z"/>
	<path fill="#2C4351" d="M41.9,32.9l0-8.2l-5.3-5.1l-4.9,5.1l0,7.1c-2-0.2-4.1-0.4-6.3-0.6c0.5-0.6,0.8-1.3,0.8-2.2
		c0-1.8-1.5-3.3-3.3-3.3c-0.9,0-1.7,0.4-2.3,1c-0.6-0.9-1.6-1.5-2.7-1.5c-0.2,0-0.3,0-0.5,0c-0.1-1.7-1.5-3.1-3.3-3.1
		c-1.7,0-3.1,1.3-3.3,2.9c-0.5-0.2-1-0.4-1.5-0.4c-1.8,0-3.3,1.5-3.3,3.3c0,0.3,0,0.6,0.1,0.8c-0.2,0.3-0.3,0.6-0.3,1
		c0,0.2,0,0.4,0.1,0.5c-0.8,0-1.6,0-2.4,0v1.4c4.4,0.2,17.5,1.1,30.7,2.9L15,50h4.6l17-15.2h2.1L24.5,49.7c-0.1,0.1-0.1,0.2-0.1,0.3
		h4.4l12.3-15.2h2.1l-9.6,15c0,0.1-0.1,0.2-0.1,0.2h4.5l7.5-15.2h1.7v-1.1C45.7,33.4,43.9,33.2,41.9,32.9z"/>
	<path fill="#2C4351" d="M42.7,50h4.6V36l-4.6,13.8C42.7,49.9,42.7,50,42.7,50z"/>
</g>
</svg>
