<?xml version="1.0" encoding="UTF-8" standalone="no"?>
<svg
   xmlns:dc="http://purl.org/dc/elements/1.1/"
   xmlns:cc="http://creativecommons.org/ns#"
   xmlns:rdf="http://www.w3.org/1999/02/22-rdf-syntax-ns#"
   xmlns:svg="http://www.w3.org/2000/svg"
   xmlns="http://www.w3.org/2000/svg"
   viewBox="0 0 33.333332 33.333332"
   height="33.333332"
   width="33.333332"
   xml:space="preserve"
   id="svg2"
   version="1.1"><metadata
     id="metadata8"><rdf:RDF><cc:Work
         rdf:about=""><dc:format>image/svg+xml</dc:format><dc:type
           rdf:resource="http://purl.org/dc/dcmitype/StillImage" /></cc:Work></rdf:RDF></metadata><defs
     id="defs6"><clipPath
       id="clipPath18"
       clipPathUnits="userSpaceOnUse"><path
         id="path16"
         d="M 0,25 H 25 V 0 H 0 Z" /></clipPath></defs><g
     transform="matrix(1.3333333,0,0,-1.3333333,0,33.333333)"
     id="g10"><g
       id="g12"><g
         clip-path="url(#2C4351th18)"
         id="g14"><g
           transform="translate(18.1716,1.6653)"
           id="g20"><path
             id="path22"
             style="fill:#2C4351;fill-opacity:1;fill-rule:nonzero;stroke:none"
             d="m 0,0 h -11.111 c -1.036,0 -1.945,0.909 -1.945,1.945 V 13.149 H 1.945 V 1.945 C 1.945,0.909 1.036,0 0,0 m -11.111,21.669 11.105,-0.008 c 1.04,0 1.951,-0.906 1.951,-1.937 v -5.463 h -15.001 v 5.463 c 0,1.036 0.909,1.945 1.945,1.945 m 11.105,1.657 -11.105,0.009 c -1.956,0 -3.61,-1.655 -3.61,-3.611 V 1.945 c 0,-1.955 1.654,-3.61 3.61,-3.61 H 0 c 1.959,0 3.61,1.655 3.61,3.61 v 17.779 c 0,1.953 -1.654,3.602 -3.616,3.602" /></g><g
           transform="translate(7.3404,16.9431)"
           id="g24"><path
             id="path26"
             style="fill:#2C4351;fill-opacity:1;fill-rule:nonzero;stroke:none"
             d="M 0,0 C 0.458,0 0.833,0.377 0.833,0.836 V 4.723 C 0.833,5.181 0.458,5.556 0,5.556 -0.459,5.556 -0.836,5.181 -0.836,4.723 V 0.836 C -0.836,0.377 -0.459,0 0,0" /></g><g
           transform="translate(7.3404,14.1653)"
           id="g28"><path
             id="path30"
             style="fill:#2C4351;fill-opacity:1;fill-rule:nonzero;stroke:none"
             d="m 0,0 c -0.459,0 -0.836,-0.374 -0.836,-0.833 v -7.22 c 0,-0.459 0.377,-0.833 0.836,-0.833 0.458,0 0.833,0.374 0.833,0.833 v 7.22 C 0.833,-0.374 0.458,0 0,0" /></g><g
           transform="translate(18.682,16.3903)"
           id="g32"><path
             id="path34"
             style="fill:#2C4351;fill-opacity:1;fill-rule:nonzero;stroke:none"
             d="m 0,0 c 0.306,0 0.556,0.247 0.556,0.553 v 2.178 c 0,0.307 -0.25,0.554 -0.556,0.554 -0.307,0 -0.556,-0.247 -0.556,-0.554 V 0.553 C -0.556,0.247 -0.307,0 0,0" /></g><g
           transform="translate(18.7279,13.8431)"
           id="g36"><path
             id="path38"
             style="fill:#2C4351;fill-opacity:1;fill-rule:nonzero;stroke:none"
             d="m 0,0 c -0.306,0 -0.556,-0.25 -0.556,-0.556 v -9.443 c 0,-0.307 0.25,-0.557 0.556,-0.557 0.306,0 0.556,0.25 0.556,0.557 v 9.443 C 0.556,-0.25 0.306,0 0,0" /></g><g
           transform="translate(18.7279,20.6028)"
           id="g40"><path
             id="path42"
             style="fill:#2C4351;fill-opacity:1;fill-rule:nonzero;stroke:none"
             d="m 0,0 c 0.306,0 0.556,0.247 0.556,0.553 v 0.608 c 0,0.306 -0.25,0.554 -0.556,0.554 -0.306,0 -0.556,-0.248 -0.556,-0.554 V 0.556 C -0.556,0.247 -0.306,0 0,0" /></g></g></g></g></svg>