<?xml version="1.0" encoding="utf-8"?>
<!-- Generator: Adobe Illustrator 18.1.1, SVG Export Plug-In . SVG Version: 6.00 Build 0)  -->
<!DOCTYPE svg PUBLIC "-//W3C//DTD SVG 1.1//EN" "http://www.w3.org/Graphics/SVG/1.1/DTD/svg11.dtd">
<svg version="1.1" id="Layer_1" xmlns="http://www.w3.org/2000/svg" xmlns:xlink="http://www.w3.org/1999/xlink" x="0px" y="0px"
	 viewBox="0 0 100 100" enable-background="new 0 0 100 100" xml:space="preserve">
<g>
	<path fill="#2C4351" d="M94.4,81.9c-0.2-1.8-1.2-3.1-2.4-4c0.7-3.5-0.9-6.4-4.1-7.6c-0.6-0.2-1.3-0.3-2-0.3c-2.5,0-4.5,1.6-6,2.7
		c-0.2,0.1-0.4,0.3-0.6,0.5c-1.6-0.2-5.3-1.1-8.1-1.9l-4.2-1.3c-2-1.4-4-2.5-6.5-3.9c-3.9-2.2-8.1-4.6-11.5-7.6
		c-3.1-2.7-6.1-5.5-9.9-7.2c-5.5-2.5-11.4-3.3-17.4-3.2l0,0.3c-8,1.2-14.6,18.1-16.5,26.6c-0.6,2.8-0.8,5.7-0.6,8.6
		c0.2,2.6,0.5,5.4,1.1,7.9c0.3,1.1,0.8,2.1,1.4,2.8c1.4,1.8,3.6,2.7,6,3.7c1.9,0.8,4,1.4,6,1.5c2.8,0.7,8.2,0.5,10.6,0.5
		c4.1,0.1,6.2-1.6,9.2-4c7.2-5.8,15.5-8.1,24.6-8c1.5,0,3-0.1,4.3-0.5l0,0l3.6-0.3c0.1,0,6-0.5,9-0.5c0.7,0,1,0,1,0
		c0.2,0.1,1,0.5,1.5,0.8c1.5,0.9,3.5,2,5.7,2h0h0.1c2.2,0,3.6-1,4.3-1.9C94.8,85.6,94.5,82.9,94.4,81.9z M33,80.4
		c-2.1,4.9-6,13.9-12.1,14.5c-0.3,0-0.6,0-0.8,0c-1.5,0-3.3-0.4-5.3-1.2c-2-0.8-3.5-1.5-4.2-2.3c-0.2-0.3-0.4-0.7-0.5-1.2
		c-0.5-1.9-0.8-4.2-1-7.1c-0.2-2.7,0-5.1,0.5-7.3c2.5-11.2,9.2-23.1,13-23.1c3.1,0.4,7.5,3.3,10.2,8.1C34.9,64.9,36.8,71.6,33,80.4z
		 M88.7,85.7C88.7,85.7,88.7,85.7,88.7,85.7c-2.2,0-4.8-2.4-6.7-2.8c-0.3-0.1-0.9-0.1-1.6-0.1c-2,0-5.2,0.2-7.2,0.3
		c0.4-0.7,0.7-1.4,1-2.2c0.8-2.3,0.3-3.9-0.7-5.3c2.2,0.6,4.9,1.2,6.2,1.2c0.3,0,0.5,0,0.7-0.1c1.4-0.6,3.6-3.1,5.5-3.1
		c0.2,0,0.4,0,0.7,0.1c2,0.7,1.9,2.6,1.6,3.9c-0.4,1.3-3.1,1.8-3.1,1.8s5.4,0.5,5.6,2.9C90.8,83.7,90.9,85.7,88.7,85.7z"/>
	<path fill="#2C4351" d="M19,83.3c-3.9,0.1-1.1-2.9-1.3-5.7c-3.1-4.4-5.2,1.5-5.3,4.3c-0.2,2.8-0.6,5.8,1.9,7.2c4,2.4,6.7,1.8,9.6-2
		C27.2,82.7,21.9,83.2,19,83.3z"/>
	<path fill="#2C4351" d="M28.3,62c-1.3-1.3-2.7-2.3-4.4-1.9c-2.5,0.6-7.4,4.9-7.3,7.3c-0.4,0.7,2,3.1,2.6,3.9
		c1.5,1.8,1.9,2.7,1.9,5.2c0,2.4,0.3,2.1,2.5,3.3c1.4,0.8,3.1,1,4.5,0.1c3.5-2,1.4-5.6,1.9-8.8C30.4,68.1,30.7,64.5,28.3,62z"/>
</g>
</svg>
