<?xml version="1.0" encoding="utf-8"?>
<!-- Generator: Adobe Illustrator 18.1.1, SVG Export Plug-In . SVG Version: 6.00 Build 0)  -->
<!DOCTYPE svg PUBLIC "-//W3C//DTD SVG 1.1//EN" "http://www.w3.org/Graphics/SVG/1.1/DTD/svg11.dtd">
<svg version="1.1" id="Layer_1" xmlns="http://www.w3.org/2000/svg" xmlns:xlink="http://www.w3.org/1999/xlink" x="0px" y="0px"
	 viewBox="0 0 50 50" enable-background="new 0 0 50 50" xml:space="preserve">
<g>
	<path fill="#2C4351" d="M20.1,25.9c0-8-3.2-14.5-7.1-14.5c-3.9,0-7.1,6.5-7.1,14.5c0,8,3.2,14.5,7.1,14.5
		C16.9,40.3,20.1,33.9,20.1,25.9z M13,30.9c-1.4,0-2.5-2.2-2.5-5c0-2.8,1.1-5,2.5-5c1.4,0,2.5,2.2,2.5,5
		C15.4,28.6,14.3,30.9,13,30.9z"/>
	<path fill="#2C4351" d="M15.5,40.3h4.5v-7.8C19.2,36.2,17.5,39,15.5,40.3z"/>
	<path fill="#2C4351" d="M20.8,26.4V50c1-0.6,3.6-0.9,4.7-1c2.1-0.2,4.2-0.2,6.2,0c2.2,0.2,3.6-0.2,5.7-0.8c1.6-0.4,4.9-1.3,6.6-0.5
		V26.4h0c0-0.2,0-0.4,0-0.6c0-8-3.2-14.5-7.1-14.5c0,0-0.1,0-0.1,0v0H15.5c3.1,2,5.3,7.6,5.3,14.5C20.8,26.1,20.8,26.4,20.8,26.4z"
		/>
</g>
</svg>
