<?xml version="1.0" encoding="utf-8"?>
<!-- Generator: Adobe Illustrator 18.1.1, SVG Export Plug-In . SVG Version: 6.00 Build 0)  -->
<!DOCTYPE svg PUBLIC "-//W3C//DTD SVG 1.1//EN" "http://www.w3.org/Graphics/SVG/1.1/DTD/svg11.dtd">
<svg version="1.1" id="Layer_1" xmlns="http://www.w3.org/2000/svg" xmlns:xlink="http://www.w3.org/1999/xlink" x="0px" y="0px"
	 viewBox="0 0 100 100" enable-background="new 0 0 100 100" xml:space="preserve">
<path fill="#2C4351" d="M89.4,41.5l-7.3-7.3c0,0,0,0,0,0l-6.8-6.8c-1.7-1.7-4.4-1.7-6,0L10.1,86.7c-3,3-3,7.9,0,11l0.1,0.1
	c3,3,7.9,3,11,0L42,74.3l7.3,7.3c0.8,0.8,2.2,0.8,3,0c0.8-0.8,0.8-2.2,0-3l-4.9-4.9l-2.3-2.3c-0.1-0.1-0.1-0.1-0.2-0.1l0,0l-1.8-1.8
	c-0.8-0.8-0.8-2.1,0-2.9l0.1-0.1c0.8-0.8,2.1-0.8,2.9,0l1.8,1.8l0,0c0,0,0.1,0.1,0.1,0.1l0.7,0.7l6.6,6.6c0.8,0.8,2.2,0.8,3,0
	c0.8-0.8,0.8-2.2,0-3L54.9,69l-5.7-5.7c-0.8-0.8-0.8-2.1,0-2.9l0.1-0.1c0.8-0.8,2.1-0.8,2.9,0l9.2,9.2c0.8,0.8,2.2,0.8,3,0
	c0.8-0.8,0.8-2.2,0-3l-5.4-5.4l-3.9-3.9c-0.8-0.8-0.8-2.1,0-2.9l0.1-0.1c0.8-0.8,2.1-0.8,2.9,0l8.1,8.1l1.1,1.1c0.8,0.8,2.2,0.8,3,0
	c0.8-0.8,0.8-2.2,0-3l-5.3-5.3l-3.9-3.9c-0.8-0.8-0.8-2.1,0-2.9l0.1-0.1c0.8-0.8,2.1-0.8,2.9,0l9.2,9.2c0.8,0.8,2.2,0.8,3,0
	c0.8-0.8,0.8-2.2,0-3L71.2,49l-3.9-3.9c-0.8-0.8-0.8-2.1,0-2.9l0.1-0.1c0.8-0.8,2.1-0.8,2.9,0l9.2,9.2c0.8,0.8,2.2,0.8,3,0
	c0.8-0.8,0.8-2.2,0-3l-5.8-5.8L73.4,39c-0.8-0.8-0.8-2.1,0-2.9l0.1-0.1c0.8-0.8,2.1-0.8,2.9,0l2,2c0,0,0,0,0,0l7.3,7.3
	c0.8,0.8,2.2,0.8,3,0c0.1-0.1,0.2-0.2,0.3-0.4c0.1-0.1,0.3-0.2,0.4-0.3C90.2,43.7,90.2,42.4,89.4,41.5z M16.2,95.1
	c-1.8,0-3.2-1.5-3.2-3.2c0-1.8,1.5-3.3,3.2-3.3c1.8,0,3.2,1.5,3.2,3.3C19.4,93.6,18,95.1,16.2,95.1z"/>
</svg>
