<?xml version="1.0" encoding="utf-8"?>
<!-- Generator: Adobe Illustrator 18.1.1, SVG Export Plug-In . SVG Version: 6.00 Build 0)  -->
<!DOCTYPE svg PUBLIC "-//W3C//DTD SVG 1.1//EN" "http://www.w3.org/Graphics/SVG/1.1/DTD/svg11.dtd">
<svg version="1.1" id="Layer_1" xmlns="http://www.w3.org/2000/svg" xmlns:xlink="http://www.w3.org/1999/xlink" x="0px" y="0px"
	 viewBox="0 0 50 50" enable-background="new 0 0 50 50" xml:space="preserve">
<g>
	<path fill="#2C4351" d="M38.9,30.3c-0.1,0-0.2,0-0.3,0c0,0,0,0,0,0s-0.1,0-0.3,0c-0.1,0-0.1,0-0.2,0c0,0,0,0,0,0
		c-1.1,0-2,0.4-2.8,1c-1.3,0.9-2.8,2.6-4,5.8c-1.9-1.8-4.6-3.1-7.8-3.7c-0.1,0-0.3,0-0.4-0.1c-0.1,0-0.3-0.1-0.4-0.1
		c-1.1-0.2-2.2-0.3-3.2-0.3c-2,0-3.9,0.4-5.4,1c0-3.4-0.8-5.5-1.7-6.9c-0.5-0.9-1.3-1.6-2.3-2c-0.3-0.1-0.5-0.2-0.5-0.2s0,0,0,0
		c-0.1,0-0.2-0.1-0.3-0.1c-0.3-0.1-0.5-0.1-0.8-0.1c-2.1,0-4,1.5-4.4,3.6c-0.4,2.1,0.8,4.1,2.7,4.9c-0.2,2.9-0.3,8.5,1.2,10.8
		l1.9,0.4c0,0.1-0.1,0.2-0.1,0.3c-0.2,0.9,0.4,1.7,1.3,1.9l1.1,0.2c0.9,0.2,1.7-0.4,1.9-1.3c0-0.1,0-0.2,0-0.3l3.7,0.7l5.5,1
		l3.7,0.7c0,0.1-0.1,0.2-0.1,0.3c-0.2,0.9,0.4,1.7,1.3,1.9l1.1,0.2c0.9,0.2,1.7-0.4,1.9-1.3c0-0.1,0-0.2,0-0.3l1.9,0.4
		c2.2-1.6,4.1-6.9,4.9-9.7c2.1,0,3.9-1.5,4.3-3.6C42.9,33,41.3,30.7,38.9,30.3z"/>
	<path fill="#2C4351" d="M43.3,18.5c-0.2,5-3.7,7.3-3.9,7.4c-0.3,0.2-0.4,0.6-0.2,0.9c0.1,0.2,0.3,0.3,0.6,0.3c0.1,0,0.2,0,0.3-0.1
		c0.2-0.1,4.3-2.7,4.5-8.5c1.1-1.5,1.8-2.5,2.9-4.1L46.2,6L38,7.3l1.4,8.4C41,16.9,42,17.6,43.3,18.5z M43.7,14
		c0.7,0,1.2,0.5,1.2,1.2c0,0.7-0.5,1.2-1.2,1.2c-0.7,0-1.2-0.5-1.2-1.2C42.5,14.6,43,14,43.7,14z"/>
	<path fill="#2C4351" d="M13.5,26.2c1,1.5,1.6,3.4,1.8,5.6c1.3-0.3,2.6-0.5,4-0.5c1.2,0,2.3,0.1,3.5,0.3c0.1,0,0.2,0,0.3,0.1l0.1,0
		l0.1,0c0.1,0,0.2,0,0.3,0c2.6,0.5,5,1.4,6.9,2.8c1-2,2.2-3.6,3.7-4.6c1.1-0.9,2.4-1.3,3.8-1.3h0c0.1,0,0.1,0,0.2,0c0,0,0.1,0,0.1,0
		c0.2-4.7-4.8-8.9-12.7-10.3c-1.6-0.3-3.2-0.4-4.7-0.4c-5.7,0-9.7,2.1-10.9,5.6c0.1,0,0.2,0.1,0.3,0.1C11.7,24.1,12.8,25,13.5,26.2z
		"/>
</g>
</svg>
