<?xml version="1.0" encoding="utf-8"?>
<!-- Generator: Adobe Illustrator 18.1.1, SVG Export Plug-In . SVG Version: 6.00 Build 0)  -->
<!DOCTYPE svg PUBLIC "-//W3C//DTD SVG 1.1//EN" "http://www.w3.org/Graphics/SVG/1.1/DTD/svg11.dtd">
<svg version="1.1" id="Layer_1" xmlns="http://www.w3.org/2000/svg" xmlns:xlink="http://www.w3.org/1999/xlink" x="0px" y="0px"
	 viewBox="0 0 100 100" enable-background="new 0 0 100 100" xml:space="preserve">
<g>
	<path fill="#2C4351" d="M81.6,7.8H51.4c-6,0-10.8,4.8-10.8,10.8c0,6,4.8,10.8,10.8,10.8h10.1v11.3c-2.3,1.6-3.8,4.2-3.8,7.3v43
		c0,4.9,3.9,8.9,8.9,8.9c4.9,0,8.9-3.9,8.9-8.9v-43c0-3.2-1.6-5.7-3.8-7.3V29.5h10.1c6,0,10.8-4.8,10.8-10.8
		C92.4,12.7,87.6,7.8,81.6,7.8z M82.8,24H50.2c-0.9,0-1.6-0.8-1.6-1.6c0-0.9,0.8-1.6,1.6-1.6h32.6c0.9,0,1.6,0.8,1.6,1.6
		C84.4,23.2,83.7,24,82.8,24z M82.8,16.1H50.2c-0.9,0-1.6-0.8-1.6-1.6c0-0.9,0.8-1.6,1.6-1.6h32.6c0.9,0,1.6,0.8,1.6,1.6
		C84.4,15.4,83.7,16.1,82.8,16.1z"/>
	<path fill="#2C4351" d="M40.1,35.2l-4,2.7c0,0,1.7-5.1-1-6.4c-2.7-1.4-8.3-1.9-8.3-1.9l-1.2,11.9c0,0-2.7-12.2-3.9-12
		c-1.2,0.2-4.1,0.9-4.1,0.9l-0.6,5.7l-2.9-4.8c0,0-3.8,1.9-5.5,3.7c-1.6,1.9-0.9,6.1-0.9,6.1l8.1,19.2l0.9,1.7h16.5
		c0,0,8.1-17.8,8.9-20.9C43,38,40.1,35.2,40.1,35.2z"/>
	<path fill="#2C4351" d="M38.6,71.6c0.4-4.5-2.9-4.5-2.9-4.5H13.4c0,0-3.3,0-2.9,4.5c0.4,4.5,6.2,5.1,2.3,11.2
		C9,88.8,8.5,97.1,13.9,99.2h10.1h1h10.1c5.5-2.1,4.9-10.3,1.1-16.5C32.4,76.6,38.2,76,38.6,71.6z"/>
</g>
</svg>
