<?xml version="1.0" encoding="utf-8"?>
<!-- Generator: Adobe Illustrator 18.1.1, SVG Export Plug-In . SVG Version: 6.00 Build 0)  -->
<!DOCTYPE svg PUBLIC "-//W3C//DTD SVG 1.1//EN" "http://www.w3.org/Graphics/SVG/1.1/DTD/svg11.dtd">
<svg version="1.1" id="Layer_1" xmlns="http://www.w3.org/2000/svg" xmlns:xlink="http://www.w3.org/1999/xlink" x="0px" y="0px"
	 viewBox="0 0 100 100" enable-background="new 0 0 100 100" xml:space="preserve">
<g>
	<path fill="#2C4351" d="M50.5,79.9c0.1,0.1,0.2,0.1,0.2,0.1l0.2-0.6h-2l0.2,0.6c0,0,0.1,0,0.2-0.1c0,0-1.6,1-2.5,4.6h6
		C52.2,80.9,50.6,79.9,50.5,79.9z"/>
	<path fill="#2C4351" d="M92.2,96.4l-6.7-72.7c-0.6-5.3-5-9.2-10.3-9.2H25c-5.3,0-9.7,4-10.3,9.3L7.8,96.6c-0.2,1.7,1.1,3.2,2.8,3.4
		c0.1,0,0.2,0,0.3,0c1.6,0,3-1.2,3.1-2.8l6.9-72.9c0.2-2.1,2-3.6,4.1-3.6h6.5l2.3,41c-0.9,0.3-1.5,1.2-1.4,2.2
		c0,0.3,0.3,2.1,1.7,3.8l0.7,12.8c-0.3,0.4-0.5,0.9-0.5,1.4c0,0.8,0.4,1.5,1,2c0.3,0.3,0.7,0.5,1.1,0.5c0,0,0.1,0,0.1,0c0,0,0,0,0,0
		c0.1,0,0.2,0,0.3,0h1.6c0.3-2,0.8-3.6,1.3-5h-2.1l-0.5-9.5c1.1,0.4,2.4,0.7,3.8,0.7c0.8,0,1.7-0.1,2.7-0.2v3.1
		c0,0.5,0.1,0.9,0.2,1.4c-2.3,2.2-5.3,6.9-4.8,16.3c0.1,1.7,1.5,3.1,3.3,3.1c0.1,0,0.1,0,0.2,0c1.8-0.1,3.2-1.6,3.1-3.4
		C45.2,81.3,49,79.1,49,79.1l-0.1,0.1l-0.4-0.9h2.9L51,79.1c0,0,3.9,2.2,3.4,11.7c-0.1,1.8,1.3,3.3,3.1,3.4c0.1,0,0.1,0,0.2,0
		c1.7,0,3.2-1.4,3.3-3.1c0.5-9.4-2.5-14.1-4.8-16.3c0.1-0.4,0.2-0.9,0.2-1.4v-3.1c0.9,0.2,1.8,0.2,2.7,0.2c1.4,0,2.7-0.2,3.8-0.7
		l-0.5,9.5h-2.1c0.6,1.4,1,3.1,1.3,5h1.6c0.1,0,0.2,0,0.3,0c0,0,0,0,0,0c0,0,0.1,0,0.1,0c0.4,0,0.8-0.2,1.1-0.5c0.6-0.5,1-1.2,1-2
		c0-0.5-0.2-1-0.5-1.4l0.7-12.8c1.4-1.7,1.7-3.6,1.7-3.8c0.1-1-0.5-1.9-1.4-2.2l2.3-41h6.7c2.1,0,3.8,1.6,4.1,3.6L86,96.9
		c0.2,1.7,1.7,3,3.4,2.8C91.1,99.6,92.3,98.1,92.2,96.4z M63,64.4c-0.2,0.4-0.6,0.9-1.2,1.3c-1.5,0.9-3.9,0.9-7.1,0
		c-0.8-0.8-2-1.2-3.2-1.2h-3c-1.2,0-2.4,0.5-3.2,1.2c-3.1,1-5.6,1-7.1,0.1c-0.6-0.4-1-0.9-1.3-1.4l-2.5-43.7h31L63,64.4z"/>
	<circle fill="#2C4351" cx="50" cy="57.1" r="5.4"/>
</g>
</svg>
