<?xml version="1.0" encoding="utf-8"?>
<!-- Generator: Adobe Illustrator 18.1.1, SVG Export Plug-In . SVG Version: 6.00 Build 0)  -->
<!DOCTYPE svg PUBLIC "-//W3C//DTD SVG 1.1//EN" "http://www.w3.org/Graphics/SVG/1.1/DTD/svg11.dtd">
<svg version="1.1" id="Layer_1" xmlns="http://www.w3.org/2000/svg" xmlns:xlink="http://www.w3.org/1999/xlink" x="0px" y="0px"
	 viewBox="0 0 100 100" enable-background="new 0 0 100 100" xml:space="preserve">
<g>
	<rect x="24" y="59.7" transform="matrix(0.5727 0.8197 -0.8197 0.5727 65.0041 3.9741)" fill="#2C4351" width="9.3" height="9.3"/>
	<path fill="#2C4351" d="M93.8,38.2l-19-27.2c0,0-2.2,1-4,2.6L89.9,41C92.1,39.8,93.8,38.2,93.8,38.2z"/>
	<path fill="#2C4351" d="M36.5,64.1c0,0,5.9,3.4,10.2,0.6c4.3-2.8,26.9-16.5,26.9-16.5s9.5-5.2,13.1-6.1L68.7,16.2
		c-2.1,3.2-10.3,10.2-10.3,10.2S37.7,42.9,33.6,46c-4.1,3.1-2.9,9.8-2.9,9.8L36.5,64.1z M53.7,37.4c5.1-3.6,11.2-3.8,13.5-0.5
		c2.3,3.3,0,8.9-5.1,12.5c-5.1,3.6-11.2,3.8-13.5,0.5C46.3,46.6,48.6,41,53.7,37.4z"/>
	<path fill="#2C4351" d="M11.1,77.2H14c0.2,0,5.8-0.2,8.5-4.5c0.7-1.1,0.4-2.5-0.7-3.2c-1.1-0.7-2.5-0.4-3.2,0.7
		c-1.4,2.2-4.7,2.4-4.7,2.4h-2.8c-1.3,0-2.3,1-2.3,2.3C8.8,76.2,9.8,77.2,11.1,77.2z"/>
	<path fill="#2C4351" d="M36.1,94.1l0-13.7L9,80.3l0,13.8H8.5c-1.6,0-3,1.3-3,3c0,1.6,1.3,3,3,3h85.9v-5.9H36.1z M33.2,92.9L12,92.8
		l0-9.5l3.8,0l0.8,4.9l1-4.9l4.1,0l0.8,4.9l1-4.9l4.1,0l0.8,4.9l1-4.9l3.8,0L33.2,92.9z"/>
</g>
</svg>
