<?xml version="1.0" encoding="utf-8"?>
<!-- Generator: Adobe Illustrator 18.1.1, SVG Export Plug-In . SVG Version: 6.00 Build 0)  -->
<!DOCTYPE svg PUBLIC "-//W3C//DTD SVG 1.1//EN" "http://www.w3.org/Graphics/SVG/1.1/DTD/svg11.dtd">
<svg version="1.1" id="Layer_1" xmlns="http://www.w3.org/2000/svg" xmlns:xlink="http://www.w3.org/1999/xlink" x="0px" y="0px"
	 viewBox="0 0 100 100" enable-background="new 0 0 100 100" xml:space="preserve">
<g>
	<path fill="#2C4351" d="M89.7,54.9c-1.8-0.6-3.8,0.4-4.3,2.2L83,64.4c-3.6-0.3-6.7-2.4-8.4-5.7c0,0,0,0,0,0c0-0.1-0.1-0.1-0.1-0.2
		c0,0-0.1-0.1-0.1-0.1c0,0-0.1-0.1-0.1-0.1c0,0-0.1-0.1-0.1-0.1c0,0-0.1,0-0.1-0.1c-0.1,0-0.1-0.1-0.2-0.1c0,0,0,0,0,0
		c0,0-0.1,0-0.1,0c-0.1,0-0.1-0.1-0.2-0.1c0,0-0.1,0-0.1,0c-0.1,0-0.1,0-0.2,0c-0.1,0-0.1,0-0.2,0c-0.1,0-0.1,0-0.2,0
		c-0.1,0-0.1,0-0.2,0c0,0-0.1,0-0.1,0c-0.1,0-0.1,0-0.2,0.1c0,0-0.1,0-0.1,0c0,0,0,0,0,0c-0.1,0-0.1,0.1-0.2,0.1c0,0-0.1,0-0.1,0.1
		c0,0-0.1,0.1-0.1,0.1c0,0-0.1,0.1-0.1,0.1c0,0-0.1,0.1-0.1,0.1c0,0.1-0.1,0.1-0.1,0.2c0,0,0,0,0,0c-1.8,3.5-5.4,5.8-9.3,5.8
		c-1.5,0-3-0.3-4.4-1l8.6-4.3c0.6-0.3,0.8-0.9,0.5-1.5L54.2,32c2.2-0.6,5.4-1.2,7.2-1.5c0.8-0.1,1.4-0.9,1.4-1.7l-0.3-10.5
		c0-0.8-0.6-1.5-1.4-1.6c-12.6-1.6-19.5,0-19.5,0s4.6,9.9-4.3,14.3c-8.9,4.4-13.9-5.3-13.9-5.3c-5.6,5-10.4,13.4-12,16.3
		c-0.3,0.6-0.2,1.3,0.4,1.7l8.7,6.3c0.6,0.4,1.3,0.4,1.8-0.1c2.2-2.2,5.8-4.8,5.8-4.8s5.5,11,9.5,18.9c-2.7-0.8-5-2.7-6.3-5.3
		c0,0,0,0,0,0c0-0.1-0.1-0.1-0.1-0.2c0,0,0-0.1-0.1-0.1c0-0.1-0.1-0.1-0.1-0.1c0,0-0.1-0.1-0.1-0.1c0,0-0.1-0.1-0.1-0.1
		c-0.1,0-0.1-0.1-0.2-0.1c0,0,0,0,0,0c0,0-0.1,0-0.1,0c-0.1,0-0.1-0.1-0.2-0.1c-0.1,0-0.1,0-0.2,0c-0.1,0-0.1,0-0.2,0
		c-0.1,0-0.1,0-0.2,0c-0.1,0-0.1,0-0.2,0c-0.1,0-0.1,0-0.2,0c-0.1,0-0.1,0-0.1,0c-0.1,0-0.1,0-0.2,0.1c0,0-0.1,0-0.1,0c0,0,0,0,0,0
		c-0.1,0-0.1,0.1-0.2,0.1c0,0-0.1,0.1-0.1,0.1c0,0-0.1,0.1-0.1,0.1c0,0-0.1,0.1-0.1,0.1c0,0,0,0.1-0.1,0.1c0,0.1-0.1,0.1-0.1,0.2
		c0,0,0,0,0,0c-1.6,3.3-4.8,5.4-8.4,5.7l-2.3-7.2c-0.6-1.8-2.5-2.8-4.3-2.2c-1.8,0.6-2.8,2.5-2.2,4.3l13,40.8h54.9l13-40.8
		C92.5,57.4,91.5,55.5,89.7,54.9z M73.8,93.1H29l-8.1-25.4c3.5-0.5,6.6-2.3,8.8-5.1c2.6,3.3,6.6,5.2,10.9,5.2c4.3,0,8.3-2,10.9-5.2
		c2.6,3.3,6.6,5.2,10.9,5.2c4.3,0,8.3-2,10.9-5.2c2.2,2.8,5.3,4.6,8.8,5.1L73.8,93.1z"/>
	<path fill="#2C4351" d="M71.2,46.6c3.7,0,6.8-3,6.8-6.8c0-3.7-3-6.8-6.8-6.8c-3.7,0-6.8,3-6.8,6.8C64.5,43.6,67.5,46.6,71.2,46.6z
		 M71.2,36.1c2,0,3.7,1.7,3.7,3.7s-1.6,3.7-3.7,3.7c-2,0-3.7-1.6-3.7-3.7S69.2,36.1,71.2,36.1z"/>
	<path fill="#2C4351" d="M78.2,31.3c2.9,0,5.3-2.4,5.3-5.3c0-2.9-2.4-5.3-5.3-5.3c-2.9,0-5.3,2.4-5.3,5.3
		C72.8,28.9,75.2,31.3,78.2,31.3z M78.2,23.7c1.2,0,2.3,1,2.3,2.3c0,1.2-1,2.3-2.3,2.3c-1.2,0-2.3-1-2.3-2.3
		C75.9,24.8,76.9,23.7,78.2,23.7z"/>
	<path fill="#2C4351" d="M87.1,41.7c2.4,0,4.3-1.9,4.3-4.3s-1.9-4.3-4.3-4.3c-2.4,0-4.3,1.9-4.3,4.3S84.8,41.7,87.1,41.7z
		 M87.1,36.2c0.7,0,1.2,0.5,1.2,1.2c0,0.7-0.5,1.2-1.2,1.2c-0.7,0-1.2-0.5-1.2-1.2C86,36.7,86.5,36.2,87.1,36.2z"/>
</g>
</svg>
