<?xml version="1.0" encoding="UTF-8" standalone="no"?>
<svg
   xmlns:dc="http://purl.org/dc/elements/1.1/"
   xmlns:cc="http://creativecommons.org/ns#"
   xmlns:rdf="http://www.w3.org/1999/02/22-rdf-syntax-ns#"
   xmlns:svg="http://www.w3.org/2000/svg"
   xmlns="http://www.w3.org/2000/svg"
   viewBox="0 0 33.333332 33.333332"
   height="33.333332"
   width="33.333332"
   xml:space="preserve"
   id="svg2"
   version="1.1"><metadata
     id="metadata8"><rdf:RDF><cc:Work
         rdf:about=""><dc:format>image/svg+xml</dc:format><dc:type
           rdf:resource="http://purl.org/dc/dcmitype/StillImage" /></cc:Work></rdf:RDF></metadata><defs
     id="defs6"><clipPath
       id="clipPath18"
       clipPathUnits="userSpaceOnUse"><path
         id="path16"
         d="M 0,25 H 25 V 0 H 0 Z" /></clipPath></defs><g
     transform="matrix(1.3333333,0,0,-1.3333333,0,33.333333)"
     id="g10"><g
       id="g12"><g
         clip-path="url(#2C4351th18)"
         id="g14"><g
           transform="translate(24.7108,23.6194)"
           id="g20"><path
             id="path22"
             style="fill:#2C4351;fill-opacity:1;fill-rule:nonzero;stroke:none"
             d="m 0,0 c 0,0 -6.422,-1.14 -15.436,-6.39 0.334,0.766 0.615,1.73 0.654,2.774 0.014,0.225 0.016,0.476 -0.005,0.75 -0.008,0.097 -0.02,0.193 -0.034,0.29 -0.007,0.054 -0.01,0.107 -0.019,0.161 l -0.002,-0.002 c -0.209,1.257 -0.954,2.782 -3.123,3.798 0,0 -1.165,-3.926 2.513,-5.743 -0.262,-1.015 -0.827,-2.306 -2.048,-3.276 -2.185,-1.371 -4.494,-2.972 -6.881,-4.851 v -4.516 c 0,0 2.874,3.232 7.435,6.923 0.562,0.419 2.026,1.34 4.063,1.344 3.063,0.007 4.58,-1.883 5.24,-3.098 -0.454,0.347 -1.397,0.883 -2.956,0.905 -2.848,0.04 -3.724,-3.135 -3.724,-5.672 0,-2.538 2.337,-7.016 4.82,-7.016 1.91,0 2.191,0.658 2.191,0.658 h 0.041 c 0,0 0.282,-0.658 2.191,-0.658 2.483,0 4.821,4.478 4.821,7.016 0,2.537 -0.877,5.712 -3.725,5.672 -1.459,-0.02 -2.386,-0.494 -2.871,-0.84 -0.202,0.429 -0.486,0.94 -0.882,1.456 0.693,0.098 4.691,0.883 4.877,6.031 0,0 -5.036,-0.501 -4.985,-5.901 -0.957,1.191 -2.496,2.337 -4.895,2.336 -0.504,0 -0.998,-0.049 -1.469,-0.127 4.029,2.945 8.951,5.854 14.209,7.403 z" /></g></g></g></g></svg>