<?xml version="1.0" encoding="utf-8"?>
<!-- Generator: Adobe Illustrator 18.1.1, SVG Export Plug-In . SVG Version: 6.00 Build 0)  -->
<!DOCTYPE svg PUBLIC "-//W3C//DTD SVG 1.1//EN" "http://www.w3.org/Graphics/SVG/1.1/DTD/svg11.dtd">
<svg version="1.1" id="Layer_1" xmlns="http://www.w3.org/2000/svg" xmlns:xlink="http://www.w3.org/1999/xlink" x="0px" y="0px"
	 viewBox="0 0 100 100" enable-background="new 0 0 100 100" xml:space="preserve">
<g>
	<path fill="#2C4351" d="M19.2,40c0-0.2,0-0.3,0-0.5l28.6-15.8c0.8-0.5,1.8-0.5,2.6,0L76,37.4c1.8,1,4.1-0.3,4.1-2.4v-0.7
		c0-1-0.5-1.9-1.4-2.4L50.4,16.8c-0.8-0.5-1.8-0.5-2.6,0L8.9,38.3c-0.9,0.5-1.4,1.4-1.4,2.4v0.7c0,2.1,2.2,3.4,4.1,2.4L13,43v47.4
		c0,1.5,1.2,2.7,2.7,2.7h0.8c0,0,0.1,0,0.1,0c0,0,0.1,0,0.1,0h18.1v-6.2H19.2V40z"/>
	<path fill="#2C4351" d="M86.7,47.5h-1.1H64.4h-0.7h-3.3V100h3.3h0.7h21.2h1.1h3.5V47.5H86.7z M85.6,51.7v11.6h-3.1v-8h-6.7v8H64.4
		V51.7H85.6z M76.1,73.2v5.9h-4.2v-7.9h-3.7v7.9h-3.7V67.5h21.2v11.6h-4.9v-5.9H76.1z M83.6,95v-8h-6.9v8h-3.4v-8h-6v8h-3V83.3h21.2
		V95H83.6z"/>
	
		<rect x="50.9" y="64.2" transform="matrix(-0.9917 -0.1283 0.1283 -0.9917 95.382 169.8688)" fill="#2C4351" width="4.6" height="35.2"/>
	
		<rect x="30.1" y="82.5" transform="matrix(0.1284 -0.9917 0.9917 0.1284 -44.1913 118.1095)" fill="#2C4351" width="30" height="3.4"/>
	<rect x="61.7" y="41" fill="#2C4351" width="8.7" height="3.7"/>
</g>
</svg>
