<?xml version="1.0" encoding="UTF-8" standalone="no"?>
<svg
   xmlns:dc="http://purl.org/dc/elements/1.1/"
   xmlns:cc="http://creativecommons.org/ns#"
   xmlns:rdf="http://www.w3.org/1999/02/22-rdf-syntax-ns#"
   xmlns:svg="http://www.w3.org/2000/svg"
   xmlns="http://www.w3.org/2000/svg"
   viewBox="0 0 33.333332 33.333332"
   height="33.333332"
   width="33.333332"
   xml:space="preserve"
   id="svg2"
   version="1.1"><metadata
     id="metadata8"><rdf:RDF><cc:Work
         rdf:about=""><dc:format>image/svg+xml</dc:format><dc:type
           rdf:resource="http://purl.org/dc/dcmitype/StillImage" /></cc:Work></rdf:RDF></metadata><defs
     id="defs6"><clipPath
       id="clipPath18"
       clipPathUnits="userSpaceOnUse"><path
         id="path16"
         d="M 0,25 H 25 V 0 H 0 Z" /></clipPath></defs><g
     transform="matrix(1.3333333,0,0,-1.3333333,0,33.333333)"
     id="g10"><g
       id="g12"><g
         clip-path="url(#2C4351th18)"
         id="g14"><g
           transform="translate(22.9973,13.8754)"
           id="g20"><path
             id="path22"
             style="fill:#2C4351;fill-opacity:1;fill-rule:nonzero;stroke:none"
             d="m 0,0 h -0.117 c 0,0 -0.059,0 -0.234,-0.059 -0.468,-0.058 -0.878,-0.351 -1.112,-0.643 -0.468,-0.468 -0.995,-1.346 -1.229,-2.809 h -15.682 c -0.234,1.463 -0.761,2.282 -1.229,2.809 -0.293,0.351 -0.702,0.585 -1.112,0.643 C -20.832,0 -20.949,0 -20.949,0 h -0.117 c -1.053,0 -1.931,-0.878 -1.931,-1.931 0,-0.936 0.643,-1.697 1.521,-1.873 0.117,-1.287 0.527,-2.925 1.346,-3.803 h 0.878 c -0.059,-0.059 -0.059,-0.176 -0.059,-0.234 v -0.234 c 0,-0.41 0.351,-0.761 0.761,-0.761 h 0.293 c 0.409,0 0.76,0.351 0.76,0.761 v 0.234 c 0,0.117 0,0.175 -0.058,0.292 h 3.803 6.437 3.921 c -0.059,-0.058 -0.059,-0.175 -0.059,-0.292 v -0.234 c 0,-0.41 0.352,-0.761 0.761,-0.761 h 0.293 c 0.409,0 0.761,0.351 0.761,0.761 v 0.234 c 0,0.117 0,0.175 -0.059,0.292 h 0.761 c 0.819,0.878 1.229,2.517 1.346,3.804 0.877,0.175 1.521,0.936 1.521,1.872 C 1.931,-0.878 1.112,0 0,0" /></g><g
           transform="translate(4.0377,13.7584)"
           id="g24"><path
             id="path26"
             style="fill:#2C4351;fill-opacity:1;fill-rule:nonzero;stroke:none"
             d="m 0,0 c 0.585,-0.585 1.053,-1.463 1.287,-2.516 h 14.22 c 0.293,1.053 0.702,1.872 1.287,2.516 0.41,0.468 0.995,0.819 1.639,0.936 0.117,0 0.175,0.059 0.234,0.059 -0.468,2.458 -2.575,2.984 -5.15,2.984 H 3.277 c -2.516,0 -4.623,-0.468 -5.091,-2.984 0.058,0 0.117,0 0.234,-0.059 C -0.995,0.819 -0.41,0.527 0,0" /></g></g></g></g></svg>