<?xml version="1.0" encoding="UTF-8" standalone="no"?>
<svg
   xmlns:dc="http://purl.org/dc/elements/1.1/"
   xmlns:cc="http://creativecommons.org/ns#"
   xmlns:rdf="http://www.w3.org/1999/02/22-rdf-syntax-ns#"
   xmlns:svg="http://www.w3.org/2000/svg"
   xmlns="http://www.w3.org/2000/svg"
   viewBox="0 0 33.333332 33.333332"
   height="33.333332"
   width="33.333332"
   xml:space="preserve"
   id="svg2"
   version="1.1"><metadata
     id="metadata8"><rdf:RDF><cc:Work
         rdf:about=""><dc:format>image/svg+xml</dc:format><dc:type
           rdf:resource="http://purl.org/dc/dcmitype/StillImage" /></cc:Work></rdf:RDF></metadata><defs
     id="defs6"><clipPath
       id="clipPath18"
       clipPathUnits="userSpaceOnUse"><path
         id="path16"
         d="M 0,25 H 25 V 0 H 0 Z" /></clipPath><clipPath
       id="clipPath30"
       clipPathUnits="userSpaceOnUse"><path
         id="path28"
         d="M 0.177,2.183 H 24.875 V 22.816 H 0.177 Z" /></clipPath><clipPath
       id="clipPath46"
       clipPathUnits="userSpaceOnUse"><path
         id="path44"
         d="M 0,25 H 25 V 0 H 0 Z" /></clipPath></defs><g
     transform="matrix(1.3333333,0,0,-1.3333333,0,33.333333)"
     id="g10"><g
       id="g12"><g
         clip-path="url(#2C4351th18)"
         id="g14"><g
           transform="translate(19.4384,9.6443)"
           id="g20"><path
             id="path22"
             style="fill:#2C4351;fill-opacity:1;fill-rule:nonzero;stroke:none"
             d="m 0,0 h -0.154 c -0.054,0 -0.08,-0.023 -0.08,-0.077 v -3.518 c 0.106,0.095 0.209,0.19 0.313,0.287 v 3.231 C 0.079,-0.023 0.054,0 0,0" /></g></g></g><g
       id="g24"><g
         clip-path="url(#2C4351th30)"
         id="g26"><g
           transform="translate(21.6634,14.8723)"
           id="g32"><path
             id="path34"
             style="fill:#2C4351;fill-opacity:1;fill-rule:nonzero;stroke:none"
             d="M 0,0 H -0.157 C -0.2,0 -0.234,-0.034 -0.234,-0.077 v -6.39 c 0.299,0.376 0.584,0.76 0.85,1.151 -0.311,0.089 -0.538,0.374 -0.539,0.712 0,0.001 -0.001,4.527 -0.001,4.527 C 0.076,-0.034 0.043,0 0,0" /></g><g
           transform="translate(5.2615,20.4899)"
           id="g36"><path
             id="path38"
             style="fill:#2C4351;fill-opacity:1;fill-rule:nonzero;stroke:none"
             d="m 0,0 c 0.785,0 1.422,-0.637 1.422,-1.422 0,-0.786 -0.637,-1.423 -1.422,-1.423 -0.786,0 -1.423,0.637 -1.423,1.423 C -1.423,-0.637 -0.786,0 0,0 m 5.911,-7.969 c 0.19,0.019 0.388,-0.075 0.535,-0.168 0.038,-0.025 0.091,-0.019 0.125,0.01 0.17,0.15 0.394,0.242 0.639,0.242 0.255,0 0.487,-0.099 0.659,-0.26 0.032,-0.03 0.086,-0.036 0.124,-0.011 0.148,0.1 0.359,0.207 0.562,0.187 C 8.889,-8.003 8.961,-8.387 8.874,-8.652 8.86,-8.695 8.827,-8.76 8.808,-8.8 8.688,-9.047 8.567,-9.33 8.49,-9.339 8.413,-9.349 8.661,-8.754 8.483,-8.569 8.452,-8.536 8.378,-8.521 8.333,-8.524 8.3,-8.527 8.261,-8.534 8.214,-8.55 8.171,-8.564 8.149,-8.616 8.158,-8.66 c 0.013,-0.062 0.02,-0.127 0.02,-0.193 0,-0.534 -0.433,-0.967 -0.967,-0.967 -0.534,0 -0.967,0.433 -0.967,0.967 0,0.073 0.008,0.144 0.022,0.212 0.011,0.044 -0.012,0.093 -0.055,0.104 C 6.182,-8.53 6.156,-8.526 6.133,-8.524 6.088,-8.52 6.015,-8.536 5.984,-8.569 5.806,-8.754 6.054,-9.349 5.976,-9.339 5.898,-9.33 5.777,-9.047 5.659,-8.8 c -0.02,0.041 -0.053,0.105 -0.067,0.148 -0.087,0.265 -0.015,0.649 0.319,0.683 m 8.188,7.967 c 0.786,0 1.423,-0.638 1.423,-1.423 0,-0.786 -0.637,-1.423 -1.423,-1.423 -0.785,0 -1.422,0.637 -1.422,1.423 0,0.786 0.637,1.423 1.422,1.423 m -17.406,-5.2 c 0.169,0.589 0.582,1.93 1.746,1.93 h 3.125 c 1.25,0 1.573,-1.341 1.743,-1.93 0,0 1.11,-3.626 1.111,-3.627 0.12,-0.392 -0.101,-0.807 -0.492,-0.926 -0.391,-0.12 -0.806,0.099 -0.925,0.49 -10e-4,0 -1.108,3.612 -1.108,3.612 -0.008,0.015 -0.04,0.079 -0.118,0.079 H 1.619 C 1.575,-5.573 1.549,-5.611 1.561,-5.653 l 2.217,-7.257 c 0.012,-0.043 0,-0.117 -0.077,-0.117 H 2.145 c -0.044,0 -0.075,-0.036 -0.075,-0.079 v -2.634 c 1.209,-0.869 2.502,-1.574 3.825,-2.048 v 1.665 c 0,0.027 -0.019,0.049 -0.046,0.049 H 4.903 c -0.046,0 -0.054,0.045 -0.046,0.071 l 1.361,4.48 c 0.007,0.026 -0.009,0.048 -0.036,0.048 H 5.967 c -0.048,0 -0.069,-0.039 -0.072,-0.048 l -0.678,-2.212 c -0.074,-0.241 -0.33,-0.376 -0.57,-0.303 -0.242,0.074 -0.377,0.33 -0.304,0.57 0.001,10e-4 0.683,2.228 0.685,2.236 0.104,0.363 0.48,1.189 1.199,1.189 h 1.962 c 0.77,0 1.081,-0.826 1.184,-1.189 0.003,-0.008 0.005,-0.017 0.008,-0.028 0.276,-0.898 0.677,-2.207 0.677,-2.208 0.074,-0.24 -0.062,-0.496 -0.303,-0.57 -0.241,-0.074 -0.496,0.062 -0.57,0.303 -0.001,0 -0.681,2.212 -0.681,2.212 -0.004,0.009 -0.023,0.048 -0.071,0.048 H 8.227 c -0.027,0 -0.04,-0.022 -0.033,-0.048 l 1.363,-4.48 c 0.007,-0.026 0,-0.071 -0.048,-0.071 H 8.602 c -0.028,0 -0.048,-0.022 -0.048,-0.049 v -1.648 c 1.197,0.435 2.37,1.058 3.478,1.82 v 10.257 c 0,0.042 -0.035,0.077 -0.078,0.077 h -0.157 c -0.042,0 -0.077,-0.035 -0.077,-0.077 l -0.001,-4.527 c 0,-0.41 -0.332,-0.741 -0.741,-0.741 -0.409,0 -0.741,0.332 -0.741,0.741 v 5.151 c 0,1.014 0.78,1.796 1.756,1.796 h 4.214 c 0.975,0 1.756,-0.782 1.756,-1.796 v -4.31 c 1.944,3.623 2.26,7.531 -0.428,10.09 C 13.047,4.825 7.946,-0.135 7.291,-0.81 7.252,-0.85 7.212,-0.883 7.201,-0.883 7.189,-0.883 7.149,-0.85 7.11,-0.81 6.455,-0.135 1.355,4.825 -3.134,0.71 c -2.365,-2.252 -2.404,-5.553 -1.052,-8.781 0.324,1.06 0.876,2.86 0.879,2.869" /></g></g></g><g
       id="g40"><g
         clip-path="url(#2C4351th46)"
         id="g42"><g
           transform="translate(12.4664,2.3141)"
           id="g48"><path
             id="path50"
             style="fill:#2C4351;fill-opacity:1;fill-rule:nonzero;stroke:none"
             d="m 0,0 c 0.057,0.013 0.114,0.027 0.171,0.042 v 2.011 c 0,0.027 -0.029,0.048 -0.05,0.048 H -0.083 C -0.11,2.101 -0.131,2.08 -0.131,2.053 V 0.03 C -0.09,0.02 -0.05,0.009 -0.009,0 Z" /></g><g
           transform="translate(3.7003,14.8374)"
           id="g52"><path
             id="path54"
             style="fill:#2C4351;fill-opacity:1;fill-rule:nonzero;stroke:none"
             d="M 0,0 C 0.011,0.042 -0.014,0.079 -0.059,0.078 H -0.215 C -0.292,0.078 -0.325,0.015 -0.332,0 L -1.44,-3.612 c -0.062,-0.202 -0.203,-0.358 -0.379,-0.445 0.123,-0.215 0.25,-0.429 0.383,-0.641 z" /></g><g
           transform="translate(5.3392,7.4633)"
           id="g56"><path
             id="path58"
             style="fill:#2C4351;fill-opacity:1;fill-rule:nonzero;stroke:none"
             d="M 0,0 H -0.155 C -0.2,0 -0.236,-0.036 -0.236,-0.08 v -0.757 c 0.105,-0.101 0.209,-0.202 0.315,-0.301 V -0.08 C 0.079,-0.036 0.044,0 0,0" /></g></g></g></g></svg>