<?xml version="1.0" encoding="utf-8"?>
<!-- Generator: Adobe Illustrator 18.1.1, SVG Export Plug-In . SVG Version: 6.00 Build 0)  -->
<!DOCTYPE svg PUBLIC "-//W3C//DTD SVG 1.1//EN" "http://www.w3.org/Graphics/SVG/1.1/DTD/svg11.dtd">
<svg version="1.1" id="Layer_1" xmlns="http://www.w3.org/2000/svg" xmlns:xlink="http://www.w3.org/1999/xlink" x="0px" y="0px"
	 viewBox="0 0 100 100" enable-background="new 0 0 100 100" xml:space="preserve">
<g>
	<path fill="#2C4351" d="M74.3,50.3c3.9,0,7.9-1.5,10.9-4.5c4-4,5.3-9.6,4-14.7l-6.1,6.1c-1.5,1.5-3.5,2.3-5.5,2.3
		c-2,0-4-0.8-5.5-2.3c-3.1-3.1-3.1-8,0-11.1l6.1-6.1c-1.3-0.3-2.6-0.5-3.9-0.5c-3.9,0-7.9,1.5-10.9,4.5c-4.3,4.3-5.5,10.5-3.7,15.9
		l-46,46c-2.6,2.6-2.6,6.9,0,9.5c1.3,1.3,3,2,4.8,2c1.7,0,3.5-0.7,4.8-2l46-46C70.9,50.1,72.6,50.3,74.3,50.3z M19.1,92.9
		c-1.6,0-2.9-1.3-2.9-2.9c0-1.6,1.3-2.9,2.9-2.9c1.6,0,2.9,1.3,2.9,2.9C22,91.6,20.7,92.9,19.1,92.9z"/>
	<path fill="#2C4351" d="M20,49.6c-0.6-1.5-0.3-3.3,0.9-4.5c1.6-1.6,4.3-1.6,5.9,0c0.5,0.5,0.8,1,1,1.6l10.1,10.1l7-7L32.9,37.8
		c-0.8-0.8-1.2-1.8-1.5-2.7c6.4-15.3,19.7-12,19.7-12l0.8-1.3c-16.3-10.2-35,11.8-35,11.8c-0.4,0.8-0.1,1.8,0.2,2.3l-0.1,0.1
		c0.6,1.5,0.3,3.3-0.9,4.5c-1.2,1.2-3,1.5-4.5,0.9l-6.1,6.1l8.3,8.3L20,49.6z"/>
	<path fill="#2C4351" d="M60.9,62.9l-10,10l25.7,25.7c1.9,1.9,5.1,1.9,7,0l3-3c1.9-1.9,1.9-5.1,0-7L60.9,62.9z"/>
</g>
</svg>
