<?xml version="1.0" encoding="utf-8"?>
<!-- Generator: Adobe Illustrator 18.1.1, SVG Export Plug-In . SVG Version: 6.00 Build 0)  -->
<!DOCTYPE svg PUBLIC "-//W3C//DTD SVG 1.1//EN" "http://www.w3.org/Graphics/SVG/1.1/DTD/svg11.dtd">
<svg version="1.1" id="Layer_1" xmlns="http://www.w3.org/2000/svg" xmlns:xlink="http://www.w3.org/1999/xlink" x="0px" y="0px"
	 viewBox="0 0 100 100" enable-background="new 0 0 100 100" xml:space="preserve">
<g>
	<path fill="#2C4351" d="M9.9,68.4h45.5c2,0,3.6-1.6,3.6-3.6V47.2c0-2-1.6-3.6-3.6-3.6H9.9c-2,0-3.6,1.6-3.6,3.6v17.6
		C6.3,66.8,7.9,68.4,9.9,68.4z"/>
	<path fill="#2C4351" d="M70.7,43.7c-2,0-3.6,1.6-3.6,3.6v17.6c0,2,1.6,3.6,3.6,3.6h23V43.7H70.7z"/>
	<path fill="#2C4351" d="M89.9,75.2H44.4c-2,0-3.6,1.6-3.6,3.6v17.6c0,2,1.6,3.6,3.6,3.6h45.5c2,0,3.6-1.6,3.6-3.6V78.8
		C93.5,76.8,91.9,75.2,89.9,75.2z"/>
	<path fill="#2C4351" d="M29,75.2H6.3V100H29c2,0,3.6-1.6,3.6-3.6V78.8C32.6,76.8,31,75.2,29,75.2z"/>
	<path fill="#2C4351" d="M44.4,36.8h45.5c2,0,3.6-1.6,3.6-3.6V15.6c0-2-1.6-3.6-3.6-3.6H44.4c-2,0-3.6,1.6-3.6,3.6v17.6
		C40.8,35.2,42.4,36.8,44.4,36.8z"/>
	<path fill="#2C4351" d="M32.6,33.2V15.6c0-2-1.6-3.6-3.6-3.6H6.3v24.8H29C31,36.8,32.6,35.2,32.6,33.2z"/>
</g>
</svg>
