<?xml version="1.0" encoding="utf-8"?>
<!-- Generator: Adobe Illustrator 18.1.1, SVG Export Plug-In . SVG Version: 6.00 Build 0)  -->
<!DOCTYPE svg PUBLIC "-//W3C//DTD SVG 1.1//EN" "http://www.w3.org/Graphics/SVG/1.1/DTD/svg11.dtd">
<svg version="1.1" id="Layer_1" xmlns="http://www.w3.org/2000/svg" xmlns:xlink="http://www.w3.org/1999/xlink" x="0px" y="0px"
	 viewBox="0 0 100 100" enable-background="new 0 0 100 100" xml:space="preserve">
<g>
	<path fill="#2C4351" d="M27,55.8c-1.2,0.3-2,1.6-1.7,2.8c0.3,1.1,1.2,1.8,2.3,1.8c0.2,0,0.4,0,0.6-0.1c3.7-0.9,10.7-4.8,10.8-12.6
		c0-0.9-0.1-1.8-0.2-2.7c2.1-1.1,5.2-3.9,4.6-8.7c-0.6-4.6-5.5-4.9-6.9-4.9c0.1-0.1,0.1-0.2,0.2-0.2c3.7-5.1,8.6-7,13.4-5.1
		c4.8,1.9,5,6.8,4.7,9.6c-0.4,3.8-2,5.4-5,7.3c-1.1,0.7-1.4,2.1-0.7,3.2c0.7,1.1,2.1,1.4,3.2,0.7c3.1-2,6.5-4.6,7.1-10.8
		c0.7-6.9-2.1-12.3-7.7-14.4c-6.9-2.7-14-0.2-18.9,6.8c-3.7,5.2-1.8,9.5-0.3,13c0.9,2,1.7,4,1.7,6.2C34.2,53.8,27.3,55.7,27,55.8z"
		/>
	<path fill="#2C4351" d="M47.4,4.8c-14.8,0-21.4,8.7-21.7,9c-0.8,1-0.6,2.5,0.5,3.3c1,0.8,2.5,0.6,3.3-0.4c0.2-0.3,5.7-7.2,18-7.2
		C60.2,9.5,71,19.9,71,32.3c0,8.6-2.8,15.4-8.5,20l-0.3,0.3c-2.6,2.1-8,6.6-11.3,16.1c-0.1,0.3-0.2,0.6-0.3,0.9
		c1.7,0.6,3.1,1.4,4.2,2.2c0.2-0.5,0.4-1.1,0.6-1.6c2.9-8.3,7.4-12,9.9-14.1l0.3-0.3c6.7-5.6,10.1-13.6,10.1-23.6
		C75.6,17.4,62.7,4.8,47.4,4.8z"/>
	<path fill="#2C4351" d="M43.7,70.7c-2.2,0.1-3.9,2-3.8,4.2c0.1,2.2,2,3.9,4.2,3.8c3.8-0.2,6.8,2.7,7,6.3c0.2,3.7-2.7,6.8-6.3,7
		c-1.8,0.1-3.5-0.5-4.8-1.7c-0.9-0.8-1.5-1.8-1.9-3c0.3,0,0.5,0,0.8,0c4.4,0,7.6-1.7,9.9-4.2c-1.2-1.6-2.9-2.3-4.1-2.6
		c-1.6,1.4-3.4,2.1-5.8,2.1c-9.7,0-9.8-9.7-9.8-10.1c0-1.3-1-2.3-2.3-2.3c-1.3,0-2.3,1-2.3,2.3c0,3.8,1.6,8.9,5.6,11.9
		c-0.2,0.5-0.3,1-0.2,1.5c0.2,3.9,1.9,7.5,4.8,10.1c2.7,2.5,6.2,3.8,9.8,3.8c0.2,0,0.5,0,0.7,0c8.1-0.4,14.3-7.3,13.9-15.4
		C58.7,76.5,51.8,70.3,43.7,70.7z"/>
</g>
</svg>
