<?xml version="1.0" encoding="utf-8"?>
<!-- Generator: Adobe Illustrator 18.1.1, SVG Export Plug-In . SVG Version: 6.00 Build 0)  -->
<!DOCTYPE svg PUBLIC "-//W3C//DTD SVG 1.1//EN" "http://www.w3.org/Graphics/SVG/1.1/DTD/svg11.dtd">
<svg version="1.1" id="Layer_1" xmlns="http://www.w3.org/2000/svg" xmlns:xlink="http://www.w3.org/1999/xlink" x="0px" y="0px"
	 viewBox="0 0 100 100" enable-background="new 0 0 100 100" xml:space="preserve">
<g>
	<path fill="#2C4351" d="M57,32.4c0,1.3-1.1,2.4-2.4,2.4s-2.4-1.1-2.4-2.4V12.2h-5.1v20.2c0,1.3-1.1,2.4-2.4,2.4
		c-1.3,0-2.4-1.1-2.4-2.4V12.2h-4.9v23.1c0,5,3,9.3,7.3,11.2v49.2c0,2.3,1.9,4.2,4.2,4.2h1.9c2.3,0,4.2-1.9,4.2-4.2V46.3
		c4-2,6.8-6.1,6.8-10.9V12.2H57V32.4z"/>
	<path fill="#2C4351" d="M84.5,12.7v0.1c-0.1,0-0.2,0-0.2,0c-5.3,0-9.5,4.3-9.5,9.5v26c0,5.3,4.3,9.5,9.5,9.5c0.1,0,0.2,0,0.2,0
		v37.9c0,2.3,1.9,4.2,4.2,4.2h1.9c2.3,0,4.2-1.9,4.2-4.2V12.7H84.5z"/>
	<path fill="#2C4351" d="M18.2,12.1h-1.7c0,0-11.3,2-11.3,16.7c0,0-0.3,8.1,5.1,13.6c5.4,5.6,3.6,15.2,3.6,15.2l-2,36.1
		c0,0-0.2,5.9,4.5,5.9h2c4.6,0,4.5-5.9,4.5-5.9l-2-36.1c0,0-1.9-9.6,3.6-15.2c5.4-5.6,5.1-13.6,5.1-13.6
		C29.5,14.1,18.2,12.1,18.2,12.1z"/>
</g>
</svg>
