<?xml version="1.0" encoding="utf-8"?>
<!-- Generator: Adobe Illustrator 18.1.1, SVG Export Plug-In . SVG Version: 6.00 Build 0)  -->
<!DOCTYPE svg PUBLIC "-//W3C//DTD SVG 1.1//EN" "http://www.w3.org/Graphics/SVG/1.1/DTD/svg11.dtd">
<svg version="1.1" id="Layer_1" xmlns="http://www.w3.org/2000/svg" xmlns:xlink="http://www.w3.org/1999/xlink" x="0px" y="0px"
	 viewBox="0 0 100 100" enable-background="new 0 0 100 100" xml:space="preserve">
<g>
	<path fill="#2C4351" d="M88.2,44.8l-34.8-19c-0.7-0.4-1.6-0.4-2.4,0L16.2,45.2c-0.8,0.4-1.3,1.3-1.3,2.1V48c0,1.9,2,3,3.6,2.1
		l1.3-0.7v42.5c0,1.4,1.1,2.5,2.4,2.5h0.3H23h8.7v-5.6h-6.3V46.7c0-0.1,0-0.3,0-0.4l25.7-14.2c0.7-0.4,1.6-0.4,2.4,0l25.8,14.1
		c0,0.2-0.1,0.3-0.1,0.5v8.8h5.6v-6.3l1,0.6c1.6,0.9,3.6-0.3,3.6-2.1V47C89.5,46.1,89,45.3,88.2,44.8z"/>
	<path fill="#2C4351" d="M82.5,68.1c-0.1,0-0.3,0-0.4,0v0c0,0-0.3,0-0.8,0.1c-1.6,0.3-3,1.1-4,2.3c-1.7,1.7-3.5,4.7-4.4,9.8
		c-3.3-2.1-7.7-3.4-12.7-3.4c-0.2,0-0.4,0-0.6,0c-0.2,0-0.4,0-0.6,0c-4.9,0-9.4,1.3-12.7,3.4c-0.9-5.1-2.6-8-4.4-9.8
		c-1-1.2-2.4-2-4-2.3c-0.5-0.1-0.8-0.1-0.8-0.1v0c-0.1,0-0.3,0-0.4,0c-3.7,0-6.7,3-6.7,6.7c0,3.2,2.3,5.9,5.3,6.6
		c0.5,4.4,1.9,12.7,4.7,15.7h3c0,0.1,0,0.3,0,0.4c0,1.3,1.1,2.4,2.4,2.4h1.7c1.3,0,2.4-1.1,2.4-2.4c0-0.2,0-0.3,0-0.4h5.7H64h5.7
		c0,0.1,0,0.3,0,0.4c0,1.3,1.1,2.4,2.4,2.4h1.7c1.3,0,2.4-1.1,2.4-2.4c0-0.2,0-0.3,0-0.4h3c2.8-3,4.2-11.3,4.7-15.7
		c3-0.6,5.3-3.3,5.3-6.6C89.2,71.1,86.2,68.1,82.5,68.1z"/>
	<path fill="#2C4351" d="M43.8,69c1.9,1.9,3.3,4.5,4.2,7.8c3.3-1.5,7.1-2.2,11.1-2.2c0.2,0,0.3,0,0.5,0l0.2,0l0.2,0
		c0.2,0,0.3,0,0.5,0c4,0,7.8,0.8,11.1,2.2c0.9-3.3,2.4-5.9,4.2-7.8c1.2-1.4,2.7-2.3,4.3-2.8c-0.8-6.6-9.5-10.8-20.3-10.8
		c-10.7,0-19.5,4.1-20.3,10.8C41.1,66.7,42.6,67.7,43.8,69z"/>
</g>
</svg>
