<?xml version="1.0" encoding="utf-8"?>
<!-- Generator: Adobe Illustrator 18.1.1, SVG Export Plug-In . SVG Version: 6.00 Build 0)  -->
<!DOCTYPE svg PUBLIC "-//W3C//DTD SVG 1.1//EN" "http://www.w3.org/Graphics/SVG/1.1/DTD/svg11.dtd">
<svg version="1.1" id="Layer_1" xmlns="http://www.w3.org/2000/svg" xmlns:xlink="http://www.w3.org/1999/xlink" x="0px" y="0px"
	 viewBox="0 0 50 50" enable-background="new 0 0 50 50" xml:space="preserve">
<path fill="#2C4351" d="M48.5,37.5L40.4,32c1.1-6.6-1.4-9.7-2.6-10.7c0.3-0.8,0.4-1.7,0.4-2.7c0-4.5-3.7-8.2-8.2-8.2
	c-3.2,0-5.9,1.8-7.3,4.5c0,0,0,0,0,0h-19c-0.3,0-0.7,0.1-0.9,0.4l-1.3,1.3c-0.5,0.5-0.5,1.3,0,1.8l1.7,1.7c0.5,0.5,1.3,0.5,1.8,0
	l0.6-0.6c0.5-0.5,1.3-0.5,1.8,0l0.6,0.6c0.5,0.5,1.3,0.5,1.8,0l0.7-0.7c0.5-0.5,1.3-0.5,1.8,0c0.5,0.5,1.3,0.5,1.8,0l0.2-0.2
	c0.5-0.5,1.3-0.5,1.8,0l2.6,2.6c0.2,0.2,0.6,0.4,0.9,0.4h2.8c1.3,2.7,4.1,4.6,7.3,4.6c3,0,5.7-1.7,7.1-4.1c1,1.1,2.7,3.7,1.8,9.1
	l0.1,0l-8,5.7c-0.2,0.1-0.3,0.3-0.3,0.6v11.3c0,0.4,0.3,0.7,0.7,0.7h8.3c0.4,0,0.7-0.3,0.7-0.7v-7c0-0.4,0.3-0.7,0.7-0.7h3.3
	c0.4,0,0.7,0.3,0.7,0.7v7c0,0.4,0.3,0.7,0.7,0.7h2.3c0.4,0,0.7-0.3,0.7-0.7V38C48.8,37.8,48.7,37.6,48.5,37.5z M34.8,20.2
	c-0.8,0-1.5-0.7-1.5-1.5c0-0.8,0.7-1.5,1.5-1.5c0.8,0,1.5,0.7,1.5,1.5C36.3,19.5,35.6,20.2,34.8,20.2z M37.5,44.8
	c0,0.4-0.3,0.7-0.7,0.7h-2.4c-0.4,0-0.7-0.3-0.7-0.7v-1.9c0-0.4,0.3-0.7,0.7-0.7h2.4c0.4,0,0.7,0.3,0.7,0.7V44.8z"/>
</svg>
