<?xml version="1.0" encoding="UTF-8" standalone="no"?>
<svg
   xmlns:dc="http://purl.org/dc/elements/1.1/"
   xmlns:cc="http://creativecommons.org/ns#"
   xmlns:rdf="http://www.w3.org/1999/02/22-rdf-syntax-ns#"
   xmlns:svg="http://www.w3.org/2000/svg"
   xmlns="http://www.w3.org/2000/svg"
   viewBox="0 0 33.333332 33.333332"
   height="33.333332"
   width="33.333332"
   xml:space="preserve"
   id="svg2"
   version="1.1"><metadata
     id="metadata8"><rdf:RDF><cc:Work
         rdf:about=""><dc:format>image/svg+xml</dc:format><dc:type
           rdf:resource="http://purl.org/dc/dcmitype/StillImage" /></cc:Work></rdf:RDF></metadata><defs
     id="defs6"><clipPath
       id="clipPath18"
       clipPathUnits="userSpaceOnUse"><path
         id="path16"
         d="M 0,25 H 25 V 0 H 0 Z" /></clipPath></defs><g
     transform="matrix(1.3333333,0,0,-1.3333333,0,33.333333)"
     id="g10"><g
       id="g12"><g
         clip-path="url(#2C4351th18)"
         id="g14"><g
           transform="translate(4.4914,21.0325)"
           id="g20"><path
             id="path22"
             style="fill:#2C4351;fill-opacity:1;fill-rule:nonzero;stroke:none"
             d="m 0,0 c 0,0 0.079,0.024 0.219,0.06 0.031,0.008 0.069,0.018 0.106,0.027 1.012,0.25 4.372,0.902 8.908,0 C 9.278,0.078 9.323,0.07 9.369,0.06 9.472,0.039 9.572,0.023 9.677,0 9.677,0 5.337,-0.598 0,0 m 11.78,-0.032 h 0.088 c 0,0 -1.899,3.634 -4.274,3.845 C 5.22,4.024 4.692,2.834 4.692,2.834 c 0,0 -0.527,1.179 -2.902,0.968 -2.374,-0.212 -4.274,-3.834 -4.274,-3.834 h 0.089 c 0.144,0 2.215,-4 6.481,-4 h 1.213 c 4.265,0 6.336,4 6.481,4" /></g><g
           transform="translate(23.1527,3.1541)"
           id="g24"><path
             id="path26"
             style="fill:#2C4351;fill-opacity:1;fill-rule:nonzero;stroke:none"
             d="M 0,0 -3.324,5.506 -3.808,5.214 -6.176,9.105 -9.504,7.097 -7.135,3.205 -7.615,2.916 -4.212,-2.72 c 0.256,-0.425 0.808,-0.561 1.233,-0.305 l 2.623,1.584 C 0.14,-1.142 0.3,-0.496 0,0" /></g><g
           transform="translate(14.2332,16.0212)"
           id="g28"><path
             id="path30"
             style="fill:#2C4351;fill-opacity:1;fill-rule:nonzero;stroke:none"
             d="M 0,0 C 0,0 -0.517,0.904 -1.359,-0.244 -2.2,-1.392 -1.582,-3.236 -1.582,-3.236 l 0.936,-1.502 2.535,1.526 z" /></g></g></g></g></svg>