<?xml version="1.0" encoding="UTF-8" standalone="no"?>
<svg
   xmlns:dc="http://purl.org/dc/elements/1.1/"
   xmlns:cc="http://creativecommons.org/ns#"
   xmlns:rdf="http://www.w3.org/1999/02/22-rdf-syntax-ns#"
   xmlns:svg="http://www.w3.org/2000/svg"
   xmlns="http://www.w3.org/2000/svg"
   viewBox="0 0 33.333332 33.333332"
   height="33.333332"
   width="33.333332"
   xml:space="preserve"
   id="svg2"
   version="1.1"><metadata
     id="metadata8"><rdf:RDF><cc:Work
         rdf:about=""><dc:format>image/svg+xml</dc:format><dc:type
           rdf:resource="http://purl.org/dc/dcmitype/StillImage" /></cc:Work></rdf:RDF></metadata><defs
     id="defs6"><clipPath
       id="clipPath18"
       clipPathUnits="userSpaceOnUse"><path
         id="path16"
         d="M 0,25 H 25 V 0 H 0 Z" /></clipPath></defs><g
     transform="matrix(1.3333333,0,0,-1.3333333,0,33.333333)"
     id="g10"><g
       id="g12"><g
         clip-path="url(#2C4351th18)"
         id="g14"><g
           transform="translate(19.9268,13.9874)"
           id="g20"><path
             id="path22"
             style="fill:#2C4351;fill-opacity:1;fill-rule:nonzero;stroke:none"
             d="m 0,0 c -1.667,-0.987 -3.682,-0.969 -5.186,-0.752 l 6.632,5.588 c 0,0 -4.753,-3.081 -6.723,-4.277 0.42,0.843 0.815,1.919 0.939,3.119 0.57,0.575 1.25,1.109 2.096,1.522 C 0.53,6.551 2.642,6.312 3.539,6.101 3.298,4.812 2.452,1.453 0,0 m -9.134,-10.02 c 0,0 -0.317,-0.272 -0.853,-0.551 -0.345,-0.18 -0.781,-0.363 -1.283,-0.479 -0.74,-0.171 -1.625,-0.189 -2.568,0.16 -0.321,0.071 -0.64,0.148 -0.937,0.222 -0.592,0.147 -1.152,0.286 -1.617,0.346 -0.121,0.015 -0.239,0.022 -0.356,0.022 -0.095,0 -0.188,-0.004 -0.279,-0.013 0.047,0.719 -0.028,1.41 -0.169,1.914 -0.141,0.506 -0.142,1.258 -0.065,2.161 0.005,-0.011 0.049,0.462 0.054,0.451 0.055,0.295 0.195,0.744 0.503,1.305 0.145,0.263 0.317,0.545 0.551,0.856 0,0 0.936,-3.586 3.914,-5.395 0.859,-0.521 1.879,-0.903 3.105,-0.999 M -5.571,4.727 C -5.563,4.559 -5.574,4.396 -5.58,4.231 -5.637,2.643 -6.308,1.236 -6.834,0.376 l -0.276,1.621 -0.775,4.55 0.066,-6.14 c -0.909,0.741 -2.042,2.042 -2.083,3.976 -0.053,2.514 1.252,3.905 1.87,4.421 0.719,-0.527 2.354,-1.952 2.461,-4.077 M 4.496,7.133 C 4.371,7.185 1.391,8.381 -2.798,6.34 -3.384,6.055 -3.899,5.72 -4.364,5.36 c -0.462,3.05 -3.241,4.696 -3.367,4.768 l -0.325,0.189 -0.321,-0.195 c -0.118,-0.071 -2.878,-1.791 -2.793,-5.766 0.056,-2.663 1.71,-4.334 2.859,-5.179 l -0.209,-0.345 0.031,-0.011 -0.089,-0.075 c -1.127,0.863 -2.531,1.382 -4.06,1.382 -2.151,0 -4.06,-1.021 -5.283,-2.599 -0.001,-10e-4 -0.002,-10e-4 -0.003,-0.002 -0.751,-0.666 -1.18,-2.122 -1.293,-2.552 -0.013,-0.049 -0.023,-0.099 -0.028,-0.15 -0.047,-0.427 -0.265,-2.617 0.06,-3.78 0.239,-0.855 0.073,-2.17 -0.331,-2.607 -0.379,-0.41 -0.361,-1.045 0.039,-1.436 0.2,-0.196 0.46,-0.293 0.721,-0.293 0.26,0 0.52,0.096 0.72,0.29 0.191,0.185 0.853,0.701 1.383,0.63 0.314,-0.04 0.76,-0.148 1.238,-0.266 0.847,-0.388 1.785,-0.61 2.777,-0.61 0.47,0 0.929,0.05 1.371,0.142 0.493,0.073 1.162,0.285 1.717,0.587 0.031,0.016 0.365,0.24 0.392,0.262 1.986,1.207 3.208,3.148 3.208,5.696 0,1.396 -0.429,2.69 -1.16,3.762 l 1.118,0.883 c 0.68,-0.13 1.497,-0.237 2.383,-0.237 1.372,0 2.893,0.254 4.255,1.061 3.591,2.127 4.212,7.347 4.236,7.568 L 4.935,6.95 Z" /></g></g></g></g></svg>