<?xml version="1.0" encoding="utf-8"?>
<!-- Generator: Adobe Illustrator 18.1.1, SVG Export Plug-In . SVG Version: 6.00 Build 0)  -->
<!DOCTYPE svg PUBLIC "-//W3C//DTD SVG 1.1//EN" "http://www.w3.org/Graphics/SVG/1.1/DTD/svg11.dtd">
<svg version="1.1" id="Layer_1" xmlns="http://www.w3.org/2000/svg" xmlns:xlink="http://www.w3.org/1999/xlink" x="0px" y="0px"
	 viewBox="0 0 100 100" enable-background="new 0 0 100 100" xml:space="preserve">
<g>
	<path fill="#2C4351" d="M12,60.8v2.7c0,11.2,6.3,20.9,15.5,25.8c-1.8,1.7-3,4.2-3,7.6c0,1.8,1.4,3.2,3.2,3.2c1.8,0,3.2-1.4,3.2-3.2
		c0-3.9,3.6-4.5,4.7-4.5c0.2,0,0.4,0,0.6-0.1c1.7,0.3,3.4,0.5,5.2,0.5h25.3c1.5,0,2.9-0.1,4.3-0.4c0.1,0,0.2,0,0.3,0
		c1.1,0.1,4.7,0.6,4.7,4.5c0,1.8,1.4,3.2,3.2,3.2s3.2-1.4,3.2-3.2c0-3.6-1.4-6.2-3.4-7.9c5.8-3.9,9.5-10.5,9.5-18v-5
		c-3,0.1-6.1,0.1-9.2,0.1C49.4,66,18.4,61.7,12,60.8z"/>
	<path fill="#2C4351" d="M87.5,57.7c-3.6,0.1-7.3,0.2-11,0.1V40.1c0-5.1-4-9.2-8.9-9.2c-4.9,0-8.9,4.1-8.9,9.2h4.1
		c0-2.7,2.1-4.9,4.7-4.9c2.6,0,4.7,2.2,4.7,4.9v17.7c-30.3-0.6-60.7-5.2-61.1-5.2c-1.4-0.2-2.7,0.7-2.9,2.1
		c-0.2,1.4,0.7,2.7,2.1,2.9C10.9,57.7,46,63,78.6,63c3.1,0,6.1,0,9.1-0.1c1.4,0,2.5-1.2,2.5-2.6C90.1,58.8,88.8,57.7,87.5,57.7z"/>
	<circle fill="#2C4351" cx="67.9" cy="51.9" r="2.4"/>
	<circle fill="#2C4351" cx="80.8" cy="51.8" r="2.4"/>
</g>
</svg>
