<?xml version="1.0" encoding="UTF-8" standalone="no"?>
<svg
   xmlns:dc="http://purl.org/dc/elements/1.1/"
   xmlns:cc="http://creativecommons.org/ns#"
   xmlns:rdf="http://www.w3.org/1999/02/22-rdf-syntax-ns#"
   xmlns:svg="http://www.w3.org/2000/svg"
   xmlns="http://www.w3.org/2000/svg"
   viewBox="0 0 33.333332 33.333332"
   height="33.333332"
   width="33.333332"
   xml:space="preserve"
   id="svg2"
   version="1.1"><metadata
     id="metadata8"><rdf:RDF><cc:Work
         rdf:about=""><dc:format>image/svg+xml</dc:format><dc:type
           rdf:resource="http://purl.org/dc/dcmitype/StillImage" /></cc:Work></rdf:RDF></metadata><defs
     id="defs6"><clipPath
       id="clipPath18"
       clipPathUnits="userSpaceOnUse"><path
         id="path16"
         d="M 0,25 H 25 V 0 H 0 Z" /></clipPath></defs><g
     transform="matrix(1.3333333,0,0,-1.3333333,0,33.333333)"
     id="g10"><g
       id="g12"><g
         clip-path="url(#2C4351th18)"
         id="g14"><g
           transform="translate(4.9925,23.9099)"
           id="g20"><path
             id="path22"
             style="fill:#2C4351;fill-opacity:1;fill-rule:nonzero;stroke:none"
             d="m 0,0 c 0,-0.602 0.488,-1.09 1.09,-1.09 h 4.451 c 0.602,0 1.09,0.488 1.09,1.09 0,0.602 -0.488,1.09 -1.09,1.09 H 1.09 C 0.488,1.09 0,0.602 0,0" /></g><g
           transform="translate(14.8942,22.8198)"
           id="g24"><path
             id="path26"
             style="fill:#2C4351;fill-opacity:1;fill-rule:nonzero;stroke:none"
             d="m 0,0 h 4.451 c 0.602,0 1.09,0.488 1.09,1.09 0,0.602 -0.488,1.09 -1.09,1.09 H 0 C -0.602,2.18 -1.09,1.692 -1.09,1.09 -1.09,0.488 -0.602,0 0,0" /></g><g
           transform="translate(18.6232,17.0461)"
           id="g28"><path
             id="path30"
             style="fill:#2C4351;fill-opacity:1;fill-rule:nonzero;stroke:none"
             d="m 0,0 c -0.644,0 -1.166,0.522 -1.166,1.166 0,0.645 0.522,1.167 1.166,1.167 0.644,0 1.166,-0.522 1.166,-1.167 C 1.166,0.522 0.644,0 0,0 m -4.082,0 c -0.644,0 -1.166,0.522 -1.166,1.166 0,0.645 0.522,1.167 1.166,1.167 0.644,0 1.166,-0.522 1.166,-1.167 C -2.916,0.522 -3.438,0 -4.082,0 m -4.082,0 c -0.644,0 -1.167,0.522 -1.167,1.166 0,0.645 0.523,1.167 1.167,1.167 0.644,0 1.166,-0.522 1.166,-1.167 C -6.998,0.522 -7.52,0 -8.164,0 m -4.082,0 c -0.645,0 -1.167,0.522 -1.167,1.166 0,0.645 0.522,1.167 1.167,1.167 0.644,0 1.166,-0.522 1.166,-1.167 C -11.08,0.522 -11.602,0 -12.246,0 M 3.432,1.366 c 0,1.475 -1.196,2.671 -2.672,2.671 h -13.767 c -1.475,0 -2.671,-1.196 -2.671,-2.671 v -2.677 h 19.11 z" /></g><g
           transform="translate(6.5916,13.2691)"
           id="g32"><path
             id="path34"
             style="fill:#2C4351;fill-opacity:1;fill-rule:nonzero;stroke:none"
             d="m 0,0 h 11.817 c 0.333,0 0.603,-0.27 0.603,-0.603 0,-0.334 -0.27,-0.604 -0.603,-0.604 L 0,-1.207 c -0.333,0 -0.603,0.27 -0.603,0.604 C -0.603,-0.27 -0.333,0 0,0 m 12.057,-8.665 c 0,-0.884 -0.717,-1.6 -1.601,-1.6 H 1.36 c -0.883,0 -1.6,0.716 -1.6,1.6 v 3.825 c 0,0.884 0.717,1.6 1.6,1.6 h 9.096 c 0.884,0 1.601,-0.716 1.601,-1.6 z m -13.032,-4.604 h 13.767 c 1.475,0 2.671,1.196 2.671,2.671 V 1.616 H -3.646 v -12.214 c 0,-1.475 1.195,-2.671 2.671,-2.671" /></g></g></g></g></svg>