<?xml version="1.0" encoding="utf-8"?>
<!-- Generator: Adobe Illustrator 18.1.1, SVG Export Plug-In . SVG Version: 6.00 Build 0)  -->
<!DOCTYPE svg PUBLIC "-//W3C//DTD SVG 1.1//EN" "http://www.w3.org/Graphics/SVG/1.1/DTD/svg11.dtd">
<svg version="1.1" id="Layer_1" xmlns="http://www.w3.org/2000/svg" xmlns:xlink="http://www.w3.org/1999/xlink" x="0px" y="0px"
	 viewBox="0 0 50 50" enable-background="new 0 0 50 50" xml:space="preserve">
<g>
	<path fill="#2C4351" d="M31.9,16.9c2.4-0.8,3.1-2.6,2.3-4.8c-0.8-2.2-2.4-3.1-4.8-2.2c-2.4,0.8-3.1,2.5-2.3,4.8
		C27.9,16.9,29.6,17.8,31.9,16.9z"/>
	<circle fill="#2C4351" cx="6.3" cy="40.6" r="1.2"/>
	<circle fill="#2C4351" cx="9.3" cy="44" r="1.1"/>
	<circle fill="#2C4351" cx="11.2" cy="40.1" r="1.6"/>
	<path fill="#2C4351" d="M44.3,19.9c-1.3-1.1-6.8-3.1-6.8-3.1s-1.1-0.3-2.4,0.1c-1.7,0.5-3.6,1.4-3.6,1.4s-0.7,0.7-1.1,1.3l-2.9,13
		c0,0-0.7,1.7,0.4,2.6l-4.3,3.3l1,1.2l8.1-6.2c-0.4,3.1-3.8,13.3-3.8,13.3s-0.4,2.5,1.4,2.9c1.8,0.4,2.6-1.5,2.6-1.5L36.5,38
		l-0.1,9.7c0,0-0.2,2.3,2.2,2.2c2.4-0.1,2.1-2.7,2.1-2.7l0.2-14.5c0,0-0.1-1.9-0.4-4.3l3.8-5.2C44.2,23.2,45.6,21.1,44.3,19.9z
		 M31.4,32.6l1.1-4.6c0,0,0.2,1.7,0.2,3.6L31.4,32.6z M39.8,24c-0.2-1.2-0.5-2.3-0.9-3.1l2.2,1.1L39.8,24z"/>
	<path fill="#2C4351" d="M22.6,39.3l-10.1,5.5c0,0,1.5,2.4,4,3.9l3.1-3.8L18,49.5c0.8,0.3,1.6,0.5,2.5,0.5c0,0,0.1-6.2,3.4-9.2
		L22.6,39.3z"/>
</g>
</svg>
