<?xml version="1.0" encoding="UTF-8" standalone="no"?>
<svg
   xmlns:dc="http://purl.org/dc/elements/1.1/"
   xmlns:cc="http://creativecommons.org/ns#"
   xmlns:rdf="http://www.w3.org/1999/02/22-rdf-syntax-ns#"
   xmlns:svg="http://www.w3.org/2000/svg"
   xmlns="http://www.w3.org/2000/svg"
   viewBox="0 0 33.333332 33.333332"
   height="33.333332"
   width="33.333332"
   xml:space="preserve"
   id="svg2"
   version="1.1"><metadata
     id="metadata8"><rdf:RDF><cc:Work
         rdf:about=""><dc:format>image/svg+xml</dc:format><dc:type
           rdf:resource="http://purl.org/dc/dcmitype/StillImage" /></cc:Work></rdf:RDF></metadata><defs
     id="defs6"><clipPath
       id="clipPath18"
       clipPathUnits="userSpaceOnUse"><path
         id="path16"
         d="M 0,25 H 25 V 0 H 0 Z" /></clipPath></defs><g
     transform="matrix(1.3333333,0,0,-1.3333333,0,33.333333)"
     id="g10"><g
       id="g12"><g
         clip-path="url(#2C4351th18)"
         id="g14"><path
           id="path20"
           style="fill:#2C4351;fill-opacity:1;fill-rule:nonzero;stroke:none"
           d="M 10,7 H 5 v 5 h 5 z m 14.56,10.301 -11.654,6.453 c -0.247,0.137 -0.551,0.137 -0.798,0 L 0.443,17.301 C 0.183,17.157 0,16.883 0,16.586 V 16.365 C 0,15.742 0.842,15.348 1.387,15.65 L 2,15.894 V 1.703 C 2,1.251 2.059,1 2.51,1 H 2.622 2.736 14 V 2.056 2.746 13 h 6 V 2.746 2.103 1 h 2.264 0.11 0.116 C 22.941,1 23,1.251 23,1.703 V 15.894 L 23.613,15.65 C 24.158,15.348 25,15.742 25,16.365 v 0.221 c 0,0.297 -0.18,0.571 -0.44,0.715" /></g></g></g></svg>