<?xml version="1.0" encoding="utf-8"?>
<!-- Generator: Adobe Illustrator 18.1.1, SVG Export Plug-In . SVG Version: 6.00 Build 0)  -->
<!DOCTYPE svg PUBLIC "-//W3C//DTD SVG 1.1//EN" "http://www.w3.org/Graphics/SVG/1.1/DTD/svg11.dtd">
<svg version="1.1" id="Layer_1" xmlns="http://www.w3.org/2000/svg" xmlns:xlink="http://www.w3.org/1999/xlink" x="0px" y="0px"
	 viewBox="0 0 100 100" enable-background="new 0 0 100 100" xml:space="preserve">
<g>
	<path fill="#2C4351" d="M93.2,87c-0.8-10.5-6.8-13.8-17.3-14.9c-2-7.5-9.1-12.6-21.1-12.6c-14,0-33.2,4.6-36.1,27.5
		c-1.3,0-2.3,1.1-2.3,2.3v1.3c0,1.2,1,2.2,2.3,2.2h6c0.7,4.7,3.7,7.2,8.5,7.2c4.9,0,8.2-2.5,8.6-7.2h29.1c0.6,4.7,3.7,7.2,8.5,7.2
		c4.9,0,8.1-2.5,8.5-7.2h5.2c1.3,0,2.3-1,2.3-2.2v-1.3C95.5,88,94.5,87,93.2,87z M33.3,94.7c-2.1,0-3.4-1.1-3.4-3.5
		c0-2.2,1.3-3.5,3.4-3.5c2.2,0,3.5,1.3,3.5,3.5C36.8,93.5,35.5,94.7,33.3,94.7z M52.7,71.2c0,0.6-0.5,1.1-1.1,1.1H37.3
		c-1.1,0-1.9-0.8-1.9-1.9c0-0.6,0.2-1,0.5-1.5c2.7-4.1,9.9-5.7,15.6-5.7c0.7,0,1.1,0.5,1.1,1.2V71.2z M69.7,72.4H57.5
		c-0.7,0-1.2-0.5-1.2-1.1v-6.8c0-0.7,0.5-1.2,1.2-1.2c5.4,0,10.8,1.8,13,7.1c0.2,0.3,0.3,0.6,0.3,0.9C70.9,71.8,70.3,72.4,69.7,72.4
		z M79.5,94.7c-2.1,0-3.4-1.1-3.4-3.5c0-2.2,1.4-3.5,3.4-3.5c2.1,0,3.4,1.3,3.4,3.5C82.9,93.5,81.6,94.7,79.5,94.7z"/>
	<path fill="#2C4351" d="M25,20.3c-1.4,0-2.4,0.1-2.9,0.2v9.3c0.7,0.2,1.5,0.2,2.6,0.2c3.7,0,6-1.8,6-5.1
		C30.7,21.8,28.5,20.3,25,20.3z"/>
	<path fill="#2C4351" d="M47.9,30.5c0-12-9.7-21.7-21.7-21.7c-12,0-21.7,9.7-21.7,21.7c0,12,9.7,21.7,21.7,21.7
		C38.1,52.2,47.9,42.5,47.9,30.5z M22.1,32.4V42H19V18.3c1.5-0.2,3.4-0.5,5.9-0.5c3.1,0,5.3,0.7,6.7,2c1.3,1.1,2.1,2.9,2.1,5
		c0,2.2-0.6,3.9-1.8,5.1c-1.6,1.7-4.3,2.6-7.3,2.6C23.7,32.6,22.8,32.6,22.1,32.4z"/>
</g>
</svg>
