<?xml version="1.0" encoding="utf-8"?>
<!-- Generator: Adobe Illustrator 18.1.1, SVG Export Plug-In . SVG Version: 6.00 Build 0)  -->
<!DOCTYPE svg PUBLIC "-//W3C//DTD SVG 1.1//EN" "http://www.w3.org/Graphics/SVG/1.1/DTD/svg11.dtd">
<svg version="1.1" id="Layer_1" xmlns="http://www.w3.org/2000/svg" xmlns:xlink="http://www.w3.org/1999/xlink" x="0px" y="0px"
	 viewBox="0 0 100 100" enable-background="new 0 0 100 100" xml:space="preserve">
<g>
	<path fill="#2C4351" d="M26.2,35.4c2.2,0,4.2-2.1,5.9-3v0c1.8,0.9,3.8,3,5.9,3c2.2,0,4.2-2.1,5.9-3v0c1.8,0.9,3.8,3,5.9,3
		c0.9,0,1.8-0.4,2.7-0.9l0.9-7.1c-1.1,0.8-2.4,1.5-3.6,1.5c-2.2,0-4.2-2.6-5.9-3.5c-1.8,0.9-3.8,3.5-5.9,3.5c-2.2,0-4.2-2.6-5.9-3.5
		c-1.8,0.9-3.8,3.5-5.9,3.5c-1.4,0-2.7-0.9-4-1.7l1,7.2C24.2,34.9,25.1,35.4,26.2,35.4z"/>
	<path fill="#2C4351" d="M91.3,96L82,78.5V64.3l3.6,2.8l0,6.5c0,1.3,1.1,2.4,2.4,2.4c0,0,0,0,0,0c1.3,0,2.4-1.1,2.4-2.4l0-8.8
		l-8.4-6.7c-0.2-0.2-0.5-0.3-0.7-0.4c-0.1-0.1-0.2-0.1-0.4-0.1h-7.6c-0.1,0-0.2,0-0.3,0.1c-0.6,0.1-1.2,0.5-1.6,1.1l-9.5,14.9
		c-0.7,1.1-0.4,2.6,0.7,3.3c0.4,0.3,0.8,0.4,1.3,0.4c0.8,0,1.6-0.4,2-1.1l6.4-10.1v10.9L60.6,95.3c-0.8,1.3-0.4,2.9,0.8,3.7
		c0.5,0.3,1,0.4,1.5,0.4c0.9,0,1.8-0.4,2.3-1.3l11.6-18.1h0l9.8,18.4c0.5,0.9,1.4,1.4,2.4,1.4c0.4,0,0.9-0.1,1.3-0.3
		C91.5,99,92,97.3,91.3,96z"/>
	<circle fill="#2C4351" cx="75.3" cy="51.4" r="4.3"/>
	<polygon fill="#2C4351" points="57.7,20 50.8,72.7 25.3,72.7 18.1,20 12.9,20 20.9,77.8 55.3,77.8 62.8,20 	"/>
</g>
</svg>
