<?xml version="1.0" encoding="UTF-8" standalone="no"?>
<svg
   xmlns:dc="http://purl.org/dc/elements/1.1/"
   xmlns:cc="http://creativecommons.org/ns#"
   xmlns:rdf="http://www.w3.org/1999/02/22-rdf-syntax-ns#"
   xmlns:svg="http://www.w3.org/2000/svg"
   xmlns="http://www.w3.org/2000/svg"
   viewBox="0 0 33.333332 33.333332"
   height="33.333332"
   width="33.333332"
   xml:space="preserve"
   id="svg2"
   version="1.1"><metadata
     id="metadata8"><rdf:RDF><cc:Work
         rdf:about=""><dc:format>image/svg+xml</dc:format><dc:type
           rdf:resource="http://purl.org/dc/dcmitype/StillImage" /></cc:Work></rdf:RDF></metadata><defs
     id="defs6"><clipPath
       id="clipPath18"
       clipPathUnits="userSpaceOnUse"><path
         id="path16"
         d="M 0,25 H 25 V 0 H 0 Z" /></clipPath></defs><g
     transform="matrix(1.3333333,0,0,-1.3333333,0,33.333333)"
     id="g10"><g
       id="g12"><g
         clip-path="url(#2C4351th18)"
         id="g14"><g
           transform="translate(23.9616,17.5728)"
           id="g20"><path
             id="path22"
             style="fill:#2C4351;fill-opacity:1;fill-rule:nonzero;stroke:none"
             d="m 0,0 -11.141,6.202 c -0.23,0.115 -0.517,0.115 -0.746,0 L -23.028,0 c -0.23,-0.115 -0.402,-0.402 -0.402,-0.689 v -0.23 c 0,-0.574 0.631,-0.976 1.148,-0.689 l 0.402,0.23 v -15.448 c 0,-0.402 0.345,-0.747 0.804,-0.747 h 0.23 c 0.459,0 0.804,0.345 0.804,0.804 v 16.31 0.114 l 8.155,4.537 c 0.229,0.115 0.516,0.115 0.746,0 l 8.212,-4.537 v -0.114 -16.31 c 0,-0.459 0.345,-0.804 0.804,-0.804 h 0.23 c 0.459,0 0.804,0.345 0.804,0.804 v 15.448 l 0.402,-0.23 c 0.517,-0.287 1.148,0.115 1.148,0.69 v 0.229 C 0.402,-0.402 0.287,-0.115 0,0" /></g><g
           transform="translate(17.5872,5.111)"
           id="g24"><path
             id="path26"
             style="fill:#2C4351;fill-opacity:1;fill-rule:nonzero;stroke:none"
             d="m 0,0 h -10.337 c -1.091,0 -2.01,-0.919 -2.01,-2.01 0,-1.091 0.919,-2.01 2.01,-2.01 H 0 c 1.091,0 2.01,0.919 2.01,2.01 C 2.01,-0.919 1.149,0 0,0" /></g></g></g></g></svg>