<?xml version="1.0" encoding="UTF-8" standalone="no"?>
<svg
   xmlns:dc="http://purl.org/dc/elements/1.1/"
   xmlns:cc="http://creativecommons.org/ns#"
   xmlns:rdf="http://www.w3.org/1999/02/22-rdf-syntax-ns#"
   xmlns:svg="http://www.w3.org/2000/svg"
   xmlns="http://www.w3.org/2000/svg"
   viewBox="0 0 33.333332 33.333332"
   height="33.333332"
   width="33.333332"
   xml:space="preserve"
   id="svg2"
   version="1.1"><metadata
     id="metadata8"><rdf:RDF><cc:Work
         rdf:about=""><dc:format>image/svg+xml</dc:format><dc:type
           rdf:resource="http://purl.org/dc/dcmitype/StillImage" /></cc:Work></rdf:RDF></metadata><defs
     id="defs6"><clipPath
       id="clipPath18"
       clipPathUnits="userSpaceOnUse"><path
         id="path16"
         d="M 0,25 H 25 V 0 H 0 Z" /></clipPath></defs><g
     transform="matrix(1.3333333,0,0,-1.3333333,0,33.333333)"
     id="g10"><g
       id="g12"><g
         clip-path="url(#2C4351th18)"
         id="g14"><g
           transform="translate(17.9248,22.7803)"
           id="g20"><path
             id="path22"
             style="fill:#2C4351;fill-opacity:1;fill-rule:nonzero;stroke:none"
             d="m 0,0 c 0.265,0 0.486,0.221 0.486,0.486 0,0.495 0.336,0.742 0.83,0.742 0.566,0 0.892,-0.247 0.892,-0.68 0,-0.937 -1.713,-1.007 -1.713,-2.12 0,-0.248 0.088,-0.522 0.327,-0.751 0.088,-0.089 0.203,-0.142 0.344,-0.142 0.221,0 0.477,0.177 0.477,0.477 0,0.097 -0.026,0.186 -0.079,0.265 -0.062,0.089 -0.088,0.141 -0.088,0.212 0,0.531 1.687,0.636 1.687,2.059 0,0.989 -0.681,1.546 -1.847,1.546 -1.13,0 -1.802,-0.601 -1.802,-1.608 C -0.486,0.221 -0.265,0 0,0" /></g><g
           transform="translate(19.0645,19.9004)"
           id="g24"><path
             id="path26"
             style="fill:#2C4351;fill-opacity:1;fill-rule:nonzero;stroke:none"
             d="m 0,0 c -0.371,0 -0.583,-0.194 -0.583,-0.592 0,-0.389 0.212,-0.575 0.583,-0.575 0.371,0 0.574,0.186 0.574,0.575 C 0.574,-0.194 0.371,0 0,0" /></g><g
           transform="translate(18.8966,9.4412)"
           id="g28"><path
             id="path30"
             style="fill:#2C4351;fill-opacity:1;fill-rule:nonzero;stroke:none"
             d="m 0,0 c 0.088,-0.088 0.23,-0.088 0.318,0 l 3.05,4.13 C 3.509,4.271 3.409,4.559 3.209,4.559 H 1.388 L 1.297,8.074 C 1.292,8.241 1.156,8.559 0.99,8.559 h -1.661 c -0.166,0 -0.302,-0.318 -0.306,-0.485 L -1.069,4.559 h -1.822 c -0.2,0 -0.301,-0.288 -0.159,-0.429 z" /></g><g
           transform="translate(7.4515,14.8998)"
           id="g32"><path
             id="path34"
             style="fill:#2C4351;fill-opacity:1;fill-rule:nonzero;stroke:none"
             d="M 0,0 C 0.995,-0.002 1.494,0.557 1.495,1.49 1.497,2.422 1.001,2.962 0.006,2.964 -0.989,2.966 -1.488,2.428 -1.49,1.495 -1.491,0.562 -0.995,0.002 0,0" /></g><g
           transform="translate(23.5454,8)"
           id="g36"><path
             id="path38"
             style="fill:#2C4351;fill-opacity:1;fill-rule:nonzero;stroke:none"
             d="M 0,0 H -8.421 L -8.759,1.22 C -8.883,1.643 -9.276,2 -9.716,2 h -0.871 c 0.013,0 0.033,0.254 0.034,0.308 0.007,0.39 -0.303,0.791 -0.693,0.798 l -2.511,0.087 c -0.449,0.722 -1.493,2.419 -1.56,2.53 -0.052,0.084 -0.118,0.163 -0.194,0.216 -0.205,0.258 -0.491,0.458 -0.837,0.537 -0.811,0.184 -1.613,-0.324 -1.796,-1.132 l -1.104,-4.895 c -0.005,-0.022 -0.004,-0.044 -0.008,-0.066 l -0.769,-3.69 -1.988,-2.964 c -0.313,-0.465 -0.188,-1.097 0.278,-1.409 0.173,-0.117 0.37,-0.173 0.565,-0.173 0.327,0 0.649,0.159 0.844,0.451 l 2.098,3.128 c 0.073,0.109 0.124,0.231 0.151,0.358 l 0.513,2.459 1.979,-2.082 0.438,-3.568 c 0.063,-0.516 0.501,-0.893 1.006,-0.893 0.042,0 0.083,0.002 0.125,0.008 0.558,0.068 0.953,0.575 0.885,1.132 l -0.478,3.901 c -0.027,0.216 -0.122,0.418 -0.272,0.576 l -2.366,2.489 0.737,3.268 c 0.396,-0.636 0.756,-1.214 0.756,-1.214 l 0.202,-0.326 2.323,-0.045 C -12.235,1.755 -12.25,1.692 -12.25,1.656 -12.25,1.311 -11.97,1 -11.625,1 h 1.719 l 1.853,-6.313 C -7.93,-5.736 -7.536,-6 -7.096,-6 h 4.908 c 0.346,0 0.626,0.155 0.626,0.5 0,0.345 -0.28,0.5 -0.626,0.5 h -4.718 l -0.3,1.15 6.331,0.756 z" /></g><g
           transform="translate(16.6143,1.6461)"
           id="g40"><path
             id="path42"
             style="fill:#2C4351;fill-opacity:1;fill-rule:nonzero;stroke:none"
             d="m 0,0 c -0.446,0 -0.808,-0.362 -0.808,-0.808 0,-0.446 0.362,-0.808 0.808,-0.808 0.446,0 0.808,0.362 0.808,0.808 C 0.808,-0.362 0.446,0 0,0" /></g><g
           transform="translate(20.539,1.6461)"
           id="g44"><path
             id="path46"
             style="fill:#2C4351;fill-opacity:1;fill-rule:nonzero;stroke:none"
             d="m 0,0 c -0.446,0 -0.808,-0.362 -0.808,-0.808 0,-0.446 0.362,-0.808 0.808,-0.808 0.446,0 0.808,0.362 0.808,0.808 C 0.808,-0.362 0.446,0 0,0" /></g></g></g></g></svg>