<?xml version="1.0" encoding="utf-8"?>
<!-- Generator: Adobe Illustrator 18.1.1, SVG Export Plug-In . SVG Version: 6.00 Build 0)  -->
<!DOCTYPE svg PUBLIC "-//W3C//DTD SVG 1.1//EN" "http://www.w3.org/Graphics/SVG/1.1/DTD/svg11.dtd">
<svg version="1.1" id="Layer_1" xmlns="http://www.w3.org/2000/svg" xmlns:xlink="http://www.w3.org/1999/xlink" x="0px" y="0px"
	 viewBox="0 0 100 100" enable-background="new 0 0 100 100" xml:space="preserve">
<g>
	<path fill="#2C4351" d="M81.5,19.4c-8.7,3-13.4,13.3-17.8,20.6c-5.1,8.6-6.8,17.6-13,25.4c-2.1,2.6-4.4,4.9-7.8,5.7
		c-2.4,0.5-7.6,0.5-10,1.2c-5.3,1.4-10.8,4.6-12.6,10c-1.8,5.6,5.4,6,9.4,5.9c7.5-0.1,15.1-2.7,21.1-7.1c4.8-3.6,7.9-13.4,10.8-18.5
		c4.6-8.3,10.2-16.9,17.2-23.5c3.6-3.4,12.3-8.3,12.1-14.1C90.8,20.2,85.4,18.1,81.5,19.4z M84.7,28.4c-1.6,0.4-3.2-0.6-3.5-2.2
		c-0.4-1.6,0.6-3.2,2.2-3.5c1.6-0.4,3.2,0.6,3.5,2.2C87.3,26.5,86.3,28.1,84.7,28.4z"/>
	<path fill="#2C4351" d="M34.2,69.5c1.3,0,2.4-1.1,2.4-2.4v-4.5c0-1.3-1.1-2.4-2.4-2.4c-1.3,0-2.4,1.1-2.4,2.4v4.5
		C31.8,68.4,32.9,69.5,34.2,69.5z"/>
	<path fill="#2C4351" d="M25,69.7c0.3,1,1.3,1.6,2.3,1.6c0.3,0,0.5,0,0.8-0.1c1.3-0.4,1.9-1.8,1.5-3l-1.4-4.3
		c-0.4-1.3-1.8-1.9-3-1.5c-1.3,0.4-1.9,1.8-1.5,3L25,69.7z"/>
	<path fill="#2C4351" d="M20.1,74.5c0.5,0.5,1.1,0.7,1.7,0.7c0.6,0,1.2-0.2,1.7-0.7c0.9-0.9,1-2.5,0-3.4l-3.2-3.2
		c-0.9-0.9-2.5-1-3.4,0c-0.9,0.9-1,2.5,0,3.4L20.1,74.5z"/>
	<path fill="#2C4351" d="M11.8,77.9l4,2.2c0.4,0.2,0.8,0.3,1.1,0.3c0.9,0,1.7-0.5,2.1-1.3c0.6-1.2,0.2-2.6-1-3.3l-4-2.2
		c-1.2-0.6-2.6-0.2-3.3,1C10.2,75.8,10.6,77.2,11.8,77.9z"/>
	<path fill="#2C4351" d="M18.3,84.3c-0.1-1.3-1.3-2.3-2.7-2.1l-4.5,0.5c-1.3,0.1-2.3,1.3-2.1,2.7c0.1,1.2,1.2,2.1,2.4,2.1
		c0.1,0,0.2,0,0.3,0l4.5-0.5C17.5,86.9,18.5,85.7,18.3,84.3z"/>
	<path fill="#2C4351" d="M20.1,88.7c-1.1-0.8-2.6-0.5-3.4,0.5l-2.7,3.6c-0.8,1.1-0.5,2.6,0.5,3.4c0.4,0.3,0.9,0.5,1.4,0.5
		c0.7,0,1.5-0.3,1.9-1l2.7-3.6C21.4,91,21.2,89.5,20.1,88.7z"/>
	<path fill="#2C4351" d="M26.6,90.8c-1.3-0.2-2.6,0.6-2.8,1.9L23,97.2c-0.2,1.3,0.6,2.6,1.9,2.8c0.1,0,0.3,0,0.4,0
		c1.1,0,2.2-0.8,2.4-2l0.8-4.4C28.8,92.3,27.9,91,26.6,90.8z"/>
	<path fill="#2C4351" d="M35.5,92.4c-0.1-1.3-1.3-2.3-2.6-2.1c-1.3,0.1-2.3,1.3-2.1,2.6l0.5,4.5c0.1,1.2,1.2,2.2,2.4,2.2
		c0.1,0,0.2,0,0.3,0c1.3-0.1,2.3-1.3,2.1-2.6L35.5,92.4z"/>
	<path fill="#2C4351" d="M42.7,91c-0.3-1.3-1.7-2.1-2.9-1.7c-1.3,0.3-2.1,1.7-1.7,2.9l1.1,4.4c0.3,1.1,1.3,1.8,2.3,1.8
		c0.2,0,0.4,0,0.6-0.1c1.3-0.3,2.1-1.7,1.7-2.9L42.7,91z"/>
	<path fill="#2C4351" d="M49.2,88.4c-0.5-1.2-1.9-1.8-3.2-1.3c-1.2,0.5-1.8,1.9-1.3,3.2l1.8,4.1c0.4,0.9,1.3,1.5,2.2,1.5
		c0.3,0,0.6-0.1,1-0.2c1.2-0.5,1.8-1.9,1.3-3.2L49.2,88.4z"/>
</g>
</svg>
