<?xml version="1.0" encoding="utf-8"?>
<!-- Generator: Adobe Illustrator 19.2.1, SVG Export Plug-In . SVG Version: 6.00 Build 0)  -->
<svg version="1.1" id="Lager_1" xmlns="http://www.w3.org/2000/svg" xmlns:xlink="http://www.w3.org/1999/xlink" x="0px" y="0px"
	 viewBox="0 0 25 25" style="enable-background:new 0 0 25 25;" xml:space="preserve">
<style type="text/css">
	.st0{fill:#2C4351;}
</style>
<g>
	<path class="st0" d="M24.3,15c-0.3-0.9-0.9-2.7-2.1-6.4c0-0.1-0.1-0.2-0.1-0.3c-0.7-1.5-3.9-3-9.5-3C6.8,5.3,3.6,6.9,3,8.4
		c0,0,0,0.1,0,0.1c0,0,0,0,0,0c-1.2,3.8-1.8,5.6-2.1,6.5c-0.3,1-0.4,1.1-0.4,1.5c0,1.5,1.3,2.6,4,3.4c2.2,0.7,5.1,1,8.1,1
		c3.1,0,5.9-0.4,8.1-1c2.7-0.8,4-1.9,4-3.4C24.6,16.2,24.6,16.1,24.3,15L24.3,15z M19.7,8.8c-1.2,0.7-3.5,1.6-7.1,1.6
		c-3.6,0-5.9-0.9-7.1-1.6c1.1-0.6,3.3-1.3,7.1-1.3C16.4,7.5,18.6,8.2,19.7,8.8L19.7,8.8z M19.8,17.9c-2,0.5-4.6,0.8-7.3,0.8
		c-2.7,0-5.3-0.3-7.3-0.8c-2.2-0.6-2.8-1.2-3-1.4c0-0.1,0.1-0.4,0.2-0.6c0.3-0.8,0.8-2.3,1.7-5.3c1.3,0.8,4,2,8.3,2
		c4.3,0,7-1.2,8.3-2c1,3,1.5,4.5,1.7,5.3c0.1,0.3,0.2,0.5,0.2,0.6C22.6,16.7,22,17.3,19.8,17.9L19.8,17.9z M19.8,17.9"/>
</g>
</svg>
