<?xml version="1.0" encoding="utf-8"?>
<!-- Generator: Adobe Illustrator 18.1.1, SVG Export Plug-In . SVG Version: 6.00 Build 0)  -->
<!DOCTYPE svg PUBLIC "-//W3C//DTD SVG 1.1//EN" "http://www.w3.org/Graphics/SVG/1.1/DTD/svg11.dtd">
<svg version="1.1" id="Layer_1" xmlns="http://www.w3.org/2000/svg" xmlns:xlink="http://www.w3.org/1999/xlink" x="0px" y="0px"
	 viewBox="0 0 100 100" enable-background="new 0 0 100 100" xml:space="preserve">
<g>
	<path fill="#2C4351" d="M94.3,83.6l-5.4-26.4c-0.4-2.2-2.3-3.8-4.5-3.8H15.2c-2.2,0-4.1,1.6-4.5,3.8l-5,26.4
		c-0.4,2.5,1.2,4.8,3.7,5.3C11,95.3,16.9,100,23.8,100h52.3c6.9,0,12.8-4.7,14.5-11.1C93.1,88.4,94.8,86.1,94.3,83.6z M40.5,76.7
		c-0.1,1-0.9,1.8-1.9,1.8H16.1c-1.2,0-2.1-1.1-1.9-2.2l2.9-16.9c0.2-0.9,1-1.6,1.9-1.6h20.5c1.1,0,2,0.9,1.9,2L40.5,76.7z M84,78.5
		H46.2c-1.1,0-2-0.9-1.9-2l1-16.9c0.1-1,0.9-1.8,1.9-1.8h34c0.9,0,1.7,0.7,1.9,1.6l2.9,16.9C86.1,77.4,85.2,78.5,84,78.5z"/>
	<path fill="#2C4351" d="M40.3,46.3c0.8-0.3,1.4-1,1.6-1.8l2.2,1.5v4.7h12.3V46l2.3-1.5c0.2,0.8,0.8,1.5,1.6,1.8
		c1.4,0.5,2.9-0.2,3.4-1.5c0.5-1.4-0.2-2.9-1.5-3.4c-0.3-0.1-0.5-0.2-0.8-0.2c0,0,0-0.1-0.1-0.1c0,0,0,0,0-0.1
		c0.5-1.4-0.2-2.9-1.5-3.4c-1.4-0.5-2.9,0.2-3.4,1.5c-0.4,0.9-0.1,2,0.5,2.7L53.5,44h-0.8V24.9c0.1-0.9,1-7.6,6-7.6
		c5.2,0,5.9,5.8,5.9,9.2h5.4c0-10.8-5.9-14.6-11.4-14.6c-8.2,0-11.1,8.3-11.4,12.7l0,19.5H47l-3.3-2.2c0.6-0.7,0.8-1.7,0.5-2.7
		c-0.5-1.4-2-2.1-3.4-1.5c-1.4,0.5-2.1,2-1.5,3.4c0,0,0,0,0,0.1c0,0-0.1,0.1-0.1,0.1c-0.3,0-0.5,0.1-0.8,0.2c-1.4,0.5-2.1,2-1.5,3.4
		C37.4,46.1,38.9,46.8,40.3,46.3z"/>
	<ellipse fill="#2C4351" cx="64.1" cy="75.3" rx="3.6" ry="2.8"/>
	<ellipse fill="#2C4351" cx="30.3" cy="75.3" rx="3.6" ry="2.8"/>
</g>
</svg>
