<?xml version="1.0" encoding="utf-8"?>
<!-- Generator: Adobe Illustrator 18.1.1, SVG Export Plug-In . SVG Version: 6.00 Build 0)  -->
<!DOCTYPE svg PUBLIC "-//W3C//DTD SVG 1.1//EN" "http://www.w3.org/Graphics/SVG/1.1/DTD/svg11.dtd">
<svg version="1.1" id="Layer_1" xmlns="http://www.w3.org/2000/svg" xmlns:xlink="http://www.w3.org/1999/xlink" x="0px" y="0px"
	 viewBox="0 0 50 50" enable-background="new 0 0 50 50" xml:space="preserve">
<g>
	<path fill="#2C4351" d="M43.3,7.7L39.9,11v9.6h-5.7V11l-2.9-3.3L27.9,11v9.6h-5.7V11l-2.9-3.3L15.8,11v9.6h-5.7V11L7.2,7.7L3.7,11
		v28.7h6.3v-4.3h5.7v4.3h6.3v-4.3h5.7v4.3h6.3v-4.3h5.7v4.3h6.3V11L43.3,7.7z M10.1,33.1v-9.9h5.7v9.9H10.1z M22.1,33.1v-9.9h5.7
		v9.9H22.1z M34.2,33.1v-9.9h5.7v9.9H34.2z"/>
	<path fill="#2C4351" d="M32.7,50h3.5c0,0-0.4-5.1,1.4-8.6C37.7,41.4,34,44.4,32.7,50z"/>
	<path fill="#2C4351" d="M17.2,48c-1.6-4.3-4.4-6.7-4.4-6.7c1.8,3.5,1.4,8.6,1.4,8.6h2.3h1.2h1.6c0,0-0.3-4,1.1-6.8
		C20.5,43.2,18.5,44.9,17.2,48z"/>
	<path fill="#2C4351" d="M28.4,50h2.8c0,0-0.3-4,1.1-6.8C32.3,43.2,29.4,45.6,28.4,50z"/>
	<path fill="#2C4351" d="M6.2,43.2c1.4,2.8,1.1,6.8,1.1,6.8H10C9,45.5,6.2,43.2,6.2,43.2z"/>
</g>
</svg>
