<?xml version="1.0" encoding="utf-8"?>
<!-- Generator: Adobe Illustrator 18.1.1, SVG Export Plug-In . SVG Version: 6.00 Build 0)  -->
<!DOCTYPE svg PUBLIC "-//W3C//DTD SVG 1.1//EN" "http://www.w3.org/Graphics/SVG/1.1/DTD/svg11.dtd">
<svg version="1.1" id="Layer_1" xmlns="http://www.w3.org/2000/svg" xmlns:xlink="http://www.w3.org/1999/xlink" x="0px" y="0px"
	 viewBox="0 0 50 50" enable-background="new 0 0 50 50" xml:space="preserve">
<g>
	<path fill="#2C4351" d="M19,14.5V6.6h0v-3c0-0.5-0.4-1-1-1h-3.4c-0.5,0-1,0.4-1,1v3.3h0v7.5c-2.5,0.8-4.3,3.1-4.3,5.9v28.3
		c0,0.7,0.6,1.3,1.3,1.3h11.2c0.7,0,1.3-0.6,1.3-1.3V20.3C23.3,17.6,21.5,15.3,19,14.5z M11,22c0-4.6,3.2-6.2,3.3-6.2
		c0.5-0.2,1,0,1.2,0.4c0.2,0.5,0,1-0.4,1.2c-0.1,0.1-2.3,1.2-2.3,4.6c0,0.5-0.4,0.9-0.9,0.9S11,22.5,11,22z M21,41.8h-9.3V25H21
		V41.8z"/>
	<path fill="#2C4351" d="M34.4,46v-6.4c0.2-1.1,0.6-1.9,3.3-3.9c2.6-1.9,2.5-4.6,2.5-4.6c0-6.2-1.6-9.3-1.6-9.3H28.3
		c0,0-1.6,3.1-1.6,9.3c0,0,0,2.6,2.5,4.6c2.7,2,3.1,2.9,3.3,3.9V46c-0.1,0.3-1.2,2.9-4.9,2.9V50h11.6v-1.1
		C35.7,48.9,34.6,46.4,34.4,46z M31.1,27.4c0,0-1.5,3-0.5,7.2l0,0c-0.1-0.1-0.2-0.2-0.4-0.3c-1.8-1.3-1.8-3.1-1.8-3.1
		c0-3.8,0.6-6.3,1-7.7h8c0.3,0.8,0.6,2.1,0.8,3.9H31.1z"/>
</g>
</svg>
