<?xml version="1.0" encoding="UTF-8" standalone="no"?>
<svg
   xmlns:dc="http://purl.org/dc/elements/1.1/"
   xmlns:cc="http://creativecommons.org/ns#"
   xmlns:rdf="http://www.w3.org/1999/02/22-rdf-syntax-ns#"
   xmlns:svg="http://www.w3.org/2000/svg"
   xmlns="http://www.w3.org/2000/svg"
   viewBox="0 0 33.333332 33.333332"
   height="33.333332"
   width="33.333332"
   xml:space="preserve"
   id="svg2"
   version="1.1"><metadata
     id="metadata8"><rdf:RDF><cc:Work
         rdf:about=""><dc:format>image/svg+xml</dc:format><dc:type
           rdf:resource="http://purl.org/dc/dcmitype/StillImage" /></cc:Work></rdf:RDF></metadata><defs
     id="defs6"><clipPath
       id="clipPath18"
       clipPathUnits="userSpaceOnUse"><path
         id="path16"
         d="M 0,25 H 25 V 0 H 0 Z" /></clipPath></defs><g
     transform="matrix(1.3333333,0,0,-1.3333333,0,33.333333)"
     id="g10"><g
       id="g12"><g
         clip-path="url(#2C4351th18)"
         id="g14"><g
           transform="translate(24.8216,20.1956)"
           id="g20"><path
             id="path22"
             style="fill:#2C4351;fill-opacity:1;fill-rule:nonzero;stroke:none"
             d="m 0,0 c 0,0.295 -0.409,0.273 -0.409,0.273 -1.75,-0.409 -2.313,-2.227 -2.313,-2.227 l -0.296,-4.76 c -0.045,-0.841 0.353,-0.682 0.898,-1.205 0.546,-0.522 0.546,-1.522 0.546,-1.522 l -0.108,-5.626 c 0,-0.296 -0.022,-1.046 0.796,-1.046 0.818,0 0.909,0.682 0.909,0.682 z" /></g><g
           transform="translate(3.9434,19.9199)"
           id="g24"><path
             id="path26"
             style="fill:#2C4351;fill-opacity:1;fill-rule:nonzero;stroke:none"
             d="m 0,0 c -0.221,0 -0.31,-0.373 -0.31,-0.373 -0.022,-0.07 -0.124,-3.408 -0.124,-3.408 0,0 0.029,-0.479 -0.346,-0.479 -0.376,0 -0.367,0.525 -0.367,0.525 l -0.207,3.292 c 0,0 -0.067,0.443 -0.287,0.443 -0.221,0 -0.288,-0.373 -0.288,-0.373 l -0.148,-3.393 c 0,0 0.054,-0.516 -0.404,-0.517 -0.386,-10e-4 -0.386,0.536 -0.386,0.536 l -0.188,3.327 c 0,0 -0.022,0.35 -0.287,0.35 -0.265,0 -0.243,-0.303 -0.243,-0.303 L -3.74,-4.845 c 0,0 0.177,-1.075 1.171,-1.075 h 0.106 l -0.143,-8.778 c 0.009,-0.296 0.006,-1.103 0.937,-1.081 0.931,0.021 1.014,0.791 1.014,0.791 l -0.24,9.068 h 0.336 c 0,0 0.883,-0.021 1.038,0.982 L 0.28,-0.316 C 0.28,-0.316 0.221,0 0,0" /></g><g
           transform="translate(12.7513,20.158)"
           id="g28"><path
             id="path30"
             style="fill:#2C4351;fill-opacity:1;fill-rule:nonzero;stroke:none"
             d="m 0,0 c -4.431,0 -8.022,-3.592 -8.022,-8.022 0,-4.431 3.591,-8.023 8.022,-8.023 4.431,0 8.022,3.592 8.022,8.023 C 8.022,-3.592 4.431,0 0,0" /></g></g></g></g></svg>