<?xml version="1.0" encoding="utf-8"?>
<!-- Generator: Adobe Illustrator 18.1.1, SVG Export Plug-In . SVG Version: 6.00 Build 0)  -->
<!DOCTYPE svg PUBLIC "-//W3C//DTD SVG 1.1//EN" "http://www.w3.org/Graphics/SVG/1.1/DTD/svg11.dtd">
<svg version="1.1" id="Layer_1" xmlns="http://www.w3.org/2000/svg" xmlns:xlink="http://www.w3.org/1999/xlink" x="0px" y="0px"
	 viewBox="0 0 100 100" enable-background="new 0 0 100 100" xml:space="preserve">
<path fill="#2C4351" d="M92,34.8c-2.1,0-3.8,1.7-3.8,3.8v6.8H36.3c0.7-0.8,1.1-1.9,1.1-3c0-2.5-2.1-4.6-4.6-4.6H19.7
	c-2.5,0-4.6,2.1-4.6,4.6c0,1.2,0.4,2.2,1.1,3h-4.4v-6.8c0-2.1-1.7-3.8-3.8-3.8c-2.1,0-3.8,1.7-3.8,3.8v57.6c0,2.1,1.7,3.8,3.8,3.8
	c2.1,0,3.8-1.7,3.8-3.8v-9.8h52.4v9.8c0,2.1,1.7,3.8,3.8,3.8c2.1,0,3.8-1.7,3.8-3.8v-9.8h16.2v9.8c0,2.1,1.7,3.8,3.8,3.8
	s3.8-1.7,3.8-3.8V38.6C95.8,36.5,94.1,34.8,92,34.8z M88.1,62.5H71.9v-7.3h16.2V62.5z M36.3,76.5c0.7-0.8,1.2-1.9,1.2-3.1
	c0-2.5-2.1-4.6-4.6-4.6H19.7c-2.5,0-4.6,2.1-4.6,4.6c0,1.2,0.4,2.2,1.2,3.1h-4.4V55.3h52.4v21.3H36.3z M71.9,76.5v-6.7h16.2v6.7
	H71.9z"/>
</svg>
