<?xml version="1.0" encoding="utf-8"?>
<!-- Generator: Adobe Illustrator 18.1.1, SVG Export Plug-In . SVG Version: 6.00 Build 0)  -->
<!DOCTYPE svg PUBLIC "-//W3C//DTD SVG 1.1//EN" "http://www.w3.org/Graphics/SVG/1.1/DTD/svg11.dtd">
<svg version="1.1" id="Layer_1" xmlns="http://www.w3.org/2000/svg" xmlns:xlink="http://www.w3.org/1999/xlink" x="0px" y="0px"
	 viewBox="0 0 100 100" enable-background="new 0 0 100 100" xml:space="preserve">
<g>
	<path fill="#2C4351" d="M64.5,62.3c-3.5-0.8-7.4,1.6-8.9,5.1c-1.3,3-2.6,6.6-4.9,8.9c-1.5-1.1-2.6-3.3-2.8-4
		c-0.7-2.2,0.2-3.7,1.1-5.8c1.8-3.9,1.4-8.7-4.3-8.5c-4.1,0.2-10,3-10.8,7c-0.8,3.5,1.6,7.4,5.1,8.9c3,1.3,6.6,2.6,8.9,4.9
		c-1.1,1.5-3.3,2.6-4,2.8c-2.2,0.7-3.7-0.2-5.8-1.1c-3.9-1.8-8.7-1.4-8.5,4.3c0.2,4.1,3,10,7,10.8c3.5,0.8,7.4-1.6,8.9-5.1
		c1.3-3,2.6-6.6,4.9-8.9c1.5,1.1,2.6,3.3,2.8,4c0.7,2.2-0.2,3.7-1.1,5.8c-1.8,3.9-1.4,8.7,4.3,8.5c4.1-0.2,10-3,10.8-7
		c0.8-3.5-1.6-7.4-5.1-8.9c-3-1.3-6.6-2.6-8.9-4.9c1.1-1.5,3.3-2.6,4-2.8c2.2-0.7,3.7,0.2,5.8,1.1c3.9,1.8,8.7,1.4,8.5-4.3
		C71.3,69.1,68.5,63.2,64.5,62.3z"/>
	<path fill="#2C4351" d="M73.5,29.1h-7.3V16H34.8v13.1h-7.3c-7.5,7.5-11.6,11.6-19.1,19.1v3.2h84.2v-3.2L73.5,29.1z M69,48.8
		c-1.1,0-1.9-0.9-1.9-1.9c0-1.1,0.9-1.9,1.9-1.9c1.1,0,1.9,0.9,1.9,1.9C70.9,47.9,70.1,48.8,69,48.8z M77.3,48.9
		c-1.1,0-1.9-0.9-1.9-1.9c0-1.1,0.9-1.9,1.9-1.9c1.1,0,1.9,0.9,1.9,1.9C79.2,48,78.4,48.9,77.3,48.9z"/>
</g>
</svg>
