<?xml version="1.0" encoding="utf-8"?>
<!-- Generator: Adobe Illustrator 18.1.1, SVG Export Plug-In . SVG Version: 6.00 Build 0)  -->
<!DOCTYPE svg PUBLIC "-//W3C//DTD SVG 1.1//EN" "http://www.w3.org/Graphics/SVG/1.1/DTD/svg11.dtd">
<svg version="1.1" id="Layer_1" xmlns="http://www.w3.org/2000/svg" xmlns:xlink="http://www.w3.org/1999/xlink" x="0px" y="0px"
	 viewBox="0 0 100 100" enable-background="new 0 0 100 100" xml:space="preserve">
<g>
	<path fill="#2C4351" d="M94.6,57l-0.2-1.7c-0.8-5.1-1.6-10.9-2.6-15.3c-1.7-7.5-6.6-12-15.2-13.9c-1.2-0.3-10.9-2.9-22.9-2.9h-7.3
		c-11.9,0-21.6,2.6-22.9,2.9C14.9,28,9.9,32.5,8.3,40c-1,4.4-1.8,10.1-2.6,15.2L5.4,57c-0.4,2.9,0.9,5.7,3.3,7.3
		c7,4.5,12.8,13.1,13.9,18.4C26,100,43.6,100,49.4,100h1.2c5.8,0,23.4,0,26.9-17.3c1-5.3,6.9-13.9,13.9-18.4
		C93.7,62.8,95,59.9,94.6,57z M84.9,41.5c0.8,3.6,1.5,8.3,2.2,12.8c-3.2-1.8-7.6-3.7-12.5-4.6l1.3-16.5C81.3,34.5,83.9,37,84.9,41.5
		z M24.1,33.2l1.3,16.5c-4.9,0.9-9.2,2.8-12.5,4.6c0.7-4.5,1.4-9.2,2.2-12.8C16.1,37,18.7,34.5,24.1,33.2z M15.7,60.8
		c2.6-1.5,6.2-3.2,10.2-4l1.4,18.7C24.8,70.2,20.5,64.7,15.7,60.8z M49.4,93c-6.1,0-10.6-0.9-13.9-2.7L31,31.6
		c3.9-0.7,9.3-1.4,15.4-1.4h7.3c6,0,11.5,0.7,15.4,1.4l-4.5,58.7c-3.2,1.8-7.8,2.7-13.9,2.7H49.4z M72.7,75.4l1.4-18.6
		c4,0.9,7.6,2.5,10.2,4C79.5,64.7,75.2,70.2,72.7,75.4z"/>
	<path fill="#2C4351" d="M38.7,38.6c-0.3,2.2-1.2,5.5-1.8,7.3l1.7-0.2c0.8-1.4,2.2-4.7,2.9-7.4L38.7,38.6z"/>
	<path fill="#2C4351" d="M41.5,45.8l1.7-0.2c0.8-1.4,2.2-4.7,2.9-7.4l-2.8,0.3C43,40.8,42.2,44,41.5,45.8z"/>
</g>
</svg>
