<?xml version="1.0" encoding="utf-8"?>
<!-- Generator: Adobe Illustrator 18.1.1, SVG Export Plug-In . SVG Version: 6.00 Build 0)  -->
<!DOCTYPE svg PUBLIC "-//W3C//DTD SVG 1.1//EN" "http://www.w3.org/Graphics/SVG/1.1/DTD/svg11.dtd">
<svg version="1.1" id="Layer_1" xmlns="http://www.w3.org/2000/svg" xmlns:xlink="http://www.w3.org/1999/xlink" x="0px" y="0px"
	 viewBox="0 0 100 100" enable-background="new 0 0 100 100" xml:space="preserve">
<g>
	<path fill="#2C4351" d="M80.3,51.9c-0.6-2.6,0.5-5.6,1.1-6.8c0.6-1.2,2-4.5,2.6-7.4c0.7-3.2-6.9-9.5-8.7-10.4
		c-1.4-0.6-2.5-0.8-2.5-0.8s-0.3,0-0.4-0.3c-0.4-1,0-1.9,0-1.9c0.7-0.4,1.1-1.1,1.1-1.9V21c0-0.6-0.3-1.2-0.7-1.6
		c0.3,0.2,0.6,0.3,1,0.3c1,0,1.9-0.8,1.9-1.9V8.9c0-1-0.8-1.9-1.9-1.9c-1,0-1.9,0.8-1.9,1.9v1c-0.9,0.2-1.5,0.9-1.5,1.8V15
		c0,0.9,0.7,1.7,1.5,1.8v0.1c-0.6,0.1-1,0.6-1,1.2c0,0.3,0.1,0.5,0.2,0.7h-3c0,0,0,0,0-0.1v-1.4c0-0.3-0.2-0.5-0.5-0.5h-1.9
		c-0.3,0-0.5,0.2-0.5,0.5v1.4c0,0,0,0,0,0.1h-3.1c-1.2,0-2.2,1-2.2,2.2v1.5c0,0.8,0.4,1.5,1.1,1.9c0,0,0.4,0.8-0.1,1.9
		c-0.1,0.2-0.4,0.3-0.4,0.3s-1.1,0.1-2.4,0.8c-1.4,0.6-8.9,7.1-8.7,10.4c0.2,3,2.1,6.2,2.6,7.4c0.6,1.2,1.6,4.2,1.1,6.8
		c-0.6,2.6-3.8,11.5-3.8,25.8C49.2,92,50,96,52.4,97.6c2.4,1.6,9.2,2.4,11.8,2.4l1.3,0v0l1.2,0l1.2,0v0l1.3,0
		c2.6,0,9.4-0.8,11.8-2.4c2.4-1.6,3.2-5.6,3.2-19.9C84.1,63.4,80.8,54.6,80.3,51.9z M76.8,84.8c-1.1,0.7-5.7,1.5-8.2,1.5l-2.3,0
		l-1.8,0c-2.5,0-7.1-0.7-8.2-1.5c-1.3-0.9-1.3-5.4-1.3-9c0-5.9,0.7-8.8,1.4-11.8c0.2-1,0.9-1.9,1.8-2.3c2.4-1.2,5.2-1.9,8.3-1.9
		c3.1,0,5.9,0.7,8.3,2c0.9,0.5,1.6,1.3,1.8,2.3c0.7,3,1.4,5.9,1.4,11.8C78.2,79.4,78.2,83.9,76.8,84.8z"/>
	<path fill="#2C4351" d="M24.4,23.8c-0.6,0-1.2,0.1-1.8,0.2c-2.2,0.5-4.1,1.8-5.3,3.6c-1.2,1.9-1.6,4.1-1.2,6.3
		c0.8,3.9,4.3,6.6,8.2,6.6c0.6,0,1.2-0.1,1.8-0.2c4.5-1,7.4-5.4,6.5-10C31.7,26.6,28.3,23.8,24.4,23.8z M25.3,36.6
		c-2.4,0.5-4.9-1.1-5.4-3.5c-0.3-1.2,0-2.4,0.6-3.4c0.7-1,1.7-1.7,2.9-2c0.3-0.1,0.6-0.1,1-0.1c2.1,0,4,1.5,4.5,3.6
		C29.3,33.7,27.8,36.1,25.3,36.6z"/>
	<path fill="#2C4351" d="M29.2,6.9c-0.5,0-0.9,0-1.4,0.1c-3.6,0.8-5.9,4.3-5.1,7.9c0.6,3,3.4,5.2,6.5,5.2c0.5,0,0.9,0,1.4-0.1
		c1.7-0.4,3.2-1.4,4.2-2.9c1-1.5,1.3-3.3,0.9-5C35,9.1,32.3,6.9,29.2,6.9z M31.5,15.1c-0.4,0.6-1,1.1-1.8,1.2
		c-1.5,0.3-3-0.7-3.3-2.2c-0.3-1.5,0.6-3,2.2-3.3c0.2,0,0.4-0.1,0.6-0.1c1.3,0,2.5,0.9,2.7,2.2C32.1,13.7,31.9,14.5,31.5,15.1z"/>
	<path fill="#2C4351" d="M41.9,19.5c-3.1,0.7-5.1,3.7-4.4,6.8c0.6,2.6,2.9,4.5,5.6,4.5c0.4,0,0.8,0,1.2-0.1c3.1-0.7,5.1-3.7,4.4-6.8
		C48,20.9,44.9,18.8,41.9,19.5z M43.4,26.9c-1,0.2-2-0.5-2.2-1.5c-0.2-1,0.4-2,1.5-2.2c0.1,0,0.3,0,0.4,0c0.9,0,1.7,0.6,1.8,1.5
		C45.1,25.7,44.5,26.7,43.4,26.9z"/>
</g>
</svg>
