<?xml version="1.0" encoding="UTF-8" standalone="no"?>
<svg
   xmlns:dc="http://purl.org/dc/elements/1.1/"
   xmlns:cc="http://creativecommons.org/ns#"
   xmlns:rdf="http://www.w3.org/1999/02/22-rdf-syntax-ns#"
   xmlns:svg="http://www.w3.org/2000/svg"
   xmlns="http://www.w3.org/2000/svg"
   viewBox="0 0 33.333332 33.333332"
   height="33.333332"
   width="33.333332"
   xml:space="preserve"
   id="svg2"
   version="1.1"><metadata
     id="metadata8"><rdf:RDF><cc:Work
         rdf:about=""><dc:format>image/svg+xml</dc:format><dc:type
           rdf:resource="http://purl.org/dc/dcmitype/StillImage" /></cc:Work></rdf:RDF></metadata><defs
     id="defs6"><clipPath
       id="clipPath18"
       clipPathUnits="userSpaceOnUse"><path
         id="path16"
         d="M 0,25 H 25 V 0 H 0 Z" /></clipPath></defs><g
     transform="matrix(1.3333333,0,0,-1.3333333,0,33.333333)"
     id="g10"><g
       id="g12"><g
         clip-path="url(#2C4351th18)"
         id="g14"><g
           transform="translate(9.7112,22.3722)"
           id="g20"><path
             id="path22"
             style="fill:#2C4351;fill-opacity:1;fill-rule:nonzero;stroke:none"
             d="M 0,0 C 0,1.45 -1.171,2.621 -2.621,2.621 H -5.745 C -7.195,2.621 -8.366,1.45 -8.366,0 v -8.924 h 1.896 v -4.685 c 0,0 0.669,-1.562 2.677,-3.57 1.116,-1.115 0.614,-2.565 -0.055,-3.625 h -1.06 c -0.446,0 -0.781,-0.335 -0.781,-0.781 0,-0.446 0.335,-0.781 0.781,-0.781 H 8.31 c 0.447,0 0.781,0.335 0.781,0.781 0,0.446 -0.334,0.781 -0.781,0.781 H 7.641 c -0.279,0.892 -0.781,1.952 -1.338,2.789 -1.116,1.561 -1.562,2.677 0.223,3.179 1.784,0.502 6.748,2.9 6.748,6.191 L 0,-8.645 Z" /></g><g
           transform="translate(22.8184,16.46)"
           id="g24"><path
             id="path26"
             style="fill:#2C4351;fill-opacity:1;fill-rule:nonzero;stroke:none"
             d="m 0,0 h -11.378 c -0.446,0 -0.781,-0.335 -0.781,-0.781 0,-0.446 0.335,-0.781 0.781,-0.781 H 0.056 c 0.446,0 0.781,0.335 0.781,0.781 C 0.837,-0.39 0.446,0 0,0" /></g></g></g></g></svg>