<?xml version="1.0" encoding="UTF-8" standalone="no"?>
<svg
   xmlns:dc="http://purl.org/dc/elements/1.1/"
   xmlns:cc="http://creativecommons.org/ns#"
   xmlns:rdf="http://www.w3.org/1999/02/22-rdf-syntax-ns#"
   xmlns:svg="http://www.w3.org/2000/svg"
   xmlns="http://www.w3.org/2000/svg"
   viewBox="0 0 33.333332 33.333332"
   height="33.333332"
   width="33.333332"
   xml:space="preserve"
   id="svg2"
   version="1.1"><metadata
     id="metadata8"><rdf:RDF><cc:Work
         rdf:about=""><dc:format>image/svg+xml</dc:format><dc:type
           rdf:resource="http://purl.org/dc/dcmitype/StillImage" /></cc:Work></rdf:RDF></metadata><defs
     id="defs6"><clipPath
       id="clipPath18"
       clipPathUnits="userSpaceOnUse"><path
         id="path16"
         d="M 0,25 H 25 V 0 H 0 Z" /></clipPath></defs><g
     transform="matrix(1.3333333,0,0,-1.3333333,0,33.333333)"
     id="g10"><g
       id="g12"><g
         clip-path="url(#2C4351th18)"
         id="g14"><g
           transform="translate(12.875,9.235)"
           id="g20"><path
             id="path22"
             style="fill:#2C4351;fill-opacity:1;fill-rule:nonzero;stroke:none"
             d="m 0,0 c -0.002,0.005 0.003,0.008 0.001,0.013 -1.773,5.018 -2.6,10.197 -4.105,15.262 -0.006,0.032 -0.009,0.06 -0.026,0.089 -0.005,0.017 -0.009,0.035 -0.014,0.052 -0.018,0.057 -0.076,0.076 -0.125,0.065 -0.004,10e-4 -0.004,0.006 -0.009,0.007 -0.298,0.093 -0.285,0.09 -0.598,0.089 -0.112,0 -0.25,-0.086 -0.269,-0.205 C -5.459,13.477 -5.902,11.745 -6.689,9.989 -6.715,9.928 -6.703,9.877 -6.677,9.833 -6.735,9.746 -6.747,9.635 -6.64,9.541 -6.231,9.186 -5.769,8.916 -5.313,8.623 -5.102,8.488 -4.757,8.353 -4.591,8.16 -4.311,7.833 -4.501,7.652 -4.663,7.334 -4.935,6.803 -5.654,6.102 -5.483,5.465 -5.472,5.423 -5.445,5.404 -5.422,5.378 -5.563,5.32 -5.66,5.168 -5.551,5.003 c 1.048,-1.598 2.047,-3.212 2.917,-4.915 0.506,-0.99 0.845,-2.321 1.76,-3.017 -0.004,-0.023 -0.008,-0.046 -0.012,-0.069 -0.056,-0.309 0.4,-0.446 0.479,-0.132 0.251,0.997 0.476,2.081 0.415,3.112 C 0.007,-0.01 0.001,-0.007 0,0" /></g><g
           transform="translate(18.9643,21.0173)"
           id="g24"><path
             id="path26"
             style="fill:#2C4351;fill-opacity:1;fill-rule:nonzero;stroke:none"
             d="M 0,0 C -0.228,0.631 -0.408,1.28 -0.525,1.94 -0.591,2.307 -0.539,2.933 -0.73,3.287 -0.972,3.737 -1.233,3.862 -1.666,3.696 -1.802,3.754 -1.973,3.725 -2.019,3.542 -3.556,-2.587 -5.225,-8.899 -5.877,-15.21 c -0.087,-0.34 -0.15,-0.677 -0.149,-1.007 0,-0.059 0.047,-0.071 0.093,-0.062 0.041,-0.018 0.091,-0.015 0.105,0.038 0.008,0.032 0.014,0.063 0.022,0.094 0.982,1.371 1.661,3.115 2.463,4.593 0.955,1.759 1.922,3.512 2.905,5.256 0.068,0.122 0.052,0.286 -0.05,0.386 -0.619,0.603 -1.096,1.255 -1.5,2.019 -0.002,0.004 -0.006,0.006 -0.009,0.01 0.793,0.495 2.059,0.979 2.476,1.725 C 0.902,-1.401 0.285,-0.79 0,0" /></g><g
           transform="translate(14.2189,22.2829)"
           id="g28"><path
             id="path30"
             style="fill:#2C4351;fill-opacity:1;fill-rule:nonzero;stroke:none"
             d="M 0,0 C 0.099,0.167 0.002,0.367 -0.173,0.425 -0.783,0.627 -1.563,0.784 -2.188,0.558 -2.263,0.53 -2.311,0.471 -2.333,0.399 -2.424,0.325 -2.47,0.187 -2.369,0.087 c 0.254,-0.249 0.466,-0.508 0.672,-0.798 0.002,-0.003 0.005,-0.001 0.006,-0.004 0.025,-2.229 -0.522,-4.507 -0.803,-6.715 -0.004,-0.033 0.012,-0.055 0.026,-0.079 0.013,-0.565 0.24,-1.164 0.387,-1.697 0.224,-0.815 0.476,-1.623 0.7,-2.438 0.053,-0.193 0.306,-0.133 0.327,0.044 0.189,1.626 0.43,3.245 0.759,4.849 0.011,0.056 -0.007,0.101 -0.029,0.142 0.107,0.397 0.118,0.802 0.023,1.283 -0.287,1.452 -0.544,2.85 -0.598,4.333 C -0.511,-0.773 -0.222,-0.376 0,0" /></g><g
           transform="translate(12.4862,2.8894)"
           id="g32"><path
             id="path34"
             style="fill:#2C4351;fill-opacity:1;fill-rule:nonzero;stroke:none"
             d="m 0,0 c 0.016,0.565 0.059,1.145 -0.117,1.681 0.08,0.078 0.113,0.196 0.034,0.327 -1.019,1.683 -2.116,3.313 -3.097,5.02 -0.865,1.505 -1.598,3.133 -2.569,4.576 0.19,0.375 0.355,0.771 0.508,1.142 0.144,0.35 0.333,0.713 0.348,1.091 0.129,0.11 0.176,0.327 -0.012,0.451 -0.599,0.397 -1.208,0.781 -1.797,1.193 0.323,0.966 0.546,1.978 0.813,2.955 0.215,0.792 0.565,1.67 0.561,2.513 0.105,0.216 -0.055,0.535 -0.352,0.447 -0.865,-0.254 -1.708,-0.59 -2.507,-1.008 -0.481,-0.252 -1.205,-0.567 -1.355,-1.13 -0.121,-0.038 -0.214,-0.139 -0.202,-0.306 0.543,-7.02 -0.56,-14.071 -0.03,-21.108 0.008,-0.101 0.065,-0.159 0.133,-0.196 10e-4,-0.095 0.063,-0.187 0.197,-0.194 1.728,-0.089 3.455,-0.014 5.183,-0.146 1.317,-0.1 2.614,-0.345 3.92,-0.074 0.208,0.043 0.225,0.315 0.1,0.436 0.024,0.031 0.056,0.051 0.069,0.1 C 0.013,-1.516 -0.021,-0.735 0,0" /></g><g
           transform="translate(23.1022,21.3675)"
           id="g36"><path
             id="path38"
             style="fill:#2C4351;fill-opacity:1;fill-rule:nonzero;stroke:none"
             d="m 0,0 c 0.014,0.09 0.028,0.181 0.042,0.271 0.019,0.12 -0.005,0.231 -0.056,0.325 -0.002,0.052 -0.002,0.105 -0.003,0.157 -10e-4,0.004 0,0.008 -10e-4,0.012 0,0.015 0,0.029 -0.001,0.044 -0.003,0.088 -0.061,0.144 -0.129,0.18 -0.996,0.874 -2.359,1.408 -3.57,1.915 -0.296,0.124 -0.546,-0.226 -0.485,-0.486 0.39,-1.678 0.799,-3.372 1.509,-4.949 -0.492,-0.32 -0.967,-0.67 -1.445,-1.009 -0.309,-0.218 -0.893,-0.467 -0.985,-0.876 -0.088,-0.393 0.255,-0.639 0.485,-0.891 0.305,-0.332 0.544,-0.719 0.823,-1.068 -0.008,-0.021 -0.014,-0.038 -0.023,-0.059 -0.006,-0.006 -0.012,-0.011 -0.017,-0.019 -2.105,-3.533 -4.257,-7.164 -6.181,-10.796 -0.024,-0.045 -0.016,-0.092 -0.013,-0.138 -0.119,-0.051 -0.213,-0.158 -0.214,-0.328 -0.006,-0.995 -0.005,-1.994 0.08,-2.986 0.025,-0.292 0.335,-0.361 0.499,-0.21 0.007,-0.003 0.014,-0.002 0.021,-0.005 -10e-4,0 -10e-4,-0.001 -0.002,-0.002 2.814,-0.609 6.143,-0.179 9.006,-0.079 0.086,0.003 0.151,0.034 0.207,0.073 0.143,0.041 0.259,0.158 0.257,0.359 C -0.287,-13.732 0.194,-6.817 0,0" /></g></g></g></g></svg>