<?xml version="1.0" encoding="utf-8"?>
<!-- Generator: Adobe Illustrator 18.1.1, SVG Export Plug-In . SVG Version: 6.00 Build 0)  -->
<!DOCTYPE svg PUBLIC "-//W3C//DTD SVG 1.1//EN" "http://www.w3.org/Graphics/SVG/1.1/DTD/svg11.dtd">
<svg version="1.1" id="Layer_1" xmlns="http://www.w3.org/2000/svg" xmlns:xlink="http://www.w3.org/1999/xlink" x="0px" y="0px"
	 viewBox="0 0 100 100" enable-background="new 0 0 100 100" xml:space="preserve">
<g>
	<path fill="#2C4351" d="M19.3,79.1c-0.5,0-0.8,0.5-0.9,0.8c-2.2,5.7-5.2,8.5-5.2,12.8c0,4.9,2.5,7.2,6.2,7.2c3.7,0,6.2-2.3,6.2-7.2
		c0-4.3-3-7.1-5.2-12.8C20.1,79.6,19.9,79.1,19.3,79.1z"/>
	<path fill="#2C4351" d="M44.3,30.2c-1.7,0-3.2,1.4-3.2,3.2v1.4h-6.3c-12.4,0-22.6,10.1-22.6,22.5v6.6h-2.2c-1.7,0-3.2,1.4-3.2,3.2
		c0,1.7,1.4,3.2,3.2,3.2h17.3c1.7,0,3.2-1.4,3.2-3.2c0-1.7-1.4-3.2-3.2-3.2h-1.3v-6.6c0-4.8,3.9-8.7,8.8-8.7h6.3v2.1
		c0,1.7,1.4,3.2,3.2,3.2c1.7,0,3.2-1.4,3.2-3.2V33.3C47.5,31.6,46,30.2,44.3,30.2z"/>
	<path fill="#2C4351" d="M73.9,15.9v10.6c0,4.6-3.9,8.4-8.8,8.4h-6.3v-1.6c0-1.7-1.4-3.2-3.2-3.2c-1.7,0-3.2,1.4-3.2,3.2v17.3
		c0,1.7,1.4,3.2,3.2,3.2c1.7,0,3.2-1.4,3.2-3.2v-1.9h6.3c12.4,0,22.6-10,22.6-22.2V15.9H73.9z"/>
	<g>
		<g>
			<path fill="#2C4351" d="M72.6,13.2h17.3c1.7,0,3.2-1.4,3.2-3.2c0-1.7-1.4-3.2-3.2-3.2H72.6c-1.7,0-3.2,1.4-3.2,3.2
				C69.4,11.8,70.8,13.2,72.6,13.2"/>
		</g>
	</g>
</g>
</svg>
