<?xml version="1.0" encoding="UTF-8" standalone="no"?>
<svg
   xmlns:dc="http://purl.org/dc/elements/1.1/"
   xmlns:cc="http://creativecommons.org/ns#"
   xmlns:rdf="http://www.w3.org/1999/02/22-rdf-syntax-ns#"
   xmlns:svg="http://www.w3.org/2000/svg"
   xmlns="http://www.w3.org/2000/svg"
   viewBox="0 0 33.333332 33.333332"
   height="33.333332"
   width="33.333332"
   xml:space="preserve"
   id="svg2"
   version="1.1"><metadata
     id="metadata8"><rdf:RDF><cc:Work
         rdf:about=""><dc:format>image/svg+xml</dc:format><dc:type
           rdf:resource="http://purl.org/dc/dcmitype/StillImage" /></cc:Work></rdf:RDF></metadata><defs
     id="defs6"><clipPath
       id="clipPath18"
       clipPathUnits="userSpaceOnUse"><path
         id="path16"
         d="M 0,25 H 25 V 0 H 0 Z" /></clipPath></defs><g
     transform="matrix(1.3333333,0,0,-1.3333333,0,33.333333)"
     id="g10"><g
       id="g12"><g
         clip-path="url(#2C4351th18)"
         id="g14"><g
           transform="translate(16.9914,14.4322)"
           id="g20"><path
             id="path22"
             style="fill:#2C4351;fill-opacity:1;fill-rule:nonzero;stroke:none"
             d="m 0,0 c -0.371,0 -0.672,0.301 -0.672,0.672 0,0.372 0.301,0.673 0.672,0.673 0.371,0 0.672,-0.301 0.672,-0.673 C 0.672,0.301 0.371,0 0,0 M 6.598,-3.055 C 6.046,-2.281 5.539,-1.758 4.724,-1.279 3.909,-0.799 2.682,1.145 1.846,2.46 1.01,3.776 0.206,3.88 -1.867,4.245 c -0.441,0.078 -0.85,0.074 -1.244,0.027 -2.456,8.4 -9.368,5.898 -9.368,5.898 4.681,-0.078 6.138,-5.078 6.538,-7.104 -0.373,-0.246 -0.753,-0.511 -1.147,-0.78 0.281,-0.456 0.342,-0.757 0.21,-1.143 -0.137,0.3 -0.355,0.574 -0.578,0.765 -0.024,0.02 -0.051,0.034 -0.075,0.053 -0.33,0.261 -0.721,0.434 -1.131,0.527 -0.134,0.031 -0.27,0.055 -0.407,0.07 -0.631,0.069 -1.28,0.06 -1.913,0.01 -0.777,-0.061 -1.368,-0.202 -2.147,-0.246 -0.555,-0.031 -1.105,-0.206 0.401,-1.131 0.836,-0.514 1.371,-1.499 2.412,-1.969 0.06,-0.027 0.122,-0.051 0.185,-0.074 0.239,-0.088 0.493,-0.159 0.792,-0.183 0.298,-0.023 0.627,0.004 0.948,0.076 -0.844,-0.514 -1.811,-0.437 -2.113,-0.396 -0.263,-0.363 -0.423,-0.602 -0.423,-0.602 0,0 -3.091,-3.835 -5.203,-5.751 0,0 5.006,-1.576 7.024,-3.155 2.018,-1.579 3.022,-3.52 3.022,-3.52 0.795,1.487 0.769,3.503 0.938,4.44 0.169,0.936 1.33,1.719 1.699,2.089 0.37,0.37 0.82,1.117 0.82,1.117 0.536,-0.039 1.1,0.082 2.154,0.073 1.054,-0.008 1.847,-0.153 1.847,-0.153 0,0 0.245,-0.08 0.63,-0.176 0.086,-1.07 0.17,-2.912 -0.147,-3.954 0,0 0.898,1.297 1.131,2.461 0,0 0.233,-1.264 0.266,-1.863 0,0 0.597,1.617 0.883,3.057 0.845,0.015 1.465,0.269 1.753,0.62 0.352,0.43 0.409,1.124 0.558,1.368 0.149,0.244 0.172,0.132 0.518,0.396 0.345,0.264 0.184,1.078 -0.368,1.853" /></g></g></g></g></svg>