<?xml version="1.0" encoding="utf-8"?>
<!-- Generator: Adobe Illustrator 18.1.1, SVG Export Plug-In . SVG Version: 6.00 Build 0)  -->
<!DOCTYPE svg PUBLIC "-//W3C//DTD SVG 1.1//EN" "http://www.w3.org/Graphics/SVG/1.1/DTD/svg11.dtd">
<svg version="1.1" id="Layer_1" xmlns="http://www.w3.org/2000/svg" xmlns:xlink="http://www.w3.org/1999/xlink" x="0px" y="0px"
	 viewBox="0 0 100 100" enable-background="new 0 0 100 100" xml:space="preserve">
<g>
	<path fill="#2C4351" d="M85.6,13.7h-30L45,100h51.2L85.6,13.7z M73.1,89c0,1.3-1.1,2.4-2.4,2.4c-1.3,0-2.4-1.1-2.4-2.4v-9.8
		c0-1.3,1.1-2.4,2.4-2.4c1.3,0,2.4,1.1,2.4,2.4V89z M73.1,69.2c0,1.3-1.1,2.4-2.4,2.4c-1.3,0-2.4-1.1-2.4-2.4v-9.8
		c0-1.3,1.1-2.4,2.4-2.4c1.3,0,2.4,1.1,2.4,2.4V69.2z M73.1,49.4c0,1.3-1.1,2.4-2.4,2.4c-1.3,0-2.4-1.1-2.4-2.4v-9.8
		c0-1.3,1.1-2.4,2.4-2.4c1.3,0,2.4,1.1,2.4,2.4V49.4z M73.1,29.7c0,1.3-1.1,2.4-2.4,2.4c-1.3,0-2.4-1.1-2.4-2.4v-9.8
		c0-1.3,1.1-2.4,2.4-2.4c1.3,0,2.4,1.1,2.4,2.4V29.7z"/>
	<path fill="#2C4351" d="M37.7,27.8c-0.3-1.2-1.9-1.7-2.8-0.7l-2.1,2.1c-0.6,0.7-1.7,0.7-2.4,0L14.9,13.6c-0.7-0.6-1.7-0.6-2.4,0
		l-8.3,8.3c-0.7,0.7-0.7,1.7,0,2.4l15.6,15.6c0.7,0.6,0.7,1.7,0,2.4l-2.1,2.1c-0.9,0.9-0.5,2.5,0.7,2.8l23.5,6.3
		c1.2,0.3,2.4-0.8,2-2L37.7,27.8z"/>
</g>
</svg>
