<?xml version="1.0" encoding="utf-8"?>
<!-- Generator: Adobe Illustrator 18.1.1, SVG Export Plug-In . SVG Version: 6.00 Build 0)  -->
<!DOCTYPE svg PUBLIC "-//W3C//DTD SVG 1.1//EN" "http://www.w3.org/Graphics/SVG/1.1/DTD/svg11.dtd">
<svg version="1.1" id="Layer_1" xmlns="http://www.w3.org/2000/svg" xmlns:xlink="http://www.w3.org/1999/xlink" x="0px" y="0px"
	 viewBox="0 0 100 100" enable-background="new 0 0 100 100" xml:space="preserve">
<g>
	<path fill="#2C4351" d="M54.2,39.2h9.7v5.1h8.3v-5.1h10.3c2.5,0,4.5-2,4.5-4.4V16.9c0-2.5-2-4.5-4.5-4.5H54.2c-2.5,0-4.4,2-4.4,4.5
		v17.9C49.8,37.1,51.7,39.2,54.2,39.2z M54.2,17c0-0.3,0.2-0.5,0.5-0.5H82c0.3,0,0.5,0.2,0.5,0.5v17.6c0,0.3-0.2,0.5-0.5,0.5H54.7
		c-0.3,0-0.5-0.2-0.5-0.5V17z"/>
	<path fill="#2C4351" d="M91.1,48.8H8.9c-2,0-3.6,1.6-3.6,3.6c0,2,1.6,3.6,3.6,3.6h82.2c2,0,3.6-1.6,3.6-3.6
		C94.7,50.4,93.1,48.8,91.1,48.8z"/>
	<path fill="#2C4351" d="M10.5,96.7c0,1.8,1.5,3.3,3.3,3.3c1.8,0,3.3-1.5,3.3-3.3V59.5h-6.6V96.7z"/>
	<rect x="21.3" y="59.5" fill="#2C4351" width="22.4" height="10.2"/>
	<rect x="21.3" y="73.5" fill="#2C4351" width="22.4" height="10.2"/>
	<path fill="#2C4351" d="M82.9,96.7c0,1.8,1.5,3.3,3.3,3.3c1.8,0,3.3-1.5,3.3-3.3V59.5h-6.6V96.7z"/>
	<path fill="#2C4351" d="M21.4,37.8l2.1-8.8l-0.2-0.5c-0.6-1.8-1.1-5.1-0.2-6.4c0.1-0.2,0.4-0.5,1.3-0.5c1.5,0,2.6,0.5,3.4,1
		c-0.1,0.8,0,1.6,0.5,2.3l4.7,6.4l6.8-8.3L32.4,20c-0.7-0.3-1.5-0.3-2.2,0c-1.3-1-3.2-1.8-5.7-1.8c-2.3,0-3.6,1.1-4.2,2
		c-2,2.8-0.9,7.5-0.4,9.1l-2.2,9.2c-2.8,1.2-4.8,3.9-4.8,7.1h15.7C28.5,41.5,25.4,38.2,21.4,37.8z"/>
	<polygon fill="#2C4351" points="79.6,19.2 74.1,19.2 79.6,25.4 	"/>
</g>
</svg>
