<?xml version="1.0" encoding="utf-8"?>
<!-- Generator: Adobe Illustrator 18.1.1, SVG Export Plug-In . SVG Version: 6.00 Build 0)  -->
<!DOCTYPE svg PUBLIC "-//W3C//DTD SVG 1.1//EN" "http://www.w3.org/Graphics/SVG/1.1/DTD/svg11.dtd">
<svg version="1.1" id="Layer_1" xmlns="http://www.w3.org/2000/svg" xmlns:xlink="http://www.w3.org/1999/xlink" x="0px" y="0px"
	 viewBox="0 0 100 100" enable-background="new 0 0 100 100" xml:space="preserve">
<g>
	<path fill="#2C4351" d="M58,39.7c-1.4-0.3-3.5-0.7-4.7,0.1c-1.4,0.9-1.5,2.6-0.7,4c0.9,1.6,2.6,2.3,4.2,2.9c1.6,0.6,3.7,1.1,5-0.1
		c1.2-1,1.2-3,0.4-4.3C61.2,40.9,59.6,40.1,58,39.7z"/>
	<path fill="#2C4351" d="M76.4,46.4c4.5-0.1,8.6-3,10-7.5c1.7-5.6-1.4-11.5-7-13.2c-2.3-0.7-4.7-0.6-6.9,0.2c-2.2-2.3-5-4.1-8.3-5.1
		c-3.2-1-6.5-1.1-9.6-0.4c-1.3-1.8-3.2-3.3-5.5-4c-5.6-1.7-11.5,1.4-13.2,7c-1.4,4.4,0.3,9.1,3.9,11.7c-0.7,3.3-0.5,6.7,0.4,9.8
		L27.8,41c-4-1.2-8.2,1-9.4,5c-1.2,4,1,8.2,5,9.4l8.7,2.7c-0.8,1.3-1.5,2.6-2.1,4.1c3.2,0.5,6.1,1.9,8.1,4.1
		C41.5,70,44,76.6,44,82.7c3.5-5,9.3-9,14.3-10.2c0.9-0.2,1.8-0.3,2.7-0.3c2.1,0,4.3,0.5,6.3,1.5c0.3-1.6,0.5-3.1,0.6-4.6l8.4,2.6
		c0.7,0.2,1.5,0.3,2.2,0.3c3.2,0,6.2-2.1,7.2-5.3c1.2-4-1-8.2-5-9.4l-10.2-3.1C73.1,52.2,75.1,49.5,76.4,46.4z M83.3,34.4
		c1.1,5-6.7,6.3-6.7,6.3c0.6-4.8-2.2-10.3-2.2-10.3C76.9,29.2,82.2,29.4,83.3,34.4z M43,30.9c0,0-6.2-3.9-2.1-8.4
		c3.6-3.9,8.5-1.9,10.2,0.4C51,22.8,45.6,25.5,43,30.9z M66.5,48.3c-1.7,5.6-7.6,7.5-13.2,5.8c-5.6-1.7-8.7-6.4-7-12
		c1.7-5.6,7.6-8.7,13.2-7C65.1,36.8,68.2,42.7,66.5,48.3z"/>
	<path fill="#2C4351" d="M27.7,66.4c-2.4,0-4.6,0.9-6.1,2.4c-3.6,3.7-5.1,9.2-3.3,12.7c0,0.1,0.1,0.2,0.1,0.3
		c2.3,7,7.3,9.9,11.1,10.4c4.6,0.5,7.7-0.8,9.2-4.2c2.5-5.6,0-14.5-3.9-18.7C33.1,67.5,30.4,66.4,27.7,66.4z"/>
	<path fill="#2C4351" d="M61,76.7c-0.6,0-1.2,0.1-1.7,0.2c-5.8,1.3-13.1,7.6-13.9,13.7c-0.4,3.4,1.3,6.1,5.2,8.2
		c1.6,0.8,3.4,1.3,5.4,1.3c3.3,0,6.6-1.2,9.7-3.5c0.1-0.1,0.2-0.1,0.2-0.2c3.4-1.9,5.3-7.3,4.4-12.4C69.6,79.4,65,76.7,61,76.7z"/>
</g>
</svg>
