<?xml version="1.0" encoding="utf-8"?>
<!-- Generator: Adobe Illustrator 18.1.1, SVG Export Plug-In . SVG Version: 6.00 Build 0)  -->
<!DOCTYPE svg PUBLIC "-//W3C//DTD SVG 1.1//EN" "http://www.w3.org/Graphics/SVG/1.1/DTD/svg11.dtd">
<svg version="1.1" id="Layer_1" xmlns="http://www.w3.org/2000/svg" xmlns:xlink="http://www.w3.org/1999/xlink" x="0px" y="0px"
	 viewBox="0 0 100 100" enable-background="new 0 0 100 100" xml:space="preserve">
<g>
	<g>
		<path fill="#2C4351" d="M92.4,91.5c0,4.7-3.8,8.5-8.5,8.5H16.2c-4.8,0-8.6-3.9-8.6-8.5v-1.9c0-1.3,1.1-2.3,2.3-2.3H42
			c0.3,0.9,1.2,1.9,2.6,1.9h10.9c1.3,0,2.3-1,2.6-1.9h31.9c1.3,0,2.3,1.1,2.3,2.3V91.5z M77.2,32.5c4.8,0,8.5,3.8,8.5,8.5v34.3
			c0,4.6-3.8,8.5-8.5,8.5H22.9c-4.8,0-8.5-3.9-8.5-8.5V41c0-4.8,3.7-8.5,8.5-8.5H77.2z M23.2,40.5c-0.5,0-0.9,0.4-0.9,0.9v33.5
			c0,0.5,0.4,0.9,0.9,0.9h53.6c0.5,0,0.9-0.4,0.9-0.9V41.4c0-0.5-0.4-0.9-0.9-0.9H23.2z M48.2,36.4c0,1.3,0.6,2,1.9,2
			c1.3,0,1.9-0.7,1.9-2c0-1.4-0.6-2-1.9-2C48.8,34.4,48.2,35.1,48.2,36.4"/>
	</g>
</g>
</svg>
