<?xml version="1.0" encoding="utf-8"?>
<!-- Generator: Adobe Illustrator 18.1.1, SVG Export Plug-In . SVG Version: 6.00 Build 0)  -->
<!DOCTYPE svg PUBLIC "-//W3C//DTD SVG 1.1//EN" "http://www.w3.org/Graphics/SVG/1.1/DTD/svg11.dtd">
<svg version="1.1" id="Layer_1" xmlns="http://www.w3.org/2000/svg" xmlns:xlink="http://www.w3.org/1999/xlink" x="0px" y="0px"
	 viewBox="0 0 100 100" enable-background="new 0 0 100 100" xml:space="preserve">
<path fill="#2C4351" d="M95.3,49.5c-1.6-1.9-2.1-4.8-1.6-8.4c0.3-1.8-1-3.6-2.9-3.8c-1.8-0.3-3.6,1-3.8,2.9
	c-0.8,5.9,0.6,9.9,2.2,12.4L58.1,93.1L17,81.4c-0.6-0.2-6.3-2-6.7-10.1c0-0.6,0-1.1,0-1.7c0.3-1.3,0.9-2.9,2.5-3.5
	c1.2-0.5,2.5-0.6,3.7-0.5l36.7,7c2.1,0.5,4.3-0.2,5.7-1.9l34.8-42.9c0.8-1,1-2.3,0.6-3.5c-0.4-1.2-1.4-2.1-2.7-2.4l-43.5-6.8
	c-2.1-0.4-4.2,0.3-5.5,1.9l-37,44l-0.2,0.3c-1.3,2.6-2,6.6-1.9,10.4c0.6,13.2,11.2,16.1,11.6,16.2L57,99.8c0.5,0.1,1,0.2,1.6,0.2
	c1.7,0,3.3-0.8,4.4-2.2l32.5-42.3C96.8,53.7,96.7,51.3,95.3,49.5z M45.1,34l3.7-4.3c0.3-0.3,0.7-0.5,1.1-0.4L67.5,32
	c1,0.2,1.4,1.3,0.7,2.1l-4,4.3c-0.3,0.3-0.7,0.5-1.1,0.4l-17.3-2.7C44.9,35.9,44.4,34.8,45.1,34z"/>
</svg>
