<?xml version="1.0" encoding="UTF-8" standalone="no"?>
<svg
   xmlns:dc="http://purl.org/dc/elements/1.1/"
   xmlns:cc="http://creativecommons.org/ns#"
   xmlns:rdf="http://www.w3.org/1999/02/22-rdf-syntax-ns#"
   xmlns:svg="http://www.w3.org/2000/svg"
   xmlns="http://www.w3.org/2000/svg"
   viewBox="0 0 33.333332 33.333332"
   height="33.333332"
   width="33.333332"
   xml:space="preserve"
   id="svg2"
   version="1.1"><metadata
     id="metadata8"><rdf:RDF><cc:Work
         rdf:about=""><dc:format>image/svg+xml</dc:format><dc:type
           rdf:resource="http://purl.org/dc/dcmitype/StillImage" /></cc:Work></rdf:RDF></metadata><defs
     id="defs6"><clipPath
       id="clipPath18"
       clipPathUnits="userSpaceOnUse"><path
         id="path16"
         d="M 0,25 H 25 V 0 H 0 Z" /></clipPath></defs><g
     transform="matrix(1.3333333,0,0,-1.3333333,0,33.333333)"
     id="g10"><g
       id="g12"><g
         clip-path="url(#2C4351th18)"
         id="g14"><g
           transform="translate(21.0276,14.9344)"
           id="g20"><path
             id="path22"
             style="fill:#2C4351;fill-opacity:1;fill-rule:nonzero;stroke:none"
             d="m 0,0 -0.507,-0.058 0.096,-0.504 c 0.029,-0.158 0.044,-0.302 0.044,-0.437 0,-1.442 -1.301,-2.614 -2.9,-2.614 -0.518,0 -1.029,0.129 -1.484,0.372 l -0.368,0.202 -0.246,-0.345 c -0.537,-0.746 -1.448,-1.195 -2.433,-1.195 -0.735,0 -1.441,0.254 -1.985,0.713 l -0.26,0.224 -0.295,-0.176 c -0.474,-0.287 -1.029,-0.437 -1.594,-0.437 -1.5,0 -2.738,1.014 -2.886,2.359 l -0.033,0.319 -0.305,0.089 c -1.205,0.349 -2.01,1.349 -2.01,2.488 0,0.816 0.416,1.573 1.139,2.073 l 0.264,0.183 -0.069,0.313 c -0.041,0.173 -0.059,0.345 -0.059,0.522 0,1.44 1.298,2.612 2.896,2.612 0.379,0 0.746,-0.065 1.103,-0.198 l 0.437,-0.162 0.173,0.434 c 0.412,1.04 1.507,1.738 2.723,1.738 0.753,0 1.466,-0.264 2.014,-0.738 l 0.279,-0.247 0.309,0.218 c 0.511,0.355 1.125,0.547 1.768,0.547 1.598,0 2.895,-1.172 2.899,-2.587 l -0.004,-0.596 0.538,0.063 c 0.124,0.018 0.249,0.026 0.378,0.026 1.595,0 2.896,-1.173 2.896,-2.614 C 2.518,1.282 1.434,0.173 0,0 m 3.474,2.587 c 0,1.967 -1.724,3.565 -3.845,3.573 -0.254,1.742 -1.867,3.09 -3.818,3.09 -0.717,0 -1.404,-0.183 -2.011,-0.529 -0.676,0.485 -1.499,0.75 -2.359,0.75 -1.448,0 -2.771,-0.765 -3.421,-1.937 -0.332,0.085 -0.669,0.125 -1.015,0.125 -2.124,0 -3.851,-1.602 -3.851,-3.568 0,-0.14 0.007,-0.283 0.025,-0.423 -0.83,-0.676 -1.304,-1.636 -1.304,-2.672 0,-1.47 0.955,-2.764 2.403,-3.308 0.342,-1.675 1.915,-2.899 3.79,-2.899 0.628,0 1.241,0.14 1.793,0.412 0.672,-0.478 1.492,-0.74 2.341,-0.74 1.15,0 2.226,0.475 2.955,1.284 0.495,-0.206 1.033,-0.316 1.576,-0.316 2.124,0 3.851,1.602 3.851,3.568 v 0.136 c 1.677,0.404 2.89,1.815 2.89,3.454" /></g><g
           transform="translate(6.4853,5.2401)"
           id="g24"><path
             id="path26"
             style="fill:#2C4351;fill-opacity:1;fill-rule:nonzero;stroke:none"
             d="m 0,0 c -1.025,0 -1.859,0.631 -1.859,1.407 0,0.772 0.834,1.404 1.859,1.404 1.029,0 1.864,-0.632 1.864,-1.404 C 1.864,0.631 1.029,0 0,0 m 0,3.766 c -1.554,0 -2.819,-1.061 -2.819,-2.362 0,-1.301 1.265,-2.36 2.819,-2.36 1.555,0 2.819,1.059 2.819,2.36 0,1.301 -1.264,2.362 -2.819,2.362" /></g><g
           transform="translate(2.5903,1.5502)"
           id="g28"><path
             id="path30"
             style="fill:#2C4351;fill-opacity:1;fill-rule:nonzero;stroke:none"
             d="M 0,0 C -0.618,0 -1.136,0.374 -1.136,0.816 -1.136,1.26 -0.618,1.635 0,1.635 0.613,1.635 1.132,1.26 1.132,0.816 1.132,0.374 0.613,0 0,0 m 0,2.591 c -1.154,0 -2.091,-0.798 -2.091,-1.775 0,-0.978 0.937,-1.772 2.091,-1.772 1.15,0 2.087,0.794 2.087,1.772 C 2.087,1.793 1.15,2.591 0,2.591" /></g></g></g></g></svg>