<?xml version="1.0" encoding="utf-8"?>
<!-- Generator: Adobe Illustrator 18.1.1, SVG Export Plug-In . SVG Version: 6.00 Build 0)  -->
<!DOCTYPE svg PUBLIC "-//W3C//DTD SVG 1.1//EN" "http://www.w3.org/Graphics/SVG/1.1/DTD/svg11.dtd">
<svg version="1.1" id="Layer_1" xmlns="http://www.w3.org/2000/svg" xmlns:xlink="http://www.w3.org/1999/xlink" x="0px" y="0px"
	 viewBox="0 0 100 100" enable-background="new 0 0 100 100" xml:space="preserve">
<g>
	<path fill="#2C4351" d="M95.6,94.5l-5.4-3.4l-1.8-14.4c0,0,0,0,0,0l-0.9-7c1.8-4.8,2.8-10.5,2.8-16.6c0-18.1-8.8-32.3-20.1-32.3
		c-2.6,0-5.1,0.8-7.4,2.2c-2.3-1.4-4.8-2.2-7.4-2.2c-10.4,0-18.6,11.9-19.9,27.9c-1.2,0.1-2.4,0.4-3.5,0.9c-0.8,0.4-1.6,1-2.2,1.6
		c-1-0.8-2.1-1.5-3.4-2c-2.6-0.9-5.1-0.8-7.3,0.4c-4.2,2.2-6,7.4-6.3,8.4c-0.1,0.2-0.1,0.3-0.1,0.5L10.9,69H6.5
		c-1.5,0-2.8,1-3.3,2.4c-0.5,1.5,0.1,3,1.3,3.9l3.6,2.5c1.2,0.8,2.7,1,4,0.4c1.3-0.6,2.2-1.7,2.5-3.1l0.2-1.4H15l6,4.2
		c1.2,0.8,2.7,1,4,0.4c1.3-0.6,2.2-1.7,2.5-3.1l0.3-1.5c0,0,0,0,0,0l4.6,3.1L34,91.8c0.1,1.3,0.8,2.4,1.9,3l6.9,4.4
		c0.8,0.5,1.8,0.8,2.7,0.8H94c1.3,0,2.5-0.9,2.9-2.1C97.2,96.6,96.7,95.2,95.6,94.5z M25.7,58c-0.1,0.2-0.1,0.4-0.1,0.5L23.8,69
		h-8.2l1.6-9.6c0.5-1.6,1.9-4.5,4-5.6c1.1-0.6,2.3-0.6,3.7-0.1c0.8,0.3,1.5,0.7,2.1,1.3C26.2,56.4,25.8,57.6,25.7,58z M29.9,69.4
		C29.5,69.1,29,69,28.5,69l1.5-8.8c0.7,2.1,1,4.3,1.1,5.5l0.6,4.9L29.9,69.4z M70.2,24.5c9.1,0,16.4,12.8,16.4,28.6
		c0,12.2-4.4,22.7-10.6,26.7l-1.6-14.5c0-0.1,0-0.3-0.1-0.7c0.8-3.5,1.3-7.4,1.3-11.5c0-7-1.3-13.4-3.6-18.6
		c2.8,2.1,6.4,8.8,6.4,18.6c0,0.5,0.4,0.9,0.9,0.9c0.5,0,0.9-0.4,0.9-0.9c0-11.5-5-20.5-9.4-21.2c-1.4-2.5-3-4.7-4.8-6.5
		C67.4,24.9,68.8,24.5,70.2,24.5z M55.5,24.5c9.1,0,16.4,12.8,16.4,28.6c0,11.1-3.6,20.7-8.9,25.4l-1.5-13.2c0-0.5-0.9-13.2-9.2-16
		c-2.6-0.9-5.1-0.8-7.3,0.4c-0.8,0.4-1.6,1-2.2,1.6c-1-0.8-2.1-1.5-3.4-2c-0.1,0-0.1,0-0.2,0C40.3,35.3,47.1,24.5,55.5,24.5z
		 M71.6,81.6c-0.4,0.1-0.9,0.1-1.4,0.1c-1.5,0-2.9-0.3-4.2-1c1.8-1.7,3.4-3.9,4.7-6.4L71.6,81.6z M45,75.2c-1.4-2-2.6-4.3-3.5-7
		l1.4-8c0.7,2.1,1,4.3,1.1,5.5L45,75.2z M39.9,55c-0.3,0.6-0.6,1.1-0.8,1.6c-0.1-0.8-0.1-1.5-0.1-2.3C39.3,54.5,39.6,54.7,39.9,55z
		 M36.3,71.2l-0.7-5.9c0-0.4-0.4-5.8-3-10.4c0.4-0.5,0.9-0.8,1.5-1.1c0.4-0.2,0.8-0.3,1.2-0.4c0,4.7,0.7,9.2,1.8,13.2L36.3,71.2z
		 M45.5,95.4c-0.1,0-0.2,0-0.2-0.1l-6.7-4.2l-1.4-12.7c0.2-0.1,0.5-0.1,0.7-0.2c1.3-0.6,2.2-1.7,2.5-3.1l0.1-0.3
		c1.5,2.7,3.3,5,5.3,6.8l1.2,10.3c0.1,1.3,0.8,2.4,1.9,3l0.9,0.5H45.5z M48.6,65.3c0-0.3-0.4-5.8-3-10.4c0.4-0.5,0.9-0.8,1.5-1.1
		c1.1-0.6,2.3-0.6,3.7-0.1c4.5,1.5,5.9,9.1,6.1,12l1.7,15.4c-1,0.4-2.1,0.5-3.2,0.5c-1.8,0-3.6-0.5-5.2-1.5L48.6,65.3z M58.3,95.4
		l-6.8-4.3l-0.7-6.6c1.5,0.6,3.1,0.9,4.7,0.9c1.2,0,2.4-0.2,3.6-0.5l0.8,7c0.1,1.3,0.8,2.4,1.9,3l0.9,0.5H58.3z M71.2,95.4l-6.8-4.3
		l-0.8-7.5c2.1,1.1,4.3,1.8,6.7,1.8c0.6,0,1.2,0,1.8-0.1l0.7,6.6c0.1,1.3,0.8,2.4,1.9,3l0.9,0.5H71.2z M84.1,95.4l-6.8-4.3l-0.8-7.3
		c2.8-1.4,5.3-3.7,7.4-6.8l0,0.2c0,0,0,0,0,0l1.8,14.5c0.1,1.3,0.8,2.4,1.9,3l0.9,0.5H84.1z"/>
	<path fill="#2C4351" d="M55.5,33.7c2.9,0,8.1,7.4,8.1,19.4c0,0.5,0.4,0.9,0.9,0.9c0.5,0,0.9-0.4,0.9-0.9c0-11.9-5.4-21.2-10-21.2
		c-0.5,0-0.9,0.4-0.9,0.9C54.5,33.3,54.9,33.7,55.5,33.7z"/>
</g>
</svg>
