<?xml version="1.0" encoding="utf-8"?>
<!-- Generator: Adobe Illustrator 18.1.1, SVG Export Plug-In . SVG Version: 6.00 Build 0)  -->
<!DOCTYPE svg PUBLIC "-//W3C//DTD SVG 1.1//EN" "http://www.w3.org/Graphics/SVG/1.1/DTD/svg11.dtd">
<svg version="1.1" id="Layer_1" xmlns="http://www.w3.org/2000/svg" xmlns:xlink="http://www.w3.org/1999/xlink" x="0px" y="0px"
	 viewBox="0 0 100 100" enable-background="new 0 0 100 100" xml:space="preserve">
<g>
	<g>
		<path fill="#2C4351" d="M71.8,75c0,0-10.2,7.7-18.1,1.3C45.6,70,33.9,41.7,19,35.6c0,0-11.2,2.2-11.8,14.8
			c-0.6,12.7,4.9,19,5.7,27.2c0.8,8.3,1.9,22.3,1.9,22.3h4.7c0,0,1.5-26.8,1.5-28.8c0-1.9,2.4-4.7,5.2-1.1
			c2.7,3.6,22.4,29.6,36.9,29.9c13.3,0.3,21.6-1,26.6-3c2.5-1,4-4.1,2.4-6.3C84.6,80.7,71.8,75,71.8,75"/>
	</g>
</g>
</svg>
