<?xml version="1.0" encoding="utf-8"?>
<!-- Generator: Adobe Illustrator 18.1.1, SVG Export Plug-In . SVG Version: 6.00 Build 0)  -->
<!DOCTYPE svg PUBLIC "-//W3C//DTD SVG 1.1//EN" "http://www.w3.org/Graphics/SVG/1.1/DTD/svg11.dtd">
<svg version="1.1" id="Layer_1" xmlns="http://www.w3.org/2000/svg" xmlns:xlink="http://www.w3.org/1999/xlink" x="0px" y="0px"
	 viewBox="0 0 100 100" enable-background="new 0 0 100 100" xml:space="preserve">
<g>
	<path fill="#2C4351" d="M64.4,57.2c0.8,0.3,1.6,0.4,2.4,0.4c3.1,0,6-2,7-5c1.3-3.9-0.7-8.1-4.6-9.4c-0.8-0.3-1.6-0.4-2.4-0.4
		c-3.1,0-6,2-7,5c-0.6,1.9-0.5,3.9,0.3,5.6C61,55.2,62.6,56.5,64.4,57.2z M63.6,49.1c0.5-1.4,1.8-2.3,3.2-2.3c0.4,0,0.8,0.1,1.1,0.2
		c1.8,0.6,2.7,2.6,2.1,4.4c-0.6,1.7-2.6,2.7-4.4,2.1c-0.9-0.3-1.6-0.9-2-1.7C63.3,50.9,63.3,49.9,63.6,49.1z"/>
	<path fill="#2C4351" d="M80.6,55.1c-0.6-0.2-1.3-0.3-2-0.3c-2.6,0-4.9,1.6-5.7,4.1c-1.1,3.2,0.6,6.6,3.7,7.7c0.6,0.2,1.3,0.3,2,0.3
		c2.6,0,4.9-1.6,5.7-4.1C85.5,59.6,83.8,56.2,80.6,55.1z M80.6,61.5c-0.4,1.1-1.6,1.7-2.7,1.3c-0.5-0.2-1-0.6-1.2-1.1
		c-0.2-0.5-0.3-1.1-0.1-1.6c0.3-0.8,1.1-1.4,2-1.4c0.2,0,0.5,0,0.7,0.1C80.4,59.2,81,60.4,80.6,61.5z"/>
	<path fill="#2C4351" d="M68.5,68.9c-1.9-1.5-4.1-2.2-6.5-2.2c-0.8,0-1.6,0.1-2.4,0.3c-0.2-0.2-0.5-0.4-0.7-0.6
		c-2.4-1.9-5.2-2.9-8.3-2.9c-0.1,0-0.3,0-0.4,0V51c0-6.5-3.7-12.1-9.2-14.8H24.5c-5.4,2.7-9.2,8.3-9.2,14.8v43
		c0,2.9,2.4,5.3,5.3,5.3h24.3c1,0,1.9-0.3,2.7-0.7c1.8,0.9,3.8,1.3,5.8,1.3c4.2,0,8-1.9,10.6-5.2c1.9-2.5,2.8-5.4,2.8-8.3
		c1.3-0.7,2.5-1.7,3.5-2.9C73.8,79.1,73,72.5,68.5,68.9z M50.6,67.4c1.8,0,3.5,0.5,5,1.4c-0.7,0.5-1.3,1.2-1.9,1.9
		c-0.6,0.8-1.1,1.6-1.4,2.5c-0.7,0.1-1.4,0.2-2,0.3v-6.1C50.3,67.4,50.5,67.4,50.6,67.4z M28.4,43.9C22.8,45.7,23,57.5,23,57.6
		l0,31.7c0,1.1-0.9,2-2,2c-1.1,0-2-0.9-2-2V57.7c0-0.5-0.4-14.7,8.1-17.6c1-0.4,2.2,0.2,2.5,1.3C30,42.4,29.5,43.5,28.4,43.9z
		 M60.8,92.4C59,94.7,56.3,96,53.4,96c-1.2,0-2.3-0.2-3.3-0.6c0.1-0.4,0.2-0.9,0.2-1.3V77.6c0.4-0.1,0.8-0.3,1.2-0.3
		c0,0.4,0,0.8,0.1,1.2c0.3,2.8,1.7,5.3,4,7c1.9,1.5,4.1,2.2,6.5,2.2c0.3,0,0.5,0,0.8,0C62.6,89.4,61.9,91,60.8,92.4z M67.1,81.2
		c-1.3,1.6-3.1,2.5-5.2,2.5c-1.5,0-2.9-0.5-4-1.4c-1.4-1.1-2.3-2.6-2.5-4.4c-0.2-1.7,0.3-3.5,1.3-4.8c1.3-1.6,3.1-2.5,5.2-2.5
		c1.5,0,2.9,0.5,4,1.4C68.9,74.3,69.4,78.4,67.1,81.2z"/>
	<rect x="24" y="19.3" fill="#2C4351" width="17.4" height="14"/>
</g>
</svg>
