<?xml version="1.0" encoding="utf-8"?>
<!-- Generator: Adobe Illustrator 18.1.1, SVG Export Plug-In . SVG Version: 6.00 Build 0)  -->
<!DOCTYPE svg PUBLIC "-//W3C//DTD SVG 1.1//EN" "http://www.w3.org/Graphics/SVG/1.1/DTD/svg11.dtd">
<svg version="1.1" id="Layer_1" xmlns="http://www.w3.org/2000/svg" xmlns:xlink="http://www.w3.org/1999/xlink" x="0px" y="0px"
	 viewBox="0 0 100 100" enable-background="new 0 0 100 100" xml:space="preserve">
<g>
	<polygon fill="#2C4351" points="86.7,39.2 14,39.2 10.8,43.4 90.1,43.4 	"/>
	<path fill="#2C4351" d="M62.8,46.4l-1.1,4.5h-20l-1-4.5H10.2l14.5,40.8h51.8l14.6-40.8H62.8z M21.7,52.1c-1,0-1.8-0.8-1.8-1.8
		c0-1,0.8-1.8,1.8-1.8c1,0,1.8,0.8,1.8,1.8C23.5,51.2,22.7,52.1,21.7,52.1z M29,52.1c-1,0-1.8-0.8-1.8-1.8c0-1,0.8-1.8,1.8-1.8
		c1,0,1.8,0.8,1.8,1.8C30.8,51.2,30,52.1,29,52.1z"/>
	<path fill="#2C4351" d="M25.5,25.2c0.2-1.9,2.1-2.4,2.1-2.4h45.2c2.3-0.1,2.5,2,2.5,2v9.8h6.1V17.6l-9.1-9.4H29.7l-9.9,9.2
		l-0.2,17.3h5.9V25.2z"/>
	<path fill="#2C4351" d="M74.9,91H26.1c-0.6,0-1,0.5-1,1v7c0,0.6,0.5,1,1,1h48.9c0.6,0,1-0.5,1-1v-7C75.9,91.4,75.5,91,74.9,91z"/>
</g>
</svg>
