<?xml version="1.0" encoding="utf-8"?>
<!-- Generator: Adobe Illustrator 18.1.1, SVG Export Plug-In . SVG Version: 6.00 Build 0)  -->
<!DOCTYPE svg PUBLIC "-//W3C//DTD SVG 1.1//EN" "http://www.w3.org/Graphics/SVG/1.1/DTD/svg11.dtd">
<svg version="1.1" id="Layer_1" xmlns="http://www.w3.org/2000/svg" xmlns:xlink="http://www.w3.org/1999/xlink" x="0px" y="0px"
	 viewBox="0 0 100 100" enable-background="new 0 0 100 100" xml:space="preserve">
<g>
	<path fill="#2C4351" d="M10.5,100H47V67.6H10.5V100z M30.4,88h-3.3v-4h3.3V88z M16.3,74.6h25v4h-25V74.6z"/>
	<path fill="#2C4351" d="M53,45.8V100h36.4V45.8H53z M70.9,91.5c-3.4,0-6.1-2.7-6.1-6.1c0-3.4,2.7-6.1,6.1-6.1
		c3.4,0,6.1,2.7,6.1,6.1C77,88.8,74.2,91.5,70.9,91.5z M70.9,76C63.8,76,58,70.2,58,63.1c0-7.1,5.8-12.9,12.9-12.9
		c7.1,0,12.9,5.8,12.9,12.9C83.8,70.2,78,76,70.9,76z"/>
	<circle fill="#2C4351" cx="70.9" cy="63.1" r="4.5"/>
</g>
</svg>
