<?xml version="1.0" encoding="utf-8"?>
<!-- Generator: Adobe Illustrator 18.1.1, SVG Export Plug-In . SVG Version: 6.00 Build 0)  -->
<!DOCTYPE svg PUBLIC "-//W3C//DTD SVG 1.1//EN" "http://www.w3.org/Graphics/SVG/1.1/DTD/svg11.dtd">
<svg version="1.1" id="Layer_1" xmlns="http://www.w3.org/2000/svg" xmlns:xlink="http://www.w3.org/1999/xlink" x="0px" y="0px"
	 viewBox="0 0 100 100" enable-background="new 0 0 100 100" xml:space="preserve">
<path fill="#2C4351" d="M97.5,87.1v1.6c0,1.5-1.2,2.7-2.7,2.7h-6.2C88,97,84.1,100,78.3,100c-5.9,0-9.5-3-10.3-8.7H33.1
	c-0.5,5.7-4.5,8.7-10.4,8.7c-5.8,0-9.4-3-10.3-8.7H5.2c-1.6,0-2.8-1.2-2.8-2.7v-1.6c0-1.5,1.2-2.7,2.8-2.7c3.5-27.5,26.5-33,43.4-33
	c14.5,0,23,6.1,25.4,15.1c12.6,1.3,19.8,5.2,20.8,17.9C96.3,84.3,97.5,85.6,97.5,87.1 M18.6,89.4c0,2.8,1.6,4.2,4.1,4.2
	c2.7,0,4.2-1.4,4.2-4.2c0-2.7-1.6-4.2-4.2-4.2C20.2,85.2,18.6,86.7,18.6,89.4 M25.9,62.7c-0.5,0.6-0.6,1.1-0.6,1.8
	c0,1.3,1,2.3,2.3,2.3h17.1c0.8,0,1.4-0.6,1.4-1.4v-8.2c0-0.8-0.6-1.5-1.4-1.5C37.9,55.8,29.2,57.7,25.9,62.7 M50.4,65.4
	c0,0.7,0.6,1.4,1.5,1.4h14.6c0.8,0,1.5-0.6,1.5-1.4c0-0.4-0.1-0.7-0.4-1.1c-2.8-6.3-9.2-8.5-15.7-8.5c-0.8,0-1.5,0.6-1.5,1.5V65.4z
	 M74.2,89.4c0,2.8,1.6,4.2,4.1,4.2c2.6,0,4.1-1.4,4.1-4.2c0-2.7-1.6-4.2-4.1-4.2C75.8,85.2,74.2,86.7,74.2,89.4"/>
</svg>
