<?xml version="1.0" encoding="utf-8"?>
<!-- Generator: Adobe Illustrator 18.1.1, SVG Export Plug-In . SVG Version: 6.00 Build 0)  -->
<!DOCTYPE svg PUBLIC "-//W3C//DTD SVG 1.1//EN" "http://www.w3.org/Graphics/SVG/1.1/DTD/svg11.dtd">
<svg version="1.1" id="Layer_1" xmlns="http://www.w3.org/2000/svg" xmlns:xlink="http://www.w3.org/1999/xlink" x="0px" y="0px"
	 viewBox="0 0 100 100" enable-background="new 0 0 100 100" xml:space="preserve">
<g>
	<path fill="#2C4351" d="M82.5,19.9c-4.8,0-8.2,2.1-9.4,6.2c-1.2-4.1-4.6-6.2-9.4-6.2c-6.2,0-10,3.5-10,10.1c0,3.2,0.9,6,2.8,7.8
		l15,14c0.4,0.4,0.9,0.6,1.5,0.6c0.6,0,1.1-0.2,1.5-0.6l15-14c1.9-1.8,2.8-4.6,2.8-7.8C92.5,23.4,88.7,19.9,82.5,19.9z"/>
	<path fill="#2C4351" d="M70.4,64.5c-0.2,0-0.3,0-0.4,0v0c0,0-0.3,0-0.8,0.1c-1.8,0.3-3.3,1.3-4.4,2.6c-1.9,1.9-3.9,5.2-4.9,10.9
		c-3.6-2.3-8.6-3.8-14.1-3.8c-0.2,0-0.5,0-0.7,0c-0.2,0-0.5,0-0.7,0c-5.5,0-10.5,1.5-14.1,3.8c-1-5.6-2.9-8.9-4.9-10.9
		c-1.1-1.3-2.6-2.3-4.4-2.6c-0.5-0.1-0.8-0.1-0.8-0.1v0c-0.1,0-0.3,0-0.4,0c-4.1,0-7.5,3.3-7.5,7.5c0,3.6,2.6,6.6,5.9,7.3
		c0.5,4.9,2.1,14.1,5.2,17.5h3.3c0,0.2,0,0.3,0,0.5c0,1.5,1.2,2.7,2.7,2.7h1.9c1.5,0,2.7-1.2,2.7-2.7c0-0.2,0-0.3,0-0.5h6.4h9.5h6.4
		c0,0.2,0,0.3,0,0.5c0,1.5,1.2,2.7,2.7,2.7h1.9c1.5,0,2.7-1.2,2.7-2.7c0-0.2,0-0.3,0-0.5h3.3c3.1-3.4,4.7-12.6,5.2-17.5
		c3.4-0.7,5.9-3.7,5.9-7.3C77.8,67.9,74.5,64.5,70.4,64.5z"/>
	<path fill="#2C4351" d="M27.2,65.5c2.1,2.1,3.7,5.1,4.7,8.7c3.6-1.6,7.9-2.5,12.3-2.5c0.2,0,0.4,0,0.5,0l0.2,0l0.2,0
		c0.2,0,0.4,0,0.5,0c4.4,0,8.7,0.9,12.3,2.5c1-3.7,2.6-6.6,4.7-8.7c1.3-1.5,3-2.6,4.8-3.1c-0.8-7.4-10.6-12-22.6-12
		c-12,0-21.7,4.6-22.6,12C24.3,62.9,25.9,64,27.2,65.5z"/>
</g>
</svg>
