<?xml version="1.0" encoding="UTF-8" standalone="no"?>
<svg
   xmlns:dc="http://purl.org/dc/elements/1.1/"
   xmlns:cc="http://creativecommons.org/ns#"
   xmlns:rdf="http://www.w3.org/1999/02/22-rdf-syntax-ns#"
   xmlns:svg="http://www.w3.org/2000/svg"
   xmlns="http://www.w3.org/2000/svg"
   viewBox="0 0 33.333332 33.333332"
   height="33.333332"
   width="33.333332"
   xml:space="preserve"
   id="svg2"
   version="1.1"><metadata
     id="metadata8"><rdf:RDF><cc:Work
         rdf:about=""><dc:format>image/svg+xml</dc:format><dc:type
           rdf:resource="http://purl.org/dc/dcmitype/StillImage" /></cc:Work></rdf:RDF></metadata><defs
     id="defs6"><clipPath
       id="clipPath22"
       clipPathUnits="userSpaceOnUse"><path
         id="path20"
         d="M 0,25 H 25 V 0 H 0 Z" /></clipPath></defs><g
     transform="matrix(1.3333333,0,0,-1.3333333,0,33.333333)"
     id="g10"><g
       transform="translate(5.4171,4.0176)"
       id="g12"><path
         id="path14"
         style="fill:#2C4351;fill-opacity:1;fill-rule:nonzero;stroke:none"
         d="m 0,0 v -1.93 h -1.408 v -2.088 h 17.53 V -1.93 H 14.713 V 0 Z" /></g><g
       id="g16"><g
         clip-path="url(#2C4351th22)"
         id="g18"><g
           transform="translate(16.8957,12.1044)"
           id="g24"><path
             id="path26"
             style="fill:#2C4351;fill-opacity:1;fill-rule:nonzero;stroke:none"
             d="m 0,0 c -0.417,0 -0.783,0.365 -0.783,0.783 v 0.939 c 0,0.417 0.366,0.782 0.783,0.782 0.417,0 0.783,-0.365 0.783,-0.782 V 0.783 C 0.783,0.365 0.47,0 0,0 M -0.209,8.139 C 0.313,7.357 0.626,6.47 0.626,5.478 H -2.87 Z m -3.548,2.035 c 1.2,-0.104 2.296,-0.626 3.079,-1.461 L -3.757,5.635 Z m -0.73,-4.539 -3.078,3.078 c 0.782,0.835 1.878,1.357 3.078,1.461 z m -4.33,-0.157 c 0,0.992 0.313,1.931 0.834,2.661 L -5.322,5.478 Z M 1.774,11.896 H -10.017 V -7.409 H 1.826 v 19.305 z" /></g></g></g></g></svg>