<?xml version="1.0" encoding="utf-8"?>
<!-- Generator: Adobe Illustrator 18.1.1, SVG Export Plug-In . SVG Version: 6.00 Build 0)  -->
<!DOCTYPE svg PUBLIC "-//W3C//DTD SVG 1.1//EN" "http://www.w3.org/Graphics/SVG/1.1/DTD/svg11.dtd">
<svg version="1.1" id="Layer_1" xmlns="http://www.w3.org/2000/svg" xmlns:xlink="http://www.w3.org/1999/xlink" x="0px" y="0px"
	 viewBox="0 0 100 100" enable-background="new 0 0 100 100" xml:space="preserve">
<path fill="#2C4351" d="M91.5,30.7l-3.5-4c-0.5-0.5-1.2-0.6-1.8-0.1l0,0l-9-10.2L55.3,35.8l9,10.2L64,46.2c-0.5,0.5-0.6,1.2-0.1,1.8
	l0.1,0.1L9.6,93.1c-1.7,1.5-1.9,4-0.5,5.6c1.4,1.6,4,1.7,5.7,0.2l53-46.7c0.4,0.2,1,0.2,1.4-0.2l22.2-19.7
	C91.9,32,92,31.2,91.5,30.7z M66.6,43.7L59.8,36l3.1-2.7l4.3,3.2L64.3,32l3.3-2.9l4.3,3.2l-2.8-4.5l3.3-2.9l4.3,3.2l-2.8-4.5
	l3.1-2.7l6.8,7.7L66.6,43.7z"/>
</svg>
