<?xml version="1.0" encoding="utf-8"?>
<!-- Generator: Adobe Illustrator 18.1.1, SVG Export Plug-In . SVG Version: 6.00 Build 0)  -->
<!DOCTYPE svg PUBLIC "-//W3C//DTD SVG 1.1//EN" "http://www.w3.org/Graphics/SVG/1.1/DTD/svg11.dtd">
<svg version="1.1" id="Layer_1" xmlns="http://www.w3.org/2000/svg" xmlns:xlink="http://www.w3.org/1999/xlink" x="0px" y="0px"
	 viewBox="0 0 100 100" enable-background="new 0 0 100 100" xml:space="preserve">
<g>
	<path fill="#2C4351" d="M87.4,28.9H60.2l-6.5-9.6c0.7-0.8,1-1.8,1-3c0-2.6-2.1-4.8-4.8-4.8c-2.6,0-4.8,2.1-4.8,4.8
		c0,1.1,0.4,2.2,1,3l-6.5,9.6H12.6c-4.2,0-7.6,3.4-7.6,7.6v56c0,4.2,3.4,7.6,7.6,7.6h74.8c4.2,0,7.6-3.4,7.6-7.6v-56
		C95,32.2,91.6,28.9,87.4,28.9z M47.7,20.4c0.7,0.4,1.5,0.6,2.3,0.6c0.8,0,1.6-0.2,2.3-0.6l5.7,8.4H42L47.7,20.4z M88.2,89.6
		c0,2.1-1.7,3.7-3.7,3.7H15.6c-2.1,0-3.7-1.7-3.7-3.7V39.2c0-2.1,1.7-3.7,3.7-3.7h68.9c2.1,0,3.7,1.7,3.7,3.7V89.6z"/>
	<circle fill="#2C4351" cx="30.9" cy="54.9" r="6.5"/>
	<path fill="#2C4351" d="M57.1,63.5l-6.1-8L38.5,77.2c-1.5-1.4-4-2.8-7.7-2.8c-8.2,0-12,8-12,8h16.7l0,0l0,0l45.7,0.4L64.9,48.4
		L57.1,63.5z"/>
</g>
</svg>
