<?xml version="1.0" encoding="utf-8"?>
<!-- Generator: Adobe Illustrator 18.1.1, SVG Export Plug-In . SVG Version: 6.00 Build 0)  -->
<!DOCTYPE svg PUBLIC "-//W3C//DTD SVG 1.1//EN" "http://www.w3.org/Graphics/SVG/1.1/DTD/svg11.dtd">
<svg version="1.1" id="Layer_1" xmlns="http://www.w3.org/2000/svg" xmlns:xlink="http://www.w3.org/1999/xlink" x="0px" y="0px"
	 viewBox="0 0 100 100" enable-background="new 0 0 100 100" xml:space="preserve">
<g>
	<path fill="#2C4351" d="M32.7,67c-6.1,0-11.1,5-11.1,11.1c0,6.1,5,11.1,11.1,11.1c6.1,0,11.1-5,11.1-11.1
		C43.8,71.9,38.8,67,32.7,67z"/>
	<path fill="#2C4351" d="M84.5,31.1L38.8,12.6L37,17l34.2,13.8H18.8c-7.4,0-13.3,6-13.3,13.3v42.5c0,7.4,6,13.3,13.3,13.3h63.5
		c7.4,0,13.3-6,13.3-13.3V44.2C95.6,37.6,90.8,32.1,84.5,31.1z M32.7,93.7c-8.7,0-15.7-7-15.7-15.7c0-8.7,7-15.7,15.7-15.7
		c8.7,0,15.7,7,15.7,15.7C48.4,86.7,41.3,93.7,32.7,93.7z M84.1,49.9c0,3.7-3,6.6-6.6,6.6H34.7v-9.3c0-1.1-0.9-2-2-2
		c-1.1,0-2,0.9-2,2v9.3h-7c-3.7,0-6.6-3-6.6-6.6v-3c0-3.7,3-6.6,6.6-6.6h53.8c3.7,0,6.6,3,6.6,6.6V49.9z"/>
	
		<rect x="29.4" y="10.4" transform="matrix(0.927 0.3751 -0.3751 0.927 7.2296 -11.4541)" fill="#2C4351" width="7.2" height="4.8"/>
</g>
</svg>
