<?xml version="1.0" encoding="UTF-8" standalone="no"?>
<svg
   xmlns:dc="http://purl.org/dc/elements/1.1/"
   xmlns:cc="http://creativecommons.org/ns#"
   xmlns:rdf="http://www.w3.org/1999/02/22-rdf-syntax-ns#"
   xmlns:svg="http://www.w3.org/2000/svg"
   xmlns="http://www.w3.org/2000/svg"
   viewBox="0 0 33.333332 33.333332"
   height="33.333332"
   width="33.333332"
   xml:space="preserve"
   id="svg2"
   version="1.1"><metadata
     id="metadata8"><rdf:RDF><cc:Work
         rdf:about=""><dc:format>image/svg+xml</dc:format><dc:type
           rdf:resource="http://purl.org/dc/dcmitype/StillImage" /></cc:Work></rdf:RDF></metadata><defs
     id="defs6"><clipPath
       id="clipPath18"
       clipPathUnits="userSpaceOnUse"><path
         id="path16"
         d="M 0,25 H 25 V 0 H 0 Z" /></clipPath></defs><g
     transform="matrix(1.3333333,0,0,-1.3333333,0,33.333333)"
     id="g10"><g
       id="g12"><g
         clip-path="url(#2C4351th18)"
         id="g14"><g
           transform="translate(12.9981,13.836)"
           id="g20"><path
             id="path22"
             style="fill:#2C4351;fill-opacity:1;fill-rule:nonzero;stroke:none"
             d="m 0,0 0.002,0.003 c -2.016,-0.014 -6.868,-0.034 -8.449,0.079 -0.513,0.036 -0.959,-0.06 -1.343,-0.247 -0.986,0.302 -2.736,2.055 -2.736,2.055 -0.611,-1.804 0.913,-3.282 1.331,-3.645 -0.202,-0.475 -0.324,-0.985 -0.346,-1.473 -0.024,-0.531 0.05,-1.231 0.157,-1.929 -0.305,-1.904 -0.724,-5.159 -0.465,-7.386 0.079,-0.674 0.651,-1.17 1.314,-1.17 0.051,0 0.103,0.002 0.155,0.008 0.726,0.085 1.246,0.743 1.161,1.469 -0.17,1.459 0.018,3.543 0.242,5.234 0.304,0.451 0.765,0.797 1.465,0.681 1.726,-0.288 3.525,-2.518 5.395,-2.662 0.93,-0.072 1.593,-0.036 2.202,0.159 v -3.54 c 0,-0.731 0.593,-1.324 1.324,-1.324 0.731,0 1.323,0.593 1.323,1.324 v 5.392 c 0.988,1.063 1.909,2.558 2.492,3.896 l -5.211,3.074 z" /></g><g
           transform="translate(19.2747,16.6082)"
           id="g24"><path
             id="path26"
             style="fill:#2C4351;fill-opacity:1;fill-rule:nonzero;stroke:none"
             d="m 0,0 c -0.328,0 -0.595,0.266 -0.595,0.595 0,0.328 0.267,0.594 0.595,0.594 0.328,0 0.595,-0.266 0.595,-0.594 C 0.595,0.266 0.328,0 0,0 m 1.966,1.626 c 0,0 -1.576,0.999 -3.182,1.044 L -1.419,4.06 C -1.51,4.689 -2.098,5.128 -2.724,5.033 -3.353,4.941 -3.788,4.357 -3.697,3.728 l 0.278,-1.91 C -4.266,0.953 -4.788,-0.443 -5.076,-1.47 l 0.004,-0.003 0.006,0.007 0.009,-0.015 4.742,-2.798 c 0.677,0.933 1.618,0.984 2.425,1.157 1.007,0.216 2.039,0.216 2.614,1.295 0.576,1.079 0.672,3.405 0.672,3.405 z" /></g><g
           transform="translate(12.8363,14.3944)"
           id="g28"><path
             id="path30"
             style="fill:#2C4351;fill-opacity:1;fill-rule:nonzero;stroke:none"
             d="M 0,0 C 0.14,-0.092 0.282,-0.184 0.425,-0.275 L 1.115,0.47 C 0.91,0.6 0.708,0.73 0.509,0.863 -5.68,4.98 -9.121,10.425 -9.157,10.483 L -10.006,9.955 C -9.856,9.713 -6.397,4.233 0,0" /></g></g></g></g></svg>