<?xml version="1.0" encoding="utf-8"?>
<!-- Generator: Adobe Illustrator 19.2.1, SVG Export Plug-In . SVG Version: 6.00 Build 0)  -->
<svg version="1.1" id="Layer_1" xmlns="http://www.w3.org/2000/svg" xmlns:xlink="http://www.w3.org/1999/xlink" x="0px" y="0px"
	 viewBox="0 0 40 40" style="enable-background:new 0 0 40 40;" xml:space="preserve">
<style type="text/css">
	.st0{fill:#2C4351;}
</style>
<g>
	<path class="st0" d="M38.7,22.2c0.1-0.4,0-0.6-0.2-0.9c-0.2-0.3-0.6-0.3-1-0.3H2.7c-0.4,0-0.8,0-1,0.4c-0.2,0.3-0.3,0.5-0.2,0.9
		C3.6,29.8,10,35,17.6,36H4.5c-0.7,0-1.3,0.8-1.3,1.5c0,0.7,0.6,1.5,1.3,1.5h31.2c0.7,0,1.3-0.8,1.3-1.5c0-0.7-0.6-1.5-1.3-1.5H22.5
		C30.2,35,36.6,29.7,38.7,22.2z"/>
	<path class="st0" d="M30.3,16.3V7.4c0-0.7-0.6-1.3-1.3-1.3c-0.7,0-1.3,0.6-1.3,1.3v8.9c0,0.7,0.6,1.3,1.3,1.3
		C29.7,17.6,30.3,17,30.3,16.3z"/>
	<path class="st0" d="M21.4,11.8V2.9c0-0.7-0.6-1.3-1.3-1.3c-0.7,0-1.3,0.6-1.3,1.3v8.9c0,0.7,0.6,1.3,1.3,1.3
		C20.8,13.1,21.4,12.5,21.4,11.8z"/>
	<path class="st0" d="M12.5,16.3V7.4c0-0.7-0.6-1.3-1.3-1.3c-0.7,0-1.3,0.6-1.3,1.3v8.9c0,0.7,0.6,1.3,1.3,1.3
		C11.9,17.6,12.5,17,12.5,16.3z"/>
</g>
</svg>
