<?xml version="1.0" encoding="utf-8"?>
<!-- Generator: Adobe Illustrator 18.1.1, SVG Export Plug-In . SVG Version: 6.00 Build 0)  -->
<!DOCTYPE svg PUBLIC "-//W3C//DTD SVG 1.1//EN" "http://www.w3.org/Graphics/SVG/1.1/DTD/svg11.dtd">
<svg version="1.1" id="Layer_1" xmlns="http://www.w3.org/2000/svg" xmlns:xlink="http://www.w3.org/1999/xlink" x="0px" y="0px"
	 viewBox="0 0 100 100" enable-background="new 0 0 100 100" xml:space="preserve">
<g>
	<g>
		<path fill="#2C4351" d="M92.6,88.6c0,7.5-4.2,11.4-11.2,11.4c-7,0-11.3-3.9-11.3-11.4c0-3.5,1.1-6.4,3-8.3l-3.9-7v4.4
			c0,6.3-5.4,11.3-11.7,11.3H39c-0.1,7.2-4.3,11-11.1,11c-6.9,0-11.2-3.8-11.3-11h-5.3c-2.2,0-3.9-1.7-3.9-4c0-2.2,1.8-4,3.9-4
			c1.8-7.6,6.3-13.3,14.9-13.3h16.5c2.6,0,4.5,2.1,4.5,4.5c0,1.6-0.1,2.9-1,4.4L43.9,81h13.5c2.2,0,3.9-1.1,3.9-3.3V65.5
			c0-1.5,0.7-2.8,1.9-3.5l-1.6-2.8c-0.2-0.4-0.3-0.9-0.3-1.3c0-1.3,1.1-2.7,2.7-2.7c1,0,1.8,0.5,2.3,1.4l11.5,21.1
			c1.2-0.3,2.3-0.5,3.8-0.5C88.3,77.4,92.6,81.2,92.6,88.6 M22.6,66c-2.4,0-4.1-2-4.1-4.1V60c0-2.4,1.8-4.2,4.1-4.2h22.9
			c2.4,0,4.1,1.9,4.1,4.2v1.9c0,2.2-1.8,4.1-4.1,4.1H22.6z M23.4,89c0.1,2.7,1.7,4.1,4.5,4.1c2.6,0,4.1-1.5,4.3-4.1H23.4z
			 M74.1,55.4c0,0.9-0.7,1.6-1.6,1.6c-0.3,0-0.6-0.1-1-0.3l-6.8-3.1h-5.1c-0.6,0-1.1-0.5-1.1-1.1v-3.1c0-0.6,0.5-1.1,1.1-1.1h5.1
			l6.8-3.1c0.4-0.2,0.7-0.3,1-0.3c0.9,0,1.6,0.7,1.6,1.6V55.4z M76.9,88.6c0,3.1,1.8,4.5,4.5,4.5c2.7,0,4.4-1.5,4.4-4.5
			c0-3-1.8-4.5-4.4-4.5C78.6,84.1,76.9,85.7,76.9,88.6"/>
	</g>
</g>
</svg>
