<?xml version="1.0" encoding="utf-8"?>
<!-- Generator: Adobe Illustrator 18.1.1, SVG Export Plug-In . SVG Version: 6.00 Build 0)  -->
<!DOCTYPE svg PUBLIC "-//W3C//DTD SVG 1.1//EN" "http://www.w3.org/Graphics/SVG/1.1/DTD/svg11.dtd">
<svg version="1.1" id="Layer_1" xmlns="http://www.w3.org/2000/svg" xmlns:xlink="http://www.w3.org/1999/xlink" x="0px" y="0px"
	 viewBox="0 0 100 100" enable-background="new 0 0 100 100" xml:space="preserve">
<g>
	<path fill="#2C4351" d="M49.7,35.9l1.7-2l-1.7-1.9c-6.2-6.9-12.9-10.4-20-10.4c-11.9,0-20.1,10.1-20.4,10.6l-1.6,2L9.3,36
		c6.2,6.7,12.9,10.1,19.9,10.1C41.1,46.1,49.3,36.3,49.7,35.9z M26.1,28c-1.3,1.4-2.2,3.5-2.2,5.8c0,2.4,0.9,4.6,2.3,5.9
		c-3.5-0.7-7-2.7-10.4-5.8C17.8,31.9,21.5,29,26.1,28z M33.2,39.5c1.3-1.4,2.1-3.4,2.1-5.7c0-2.3-0.8-4.4-2.2-5.8
		c3.4,0.8,6.7,2.8,9.9,5.9C41.1,35.8,37.6,38.4,33.2,39.5z"/>
	<path fill="#2C4351" d="M82.8,21.6H55.6L45.9,100h46.5L82.8,21.6z M71.4,90c0,1.2-1,2.2-2.2,2.2c-1.2,0-2.2-1-2.2-2.2v-8.9
		c0-1.2,1-2.2,2.2-2.2c1.2,0,2.2,1,2.2,2.2V90z M71.4,72c0,1.2-1,2.2-2.2,2.2c-1.2,0-2.2-1-2.2-2.2v-8.9c0-1.2,1-2.2,2.2-2.2
		c1.2,0,2.2,1,2.2,2.2V72z M71.4,54.1c0,1.2-1,2.2-2.2,2.2c-1.2,0-2.2-1-2.2-2.2v-8.9c0-1.2,1-2.2,2.2-2.2c1.2,0,2.2,1,2.2,2.2V54.1
		z M71.4,36.1c0,1.2-1,2.2-2.2,2.2c-1.2,0-2.2-1-2.2-2.2v-8.9c0-1.2,1-2.2,2.2-2.2c1.2,0,2.2,1,2.2,2.2V36.1z"/>
</g>
</svg>
