<?xml version="1.0" encoding="utf-8"?>
<!-- Generator: Adobe Illustrator 18.1.1, SVG Export Plug-In . SVG Version: 6.00 Build 0)  -->
<!DOCTYPE svg PUBLIC "-//W3C//DTD SVG 1.1//EN" "http://www.w3.org/Graphics/SVG/1.1/DTD/svg11.dtd">
<svg version="1.1" id="Layer_1" xmlns="http://www.w3.org/2000/svg" xmlns:xlink="http://www.w3.org/1999/xlink" x="0px" y="0px"
	 viewBox="0 0 100 100" enable-background="new 0 0 100 100" xml:space="preserve">
<path fill="#2C4351" d="M55.5,39.1l19.2-19.2L65.1,9.7H32l-10.5,9.8l19.7,19.7c-13.5,3.3-23.5,15.5-23.5,30
	c0,17,13.8,30.9,30.9,30.9c17,0,30.9-13.8,30.9-30.9C79.4,54.5,69.1,42.2,55.5,39.1z M48.5,38.3c-0.2,0-0.4,0-0.7,0l-5.5-16.9
	l12.2,0l-5.7,16.8C48.7,38.3,48.6,38.3,48.5,38.3z M56.4,21.5l11,0L50.8,38.1L56.4,21.5z M56,17.9l-4.2-4.2h8.4L56,17.9L56,17.9z
	 M53.5,17.9l-9,0l4.1-4.1h0.7L53.5,17.9z M41.9,17.8l-0.9,0L37,13.7h9.1L41.9,17.8z M40.4,21.4l5.5,16.8L29,21.4L40.4,21.4z
	 M67.3,17.9l-8.8,0l4.2-4.2h0.6L67.3,17.9z M33.6,13.7h0.8l4.1,4.1l-9.3,0L33.6,13.7z M48.5,92.1c-12.7,0-23-10.3-23-23
	c0-12.6,10.1-22.8,22.6-23l0.1,0.1l0.1-0.1c0,0,0.1,0,0.1,0c12.7,0,23,10.3,23,23C71.5,81.8,61.2,92.1,48.5,92.1z"/>
</svg>
