<?xml version="1.0" encoding="UTF-8" standalone="no"?>
<svg
   xmlns:dc="http://purl.org/dc/elements/1.1/"
   xmlns:cc="http://creativecommons.org/ns#"
   xmlns:rdf="http://www.w3.org/1999/02/22-rdf-syntax-ns#"
   xmlns:svg="http://www.w3.org/2000/svg"
   xmlns="http://www.w3.org/2000/svg"
   viewBox="0 0 33.333332 33.333332"
   height="33.333332"
   width="33.333332"
   xml:space="preserve"
   id="svg2"
   version="1.1"><metadata
     id="metadata8"><rdf:RDF><cc:Work
         rdf:about=""><dc:format>image/svg+xml</dc:format><dc:type
           rdf:resource="http://purl.org/dc/dcmitype/StillImage" /></cc:Work></rdf:RDF></metadata><defs
     id="defs6"><clipPath
       id="clipPath18"
       clipPathUnits="userSpaceOnUse"><path
         id="path16"
         d="M 0,25 H 25 V 0 H 0 Z" /></clipPath></defs><g
     transform="matrix(1.3333333,0,0,-1.3333333,0,33.333333)"
     id="g10"><g
       id="g12"><g
         clip-path="url(#2C4351th18)"
         id="g14"><g
           transform="translate(18.6821,12.3162)"
           id="g20"><path
             id="path22"
             style="fill:#2C4351;fill-opacity:1;fill-rule:nonzero;stroke:none"
             d="M 0,0 C 0.334,-0.395 0.674,-0.963 0.902,-1.774 0.856,-2.259 0.845,-2.788 0.879,-3.365 -0.623,-3.504 -1.935,-4.429 -2.787,-5.798 h 8.106 c -0.875,1.404 -2.233,2.342 -3.785,2.441 -0.05,0.732 -0.118,3.094 0.895,4.802 0.669,-0.221 2.459,-0.573 2.858,1.818 0,0 -2.158,1.044 -2.976,-1.259 C 1.903,1.498 1.356,0.612 1.062,-0.717 0.896,-0.404 0.642,-0.035 0.294,0.308 0.087,0.648 -1.124,2.413 -3.233,0.831 -3.233,0.831 -2.011,-1.392 0,0" /></g><g
           transform="translate(1.2515,6.5635)"
           id="g24"><path
             id="path26"
             style="fill:#2C4351;fill-opacity:1;fill-rule:nonzero;stroke:none"
             d="m 0,0 4.625,-0.002 v 0 c 0.358,0 0.698,0.157 0.93,0.43 C 5.787,0.7 5.887,1.062 5.83,1.415 L 5.277,4.792 7.884,4.804 7.883,1.212 c 0,-0.674 0.546,-1.221 1.22,-1.221 v 0 c 0.673,0 1.22,0.546 1.22,1.219 l 0.002,4.818 c 0,0.326 -0.129,0.637 -0.359,0.866 C 9.736,7.122 9.466,7.257 9.1,7.249 L 6.575,7.238 7.526,9.854 C 7.971,9.109 8.364,8.451 8.364,8.451 L 8.605,8.048 12.481,7.971 h 0.017 c 0.461,0 0.839,0.369 0.848,0.832 0.009,0.468 -0.363,0.855 -0.832,0.865 L 9.58,9.726 C 9.163,10.423 8.325,11.827 7.943,12.467 7.752,12.903 7.393,13.265 6.911,13.44 5.973,13.776 4.939,13.297 4.6,12.361 L 2.658,7.019 C 2.516,6.63 2.524,6.227 2.64,5.861 2.642,5.844 2.635,5.828 2.638,5.811 L 3.189,2.438 0.001,2.439 H 0 C -0.673,2.439 -1.219,1.894 -1.219,1.221 -1.22,0.547 -0.674,0 0,0" /></g><g
           transform="translate(10.0862,19.8388)"
           id="g28"><path
             id="path30"
             style="fill:#2C4351;fill-opacity:1;fill-rule:nonzero;stroke:none"
             d="M 0,0 C 1.275,-0.003 1.915,0.714 1.917,1.909 1.919,3.105 1.283,3.797 0.007,3.8 -1.268,3.802 -1.907,3.112 -1.909,1.917 -1.912,0.721 -1.275,0.003 0,0" /></g><path
           id="path32"
           style="fill:#2C4351;fill-opacity:1;fill-rule:nonzero;stroke:none"
           d="M 0,1.361 H 25 V 4.283 H 0 Z" /></g></g></g></svg>