<?xml version="1.0" encoding="utf-8"?>
<!-- Generator: Adobe Illustrator 18.1.1, SVG Export Plug-In . SVG Version: 6.00 Build 0)  -->
<!DOCTYPE svg PUBLIC "-//W3C//DTD SVG 1.1//EN" "http://www.w3.org/Graphics/SVG/1.1/DTD/svg11.dtd">
<svg version="1.1" id="Layer_1" xmlns="http://www.w3.org/2000/svg" xmlns:xlink="http://www.w3.org/1999/xlink" x="0px" y="0px"
	 viewBox="0 0 50 50" enable-background="new 0 0 50 50" xml:space="preserve">
<g>
	<path fill="#2C4351" d="M42,15.6c0-0.6-0.2-1.1-0.6-1.4c0.2-0.2,0.4-0.5,0.5-0.8c0.1-0.8-0.4-1.5-1.2-1.6L22.8,9c0-0.1,0-0.1,0-0.2
		c0.2-1-0.6-2-1.6-2.2L15.8,6c-1-0.2-2,0.6-2.2,1.6c0,0,0,0.1,0,0.1l-2.8-0.4c-0.8-0.1-1.5,0.4-1.6,1.2C9.1,9.1,9.7,9.8,10.4,10
		l24.6,3.8H9.3c-1,0-1.9,0.8-1.9,1.9c0,1,0.8,1.9,1.9,1.9h30.8C41.1,17.5,42,16.7,42,15.6z"/>
	<circle fill="#2C4351" cx="36.8" cy="45.4" r="4.6"/>
	<path fill="#2C4351" d="M30.4,45.4c0-3.5,2.9-6.4,6.4-6.4c0.6,0,1.2,0.1,1.8,0.3L40.1,19c0,0,0,0-0.1,0H12.9l2.2,26.3
		c0,0.1,0,0.2,0,0.3c0,0.1,0,0.2,0,0.3c0,2,1.6,3.7,3.7,3.7c1.2,0,2.3-0.6,3-1.5H31C30.6,47.2,30.4,46.3,30.4,45.4z M31.7,34.3
		l0.5-14.1c0-0.5,0.4-0.8,1-0.8c0.6,0,1,0.4,1,0.9l-0.5,14.1c0,0.5-0.4,0.8-1,0.8C32.2,35.2,31.7,34.8,31.7,34.3z M19.8,19.4
		c0.6,0,1,0.4,1,0.8l1,19.9c0,0.5-0.4,0.9-1,0.9c-0.6,0-1-0.4-1-0.8l-1-19.9C18.7,19.8,19.2,19.4,19.8,19.4z M26.9,41
		c-0.5,0-1-0.4-1-0.8l-0.1-20c0-0.5,0.5-0.8,1-0.8c0.5,0,1,0.4,1,0.8l0.1,20C27.9,40.6,27.5,41,26.9,41z"/>
</g>
</svg>
