<?xml version="1.0" encoding="utf-8"?>
<!-- Generator: Adobe Illustrator 18.1.1, SVG Export Plug-In . SVG Version: 6.00 Build 0)  -->
<!DOCTYPE svg PUBLIC "-//W3C//DTD SVG 1.1//EN" "http://www.w3.org/Graphics/SVG/1.1/DTD/svg11.dtd">
<svg version="1.1" id="Layer_1" xmlns="http://www.w3.org/2000/svg" xmlns:xlink="http://www.w3.org/1999/xlink" x="0px" y="0px"
	 viewBox="0 0 100 100" enable-background="new 0 0 100 100" xml:space="preserve">
<g>
	<path fill="#2C4351" d="M60.3,8.1H38.4L22,23.9v25.7l14.6,14.1v7h25.3V64L78,48V25.7L60.3,8.1z M49.1,55.8c-10.5,0-19-8.5-19-19
		c0-10.5,8.5-19,19-19c10.5,0,19,8.5,19,19C68.1,47.3,59.6,55.8,49.1,55.8z"/>
	<path fill="#2C4351" d="M44.6,74c-1.2-0.4-2.4,0.3-2.8,1.5l-3.2,10.7c-2.9,0.1-5.5,1.9-6.4,4.8c-1.2,3.6,0.8,7.5,4.5,8.7
		c3.6,1.2,7.5-0.8,8.7-4.5c0.9-2.9-0.2-6-2.5-7.7L46,76.8C46.4,75.6,45.7,74.4,44.6,74z"/>
	<path fill="#2C4351" d="M49.1,21.1c-1.4,0-2.6,1.2-2.6,2.6v10.6h-6.7c-1.4,0-2.6,1.2-2.6,2.6c0,1.4,1.2,2.6,2.6,2.6h9.2
		c1.4,0,2.6-1.2,2.6-2.6V23.7C51.7,22.2,50.5,21.1,49.1,21.1z"/>
</g>
</svg>
