<?xml version="1.0" encoding="utf-8"?>
<!-- Generator: Adobe Illustrator 18.1.1, SVG Export Plug-In . SVG Version: 6.00 Build 0)  -->
<!DOCTYPE svg PUBLIC "-//W3C//DTD SVG 1.1//EN" "http://www.w3.org/Graphics/SVG/1.1/DTD/svg11.dtd">
<svg version="1.1" id="Layer_1" xmlns="http://www.w3.org/2000/svg" xmlns:xlink="http://www.w3.org/1999/xlink" x="0px" y="0px"
	 viewBox="0 0 100 100" enable-background="new 0 0 100 100" xml:space="preserve">
<path fill="#2C4351" d="M78.2,40.5c0-15.5-13.1-28-29.3-28c-16.2,0-29.3,12.5-29.3,28c0,5.3,1.6,10.2,4.2,14.5h0
	c2.4,3.6,4.7,7.3,7.4,10.7c5,6.5,9,13.2,11.6,20.9c1.1,3.3,2.2,7,3.2,10.6c0.1,0.4,0.2,0.7,0.3,1.1c0.5,1,1.5,1.7,2.7,1.7
	c1.2,0,2.3-0.7,2.7-1.8c0.1-0.3,0.2-0.5,0.2-0.8c0.9-3.6,2.1-7.4,3.2-10.8c2.6-7.7,6.6-14.4,11.6-20.9c2.7-3.5,5-7.1,7.4-10.7h0
	C76.7,50.7,78.2,45.8,78.2,40.5z M37.8,58.7c0,0-1.8,1.5-4.1-0.7c-2.3-2.2-0.5-4,0.2-4.7l5.9-5.7c0.2,0,0.5,0.1,0.7,0.1
	c0.8,0,1.6-0.2,2.3-0.3c0.6-0.1,1.3-0.2,1.9-0.3c0.1,0,0.2,0,0.3,0c1.4,0,2.4,0.3,3,0.7L37.8,58.7z M64.4,59.1
	c-0.6,0.6-1.3,0.9-1.8,0.9c-1.2,0-2.1-1-2.6-1.5L50,46.8c0,0-1.8-1.5-5-1.5c-0.1,0-0.3,0-0.4,0c-1.5,0.1-2.9,0.6-4.1,0.6
	c-0.9,0-1.8-0.3-2.6-1.2l-8-11.3c0,0-2.2-4,1.2-9.9c0,0,0.5-0.6,1.1-0.6c0.2,0,0.4,0.1,0.6,0.3l32.2,32.1
	C64.9,55.3,66.4,57.1,64.4,59.1z M71.7,31.5l-10,10.7C58,44.9,54,41.8,54,41.8s-1.2-1.2-4.3-4.3c-3.1-3.1-0.5-7.7-0.5-7.7l10.2-10.1
	c0,0,1.5-1,2.3-0.2c0.8,0.8-0.2,2.1-0.2,2.1l-8.4,8.8c0,0-1.2,1.2,0,2.4c1.4,1.4,2.6,0.4,2.6,0.4l9-8.7c0,0,1.4-1,2.3-0.1
	c0.9,0.9-0.3,2.1-0.3,2.1l-8.5,9.1c0,0-1,1.3,0.1,2.4c1.2,1.2,2.3,0.4,2.3,0.4s8.9-8.8,9.1-8.8c0,0,1.3-0.7,2,0
	C72.6,30.4,71.7,31.5,71.7,31.5z"/>
</svg>
