<?xml version="1.0" encoding="utf-8"?>
<!-- Generator: Adobe Illustrator 18.1.1, SVG Export Plug-In . SVG Version: 6.00 Build 0)  -->
<!DOCTYPE svg PUBLIC "-//W3C//DTD SVG 1.1//EN" "http://www.w3.org/Graphics/SVG/1.1/DTD/svg11.dtd">
<svg version="1.1" id="Layer_1" xmlns="http://www.w3.org/2000/svg" xmlns:xlink="http://www.w3.org/1999/xlink" x="0px" y="0px"
	 viewBox="0 0 100 100" enable-background="new 0 0 100 100" xml:space="preserve">
<g>
	<path fill="#2C4351" d="M86.7,47C82.5,28.5,65.8,14.6,46,14.6c-23.1,0-41.8,18.8-41.8,41.8c0,23,18.8,41.8,41.8,41.8
		c2.3,0,4.6-0.2,6.8-0.6c3.7,1.5,7.7,2.4,11.9,2.4c17.1,0,31.1-13.9,31.1-31.1C95.8,60.4,92.3,52.7,86.7,47z M11.5,56.4
		c0-19,15.5-34.5,34.5-34.5c13.1,0,24.6,7.4,30.4,18.3c-3.6-1.5-7.5-2.3-11.6-2.3c-17.1,0-31.1,13.9-31.1,31.1
		c0,8.4,3.4,16.1,8.9,21.7C25.2,88.9,11.5,74.2,11.5,56.4z M64.8,92.7C51.7,92.7,41,82,41,68.9c0-13.1,10.6-23.7,23.7-23.7
		c13.1,0,23.7,10.6,23.7,23.7C88.5,82,77.8,92.7,64.8,92.7z"/>
	<path fill="#2C4351" d="M47.4,31.2c0-1-0.8-1.8-1.8-1.8c-14.9,0-27.1,12.2-27.1,27.1c0,1,0.8,1.8,1.8,1.8c1,0,1.8-0.8,1.8-1.8
		c0-13,10.6-23.6,23.6-23.6C46.6,32.9,47.4,32.1,47.4,31.2z"/>
	<path fill="#2C4351" d="M64.7,51.1c-9.8,0-17.8,8-17.8,17.8c0,1,0.8,1.8,1.8,1.8c1,0,1.8-0.8,1.8-1.8c0-7.8,6.4-14.2,14.2-14.2
		c1,0,1.8-0.8,1.8-1.8C66.5,51.9,65.7,51.1,64.7,51.1z"/>
	<path fill="#2C4351" d="M80.5,71.2c-0.9-0.2-1.9,0.3-2.2,1.3c-1.3,4.9-5.1,8.7-9.9,10c-0.9,0.3-1.5,1.2-1.2,2.2
		c0.2,0.8,0.9,1.3,1.7,1.3c0.2,0,0.3,0,0.5-0.1c6-1.7,10.8-6.5,12.4-12.6C82,72.4,81.5,71.4,80.5,71.2z"/>
</g>
</svg>
