<?xml version="1.0" encoding="utf-8"?>
<!-- Generator: Adobe Illustrator 18.1.1, SVG Export Plug-In . SVG Version: 6.00 Build 0)  -->
<!DOCTYPE svg PUBLIC "-//W3C//DTD SVG 1.1//EN" "http://www.w3.org/Graphics/SVG/1.1/DTD/svg11.dtd">
<svg version="1.1" id="Layer_1" xmlns="http://www.w3.org/2000/svg" xmlns:xlink="http://www.w3.org/1999/xlink" x="0px" y="0px"
	 viewBox="0 0 100 100" enable-background="new 0 0 100 100" xml:space="preserve">
<g>
	<path fill="#2C4351" d="M84.1,14.4H17.5c-5.3,0-9.6,4.3-9.6,9.6v66.4c0,5.3,4.3,9.6,9.6,9.6h66.6c5.3,0,9.6-4.3,9.6-9.6V24
		C93.7,18.7,89.4,14.4,84.1,14.4z M86.8,90.4c0,1.5-1.2,2.7-2.7,2.7H17.5c-1.5,0-2.7-1.2-2.7-2.7V24c0-1.5,1.2-2.7,2.7-2.7h66.6
		c1.5,0,2.7,1.2,2.7,2.7V90.4z"/>
	<path fill="#2C4351" d="M39.7,77.7h22.1V36.6H39.7V77.7z M56.8,44.1v11c0,1.4-1.1,2.5-2.5,2.5h-7c-1.4,0-2.5-1.1-2.5-2.5v-11
		c0-1.4,1.1-2.5,2.5-2.5h7C55.6,41.6,56.8,42.7,56.8,44.1z"/>
	<circle fill="#2C4351" cx="21.2" cy="27.9" r="2.3"/>
	<circle fill="#2C4351" cx="21.2" cy="86.8" r="2.3"/>
	<circle fill="#2C4351" cx="80.1" cy="27.9" r="2.3"/>
	<circle fill="#2C4351" cx="80.1" cy="86.4" r="2.3"/>
</g>
</svg>
