<?xml version="1.0" encoding="utf-8"?>
<!-- Generator: Adobe Illustrator 18.1.1, SVG Export Plug-In . SVG Version: 6.00 Build 0)  -->
<!DOCTYPE svg PUBLIC "-//W3C//DTD SVG 1.1//EN" "http://www.w3.org/Graphics/SVG/1.1/DTD/svg11.dtd">
<svg version="1.1" id="Layer_1" xmlns="http://www.w3.org/2000/svg" xmlns:xlink="http://www.w3.org/1999/xlink" x="0px" y="0px"
	 viewBox="0 0 100 100" enable-background="new 0 0 100 100" xml:space="preserve">
<path fill="#2C4351" d="M73.3,53.1c-1.4,0.6-2.5,1.4-3.3,2.2C60.7,45.2,59.4,21,59.3,15.7c1.4,0.5,3.1,1.3,5.2,2.2
	c1,3.2,7.1,19.8,29.2,22.7l2.3,0.3l0.7-2.2c0.1-0.4,2.9-9.5-2.4-16.7c-4.7-6.4-13.9-9.1-27.4-8l-1.4,0.1c-2.7-1.2-4.8-2-6.2-2.5
	l0-0.3L49,9.6l0,0.1c-0.5,0-1,0.2-1.4,0.5c-17.9,12-24,41.7-25.6,51.7c-1.7-0.6-3.9-1.2-5.5-1c-3.1,0.3-14,4.4-13.7,17.4
	c0.3,13,9.8,21,20.7,21.8c10.9,0.8,23.6-9.3,23.1-22.5c-0.5-13.2-11.9-15.8-15.6-16.1c-1.3-0.1-2.5,0.1-3.4,0.3
	c1.7-9.8,7.1-34.4,21-45.6h5.4c0.2,6,1.5,29.5,11,41.5c-1.7,0.3-3.5,0.7-4.8,1.5c-2.7,1.6-10.6,10.2-4.6,21.7
	c6,11.5,18.2,14.4,28.3,10.3c10.1-4.1,17-18.9,10.6-30.5C88,49,76.6,51.7,73.3,53.1z M72.1,21.5c6.4,3.3,13.2,7.7,17.4,12.7
	C79.9,31.6,74.7,25.9,72.1,21.5z M89.7,25.1c1.4,1.9,2,4.1,2.2,6.1c-4.1-4.7-10.2-8.8-16-12C82.6,19.7,87.2,21.7,89.7,25.1z"/>
</svg>
