<?xml version="1.0" encoding="utf-8"?>
<!-- Generator: Adobe Illustrator 18.1.1, SVG Export Plug-In . SVG Version: 6.00 Build 0)  -->
<!DOCTYPE svg PUBLIC "-//W3C//DTD SVG 1.1//EN" "http://www.w3.org/Graphics/SVG/1.1/DTD/svg11.dtd">
<svg version="1.1" id="Layer_1" xmlns="http://www.w3.org/2000/svg" xmlns:xlink="http://www.w3.org/1999/xlink" x="0px" y="0px"
	 viewBox="0 0 100 100" enable-background="new 0 0 100 100" xml:space="preserve">
<path fill="#2C4351" d="M67.3,16.1h-4.9V6c0-1.7-1.3-3-3-3c-1.7,0-3,1.3-3,3v10.1H32.7c-2.8,0-5,2.3-5,5V95c0,2.8,2.3,5,5,5h34.6
	c2.8,0,5-2.3,5-5V21.2C72.4,18.4,70.1,16.1,67.3,16.1z M43.1,90.6c0,1.8-1.4,3.2-3.2,3.2h-2.2c-1.8,0-3.2-1.5-3.2-3.2V88
	c0-1.8,1.4-3.2,3.2-3.2h2.2c1.8,0,3.2,1.5,3.2,3.2V90.6z M43.1,79.6c0,1.8-1.4,3.2-3.2,3.2h-2.2c-1.8,0-3.2-1.5-3.2-3.2V77
	c0-1.8,1.4-3.2,3.2-3.2h2.2c1.8,0,3.2,1.4,3.2,3.2V79.6z M43.1,68.5c0,1.8-1.4,3.2-3.2,3.2h-2.2c-1.8,0-3.2-1.4-3.2-3.2v-2.6
	c0-1.8,1.4-3.2,3.2-3.2h2.2c1.8,0,3.2,1.4,3.2,3.2V68.5z M54.3,90.6c0,1.8-1.5,3.2-3.2,3.2h-2.2c-1.8,0-3.2-1.5-3.2-3.2V88
	c0-1.8,1.4-3.2,3.2-3.2h2.2c1.8,0,3.2,1.5,3.2,3.2V90.6z M54.3,79.6c0,1.8-1.5,3.2-3.2,3.2h-2.2c-1.8,0-3.2-1.5-3.2-3.2V77
	c0-1.8,1.4-3.2,3.2-3.2h2.2c1.8,0,3.2,1.4,3.2,3.2V79.6z M54.3,68.5c0,1.8-1.5,3.2-3.2,3.2h-2.2c-1.8,0-3.2-1.4-3.2-3.2v-2.6
	c0-1.8,1.4-3.2,3.2-3.2h2.2c1.8,0,3.2,1.4,3.2,3.2V68.5z M65.5,90.6c0,1.8-1.4,3.2-3.2,3.2h-2.2c-1.8,0-3.2-1.5-3.2-3.2V88
	c0-1.8,1.4-3.2,3.2-3.2h2.2c1.8,0,3.2,1.5,3.2,3.2V90.6z M65.5,79.6c0,1.8-1.4,3.2-3.2,3.2h-2.2c-1.8,0-3.2-1.5-3.2-3.2V77
	c0-1.8,1.4-3.2,3.2-3.2h2.2c1.8,0,3.2,1.4,3.2,3.2V79.6z M65.5,68.5c0,1.8-1.4,3.2-3.2,3.2h-2.2c-1.8,0-3.2-1.4-3.2-3.2v-2.6
	c0-1.8,1.4-3.2,3.2-3.2h2.2c1.8,0,3.2,1.4,3.2,3.2V68.5z M65.8,53.6c0,1.5-1.2,2.7-2.7,2.7H36.9c-1.5,0-2.7-1.2-2.7-2.7v-28
	c0-1.5,1.2-2.7,2.7-2.7h26.2c1.5,0,2.7,1.2,2.7,2.7V53.6z"/>
</svg>
