<?xml version="1.0" encoding="utf-8"?>
<!-- Generator: Adobe Illustrator 18.1.1, SVG Export Plug-In . SVG Version: 6.00 Build 0)  -->
<!DOCTYPE svg PUBLIC "-//W3C//DTD SVG 1.1//EN" "http://www.w3.org/Graphics/SVG/1.1/DTD/svg11.dtd">
<svg version="1.1" id="Layer_1" xmlns="http://www.w3.org/2000/svg" xmlns:xlink="http://www.w3.org/1999/xlink" x="0px" y="0px"
	 viewBox="0 0 100 100" enable-background="new 0 0 100 100" xml:space="preserve">
<g>
	<path fill="#2C4351" d="M9,27.3c0.5,0.6,1,1.1,1.6,1.7c0.2,0.2,0.5,0.4,0.7,0.6c-0.9,1-1.7,2-2.4,3.2c-0.4,0.8-0.8,1.7-1,2.7
		c-0.1,0.5-0.1,1,0,1.5c0.1,0.5,0.2,1,0.5,1.5c0.5,0.9,1.2,1.6,2,2.1c0.8,0.5,1.6,0.9,2.4,1.2c1.7,0.6,3.4,0.8,5.1,0.8
		c-1.7-0.4-3.3-1-4.8-1.7c-1.4-0.7-2.8-1.8-3.3-3.1c-0.1-0.3-0.2-0.6-0.2-1c0-0.3,0-0.7,0.1-1c0.2-0.7,0.5-1.3,1-2
		c0.9-1.3,2-2.5,3.2-3.6l1-0.9l-1.1-0.9c-0.5-0.4-1-0.9-1.5-1.3c-0.5-0.5-0.9-1-1.4-1.5c-0.8-1-1.5-2.2-1.9-3.3
		c-0.4-1.1-0.4-2.3,0.1-3.3c0.5-1,1.3-2,2.4-2.8c0.5-0.4,1.1-0.8,1.7-1.1c0.3-0.2,0.6-0.3,0.9-0.4c0.3-0.1,0.6-0.2,0.9-0.3
		c1.2-0.4,2.6-0.4,3.9-0.2c2.7,0.4,5.3,1.6,7.7,3.2c-1-1.1-2.1-2.1-3.3-2.9c-1.2-0.8-2.6-1.5-4.1-1.9c-1.5-0.4-3.1-0.5-4.7-0.2
		c-0.4,0.1-0.8,0.2-1.2,0.3c-0.4,0.1-0.8,0.3-1.1,0.4c-0.7,0.4-1.4,0.7-2,1.2c-1.3,0.9-2.6,2-3.3,3.6c-0.4,0.8-0.6,1.7-0.6,2.6
		c0,0.9,0.1,1.8,0.4,2.6C7.1,24.8,8,26.1,9,27.3z"/>
	<path fill="#2C4351" d="M93.9,55.3H6.1c-0.5,0-1,0.4-1,1v2.9c0,0.5,0.4,1,1,1h4.7c0.5,0,1,0.4,1,1V99c0,0.5,0.4,1,1,1h2.4
		c0.5,0,1-0.4,1-1v-30c0-0.5,0.4-1,1-1H83c0.5,0,1,0.4,1,1v30c0,0.5,0.4,1,1,1h2.4c0.5,0,1-0.4,1-1V61.1c0-0.5,0.4-1,1-1h4.7
		c0.5,0,1-0.4,1-1v-2.9C94.9,55.7,94.5,55.3,93.9,55.3z"/>
	<path fill="#2C4351" d="M21.4,50.8l58.5,0c0-15.3-11.7-27.8-26.7-29.2C54,21,54.4,20,54.4,19c0-2.1-1.7-3.8-3.8-3.8
		c-2.1,0-3.8,1.7-3.8,3.8c0,1.1,0.5,2,1.2,2.7C33.1,23,21.4,35.5,21.4,50.8z M47.5,25.5c0,0-14.4,7-16.4,21.7l-4.3,0
		C26.8,47.1,28.6,29.7,47.5,25.5z"/>
</g>
</svg>
