<?xml version="1.0" encoding="utf-8"?>
<!-- Generator: Adobe Illustrator 18.1.1, SVG Export Plug-In . SVG Version: 6.00 Build 0)  -->
<!DOCTYPE svg PUBLIC "-//W3C//DTD SVG 1.1//EN" "http://www.w3.org/Graphics/SVG/1.1/DTD/svg11.dtd">
<svg version="1.1" id="Layer_1" xmlns="http://www.w3.org/2000/svg" xmlns:xlink="http://www.w3.org/1999/xlink" x="0px" y="0px"
	 viewBox="0 0 100 100" enable-background="new 0 0 100 100" xml:space="preserve">
<g>
	<path fill="#2C4351" d="M81.7,15.1c-5.1,0-8.7,2.2-10,6.6c-1.3-4.4-4.8-6.6-10-6.6c-6.6,0-10.6,3.7-10.6,10.7c0,3.4,0.9,6.4,3,8.3
		l16,14.9c0.5,0.5,1,0.7,1.6,0.7c0.6,0,1.2-0.2,1.6-0.7l16-14.9c2.1-1.9,3-4.8,3-8.3C92.3,18.8,88.3,15.1,81.7,15.1z"/>
	<path fill="#2C4351" d="M39.9,53.5c0,0,0.1-5.4,0.6-11.1c0.3-3.6,2.8-6.3,3.9-7.7c0.4-0.5-0.1-1.2-0.8-1.2h-6.6H28h-6.6
		c-0.7,0-1.1,0.7-0.8,1.2c1,1.4,3.6,4.1,3.9,7.7c0.4,5.7,0.6,11.1,0.6,11.1S7.7,57.6,7.7,67.9c0,10.3,18.2,25.5,18.2,25.5L21,98.2
		c-0.5,0.8,0.1,1.8,1.2,1.8h8.4h3.8h8.4c1,0,1.6-1,1.2-1.8L39,93.4c0,0,18.2-15.1,18.2-25.5C57.2,57.6,39.9,53.5,39.9,53.5z"/>
</g>
</svg>
