<?xml version="1.0" encoding="UTF-8" standalone="no"?>
<svg
   xmlns:dc="http://purl.org/dc/elements/1.1/"
   xmlns:cc="http://creativecommons.org/ns#"
   xmlns:rdf="http://www.w3.org/1999/02/22-rdf-syntax-ns#"
   xmlns:svg="http://www.w3.org/2000/svg"
   xmlns="http://www.w3.org/2000/svg"
   viewBox="0 0 33.333332 33.333332"
   height="33.333332"
   width="33.333332"
   xml:space="preserve"
   id="svg2"
   version="1.1"><metadata
     id="metadata8"><rdf:RDF><cc:Work
         rdf:about=""><dc:format>image/svg+xml</dc:format><dc:type
           rdf:resource="http://purl.org/dc/dcmitype/StillImage" /></cc:Work></rdf:RDF></metadata><defs
     id="defs6"><clipPath
       id="clipPath18"
       clipPathUnits="userSpaceOnUse"><path
         id="path16"
         d="M 0,25 H 25 V 0 H 0 Z" /></clipPath></defs><g
     transform="matrix(1.3333333,0,0,-1.3333333,0,33.333333)"
     id="g10"><g
       id="g12"><g
         clip-path="url(#2C4351th18)"
         id="g14"><g
           transform="translate(12.1068,11.982)"
           id="g20"><path
             id="path22"
             style="fill:#2C4351;fill-opacity:1;fill-rule:nonzero;stroke:none"
             d="m 0,0 -7.344,6.195 c -0.002,0.031 0.014,0.047 0.02,0.053 l 4.72,4.708 0.051,-0.045 6.14,-7.413 z m 5.156,4.905 -6.144,7.32 c -0.38,0.452 -0.936,0.726 -1.526,0.752 -0.58,0.032 -1.168,-0.199 -1.586,-0.617 L -8.768,7.692 C -9.186,7.274 -9.41,6.696 -9.385,6.106 -9.359,5.516 -9.085,4.96 -8.633,4.58 l 7.32,-6.144 c 0.397,-0.334 0.879,-0.499 1.359,-0.499 0.541,0 1.079,0.209 1.493,0.623 l 3.492,3.493 c 0.781,0.78 0.835,2.006 0.125,2.852" /></g><g
           transform="translate(18.686,11.3992)"
           id="g24"><path
             id="path26"
             style="fill:#2C4351;fill-opacity:1;fill-rule:nonzero;stroke:none"
             d="m 0,0 c 0,0.292 0.237,0.529 0.529,0.529 0.293,0 0.53,-0.237 0.53,-0.529 0,-0.292 -0.237,-0.529 -0.53,-0.529 C 0.237,-0.529 0,-0.292 0,0 m -0.53,-2.392 c -0.292,0 -0.529,0.237 -0.529,0.529 0,0.293 0.237,0.53 0.529,0.53 0.293,0 0.53,-0.237 0.53,-0.53 0,-0.292 -0.237,-0.529 -0.53,-0.529 m -1.825,-1.022 c -0.293,0 -0.53,0.237 -0.53,0.529 0,0.293 0.237,0.53 0.53,0.53 0.292,0 0.529,-0.237 0.529,-0.53 0,-0.292 -0.237,-0.529 -0.529,-0.529 m 2.963,0.709 C 1.733,-1.581 1.986,0.148 1.23,1.548 L 0.783,2.377 C 0.642,2.638 0.289,2.69 0.079,2.48 l -4.963,-4.963 c -0.211,-0.21 -0.159,-0.563 0.103,-0.704 l 0.829,-0.448 c 1.399,-0.755 3.128,-0.502 4.253,0.622 z" /></g><g
           transform="translate(17.6017,5.8846)"
           id="g28"><path
             id="path30"
             style="fill:#2C4351;fill-opacity:1;fill-rule:nonzero;stroke:none"
             d="m 0,0 c -0.364,0 -0.658,-0.295 -0.658,-0.658 0,-0.364 0.294,-0.658 0.658,-0.658 0.363,0 0.658,0.294 0.658,0.658 C 0.658,-0.295 0.363,0 0,0" /></g><g
           transform="translate(19.8389,6.1299)"
           id="g32"><path
             id="path34"
             style="fill:#2C4351;fill-opacity:1;fill-rule:nonzero;stroke:none"
             d="m 0,0 c -0.363,0 -0.658,-0.295 -0.658,-0.658 0,-0.364 0.295,-0.658 0.658,-0.658 0.364,0 0.658,0.294 0.658,0.658 C 0.658,-0.295 0.364,0 0,0" /></g><g
           transform="translate(19.0357,3.5971)"
           id="g36"><path
             id="path38"
             style="fill:#2C4351;fill-opacity:1;fill-rule:nonzero;stroke:none"
             d="m 0,0 c -0.363,0 -0.658,-0.295 -0.658,-0.658 0,-0.364 0.295,-0.658 0.658,-0.658 0.364,0 0.658,0.294 0.658,0.658 C 0.658,-0.295 0.364,0 0,0" /></g><g
           transform="translate(22.015,3.8703)"
           id="g40"><path
             id="path42"
             style="fill:#2C4351;fill-opacity:1;fill-rule:nonzero;stroke:none"
             d="m 0,0 c 0,0.363 -0.295,0.658 -0.658,0.658 -0.364,0 -0.658,-0.295 -0.658,-0.658 0,-0.364 0.294,-0.658 0.658,-0.658 C -0.295,-0.658 0,-0.364 0,0" /></g><g
           transform="translate(21.63,1.3163)"
           id="g44"><path
             id="path46"
             style="fill:#2C4351;fill-opacity:1;fill-rule:nonzero;stroke:none"
             d="m 0,0 c -0.364,0 -0.658,-0.295 -0.658,-0.658 0,-0.364 0.294,-0.658 0.658,-0.658 0.363,0 0.658,0.294 0.658,0.658 C 0.658,-0.295 0.363,0 0,0" /></g><g
           transform="translate(17.3627,1.3163)"
           id="g48"><path
             id="path50"
             style="fill:#2C4351;fill-opacity:1;fill-rule:nonzero;stroke:none"
             d="m 0,0 c -0.363,0 -0.658,-0.295 -0.658,-0.658 0,-0.364 0.295,-0.658 0.658,-0.658 0.364,0 0.658,0.294 0.658,0.658 C 0.658,-0.295 0.364,0 0,0" /></g></g></g></g></svg>