<?xml version="1.0" encoding="utf-8"?>
<!-- Generator: Adobe Illustrator 18.1.1, SVG Export Plug-In . SVG Version: 6.00 Build 0)  -->
<!DOCTYPE svg PUBLIC "-//W3C//DTD SVG 1.1//EN" "http://www.w3.org/Graphics/SVG/1.1/DTD/svg11.dtd">
<svg version="1.1" id="Layer_1" xmlns="http://www.w3.org/2000/svg" xmlns:xlink="http://www.w3.org/1999/xlink" x="0px" y="0px"
	 viewBox="0 0 100 100" enable-background="new 0 0 100 100" xml:space="preserve">
<path fill="#2C4351" d="M79.3,23.6c3.3,0,6.1,2.8,6.1,6.1c0,3.3-2.8,6.1-6.1,6.1h-0.4L73.7,95c-0.2,2.7-2.1,5-4.9,5H31.2
	c-2.8,0-4.7-2.3-4.9-5l-5.1-59.2h-0.4c-3.3,0-6.1-2.8-6.1-6.1c0-3.3,2.8-6.1,6.1-6.1H79.3z M71.3,11.4c4.2,0,7.7,3.5,7.7,7.7H21
	c0-4.2,3.5-7.7,7.7-7.7h11.7V9.9c0-2.1,1.7-3.8,3.8-3.8h11.6c2.1,0,3.8,1.7,3.8,3.8v1.6H71.3z M38.4,43.7c-0.1-1.4-1.1-2.7-2.7-2.7
	c-1.6,0-2.8,1.3-2.7,2.9l2.2,41.3c0.1,1.4,1.1,2.7,2.7,2.7c1.6,0,2.8-1.3,2.7-2.9L38.4,43.7z M47.3,43.7v41.6c0,1.4,1.2,2.7,2.7,2.7
	c1.4,0,2.7-1.2,2.7-2.7V43.7c0-1.4-1.2-2.7-2.7-2.7C48.6,41.1,47.3,42.3,47.3,43.7 M61.6,43.7l-2.2,41.3C59.3,86.6,60.5,88,62,88
	c1.6,0,2.6-1.2,2.7-2.7L66.9,44c0.1-1.6-1.1-2.9-2.7-2.9C62.7,41.1,61.7,42.3,61.6,43.7"/>
</svg>
