<?xml version="1.0" encoding="utf-8"?>
<!-- Generator: Adobe Illustrator 18.1.1, SVG Export Plug-In . SVG Version: 6.00 Build 0)  -->
<!DOCTYPE svg PUBLIC "-//W3C//DTD SVG 1.1//EN" "http://www.w3.org/Graphics/SVG/1.1/DTD/svg11.dtd">
<svg version="1.1" id="Layer_1" xmlns="http://www.w3.org/2000/svg" xmlns:xlink="http://www.w3.org/1999/xlink" x="0px" y="0px"
	 viewBox="0 0 100 100" enable-background="new 0 0 100 100" xml:space="preserve">
<g>
	<path fill="#2C4351" d="M89.4,24.2H62.7c-1-1.8-2.7-3.2-4.6-4l0.1-5.5h2.2c0.8,1.8,2.6,3,4.6,3c2.8,0,5.1-2.3,5.1-5.1
		c0-2.8-2.3-5.1-5.1-5.1c-2.1,0-3.9,1.3-4.6,3h-3.1c-0.6-0.7-1.6-1.2-2.6-1.2c-1,0-2,0.4-2.6,1.2h-3.3c-0.8-1.8-2.6-3-4.6-3
		c-2.8,0-5.1,2.3-5.1,5.1c0,2.8,2.3,5.1,5.1,5.1c2.1,0,3.9-1.3,4.6-3h2.4l0.1,5.6c-1.9,0.8-3.4,2.2-4.4,3.9h-3.3
		c-9.8,0-17.8,8-17.8,17.8v2.2c0,0.8,0.7,1.5,1.5,1.5H34c0.8,0,1.5-0.7,1.5-1.5v-2.2c0-4.4,3.6-8,8-8h3.6c1.7,2.4,4.4,4,7.6,4
		c3.2,0,6-1.6,7.6-4h27c0.8,0,1.5-0.7,1.5-1.5v-6.8C90.9,24.9,90.2,24.2,89.4,24.2z"/>
	<path fill="#2C4351" d="M45.1,54.4c-1.8-0.1-3.4,1.2-3.6,3l-0.9,10.2c-0.3,0.2-0.7,0.2-1,0.2c-2,0-3.9-3.8-5.5-5.1v0
		c-1.6,1.3-3.5,5.1-5.5,5.1c-2,0-3.9-3.8-5.5-5.1v0c-1.6,1.3-3.5,5.1-5.5,5.1c-0.3,0-0.6-0.1-0.8-0.2l-1.1-11.1
		c-0.2-1.8-1.8-3.2-3.6-3c-1.8,0.2-3.1,1.8-3,3.6l4.2,42.7h31l3.8-42C48.3,56.2,46.9,54.6,45.1,54.4z M19.3,93.4l-1.9-19.2
		c0.1,0,0.1,0,0.2,0c2,0,3.9-3.1,5.5-4.4v0c1.6,1.3,3.5,4.4,5.5,4.4c2,0,3.9-3.1,5.5-4.4v0c1.6,1.3,3.5,4.4,5.5,4.4
		c0.1,0,0.3,0,0.4,0l-1.7,19.3H19.3z"/>
	<path fill="#2C4351" d="M34,56.1c0-2.3-1.6-3.9-2.9-7c-0.1-0.2-0.2-0.5-0.5-0.5c-0.3,0-0.4,0.3-0.5,0.5c-1.2,3.1-2.9,4.7-2.9,7
		c0,2.7,1.3,4,3.4,4C32.7,60.1,34,58.8,34,56.1z"/>
</g>
</svg>
