<?xml version="1.0" encoding="utf-8"?>
<!-- Generator: Adobe Illustrator 18.1.1, SVG Export Plug-In . SVG Version: 6.00 Build 0)  -->
<!DOCTYPE svg PUBLIC "-//W3C//DTD SVG 1.1//EN" "http://www.w3.org/Graphics/SVG/1.1/DTD/svg11.dtd">
<svg version="1.1" id="Layer_1" xmlns="http://www.w3.org/2000/svg" xmlns:xlink="http://www.w3.org/1999/xlink" x="0px" y="0px"
	 viewBox="0 0 100 100" enable-background="new 0 0 100 100" xml:space="preserve">
<g>
	<path fill="#2C4351" d="M81.7,10.2H18.3c-7.3,0-13.2,5.9-13.2,13.2v63.5c0,7.3,5.9,13.2,13.2,13.2h63.3c7.3,0,13.2-5.9,13.2-13.2
		V23.4C94.8,16.1,88.9,10.2,81.7,10.2z M68.9,79.2c-0.9,1-2.1,1.5-3.4,1.5H34.7c-1.3,0-2.6-0.6-3.5-1.5C10.7,56,26,36.4,31.2,31
		c0.9-0.9,2.1-1.5,3.4-1.5h30.8c1.3,0,2.6,0.5,3.5,1.5C89.2,53.8,74,73.7,68.9,79.2z"/>
	<rect x="35.2" y="45.8" fill="#2C4351" width="6.6" height="18.7"/>
	<rect x="58.1" y="45.8" fill="#2C4351" width="6.6" height="18.7"/>
</g>
</svg>
