<?xml version="1.0" encoding="utf-8"?>
<!-- Generator: Adobe Illustrator 18.1.1, SVG Export Plug-In . SVG Version: 6.00 Build 0)  -->
<!DOCTYPE svg PUBLIC "-//W3C//DTD SVG 1.1//EN" "http://www.w3.org/Graphics/SVG/1.1/DTD/svg11.dtd">
<svg version="1.1" id="Layer_1" xmlns="http://www.w3.org/2000/svg" xmlns:xlink="http://www.w3.org/1999/xlink" x="0px" y="0px"
	 viewBox="0 0 50 50" enable-background="new 0 0 50 50" xml:space="preserve">
<g>
	<path fill="#2C4351" d="M25.2,22.8c-7.5,0-13.6,6.1-13.6,13.6c0,7.5,6.1,13.6,13.6,13.6c7.5,0,13.6-6.1,13.6-13.6
		C38.9,28.9,32.8,22.8,25.2,22.8z M12.4,38.8L25.2,26l12.8,12.8H12.4z"/>
	<path fill="#2C4351" d="M9.2,28.7c0,0.4-0.3,0.7-0.7,0.7c-0.4,0-0.7-0.3-0.7-0.7v-6.2H6.2v6.2c0,0.4-0.3,0.7-0.7,0.7
		c-0.4,0-0.7-0.3-0.7-0.7v-6.2H3.2v7.1c0,1.5,0.9,2.8,2.2,3.4v15c0,0.7,0.6,1.3,1.3,1.3h0.6c0.7,0,1.3-0.6,1.3-1.3V33
		c1.2-0.6,2.1-1.9,2.1-3.3v-7.1H9.2V28.7z"/>
	<path fill="#2C4351" d="M43.6,22.7L43.6,22.7C43.6,22.7,43.6,22.7,43.6,22.7c-1.7,0-3,1.3-3,3v7.9c0,1.6,1.3,2.9,2.9,2.9
		c0,0,0,0,0.1,0v11.6c0,0.7,0.6,1.3,1.3,1.3h0.6c0.7,0,1.3-0.6,1.3-1.3V22.7H43.6z"/>
	<path fill="#2C4351" d="M17.1,22.7c0,0,2.1,0.1,3.6-1.3c1.5-1.4,4-0.9,4-0.9l9.5,0.5c0,0,1.6,0,1.6-1.2v-0.5c0-1.2-1.6-1.2-1.6-1.2
		l-9.5,0.5c0,0-2.5,0.5-4-0.9c-1.5-1.4-3.6-1.3-3.6-1.3c-3.9,0-4.4,3-4.4,3v0.4C12.7,19.7,13.3,22.7,17.1,22.7z"/>
</g>
</svg>
