<?xml version="1.0" encoding="UTF-8" standalone="no"?>
<svg
   xmlns:dc="http://purl.org/dc/elements/1.1/"
   xmlns:cc="http://creativecommons.org/ns#"
   xmlns:rdf="http://www.w3.org/1999/02/22-rdf-syntax-ns#"
   xmlns:svg="http://www.w3.org/2000/svg"
   xmlns="http://www.w3.org/2000/svg"
   viewBox="0 0 33.333332 33.333332"
   height="33.333332"
   width="33.333332"
   xml:space="preserve"
   id="svg2"
   version="1.1"><metadata
     id="metadata8"><rdf:RDF><cc:Work
         rdf:about=""><dc:format>image/svg+xml</dc:format><dc:type
           rdf:resource="http://purl.org/dc/dcmitype/StillImage" /></cc:Work></rdf:RDF></metadata><defs
     id="defs6"><clipPath
       id="clipPath18"
       clipPathUnits="userSpaceOnUse"><path
         id="path16"
         d="M 0,25 H 25 V 0 H 0 Z" /></clipPath></defs><g
     transform="matrix(1.3333333,0,0,-1.3333333,0,33.333333)"
     id="g10"><g
       id="g12"><g
         clip-path="url(#2C4351th18)"
         id="g14"><g
           transform="translate(22.9396,7.3829)"
           id="g20"><path
             id="path22"
             style="fill:#2C4351;fill-opacity:1;fill-rule:nonzero;stroke:none"
             d="m 0,0 c -0.706,-1.261 -1.886,-2.348 -3.241,-2.773 l -0.01,-0.008 c -2.412,-0.613 -4.885,-0.92 -7.365,-0.92 -2.48,0 -4.957,0.307 -7.369,0.92 -1.378,0.432 -2.364,1.528 -3.071,2.794 -0.077,-0.566 0.116,-1.213 0.116,-1.98 v -0.01 c 0,-1.699 1.32,-3.873 3.321,-4.502 4.742,-1.205 9.567,-1.205 14.309,0 2.001,0.629 3.37,2.803 3.37,4.502 v 0.01 C 0.06,-1.209 0.082,-0.564 0,0" /></g><g
           transform="translate(12.6387,15.5172)"
           id="g24"><path
             id="path26"
             style="fill:#2C4351;fill-opacity:1;fill-rule:nonzero;stroke:none"
             d="M 0,0 C 0.062,0.152 0.138,0.298 0.226,0.44 0.354,0.275 0.499,0.122 0.661,-0.02 0.707,-0.061 0.744,-0.108 0.792,-0.146 1.015,-0.32 1.256,-0.45 1.504,-0.557 c 0.022,-0.01 0.044,-0.02 0.067,-0.029 0.014,-0.168 0.044,-0.332 0.077,-0.496 -0.621,0.042 -1.243,0.065 -1.866,0.067 0.005,0.171 0.027,0.34 0.062,0.509 C -0.12,-0.334 -0.067,-0.166 0,0 M 7.523,2.072 C 8.142,1.588 8.535,0.892 8.63,0.112 8.701,-0.463 8.6,-1.032 8.349,-1.54 8.275,-1.691 8.182,-1.833 8.081,-1.971 8.062,-1.998 8.048,-2.029 8.028,-2.056 7.94,-2.168 7.838,-2.262 7.738,-2.358 7.344,-2.735 6.868,-2.982 6.359,-3.097 5.876,-3.206 5.371,-3.202 4.889,-3.062 4.54,-2.961 4.203,-2.797 3.9,-2.56 3.436,-2.197 3.115,-1.721 2.937,-1.202 2.896,-1.081 2.87,-0.958 2.845,-0.834 c 0.23,0.003 0.46,0.027 0.684,0.077 0.32,0.073 0.621,0.21 0.908,0.376 0.313,0.181 0.601,0.41 0.847,0.699 0.029,0.035 0.066,0.06 0.095,0.096 0.261,0.334 0.448,0.709 0.563,1.104 0.107,0.369 0.139,0.756 0.11,1.148 0.52,-0.06 1.03,-0.249 1.471,-0.594 M 4.061,4.032 C 4.185,3.935 4.291,3.823 4.388,3.704 4.522,3.539 4.626,3.355 4.702,3.157 4.761,3.002 4.808,2.842 4.829,2.674 4.834,2.635 4.829,2.597 4.832,2.558 4.834,2.525 4.833,2.493 4.834,2.461 4.842,2.027 4.715,1.608 4.462,1.252 4.444,1.225 4.431,1.196 4.411,1.171 4.021,0.671 3.441,0.413 2.852,0.399 2.648,0.394 2.443,0.414 2.243,0.471 2.043,0.528 1.851,0.623 1.67,0.745 1.631,0.772 1.588,0.791 1.549,0.821 1.363,0.967 1.217,1.143 1.096,1.332 0.857,1.706 0.742,2.143 0.774,2.578 0.803,2.967 0.942,3.353 1.199,3.682 1.891,4.569 3.176,4.724 4.061,4.032 M -7.401,-9.931 c 4.627,-1.175 9.547,-1.176 14.201,0.004 1.602,0.51 2.845,2.123 3.125,3.468 0.039,0.187 0.06,0.369 0.06,0.542 0,0.864 -0.505,1.94 -1.305,2.786 0.105,0.107 0.221,0.197 0.315,0.318 0.014,0.018 0.023,0.039 0.036,0.057 0.108,0.142 0.196,0.293 0.283,0.445 0.448,0.777 0.647,1.667 0.536,2.572 C 9.715,1.367 9.157,2.353 8.28,3.039 7.517,3.637 6.61,3.908 5.708,3.906 5.495,4.325 5.2,4.701 4.818,5 3.4,6.111 1.341,5.858 0.232,4.44 V 4.439 C -0.401,3.63 -0.576,2.617 -0.36,1.686 -0.429,1.61 -0.508,1.547 -0.573,1.465 -0.928,1.01 -1.174,0.504 -1.314,-0.022 -1.359,-0.191 -1.377,-0.363 -1.4,-0.535 c -0.023,-0.171 -0.038,-0.341 -0.04,-0.513 -2.015,-0.079 -4.025,-0.355 -5.988,-0.853 -1.803,-0.568 -3.17,-2.587 -3.17,-4.006 0,-0.156 0.023,-0.321 0.054,-0.488 0.256,-1.367 1.513,-3.023 3.143,-3.536" /></g><g
           transform="translate(7.4209,20.4593)"
           id="g28"><path
             id="path30"
             style="fill:#2C4351;fill-opacity:1;fill-rule:nonzero;stroke:none"
             d="m 0,0 c 0.268,-0.093 0.485,-0.285 0.609,-0.541 0.124,-0.255 0.141,-0.545 0.048,-0.814 -0.192,-0.554 -0.801,-0.849 -1.354,-0.657 -0.555,0.192 -0.851,0.8 -0.659,1.355 0.093,0.269 0.286,0.485 0.542,0.609 0.147,0.072 0.305,0.107 0.464,0.107 C -0.233,0.059 -0.115,0.04 0,0 M -1.099,-3.173 C -0.853,-3.259 -0.6,-3.3 -0.352,-3.3 c 0.95,0 1.841,0.596 2.169,1.543 0.201,0.579 0.164,1.201 -0.103,1.753 C 1.446,0.547 0.98,0.961 0.402,1.161 -0.179,1.361 -0.799,1.325 -1.35,1.058 -1.902,0.79 -2.316,0.324 -2.516,-0.256 -2.929,-1.45 -2.294,-2.759 -1.099,-3.173" /></g><g
           transform="translate(10.5774,23.7357)"
           id="g32"><path
             id="path34"
             style="fill:#2C4351;fill-opacity:1;fill-rule:nonzero;stroke:none"
             d="M 0,0 C 0.165,-0.058 0.298,-0.176 0.375,-0.333 0.451,-0.49 0.461,-0.667 0.404,-0.832 V -0.833 C 0.347,-0.998 0.229,-1.131 0.072,-1.208 c -0.157,-0.075 -0.334,-0.087 -0.501,-0.029 -0.34,0.118 -0.522,0.492 -0.404,0.832 0.095,0.271 0.348,0.441 0.62,0.441 C -0.143,0.036 -0.071,0.024 0,0 m -0.831,-2.397 c 0.203,-0.071 0.411,-0.106 0.619,-0.106 0.281,0 0.56,0.064 0.82,0.19 C 1.06,-2.093 1.4,-1.71 1.564,-1.236 1.73,-0.76 1.7,-0.249 1.48,0.204 1.261,0.656 0.878,0.996 0.403,1.16 -0.577,1.5 -1.652,0.98 -1.993,-0.002 c -0.34,-0.981 0.182,-2.056 1.162,-2.395" /></g></g></g></g></svg>