<?xml version="1.0" encoding="UTF-8" standalone="no"?>
<svg
   xmlns:dc="http://purl.org/dc/elements/1.1/"
   xmlns:cc="http://creativecommons.org/ns#"
   xmlns:rdf="http://www.w3.org/1999/02/22-rdf-syntax-ns#"
   xmlns:svg="http://www.w3.org/2000/svg"
   xmlns="http://www.w3.org/2000/svg"
   viewBox="0 0 33.333332 33.333332"
   height="33.333332"
   width="33.333332"
   xml:space="preserve"
   id="svg2"
   version="1.1"><metadata
     id="metadata8"><rdf:RDF><cc:Work
         rdf:about=""><dc:format>image/svg+xml</dc:format><dc:type
           rdf:resource="http://purl.org/dc/dcmitype/StillImage" /></cc:Work></rdf:RDF></metadata><defs
     id="defs6"><clipPath
       id="clipPath18"
       clipPathUnits="userSpaceOnUse"><path
         id="path16"
         d="M 0,25 H 25 V 0 H 0 Z" /></clipPath></defs><g
     transform="matrix(1.3333333,0,0,-1.3333333,0,33.333333)"
     id="g10"><g
       id="g12"><g
         clip-path="url(#2C4351th18)"
         id="g14"><g
           transform="translate(5.77,16.1998)"
           id="g20"><path
             id="path22"
             style="fill:#2C4351;fill-opacity:1;fill-rule:nonzero;stroke:none"
             d="m 0,0 c 0.798,-0.81 1.398,-1.921 1.793,-3.313 1.381,0.618 3.001,0.95 4.685,0.95 0.07,0 0.138,-0.002 0.206,-0.005 l 0.044,-0.004 0.089,0.004 c 0.069,0.003 0.137,0.005 0.206,0.005 1.685,0 3.304,-0.332 4.686,-0.95 0.395,1.392 0.995,2.503 1.793,3.313 0.485,0.569 1.125,0.969 1.828,1.177 C 15.019,3.992 11.302,5.75 6.751,5.75 2.2,5.75 -1.517,3.992 -1.829,1.177 -1.125,0.969 -0.485,0.569 0,0" /></g><g
           transform="translate(22.1678,16.569)"
           id="g24"><path
             id="path26"
             style="fill:#2C4351;fill-opacity:1;fill-rule:nonzero;stroke:none"
             d="M 0,0 C -0.058,0 -0.168,-0.014 -0.168,-0.017 V 0 c 0,0 -0.124,-0.003 -0.324,-0.05 -0.216,-0.038 -0.419,-0.108 -0.614,-0.192 -0.414,-0.179 -0.78,-0.446 -1.065,-0.79 -0.516,-0.515 -1.032,-1.296 -1.425,-2.456 -0.166,-0.488 -0.311,-1.035 -0.422,-1.668 -0.451,0.292 -0.973,0.531 -1.523,0.742 -1.13,0.435 -2.429,0.701 -3.834,0.701 -0.092,0 -0.181,-0.007 -0.272,-0.009 -0.091,0.002 -0.18,0.009 -0.272,0.009 -1.405,0 -2.704,-0.266 -3.834,-0.701 -0.55,-0.211 -1.072,-0.45 -1.523,-0.742 -0.111,0.633 -0.256,1.18 -0.421,1.668 -0.393,1.16 -0.91,1.941 -1.425,2.456 -0.286,0.344 -0.652,0.611 -1.066,0.79 -0.195,0.084 -0.419,0.154 -0.635,0.192 -0.2,0.047 -0.345,0.05 -0.345,0.05 v -0.017 c 0,0.003 -0.089,0.017 -0.147,0.017 -1.565,0 -2.822,-1.269 -2.822,-2.834 0,-1.368 0.975,-2.66 2.264,-2.926 0.201,-1.866 0.806,-4.809 1.997,-6.809 h 1.283 c -0.011,0 -0.023,-0.02 -0.023,-0.086 0,-0.108 0.036,-0.136 0.066,-0.233 0.063,-0.199 0.161,-0.314 0.32,-0.441 0.176,-0.139 0.388,-0.24 0.63,-0.24 h 0.727 c 0.242,0 0.455,0.139 0.63,0.278 0.16,0.127 0.228,0.207 0.291,0.406 0.03,0.098 0.078,0.134 0.078,0.242 0,0.066 0.006,0.074 -0.006,0.074 h 2.435 3.596 2.435 c -0.012,0 -0.021,-0.002 -0.021,-0.068 0,-0.108 0.014,-0.098 0.045,-0.196 0.062,-0.198 0.179,-0.369 0.339,-0.496 0.175,-0.139 0.388,-0.24 0.63,-0.24 h 0.727 c 0.242,0 0.454,0.139 0.63,0.278 0.159,0.127 0.276,0.314 0.339,0.512 0.03,0.098 0.027,0.052 0.027,0.16 0,0.066 0.008,0.05 -0.004,0.05 h 1.284 c 1.191,2 1.79,4.943 1.991,6.809 1.289,0.266 2.26,1.483 2.26,2.851 C 2.833,-1.344 1.565,0 0,0" /></g></g></g></g></svg>