<?xml version="1.0" encoding="UTF-8" standalone="no"?>
<svg
   xmlns:dc="http://purl.org/dc/elements/1.1/"
   xmlns:cc="http://creativecommons.org/ns#"
   xmlns:rdf="http://www.w3.org/1999/02/22-rdf-syntax-ns#"
   xmlns:svg="http://www.w3.org/2000/svg"
   xmlns="http://www.w3.org/2000/svg"
   viewBox="0 0 33.333332 33.333332"
   height="33.333332"
   width="33.333332"
   xml:space="preserve"
   id="svg2"
   version="1.1"><metadata
     id="metadata8"><rdf:RDF><cc:Work
         rdf:about=""><dc:format>image/svg+xml</dc:format><dc:type
           rdf:resource="http://purl.org/dc/dcmitype/StillImage" /></cc:Work></rdf:RDF></metadata><defs
     id="defs6"><clipPath
       id="clipPath22"
       clipPathUnits="userSpaceOnUse"><path
         id="path20"
         d="M 0,25 H 25 V 0 H 0 Z" /></clipPath></defs><g
     transform="matrix(1.3333333,0,0,-1.3333333,0,33.333333)"
     id="g10"><g
       transform="translate(19.3224,22.0441)"
       id="g12"><path
         id="path14"
         style="fill:#2C4351;fill-opacity:1;fill-rule:nonzero;stroke:none"
         d="m 0,0 v -15.622 l 2.531,-2.182 V 0 Z" /></g><g
       id="g16"><g
         clip-path="url(#2C4351th22)"
         id="g18"><g
           transform="translate(23.5404,24.4229)"
           id="g24"><path
             id="path26"
             style="fill:#2C4351;fill-opacity:1;fill-rule:nonzero;stroke:none"
             d="m 0,0 h -11.046 c -0.424,0 -0.758,-0.331 -0.758,-0.755 v -4.266 c 0.297,-0.476 0.483,-1.045 0.483,-1.651 0,-0.609 -0.186,-1.178 -0.483,-1.654 v -1.561 c 0.148,0.015 0.178,0.023 0.278,0.023 0.447,0 0.915,-0.134 1.213,-0.372 v 8.75 h 9.518 v -19.789 h -9.518 v 6.419 c 0,0 -1.343,-0.349 -1.491,-0.361 v -6.909 c 0,-0.428 0.334,-0.785 0.758,-0.785 H 0 c 0.424,0 0.84,0.361 0.84,0.785 V -0.758 C 0.84,-0.331 0.424,0 0,0" /></g><g
           transform="translate(9.2753,15.3246)"
           id="g28"><path
             id="path30"
             style="fill:#2C4351;fill-opacity:1;fill-rule:nonzero;stroke:none"
             d="M 0,0 C 1.16,0 2.104,0.944 2.104,2.103 2.104,3.267 1.164,4.207 0,4.207 -1.163,4.207 -2.104,3.267 -2.104,2.103 -2.104,0.944 -1.163,0 0,0" /></g><g
           transform="translate(7.5474,10.7706)"
           id="g32"><path
             id="path34"
             style="fill:#2C4351;fill-opacity:1;fill-rule:nonzero;stroke:none"
             d="m 0,0 c 0.698,-0.49 1.531,-0.732 2.486,-0.732 0.525,0 2.171,0.357 2.565,0.484 C 5.493,-0.092 5.717,0.119 5.85,0.38 6.014,0.822 5.936,1.286 5.936,1.286 5.802,2.111 4.999,2.297 4.367,2.07 3.434,1.736 2.159,1.45 1.39,1.977 1.063,2.201 0.858,2.546 0.732,2.885 0.926,3.521 0.799,4.234 0.338,4.777 -0.38,5.624 -1.65,5.724 -2.498,5.003 -2.706,4.832 -3.999,3.665 -4.802,1.394 -5.192,1.216 -5.664,1.074 -6.233,1.008 -6.895,0.93 -7.367,0.327 -7.292,-0.334 c 0.074,-0.614 0.594,-1.07 1.2,-1.07 0.048,0 0.093,0.003 0.141,0.011 0.197,0.022 0.383,0.051 0.565,0.088 -0.037,-0.382 -0.056,-0.78 -0.056,-1.199 0,-0.547 0.22,-1.038 0.569,-1.402 0.231,-0.71 0.416,-1.691 0.164,-2.498 -0.193,-0.602 -0.61,-1.059 -1.279,-1.401 -0.595,-0.301 -0.829,-1.03 -0.528,-1.625 0.216,-0.415 0.636,-0.661 1.078,-0.661 0.186,0 0.372,0.045 0.546,0.134 1.246,0.632 2.104,1.609 2.488,2.828 0.318,1.026 0.271,2.067 0.099,2.952 0.082,0.055 0.16,0.119 0.231,0.185 0.821,-0.955 1.639,-2.564 1.144,-4.984 -0.129,-0.654 0.291,-1.29 0.945,-1.427 0.081,-0.011 0.163,-0.023 0.241,-0.023 0.561,0 1.067,0.394 1.183,0.967 0.832,4.066 -1.119,6.805 -2.773,8.106 0.111,0.84 0.345,1.513 0.591,2.026 C -0.536,0.431 -0.29,0.201 0,0" /></g></g></g></g></svg>