<?xml version="1.0" encoding="utf-8"?>
<!-- Generator: Adobe Illustrator 18.1.1, SVG Export Plug-In . SVG Version: 6.00 Build 0)  -->
<!DOCTYPE svg PUBLIC "-//W3C//DTD SVG 1.1//EN" "http://www.w3.org/Graphics/SVG/1.1/DTD/svg11.dtd">
<svg version="1.1" id="Layer_1" xmlns="http://www.w3.org/2000/svg" xmlns:xlink="http://www.w3.org/1999/xlink" x="0px" y="0px"
	 viewBox="0 0 100 100" enable-background="new 0 0 100 100" xml:space="preserve">
<g>
	<path fill="#2C4351" d="M89.4,61.6h-7.1v0H21.6v0h-7.1c-1.4,0-2.6,1.1-2.6,2.6v0c0,1.4,1.1,2.6,2.6,2.6h7.1v22.1
		c0,6.2,5,11.2,11.2,11.2h38.4c6.2,0,11.2-5,11.2-11.2V66.7h7.1c1.4,0,2.6-1.1,2.6-2.6v0C91.9,62.7,90.8,61.6,89.4,61.6z"/>
	<path fill="#2C4351" d="M61.4,39.5c-1.8-1.9-4.4-3.2-7.2-3.5c-5.8-0.7-11,2.7-11.8,7.7l-8.3-1c-5.4-0.6-10.3,2.7-11.9,7.6l59.9,7.1
		c-0.4-5.2-4.4-9.5-9.8-10.2l-8.3-1C64.1,43.8,63.2,41.4,61.4,39.5z M53.7,40.3c1.8,0.2,3.4,1,4.6,2.2c0.9,1,1.4,2.1,1.4,3.3
		l-13-1.5C47.3,41.6,50.3,39.8,53.7,40.3z"/>
	<path fill="#2C4351" d="M16.3,55c1.3,0.9,2.6,1.6,3.9,2.2c-2.3-1.9-4.5-4-6.3-6.2c-0.5-0.6-0.9-1.2-1.2-1.8c-0.4-0.6-0.7-1.2-1-1.8
		c-0.3-0.6-0.5-1.3-0.6-1.9c-0.1-0.6-0.2-1.2-0.1-1.8c0-0.3,0.1-0.6,0.1-0.9l0.3-0.8l0.4-0.8l0.5-0.7c0.4-0.5,0.8-0.9,1.4-1.3
		c0.5-0.4,1.1-0.8,1.6-1.2c1.2-0.7,2.4-1.3,3.7-1.9c1.3-0.5,2.7-1,4-1.4l1.6-0.5l-0.2-1.9c-0.1-1-0.1-2.3,0-3.4
		c0-0.6,0.2-1.1,0.3-1.7c0.1-0.6,0.3-1.1,0.5-1.6c0.2-0.5,0.4-1,0.7-1.6l0.8-1.4l1-1.3c0.4-0.4,0.8-0.8,1.2-1.2
		c0.4-0.4,0.9-0.7,1.4-1c0.5-0.3,0.9-0.7,1.5-0.9l1.6-0.7c0.6-0.2,1.1-0.4,1.7-0.5c1.1-0.4,2.4-0.6,3.6-0.8c1.2-0.3,2.5-0.3,3.7-0.4
		l1.8-0.1l2,0c1.4,0,2.5,0.2,3.7,0.3c0.6,0,1.2,0.2,1.8,0.4c0.6,0.2,1.2,0.2,1.8,0.5l1.7,0.6c0.6,0.2,1.1,0.5,1.7,0.8
		c0.6,0.2,1.1,0.6,1.6,1c0.5,0.3,1,0.7,1.5,1.1l0.7,0.6l0.7,0.7c0.5,0.4,0.9,0.9,1.3,1.4c0.8,1,1.5,2.1,2.2,3.2
		c0.6,1.1,1.2,2.3,1.6,3.6c-0.1-1.3-0.4-2.7-0.8-3.9c-0.5-1.3-0.9-2.6-1.7-3.7c-0.3-0.6-0.7-1.2-1.1-1.7l-0.6-0.8l-0.7-0.8
		c-0.5-0.5-0.9-1-1.5-1.5c-0.5-0.4-1-1-1.7-1.3c-0.6-0.4-1.2-0.8-1.8-1.2l-1.9-0.9c-0.6-0.3-1.3-0.5-2-0.7c-0.7-0.2-1.3-0.5-2-0.6
		c-1.4-0.3-2.9-0.6-4.2-0.7l-2-0.2l-0.1,0l-0.2,0l-0.1,0l-0.3,0l-0.5,0l-1,0c-1.4,0-2.8,0-4.2,0.3c-1.4,0.2-2.8,0.3-4.2,0.8
		c-0.7,0.2-1.4,0.4-2.1,0.6l-2,0.9c-0.7,0.3-1.3,0.7-1.9,1.1c-0.6,0.4-1.3,0.8-1.8,1.3c-0.6,0.5-1.1,1-1.7,1.6l-1.4,1.8
		c-0.4,0.6-0.8,1.3-1.1,2c-0.3,0.7-0.6,1.4-0.8,2.1c-0.2,0.7-0.4,1.5-0.6,2.2c-0.1,0.7-0.3,1.5-0.3,2.2c-0.1,0.9-0.1,1.8,0,2.8
		c-0.9,0.4-1.8,0.7-2.7,1.2c-1.4,0.7-2.8,1.5-4.2,2.4c-0.6,0.5-1.3,1-1.9,1.6c-0.6,0.6-1.2,1.3-1.7,2l-0.7,1.2L8.4,41
		c-0.1,0.4-0.2,0.9-0.3,1.3c0,0.5-0.1,0.9-0.1,1.4c0,0.9,0.2,1.8,0.5,2.6c0.3,0.8,0.6,1.6,1.1,2.3c0.4,0.7,0.9,1.3,1.4,1.9
		c0.5,0.6,1.1,1.2,1.6,1.7C13.8,53.2,15.1,54.2,16.3,55z"/>
</g>
</svg>
