<?xml version="1.0" encoding="utf-8"?>
<!-- Generator: Adobe Illustrator 18.1.1, SVG Export Plug-In . SVG Version: 6.00 Build 0)  -->
<!DOCTYPE svg PUBLIC "-//W3C//DTD SVG 1.1//EN" "http://www.w3.org/Graphics/SVG/1.1/DTD/svg11.dtd">
<svg version="1.1" id="Layer_1" xmlns="http://www.w3.org/2000/svg" xmlns:xlink="http://www.w3.org/1999/xlink" x="0px" y="0px"
	 viewBox="0 0 100 100" enable-background="new 0 0 100 100" xml:space="preserve">
<path fill="#2C4351" d="M92.6,88.7l-0.1-0.2c0,0-0.2-2.3-2.5-4.1c-2.2-1.7-7-3-12.4-3c-3.8,0-9.6-0.8-14.3-2.2l0.1-0.1
	c0.6-1,0.3-2.3-0.7-2.9c-1-0.6-2.3-0.2-2.9,0.7l-0.4,0.7c-0.4-0.2-0.7-0.4-1-0.6l0.6-1c0.6-1,0.3-2.3-0.7-2.9
	c-1-0.6-2.3-0.2-2.9,0.7l-0.5,0.8c-0.3-0.2-0.6-0.5-1-0.7l0.6-1c0.6-1,0.3-2.3-0.7-2.9c-1-0.6-2.3-0.2-2.9,0.7l-0.4,0.7
	c-0.3-0.2-0.6-0.5-1-0.7l0.5-0.9c0.2-0.3,0.3-0.7,0.3-1c2.5-0.1,5.7,0.1,8.7,1.8c0.2,0.1,0.4,0.2,0.7,0.2c0.5,0,0.9-0.3,1.2-0.7
	c0.4-0.7,0.1-1.5-0.5-1.8c-3.2-1.7-6.5-2.2-9.2-2.1c0.4-0.5,0.8-1.1,1.1-1.6c0.8-1.5,1.1-2.9,0.9-4.3c-0.3-1.8-1.8-3.3-3.4-3.5
	c-1.2-0.1-2.4,0.3-3.6,1.3c-1.6,1.4-2.7,3.3-2.9,5.3c-0.1,1.3,0.1,2.6,0.7,3.6c-0.1-0.1-0.2-0.1-0.3-0.2c0,0-2.1-1.1-3,0.4
	c-0.9,1.5-7.9,5.9-14.1,6.1c-1.8,0.1-4-0.3-6.5-1.2c-0.7,1-2,1.4-3.2,0.8c-1.1-0.5-1.7-1.8-1.3-3c-1.4-0.8-2.8-1.7-4.2-2.7
	c-0.9-0.6-2.2-1-3.1,0.2c0,0-2.9,6.7-3.2,11.8c-0.3,5,1.2,11.3,1.2,11.3s0,0.3,0.1,1.1l0.4,3.9c0,0,1.3,2.4,4.7,2.4
	c1,0,18.2,0.3,18.2,0.3S59.1,101,69,99.6c4.5-0.6,8.8-1.6,13.2-2.8c0.9-0.3,9.1-2.5,11-3.4c1.1-0.3,1.8-1.2,1.8-2.4
	C95,89.8,93.9,88.7,92.6,88.7z M11.7,91c0.1-2.7,2.4-4.8,5-4.7c2.7,0.1,4.8,2.4,4.7,5L11.7,91z M23.3,86.7c-1.5,0.4-3.1-0.5-3.5-2
	c-0.4-1.5,0.5-3.1,2-3.5c1.5-0.4,3.1,0.5,3.5,2C25.7,84.7,24.8,86.3,23.3,86.7z M28.3,89.8c-0.8,0.2-1.7-0.2-1.9-1
	c-0.2-0.8,0.3-1.6,1.1-1.8c0.8-0.2,1.7,0.2,1.9,1C29.6,88.7,29.1,89.5,28.3,89.8z M45.9,63.6c0.1-1.3,0.8-2.5,1.9-3.5
	c0.5-0.5,1-0.7,1.4-0.7c0,0,0.1,0,0.1,0c0.5,0.1,1,0.6,1.1,1.3c0.1,0.7-0.1,1.6-0.6,2.5c-0.7,1.3-1.8,2.4-3.1,3.2
	C46.1,65.7,45.8,64.6,45.9,63.6z M68.2,97.4c-1.8,0.2-3.4-1.1-3.5-2.9l6.4-0.7C71.3,95.7,70,97.2,68.2,97.4z M83.6,84.6
	c0.7,0,1.2,0.6,1.2,1.3c0,0.7-0.5,1.3-1.2,1.3c-0.7,0-1.2-0.6-1.2-1.3C82.4,85.2,82.9,84.6,83.6,84.6z M79.4,92.2
	c-0.4-1.5,0.6-3.1,2.1-3.4c1.5-0.4,3.1,0.6,3.4,2.1L79.4,92.2z M86.8,88.3c-0.5,0-0.9-0.4-0.9-1c0-0.5,0.4-1,0.9-1
	c0.5,0,0.9,0.4,0.9,1C87.7,87.9,87.3,88.3,86.8,88.3z"/>
</svg>
