<?xml version="1.0" encoding="utf-8"?>
<!-- Generator: Adobe Illustrator 18.1.1, SVG Export Plug-In . SVG Version: 6.00 Build 0)  -->
<!DOCTYPE svg PUBLIC "-//W3C//DTD SVG 1.1//EN" "http://www.w3.org/Graphics/SVG/1.1/DTD/svg11.dtd">
<svg version="1.1" id="Layer_1" xmlns="http://www.w3.org/2000/svg" xmlns:xlink="http://www.w3.org/1999/xlink" x="0px" y="0px"
	 viewBox="0 0 50 50" enable-background="new 0 0 50 50" xml:space="preserve">
<path fill="#2C4351" d="M33.4,8.8c-5.9,0-10.8,4.8-10.8,10.7c0,1.8,0.5,3.6,1.3,5.1L6.7,42c-1.1,1.1-1.1,3,0,4.1
	c0.6,0.6,1.3,0.9,2.1,0.9c0.7,0,1.5-0.3,2.1-0.9l0.9-0.9l4,4c0.6,0.6,1.3,0.8,2,0.8c0.7,0,1.5-0.3,2-0.8c1.1-1.1,1.1-2.9,0-4l-4-4
	l1.3-1.3l4,4c0.6,0.6,1.3,0.8,2,0.8c0.7,0,1.5-0.3,2-0.8c1.1-1.1,1.1-2.9,0-4l-4-4l7-7c1.6,0.9,3.4,1.5,5.4,1.5
	c5.9,0,10.7-4.8,10.7-10.7C44.2,13.6,39.4,8.8,33.4,8.8z M33.4,24.4c-2.7,0-4.9-2.2-4.9-4.9c0-2.7,2.2-4.9,4.9-4.9
	c2.7,0,4.9,2.2,4.9,4.9C38.4,22.2,36.2,24.4,33.4,24.4z"/>
</svg>
