<?xml version="1.0" encoding="utf-8"?>
<!-- Generator: Adobe Illustrator 18.1.1, SVG Export Plug-In . SVG Version: 6.00 Build 0)  -->
<!DOCTYPE svg PUBLIC "-//W3C//DTD SVG 1.1//EN" "http://www.w3.org/Graphics/SVG/1.1/DTD/svg11.dtd">
<svg version="1.1" id="Layer_1" xmlns="http://www.w3.org/2000/svg" xmlns:xlink="http://www.w3.org/1999/xlink" x="0px" y="0px"
	 viewBox="0 0 50 50" enable-background="new 0 0 50 50" xml:space="preserve">
<g>
	<path fill="#2C4351" d="M19,19.8l-4.9-1.9c-0.4-0.1-0.8-0.2-1.2-0.2c-1.3,0-2.5,0.7-3,1.9l-3.5,7.3c-0.8,1.8,0,3.9,1.8,4.6L9,31.8
		L3.3,46.7c-0.5,1.2,0.2,2.6,1.4,3.1c1.2,0.5,2.6-0.2,3.1-1.4l5.7-14.9l0.8,0.3c0.4,0.2,0.8,0.2,1.2,0.2c1.5,0,2.8-0.9,3.2-2.4
		l2.3-7.8C21.5,22.2,20.6,20.4,19,19.8z M16.9,23.3c-0.4,1-1.5,1.5-2.5,1.1c-1-0.4-1.5-1.5-1.1-2.5c0.4-1,1.5-1.5,2.5-1.1
		C16.8,21.2,17.3,22.3,16.9,23.3z"/>
	<path fill="#2C4351" d="M35.5,29.3c-1.5-4.5-4.4-6.7-5.7-7.5c0.1-0.2,0.2-0.5,0.3-0.7c0.7-1.9,0.5-4-0.5-5.9
		c-1-1.9-2.8-3.4-4.9-4.2c-1.1-0.4-2.3-0.7-3.5-0.7c-3.4,0-6.2,1.8-7.3,4.6c-0.2,0.5-0.3,0.9-0.4,1.4c0.4,0,0.8,0.1,1.1,0.3l0.4,0.2
		c0-0.4,0.1-0.9,0.3-1.3c0.8-2.2,3.1-3.6,5.8-3.6c1,0,2,0.2,3,0.6c1.8,0.7,3.3,1.9,4.1,3.5c0.8,1.5,1,3.2,0.4,4.6
		c-0.8,2.2-3.1,3.6-5.8,3.6c-0.1,0-0.3,0-0.4,0c0,0.1,0,0.1-0.1,0.2L22,25.6c0.3,0,0.6,0,0.8,0c2.5,0,4.7-1,6.2-2.7
		c1.1,0.6,3.8,2.6,5.2,6.7c-2.4,1.3-3.4,5.3-2.3,9.6L42.5,36C41.2,31.8,38.2,29,35.5,29.3z M36.6,35.8c-1.5,0.4-2.8,0-3.1-0.9
		c-0.3-0.9,0.7-2,2.2-2.4c1.5-0.4,2.8,0,3.1,0.9C39.1,34.3,38.1,35.4,36.6,35.8z"/>
	<path fill="#2C4351" d="M42.8,36.8l-10.7,3.3c1.4,4.5,4.8,7.5,7.6,6.7C42.7,45.9,44,41.5,42.8,36.8z M39.1,43.4
		c-1.5,0.4-2.8,0-3.1-0.9c-0.3-0.9,0.7-2,2.2-2.4c1.5-0.4,2.8,0,3.1,0.9C41.5,41.9,40.6,43,39.1,43.4z"/>
</g>
</svg>
