<?xml version="1.0" encoding="utf-8"?>
<!-- Generator: Adobe Illustrator 18.1.1, SVG Export Plug-In . SVG Version: 6.00 Build 0)  -->
<!DOCTYPE svg PUBLIC "-//W3C//DTD SVG 1.1//EN" "http://www.w3.org/Graphics/SVG/1.1/DTD/svg11.dtd">
<svg version="1.1" id="Layer_1" xmlns="http://www.w3.org/2000/svg" xmlns:xlink="http://www.w3.org/1999/xlink" x="0px" y="0px"
	 viewBox="0 0 50 50" enable-background="new 0 0 50 50" xml:space="preserve">
<path fill="#2C4351" d="M46,17.4c-1.1,0-1.9,0.9-1.9,1.9v3.4H18.2c0.4-0.4,0.6-0.9,0.6-1.5c0-1.3-1-2.3-2.3-2.3H9.8
	c-1.3,0-2.3,1-2.3,2.3c0,0.6,0.2,1.1,0.6,1.5H5.9v-3.4c0-1.1-0.9-1.9-1.9-1.9c-1.1,0-1.9,0.9-1.9,1.9v28.8C2.1,49.1,3,50,4,50
	c1.1,0,1.9-0.9,1.9-1.9v-4.9h26.2v4.9c0,1.1,0.9,1.9,1.9,1.9c1.1,0,1.9-0.9,1.9-1.9v-4.9h8.1v4.9c0,1.1,0.9,1.9,1.9,1.9
	s1.9-0.9,1.9-1.9V19.3C47.9,18.2,47,17.4,46,17.4z M44.1,31.3H36v-3.6h8.1V31.3z M18.1,38.3c0.4-0.4,0.6-0.9,0.6-1.5
	c0-1.3-1-2.3-2.3-2.3H9.8c-1.3,0-2.3,1-2.3,2.3c0,0.6,0.2,1.1,0.6,1.5H5.9V27.6h26.2v10.6H18.1z M36,38.3v-3.3h8.1v3.3H36z"/>
</svg>
