<?xml version="1.0" encoding="UTF-8" standalone="no"?>
<svg
   xmlns:dc="http://purl.org/dc/elements/1.1/"
   xmlns:cc="http://creativecommons.org/ns#"
   xmlns:rdf="http://www.w3.org/1999/02/22-rdf-syntax-ns#"
   xmlns:svg="http://www.w3.org/2000/svg"
   xmlns="http://www.w3.org/2000/svg"
   viewBox="0 0 33.333332 33.333332"
   height="33.333332"
   width="33.333332"
   xml:space="preserve"
   id="svg2"
   version="1.1"><metadata
     id="metadata8"><rdf:RDF><cc:Work
         rdf:about=""><dc:format>image/svg+xml</dc:format><dc:type
           rdf:resource="http://purl.org/dc/dcmitype/StillImage" /></cc:Work></rdf:RDF></metadata><defs
     id="defs6"><clipPath
       id="clipPath18"
       clipPathUnits="userSpaceOnUse"><path
         id="path16"
         d="M 0,25 H 25 V 0 H 0 Z" /></clipPath></defs><g
     transform="matrix(1.3333333,0,0,-1.3333333,0,33.333333)"
     id="g10"><g
       id="g12"><g
         clip-path="url(#2C4351th18)"
         id="g14"><g
           transform="translate(11.0435,4.7461)"
           id="g20"><path
             id="path22"
             style="fill:#2C4351;fill-opacity:1;fill-rule:nonzero;stroke:none"
             d="m 0,0 c -4.274,0 -7.754,3.479 -7.754,7.754 0,4.275 3.48,7.754 7.754,7.754 4.277,0 7.754,-3.479 7.754,-7.754 C 7.754,3.479 4.277,0 0,0 M 11.631,9.305 H 10.855 C 10.428,9.305 10.08,8.958 10.08,8.529 H 9.238 C 9.077,10.424 8.384,12.165 7.26,13.566 7.009,15.262 6.688,16.951 6.203,18.609 L 4.652,20.16 V 15.803 C 3.283,16.597 1.696,17.059 0,17.059 c -1.696,0 -3.282,-0.462 -4.652,-1.256 v 4.357 l -1.551,-1.551 c -0.482,-1.658 -0.803,-3.345 -1.054,-5.041 -1.278,-1.593 -2.048,-3.612 -2.048,-5.814 0,-2.202 0.77,-4.221 2.048,-5.814 0.251,-1.696 0.572,-3.383 1.054,-5.041 l 1.551,-1.551 v 4.357 c 1.37,-0.794 2.956,-1.256 4.652,-1.256 1.696,0 3.283,0.462 4.652,1.256 v -4.357 l 1.551,1.551 C 6.688,-1.443 7.009,0.245 7.26,1.94 8.384,3.342 9.077,5.084 9.238,6.978 h 0.842 c 0,-0.428 0.348,-0.775 0.775,-0.775 h 0.776 c 0.43,0 0.775,0.347 0.775,0.775 v 1.551 c 0,0.429 -0.345,0.776 -0.775,0.776" /></g><g
           transform="translate(14.4719,7.3375)"
           id="g24"><path
             id="path26"
             style="fill:#2C4351;fill-opacity:1;fill-rule:nonzero;stroke:none"
             d="m 0,0 -0.379,0.656 -0.672,-0.388 0.37,-0.639 c -0.721,-0.359 -1.515,-0.577 -2.36,-0.63 v 0.736 h -0.775 v -0.736 c -0.845,0.053 -1.639,0.271 -2.36,0.63 L -5.806,0.268 -6.479,0.656 -6.857,0 C -7.543,0.457 -8.132,1.046 -8.59,1.734 l 0.654,0.379 -0.387,0.672 -0.639,-0.369 c -0.358,0.72 -0.576,1.514 -0.63,2.359 h 0.736 V 5.55 h -0.736 c 0.054,0.845 0.272,1.639 0.631,2.36 l 0.639,-0.37 0.386,0.673 -0.654,0.378 c 0.458,0.686 1.048,1.277 1.734,1.734 l 0.379,-0.655 0.671,0.387 -0.37,0.639 c 0.721,0.359 1.515,0.577 2.36,0.63 V 10.59 h 0.775 v 0.736 c 0.845,-0.053 1.639,-0.271 2.36,-0.63 L -1.051,10.057 -0.379,9.67 0,10.325 C 0.688,9.866 1.278,9.277 1.736,8.591 L 1.078,8.213 1.466,7.54 2.105,7.91 C 2.466,7.189 2.684,6.395 2.735,5.55 H 1.999 V 4.775 H 2.735 C 2.684,3.93 2.465,3.136 2.105,2.415 L 1.466,2.785 1.078,2.112 1.736,1.734 C 1.278,1.046 0.688,0.457 0,0 m -3.428,12.141 c -3.853,0 -6.979,-3.124 -6.979,-6.978 0,-3.855 3.126,-6.979 6.979,-6.979 3.855,0 6.978,3.124 6.978,6.979 0,3.854 -3.123,6.978 -6.978,6.978" /></g><g
           transform="translate(15.6955,12.8879)"
           id="g28"><path
             id="path30"
             style="fill:#2C4351;fill-opacity:1;fill-rule:nonzero;stroke:none"
             d="M 0,0 H -3.995 C -4.098,0.172 -4.259,0.297 -4.458,0.348 V 4.265 H -4.846 V 0.348 C -5.043,0.297 -5.207,0.172 -5.308,0 h -0.895 v -0.775 h 0.895 c 0.101,-0.173 0.265,-0.297 0.462,-0.349 v -0.814 h 0.388 v 0.814 c 0.2,0.052 0.36,0.176 0.463,0.349 l 3.995,0 z" /></g></g></g></g></svg>