<?xml version="1.0" encoding="utf-8"?>
<!-- Generator: Adobe Illustrator 18.1.1, SVG Export Plug-In . SVG Version: 6.00 Build 0)  -->
<!DOCTYPE svg PUBLIC "-//W3C//DTD SVG 1.1//EN" "http://www.w3.org/Graphics/SVG/1.1/DTD/svg11.dtd">
<svg version="1.1" id="Layer_1" xmlns="http://www.w3.org/2000/svg" xmlns:xlink="http://www.w3.org/1999/xlink" x="0px" y="0px"
	 viewBox="0 0 100 100" enable-background="new 0 0 100 100" xml:space="preserve">
<g>
	<path fill="#2C4351" d="M43.4,62c8.2-0.9,14.6-7.8,14.6-16.2c0-7.3-4.8-13.5-11.4-15.5c1.6-2.1,2.5-4.6,2.5-7.3
		c0-6.9-5.9-12.5-13.3-12.5c-4.1,0-7.7,1.7-10.2,4.5c-0.2,0-0.4,0-0.6,0c-8,0-14.6,6.5-14.6,14.6c0,2.7,0.7,5.2,2,7.4
		C8,39.7,5.1,44.7,5.1,50.5c0,9,7.3,16.3,16.3,16.3c0.1,0,0.1,0,0.2,0L27.9,79l-1.4,20.8h11.3l-1.9-25.9l4.7-7.7L43.4,62z
		 M25.1,66.3c1.8-0.4,3.4-1.1,4.9-2l-0.4,8.7L25.1,66.3z M35.7,60.9c1.4,0.6,3,0.9,4.6,1.1l-4.1,4.5L35.7,60.9z"/>
	<path fill="#2C4351" d="M92.9,63.6H57.8c-1.3,0-2.7,1.1-3,2.4l-1.8,7.3c-0.3,1.3,0.5,2.4,1.9,2.4h3.1l-1.5,6.1c0,0.2,0,0.3,0,0.5
		h-9.1c-0.8,0-1.5,0.7-1.5,1.5v2.2c0,0.8,0.7,1.5,1.5,1.5h0.5c-1,1.6-1.6,3.9-1.6,6.3v4.8c0,0.8,0.6,1.4,1.4,1.4
		c0.8,0,1.4-0.6,1.4-1.4v-4.8c0-3.6,1.6-6.3,3-6.3h2c1.4,0,3,2.7,3,6.3v4.8c0,0.8,0.6,1.4,1.4,1.4c0.8,0,1.4-0.6,1.4-1.4v-4.8
		c0-2.5-0.6-4.7-1.6-6.3h18.8c-1,1.6-1.6,3.9-1.6,6.3v4.8c0,0.8,0.6,1.4,1.4,1.4c0.8,0,1.4-0.6,1.4-1.4v-4.8c0-3.6,1.6-6.3,3-6.3h2
		c1.4,0,3,2.7,3,6.3v4.8c0,0.8,0.6,1.4,1.4,1.4c0.8,0,1.4-0.6,1.4-1.4v-4.8c0-2.5-0.6-4.7-1.6-6.4c0.7-0.1,1.3-0.7,1.3-1.4v-2.2
		c0-0.8-0.7-1.5-1.5-1.5h-0.2l1.4-5.9c0.1-0.2,0.1-0.4,0-0.6h1.8c1.3,0,2.7-1.1,3-2.4l1.8-7.3C95.1,64.7,94.2,63.6,92.9,63.6z
		 M83.6,81.9c0,0.2,0,0.3,0,0.5H59.5l1.4-5.9c0.1-0.2,0.1-0.4,0-0.6h24.1L83.6,81.9z"/>
</g>
</svg>
