<?xml version="1.0" encoding="UTF-8" standalone="no"?>
<svg
   xmlns:dc="http://purl.org/dc/elements/1.1/"
   xmlns:cc="http://creativecommons.org/ns#"
   xmlns:rdf="http://www.w3.org/1999/02/22-rdf-syntax-ns#"
   xmlns:svg="http://www.w3.org/2000/svg"
   xmlns="http://www.w3.org/2000/svg"
   viewBox="0 0 33.333332 33.333332"
   height="33.333332"
   width="33.333332"
   xml:space="preserve"
   id="svg2"
   version="1.1"><metadata
     id="metadata8"><rdf:RDF><cc:Work
         rdf:about=""><dc:format>image/svg+xml</dc:format><dc:type
           rdf:resource="http://purl.org/dc/dcmitype/StillImage" /></cc:Work></rdf:RDF></metadata><defs
     id="defs6"><clipPath
       id="clipPath18"
       clipPathUnits="userSpaceOnUse"><path
         id="path16"
         d="M 0,25 H 25 V 0 H 0 Z" /></clipPath></defs><g
     transform="matrix(1.3333333,0,0,-1.3333333,0,33.333333)"
     id="g10"><g
       id="g12"><g
         clip-path="url(#2C4351th18)"
         id="g14"><g
           transform="translate(23.8188,8.0129)"
           id="g20"><path
             id="path22"
             style="fill:#2C4351;fill-opacity:1;fill-rule:nonzero;stroke:none"
             d="m 0,0 c -1.597,-0.001 -8.951,0 -9.063,0.001 -0.163,0.002 -0.255,0.078 -0.253,0.209 0.002,0.132 0.09,0.205 0.254,0.205 1.101,0.002 5.719,0.004 6.927,0.006 0.587,0.001 1.045,0.343 1.163,0.898 0.095,0.45 -0.034,0.84 -0.394,1.145 C -1.59,2.654 -1.845,2.737 -2.137,2.737 -2.777,2.736 -3.849,2.735 -5.101,2.735 -5.483,2.439 -6.042,2.212 -6.856,2.212 c -0.805,0 -1.356,0.227 -1.734,0.523 -2.394,0 -4.666,0 -5.471,0.001 -0.024,0 -0.048,10e-4 -0.072,0 -0.118,-0.003 -0.204,0.047 -0.235,0.163 -0.031,0.113 0.036,0.181 0.127,0.232 0.255,0.142 0.51,0.283 0.765,0.425 0.818,0.455 1.638,0.905 2.452,1.368 0.61,0.347 1.04,0.843 1.194,1.546 0.058,0.264 0.149,1.689 -0.461,1.43 -0.254,-0.107 -0.503,-0.227 -0.751,-0.346 -1.133,-0.542 -6.009,-2.882 -6.62,-3.187 -0.577,-0.288 -1.095,-0.663 -1.517,-1.157 -0.112,-0.13 -0.215,-0.268 -0.31,-0.411 -0.518,-0.78 -1.082,-1.453 -2.012,-1.743 -0.585,-0.183 -1.248,-0.096 -1.859,-0.097 -0.253,0 -0.459,-0.206 -0.459,-0.459 v -6.183 c 0,-0.254 0.206,-0.459 0.459,-0.459 h 0.908 c 0.095,0 0.187,-0.029 0.265,-0.084 0.553,-0.388 2.409,-1.52 5.266,-1.52 0.196,-0.014 12.064,-0.042 12.448,-0.037 0.634,0.007 1.138,0.509 1.147,1.135 0.009,0.644 -0.478,1.173 -1.125,1.179 -1.168,0.011 -4.649,0.001 -5.221,0.004 -0.156,10e-4 -0.242,0.077 -0.242,0.205 -10e-4,0.131 0.092,0.211 0.251,0.211 1.304,0.001 6.611,-10e-4 7.959,0.001 0.781,0.001 1.342,0.745 1.109,1.489 -0.143,0.459 -0.53,0.818 -1.065,0.821 -1.08,0.007 -6.582,0.002 -7.202,0.005 -0.187,10e-4 -0.293,0.137 -0.232,0.286 0.042,0.103 0.128,0.135 0.233,0.134 0.255,-10e-4 7.952,0 8.861,0 0.632,0.001 1.14,0.518 1.142,1.162 C 1.144,-0.521 0.627,0 0,0" /></g><g
           transform="translate(16.9625,11.0566)"
           id="g24"><path
             id="path26"
             style="fill:#2C4351;fill-opacity:1;fill-rule:nonzero;stroke:none"
             d="M 0,0 C 4.118,0 0,7.052 0,7.052 0,7.052 -4.047,0 0,0" /></g><g
           transform="translate(12.812,17.7192)"
           id="g28"><path
             id="path30"
             style="fill:#2C4351;fill-opacity:1;fill-rule:nonzero;stroke:none"
             d="M 0,0 C 4.118,0 0,7.052 0,7.052 0,7.052 -4.047,0 0,0" /></g></g></g></g></svg>