<?xml version="1.0" encoding="utf-8"?>
<!-- Generator: Adobe Illustrator 19.2.1, SVG Export Plug-In . SVG Version: 6.00 Build 0)  -->
<svg version="1.1" id="Layer_1" xmlns="http://www.w3.org/2000/svg" xmlns:xlink="http://www.w3.org/1999/xlink" x="0px" y="0px"
	 viewBox="0 0 40 40" style="enable-background:new 0 0 40 40;" xml:space="preserve">
<style type="text/css">
	.st0{fill:#2C4351;}
</style>
<path class="st0" d="M5.5,39.2h9.7c0.9,0,1.8-0.4,2.4-1.1c0.6-0.7,0.9-1.6,0.9-2.5l-1.2-14.1c-0.1-1.7-1.6-3-3.3-3H6.8
	c-1.7,0-3.1,1.3-3.3,3L2.3,35.6c-0.1,0.9,0.2,1.8,0.9,2.5C3.7,38.8,4.6,39.2,5.5,39.2z M6.6,21.8c0-0.1,0.1-0.2,0.2-0.2H14
	c0.1,0,0.2,0.1,0.2,0.2l1.2,14.1c0,0.1,0,0.1-0.1,0.2c0,0-0.1,0.1-0.2,0.1H5.5c-0.1,0-0.1,0-0.2-0.1c0,0-0.1-0.1-0.1-0.2L6.6,21.8z"
	/>
<path class="st0" d="M10.7,10.5h-0.7c-2.4,0-4.5,1.6-5.2,3.9l-0.3,1.1c-0.2,0.6,0.3,1.1,0.9,1.1h10c0.6,0,1-0.6,0.9-1.1l-0.3-1.1
	C15.2,12.1,13.1,10.5,10.7,10.5z M7.9,14c-0.3,0.3-0.8,0.3-1.1,0c-0.3-0.3-0.3-0.8,0-1.1c0.3-0.3,0.8-0.3,1.1,0
	C8.2,13.2,8.2,13.7,7.9,14z M11,13.1c-0.3,0.3-0.8,0.3-1.1,0c-0.3-0.3-0.3-0.8,0-1.1c0.3-0.3,0.8-0.3,1.1,0
	C11.3,12.3,11.3,12.8,11,13.1z M14,14c-0.3,0.3-0.8,0.3-1.1,0c-0.3-0.3-0.3-0.8,0-1.1c0.3-0.3,0.8-0.3,1.1,0
	C14.3,13.2,14.3,13.7,14,14z"/>
<path class="st0" d="M35.3,35.1h-11c-0.9,0-1.7,0.5-1.9,1.2l-0.2,0.9c-0.3,1,0.7,1.9,1.9,1.9h11.5c1.3,0,2.2-0.9,1.9-1.9l-0.2-0.9
	C37.1,35.7,36.3,35.1,35.3,35.1z"/>
<path class="st0" d="M36.2,23.3c-0.7-1.3-1.2-2.8-1.5-4.2c-0.1-0.5,0.1-1.1,0.4-1.5c0.5-0.5,0.8-1.2,0.8-1.8c0-1.3-1.2-2.5-3-3.1
	c-0.6-0.2-1-0.8-1-1.4c0-0.6,0.4-1.2,1-1.4c1.8-0.6,3-1.8,3-3.1c0-1.8-2.3-3.4-5.4-3.6c-0.2,0.2-0.5,0.3-0.8,0.3
	c-0.3,0-0.6-0.1-0.8-0.3c-3.1,0.2-5.5,1.7-5.5,3.6c0,1.3,1.2,2.5,3,3.1c0.6,0.2,1,0.8,1,1.4c0,0.6-0.4,1.2-1,1.4
	c-1.8,0.6-3,1.8-3,3.1c0,0.7,0.4,1.4,1,1.9c0.4,0.4,0.6,1,0.5,1.5c-0.3,1.3-0.8,2.7-1.5,4c-1.6,2.9-2.7,7,0.3,9.6
	c0.3,0.2,0.6,0.3,1,0.3h10.1c0.4,0,0.7-0.1,1-0.3C38.8,30.3,37.8,26.2,36.2,23.3z"/>
<path class="st0" d="M30.6,3.1c0.3-0.2,0.5-0.6,0.5-1c0-0.7-0.6-1.3-1.3-1.3c-0.7,0-1.3,0.6-1.3,1.3c0,0.4,0.2,0.8,0.5,1
	c0.2,0,0.5,0,0.7,0C30,3,30.3,3.1,30.6,3.1z"/>
<path class="st0" d="M30.6,3.1c-0.3,0-0.6,0-0.8,0c-0.2,0-0.5,0-0.7,0c0.2,0.2,0.5,0.3,0.8,0.3C30.1,3.4,30.4,3.3,30.6,3.1z"/>
</svg>
