<?xml version="1.0" encoding="utf-8"?>
<!-- Generator: Adobe Illustrator 18.1.1, SVG Export Plug-In . SVG Version: 6.00 Build 0)  -->
<!DOCTYPE svg PUBLIC "-//W3C//DTD SVG 1.1//EN" "http://www.w3.org/Graphics/SVG/1.1/DTD/svg11.dtd">
<svg version="1.1" id="Layer_1" xmlns="http://www.w3.org/2000/svg" xmlns:xlink="http://www.w3.org/1999/xlink" x="0px" y="0px"
	 viewBox="0 0 100 100" enable-background="new 0 0 100 100" xml:space="preserve">
<g>
	<path fill="#2C4351" d="M55.9,34.6H39.5c-0.6,5.6-5,10.1-10.6,10.6v28.9c5.6,0.6,10.1,5,10.6,10.6h16.4c0.6-5.6,5-10.1,10.6-10.6
		V45.2C60.9,44.7,56.5,40.2,55.9,34.6z"/>
	<path fill="#2C4351" d="M71.9,19.4v6.7h-5.1v-6.7h-3.6v6.7h-5.1v-6.7h-3.6v6.7h-5.1v-6.7h-3.6v6.7h-5.1v-6.7h-3.6v6.7h-5.1v-6.7
		h-3.6v6.7h-5.1v-6.7H20V100h3.6v-6.7h5.1v6.7h3.6v-6.7h5.1v6.7h3.6v-6.7h5.1v6.7h3.6v-6.7h5.1v6.7h3.6v-6.7h5.1v6.7h3.6v-6.7h5.1
		v6.7h3.6v-6.7V26.1v-6.7H71.9z M68.9,76.5h-1.2c-5.2,0-9.5,4.3-9.5,9.5v1.2h-21V86c0-5.2-4.3-9.5-9.5-9.5h-1.2V42.9h1.2
		c5.2,0,9.5-4.3,9.5-9.5v-1.2h21v1.2c0,5.2,4.3,9.5,9.5,9.5h1.2V76.5z"/>
</g>
</svg>
