<?xml version="1.0" encoding="utf-8"?>
<!-- Generator: Adobe Illustrator 18.1.1, SVG Export Plug-In . SVG Version: 6.00 Build 0)  -->
<!DOCTYPE svg PUBLIC "-//W3C//DTD SVG 1.1//EN" "http://www.w3.org/Graphics/SVG/1.1/DTD/svg11.dtd">
<svg version="1.1" id="Layer_1" xmlns="http://www.w3.org/2000/svg" xmlns:xlink="http://www.w3.org/1999/xlink" x="0px" y="0px"
	 viewBox="0 0 100 100" enable-background="new 0 0 100 100" xml:space="preserve">
<g>
	<path fill="#2C4351" d="M75,59.6c0,0,0-14-21.3-14c-1.2,0-2.4,0-3.6,0.1c-24.9,1.7-39,27.6-39,27.6L45.4,100
		c6.1-18.9,28.3-24.3,28.3-24.3s2.8-0.6,6.3-0.6c3,0,6.5,0.4,9.4,2.1C89.3,77.2,87.7,64.5,75,59.6z M61.2,60.2c-1.7,0-3-1.4-3-3
		c0-1.7,1.4-3,3-3c1.7,0,3,1.4,3,3C64.2,58.8,62.9,60.2,61.2,60.2z"/>
	<path fill="#2C4351" d="M49.9,42.6c1.3-0.1,2.6-0.1,3.9-0.1c7.7,0,13.2,1.8,17,4.3c0.4-1.2,0.7-2.5,0.8-3.9
		c0.2-6.3-4.3-11.5-10.1-11.7c-1,0-2,0.1-3,0.4c-0.7-5.4-4.8-9.6-10-9.8c-5.8-0.2-10.6,4.8-10.8,11.1c0,0.2,0,0.4,0,0.6
		c-0.2,0-0.4,0-0.6,0c-5.8-0.2-10.6,4.8-10.8,11.1c-0.1,2.2,0.5,4.4,1.4,6.2C33.7,46.5,41.2,43.2,49.9,42.6z"/>
	<path fill="#2C4351" d="M74.4,78.8c-0.2,0-11.3,2.9-19.3,11.1c2.1,2.6,5.3,4.2,8.9,4.2c6.3,0,11.5-5.1,11.5-11.5
		c0-1.4-0.2-2.7-0.7-3.9C74.5,78.8,74.4,78.8,74.4,78.8z"/>
</g>
</svg>
