<?xml version="1.0" encoding="utf-8"?>
<!-- Generator: Adobe Illustrator 18.1.1, SVG Export Plug-In . SVG Version: 6.00 Build 0)  -->
<!DOCTYPE svg PUBLIC "-//W3C//DTD SVG 1.1//EN" "http://www.w3.org/Graphics/SVG/1.1/DTD/svg11.dtd">
<svg version="1.1" id="Layer_1" xmlns="http://www.w3.org/2000/svg" xmlns:xlink="http://www.w3.org/1999/xlink" x="0px" y="0px"
	 viewBox="0 0 100 100" enable-background="new 0 0 100 100" xml:space="preserve">
<g>
	<path fill="#2C4351" d="M15.7,90.5c-2.2,2.2-2.2,5.7,0,7.9c2.2,2.2,5.7,2.2,7.9,0l21.3-21L37,69.5L15.7,90.5z"/>
	<path fill="#2C4351" d="M46.9,67.5C46.9,67.5,46.9,67.5,46.9,67.5C46.9,67.5,46.9,67.5,46.9,67.5c0.1,0.1,0.1,0.1,0.2,0.2
		c1.7,1.6,4,2.4,7,2.4c7.2,0,17.4-5,24.4-11.9c4.5-4.4,6.9-8.9,7.2-13.4c0.3-4.1-1.3-8-4.4-11.2c-3-3-6.6-4.6-10.4-4.6
		c-4.7,0-9.5,2.4-14.3,7.1c-4.5,4.5-8.5,10.6-10.6,16.4c-2.4,6.5-2.2,11.8,0.6,14.9C46.8,67.3,46.8,67.4,46.9,67.5z M78.7,36.1
		C78.7,36.1,78.7,36.1,78.7,36.1C78.7,36.1,78.7,36.1,78.7,36.1c0.3,0.3,0.2,1.5-0.7,3.3c-1.4,2.6-4.2,6.1-8.1,10
		C62.1,57,53.4,63.3,50,64.5c1.2-3.2,7.3-11.8,15.3-19.7c8.3-8.2,11.9-8.8,12.8-8.8C78.5,36,78.6,36.1,78.7,36.1z M82.1,44.5
		c-0.2,3.6-2.3,7.3-6.1,11.1c-6.2,6.1-15.5,10.8-21.7,10.9c5.6-3.1,13.2-9.5,18.1-14.4c4.3-4.2,7.2-7.9,8.8-10.9
		c0.1-0.2,0.2-0.4,0.3-0.6C82,41.8,82.2,43.1,82.1,44.5z M59.2,38.6c4-3.9,8-6,11.7-6c1.2,0,2.4,0.2,3.5,0.6
		c-3.1,1.4-7,4.4-11.6,8.9c-4.4,4.3-8.9,9.6-12.1,14.1c-1.1,1.5-1.9,2.8-2.5,3.9c0-1.9,0.5-4.1,1.4-6.5
		C51.4,48.3,55.1,42.7,59.2,38.6z"/>
	<path fill="#2C4351" d="M85.9,81.7c0-3.9-7.2-5.7-14.3-5.7c-6,0-12.1,1.3-13.8,4L18.6,40.8l-2.9,2.9l0,0L15,44.4
		c-1.1,1.1-1.1,2.8,0,3.9l12.6,12.6c1.1,1.1,2.8,1.1,3.9,0l0.7-0.7l24.9,24.9c1.5,6.4,7.2,11.1,14,11.1c7.5,0,13.6-5.7,14.4-13
		C85.8,82.8,85.9,82.2,85.9,81.7z M71.6,79.4c6.6,0,10.2,1.5,10.9,2.3c-0.7,0.8-4.3,2.3-10.9,2.3c-6.6,0-10.2-1.5-10.9-2.3
		C61.4,80.9,65.1,79.4,71.6,79.4z"/>
</g>
</svg>
