<?xml version="1.0" encoding="utf-8"?>
<!-- Generator: Adobe Illustrator 18.1.1, SVG Export Plug-In . SVG Version: 6.00 Build 0)  -->
<!DOCTYPE svg PUBLIC "-//W3C//DTD SVG 1.1//EN" "http://www.w3.org/Graphics/SVG/1.1/DTD/svg11.dtd">
<svg version="1.1" id="Layer_1" xmlns="http://www.w3.org/2000/svg" xmlns:xlink="http://www.w3.org/1999/xlink" x="0px" y="0px"
	 viewBox="0 0 100 100" enable-background="new 0 0 100 100" xml:space="preserve">
<g>
	<path fill="#2C4351" d="M64.8,51.9C64.8,51.9,64.8,51.9,64.8,51.9l-4.1,0l2.1-3.8c0.6-1.1,0.2-2.5-0.9-3.1
		c-1.1-0.6-2.5-0.2-3.1,0.9l-3.3,6l-4.6,0l-2.8-4.7l2.4-4.3h6.8c1.2,0,2.2-1,2.2-2.2c0-1.2-1-2.2-2.2-2.2H53l2-3.6
		c0.6-1.1,0.2-2.5-0.9-3.1c-1.1-0.6-2.5-0.2-3.1,0.9l-1.9,3.4L47,32.3c-0.6-1.1-2-1.4-3.1-0.8c-1.1,0.6-1.4,2-0.8,3.1l3.5,6L44.2,45
		h-5.5l-2.5-4.4l3.5-6c0.6-1.1,0.3-2.4-0.8-3.1c-1.1-0.6-2.4-0.3-3.1,0.8l-2.2,3.7l-1.9-3.4c-0.6-1.1-2-1.5-3.1-0.9
		c-1.1,0.6-1.5,2-0.9,3.1l2,3.6h-4.3c-1.2,0-2.2,1-2.2,2.2c0,1.2,1,2.2,2.2,2.2h6.8l2.4,4.3l-2.8,4.7l-4.8,0l-3.3-6
		c-0.6-1.1-2-1.5-3.1-0.9c-1.1,0.6-1.5,2-0.9,3.1l2.1,3.8l-4.1,0c0,0,0,0,0,0c-1.2,0-2.2,1-2.2,2.2c0,1.2,1,2.3,2.2,2.3l3.9,0
		l-2.2,3.7c-0.6,1.1-0.3,2.5,0.8,3.1c0.4,0.2,0.7,0.3,1.1,0.3c0.8,0,1.5-0.4,1.9-1.1l3.5-6l4.8,0l2.9,4.8l-2.4,4.3h-6.8
		c-1.2,0-2.2,1-2.2,2.2c0,1.2,1,2.2,2.2,2.2h4.3l-2,3.6c-0.6,1.1-0.2,2.5,0.9,3.1c0.3,0.2,0.7,0.3,1.1,0.3c0.8,0,1.6-0.4,2-1.2
		l1.9-3.4l2.2,3.7c0.4,0.7,1.2,1.1,1.9,1.1c0.4,0,0.8-0.1,1.1-0.3c1.1-0.6,1.4-2,0.8-3.1l-3.5-6l2.4-4.2h5.7l2.4,4.2l-3.5,6
		c-0.6,1.1-0.3,2.4,0.8,3.1c0.4,0.2,0.8,0.3,1.1,0.3c0.8,0,1.5-0.4,1.9-1.1l2.2-3.7l1.9,3.4c0.4,0.7,1.2,1.2,2,1.2
		c0.4,0,0.7-0.1,1.1-0.3c1.1-0.6,1.5-2,0.9-3.1L53,70h4.3c1.2,0,2.2-1,2.2-2.2c0-1.2-1-2.2-2.2-2.2h-6.8L48,60.9l2.6-4.5l5.2,0
		l3.5,6c0.4,0.7,1.2,1.1,1.9,1.1c0.4,0,0.8-0.1,1.1-0.3c1.1-0.6,1.4-2,0.8-3.1l-2.2-3.7l3.9,0c1.2,0,2.2-1,2.2-2.3
		C67.1,52.9,66.1,51.9,64.8,51.9z M38.8,59.1C38.7,59.1,38.7,59,38.8,59.1l-2.9-4.7c0-0.1,0-0.1,0-0.2c0,0,0,0,0,0l2.8-4.6h5.7
		l2.6,4.3l-3,5.3H38.8z"/>
	<path fill="#2C4351" d="M89.1,18.9h-3.6v-1.8c0-3.5-2.8-6.3-6.3-6.3H69.1v83.2c0,0.2-0.1,0.3-0.1,0.5v3.5c0,1,0.8,1.9,1.9,1.9h4.6
		c1,0,1.9-0.8,1.9-1.9v-2.4h1.8c3.5,0,6.3-2.8,6.3-6.3V42.3h3.6c2.9,0,5.2-2.4,5.2-5.2v-13C94.4,21.3,92,18.9,89.1,18.9z M89,37
		h-3.5V24.3H89V37z"/>
	<path fill="#2C4351" d="M12.5,83.7V26.2c0-1.9,1.8-3.4,4-3.4h46.9v-6.9H16.5c-6,0-10.9,4.6-10.9,10.3v57.5c0,5.3,4.3,9.7,9.7,10.3
		c0,0.1,0,0.2,0,0.2V98c0,1.1,0.9,2,2,2h4.9c1.1,0,2-0.9,2-2v-3.8c0-0.1,0-0.1,0-0.2h39v-6.9H16.5C14.3,87.1,12.5,85.6,12.5,83.7z"
		/>
</g>
</svg>
