<?xml version="1.0" encoding="utf-8"?>
<!-- Generator: Adobe Illustrator 18.1.1, SVG Export Plug-In . SVG Version: 6.00 Build 0)  -->
<!DOCTYPE svg PUBLIC "-//W3C//DTD SVG 1.1//EN" "http://www.w3.org/Graphics/SVG/1.1/DTD/svg11.dtd">
<svg version="1.1" id="Layer_1" xmlns="http://www.w3.org/2000/svg" xmlns:xlink="http://www.w3.org/1999/xlink" x="0px" y="0px"
	 viewBox="0 0 100 100" enable-background="new 0 0 100 100" xml:space="preserve">
<path fill="#2C4351" d="M96.4,91C85.1,79.1,69.4,72,53,71.3l0-4c0-0.1,0-0.2,0-0.3c5.5-1.4,9.3-6.2,9.3-11.9
	c0-6.8-5.5-12.3-12.3-12.3c-6.8,0-12.3,5.5-12.3,12.3c0,1.6,1.3,3,3,3s3-1.3,3-3c0-3.5,2.8-6.3,6.3-6.3c3.5,0,6.3,2.8,6.3,6.3
	c0,2.9-2,5.4-4.8,6.1c-1.4,0.2-2.4,1.2-2.8,1.6C47.6,64,47,65.7,47,67.4v3.9C30.6,72,14.9,79.1,3.6,91c-2,2.1-2,5.5,0.2,7.6
	c1,1,2.4,1.5,3.7,1.5c1.4,0,2.8-0.6,3.9-1.7C21.4,87.7,35.2,81.9,50,81.9c14.8,0,28.6,5.9,38.7,16.5c2,2.1,5.4,2.2,7.6,0.2
	C98.4,96.5,98.5,93.1,96.4,91z"/>
</svg>
