<?xml version="1.0" encoding="utf-8"?>
<!-- Generator: Adobe Illustrator 18.1.1, SVG Export Plug-In . SVG Version: 6.00 Build 0)  -->
<!DOCTYPE svg PUBLIC "-//W3C//DTD SVG 1.1//EN" "http://www.w3.org/Graphics/SVG/1.1/DTD/svg11.dtd">
<svg version="1.1" id="Layer_1" xmlns="http://www.w3.org/2000/svg" xmlns:xlink="http://www.w3.org/1999/xlink" x="0px" y="0px"
	 viewBox="0 0 100 100" enable-background="new 0 0 100 100" xml:space="preserve">
<g>
	<path fill="#2C4351" d="M90.4,38.4L51.3,16.7c-0.8-0.5-1.8-0.5-2.7,0L9.6,38.4c-0.9,0.5-1.4,1.4-1.4,2.4v0.7c0,2.1,2.2,3.4,4.1,2.4
		l1.5-0.8v54.2c0,1.5,1.2,2.7,2.7,2.7h0.8c0.1,0,0.2,0,0.4,0c0.1,0,0.2,0,0.4,0H82c0.1,0,0.2,0,0.4,0c0.1,0,0.2,0,0.4,0h0.8
		c1.5,0,2.7-1.2,2.7-2.7V43.1l1.5,0.8c1.8,1,4.1-0.3,4.1-2.4v-0.7C91.8,39.8,91.3,38.8,90.4,38.4z M80,40.1v53.7H20V40.1
		c0-0.2,0-0.3,0-0.5l28.7-15.9c0.8-0.5,1.8-0.5,2.7,0l28.7,15.9C80.1,39.8,80,39.9,80,40.1z"/>
	<path fill="#2C4351" d="M31.9,39c-3.9,0-7.1,3.2-7.1,7.1v36.1c0,3.9,3.2,7.1,7.1,7.1c3.9,0,7.1-3.2,7.1-7.1V46.1
		C39,42.2,35.8,39,31.9,39z"/>
	<path fill="#2C4351" d="M68.1,89.3c3.9,0,7.1-3.2,7.1-7.1V46.1c0-3.9-3.2-7.1-7.1-7.1c-3.9,0-7.1,3.2-7.1,7.1v36.1
		C61,86.1,64.2,89.3,68.1,89.3z"/>
</g>
</svg>
