<?xml version="1.0" encoding="utf-8"?>
<!-- Generator: Adobe Illustrator 18.1.1, SVG Export Plug-In . SVG Version: 6.00 Build 0)  -->
<!DOCTYPE svg PUBLIC "-//W3C//DTD SVG 1.1//EN" "http://www.w3.org/Graphics/SVG/1.1/DTD/svg11.dtd">
<svg version="1.1" id="Layer_1" xmlns="http://www.w3.org/2000/svg" xmlns:xlink="http://www.w3.org/1999/xlink" x="0px" y="0px"
	 viewBox="0 0 50 50" enable-background="new 0 0 50 50" xml:space="preserve">
<g>
	<path fill="#2C4351" d="M12.7,36.7c-1-0.6-2.3-0.3-3,0.7l-5.9,9.3c-0.6,1-0.3,2.3,0.7,3C4.9,49.9,5.3,50,5.7,50
		c0.7,0,1.4-0.4,1.8-1l5.9-9.3C14,38.7,13.8,37.4,12.7,36.7z"/>
	<path fill="#2C4351" d="M21,36.4c-1.2-0.3-2.3,0.5-2.6,1.7l-2,9.3c-0.2,1.2,0.5,2.3,1.7,2.6c0.2,0,0.3,0,0.4,0c1,0,1.9-0.7,2.1-1.7
		l2-9.3C22.9,37.8,22.1,36.7,21,36.4z"/>
	<path fill="#2C4351" d="M31.6,38.1c-0.2-1.2-1.4-1.9-2.6-1.7c-1.2,0.2-1.9,1.4-1.7,2.6l2,9.3c0.2,1,1.1,1.7,2.1,1.7
		c0.1,0,0.3,0,0.4,0c1.2-0.2,1.9-1.4,1.7-2.6L31.6,38.1z"/>
	<path fill="#2C4351" d="M46.1,46.7l-5.9-9.3c-0.6-1-2-1.3-3-0.7c-1,0.6-1.3,2-0.7,3l5.9,9.3c0.4,0.6,1.1,1,1.8,1
		c0.4,0,0.8-0.1,1.2-0.3C46.5,49,46.8,47.7,46.1,46.7z"/>
	<path fill="#2C4351" d="M40.7,33.2c0-7.7-5.6-13-14.2-13.6V3.2c0-0.8-0.7-1.5-1.5-1.5c-0.8,0-1.5,0.7-1.5,1.5v16.4
		c-8.6,0.6-14.2,5.9-14.2,13.6v0.3h31.4V33.2z"/>
</g>
</svg>
