<?xml version="1.0" encoding="UTF-8" standalone="no"?>
<svg
   xmlns:dc="http://purl.org/dc/elements/1.1/"
   xmlns:cc="http://creativecommons.org/ns#"
   xmlns:rdf="http://www.w3.org/1999/02/22-rdf-syntax-ns#"
   xmlns:svg="http://www.w3.org/2000/svg"
   xmlns="http://www.w3.org/2000/svg"
   viewBox="0 0 33.333332 33.333332"
   height="33.333332"
   width="33.333332"
   xml:space="preserve"
   id="svg2"
   version="1.1"><metadata
     id="metadata8"><rdf:RDF><cc:Work
         rdf:about=""><dc:format>image/svg+xml</dc:format><dc:type
           rdf:resource="http://purl.org/dc/dcmitype/StillImage" /></cc:Work></rdf:RDF></metadata><defs
     id="defs6"><clipPath
       id="clipPath18"
       clipPathUnits="userSpaceOnUse"><path
         id="path16"
         d="M 0,25 H 25 V 0 H 0 Z" /></clipPath></defs><g
     transform="matrix(1.3333333,0,0,-1.3333333,0,33.333333)"
     id="g10"><g
       id="g12"><g
         clip-path="url(#2C4351th18)"
         id="g14"><g
           transform="translate(24.3339,18.0825)"
           id="g20"><path
             id="path22"
             style="fill:#2C4351;fill-opacity:1;fill-rule:nonzero;stroke:none"
             d="m 0,0 -4.055,3.713 c -0.162,0.12 -0.361,0.184 -0.565,0.184 h -14.437 c -0.204,0 -0.403,-0.064 -0.565,-0.184 l -4.152,-3.791 c 0,0 -0.384,-0.246 -0.384,-0.765 v -1.892 c 0,-0.524 0.425,-0.949 0.949,-0.949 h 22.75 c 0.523,0 0.95,0.425 0.95,0.949 v 1.892 C 0.491,-0.338 0,0 0,0" /></g><g
           transform="translate(2.0739,3.0201)"
           id="g24"><path
             id="path26"
             style="fill:#2C4351;fill-opacity:1;fill-rule:nonzero;stroke:none"
             d="M 0,0 C -0.524,0 -0.949,0.427 -0.949,0.949 V 12.327 H 1.892 V 0.949 C 1.892,0.427 1.467,0 0.943,0 Z" /></g><g
           transform="translate(21.9769,3.0201)"
           id="g28"><path
             id="path30"
             style="fill:#2C4351;fill-opacity:1;fill-rule:nonzero;stroke:none"
             d="M 0,0 C -0.518,0 -0.943,0.427 -0.943,0.949 V 12.327 H 1.898 V 0.949 C 1.898,0.427 1.473,0 0.949,0 Z" /></g><g
           transform="translate(19.1353,7.7601)"
           id="g32"><path
             id="path34"
             style="fill:#2C4351;fill-opacity:1;fill-rule:nonzero;stroke:none"
             d="m 0,0 c -0.523,0 -0.949,0.427 -0.949,0.949 v 4.74 H 0.949 V 0.949 C 0.949,0.427 0.523,0 0,0" /></g><g
           transform="translate(5.8647,7.7601)"
           id="g36"><path
             id="path38"
             style="fill:#2C4351;fill-opacity:1;fill-rule:nonzero;stroke:none"
             d="m 0,0 c -0.524,0 -0.949,0.427 -0.949,0.949 v 4.74 H 0.949 V 0.949 C 0.949,0.427 0.523,0 0,0" /></g></g></g></g></svg>