<?xml version="1.0" standalone="no"?>
<!DOCTYPE svg PUBLIC "-//W3C//DTD SVG 1.1//EN" "http://www.w3.org/Graphics/SVG/1.1/DTD/svg11.dtd" >
<svg xmlns="http://www.w3.org/2000/svg" xmlns:xlink="http://www.w3.org/1999/xlink" version="1.1">
<metadata></metadata>
<defs>
<font id="bariolregular" horiz-adv-x="1208" >
<font-face units-per-em="2048" ascent="1612" descent="-436" />
<missing-glyph horiz-adv-x="555" />
<glyph unicode="&#x2e;&#x2e;&#x2e;" horiz-adv-x="1640" d="M187 -18q-109 0 -109 109q0 38 13.5 63.5t37.5 37t58 11.5q52 0 80.5 -27.5t28.5 -84.5q0 -109 -109 -109zM819.5 -18q-109.5 0 -109.5 109q0 38 13.5 63.5t37.5 37t59 11.5q52 0 80.5 -27.5t28.5 -84.5q0 -109 -109.5 -109zM1454.5 -18q-109.5 0 -109.5 109 q0 29 7.5 50.5t22 35t34.5 20t46 6.5q52 0 80.5 -27.5t28.5 -84.5q0 -109 -109.5 -109z" />
<glyph unicode="&#xfb01;" horiz-adv-x="1101" d="M198 920h-79q-30 0 -50 20t-20 50t20 50t50 20h79v138q0 54 10.5 103t31 94.5t54 82.5t77 64t102.5 42t129 15q71 0 141.5 -16t105.5 -35q42 -24 42 -66q0 -30 -19.5 -50t-49.5 -20q-13 0 -49 14q-33 12 -51.5 17.5t-51 10.5t-68.5 5q-131 0 -192.5 -70t-61.5 -191v-138 h528q31 0 53 -21.5t22 -53.5v-929q0 -32 -22 -53t-53.5 -21t-53.5 21t-22 53v864h-452v-864q0 -32 -21.5 -53t-53 -21t-53.5 21t-22 53v864z" />
<glyph unicode="&#xfb02;" horiz-adv-x="1159" d="M198 920h-79q-30 0 -50 20t-20 50t20 50t50 20h79v138q0 54 10.5 103t31 94.5t54 82.5t77 64t102.5 42t129 15q91 0 169.5 -17.5t126.5 -42.5q53 -25 53 -73v-1212q0 -69 22.5 -101t69.5 -32q29 0 50 -20t21 -49.5t-21 -49.5t-50 -20q-118 0 -180.5 69t-62.5 203v666 h-452v-864q0 -32 -21.5 -53t-53 -21t-53.5 21t-22 53v864zM348 1198v-138h452v364q-99 35 -198 35q-131 0 -192.5 -70t-61.5 -191z" />
<glyph unicode="&#xfb03;" horiz-adv-x="1724" d="M822 920h-474v-864q0 -32 -21.5 -53t-53 -21t-53.5 21t-22 53v864h-79q-30 0 -50 20t-20 50t20 50t50 20h79v138q0 54 10.5 103t31 94.5t54 82.5t77 64t102.5 42t129 15q30 0 50.5 -20t20.5 -50t-20.5 -50t-50.5 -20q-131 0 -192.5 -70t-61.5 -191v-138h474v138 q0 65 14.5 123t46 109t77.5 88.5t114 59t152 21.5q71 0 141 -16t106 -35q42 -24 42 -66q0 -30 -20 -50t-49 -20q-13 0 -50 14q-32 12 -50.5 17.5t-51 10.5t-68.5 5q-131 0 -193 -70t-62 -191v-138h528q32 0 53 -21.5t21 -53.5v-929q0 -32 -21 -53t-53 -21t-53.5 21t-21.5 53 v864h-453v-864q0 -32 -21.5 -53t-53.5 -21t-53 21t-21 53v864z" />
<glyph unicode="&#xfb04;" horiz-adv-x="1782" d="M822 920h-474v-864q0 -32 -21.5 -53t-53 -21t-53.5 21t-22 53v864h-79q-30 0 -50 20t-20 50t20 50t50 20h79v138q0 54 10.5 103t31 94.5t54 82.5t77 64t102.5 42t129 15q30 0 50.5 -20t20.5 -50t-20.5 -50t-50.5 -20q-131 0 -192.5 -70t-61.5 -191v-138h474v138 q0 65 14.5 123t46 109t77.5 88.5t114 59t152 21.5q90 0 169 -17.5t127 -42.5q51 -25 51 -73v-1212q0 -69 23 -101t71 -32q28 0 49 -20t21 -50q0 -19 -9.5 -35t-26 -25t-34.5 -9q-118 0 -180.5 69t-62.5 203v666h-453v-864q0 -32 -21.5 -53t-53.5 -21t-53 21t-21 53v864z M971 1198v-138h453v364q-100 35 -198 35q-131 0 -193 -70t-62 -191z" />
<glyph horiz-adv-x="0" />
<glyph horiz-adv-x="682" />
<glyph unicode=" "  horiz-adv-x="555" />
<glyph unicode="&#x09;" horiz-adv-x="555" />
<glyph unicode="&#xa0;" horiz-adv-x="555" />
<glyph unicode="!" horiz-adv-x="484" d="M242.5 1590q85.5 0 82.5 -82l-35 -1100q0 -18 -12 -29.5t-35.5 -11.5t-35 11.5t-11.5 29.5l-35 1100q-4 82 81.5 82zM242.5 -18q-109.5 0 -109.5 109q0 57 29 84.5t81 27.5t80.5 -27.5t28.5 -84.5q0 -109 -109.5 -109z" />
<glyph unicode="&#x22;" horiz-adv-x="653" d="M196 1590q34 0 50.5 -17t14.5 -47l-20 -401q-4 -40 -45 -40t-44 40l-21 401q-2 30 14.5 47t50.5 17zM457 1590q34 0 51 -17t15 -47l-21 -401q-4 -40 -45 -40t-44 40l-21 401q-2 30 14.5 47t50.5 17z" />
<glyph unicode="#" horiz-adv-x="1283" d="M243 54l67 441h-147q-15 0 -28 7.5t-20.5 20t-7.5 28.5q0 23 16.5 39t39.5 16h166l49 319h-164q-23 0 -39.5 16t-16.5 39t16.5 39.5t39.5 16.5h183l66 437q3 22 19 35.5t39 13.5q25 0 41.5 -16.5t16.5 -41.5q0 -9 -2 -21l-61 -407h324l66 437q4 22 20 35.5t38 13.5 q25 0 42 -16.5t17 -41.5q0 -9 -3 -21l-60 -407h161q23 0 39 -16.5t16 -39.5t-16 -39t-39 -16h-181l-49 -319h178q23 0 39.5 -16t16.5 -39q0 -16 -7.5 -28.5t-20.5 -20t-28 -7.5h-196l-73 -472q-2 -14 -10 -25.5t-20.5 -17.5t-27.5 -6q-25 0 -41.5 17t-16.5 42q0 9 2 21 l69 441h-325l-73 -472q-2 -14 -10 -25.5t-20.5 -17.5t-27.5 -6q-25 0 -41.5 17t-16.5 42q0 9 2 21zM497 925l-49 -319h325l49 319h-325z" />
<glyph unicode="$" horiz-adv-x="1301" d="M1034 1275q-148 184 -378 184q-89 0 -156 -20.5t-105.5 -56.5t-57.5 -80.5t-19 -96.5q0 -37 12 -69t27.5 -56t48.5 -48t58 -39t73 -34.5t76 -29.5t85 -29q69 -24 104.5 -37t98 -40t97 -49.5t79 -60t67.5 -77.5t39.5 -95.5t16.5 -119.5q0 -205 -126 -320.5t-362 -131.5 v-174q0 -25 -18 -43t-43 -18t-42.5 18t-17.5 43v174q-174 10 -304.5 90.5t-190.5 194.5q-12 23 -12 42q0 32 21.5 54t52.5 22q44 0 67 -38q61 -99 165.5 -160.5t249.5 -61.5q194 0 297.5 78t103.5 231q0 43 -12.5 80t-30 64t-52 53t-61.5 42.5t-77.5 36.5t-80.5 30t-88 30 q-67 21 -101.5 33t-94.5 37t-92.5 46t-75 56t-64 72.5t-37.5 90t-16 113.5q0 77 26.5 144t78.5 121t135.5 88.5t192.5 43.5v178q0 24 17.5 42t42.5 18t43 -18t18 -42v-178q59 -4 113.5 -17.5t102 -34.5t89.5 -49t77 -62.5t62 -75.5q14 -20 14 -44q0 -21 -10 -38t-27 -26.5 t-37 -9.5q-38 0 -62 30z" />
<glyph unicode="%" horiz-adv-x="1740" d="M1249 1590q25 0 42 -17t17 -42q0 -14 -5 -23l-761 -1497q-7 -13 -21.5 -21t-30.5 -8q-25 0 -41.5 16.5t-16.5 41.5q0 14 5 23l761 1497q6 12 19.5 21t31.5 9zM439 951q52 0 92.5 14.5t65.5 38.5t40.5 60t22 74.5t6.5 84.5q0 39 -4.5 72.5t-14.5 65t-27.5 55.5t-42 42.5 t-59.5 28.5t-79 10q-65 0 -110 -21t-69.5 -60.5t-35 -86t-10.5 -106.5q0 -272 225 -272zM439 1604q92 0 160 -29t107 -82.5t57.5 -120t18.5 -149.5q0 -65 -11 -120t-36.5 -104t-64.5 -83t-98 -54t-133 -20t-132 20t-97 54t-64.5 82.5t-36.5 104t-11 120.5q0 83 18.5 150 t57 120t106 82t159.5 29zM1303 78q44 0 79 9.5t59.5 28t42 43t27 56t14 64t4.5 71.5q0 47 -6 86t-22 74.5t-41 60t-64.5 39t-92.5 14.5q-64 0 -109.5 -21.5t-70 -60.5t-35 -85.5t-10.5 -106.5q0 -272 225 -272zM1303 731q92 0 160 -29.5t107 -82.5t57.5 -119.5t18.5 -149.5 q0 -54 -8 -101.5t-24.5 -90.5t-44 -77t-64.5 -59.5t-88.5 -39t-113.5 -13.5q-74 0 -132 20t-97 54t-64.5 82.5t-36.5 104t-11 120.5q0 83 18.5 149.5t57.5 119.5t106 82.5t159 29.5z" />
<glyph unicode="&#x26;" horiz-adv-x="1437" d="M401 1245q0 -182 78 -330q72 49 132.5 112t98 134t37.5 131q0 83 -46.5 129.5t-116.5 46.5q-90 0 -136.5 -61.5t-46.5 -161.5zM915 217q-85 66 -146 117.5t-126 113.5t-117 126t-94 134q-180 -117 -180 -300q0 -91 49 -162t128.5 -107t172.5 -36q94 0 176 33t137 81z M1036 124q-172 -157 -434 -157q-105 0 -195.5 29t-158.5 83.5t-106.5 139t-38.5 189.5q0 131 63 232.5t193 195.5q-48 90 -77.5 186.5t-29.5 222.5q0 76 22.5 141.5t63.5 114t104.5 76t141.5 27.5q138 0 225 -83.5t87 -228.5q0 -73 -25 -140.5t-75.5 -129.5t-108 -114.5 t-139.5 -114.5q142 -226 465 -468q62 90 96 236q4 14 13.5 26t24.5 19.5t32 7.5q30 0 51.5 -21.5t21.5 -50.5q0 -23 -7 -47q-36 -142 -113 -259q18 -12 34.5 -21.5t33.5 -19t29 -15.5t31.5 -15t30 -13.5t34.5 -15t36 -15.5q47 -20 47 -67q0 -20 -10 -36.5t-26.5 -26 t-36.5 -9.5q-42 0 -140.5 48.5t-158.5 93.5z" />
<glyph unicode="'" horiz-adv-x="392" d="M196 1590q34 0 50.5 -17t14.5 -47l-20 -401q-4 -40 -45 -40t-44 40l-21 401q-2 30 14.5 47t50.5 17z" />
<glyph unicode="(" horiz-adv-x="686" d="M140 691q0 247 20 415.5t68 290.5t121.5 195t187.5 124q17 7 31 7q26 0 45.5 -19.5t19.5 -45.5q0 -18 -10.5 -34.5t-31.5 -26.5q-54 -26 -96.5 -57.5t-73.5 -74.5t-53 -84.5t-36.5 -104.5t-23 -116.5t-12.5 -139t-5 -153t-1 -176.5t1 -176.5t5 -153t12.5 -138.5 t23 -116.5t36.5 -104.5t53 -84t73.5 -74.5t96.5 -57.5q21 -10 31.5 -27t10.5 -35q0 -26 -19.5 -45.5t-45.5 -19.5q-14 0 -31 7q-114 50 -187.5 123.5t-121.5 195t-68 290.5t-20 416z" />
<glyph unicode=")" horiz-adv-x="686" d="M546 691q0 -247 -20 -416t-68 -290.5t-121.5 -195t-187.5 -123.5q-17 -7 -30 -7q-27 0 -46 19.5t-19 45.5q0 18 10 35t32 27q54 26 96 57.5t73 74.5t53 84t36.5 104.5t23 116.5t13 138.5t5.5 153t1 176.5t-1 176.5t-5.5 153t-13 139t-23 116.5t-36.5 104.5t-53 84.5 t-73 74.5t-96 57.5q-15 7 -25 17.5t-13.5 21.5t-3.5 22q0 26 19 45.5t46 19.5q13 0 30 -7q114 -51 187.5 -124t121.5 -195t68 -290.5t20 -415.5z" />
<glyph unicode="*" horiz-adv-x="833" d="M561 1029l-145 218l-145 -218q-25 -43 -68 -13q-41 28 -14 67l150 205l-236 55q-46 10 -36 63q5 24 22.5 33t39.5 2l245 -73l-10 247q0 47 52 47q51 0 51 -47l-10 -247l245 73q22 7 39.5 -2t22.5 -33q10 -53 -36 -63l-236 -55l150 -205q27 -39 -14 -67q-42 -29 -67 13z " />
<glyph unicode="+" horiz-adv-x="1059" d="M1060 508q0 -17 -8.5 -31.5t-23 -22.5t-32.5 -8h-399v-397q0 -28 -19.5 -47.5t-47.5 -19.5t-47.5 19.5t-19.5 47.5v397h-400q-18 0 -32.5 8t-22.5 22.5t-8 31.5q0 27 18 45.5t45 18.5h400v399q0 28 19.5 48t47.5 20t47.5 -20t19.5 -48v-399h399q27 0 45.5 -18.5 t18.5 -45.5z" />
<glyph unicode="," horiz-adv-x="377" d="M301 54q0 -119 -44.5 -227.5t-123.5 -190.5q-14 -14 -30 -14q-14 0 -25 10t-11 25q0 8 8 20q46 64 66 110t20 104q0 29 -13 55t-28.5 42.5t-28.5 43.5t-13 59q0 38 13.5 63.5t37.5 37t58 11.5q114 0 114 -149z" />
<glyph unicode="-" horiz-adv-x="849" d="M722 588.5q0 -26.5 -18.5 -44.5t-44.5 -18h-467q-27 0 -45 18t-18 44.5t18 44.5t45 18h467q26 0 44.5 -18t18.5 -44.5z" />
<glyph unicode="." horiz-adv-x="372" d="M187 -18q-109 0 -109 109q0 38 13.5 63.5t37.5 37t58 11.5q52 0 80.5 -27.5t28.5 -84.5q0 -109 -109 -109z" />
<glyph unicode="/" horiz-adv-x="949" d="M96 -119l616 1819q9 27 28.5 40t43.5 13q16 0 30 -5.5t24 -15.5t16 -23.5t6 -29.5q0 -15 -7 -35l-617 -1820q-8 -26 -28 -39.5t-45 -13.5q-32 0 -53 21.5t-21 53.5q0 15 7 35z" />
<glyph unicode="0" horiz-adv-x="1404" d="M702.5 107q146.5 0 238.5 69t138 219t46 392q0 181 -25 309.5t-78 210t-131.5 119.5t-188.5 38q-146 0 -238 -68.5t-138 -218t-46 -391t46 -391.5t138 -219t238.5 -69zM702.5 1604q294.5 0 435.5 -199t141 -618q0 -420 -141 -620t-435.5 -200t-435 199.5t-140.5 620.5 q0 419 140.5 618t435 199z" />
<glyph unicode="1" horiz-adv-x="818" d="M455 1375l-250 -179q-22 -15 -44 -15q-30 0 -52 22.5t-22 52.5q0 18 8.5 35.5t23.5 27.5l367 254q24 17 46 17q32 0 55 -23t23 -54v-1455q0 -31 -23 -53.5t-54.5 -22.5t-54.5 22.5t-23 53.5v1317z" />
<glyph unicode="2" horiz-adv-x="1241" d="M156 1301q48 143 168.5 223t299.5 80q154 0 267 -56.5t172.5 -159t59.5 -239.5q0 -68 -18.5 -133.5t-44.5 -116.5t-75 -106.5t-87 -91.5t-105 -85.5t-104.5 -74.5t-109.5 -72q-68 -44 -102 -66.5t-84.5 -61t-74.5 -65.5t-43 -62.5t-19 -68.5h816q11 0 22.5 -4t20.5 -10.5 t15.5 -15.5t10.5 -20t4 -23q0 -30 -21.5 -51t-51.5 -21h-901q-30 0 -51.5 21t-21.5 51q0 54 14 104.5t33 90t57.5 83.5t67.5 72.5t84 69t87 61.5t94 62q62 40 93.5 61.5t85.5 61.5t83 68t66.5 71t56.5 81.5t33 88t14 102.5q0 140 -90.5 227.5t-252.5 87.5q-48 0 -88.5 -7.5 t-72.5 -22.5t-58 -33.5t-47 -44t-36.5 -51t-29.5 -56.5q-21 -46 -67 -46q-30 0 -51.5 21t-21.5 51q0 12 4 26z" />
<glyph unicode="3" horiz-adv-x="1265" d="M617 953h23q110 0 196.5 -28t142 -74.5t91 -112.5t50 -137t14.5 -153q0 -231 -137.5 -356t-401.5 -125q-178 0 -303 71.5t-199 192.5q-11 19 -11 40q0 30 20 50t50 20q40 0 62 -38q119 -196 381 -196q192 0 288.5 88t96.5 253q0 83 -18 147t-58 114.5t-109.5 77 t-166.5 26.5h-163q-30 0 -50.5 20t-20.5 49q0 27 19 49l429 500h-601q-30 0 -50 20t-20 50t20 50t50 20h761q30 0 50 -20t20 -50q0 -27 -19 -49z" />
<glyph unicode="4" horiz-adv-x="1259" d="M969 506h133q32 0 53 -20t21 -49q0 -32 -21 -54t-53 -22h-133v-303q0 -31 -23 -53.5t-54.5 -22.5t-54 22.5t-22.5 53.5v303h-682q-30 0 -51.5 21.5t-21.5 51.5q0 23 18 47l751 1074q25 33 62 33q32 0 55 -23t23 -55v-1004zM269 506h546v786z" />
<glyph unicode="5" horiz-adv-x="1295" d="M635 1041q97 0 179.5 -20t149.5 -62t114 -104.5t72.5 -151t25.5 -197.5q0 -137 -39 -241.5t-111.5 -169t-170.5 -96.5t-220 -32q-190 0 -328 82.5t-211 233.5q-9 18 -9 35q0 30 21 51t50 21q43 0 67 -40q75 -127 170.5 -182.5t239.5 -55.5q87 0 156.5 22.5t122 69t81 123 t28.5 179.5q0 101 -28.5 176.5t-81 122.5t-122 70t-156.5 23q-125 0 -210 -32t-164 -109q-10 -10 -15.5 -15t-18.5 -10.5t-29 -5.5q-30 0 -50.5 21t-20.5 51q0 8 4 31l135 686q3 22 22.5 39t47.5 17h711q29 0 50 -21t21 -51t-21 -51.5t-50 -21.5h-659l-94 -479 q134 94 341 94z" />
<glyph unicode="6" horiz-adv-x="1321" d="M679 1011q117 0 212.5 -31.5t167 -94t111.5 -163t40 -230.5q0 -137 -39.5 -239.5t-113 -164.5t-171 -91.5t-220.5 -29.5q-115 0 -207.5 37.5t-156.5 106t-107 166t-63 215.5t-20 257q0 224 39 388t115.5 266.5t183.5 151.5t248 49q128 0 228 -38.5t148 -90.5 q24 -24 24 -53.5t-21.5 -50.5t-51.5 -21q-25 0 -49 18q-129 96 -278 96q-432 0 -432 -658q25 37 63 71.5t89.5 65.5t119.5 49.5t141 18.5zM666 107q390 0 390 385q0 99 -29 173t-81 118t-119 66t-148 22q-258 0 -401 -254q0 -149 43 -263t132 -180.5t213 -66.5z" />
<glyph unicode="7" horiz-adv-x="1127" d="M259 56q0 124 22.5 238.5t60.5 205.5t87.5 175t104 153.5t109 133.5t104 122.5t88 113.5t61 113t22.5 115h-787q-30 0 -51.5 21.5t-21.5 51.5t21.5 51t51.5 21h871q30 0 51 -21t21 -51q0 -84 -23 -163t-61.5 -145t-88.5 -131t-105 -129.5t-110 -132.5t-105 -147 t-88.5 -165.5t-61.5 -197t-23 -232.5q0 -32 -21 -53t-53 -21t-53.5 21t-21.5 53z" />
<glyph unicode="8" horiz-adv-x="1292" d="M646 -33q-164 0 -285.5 52t-191 160.5t-69.5 263.5q0 150 73 259t203 158q-205 109 -205 338q0 103 34 181.5t97.5 127t150 73t194 24.5t194 -24.5t150 -73t98 -127t34.5 -181.5q0 -229 -205 -338q130 -49 203 -158t73 -259q0 -117 -40 -208t-112.5 -149.5t-172.5 -88.5 t-223 -30zM646.5 1464q-153.5 0 -237.5 -66.5t-84 -199.5q0 -135 85.5 -205.5t236 -70.5t236.5 70.5t86 205.5q0 133 -84.5 199.5t-238 66.5zM646.5 782q-188.5 0 -290.5 -84.5t-102 -254.5q0 -68 18.5 -124t53 -95t83 -65.5t108 -39t129.5 -12.5q89 0 159.5 20t123.5 60.5 t81.5 105.5t28.5 150q0 170 -102 254.5t-290.5 84.5z" />
<glyph unicode="9" horiz-adv-x="1321" d="M642 561q-117 0 -212.5 31.5t-167 93.5t-111 162.5t-39.5 229.5q0 138 39.5 240.5t112.5 164.5t170.5 91.5t221.5 29.5q114 0 206.5 -37.5t156.5 -106t107.5 -166t63.5 -215.5t20 -257q0 -224 -39.5 -388t-116 -266.5t-183.5 -151.5t-247 -49q-128 0 -228.5 38.5 t-148.5 90.5q-22 23 -22 53t21 51.5t50 21.5q24 0 49 -19q129 -96 279 -96q432 0 432 659q-25 -37 -63.5 -71.5t-89.5 -65.5t-119.5 -49.5t-141.5 -18.5zM656 1464q-390 0 -390 -386q0 -98 28.5 -172t80.5 -118t119 -66t148 -22q258 0 401 255q0 89 -15.5 166t-47.5 140 t-78 108.5t-109 70t-137 24.5z" />
<glyph unicode=":" horiz-adv-x="372" d="M187 -18q-109 0 -109 109q0 38 13.5 63.5t37.5 37t58 11.5q52 0 80.5 -27.5t28.5 -84.5q0 -109 -109 -109zM187 842q-109 0 -109 111q0 57 28.5 84.5t80.5 27.5t80.5 -27.5t28.5 -84.5q0 -111 -109 -111z" />
<glyph unicode=";" horiz-adv-x="372" d="M301 54q0 -119 -44.5 -227.5t-123.5 -190.5q-14 -14 -30 -14q-14 0 -25 10t-11 25q0 8 8 20q46 64 66 110t20 104q0 29 -13 55t-28.5 42.5t-28.5 43.5t-13 59q0 38 13.5 63.5t37.5 37t58 11.5q114 0 114 -149zM187 842q-109 0 -109 111q0 57 28.5 84.5t80.5 27.5 t80.5 -27.5t28.5 -84.5q0 -111 -109 -111z" />
<glyph unicode="&#x3c;" horiz-adv-x="786" d="M0 548.5q0 31.5 31 53.5l655 519q15 11 38 11q26 0 44.5 -18t18.5 -45q0 -32 -25 -51l-608 -470l608 -468q25 -19 25 -52q0 -26 -18.5 -44.5t-44.5 -18.5q-21 0 -38 12l-655 518q-31 22 -31 53.5z" />
<glyph unicode="=" horiz-adv-x="1059" d="M1060 686q0 -26 -18.5 -44t-45.5 -18h-933q-27 0 -45 18t-18 44.5t18 44.5t45 18h933q18 0 32.5 -8t23 -22.5t8.5 -32.5zM1060 329q0 -26 -18.5 -44.5t-45.5 -18.5h-933q-18 0 -32.5 8.5t-22.5 23t-8 31.5q0 27 18 45t45 18h933q13 0 25 -5t20.5 -13t13.5 -20t5 -25z" />
<glyph unicode="&#x3e;" horiz-adv-x="786" d="M787 548.5q0 -32.5 -30 -53.5l-657 -518q-16 -12 -37 -12q-27 0 -45 18.5t-18 44.5q0 32 26 52l607 468l-607 470q-26 20 -26 51q0 27 18 45t45 18q22 0 37 -11l657 -519q30 -21 30 -53.5z" />
<glyph unicode="?" horiz-adv-x="1076" d="M432 369q-39 39 -57 92.5t-18 106.5q0 43 13.5 82t37 68t54.5 57t66.5 50.5t72.5 47.5t72 48.5t66.5 54t54.5 63.5t37 77t14 94q0 127 -82 191.5t-231 64.5q-92 0 -158 -29.5t-103 -93.5t-37 -157q0 -32 -23 -54.5t-54.5 -22.5t-54 22.5t-22.5 54.5q0 195 119 306.5 t333 111.5q219 0 340.5 -103t121.5 -291q0 -66 -16.5 -124t-44 -101t-63.5 -81t-76 -68t-79.5 -57t-75.5 -51.5t-64 -48.5t-44.5 -52.5t-16.5 -58.5q0 -21 5 -39t10 -27t17 -28q19 -29 19 -51q0 -35 -24 -56.5t-53 -21.5q-32 0 -56 24zM478.5 -18q-109.5 0 -109.5 109 q0 29 8 50.5t22 35t34 20t46 6.5q52 0 80.5 -27.5t28.5 -84.5q0 -109 -109.5 -109z" />
<glyph unicode="@" horiz-adv-x="1869" d="M1154 127q-28 -44 -67 -75t-93.5 -49.5t-117.5 -18.5q-137 0 -225 67.5t-88 186.5q0 118 80 185t223 67h271v58q0 86 -60 133t-157 47q-122 0 -205 -95q-21 -21 -47 -21q-23 0 -39.5 16.5t-16.5 39.5q0 19 12 34q100 136 296 136q162 0 245.5 -81.5t83.5 -219.5v-285 q0 -48 10 -81.5t30.5 -52.5t47.5 -27.5t64 -8.5q65 0 111 18t80 60.5t51 115.5t17 179q0 177 -51.5 310.5t-148 216.5t-229 124t-300.5 41q-136 0 -245.5 -25t-199.5 -81t-150.5 -142t-93 -211.5t-32.5 -286.5t32.5 -286.5t93 -211t150.5 -140.5t199.5 -79.5t245.5 -24.5 q346 0 540 129q13 9 30 9q23 0 38.5 -14.5t15.5 -38.5q0 -28 -24 -45q-128 -79 -270 -110.5t-330 -31.5q-198 0 -352.5 51t-263 154t-165.5 264t-57 375q0 215 57 376.5t165.5 265t263 155t352.5 51.5q148 0 276 -30.5t233 -95t180 -157.5t116 -223.5t41 -287.5 q0 -40 -3 -78t-10.5 -80t-21.5 -79.5t-33.5 -73.5t-48.5 -64t-65.5 -50t-86 -34t-107.5 -12q-186 0 -247 143zM885 87q47 0 91.5 14t80.5 41t58 71.5t22 98.5v78h-271q-57 0 -98.5 -16.5t-65 -50.5t-23.5 -85q0 -71 53 -111t153 -40z" />
<glyph unicode="A" horiz-adv-x="1430" d="M992 610l-277 714l-276 -714h553zM1041 465h-651l-170 -427q-9 -25 -29 -40.5t-49 -15.5q-33 0 -56 23.5t-23 54.5q0 22 7 36l570 1441q21 53 75 53q28 0 47.5 -15t28.5 -38l570 -1441q7 -17 7 -36q0 -15 -6 -29.5t-16.5 -25t-26 -17t-33.5 -6.5q-57 0 -76 53z" />
<glyph unicode="B" horiz-adv-x="1308" d="M345 1426v-541h316q153 0 235 73t82 198q0 51 -12 92.5t-37 75t-62.5 56t-89.5 34.5t-116 12h-316zM345 749v-604h386q157 0 238.5 79.5t81.5 223.5q0 71 -22 127.5t-63.5 95t-101 58.5t-133.5 20h-386zM733 0h-467q-32 0 -55.5 23.5t-23.5 56.5v1412q0 22 11 40t29 28.5 t39 10.5h397q240 0 358 -109.5t118 -305.5q0 -114 -63 -202t-163 -116q65 -16 118 -47t94 -78t64 -114.5t23 -150.5q0 -207 -125.5 -327.5t-353.5 -120.5z" />
<glyph unicode="C" horiz-adv-x="1472" d="M831 -33q-172 0 -305 47.5t-228.5 145t-145 255t-49.5 369.5q0 205 50 361t144.5 256.5t228.5 151.5t305 51q165 0 304 -66t222 -181q16 -23 16 -49q0 -32 -21.5 -54t-53.5 -22q-36 0 -61 31q-63 86 -171 141t-235 55q-135 0 -239.5 -41.5t-177.5 -124t-110.5 -211 t-37.5 -298.5q0 -179 37 -309t111 -209.5t177 -116.5t240 -37q122 0 231 48.5t175 142.5q21 31 61 31q32 0 53.5 -21.5t21.5 -53.5q0 -24 -14 -45q-77 -111 -222 -179t-306 -68z" />
<glyph unicode="D" horiz-adv-x="1419" d="M345 1426v-1281h250q108 0 192.5 19.5t155 65.5t116.5 119t71.5 182.5t25.5 252.5q0 119 -17 214.5t-51 166t-81.5 121t-111.5 81.5t-137.5 45t-162.5 14h-250zM266 1571h329q137 0 246.5 -26.5t199.5 -85t150.5 -149t93 -223t32.5 -303.5q0 -142 -22.5 -258t-66 -202 t-105 -148t-143.5 -101t-176.5 -57t-208.5 -18h-329q-34 0 -56.5 23t-22.5 57v1412q0 34 22.5 56.5t56.5 22.5z" />
<glyph unicode="E" d="M1041 0h-775q-34 0 -56.5 23t-22.5 57v1412q0 34 22.5 56.5t56.5 22.5h750q19 0 35.5 -9.5t26.5 -26t10 -36.5q0 -30 -21 -51.5t-51 -21.5h-671v-562h515q29 0 50 -21.5t21 -51.5t-21 -51t-50 -21h-515v-574h696q30 0 51.5 -21.5t21.5 -51.5t-21.5 -51t-51.5 -21z" />
<glyph unicode="F" d="M345 700v-640q0 -33 -23 -55.5t-56.5 -22.5t-56 22.5t-22.5 55.5v1432q0 34 22.5 56.5t56.5 22.5h750q19 0 35.5 -9.5t26.5 -26t10 -36.5q0 -30 -21 -51.5t-51 -21.5h-671v-581h515q29 0 50 -21t21 -51t-21 -51.5t-50 -21.5h-515z" />
<glyph unicode="G" horiz-adv-x="1546" d="M831 112q150 0 259 52.5t175 134.5v338h-389q-20 0 -36.5 10t-26 27t-9.5 36q0 30 21 51t51 21h471q29 0 50.5 -21t21.5 -51v-409q0 -39 -29 -76q-47 -55 -96.5 -97t-117.5 -80.5t-155.5 -59.5t-189.5 -21q-172 0 -305 47.5t-228.5 145t-145 255t-49.5 369.5 q0 205 50 361t144.5 256.5t228.5 151.5t305 51q165 0 304 -66t222 -181q16 -23 16 -49q0 -32 -21.5 -54t-53.5 -22q-36 0 -61 31q-63 87 -170.5 141.5t-235.5 54.5q-135 0 -239.5 -41.5t-177.5 -124t-110.5 -211t-37.5 -298.5q0 -179 37 -309t111 -209.5t177 -116.5t240 -37 z" />
<glyph unicode="H" horiz-adv-x="1502" d="M1158 733h-813v-673q0 -31 -23 -54.5t-56 -23.5q-22 0 -40 10.5t-28.5 29t-10.5 38.5v1450q0 33 23 56.5t56 23.5t56 -23.5t23 -56.5v-632h813v632q0 33 23 56.5t56 23.5t56.5 -23.5t23.5 -56.5v-1450q0 -20 -10.5 -38.5t-29 -29t-40.5 -10.5t-40 10.5t-28.5 29 t-10.5 38.5v673z" />
<glyph unicode="I" horiz-adv-x="531" d="M345 1510v-1450q0 -31 -23 -54.5t-56 -23.5q-22 0 -40 10.5t-28.5 29t-10.5 38.5v1450q0 33 23 56.5t56 23.5t56 -23.5t23 -56.5z" />
<glyph unicode="J" horiz-adv-x="963" d="M82 23q-44 25 -44 70q0 32 22 55t54 23q5 0 9.5 -0.5t9.5 -2t7.5 -3t9.5 -4.5t11 -5q73 -37 173 -37q75 0 131 26t89 74.5t49 112t16 142.5v1036q0 33 23 56.5t56 23.5t56 -23.5t23 -56.5v-1036q0 -88 -14.5 -162t-48 -138.5t-84 -109t-126 -70t-170.5 -25.5 q-70 0 -139 14t-113 40z" />
<glyph unicode="K" horiz-adv-x="1292" d="M345 782l680 778q24 30 63 30q33 0 57.5 -24t24.5 -58q0 -29 -23 -56l-488 -546l564 -797q16 -24 16 -49q0 -33 -22.5 -55.5t-55.5 -22.5q-43 0 -69 36l-541 771l-206 -232v-497q0 -33 -23 -55.5t-56.5 -22.5t-56 22.5t-22.5 55.5v1450q0 34 22.5 57t56 23t56.5 -23 t23 -57v-728z" />
<glyph unicode="L" horiz-adv-x="1127" d="M345 149h640q32 0 53.5 -21t21.5 -52.5t-21.5 -53.5t-53.5 -22h-719q-34 0 -56.5 23t-22.5 57v1430q0 34 22.5 57t56 23t56.5 -23t23 -57v-1361z" />
<glyph unicode="M" horiz-adv-x="1776" d="M876 254q-13 0 -25 4t-24.5 14.5t-20.5 26.5l-488 908v-1149q0 -31 -23 -53.5t-54 -22.5q-16 0 -30.5 6t-25 16t-16.5 24.5t-6 29.5v1455q0 21 10.5 38.5t28.5 28t39 10.5q47 0 69 -44l566 -1058l567 1058q26 44 70 44q31 0 54 -23t23 -54v-1455q0 -31 -22.5 -53.5 t-54.5 -22.5t-54.5 22.5t-22.5 53.5v1149l-491 -908q-23 -45 -69 -45z" />
<glyph unicode="N" horiz-adv-x="1446" d="M1207.5 1590q31.5 0 54 -22.5t22.5 -54.5v-1453q0 -33 -23 -55.5t-56 -22.5q-41 0 -66 32l-821 1240v-1196q0 -31 -23 -53.5t-54 -22.5q-16 0 -30.5 6t-25 16t-16.5 24.5t-6 29.5v1455q0 21 10.5 38.5t28.5 28t39 10.5q39 0 62 -33l827 -1242v1198q0 31 23 54t54.5 23z " />
<glyph unicode="O" horiz-adv-x="1662" d="M831 -33q-171 0 -305 51t-228.5 151.5t-144.5 256t-50 358.5q0 205 50 361t144.5 256.5t228.5 151.5t305 51t305 -51t229 -151.5t145 -256.5t50 -361q0 -203 -50.5 -358.5t-145 -256t-228.5 -151.5t-305 -51zM831 1459q-135 0 -239 -41.5t-177 -124t-111 -211t-38 -298.5 q0 -335 146.5 -503.5t419 -168.5t418.5 168.5t146 503.5q0 170 -38 298.5t-111 211t-177 124t-239 41.5z" />
<glyph unicode="P" horiz-adv-x="1269" d="M345 1426v-622h363q144 0 226 81t82 231q0 151 -82.5 230.5t-225.5 79.5h-363zM345 659v-599q0 -33 -23 -55.5t-56.5 -22.5t-56 22.5t-22.5 55.5v1432q0 34 22.5 56.5t56.5 22.5h465q95 0 175 -28t141 -82.5t95 -143t34 -201.5q0 -112 -33.5 -200t-94 -143.5t-141 -84.5 t-176.5 -29h-386z" />
<glyph unicode="Q" horiz-adv-x="1662" d="M831 -33q-171 0 -305 51t-228.5 151.5t-144.5 256t-50 358.5q0 205 50 361t144.5 256.5t228.5 151.5t305 51t305 -51t229 -151.5t145 -256.5t50 -361q0 -291 -100.5 -480.5t-287.5 -272.5q109 -48 169 -122q22 -30 22 -58q0 -32 -23 -55t-56 -23q-32 0 -58 26 q-44 49 -75 75.5t-76 50.5t-103 33t-141 9zM831 1459q-135 0 -239 -41.5t-177 -124t-111 -211t-38 -298.5q0 -335 146.5 -503.5t419 -168.5t418.5 168.5t146 503.5q0 170 -38 298.5t-111 211t-177 124t-239 41.5z" />
<glyph unicode="R" horiz-adv-x="1274" d="M345 1426v-602h390q121 0 201 87t80 214q0 64 -21.5 120t-59.5 96t-91.5 62.5t-115.5 22.5h-383zM345 679v-619q0 -33 -23 -55.5t-56.5 -22.5t-56 22.5t-22.5 55.5v1432q0 34 22.5 56.5t56.5 22.5h465q127 0 229.5 -59t159 -161t56.5 -226q0 -89 -30 -169t-83.5 -139.5 t-132 -96t-171.5 -41.5l427 -570q17 -20 17 -49q0 -33 -23.5 -55.5t-56.5 -22.5q-44 0 -67 36l-475 661h-236z" />
<glyph unicode="S" horiz-adv-x="1301" d="M1034 1275q-148 184 -378 184q-89 0 -156 -20.5t-105.5 -56.5t-57.5 -80.5t-19 -96.5q0 -37 12 -69t27.5 -56t48.5 -48t58 -39t73 -34.5t76 -29.5t85 -29q69 -24 104.5 -37t98 -40t97 -49.5t79 -60t67.5 -77.5t39.5 -95.5t16.5 -119.5q0 -219 -145.5 -336.5 t-414.5 -117.5q-97 0 -185.5 23.5t-157 63.5t-120 91t-81.5 109q-12 23 -12 42q0 32 21.5 54t52.5 22q44 0 67 -38q61 -99 165.5 -160.5t249.5 -61.5q194 0 297.5 78t103.5 231q0 43 -12.5 80t-30 64t-52 53t-61.5 42.5t-77.5 36.5t-80.5 30t-88 30q-67 21 -101.5 33 t-94.5 37t-92.5 46t-75 56t-64 72.5t-37.5 90t-16 113.5q0 82 30.5 153t90 126.5t156.5 87.5t221 32q164 0 294.5 -64t205.5 -177q14 -20 14 -44q0 -21 -10 -38t-27 -26.5t-37 -9.5q-38 0 -62 30z" />
<glyph unicode="T" horiz-adv-x="1255" d="M548 1422h-417q-32 0 -53.5 21.5t-21.5 53t21.5 53t53.5 21.5h992q32 0 53.5 -21.5t21.5 -52.5q0 -21 -10 -38.5t-27 -27t-38 -9.5h-415v-1362q0 -33 -23 -55.5t-56.5 -22.5t-57 22.5t-23.5 55.5v1362z" />
<glyph unicode="U" horiz-adv-x="1455" d="M735.5 -33q-92.5 0 -169.5 15t-132.5 41.5t-99 64.5t-71 81.5t-45 96t-24.5 104t-7 109.5v1031q0 34 22.5 57t56 23t56.5 -23t23 -57v-1031q0 -37 4 -69t12 -65.5t22.5 -61.5t35.5 -54.5t51 -46.5t68 -35t88 -23t109 -8q93 0 163 20.5t112 53.5t68 81.5t35.5 98 t9.5 109.5v1031q0 34 23 57t56.5 23t56 -23t22.5 -57v-1031q0 -58 -7 -109.5t-24 -104t-44.5 -96t-70.5 -81.5t-98.5 -64.5t-132 -41.5t-169 -15z" />
<glyph unicode="V" horiz-adv-x="1344" d="M673 283l474 1256q7 19 25.5 35t48.5 16q33 0 56.5 -23t23.5 -57q0 -14 -7 -35l-547 -1440q-9 -24 -30 -38.5t-44.5 -14.5t-45 14.5t-30.5 38.5l-546 1440q-7 21 -7 35q0 34 23.5 57t56.5 23q30 0 48.5 -16t25.5 -35z" />
<glyph unicode="W" horiz-adv-x="1909" d="M1292 42l-337 1188l-336 -1188q-2 -8 -5 -15t-7.5 -13t-10 -11t-11.5 -9t-13 -7t-14.5 -4t-15.5 -1q-27 0 -48.5 16t-28.5 42l-414 1442q-4 18 -4 28q0 34 23 57t57 23q30 0 50 -18t26 -41l341 -1206l334 1206q6 27 28 43t49.5 16t48.5 -15.5t28 -43.5l334 -1206 l341 1206q6 23 26 41t51 18q33 0 56 -23t23 -57q0 -10 -5 -28l-412 -1442q-5 -17 -16.5 -30.5t-27.5 -20.5t-34 -7q-28 0 -49 16t-27 44z" />
<glyph unicode="X" horiz-adv-x="1167" d="M1009 11l-425 652l-426 -652q-18 -29 -62 -29q-34 0 -57 22.5t-23 55.5q0 22 12 43l467 703l-439 662q-12 16 -12 42q0 34 23.5 57t56.5 23q42 0 70 -40l390 -597l390 597q27 40 69 40q33 0 56.5 -23t23.5 -57q0 -26 -11 -42l-439 -662l466 -703q12 -21 12 -43 q0 -33 -23 -55.5t-56 -22.5q-45 0 -63 29z" />
<glyph unicode="Y" d="M604 -18q-33 0 -55.5 22.5t-22.5 55.5v671l-470 737q-12 19 -12 42q0 34 23.5 57t56.5 23q45 0 68 -37l412 -664l414 664q23 37 67 37q34 0 57 -23t23 -57q0 -23 -11 -42l-470 -737v-671q0 -21 -10.5 -39.5t-29 -28.5t-40.5 -10z" />
<glyph unicode="Z" horiz-adv-x="1197" d="M1096 0h-982q-32 0 -53 21.5t-21 53.5q0 23 14 44l868 1303h-759q-32 0 -53 21.5t-21 53t21 53t53 21.5h897q32 0 53 -21.5t21 -52.5q0 -24 -13 -45l-862 -1303h837q31 0 52.5 -21t21.5 -53t-21.5 -53.5t-52.5 -21.5z" />
<glyph unicode="[" horiz-adv-x="604" d="M557 -280q0 -25 -17.5 -43t-42.5 -18h-236q-31 0 -52.5 22t-21.5 53v1914q0 32 21 53.5t53 21.5h236q25 0 42.5 -18t17.5 -43t-17.5 -42.5t-42.5 -17.5h-161v-1822h161q16 0 30 -8t22 -22t8 -30z" />
<glyph unicode="\" horiz-adv-x="949" d="M238 1700l617 -1819q7 -20 7 -35q0 -32 -22 -53.5t-53 -21.5q-25 0 -44.5 13.5t-27.5 39.5l-617 1820q-7 20 -7 35q0 21 10 38t27 26.5t37 9.5q16 0 30 -5t26 -17.5t17 -30.5z" />
<glyph unicode="]" horiz-adv-x="604" d="M47 -280.5q0 24.5 17.5 42.5t42.5 18h162v1822h-162q-25 0 -42.5 17.5t-17.5 42.5t17.5 43t42.5 18h236q21 0 38 -10t27 -27t10 -38v-1914q0 -31 -21.5 -53t-53.5 -22h-236q-25 0 -42.5 18t-17.5 42.5z" />
<glyph unicode="^" horiz-adv-x="1092" d="M885 824l-339 609l-339 -609q-7 -12 -22 -21.5t-31 -9.5q-26 0 -44.5 19t-18.5 45q0 16 7 30l394 696q17 30 54 30t54 -30l394 -696q8 -16 8 -30q0 -26 -18.5 -45t-45.5 -19q-16 0 -31 9.5t-22 21.5z" />
<glyph unicode="_" horiz-adv-x="947" d="M996 -163.5q0 -26.5 -18 -45t-44 -18.5h-920q-27 0 -45 18.5t-18 45t18 45t45 18.5h920q26 0 44 -18.5t18 -45z" />
<glyph unicode="`" horiz-adv-x="862" d="M581 1214q-36 -29 -69 5l-227 229q-43 42 7 89q30 23 51.5 21t37.5 -21l207 -253q31 -40 -7 -70z" />
<glyph unicode="a" horiz-adv-x="1089" d="M542 953q-92 0 -153.5 -28.5t-117.5 -91.5q-28 -33 -61 -33q-28 0 -48 20t-20 49q0 21 12 40q34 53 85.5 93t129.5 65t173 25q100 0 179.5 -28.5t132.5 -80.5t80.5 -125t27.5 -163v-641q0 -30 -21.5 -51t-51.5 -21t-51 21t-21 51v84q-28 -53 -80.5 -92t-117.5 -58 t-136 -19q-123 0 -213.5 38.5t-140 114t-49.5 181.5q0 154 109.5 242t298.5 88h329v62q0 119 -73.5 188.5t-201.5 69.5zM497 105q62 0 119 19t102 55.5t72 94.5t27 130v98h-329q-118 0 -187.5 -50t-69.5 -149q0 -93 66.5 -145.5t199.5 -52.5z" />
<glyph unicode="b" horiz-adv-x="1169" d="M301 751v-321q0 -161 84 -243t225 -82q328 0 328 427q0 143 -38 238t-110.5 141.5t-179.5 46.5q-45 0 -86.5 -11.5t-71.5 -30t-56 -40.5t-43 -44t-29 -40t-18 -29zM619 1092q229 0 349 -138.5t120 -421.5q0 -142 -32.5 -249t-94 -176t-149.5 -103.5t-202 -34.5 q-101 0 -184 29t-144.5 85.5t-95.5 145t-34 201.5v1158q0 21 10 38t27 26.5t38 9.5q31 0 52.5 -21t21.5 -53v-648q45 63 129.5 107.5t188.5 44.5z" />
<glyph unicode="c" horiz-adv-x="1029" d="M82 532q0 282 125 421t356 139q73 0 137 -17t107.5 -44.5t70.5 -51.5t44 -48q16 -22 16 -44q0 -30 -19 -48.5t-48 -18.5q-32 0 -56 27q-19 22 -34 35.5t-46 34t-74.5 31t-97.5 10.5q-162 0 -245.5 -106t-83.5 -320q0 -427 329 -427q39 0 76 7t62 16t53.5 25t42.5 25.5 t36 26.5q24 17 45 17q28 0 47.5 -20t19.5 -48q0 -32 -30 -58q-153 -127 -352 -127q-231 0 -356 141t-125 422z" />
<glyph unicode="d" horiz-adv-x="1169" d="M869 430v321q-1 3 -3.5 7.5t-10.5 18.5t-17.5 28t-25 32.5t-32.5 34.5t-41.5 32t-50 27.5t-59 19t-68.5 7.5q-161 0 -245.5 -106.5t-84.5 -319.5q0 -427 330 -427q141 0 224.5 82t83.5 243zM551 1092q104 0 188.5 -44.5t129.5 -107.5v648q0 32 21 53t53 21t53.5 -21 t21.5 -53v-1158q0 -113 -34 -201.5t-95 -145t-144.5 -85.5t-183.5 -29q-114 0 -202 34.5t-150 103.5t-94.5 176t-32.5 249q0 283 119.5 421.5t349.5 138.5z" />
<glyph unicode="e" horiz-adv-x="1087" d="M82 532q0 269 126.5 414.5t354.5 145.5q78 0 142.5 -17t109.5 -45t80.5 -67t56 -80t34 -86.5t18.5 -84t5 -75.5q0 -19 -0.5 -29.5t-2 -29t-5 -29t-10 -24t-16.5 -20.5t-25 -12t-35 -5h-681q0 -175 94 -278t258 -103q91 0 154.5 27t125.5 73q23 15 43 15q28 0 47.5 -20 t19.5 -48.5t-25 -53.5q-18 -17 -44.5 -35.5t-72 -42t-110.5 -38.5t-138 -15q-118 0 -210 33.5t-158 101t-101 176t-35 252.5zM862 619q0 54 -8 100t-28.5 91t-53 77t-86 51.5t-123.5 19.5q-149 0 -234 -90t-95 -249h628z" />
<glyph unicode="f" horiz-adv-x="673" d="M198 920h-79q-30 0 -50 20t-20 50t20 50t50 20h79v138q0 54 10.5 103t31 94.5t54 82.5t77 64t102.5 42t129 15q30 0 50.5 -20t20.5 -50t-20.5 -50t-50.5 -20q-131 0 -192.5 -70t-61.5 -191v-138h213q30 0 49.5 -20t19.5 -50t-19.5 -50t-49.5 -20h-213v-864 q0 -32 -21.5 -53t-53 -21t-53.5 21t-22 53v864z" />
<glyph unicode="g" horiz-adv-x="1114" d="M535 1092q149 0 249 -58q17 30 34 50.5t41 39t57.5 28t75.5 9.5q28 0 48 -20.5t20 -48.5t-20 -47.5t-48 -19.5q-48 0 -73 -19.5t-39 -52.5q84 -102 84 -253q0 -180 -114 -286t-315 -106q-150 0 -252 59q-42 -33 -42 -84q0 -98 172 -98h240q69 0 130 -12t112.5 -37 t88.5 -62t57.5 -90t20.5 -117q0 -89 -38 -155t-107 -105t-158 -58t-198 -19q-77 0 -145 9.5t-134 32.5t-113.5 59t-76.5 94t-29 133q0 79 47 140.5t131 94.5q-67 22 -106 72t-39 118q0 100 93 163q-84 105 -84 254q0 180 114 286t316 106zM534.5 443q132.5 0 205.5 69.5 t73 187.5t-73 188t-205 70q-89 0 -152 -32.5t-95 -90.5t-32 -135q0 -118 73 -187.5t205.5 -69.5zM911 -133q0 92 -68.5 134.5t-189.5 42.5h-243q-98 -16 -147 -65t-49 -121q0 -52 28 -91t77.5 -61.5t110.5 -33.5t133 -11t132.5 11.5t110 34.5t77.5 64t28 96z" />
<glyph unicode="h" horiz-adv-x="1169" d="M612 1092q75 0 137 -12.5t105.5 -34t77 -53.5t54 -66.5t33 -77.5t17.5 -83t5 -86v-623q0 -32 -21.5 -53t-52.5 -21q-21 0 -38.5 9.5t-27.5 26.5t-10 38v593q0 58 -7 103t-25.5 85.5t-49.5 66.5t-80.5 41t-116.5 15q-84 0 -145.5 -24.5t-97 -69.5t-52 -102.5t-16.5 -130.5 v-577q0 -32 -21.5 -53t-53 -21t-53 21t-21.5 53v1532q0 21 10 38t27 26.5t38 9.5q31 0 52.5 -21t21.5 -53v-659q23 46 66 82t107.5 58.5t137.5 22.5z" />
<glyph unicode="i" horiz-adv-x="450" d="M299 1004v-948q0 -32 -21.5 -53t-53 -21t-53.5 21t-22 53v948q0 32 22 53t53.5 21t53 -21t21.5 -53zM225 1298q-42 0 -65.5 23.5t-23.5 65.5q0 49 22.5 71t66 22t65.5 -22t22 -71q0 -27 -10 -47t-30 -31t-47 -11z" />
<glyph unicode="j" horiz-adv-x="452" d="M152 -82v1086q0 32 21.5 53t53 21t53 -21t21.5 -53v-1086q0 -97 -43.5 -177t-122 -126.5t-175.5 -46.5q-30 0 -49.5 20.5t-19.5 50.5t19.5 49.5t49.5 19.5q83 0 137.5 61t54.5 149zM227 1298q-42 0 -65.5 23.5t-23.5 65.5q0 49 22.5 71t66 22t66 -22t22.5 -71 q0 -42 -23 -65.5t-65 -23.5z" />
<glyph unicode="k" horiz-adv-x="1056" d="M922 -18q-37 0 -65 34l-414 530l-142 -114v-376q0 -32 -21.5 -53t-53 -21t-53 21t-21.5 53v1532q0 21 10 38t27 26.5t38 9.5q31 0 52.5 -21t21.5 -53v-978l552 450q21 18 51 18q32 0 53 -21t21 -53q0 -37 -31 -61l-382 -306l415 -534q16 -19 16 -47q0 -32 -21 -53 t-53 -21z" />
<glyph unicode="l" horiz-adv-x="510" d="M227 1662q31 0 52.5 -22t21.5 -52v-1334q0 -69 23 -101t70 -32q29 0 50 -20t21 -49.5t-21 -49.5t-50 -20q-118 0 -180 69t-62 203v1334q0 15 6 28.5t16 23.5t24 16t29 6z" />
<glyph unicode="m" horiz-adv-x="1885" d="M1317 1092q75 0 137 -12.5t107 -34.5t80 -53.5t56.5 -66.5t35.5 -77t19.5 -83t5.5 -86v-623q0 -32 -21.5 -53t-53 -21t-53 21t-21.5 53v593q0 57 -8.5 103t-29.5 85.5t-53.5 66t-83.5 41.5t-117 15q-147 0 -219.5 -73.5t-72.5 -207.5v-623q0 -32 -21.5 -53t-53 -21 t-53 21t-21.5 53v593q0 48 -5.5 87t-18 75t-34.5 62.5t-53.5 46.5t-75.5 30t-101 10q-79 0 -135.5 -23t-89.5 -67.5t-47.5 -102.5t-14.5 -134v-577q0 -32 -21.5 -53t-53 -21t-53 21t-21.5 53v948q0 32 21.5 53t53 21t53 -21t21.5 -53v-75q32 69 113.5 116t189.5 47 q138 0 233 -44.5t139 -118.5q104 163 341 163z" />
<glyph unicode="n" horiz-adv-x="1169" d="M612 1092q75 0 137 -12.5t105.5 -34t77 -53.5t54 -66.5t33 -77.5t17.5 -83t5 -86v-623q0 -32 -21.5 -53t-52.5 -21q-21 0 -38.5 9.5t-27.5 26.5t-10 38v593q0 58 -7 103t-25.5 85.5t-49.5 66.5t-80.5 41t-116.5 15q-84 0 -145.5 -24.5t-97 -69.5t-52 -102.5t-16.5 -130.5 v-577q0 -32 -21.5 -53t-53 -21t-53 21t-21.5 53v948q0 32 21.5 53t53 21t53 -21t21.5 -53v-75q23 46 66 82t107.5 58.5t137.5 22.5z" />
<glyph unicode="o" horiz-adv-x="1143" d="M572 1092q234 0 362 -139.5t128 -420.5t-128.5 -422t-361.5 -141q-232 0 -361 141.5t-129 421.5q0 281 129 420.5t361 139.5zM572.5 105q338.5 0 338.5 427q0 216 -87 321t-251.5 105t-251.5 -105t-87 -321q0 -427 338.5 -427z" />
<glyph unicode="p" horiz-adv-x="1187" d="M227 1078q20 0 37 -9.5t27 -26.5t10 -38v-75q14 25 35 48t51 44t65 36.5t78.5 25t88.5 9.5q233 0 360.5 -139.5t127.5 -420.5t-127.5 -422t-360.5 -141q-56 0 -108 14.5t-91.5 38.5t-69.5 52t-49 59v-527q0 -30 -22 -53t-52 -23t-52.5 23t-22.5 53v1398q0 31 22 52.5 t53 21.5zM296 532q0 -110 24.5 -193t69 -133.5t102 -75.5t127.5 -25q164 0 250 106t86 321t-88 320.5t-253 105.5q-67 0 -123 -24.5t-100.5 -74t-69.5 -133t-25 -194.5z" />
<glyph unicode="q" horiz-adv-x="1143" d="M869 310v323q0 161 -83.5 243t-224.5 82q-330 0 -330 -428q0 -213 84.5 -319t245.5 -106q35 0 68 7t59.5 19t50 27t41.5 32t33 34.5t25 32.5t17 27t10 19zM551 -31q-152 0 -255.5 60t-158.5 186t-55 315q0 282 124 422t355 140q101 0 184 -29t144 -85t95 -144t34 -201 v-1027q0 -32 -22 -54t-53.5 -22t-52.5 22t-21 54v515q-45 -63 -129.5 -107.5t-188.5 -44.5z" />
<glyph unicode="r" horiz-adv-x="720" d="M301 1004v-102q36 83 122 134.5t203 51.5q30 0 51 -21t21 -51t-21 -51.5t-51 -21.5q-105 0 -179 -46.5t-110 -127.5t-36 -190v-523q0 -32 -21.5 -53t-53 -21t-53 21t-21.5 53v948q0 32 21.5 53t53 21t53 -21t21.5 -53z" />
<glyph unicode="s" horiz-adv-x="989" d="M483 947q-42 0 -77 -7t-65.5 -22t-47.5 -43t-17 -67t21 -70t56.5 -52.5t81.5 -40t97 -35.5t101.5 -36t96.5 -45t81.5 -59t56.5 -81.5t21 -108.5q0 -77 -30.5 -137t-84.5 -97t-125.5 -55.5t-156.5 -18.5q-132 0 -239.5 51t-159.5 117q-15 23 -15 45q0 28 19.5 47.5 t47.5 19.5t51 -23q115 -115 296 -115q52 0 95.5 9.5t78.5 28.5t54.5 52t19.5 76q0 39 -21 69t-56.5 51t-81.5 39t-97 35t-101.5 35.5t-97 45t-81.5 60t-56 83t-21 110.5q0 71 27.5 125.5t76.5 88.5t113 51t139 17q119 0 210 -38.5t145 -111.5q17 -22 17 -44 q0 -14 -5.5 -26.5t-14.5 -21.5t-22 -14t-26 -5q-29 0 -49 20q-51 49 -110 73.5t-145 24.5z" />
<glyph unicode="t" horiz-adv-x="650" d="M210 1060v245q0 20 10.5 37t27.5 27t37 10q31 0 52.5 -21.5t21.5 -52.5v-245h153q30 0 49.5 -20t19.5 -50t-19.5 -50t-49.5 -20h-153v-644q0 -49 17.5 -84.5t48 -53t70.5 -17.5q30 0 51.5 -20t21.5 -50q0 -19 -10 -35t-26.5 -25t-36.5 -9q-135 0 -210 81t-75 213v644h-91 q-30 0 -50 20t-20 50t20 50t50 20h91z" />
<glyph unicode="u" horiz-adv-x="1125" d="M203 1078q20 0 37 -9.5t27.5 -26.5t10.5 -38v-610q0 -49 7 -88t26 -76.5t50 -62.5t82 -40t120 -15t120 15t82 40t50 62.5t25.5 76.5t6.5 88v610q0 32 23 53t55 21q19 0 35.5 -9.5t26 -26.5t9.5 -38v-610q0 -44 -3.5 -82t-12.5 -77.5t-25.5 -72.5t-39.5 -63.5t-56 -53.5 t-75.5 -40.5t-98 -26.5t-122.5 -9q-75 0 -137 12t-106.5 33t-78 52.5t-55 67t-34.5 79.5t-18 87.5t-5 93.5v610q0 32 21 53t53 21z" />
<glyph unicode="v" horiz-adv-x="1022" d="M512 -18q-50 0 -71 46l-397 943q-6 21 -6 33q0 32 21 53t53 21q51 0 70 -49l330 -804l328 804q20 49 71 49q31 0 52.5 -21t21.5 -53q0 -12 -7 -33l-397 -943q-20 -46 -69 -46z" />
<glyph unicode="w" horiz-adv-x="1493" d="M962 35l-215 740l-215 -740q-6 -24 -26.5 -38.5t-46.5 -14.5q-51 0 -69 49l-343 940q-7 17 -7 33q0 32 21 53t53 21q16 0 30 -5.5t24.5 -16.5t16.5 -27l270 -773l222 773q6 20 24 34.5t45.5 14.5t46.5 -14.5t24 -34.5l222 -773l271 773q18 49 69 49q21 0 38.5 -9.5 t27.5 -26.5t10 -38q0 -16 -7 -33l-343 -940q-9 -23 -27.5 -36t-43.5 -13t-45 14.5t-27 38.5z" />
<glyph unicode="x" horiz-adv-x="961" d="M773 11l-292 414l-292 -414q-20 -29 -60 -29q-32 0 -53.5 21t-21.5 53q0 27 13 44l321 442l-310 418q-15 25 -15 44q0 32 21.5 53t53.5 21q38 0 60 -29l283 -388l283 388q22 29 60 29q32 0 53 -21t21 -53q0 -21 -13 -44l-310 -418l319 -442q15 -18 15 -44q0 -32 -22 -53 t-54 -21q-40 0 -60 29z" />
<glyph unicode="y" horiz-adv-x="1022" d="M82 -329q59 0 105.5 18t76.5 41.5t62.5 80t50.5 97t54 128.5q2 6 3 8l-390 927q-6 21 -6 33q0 32 21 53t53 21q51 0 70 -49l330 -804l328 804q20 49 71 49q31 0 52.5 -21t21.5 -53q0 -12 -7 -33l-459 -1095q-50 -119 -107 -192.5t-138.5 -113.5t-191.5 -40 q-30 0 -50.5 20.5t-20.5 50.5t20.5 50t50.5 20z" />
<glyph unicode="z" horiz-adv-x="945" d="M89 990q0 30 20 50t49 20h640q15 0 28 -5.5t22.5 -15t15 -22.5t5.5 -27q0 -26 -16 -47l-582 -798h540q29 0 50 -21.5t21 -51.5t-21 -51t-50 -21h-684q-30 0 -50.5 20t-20.5 50q0 26 16 46l589 804h-503q-29 0 -49 20t-20 50z" />
<glyph unicode="{" horiz-adv-x="788" d="M728 -275.5q0 -26.5 -19 -46t-46 -19.5q-85 0 -150 23.5t-103 63t-57 87t-19 100.5q0 61 13.5 243t13.5 247q0 54 -12 93t-32 62t-51 36.5t-63 18t-74 4.5h-17q-23 0 -38.5 15.5t-15.5 38.5t15.5 38t38.5 15h17q29 0 53 2.5t49 8.5t43.5 16t35.5 27t28 39.5t17 54t6 70.5 q0 75 -13.5 219.5t-13.5 270.5q0 52 19 99t57 86t103 62.5t150 23.5q18 0 33 -9t23.5 -24t8.5 -32q0 -27 -19 -46t-46 -19q-173 0 -173 -171q0 -54 9 -214.5t9 -227.5q0 -127 -73 -208t-208 -81q135 0 208 -80.5t73 -209.5q0 -56 -9 -221t-9 -220q0 -170 173 -170 q27 0 46 -19.5t19 -46z" />
<glyph unicode="|" horiz-adv-x="503" d="M329 1809v-2105q0 -32 -22.5 -55t-54.5 -23t-54 23t-22 55v2105q0 32 22 55t54 23q21 0 38.5 -10.5t28 -28.5t10.5 -39z" />
<glyph unicode="}" horiz-adv-x="788" d="M60 -275.5q0 26.5 20 46t47 19.5q172 0 172 170q0 55 -9.5 220t-9.5 221q0 84 31.5 148.5t96 103t155.5 38.5q-135 0 -209 81t-74 208q0 67 9.5 227.5t9.5 214.5q0 171 -172 171q-27 0 -47 19t-20 45.5t20 46t47 19.5q85 0 150 -23.5t102.5 -62.5t56.5 -86t19 -99 q0 -126 -13.5 -270.5t-13.5 -219.5q0 -54 12 -94t32 -63.5t51.5 -37t63.5 -18.5t74 -5h16q23 0 38.5 -15t15.5 -38t-15.5 -38.5t-38.5 -15.5h-16q-42 0 -74 -4.5t-63.5 -18t-51.5 -36.5t-32 -62t-12 -93q0 -65 13.5 -247t13.5 -243q0 -53 -19 -100.5t-56.5 -87t-102.5 -63 t-150 -23.5q-27 0 -47 19.5t-20 46z" />
<glyph unicode="~" horiz-adv-x="1112" d="M768 684q26 0 47 6.5t33.5 14.5t24.5 23.5t17.5 25t13.5 26.5q19 37 58 37q25 0 43 -17.5t18 -42.5q0 -15 -5 -29q-11 -33 -31 -61.5t-50 -53t-73 -38.5t-95.5 -14t-102.5 15.5t-89 38t-76 44.5t-78 37.5t-80 15.5q-31 0 -54.5 -8t-39.5 -25t-23.5 -29t-18.5 -33 q-18 -38 -58 -38q-24 0 -42 18t-18 43q0 14 4 28q25 72 87.5 120t162.5 48q50 0 99 -16t89 -38t78 -44.5t79.5 -38t79.5 -15.5z" />
<glyph unicode="&#xa1;" horiz-adv-x="484" d="M242.5 -516q-85.5 0 -81.5 82l35 1100q0 18 11.5 30t35 12t35.5 -12t12 -30l35 -1100q3 -82 -82.5 -82zM242.5 1092q109.5 0 109.5 -109q0 -57 -28.5 -84.5t-80.5 -27.5t-81 27.5t-29 84.5q0 109 109.5 109z" />
<glyph unicode="&#xa2;" horiz-adv-x="1029" d="M82 532q0 261 109 399.5t311 156.5v133q0 25 18 42.5t43 17.5t43 -17.5t18 -42.5v-133q59 -7 111 -25.5t88.5 -43t59.5 -46t39 -42.5q16 -22 16 -44q0 -30 -19 -48.5t-48 -18.5q-32 0 -56 27q-19 22 -34 35.5t-46 34t-74.5 31t-97.5 10.5q-162 0 -245.5 -106t-83.5 -320 q0 -427 329 -427q39 0 76 7t62 16t53.5 25t42.5 25.5t36 26.5q24 17 45 17q28 0 47.5 -20t19.5 -48q0 -32 -30 -58q-133 -108 -291 -124v-161q0 -25 -18 -43t-43 -18q-16 0 -30.5 8.5t-22.5 22.5t-8 30v163q-134 11 -226.5 75t-143 186t-50.5 297z" />
<glyph unicode="&#xa3;" horiz-adv-x="1379" d="M1223 278q32 0 53.5 -21.5t21.5 -53.5q0 -17 -10 -38q-37 -72 -87 -117t-110.5 -64t-139.5 -19q-41 0 -87 11t-88 27.5t-83.5 32.5t-88 27.5t-88.5 11.5q-30 0 -59.5 -5t-51 -12t-42.5 -17t-33.5 -17.5t-26.5 -16.5t-18 -12q-1 0 -6 -3.5t-8 -5t-8 -3.5t-11 -3t-14 -1 q-31 0 -53 21.5t-22 53.5q0 19 7.5 32.5t25.5 29.5q66 53 126.5 159.5t60.5 189.5q0 51 -12 94t-39 100h-112q-20 0 -36 9t-25.5 25t-9.5 35q0 30 20.5 50t50.5 20h43q-43 80 -70.5 177t-27.5 186q0 95 36.5 177t101.5 140.5t159 92t206 33.5q197 0 327.5 -81t190.5 -229 q8 -20 8 -33q0 -32 -22 -53.5t-54 -21.5q-50 0 -71 53q-29 70 -78.5 119t-125.5 76t-175 27q-154 0 -253.5 -81.5t-99.5 -218.5q0 -154 119 -363h408q20 0 36.5 -9t25.5 -25t9 -36q0 -29 -20.5 -49t-50.5 -20h-347q35 -75 35 -194q0 -80 -39.5 -157t-98.5 -130 q22 12 56.5 20.5t65.5 8.5q60 0 122.5 -15.5t106 -34t97 -34.5t96.5 -16q75 0 130 29.5t90 99.5q20 42 67 42z" />
<glyph unicode="&#xa4;" horiz-adv-x="1089" d="M548 294q-144 0 -252 82l-107 -107q-24 -24 -51 -24q-30 0 -50.5 21.5t-20.5 51.5t24 54l105 109q-72 107 -72 247q0 65 20.5 132.5t53.5 119.5l-109 112q-22 25 -22 53q0 30 20.5 50.5t50.5 20.5q28 0 51 -22l107 -113q25 17 55 31.5t62.5 26t67.5 18t67 6.5 q140 0 248 -78l106 109q19 22 51 22q30 0 51 -21t21 -50q0 -30 -25 -55l-106 -107q75 -111 75 -255q0 -64 -21 -131t-54 -118l106 -107q25 -30 25 -54q0 -20 -9.5 -36.5t-26 -26.5t-36.5 -10q-31 0 -51 24l-104 105q-105 -80 -250 -80zM548 437q120 0 197 84.5t77 207 t-77 207t-197 84.5q-119 0 -198 -84.5t-79 -207t79 -207t198 -84.5z" />
<glyph unicode="&#xa5;" d="M1016 443.5q0 -26.5 -18 -44.5t-45 -18h-269v-321q0 -21 -10.5 -39.5t-29 -28.5t-40.5 -10q-33 0 -55.5 22.5t-22.5 55.5v321h-270q-26 0 -44 18t-18 44.5t18 44.5t44 18h270v111h-270q-26 0 -44 18t-18 44.5t18 44.5t44 18h263l-463 726q-12 19 -12 42q0 34 23.5 57 t56.5 23q45 0 68 -37l412 -664l414 664q23 37 67 37q34 0 57 -23t23 -57q0 -23 -11 -42l-463 -726h262q13 0 24.5 -5t20 -13t13.5 -20t5 -25q0 -26 -18 -44t-45 -18h-269v-111h269q27 0 45 -18t18 -44.5z" />
<glyph unicode="&#xa6;" horiz-adv-x="503" d="M329 1809v-900q0 -32 -22.5 -55t-54.5 -23t-54 23t-22 55v900q0 32 22 55t54 23q21 0 38.5 -10.5t28 -28.5t10.5 -39zM329 606v-902q0 -32 -22.5 -55t-54.5 -23t-54 23t-22 55v902q0 21 10 39t27.5 28.5t38.5 10.5q32 0 54.5 -23t22.5 -55z" />
<glyph unicode="&#xa7;" horiz-adv-x="1176" d="M936 481q0 62 -32 112t-81.5 82.5t-117.5 62t-130.5 48.5t-132 44t-110.5 48q-45 -38 -69.5 -96.5t-24.5 -130.5q0 -62 32 -112t81.5 -82t117.5 -61t131 -48t132 -44t110 -48q94 79 94 225zM84 651q0 174 126 313q-91 110 -91 257q0 80 28.5 148t85.5 121t152 83.5 t219 30.5q148 0 266 -57.5t195 -152.5q16 -20 16 -44q0 -30 -21 -51.5t-51 -21.5q-19 0 -30 5.5t-26 20.5q-31 31 -62.5 55.5t-75 50t-97.5 39t-114 13.5q-87 0 -152.5 -19t-103.5 -53.5t-56 -76.5t-18 -91q0 -64 27.5 -113.5t75 -81.5t108.5 -57t129 -47t135.5 -45 t129 -56.5t108.5 -76.5t75 -110t28 -153q0 -171 -126 -310q92 -110 92 -258q0 -80 -29 -147.5t-86 -121t-152 -84t-219 -30.5q-148 0 -266 58t-195 153q-16 20 -16 45q0 30 21 51t51 21q19 0 31 -5.5t26 -20.5q32 -31 62.5 -55.5t74 -50t97.5 -39.5t114 -14q87 0 152.5 19.5 t104 53.5t57 76t18.5 91q0 65 -28 114t-75.5 81t-108.5 57t-129 46.5t-135.5 44.5t-129 56t-109 76t-75.5 110t-28 153z" />
<glyph unicode="&#xa8;" horiz-adv-x="739" d="M187 1247q-84 0 -84 86q0 89 84 89t84 -89q0 -86 -84 -86zM553 1247q-83 0 -83 86q0 89 83 89q84 0 84 -89q0 -86 -84 -86z" />
<glyph unicode="&#xa9;" horiz-adv-x="1869" d="M927 361q-90 0 -157 25t-114.5 76t-71 132.5t-23.5 192.5q0 221 92.5 324t273.5 103q103 0 182 -43t107 -95q7 -14 7 -27q0 -25 -16.5 -42t-41.5 -17t-47 21q-43 44 -87 65.5t-104 21.5q-121 0 -179.5 -71.5t-58.5 -239.5q0 -159 59.5 -233.5t178.5 -74.5q45 0 76 5.5 t59.5 21t55.5 42.5q24 24 47 24q25 0 41.5 -16.5t16.5 -41.5q0 -20 -13 -37q-45 -56 -112.5 -86t-170.5 -30zM934 1604q396 0 604 -205t208 -615q0 -408 -208.5 -612.5t-603.5 -204.5q-391 0 -600.5 205.5t-209.5 611.5q0 409 209.5 614.5t600.5 205.5zM934 89 q339 0 511.5 170.5t172.5 524.5q0 179 -44 311t-131 217.5t-214 127.5t-295 42q-338 0 -506.5 -171t-168.5 -527q0 -355 168.5 -525t506.5 -170z" />
<glyph unicode="&#xaa;" horiz-adv-x="797" d="M749 672.5q0 -17.5 -13.5 -31t-30.5 -13.5h-612q-8 0 -16 4t-14 10t-10 14t-4 17q0 17 13.5 30.5t30.5 13.5h612q17 0 30.5 -13.5t13.5 -31zM408 1513q-93 0 -165 -77q-17 -17 -38 -17q-19 0 -33 13.5t-14 33.5q0 14 13 33q10 14 24.5 28t42.5 33.5t72.5 31.5t97.5 12 q77 0 135 -18.5t94 -52.5t53.5 -79.5t17.5 -101.5v-448q0 -21 -15.5 -36t-37 -15t-36.5 15t-15 36v43q-33 -50 -90 -77.5t-124 -27.5q-132 0 -207.5 61.5t-75.5 168.5q0 111 78.5 168.5t211.5 57.5h207v56q0 75 -49.5 117t-146.5 42zM390 929q92 0 153 51t61 145v87h-207 q-85 0 -136 -34t-51 -106q0 -74 50.5 -108.5t129.5 -34.5z" />
<glyph unicode="&#xab;" horiz-adv-x="1218" d="M182 495q0 22 16 42l381 448q18 22 42 22q23 0 39.5 -16.5t16.5 -39.5q0 -21 -16 -40l-358 -416l358 -415q16 -19 16 -40q0 -23 -16.5 -39.5t-39.5 -16.5q-25 0 -42 21l-381 448q-16 20 -16 42zM542 495q0 22 15 42l381 448q18 22 42 22q23 0 39.5 -16.5t16.5 -39.5 q0 -21 -16 -40l-357 -416l357 -415q16 -19 16 -40q0 -23 -16.5 -39.5t-39.5 -16.5q-25 0 -42 21l-381 448q-15 20 -15 42z" />
<glyph unicode="&#xac;" horiz-adv-x="1314" d="M1230 651v-600q0 -30 -20 -49.5t-50 -19.5t-50 19.5t-20 49.5v544h-943q-26 0 -44.5 18.5t-18.5 45t18.5 45t44.5 18.5h1014q11 0 22 -3.5t19.5 -10t14.5 -15.5t9.5 -19.5t3.5 -22.5z" />
<glyph unicode="&#xad;" horiz-adv-x="849" d="M722 588.5q0 -26.5 -18.5 -44.5t-44.5 -18h-467q-27 0 -45 18t-18 44.5t18 44.5t45 18h467q26 0 44.5 -18t18.5 -44.5z" />
<glyph unicode="&#xae;" horiz-adv-x="880" d="M437 1604q168 0 257.5 -88t89.5 -267q0 -90 -23 -158t-68 -112t-109 -66t-147 -22q-81 0 -144 22t-107.5 66t-68.5 112.5t-24 157.5q0 178 90 266.5t254 88.5zM439 947q139 0 209.5 73t70.5 229q0 105 -32.5 172t-93.5 97t-154 30q-139 0 -210 -71.5t-71 -227.5 q0 -155 71.5 -228.5t209.5 -73.5zM418 1210h-54v-114q0 -13 -9 -22t-21 -9q-6 0 -11.5 2.5t-10 6.5t-7 10t-2.5 12v305q0 12 9.5 21t21.5 9h129q52 0 84 -32t32 -78q0 -44 -28.5 -77.5t-67.5 -33.5l78 -96q7 -9 7 -18q0 -13 -8.5 -22t-20.5 -9q-15 0 -25 13zM364 1261h99 q27 0 41.5 16.5t14.5 43.5q0 25 -14.5 41.5t-41.5 16.5h-99v-118z" />
<glyph unicode="&#xaf;" horiz-adv-x="891" d="M722 1312q0 -25 -17 -41.5t-42 -16.5h-434q-25 0 -41.5 16.5t-16.5 41.5q0 16 7.5 29.5t21 21t29.5 7.5h434q25 0 42 -16.5t17 -41.5z" />
<glyph unicode="&#xb0;" horiz-adv-x="835" d="M735 1284q0 -132 -93 -224.5t-226 -92.5q-85 0 -158.5 42t-116.5 115.5t-43 159.5t43 160t116.5 117t158.5 43q87 0 161 -43t116 -117t42 -160zM646 1284q0 96 -65.5 163.5t-164.5 67.5q-63 0 -116 -31.5t-83 -84.5t-30 -115q0 -96 66.5 -162t162.5 -66q99 0 164.5 66 t65.5 162z" />
<glyph unicode="&#xb1;" horiz-adv-x="1059" d="M1060 717q0 -26 -18.5 -45t-45.5 -19h-399v-399q0 -28 -19.5 -47.5t-47.5 -19.5t-47.5 19.5t-19.5 47.5v399h-400q-27 0 -45 18.5t-18 45.5t18 45t45 18h400v396q0 29 19.5 49t47.5 20t47.5 -20t19.5 -49v-396h399q27 0 45.5 -18.5t18.5 -44.5zM1060 62.5 q0 -26.5 -18.5 -44.5t-45.5 -18h-933q-27 0 -45 18t-18 44.5t18 45.5t45 19h933q27 0 45.5 -19t18.5 -45.5z" />
<glyph unicode="&#xb2;" horiz-adv-x="620" d="M82 1580q25 60 84 92t142 32q76 0 132.5 -23.5t88.5 -71t32 -112.5q0 -40 -16 -76.5t-42.5 -63t-60.5 -51.5t-69 -44t-69 -39t-60.5 -37.5t-42.5 -38.5t-16 -42h314q23 0 39.5 -16.5t16.5 -39.5q0 -15 -7.5 -28.5t-20.5 -21t-28 -7.5h-390q-23 0 -39 17t-16 40 q0 49 16.5 90.5t43.5 70t61.5 55t70.5 45.5t71 40t62 41t43.5 47.5t16.5 58.5q0 42 -33.5 70t-97.5 28q-52 0 -80 -17t-52 -52q-19 -22 -45 -22q-23 0 -38 15t-15 38q0 12 4 23z" />
<glyph unicode="&#xb3;" horiz-adv-x="604" d="M495 1590l-159 -164q56 0 98.5 -18.5t66 -50.5t34.5 -68t11 -77q0 -108 -67.5 -171t-202.5 -63q-83 0 -144 39t-92 97q-9 18 -9 33q0 23 15 38t38 15q30 0 49 -30q25 -41 58 -60.5t85 -19.5q71 0 109 30.5t38 91.5q0 112 -140 112h-52q-23 0 -39 16t-16 39q0 21 13 38 l145 156h-218q-16 0 -29.5 8t-21 21.5t-7.5 29.5q0 25 16.5 42t41.5 17h337q24 0 41.5 -17t17.5 -42q0 -28 -17 -42z" />
<glyph unicode="&#xb4;" horiz-adv-x="862" d="M283 1214q-38 30 -7 70l207 253q16 19 37.5 21t51.5 -21q50 -47 7 -89l-227 -229q-33 -34 -69 -5z" />
<glyph unicode="&#xb5;" horiz-adv-x="1125" d="M278 1004v-610q0 -49 7 -88t26 -76.5t50 -62.5t82 -40t120 -15t120 15t82 40t50 62.5t25.5 76.5t6.5 88v610q0 32 23 53t55 21q19 0 35.5 -9.5t26 -26.5t9.5 -38v-610q0 -44 -3.5 -82t-12.5 -77.5t-25.5 -72.5t-39.5 -63.5t-56 -53.5t-75.5 -40.5t-98 -26.5t-122.5 -9 q-106 0 -171 29t-114 80v-482q0 -20 -10 -37.5t-27 -27.5t-38 -10q-32 0 -53 22t-21 53v1408q0 32 21 53t53 21q20 0 37 -9.5t27.5 -26.5t10.5 -38z" />
<glyph unicode="&#xb6;" horiz-adv-x="1197" d="M1085 1501q0 -30 -19.5 -50t-49.5 -20h-63v-733q0 -258 -76 -431.5t-221.5 -259t-359.5 -85.5q-104 0 -151 22q-20 8 -33.5 25.5t-13.5 41.5q0 20 10 37t26.5 26.5t36.5 9.5q11 0 25 -4q62 -17 100 -17q67 0 117.5 29t81 82.5t45.5 124t15 158.5v356h-76q-77 0 -146.5 30 t-120 81t-80 121.5t-29.5 148.5q0 102 50 189t137 137.5t189 50.5h537q30 0 49.5 -20t19.5 -50zM804 1431h-99v-939q0 -249 -152 -401q135 74 193 220t58 387v733z" />
<glyph unicode="&#xb7;" horiz-adv-x="381" d="M189.5 591q-109.5 0 -109.5 109q0 38 13.5 63.5t37.5 37.5t58 12q52 0 81 -28t29 -85q0 -109 -109.5 -109z" />
<glyph unicode="&#xb8;" horiz-adv-x="735" d="M570 -325q0 -198 -227 -198q-42 0 -82.5 12.5t-66.5 29.5q-18 13 -18 35q0 12 5 22t15 16.5t21 6.5q14 0 28 -7q48 -24 98 -24q66 0 95 22t29 85q0 58 -26 83t-77 25q-22 0 -53 -5t-42 -5q-18 0 -31 13t-11 38l7 176h81l-12 -138q44 5 64 5q103 0 153 -47.5t50 -144.5z " />
<glyph unicode="&#xb9;" horiz-adv-x="457" d="M231 1531l-70 -49q-20 -16 -42 -16q-24 0 -41.5 17.5t-17.5 40.5q0 30 29 49l167 113q16 11 36 11q25 0 42.5 -17.5t17.5 -42.5v-590q0 -25 -17.5 -43.5t-42.5 -18.5q-7 0 -14 1.5t-13 4.5t-11 7.5t-9 10t-7 11.5t-5 13t-2 14v484z" />
<glyph unicode="&#xba;" horiz-adv-x="811" d="M406 934q111 0 170 71.5t59 217.5t-59 218t-170 72t-169.5 -72t-58.5 -218q0 -73 15 -128.5t44.5 -90.5t71.5 -52.5t97 -17.5zM768 672.5q0 -17.5 -13.5 -31t-30.5 -13.5h-635q-17 0 -31 13.5t-14 31t14 31t31 13.5h635q17 0 30.5 -13.5t13.5 -31zM406 1604 q107 0 181 -41.5t113.5 -127t39.5 -212.5q0 -189 -86.5 -285t-248 -96t-247.5 96t-86 285.5t86 285t248 95.5z" />
<glyph unicode="&#xbb;" horiz-adv-x="1218" d="M1036 495q0 -22 -16 -42l-380 -448q-18 -21 -43 -21q-23 0 -39 16.5t-16 39.5q0 21 15 40l358 415l-358 416q-15 19 -15 40q0 23 16 39.5t39 16.5q24 0 43 -22l380 -448q16 -20 16 -42zM677 495q0 -22 -16 -42l-381 -448q-17 -21 -42 -21q-23 0 -39.5 16.5t-16.5 39.5 q0 21 16 40l357 415l-357 416q-16 19 -16 40q0 23 16.5 39.5t39.5 16.5q24 0 42 -22l381 -448q16 -20 16 -42z" />
<glyph unicode="&#xbc;" horiz-adv-x="1147" d="M236 1431l-71 -49q-20 -16 -41 -16q-23 0 -41 17.5t-18 40.5q0 30 28 49l168 113q15 11 35 11q17 0 31 -8t22 -22t8 -30v-592q0 -25 -18 -42.5t-42.5 -17.5t-42.5 17.5t-18 42.5v486zM990 250h37q23 0 39.5 -16.5t16.5 -39.5t-16.5 -39.5t-39.5 -16.5h-37v-96 q0 -25 -18 -42.5t-43 -17.5t-42.5 17.5t-17.5 42.5v96h-259q-23 0 -40 16.5t-17 39.5q0 19 15 37l312 437q21 25 49 25q25 0 43 -18t18 -42v-383zM712 250h157v224zM207 67l575 1486q4 14 18 25.5t38 11.5q26 0 45 -18.5t19 -45.5q0 -3 -2 -12t-4 -10l-571 -1481 q-3 -13 -18 -27t-41 -14q-27 0 -45 18t-18 44q0 14 4 23z" />
<glyph unicode="&#xbd;" horiz-adv-x="1230" d="M236 1431l-71 -49q-20 -16 -41 -16q-23 0 -41 17.5t-18 40.5q0 30 28 49l168 113q15 11 35 11q17 0 31 -8t22 -22t8 -30v-592q0 -25 -18 -42.5t-42.5 -17.5t-42.5 17.5t-18 42.5v486zM691 588q24 60 84 92t143 32q115 0 183.5 -54.5t68.5 -153.5q0 -46 -21 -86t-54 -69 t-73 -55t-80.5 -48t-73.5 -42.5t-54 -44t-21 -47.5h316q15 0 28 -7.5t20.5 -20.5t7.5 -28q0 -23 -16.5 -39.5t-39.5 -16.5h-390q-23 0 -39.5 16.5t-16.5 39.5q0 44 13.5 81.5t35.5 65t51 51.5t61 43.5t64 37.5t61 36t51 37t35.5 43.5t13.5 52.5q0 43 -34 70.5t-97 27.5 q-52 0 -80.5 -16.5t-53.5 -50.5q-18 -23 -44 -23q-23 0 -38.5 15t-15.5 38q0 12 5 23zM207 67l575 1486q16 37 56 37q26 0 45 -18.5t19 -45.5q0 -3 -2 -12t-4 -10l-571 -1481q-17 -41 -59 -41q-27 0 -45 18t-18 44q0 14 4 23z" />
<glyph unicode="&#xbe;" horiz-adv-x="1350" d="M1121 250h37q23 0 39.5 -16.5t16.5 -39.5q0 -12 -4.5 -22t-12 -17.5t-17.5 -12t-22 -4.5h-37v-96q0 -25 -18 -42.5t-43 -17.5t-42.5 17.5t-17.5 42.5v96h-260q-23 0 -39.5 16.5t-16.5 39.5q0 20 14 37l313 437q21 25 49 25q25 0 43 -18t18 -42v-383zM842 250h158v224z M519 1490l-160 -164q56 0 98.5 -19t66 -50.5t35 -68t11.5 -76.5q0 -108 -68 -171t-203 -63q-83 0 -144 39t-92 96q-9 19 -9 34q0 23 15 38t38 15q30 0 49 -31q10 -16 20 -28t23 -22t27.5 -16.5t32.5 -9.5t40 -3q71 0 109 30.5t38 91.5q0 111 -140 111h-52q-23 0 -39.5 16.5 t-16.5 39.5q0 21 14 38l145 156h-217q-25 0 -41.5 16.5t-16.5 41.5t17 42t41 17h337q24 0 41 -17t17 -42q0 -28 -16 -41zM339 67l574 1486q2 6 6 12.5t10.5 12t16.5 9t23 3.5q26 0 44.5 -18.5t18.5 -45.5q0 -18 -5 -22l-572 -1481q-2 -8 -7.5 -16.5t-19 -16.5t-31.5 -8 q-27 0 -45 18t-18 44q0 14 5 23z" />
<glyph unicode="&#xbf;" horiz-adv-x="1076" d="M644 705q39 -39 57 -92.5t18 -106.5q0 -48 -16.5 -90t-45 -73.5t-65 -60.5t-77 -55t-81 -52.5t-77 -58t-64.5 -66.5t-45 -82.5t-17 -103.5q0 -127 82 -191.5t231 -64.5q141 0 219.5 70t78.5 210q0 32 23 54.5t55 22.5t54 -22.5t22 -54.5q0 -195 -119 -306.5t-333 -111.5 q-218 0 -340 103t-122 291q0 51 10.5 97.5t25.5 82t42.5 71.5t49 59t59.5 53t59.5 44.5t61.5 41.5q37 25 55 37.5t45.5 34.5t40 38.5t22.5 38.5t10 44q0 21 -5.5 39t-10 26t-17.5 29q-18 27 -18 51q0 23 12 41.5t29 27t35 8.5q32 0 56 -23zM597 1092q111 0 111 -109 q0 -57 -29 -84.5t-81.5 -27.5t-81 27.5t-28.5 84.5q0 109 109 109z" />
<glyph unicode="&#xc0;" horiz-adv-x="1430" d="M992 610l-277 714l-276 -714h553zM1041 465h-651l-170 -427q-9 -25 -29 -40.5t-49 -15.5q-33 0 -56 23.5t-23 54.5q0 22 7 36l570 1441q21 53 75 53q28 0 47.5 -15t28.5 -38l570 -1441q7 -17 7 -36q0 -15 -6 -29.5t-16.5 -25t-26 -17t-33.5 -6.5q-57 0 -76 53zM836 1691 q-36 -29 -70 4l-227 229q-42 42 7 88q30 23 52 21t37 -21l207 -252q31 -39 -6 -69z" />
<glyph unicode="&#xc1;" horiz-adv-x="1430" d="M992 610l-277 714l-276 -714h553zM1041 465h-651l-170 -427q-9 -25 -29 -40.5t-49 -15.5q-33 0 -56 23.5t-23 54.5q0 22 7 36l570 1441q21 53 75 53q28 0 47.5 -15t28.5 -38l570 -1441q7 -17 7 -36q0 -15 -6 -29.5t-16.5 -25t-26 -17t-33.5 -6.5q-57 0 -76 53zM593 1691 q-38 30 -7 69l207 252q16 19 38 21t51 -21q49 -46 7 -88l-226 -229q-33 -34 -70 -4z" />
<glyph unicode="&#xc2;" horiz-adv-x="1430" d="M992 610l-277 714l-276 -714h553zM1041 465h-651l-170 -427q-9 -25 -29 -40.5t-49 -15.5q-33 0 -56 23.5t-23 54.5q0 22 7 36l570 1441q21 53 75 53q28 0 47.5 -15t28.5 -38l570 -1441q7 -17 7 -36q0 -15 -6 -29.5t-16.5 -25t-26 -17t-33.5 -6.5q-57 0 -76 53zM904 1693 l-189 158l-189 -158q-14 -14 -38 -14q-23 0 -39.5 16.5t-16.5 39.5q0 27 21 45l224 183q20 15 38 15q16 0 36 -15l225 -183q20 -18 20 -45q0 -23 -16 -39.5t-40 -16.5q-22 0 -36 14z" />
<glyph unicode="&#xc3;" horiz-adv-x="1430" d="M992 610l-277 714l-276 -714h553zM1041 465h-651l-170 -427q-9 -25 -29 -40.5t-49 -15.5q-33 0 -56 23.5t-23 54.5q0 22 7 36l570 1441q21 53 75 53q28 0 47.5 -15t28.5 -38l570 -1441q7 -17 7 -36q0 -15 -6 -29.5t-16.5 -25t-26 -17t-33.5 -6.5q-57 0 -76 53zM579 1912 q38 0 77.5 -14.5t67.5 -31.5t63.5 -31t67.5 -14q35 0 58 15t49 51q19 25 47 25q23 0 39.5 -16.5t16.5 -39.5q0 -14 -7 -27q-26 -52 -77.5 -87t-125.5 -35q-39 0 -78.5 14t-66.5 31t-62.5 31.5t-68.5 14.5q-35 0 -58 -15t-49 -50q-20 -26 -47 -26q-23 0 -39.5 16t-16.5 39 q0 15 7 29q26 52 77.5 86.5t125.5 34.5z" />
<glyph unicode="&#xc4;" horiz-adv-x="1430" d="M992 610l-277 714l-276 -714h553zM1041 465h-651l-170 -427q-9 -25 -29 -40.5t-49 -15.5q-33 0 -56 23.5t-23 54.5q0 22 7 36l570 1441q21 53 75 53q28 0 47.5 -15t28.5 -38l570 -1441q7 -17 7 -36q0 -15 -6 -29.5t-16.5 -25t-26 -17t-33.5 -6.5q-57 0 -76 53z M532.5 1731q-84.5 0 -84.5 85q0 89 84.5 89t84.5 -89q0 -85 -84.5 -85zM898 1731q-83 0 -83 85q0 89 83 89q85 0 85 -89q0 -85 -85 -85z" />
<glyph unicode="&#xc5;" horiz-adv-x="1430" d="M992 610l-277 714l-276 -714h553zM1041 465h-651l-170 -427q-9 -25 -29 -40.5t-49 -15.5q-33 0 -56 23.5t-23 54.5q0 22 7 36l570 1441q21 53 75 53q28 0 47.5 -15t28.5 -38l570 -1441q7 -17 7 -36q0 -15 -6 -29.5t-16.5 -25t-26 -17t-33.5 -6.5q-57 0 -76 53zM715 1642 q-122 0 -182.5 59t-60.5 169q0 72 26 122.5t80.5 78.5t136.5 28q121 0 182 -60t61 -169q0 -73 -26 -123t-81 -77.5t-136 -27.5zM714.5 2010q-78.5 0 -111.5 -34t-33 -106q0 -71 33.5 -105t111.5 -34t111.5 34t33.5 105q0 72 -33.5 106t-112 34z" />
<glyph unicode="&#xc6;" horiz-adv-x="1963" d="M1796 0h-776q-33 0 -56.5 23t-23.5 57v385h-492l-277 -447q-20 -36 -68 -36q-34 0 -58 23.5t-24 57.5q0 19 17 46l915 1425q23 37 67 37h749q30 0 51.5 -21t21.5 -51t-21.5 -51.5t-51.5 -21.5h-669v-562h513q15 0 28.5 -6t23 -15.5t15.5 -23t6 -28.5q0 -30 -21.5 -51 t-51.5 -21h-513v-574h696q29 0 50 -21.5t21 -51.5t-21 -51t-50 -21zM532 610h408v653z" />
<glyph unicode="&#xc7;" horiz-adv-x="1472" d="M1029 -325q0 -198 -225 -198q-43 0 -84 12.5t-67 29.5q-18 13 -18 35q0 18 12.5 31.5t29.5 13.5q14 0 28 -7q47 -24 99 -24q66 0 94.5 22t28.5 85q0 58 -26 83t-77 25q-21 0 -52.5 -5t-43.5 -5q-17 0 -30 13t-12 38l5 153q-141 17 -248.5 73t-184 154t-116 244t-39.5 336 q0 205 50 361t144.5 256.5t228.5 151.5t305 51q165 0 304 -66t222 -181q16 -23 16 -49q0 -32 -21.5 -54t-53.5 -22q-36 0 -61 31q-63 86 -171 141t-235 55q-135 0 -239.5 -41.5t-177.5 -124t-110.5 -211t-37.5 -298.5q0 -179 37 -309t111 -209.5t177 -116.5t240 -37 q122 0 231 48.5t175 142.5q21 31 61 31q32 0 53.5 -21.5t21.5 -53.5q0 -24 -14 -45q-77 -111 -222 -179t-306 -68l-58 2l-9 -107q42 5 62 5q104 0 153.5 -47.5t49.5 -144.5z" />
<glyph unicode="&#xc8;" d="M1041 0h-775q-34 0 -56.5 23t-22.5 57v1412q0 34 22.5 56.5t56.5 22.5h750q19 0 35.5 -9.5t26.5 -26t10 -36.5q0 -30 -21 -51.5t-51 -21.5h-671v-562h515q29 0 50 -21.5t21 -51.5t-21 -51t-50 -21h-515v-574h696q30 0 51.5 -21.5t21.5 -51.5t-21.5 -51t-51.5 -21z M787 1691q-36 -29 -70 4l-227 229q-42 42 7 88q30 23 52 21t37 -21l207 -252q31 -39 -6 -69z" />
<glyph unicode="&#xc9;" d="M1041 0h-775q-34 0 -56.5 23t-22.5 57v1412q0 34 22.5 56.5t56.5 22.5h750q19 0 35.5 -9.5t26.5 -26t10 -36.5q0 -30 -21 -51.5t-51 -21.5h-671v-562h515q29 0 50 -21.5t21 -51.5t-21 -51t-50 -21h-515v-574h696q30 0 51.5 -21.5t21.5 -51.5t-21.5 -51t-51.5 -21z M530 1691q-37 30 -7 69l208 252q15 19 37 21t52 -21q49 -46 6 -88l-226 -229q-34 -33 -70 -4z" />
<glyph unicode="&#xca;" d="M1041 0h-775q-34 0 -56.5 23t-22.5 57v1412q0 34 22.5 56.5t56.5 22.5h750q19 0 35.5 -9.5t26.5 -26t10 -36.5q0 -30 -21 -51.5t-51 -21.5h-671v-562h515q29 0 50 -21.5t21 -51.5t-21 -51t-50 -21h-515v-574h696q30 0 51.5 -21.5t21.5 -51.5t-21.5 -51t-51.5 -21z M857 1693l-189 158l-189 -158q-14 -14 -38 -14q-23 0 -39.5 16.5t-16.5 39.5q0 27 21 45l224 183q20 15 38 15q17 0 37 -15l224 -183q22 -19 22 -45q0 -23 -17 -39.5t-40 -16.5t-37 14z" />
<glyph unicode="&#xcb;" d="M1041 0h-775q-34 0 -56.5 23t-22.5 57v1412q0 34 22.5 56.5t56.5 22.5h750q19 0 35.5 -9.5t26.5 -26t10 -36.5q0 -30 -21 -51.5t-51 -21.5h-671v-562h515q29 0 50 -21.5t21 -51.5t-21 -51t-50 -21h-515v-574h696q30 0 51.5 -21.5t21.5 -51.5t-21.5 -51t-51.5 -21z M478.5 1731q-84.5 0 -84.5 85q0 89 84.5 89t84.5 -89q0 -85 -84.5 -85zM845 1731q-83 0 -83 85q0 89 83 89q84 0 84 -89q0 -85 -84 -85z" />
<glyph unicode="&#xcc;" horiz-adv-x="531" d="M345 1510v-1450q0 -31 -23 -54.5t-56 -23.5q-22 0 -40 10.5t-28.5 29t-10.5 38.5v1450q0 33 23 56.5t56 23.5t56 -23.5t23 -56.5zM388 1691q-36 -29 -70 4l-227 229q-42 42 7 88q30 23 52 21t37 -21l207 -252q31 -39 -6 -69z" />
<glyph unicode="&#xcd;" horiz-adv-x="531" d="M345 1510v-1450q0 -31 -23 -54.5t-56 -23.5q-22 0 -40 10.5t-28.5 29t-10.5 38.5v1450q0 33 23 56.5t56 23.5t56 -23.5t23 -56.5zM145 1691q-38 30 -7 69l207 252q16 19 38 21t51 -21q49 -46 7 -88l-227 -229q-33 -33 -69 -4z" />
<glyph unicode="&#xce;" horiz-adv-x="531" d="M345 1510v-1450q0 -31 -23 -54.5t-56 -23.5q-22 0 -40 10.5t-28.5 29t-10.5 38.5v1450q0 33 23 56.5t56 23.5t56 -23.5t23 -56.5zM457 1693l-188 158l-189 -158q-14 -14 -38 -14q-23 0 -39.5 16.5t-16.5 39.5q0 27 21 45l224 183q20 15 38 15q17 0 37 -15l224 -183 q21 -18 21 -45q0 -23 -16.5 -39.5t-39.5 -16.5q-24 0 -38 14z" />
<glyph unicode="&#xcf;" horiz-adv-x="531" d="M345 1510v-1450q0 -31 -23 -54.5t-56 -23.5q-22 0 -40 10.5t-28.5 29t-10.5 38.5v1450q0 33 23 56.5t56 23.5t56 -23.5t23 -56.5zM84 1731q-84 0 -84 85q0 89 84 89t84 -89q0 -85 -84 -85zM450 1731q-83 0 -83 85q0 89 83 89q85 0 85 -89q0 -85 -85 -85z" />
<glyph unicode="&#xd0;" horiz-adv-x="1421" d="M266 1571h329q138 0 248 -26.5t200 -85t150.5 -149t93 -223t32.5 -303.5q0 -142 -22.5 -258t-66 -202t-105 -148t-143.5 -101t-177.5 -57t-209.5 -18h-329q-34 0 -56.5 23t-22.5 57v660h-73q-20 0 -36.5 10t-26 26.5t-9.5 36.5q0 30 21 51t51 21h73v607q0 34 22.5 56.5 t56.5 22.5zM871 812.5q0 -29.5 -22.5 -51t-52.5 -21.5h-451v-591h250q108 0 193 19.5t156 65t118 117.5t73 181t26 252q0 142 -26 251t-73 181.5t-118 119t-156 66.5t-193 20h-250v-537h451q30 0 52.5 -21.5t22.5 -51z" />
<glyph unicode="&#xd1;" horiz-adv-x="1446" d="M1207.5 1590q31.5 0 54 -22.5t22.5 -54.5v-1453q0 -33 -23 -55.5t-56 -22.5q-41 0 -66 32l-821 1240v-1196q0 -31 -23 -53.5t-54 -22.5q-16 0 -30.5 6t-25 16t-16.5 24.5t-6 29.5v1455q0 21 10.5 38.5t28.5 28t39 10.5q39 0 62 -33l827 -1242v1198q0 31 23 54t54.5 23z M606 1912q39 0 78.5 -14.5t67 -31.5t63.5 -31t67 -14q35 0 58 15t50 51q18 25 46 25q23 0 39.5 -16.5t16.5 -39.5q0 -14 -7 -27q-26 -52 -77 -87t-126 -35q-39 0 -78 14t-66.5 31t-63 31.5t-68.5 14.5q-35 0 -57.5 -15t-49.5 -50q-19 -26 -46 -26q-24 0 -40 16t-16 39 q0 15 7 29q16 33 41.5 58.5t68 44t92.5 18.5z" />
<glyph unicode="&#xd2;" horiz-adv-x="1662" d="M831 -33q171 0 305 51t228.5 151.5t145 256t50.5 358.5q0 205 -50 361t-145 256.5t-229 151.5t-305 51t-305 -51t-228.5 -151.5t-144.5 -256.5t-50 -361q0 -203 50 -358.5t144.5 -256t228.5 -151.5t305 -51zM831 1459q135 0 239 -41.5t177 -124t111 -211t38 -298.5 q0 -335 -146 -503.5t-418.5 -168.5t-419 168.5t-146.5 503.5q0 337 146 506t419 169zM980 1691q-36 -29 -69 4l-227 229q-42 42 7 88q30 23 51.5 21t37.5 -21l207 -252q31 -39 -7 -69z" />
<glyph unicode="&#xd3;" horiz-adv-x="1662" d="M831 -33q171 0 305 51t228.5 151.5t145 256t50.5 358.5q0 205 -50 361t-145 256.5t-229 151.5t-305 51t-305 -51t-228.5 -151.5t-144.5 -256.5t-50 -361q0 -203 50 -358.5t144.5 -256t228.5 -151.5t305 -51zM831 1459q135 0 239 -41.5t177 -124t111 -211t38 -298.5 q0 -335 -146 -503.5t-418.5 -168.5t-419 168.5t-146.5 503.5q0 337 146 506t419 169zM702 1691q-37 30 -7 69l209 252q15 19 36.5 21t51.5 -21q49 -46 8 -88l-227 -229q-34 -34 -71 -4z" />
<glyph unicode="&#xd4;" horiz-adv-x="1662" d="M831 -33q171 0 305 51t228.5 151.5t145 256t50.5 358.5q0 205 -50 361t-145 256.5t-229 151.5t-305 51t-305 -51t-228.5 -151.5t-144.5 -256.5t-50 -361q0 -203 50 -358.5t144.5 -256t228.5 -151.5t305 -51zM831 1459q135 0 239 -41.5t177 -124t111 -211t38 -298.5 q0 -335 -146 -503.5t-418.5 -168.5t-419 168.5t-146.5 503.5q0 337 146 506t419 169zM1027 1693l-189 158l-189 -158q-14 -14 -37 -14q-15 0 -28 7.5t-21 20.5t-8 28q0 26 22 45l223 183q20 15 38 15t38 -15l224 -183q21 -18 21 -45q0 -23 -16.5 -39.5t-39.5 -16.5 q-24 0 -38 14z" />
<glyph unicode="&#xd5;" horiz-adv-x="1662" d="M831 -33q171 0 305 51t228.5 151.5t145 256t50.5 358.5q0 205 -50 361t-145 256.5t-229 151.5t-305 51t-305 -51t-228.5 -151.5t-144.5 -256.5t-50 -361q0 -203 50 -358.5t144.5 -256t228.5 -151.5t305 -51zM831 1459q135 0 239 -41.5t177 -124t111 -211t38 -298.5 q0 -335 -146 -503.5t-418.5 -168.5t-419 168.5t-146.5 503.5q0 337 146 506t419 169zM693 1912q38 0 77.5 -14.5t67.5 -31.5t63.5 -31t67.5 -14q35 0 58 15t49 51q19 25 47 25q23 0 39.5 -16.5t16.5 -39.5q0 -14 -7 -27q-26 -52 -77.5 -87t-125.5 -35q-39 0 -78.5 14 t-66.5 31t-62.5 31.5t-68.5 14.5q-35 0 -58 -15t-49 -50q-20 -26 -47 -26q-23 0 -39.5 16t-16.5 39q0 15 7 29q17 33 42.5 58.5t67.5 44t93 18.5z" />
<glyph unicode="&#xd6;" horiz-adv-x="1664" d="M831 -33q171 0 305 51t228.5 151.5t145 256t50.5 358.5q0 205 -50 361t-145 256.5t-229 151.5t-305 51t-305 -51t-228.5 -151.5t-144.5 -256.5t-50 -361q0 -203 50 -358.5t144.5 -256t228.5 -151.5t305 -51zM831 1459q135 0 239 -41.5t177 -124t111 -211t38 -298.5 q0 -335 -146 -503.5t-418.5 -168.5t-419 168.5t-146.5 503.5q0 337 146 506t419 169zM649 1731q-84 0 -84 85q0 89 84 89t84 -89q0 -85 -84 -85zM1015.5 1731q-84.5 0 -84.5 85q0 89 84.5 89t84.5 -89q0 -85 -84.5 -85z" />
<glyph unicode="&#xd7;" horiz-adv-x="825" d="M413 600l299 291q24 24 50 24t45 -19.5t19 -46.5q0 -25 -18 -43l-306 -298l306 -296q18 -18 18 -44q0 -18 -8.5 -33t-23.5 -23.5t-32 -8.5q-26 0 -50 24l-299 291l-299 -291q-24 -24 -49 -24q-27 0 -46 19t-19 46q0 26 18 44l307 296l-307 298q-18 18 -18 43 q0 27 19.5 46.5t45.5 19.5q25 0 49 -24z" />
<glyph unicode="&#xd8;" horiz-adv-x="1662" d="M831 -33q-279 0 -457 133l-111 -138q-19 -22 -46 -22t-45 18t-18 44q0 21 11 36l118 149q-180 210 -180 597q0 205 50 361t144.5 256.5t228.5 151.5t305 51q281 0 461 -138l107 136q19 22 47 22q26 0 44 -18t18 -44q0 -21 -11 -36l-115 -144q178 -212 178 -598 q0 -203 -50.5 -358.5t-145 -256t-228.5 -151.5t-305 -51zM831 1459q-135 0 -239 -41.5t-177 -124t-111 -211t-38 -298.5q0 -300 119 -469l811 1030q-138 114 -365 114zM831 112q273 0 419 168.5t146 503.5q0 297 -117 468l-809 -1027q132 -113 361 -113z" />
<glyph unicode="&#xd9;" horiz-adv-x="1455" d="M735.5 -33q-92.5 0 -169.5 15t-132.5 41.5t-99 64.5t-71 81.5t-45 96t-24.5 104t-7 109.5v1031q0 34 22.5 57t56 23t56.5 -23t23 -57v-1031q0 -37 4 -69t12 -65.5t22.5 -61.5t35.5 -54.5t51 -46.5t68 -35t88 -23t109 -8q93 0 163 20.5t112 53.5t68 81.5t35.5 98 t9.5 109.5v1031q0 34 23 57t56.5 23t56 -23t22.5 -57v-1031q0 -58 -7 -109.5t-24 -104t-44.5 -96t-70.5 -81.5t-98.5 -64.5t-132 -41.5t-169 -15zM876 1691q-37 -29 -70 4l-227 229q-42 42 7 88q30 23 52 21t37 -21l207 -252q31 -39 -6 -69z" />
<glyph unicode="&#xda;" horiz-adv-x="1455" d="M735.5 -33q-92.5 0 -169.5 15t-132.5 41.5t-99 64.5t-71 81.5t-45 96t-24.5 104t-7 109.5v1031q0 34 22.5 57t56 23t56.5 -23t23 -57v-1031q0 -37 4 -69t12 -65.5t22.5 -61.5t35.5 -54.5t51 -46.5t68 -35t88 -23t109 -8q93 0 163 20.5t112 53.5t68 81.5t35.5 98 t9.5 109.5v1031q0 34 23 57t56.5 23t56 -23t22.5 -57v-1031q0 -58 -7 -109.5t-24 -104t-44.5 -96t-70.5 -81.5t-98.5 -64.5t-132 -41.5t-169 -15zM626 1691q-38 30 -7 69l207 252q16 19 38 21t51 -21q49 -46 7 -88l-227 -229q-33 -33 -69 -4z" />
<glyph unicode="&#xdb;" horiz-adv-x="1455" d="M735.5 -33q-92.5 0 -169.5 15t-132.5 41.5t-99 64.5t-71 81.5t-45 96t-24.5 104t-7 109.5v1031q0 34 22.5 57t56 23t56.5 -23t23 -57v-1031q0 -37 4 -69t12 -65.5t22.5 -61.5t35.5 -54.5t51 -46.5t68 -35t88 -23t109 -8q93 0 163 20.5t112 53.5t68 81.5t35.5 98 t9.5 109.5v1031q0 34 23 57t56.5 23t56 -23t22.5 -57v-1031q0 -58 -7 -109.5t-24 -104t-44.5 -96t-70.5 -81.5t-98.5 -64.5t-132 -41.5t-169 -15zM925 1693l-190 158l-189 -158q-14 -14 -38 -14q-23 0 -39 16.5t-16 39.5q0 26 21 45l224 183q19 15 37 15t38 -15l223 -183 q22 -19 22 -45q0 -15 -7.5 -28t-20.5 -20.5t-28 -7.5q-24 0 -37 14z" />
<glyph unicode="&#xdc;" horiz-adv-x="1455" d="M735.5 -33q-92.5 0 -169.5 15t-132.5 41.5t-99 64.5t-71 81.5t-45 96t-24.5 104t-7 109.5v1031q0 34 22.5 57t56 23t56.5 -23t23 -57v-1031q0 -37 4 -69t12 -65.5t22.5 -61.5t35.5 -54.5t51 -46.5t68 -35t88 -23t109 -8q93 0 163 20.5t112 53.5t68 81.5t35.5 98 t9.5 109.5v1031q0 34 23 57t56.5 23t56 -23t22.5 -57v-1031q0 -58 -7 -109.5t-24 -104t-44.5 -96t-70.5 -81.5t-98.5 -64.5t-132 -41.5t-169 -15zM553 1731q-83 0 -83 85q0 89 83 89q84 0 84 -89q0 -85 -84 -85zM920 1731q-84 0 -84 85q0 89 84 89t84 -89q0 -85 -84 -85z " />
<glyph unicode="&#xdd;" d="M604 -18q-33 0 -55.5 22.5t-22.5 55.5v671l-470 737q-12 19 -12 42q0 34 23.5 57t56.5 23q45 0 68 -37l412 -664l414 664q23 37 67 37q34 0 57 -23t23 -57q0 -23 -11 -42l-470 -737v-671q0 -21 -10.5 -39.5t-29 -28.5t-40.5 -10zM504 1691q-38 30 -7 69l208 252 q15 19 37 21t51 -21q49 -46 7 -88l-225 -229q-34 -34 -71 -4z" />
<glyph unicode="&#xde;" horiz-adv-x="1269" d="M345 359v-299q0 -33 -23 -55.5t-56.5 -22.5t-56 22.5t-22.5 55.5v1450q0 33 23 56.5t56 23.5t56 -23.5t23 -56.5v-238h386q95 0 175 -28t141 -82.5t95 -142.5t34 -202q0 -112 -33.5 -200t-93.5 -144t-141 -85t-177 -29h-386zM345 1127v-623h363q144 0 226 81.5t82 231.5 q0 151 -82.5 230.5t-225.5 79.5h-363z" />
<glyph unicode="&#xdf;" horiz-adv-x="1276" d="M546 1599q98 0 180.5 -38.5t132.5 -109t50 -157.5q0 -49 -15 -92.5t-39.5 -75t-55.5 -61.5t-63.5 -52.5t-63.5 -47.5t-55 -47.5t-39 -50.5t-15 -59q0 -35 17.5 -64t46.5 -49t68.5 -38.5t83.5 -32.5t90.5 -31.5t91 -35.5t83.5 -44t68.5 -57.5t46.5 -76t17 -99.5 q0 -77 -30 -137t-84.5 -97t-125.5 -55.5t-156 -18.5q-133 0 -240 51t-159 117q-17 24 -17 45q0 28 20 47.5t48.5 19.5t50.5 -23q115 -115 297 -115q52 0 95 9.5t78 28.5t54.5 52t19.5 76q0 35 -17 63.5t-46.5 47.5t-69 37t-83.5 31.5t-91 31t-91 35.5t-83.5 45t-69 58.5 t-46.5 77.5t-17 101q0 45 14.5 84t39 66.5t55.5 55t63.5 49t64 47t55.5 51t39 60t15 73.5q0 69 -59.5 117t-153.5 48q-245 0 -245 -261v-1142q0 -32 -21.5 -53t-53 -21t-53 21t-21.5 53v1142q0 65 13 122.5t43.5 109t75.5 89t112 59t150 21.5z" />
<glyph unicode="&#xe0;" horiz-adv-x="1089" d="M542 953q-92 0 -153.5 -28.5t-117.5 -91.5q-28 -33 -61 -33q-28 0 -48 20t-20 49q0 21 12 40q34 53 85.5 93t129.5 65t173 25q100 0 179.5 -28.5t132.5 -80.5t80.5 -125t27.5 -163v-641q0 -30 -21.5 -51t-51.5 -21t-51 21t-21 51v84q-28 -53 -80.5 -92t-117.5 -58 t-136 -19q-123 0 -213.5 38.5t-140 114t-49.5 181.5q0 154 109.5 242t298.5 88h329v62q0 119 -73.5 188.5t-201.5 69.5zM497 105q62 0 119 19t102 55.5t72 94.5t27 130v98h-329q-118 0 -187.5 -50t-69.5 -149q0 -93 66.5 -145.5t199.5 -52.5zM693 1214q-36 -29 -69 5 l-227 229q-43 42 7 89q29 23 51 21t37 -21l208 -253q31 -40 -7 -70z" />
<glyph unicode="&#xe1;" horiz-adv-x="1089" d="M542 953q-92 0 -153.5 -28.5t-117.5 -91.5q-28 -33 -61 -33q-28 0 -48 20t-20 49q0 21 12 40q34 53 85.5 93t129.5 65t173 25q100 0 179.5 -28.5t132.5 -80.5t80.5 -125t27.5 -163v-641q0 -30 -21.5 -51t-51.5 -21t-51 21t-21 51v84q-28 -53 -80.5 -92t-117.5 -58 t-136 -19q-123 0 -213.5 38.5t-140 114t-49.5 181.5q0 154 109.5 242t298.5 88h329v62q0 119 -73.5 188.5t-201.5 69.5zM497 105q62 0 119 19t102 55.5t72 94.5t27 130v98h-329q-118 0 -187.5 -50t-69.5 -149q0 -93 66.5 -145.5t199.5 -52.5zM413 1214q-38 30 -7 70l208 253 q16 19 37 20.5t51 -20.5q50 -47 8 -89l-227 -229q-34 -34 -70 -5z" />
<glyph unicode="&#xe2;" horiz-adv-x="1089" d="M542 953q-92 0 -153.5 -28.5t-117.5 -91.5q-28 -33 -61 -33q-28 0 -48 20t-20 49q0 21 12 40q34 53 85.5 93t129.5 65t173 25q100 0 179.5 -28.5t132.5 -80.5t80.5 -125t27.5 -163v-641q0 -30 -21.5 -51t-51.5 -21t-51 21t-21 51v84q-28 -53 -80.5 -92t-117.5 -58 t-136 -19q-123 0 -213.5 38.5t-140 114t-49.5 181.5q0 154 109.5 242t298.5 88h329v62q0 119 -73.5 188.5t-201.5 69.5zM497 105q62 0 119 19t102 55.5t72 94.5t27 130v98h-329q-118 0 -187.5 -50t-69.5 -149q0 -93 66.5 -145.5t199.5 -52.5zM733 1232l-189 160l-189 -160 q-14 -13 -37 -13t-40 16.5t-17 39.5q0 26 22 44l223 185q18 13 37.5 13t37.5 -13l225 -185q20 -17 20 -44q0 -24 -16 -40t-39 -16q-24 0 -38 13z" />
<glyph unicode="&#xe3;" horiz-adv-x="1089" d="M542 953q-92 0 -153.5 -28.5t-117.5 -91.5q-28 -33 -61 -33q-28 0 -48 20t-20 49q0 21 12 40q34 53 85.5 93t129.5 65t173 25q100 0 179.5 -28.5t132.5 -80.5t80.5 -125t27.5 -163v-641q0 -30 -21.5 -51t-51.5 -21t-51 21t-21 51v84q-28 -53 -80.5 -92t-117.5 -58 t-136 -19q-123 0 -213.5 38.5t-140 114t-49.5 181.5q0 154 109.5 242t298.5 88h329v62q0 119 -73.5 188.5t-201.5 69.5zM497 105q62 0 119 19t102 55.5t72 94.5t27 130v98h-329q-118 0 -187.5 -50t-69.5 -149q0 -93 66.5 -145.5t199.5 -52.5zM413 1441q26 0 53 -7t47.5 -17 t43.5 -21.5t42.5 -22t43 -17t46.5 -6.5q35 0 57.5 14.5t49.5 50.5q19 26 46 26q23 0 39.5 -17t16.5 -40q0 -14 -7 -27q-26 -52 -77 -87t-125 -35q-39 0 -78.5 14t-66.5 31t-63 31.5t-68 14.5q-35 0 -58 -15t-49 -50q-20 -26 -47 -26q-12 0 -22 4.5t-17.5 12t-12 18 t-4.5 22.5q0 13 7 27q17 33 42 59t67.5 44.5t93.5 18.5z" />
<glyph unicode="&#xe4;" horiz-adv-x="1089" d="M542 953q-92 0 -153.5 -28.5t-117.5 -91.5q-28 -33 -61 -33q-28 0 -48 20t-20 49q0 21 12 40q34 53 85.5 93t129.5 65t173 25q100 0 179.5 -28.5t132.5 -80.5t80.5 -125t27.5 -163v-641q0 -30 -21.5 -51t-51.5 -21t-51 21t-21 51v84q-28 -53 -80.5 -92t-117.5 -58 t-136 -19q-123 0 -213.5 38.5t-140 114t-49.5 181.5q0 154 109.5 242t298.5 88h329v62q0 119 -73.5 188.5t-201.5 69.5zM497 105q62 0 119 19t102 55.5t72 94.5t27 130v98h-329q-118 0 -187.5 -50t-69.5 -149q0 -93 66.5 -145.5t199.5 -52.5zM378.5 1247q-84.5 0 -84.5 86 q0 89 84.5 89t84.5 -89q0 -86 -84.5 -86zM744 1247q-83 0 -83 86q0 89 83 89q85 0 85 -89q0 -86 -85 -86z" />
<glyph unicode="&#xe5;" horiz-adv-x="1089" d="M542 953q-92 0 -153.5 -28.5t-117.5 -91.5q-28 -33 -61 -33q-28 0 -48 20t-20 49q0 21 12 40q34 53 85.5 93t129.5 65t173 25q100 0 179.5 -28.5t132.5 -80.5t80.5 -125t27.5 -163v-641q0 -30 -21.5 -51t-51.5 -21t-51 21t-21 51v84q-28 -53 -80.5 -92t-117.5 -58 t-136 -19q-123 0 -213.5 38.5t-140 114t-49.5 181.5q0 154 109.5 242t298.5 88h329v62q0 119 -73.5 188.5t-201.5 69.5zM497 105q62 0 119 19t102 55.5t72 94.5t27 130v98h-329q-118 0 -187.5 -50t-69.5 -149q0 -93 66.5 -145.5t199.5 -52.5zM563 1172q-81 0 -136 28 t-81 78.5t-26 122.5q0 109 61 169t182.5 60t182 -60t60.5 -169t-60.5 -169t-182.5 -60zM563.5 1541q-78.5 0 -112 -34t-33.5 -106q0 -71 33.5 -105.5t111.5 -34.5t111.5 34.5t33.5 105.5q0 72 -33 106t-111.5 34z" />
<glyph unicode="&#xe6;" horiz-adv-x="1816" d="M542 953q-92 0 -150 -26.5t-121 -93.5q-28 -33 -61 -33q-28 0 -48 20t-20 49q0 21 12 40q34 53 85.5 93t129.5 65t173 25q131 0 226 -48.5t143 -137.5q123 186 381 186q77 0 142 -17t110 -44.5t80 -66t56 -78.5t34.5 -85.5t18 -83.5t4.5 -75v-23t-1 -23t-2.5 -23 t-4.5 -20.5t-7.5 -20t-11.5 -16t-16.5 -13t-22 -8t-27.5 -3.5h-682q0 -175 94.5 -280t257.5 -105q92 0 155.5 27t125.5 73q22 15 42 15q28 0 47.5 -20t19.5 -48.5t-25 -53.5q-17 -17 -44 -35.5t-72 -42t-110.5 -38.5t-138.5 -15q-155 0 -264.5 58.5t-153.5 173.5 q-116 -232 -413 -232q-123 0 -213.5 38.5t-140 114t-49.5 181.5q0 153 108.5 237t299.5 84h329v71q0 119 -73.5 188.5t-201.5 69.5zM497 105q62 0 119 19t102 55.5t72 94.5t27 130v88h-329q-120 0 -188.5 -45.5t-68.5 -143.5q0 -93 66.5 -145.5t199.5 -52.5zM1590 624 q0 44 -5.5 83t-18 77.5t-35.5 69t-55 54.5t-79 37t-105 13q-150 0 -234.5 -88t-95.5 -246h628z" />
<glyph unicode="&#xe7;" horiz-adv-x="1029" d="M804 -325q0 -198 -227 -198q-42 0 -83 12.5t-66 29.5q-20 14 -20 35q0 18 12.5 31.5t29.5 13.5q15 0 29 -7q48 -24 98 -24q66 0 94.5 22t28.5 85q0 58 -26 83t-77 25q-21 0 -52.5 -5t-42.5 -5q-18 0 -31 13t-12 38l6 153q-186 27 -284.5 165.5t-98.5 389.5q0 282 125 421 t356 139q73 0 137 -17t107.5 -44.5t70.5 -51.5t44 -48q16 -22 16 -44q0 -30 -19 -48.5t-48 -18.5q-32 0 -56 27q-19 22 -34 35.5t-46 34t-74.5 31t-97.5 10.5q-162 0 -245.5 -106t-83.5 -320q0 -427 329 -427q39 0 76 7t62 16t53.5 25t42.5 25.5t36 26.5q24 17 45 17 q28 0 47.5 -20t19.5 -48q0 -32 -30 -58q-27 -23 -51 -39t-70.5 -39t-110 -36t-137.5 -13l-9 -107q42 5 63 5q103 0 153.5 -47.5t50.5 -144.5z" />
<glyph unicode="&#xe8;" horiz-adv-x="1087" d="M82 532q0 269 126.5 414.5t354.5 145.5q78 0 142.5 -17t109.5 -45t80.5 -67t56 -80t34 -86.5t18.5 -84t5 -75.5q0 -19 -0.5 -29.5t-2 -29t-5 -29t-10 -24t-16.5 -20.5t-25 -12t-35 -5h-681q0 -175 94 -278t258 -103q91 0 154.5 27t125.5 73q23 15 43 15q28 0 47.5 -20 t19.5 -48.5t-25 -53.5q-18 -17 -44.5 -35.5t-72 -42t-110.5 -38.5t-138 -15q-118 0 -210 33.5t-158 101t-101 176t-35 252.5zM862 619q0 54 -8 100t-28.5 91t-53 77t-86 51.5t-123.5 19.5q-149 0 -234 -90t-95 -249h628zM708 1214q-37 -29 -71 5l-227 229q-42 42 8 89 q30 22 51.5 20.5t36.5 -20.5l209 -253q30 -40 -7 -70z" />
<glyph unicode="&#xe9;" horiz-adv-x="1087" d="M82 532q0 269 126.5 414.5t354.5 145.5q78 0 142.5 -17t109.5 -45t80.5 -67t56 -80t34 -86.5t18.5 -84t5 -75.5q0 -19 -0.5 -29.5t-2 -29t-5 -29t-10 -24t-16.5 -20.5t-25 -12t-35 -5h-681q0 -175 94 -278t258 -103q91 0 154.5 27t125.5 73q23 15 43 15q28 0 47.5 -20 t19.5 -48.5t-25 -53.5q-18 -17 -44.5 -35.5t-72 -42t-110.5 -38.5t-138 -15q-118 0 -210 33.5t-158 101t-101 176t-35 252.5zM862 619q0 54 -8 100t-28.5 91t-53 77t-86 51.5t-123.5 19.5q-149 0 -234 -90t-95 -249h628zM446 1214q-38 30 -7 70l207 253q16 19 37.5 21 t51.5 -21q50 -47 7 -89l-226 -229q-34 -34 -70 -5z" />
<glyph unicode="&#xea;" horiz-adv-x="1087" d="M82 532q0 269 126.5 414.5t354.5 145.5q78 0 142.5 -17t109.5 -45t80.5 -67t56 -80t34 -86.5t18.5 -84t5 -75.5q0 -19 -0.5 -29.5t-2 -29t-5 -29t-10 -24t-16.5 -20.5t-25 -12t-35 -5h-681q0 -175 94 -278t258 -103q91 0 154.5 27t125.5 73q23 15 43 15q28 0 47.5 -20 t19.5 -48.5t-25 -53.5q-18 -17 -44.5 -35.5t-72 -42t-110.5 -38.5t-138 -15q-118 0 -210 33.5t-158 101t-101 176t-35 252.5zM862 619q0 54 -8 100t-28.5 91t-53 77t-86 51.5t-123.5 19.5q-149 0 -234 -90t-95 -249h628zM762 1232l-190 160l-189 -160q-14 -13 -38 -13 q-15 0 -27.5 7.5t-20 20t-7.5 28.5q0 27 20 44l225 185q18 13 37.5 13t37.5 -13l223 -185q22 -18 22 -44q0 -23 -17 -39.5t-40 -16.5t-36 13z" />
<glyph unicode="&#xeb;" horiz-adv-x="1087" d="M82 532q0 269 126.5 414.5t354.5 145.5q78 0 142.5 -17t109.5 -45t80.5 -67t56 -80t34 -86.5t18.5 -84t5 -75.5q0 -19 -0.5 -29.5t-2 -29t-5 -29t-10 -24t-16.5 -20.5t-25 -12t-35 -5h-681q0 -175 94 -278t258 -103q91 0 154.5 27t125.5 73q23 15 43 15q28 0 47.5 -20 t19.5 -48.5t-25 -53.5q-18 -17 -44.5 -35.5t-72 -42t-110.5 -38.5t-138 -15q-118 0 -210 33.5t-158 101t-101 176t-35 252.5zM862 619q0 54 -8 100t-28.5 91t-53 77t-86 51.5t-123.5 19.5q-149 0 -234 -90t-95 -249h628zM387.5 1247q-84.5 0 -84.5 86q0 89 84.5 89t84.5 -89 q0 -86 -84.5 -86zM755 1247q-85 0 -85 86q0 89 85 89q83 0 83 -89q0 -86 -83 -86z" />
<glyph unicode="&#xec;" horiz-adv-x="450" d="M299 1004v-948q0 -32 -21.5 -53t-53 -21t-53.5 21t-22 53v948q0 32 22 53t53.5 21t53 -21t21.5 -53zM348 1214q-36 -29 -70 5l-227 229q-42 42 7 89q30 23 52 21t37 -21l208 -253q30 -40 -7 -70z" />
<glyph unicode="&#xed;" horiz-adv-x="450" d="M299 1004v-948q0 -32 -21.5 -53t-53 -21t-53.5 21t-22 53v948q0 32 22 53t53.5 21t53 -21t21.5 -53zM124 1214q-38 31 -8 70l209 253q15 19 36.5 20.5t51.5 -20.5q50 -47 8 -89l-227 -229q-34 -34 -70 -5z" />
<glyph unicode="&#xee;" horiz-adv-x="450" d="M299 1004v-948q0 -32 -21.5 -53t-53 -21t-53.5 21t-22 53v948q0 32 22 53t53.5 21t53 -21t21.5 -53zM413 1232l-188 160l-190 -160q-13 -13 -37 -13q-23 0 -39.5 16t-16.5 40q0 27 20 44l225 185q18 13 38 13q18 0 36 -13l225 -185q20 -17 20 -44q0 -24 -16.5 -40 t-39.5 -16q-24 0 -37 13z" />
<glyph unicode="&#xef;" horiz-adv-x="450" d="M299 1004v-948q0 -32 -21.5 -53t-53 -21t-53.5 21t-22 53v948q0 32 22 53t53.5 21t53 -21t21.5 -53zM42.5 1247q-84.5 0 -84.5 86q0 89 84.5 89t84.5 -89q0 -86 -84.5 -86zM408 1247q-83 0 -83 86q0 89 83 89q84 0 84 -89q0 -86 -84 -86z" />
<glyph unicode="&#xf0;" horiz-adv-x="1147" d="M572 1092q78 0 148.5 -19t121.5 -53q-20 77 -62 155.5t-91 129.5l-132 -89q-7 -5 -16.5 -7.5t-15.5 -3.5h-6q-30 0 -50.5 20t-20.5 50q0 38 31 58l114 75q-25 23 -59.5 47t-57 38t-68.5 41q-36 19 -36 63q0 27 19.5 46t47.5 19q19 0 38 -9q111 -56 235 -168l103 65 q17 12 40 12q30 0 50 -20t20 -50q0 -37 -31 -59l-86 -56q254 -323 254 -845q0 -281 -128.5 -422t-361.5 -141q-232 0 -361 141.5t-129 421.5q0 281 129 420.5t361 139.5zM572.5 105q338.5 0 338.5 427q0 216 -87 321t-251.5 105t-251.5 -105t-87 -321q0 -427 338.5 -427z " />
<glyph unicode="&#xf1;" horiz-adv-x="1169" d="M612 1092q75 0 137 -12.5t105.5 -34t77 -53.5t54 -66.5t33 -77.5t17.5 -83t5 -86v-623q0 -32 -21.5 -53t-52.5 -21q-21 0 -38.5 9.5t-27.5 26.5t-10 38v593q0 58 -7 103t-25.5 85.5t-49.5 66.5t-80.5 41t-116.5 15q-84 0 -145.5 -24.5t-97 -69.5t-52 -102.5t-16.5 -130.5 v-577q0 -32 -21.5 -53t-53 -21t-53 21t-21.5 53v948q0 32 21.5 53t53 21t53 -21t21.5 -53v-75q23 46 66 82t107.5 58.5t137.5 22.5zM457 1441q38 0 77.5 -14.5t67.5 -31.5t63.5 -31t67.5 -14q35 0 58 14.5t49 50.5q20 26 47 26q23 0 39.5 -17t16.5 -40q0 -14 -7 -27 q-17 -33 -42.5 -59t-67.5 -44.5t-93 -18.5q-39 0 -78.5 14t-66.5 31t-62.5 31.5t-68.5 14.5q-35 0 -58 -15t-49 -50q-20 -26 -47 -26q-23 0 -39.5 16.5t-16.5 40.5q0 13 7 27q8 16 18.5 30t24 28t30.5 25.5t36.5 20t43.5 13.5t50 5z" />
<glyph unicode="&#xf2;" horiz-adv-x="1143" d="M572 1092q234 0 362 -139.5t128 -420.5t-128.5 -422t-361.5 -141q-232 0 -361 141.5t-129 421.5q0 281 129 420.5t361 139.5zM572.5 105q338.5 0 338.5 427q0 216 -87 321t-251.5 105t-251.5 -105t-87 -321q0 -427 338.5 -427zM740 1214q-36 -29 -70 5l-227 229 q-42 42 7 89q30 23 52 21t37 -21l208 -253q30 -40 -7 -70z" />
<glyph unicode="&#xf3;" horiz-adv-x="1143" d="M572 1092q234 0 362 -139.5t128 -420.5t-128.5 -422t-361.5 -141q-232 0 -361 141.5t-129 421.5q0 281 129 420.5t361 139.5zM572.5 105q338.5 0 338.5 427q0 216 -87 321t-251.5 105t-251.5 -105t-87 -321q0 -427 338.5 -427zM467 1214q-38 31 -8 70l209 253 q15 19 37 21t52 -21q49 -47 7 -89l-227 -229q-33 -34 -70 -5z" />
<glyph unicode="&#xf4;" horiz-adv-x="1143" d="M572 1092q234 0 362 -139.5t128 -420.5t-128.5 -422t-361.5 -141q-232 0 -361 141.5t-129 421.5q0 281 129 420.5t361 139.5zM572.5 105q338.5 0 338.5 427q0 216 -87 321t-251.5 105t-251.5 -105t-87 -321q0 -427 338.5 -427zM771 1232l-190 160l-189 -160 q-14 -13 -37 -13q-16 0 -28.5 7.5t-20 20t-7.5 28.5q0 26 21 44l224 185q18 13 37.5 13t37.5 -13l223 -185q22 -18 22 -44q0 -16 -7.5 -28.5t-20.5 -20t-28 -7.5q-24 0 -37 13z" />
<glyph unicode="&#xf5;" horiz-adv-x="1143" d="M572 1092q234 0 362 -139.5t128 -420.5t-128.5 -422t-361.5 -141q-232 0 -361 141.5t-129 421.5q0 281 129 420.5t361 139.5zM572.5 105q338.5 0 338.5 427q0 216 -87 321t-251.5 105t-251.5 -105t-87 -321q0 -427 338.5 -427zM439 1441q38 0 77.5 -14.5t67 -31.5 t63.5 -31t68 -14q35 0 58 14.5t49 50.5q20 26 47 26q23 0 39.5 -17t16.5 -40q0 -14 -7 -27q-27 -52 -78 -87t-125 -35q-39 0 -78.5 14t-66.5 31t-63 31.5t-68 14.5q-35 0 -58 -15t-49 -50q-20 -26 -47 -26q-15 0 -28 7.5t-20.5 20.5t-7.5 29q0 13 7 27q26 52 77.5 87 t125.5 35z" />
<glyph unicode="&#xf6;" horiz-adv-x="1143" d="M572 1092q234 0 362 -139.5t128 -420.5t-128.5 -422t-361.5 -141q-232 0 -361 141.5t-129 421.5q0 281 129 420.5t361 139.5zM572.5 105q338.5 0 338.5 427q0 216 -87 321t-251.5 105t-251.5 -105t-87 -321q0 -427 338.5 -427zM399 1247q-84 0 -84 86q0 89 84 89t84 -89 q0 -86 -84 -86zM766 1247q-84 0 -84 86q0 89 84 89q83 0 83 -89q0 -86 -83 -86z" />
<glyph unicode="&#xf7;" horiz-adv-x="1059" d="M453 227q0 32 22 54t55 22t56.5 -22t23.5 -54q0 -33 -23.5 -56.5t-56.5 -23.5t-55 23t-22 57zM453 793q0 34 22 57t55 23t56.5 -23t23.5 -57q0 -33 -23 -54.5t-57 -21.5q-22 0 -39.5 10t-27.5 27.5t-10 38.5zM1060 511.5q0 -26.5 -18.5 -45t-45.5 -18.5h-933 q-27 0 -45 18.5t-18 45t18 45t45 18.5h933q27 0 45.5 -18.5t18.5 -45z" />
<glyph unicode="&#xf8;" horiz-adv-x="1143" d="M572 1092q210 0 332 -112l86 94q18 18 44 18q25 0 43.5 -18t18.5 -42q0 -25 -20 -45l-96 -100q82 -136 82 -355q0 -281 -128.5 -422t-361.5 -141q-214 0 -338 118l-85 -89q-16 -16 -42 -16q-25 0 -42.5 17.5t-17.5 42.5q0 26 18 45l91 98q-74 134 -74 347 q0 281 129 420.5t361 139.5zM572 105q339 0 339 427q0 144 -40 236l-537 -574q82 -89 238 -89zM234 532q0 -135 35 -229l535 570q-88 85 -232 85q-164 0 -251 -105t-87 -321z" />
<glyph unicode="&#xf9;" horiz-adv-x="1125" d="M203 1078q20 0 37 -9.5t27.5 -26.5t10.5 -38v-610q0 -49 7 -88t26 -76.5t50 -62.5t82 -40t120 -15t120 15t82 40t50 62.5t25.5 76.5t6.5 88v610q0 32 23 53t55 21q19 0 35.5 -9.5t26 -26.5t9.5 -38v-610q0 -44 -3.5 -82t-12.5 -77.5t-25.5 -72.5t-39.5 -63.5t-56 -53.5 t-75.5 -40.5t-98 -26.5t-122.5 -9q-75 0 -137 12t-106.5 33t-78 52.5t-55 67t-34.5 79.5t-18 87.5t-5 93.5v610q0 32 21 53t53 21zM682 1214q-36 -29 -70 5l-227 229q-42 42 7 89q30 23 52 21t37 -21l208 -253q30 -40 -7 -70z" />
<glyph unicode="&#xfa;" horiz-adv-x="1125" d="M203 1078q20 0 37 -9.5t27.5 -26.5t10.5 -38v-610q0 -49 7 -88t26 -76.5t50 -62.5t82 -40t120 -15t120 15t82 40t50 62.5t25.5 76.5t6.5 88v610q0 32 23 53t55 21q19 0 35.5 -9.5t26 -26.5t9.5 -38v-610q0 -44 -3.5 -82t-12.5 -77.5t-25.5 -72.5t-39.5 -63.5t-56 -53.5 t-75.5 -40.5t-98 -26.5t-122.5 -9q-75 0 -137 12t-106.5 33t-78 52.5t-55 67t-34.5 79.5t-18 87.5t-5 93.5v610q0 32 21 53t53 21zM472 1214q-38 30 -7 70l208 253q15 19 37 21t52 -21q49 -47 6 -89l-226 -229q-34 -34 -70 -5z" />
<glyph unicode="&#xfb;" horiz-adv-x="1125" d="M203 1078q20 0 37 -9.5t27.5 -26.5t10.5 -38v-610q0 -49 7 -88t26 -76.5t50 -62.5t82 -40t120 -15t120 15t82 40t50 62.5t25.5 76.5t6.5 88v610q0 32 23 53t55 21q19 0 35.5 -9.5t26 -26.5t9.5 -38v-610q0 -44 -3.5 -82t-12.5 -77.5t-25.5 -72.5t-39.5 -63.5t-56 -53.5 t-75.5 -40.5t-98 -26.5t-122.5 -9q-75 0 -137 12t-106.5 33t-78 52.5t-55 67t-34.5 79.5t-18 87.5t-5 93.5v610q0 32 21 53t53 21zM762 1232l-190 160l-189 -160q-14 -13 -38 -13q-15 0 -27.5 7.5t-20 20t-7.5 28.5q0 27 20 44l225 185q18 13 37.5 13t37.5 -13l223 -185 q22 -18 22 -44q0 -23 -17 -39.5t-40 -16.5t-36 13z" />
<glyph unicode="&#xfc;" horiz-adv-x="1125" d="M203 1078q20 0 37 -9.5t27.5 -26.5t10.5 -38v-610q0 -49 7 -88t26 -76.5t50 -62.5t82 -40t120 -15t120 15t82 40t50 62.5t25.5 76.5t6.5 88v610q0 32 23 53t55 21q19 0 35.5 -9.5t26 -26.5t9.5 -38v-610q0 -44 -3.5 -82t-12.5 -77.5t-25.5 -72.5t-39.5 -63.5t-56 -53.5 t-75.5 -40.5t-98 -26.5t-122.5 -9q-75 0 -137 12t-106.5 33t-78 52.5t-55 67t-34.5 79.5t-18 87.5t-5 93.5v610q0 32 21 53t53 21zM394.5 1247q-84.5 0 -84.5 86q0 89 84.5 89t84.5 -89q0 -86 -84.5 -86zM762 1247q-85 0 -85 86q0 89 85 89q83 0 83 -89q0 -86 -83 -86z" />
<glyph unicode="&#xfd;" horiz-adv-x="1022" d="M82 -329q59 0 105.5 18t76.5 41.5t62.5 80t50.5 97t54 128.5q2 6 3 8l-390 927q-6 21 -6 33q0 32 21 53t53 21q51 0 70 -49l330 -804l328 804q20 49 71 49q31 0 52.5 -21t21.5 -53q0 -12 -7 -33l-459 -1095q-50 -119 -107 -192.5t-138.5 -113.5t-191.5 -40 q-30 0 -50.5 20.5t-20.5 50.5t20.5 50t50.5 20zM416 1214q-38 31 -8 70l209 253q15 19 36.5 20.5t51.5 -20.5q50 -47 7 -89l-226 -229q-34 -34 -70 -5z" />
<glyph unicode="&#xfe;" horiz-adv-x="1187" d="M301 1588v-659q14 25 35 48t51 44t65 36.5t78.5 25t88.5 9.5q233 0 360.5 -139.5t127.5 -420.5t-127.5 -422t-360.5 -141q-56 0 -108 14.5t-91.5 38.5t-69.5 52t-49 59v-527q0 -30 -22 -53t-52 -23t-52.5 23t-22.5 53v1982q0 21 10 38t27 26.5t38 9.5q31 0 52.5 -21 t21.5 -53zM296 532q0 -110 24.5 -193t69 -133.5t102 -75.5t127.5 -25q164 0 250 106t86 321t-88 320.5t-253 105.5q-67 0 -123 -24.5t-100.5 -74t-69.5 -133t-25 -194.5z" />
<glyph unicode="&#xff;" horiz-adv-x="1022" d="M82 -329q59 0 105.5 18t76.5 41.5t62.5 80t50.5 97t54 128.5q2 6 3 8l-390 927q-6 21 -6 33q0 32 21 53t53 21q51 0 70 -49l330 -804l328 804q20 49 71 49q31 0 52.5 -21t21.5 -53q0 -12 -7 -33l-459 -1095q-50 -119 -107 -192.5t-138.5 -113.5t-191.5 -40 q-30 0 -50.5 20.5t-20.5 50.5t20.5 50t50.5 20zM327 1247q-84 0 -84 86q0 89 84 89q83 0 83 -89q0 -86 -83 -86zM693 1247q-83 0 -83 86q0 89 83 89q84 0 84 -89q0 -86 -84 -86z" />
<glyph unicode="&#x100;" horiz-adv-x="1430" d="M992 610l-277 714l-276 -714h553zM1041 465h-651l-170 -427q-9 -25 -29 -40.5t-49 -15.5q-33 0 -56 23.5t-23 54.5q0 22 7 36l570 1441q21 53 75 53q28 0 47.5 -15t28.5 -38l570 -1441q7 -17 7 -36q0 -15 -6 -29.5t-16.5 -25t-26 -17t-33.5 -6.5q-57 0 -76 53zM990 1769 q0 -16 -8 -29.5t-21 -21t-30 -7.5h-434q-25 0 -41.5 16.5t-16.5 41.5t16.5 42.5t41.5 17.5h434q25 0 42 -17.5t17 -42.5z" />
<glyph unicode="&#x101;" horiz-adv-x="1089" d="M542 953q-92 0 -153.5 -28.5t-117.5 -91.5q-28 -33 -61 -33q-28 0 -48 20t-20 49q0 21 12 40q34 53 85.5 93t129.5 65t173 25q100 0 179.5 -28.5t132.5 -80.5t80.5 -125t27.5 -163v-641q0 -30 -21.5 -51t-51.5 -21t-51 21t-21 51v84q-28 -53 -80.5 -92t-117.5 -58 t-136 -19q-123 0 -213.5 38.5t-140 114t-49.5 181.5q0 154 109.5 242t298.5 88h329v62q0 119 -73.5 188.5t-201.5 69.5zM497 105q62 0 119 19t102 55.5t72 94.5t27 130v98h-329q-118 0 -187.5 -50t-69.5 -149q0 -93 66.5 -145.5t199.5 -52.5zM831 1312q0 -25 -16.5 -41.5 t-41.5 -16.5h-434q-25 0 -42 16.5t-17 41.5t17 41.5t42 16.5h434q25 0 41.5 -16.5t16.5 -41.5z" />
<glyph unicode="&#x102;" horiz-adv-x="1430" d="M992 610l-277 714l-276 -714h553zM1041 465h-651l-170 -427q-9 -25 -29 -40.5t-49 -15.5q-33 0 -56 23.5t-23 54.5q0 22 7 36l570 1441q21 53 75 53q28 0 47.5 -15t28.5 -38l570 -1441q7 -17 7 -36q0 -15 -6 -29.5t-16.5 -25t-26 -17t-33.5 -6.5q-57 0 -76 53zM715 1704 q-54 0 -100.5 14t-84 41.5t-59 74t-21.5 106.5q0 23 16.5 39.5t39.5 16.5q15 0 28.5 -7.5t21 -20.5t7.5 -28q0 -129 151.5 -129t151.5 129q0 23 16.5 39.5t39.5 16.5t39.5 -16.5t16.5 -39.5q0 -61 -21 -107t-58 -73.5t-83.5 -41.5t-100.5 -14z" />
<glyph unicode="&#x103;" horiz-adv-x="1089" d="M542 953q-92 0 -153.5 -28.5t-117.5 -91.5q-28 -33 -61 -33q-28 0 -48 20t-20 49q0 21 12 40q34 53 85.5 93t129.5 65t173 25q100 0 179.5 -28.5t132.5 -80.5t80.5 -125t27.5 -163v-641q0 -30 -21.5 -51t-51.5 -21t-51 21t-21 51v84q-28 -53 -80.5 -92t-117.5 -58 t-136 -19q-123 0 -213.5 38.5t-140 114t-49.5 181.5q0 154 109.5 242t298.5 88h329v62q0 119 -73.5 188.5t-201.5 69.5zM497 105q62 0 119 19t102 55.5t72 94.5t27 130v98h-329q-118 0 -187.5 -50t-69.5 -149q0 -93 66.5 -145.5t199.5 -52.5zM548 1235q-43 0 -81 8t-72 26.5 t-58 45.5t-38 67t-14 89q0 23 16.5 39t39.5 16t39.5 -16t16.5 -39q0 -128 151.5 -128t151.5 128q0 23 17 39t40 16t39.5 -16t16.5 -39q0 -61 -21.5 -107.5t-58.5 -74t-83.5 -41t-101.5 -13.5z" />
<glyph unicode="&#x104;" horiz-adv-x="1430" d="M992 610l-277 714l-276 -714h553zM1041 465h-651l-170 -427q-9 -25 -29 -40.5t-49 -15.5q-33 0 -56 23.5t-23 54.5q0 22 7 36l570 1441q21 53 75 53q28 0 47.5 -15t28.5 -38l570 -1441q7 -17 7 -36q0 -15 -6 -29.5t-16.5 -25t-26 -17t-33.5 -6.5q-57 0 -76 53zM1450 -292 q21 0 36 -15t15 -36q0 -29 -26 -45q-66 -40 -167 -40q-56 0 -100 13t-75.5 38t-48.5 62.5t-17 85.5q0 145 161 229h115q-64 -26 -112 -78.5t-48 -117.5q0 -61 35 -92.5t94 -31.5q57 0 110 21q17 7 28 7z" />
<glyph unicode="&#x105;" horiz-adv-x="1089" d="M1053 -292q22 0 37 -15t15 -36q0 -29 -27 -45q-66 -40 -167 -40q-112 0 -176.5 52t-64.5 147q0 72 44.5 132t121.5 99q-19 22 -19 52v84q-28 -53 -80.5 -92t-117.5 -58t-136 -19q-123 0 -213.5 38.5t-140 114t-49.5 181.5q0 154 109.5 242t298.5 88h329v62 q0 119 -73.5 188.5t-201.5 69.5q-92 0 -153.5 -28.5t-117.5 -91.5q-28 -33 -61 -33q-28 0 -48 20t-20 49q0 21 12 40q34 53 85.5 93t129.5 65t173 25q100 0 179.5 -28.5t132.5 -80.5t80.5 -125t27.5 -163v-641q0 -43 -44 -68q-60 -35 -95.5 -78t-35.5 -104q0 -31 9.5 -55 t26.5 -39t40.5 -22.5t51.5 -7.5q58 0 110 21q17 7 28 7zM497 105q62 0 119 19t102 55.5t72 94.5t27 130v98h-329q-118 0 -187.5 -50t-69.5 -149q0 -93 66.5 -145.5t199.5 -52.5z" />
<glyph unicode="&#x106;" horiz-adv-x="1472" d="M831 -33q-172 0 -305 47.5t-228.5 145t-145 255t-49.5 369.5q0 205 50 361t144.5 256.5t228.5 151.5t305 51q165 0 304 -66t222 -181q16 -23 16 -49q0 -32 -21.5 -54t-53.5 -22q-36 0 -61 31q-63 86 -171 141t-235 55q-135 0 -239.5 -41.5t-177.5 -124t-110.5 -211 t-37.5 -298.5q0 -179 37 -309t111 -209.5t177 -116.5t240 -37q122 0 231 48.5t175 142.5q21 31 61 31q32 0 53.5 -21.5t21.5 -53.5q0 -24 -14 -45q-77 -111 -222 -179t-306 -68zM698 1691q-38 30 -7 69l207 252q16 19 37.5 21t51.5 -21q49 -46 7 -88l-226 -229 q-34 -34 -70 -4z" />
<glyph unicode="&#x107;" horiz-adv-x="1029" d="M82 532q0 282 125 421t356 139q73 0 137 -17t107.5 -44.5t70.5 -51.5t44 -48q16 -22 16 -44q0 -30 -19 -48.5t-48 -18.5q-32 0 -56 27q-19 22 -34 35.5t-46 34t-74.5 31t-97.5 10.5q-162 0 -245.5 -106t-83.5 -320q0 -427 329 -427q39 0 76 7t62 16t53.5 25t42.5 25.5 t36 26.5q24 17 45 17q28 0 47.5 -20t19.5 -48q0 -32 -30 -58q-153 -127 -352 -127q-231 0 -356 141t-125 422zM432 1214q-37 30 -7 70l208 253q15 19 37 21t52 -21q49 -47 6 -89l-226 -229q-34 -34 -70 -5z" />
<glyph unicode="&#x108;" horiz-adv-x="1472" d="M831 -33q-172 0 -305 47.5t-228.5 145t-145 255t-49.5 369.5q0 205 50 361t144.5 256.5t228.5 151.5t305 51q165 0 304 -66t222 -181q16 -23 16 -49q0 -32 -21.5 -54t-53.5 -22q-36 0 -61 31q-63 86 -171 141t-235 55q-135 0 -239.5 -41.5t-177.5 -124t-110.5 -211 t-37.5 -298.5q0 -179 37 -309t111 -209.5t177 -116.5t240 -37q122 0 231 48.5t175 142.5q21 31 61 31q32 0 53.5 -21.5t21.5 -53.5q0 -24 -14 -45q-77 -111 -222 -179t-306 -68zM1023 1693l-190 158l-189 -158q-14 -14 -38 -14q-23 0 -39 16.5t-16 39.5q0 26 21 45l224 183 q19 15 37 15t38 -15l225 -183q20 -18 20 -45q0 -23 -16.5 -39.5t-39.5 -16.5q-24 0 -37 14z" />
<glyph unicode="&#x109;" horiz-adv-x="1029" d="M82 532q0 282 125 421t356 139q73 0 137 -17t107.5 -44.5t70.5 -51.5t44 -48q16 -22 16 -44q0 -30 -19 -48.5t-48 -18.5q-32 0 -56 27q-19 22 -34 35.5t-46 34t-74.5 31t-97.5 10.5q-162 0 -245.5 -106t-83.5 -320q0 -427 329 -427q39 0 76 7t62 16t53.5 25t42.5 25.5 t36 26.5q24 17 45 17q28 0 47.5 -20t19.5 -48q0 -32 -30 -58q-153 -127 -352 -127q-231 0 -356 141t-125 422zM749 1232l-188 160l-189 -160q-14 -13 -38 -13q-23 0 -39.5 16t-16.5 40q0 27 21 44l224 185q19 13 38 13q18 0 36 -13l225 -185q20 -17 20 -44q0 -24 -16 -40 t-39 -16q-24 0 -38 13z" />
<glyph unicode="&#x10a;" horiz-adv-x="1472" d="M831 -33q-172 0 -305 47.5t-228.5 145t-145 255t-49.5 369.5q0 205 50 361t144.5 256.5t228.5 151.5t305 51q165 0 304 -66t222 -181q16 -23 16 -49q0 -32 -21.5 -54t-53.5 -22q-36 0 -61 31q-63 86 -171 141t-235 55q-135 0 -239.5 -41.5t-177.5 -124t-110.5 -211 t-37.5 -298.5q0 -179 37 -309t111 -209.5t177 -116.5t240 -37q122 0 231 48.5t175 142.5q21 31 61 31q32 0 53.5 -21.5t21.5 -53.5q0 -24 -14 -45q-77 -111 -222 -179t-306 -68zM824 1718q-89 0 -89 91q0 94 89 94t89 -94q0 -91 -89 -91z" />
<glyph unicode="&#x10b;" horiz-adv-x="1029" d="M82 532q0 282 125 421t356 139q73 0 137 -17t107.5 -44.5t70.5 -51.5t44 -48q16 -22 16 -44q0 -30 -19 -48.5t-48 -18.5q-32 0 -56 27q-19 22 -34 35.5t-46 34t-74.5 31t-97.5 10.5q-162 0 -245.5 -106t-83.5 -320q0 -427 329 -427q39 0 76 7t62 16t53.5 25t42.5 25.5 t36 26.5q24 17 45 17q28 0 47.5 -20t19.5 -48q0 -32 -30 -58q-153 -127 -352 -127q-231 0 -356 141t-125 422zM570 1270q-89 0 -89 91q0 94 89 94t89 -94q0 -91 -89 -91z" />
<glyph unicode="&#x10c;" horiz-adv-x="1472" d="M831 -33q-172 0 -305 47.5t-228.5 145t-145 255t-49.5 369.5q0 205 50 361t144.5 256.5t228.5 151.5t305 51q165 0 304 -66t222 -181q16 -23 16 -49q0 -32 -21.5 -54t-53.5 -22q-36 0 -61 31q-63 86 -171 141t-235 55q-135 0 -239.5 -41.5t-177.5 -124t-110.5 -211 t-37.5 -298.5q0 -179 37 -309t111 -209.5t177 -116.5t240 -37q122 0 231 48.5t175 142.5q21 31 61 31q32 0 53.5 -21.5t21.5 -53.5q0 -24 -14 -45q-77 -111 -222 -179t-306 -68zM822 1805l189 158q15 15 38 15t39.5 -16.5t16.5 -39.5q0 -26 -22 -44l-223 -185 q-19 -14 -38 -14t-38 14l-223 185q-22 18 -22 44q0 23 16.5 39.5t39.5 16.5t38 -15z" />
<glyph unicode="&#x10d;" horiz-adv-x="1029" d="M82 532q0 282 125 421t356 139q73 0 137 -17t107.5 -44.5t70.5 -51.5t44 -48q16 -22 16 -44q0 -30 -19 -48.5t-48 -18.5q-32 0 -56 27q-19 22 -34 35.5t-46 34t-74.5 31t-97.5 10.5q-162 0 -245.5 -106t-83.5 -320q0 -427 329 -427q39 0 76 7t62 16t53.5 25t42.5 25.5 t36 26.5q24 17 45 17q28 0 47.5 -20t19.5 -48q0 -32 -30 -58q-153 -127 -352 -127q-231 0 -356 141t-125 422zM579 1292l189 158q14 14 38 14q23 0 39.5 -16.5t16.5 -39.5q0 -27 -22 -45l-223 -184q-19 -14 -38 -14t-37 14l-224 184q-22 18 -22 45q0 23 16.5 39.5t39.5 16.5 q24 0 38 -14z" />
<glyph unicode="&#x10e;" horiz-adv-x="1419" d="M345 1426v-1281h250q108 0 192.5 19.5t155 65.5t116.5 119t71.5 182.5t25.5 252.5q0 119 -17 214.5t-51 166t-81.5 121t-111.5 81.5t-137.5 45t-162.5 14h-250zM266 1571h329q137 0 246.5 -26.5t199.5 -85t150.5 -149t93 -223t32.5 -303.5q0 -142 -22.5 -258t-66 -202 t-105 -148t-143.5 -101t-176.5 -57t-208.5 -18h-329q-34 0 -56.5 23t-22.5 57v1412q0 34 22.5 56.5t56.5 22.5zM649 1805l189 158q15 15 38 15t39 -16.5t16 -39.5q0 -27 -20 -44l-225 -185q-18 -14 -37 -14t-37 14l-224 185q-21 17 -21 44q0 23 16.5 39.5t39.5 16.5 q22 0 36 -15z" />
<glyph unicode="&#x10f;" horiz-adv-x="1250" d="M869 430v321q-1 3 -3.5 7.5t-10.5 18.5t-17.5 28t-25 32.5t-32.5 34.5t-41.5 32t-50 27.5t-59 19t-68.5 7.5q-161 0 -245.5 -106.5t-84.5 -319.5q0 -427 330 -427q141 0 224.5 82t83.5 243zM551 1092q104 0 188.5 -44.5t129.5 -107.5v648q0 32 21 53t53 21t53.5 -21 t21.5 -53v-1158q0 -113 -34 -201.5t-95 -145t-144.5 -85.5t-183.5 -29q-114 0 -202 34.5t-150 103.5t-94.5 176t-32.5 249q0 283 119.5 421.5t349.5 138.5zM1321 1510q0 -118 -44.5 -227t-122.5 -191q-14 -14 -31 -14q-14 0 -24.5 10.5t-10.5 25.5q0 8 8 20q45 64 65 110 t20 103q0 30 -13 56t-28.5 42.5t-28.5 43.5t-13 59q0 57 28.5 84.5t80.5 27.5q114 0 114 -150z" />
<glyph unicode="&#x110;" horiz-adv-x="1421" d="M266 1571h329q138 0 248 -26.5t200 -85t150.5 -149t93 -223t32.5 -303.5q0 -142 -22.5 -258t-66 -202t-105 -148t-143.5 -101t-177.5 -57t-209.5 -18h-329q-34 0 -56.5 23t-22.5 57v660h-73q-20 0 -36.5 10t-26 26.5t-9.5 36.5q0 30 21 51t51 21h73v607q0 34 22.5 56.5 t56.5 22.5zM871 812.5q0 -29.5 -22.5 -51t-52.5 -21.5h-451v-591h250q108 0 193 19.5t156 65t118 117.5t73 181t26 252q0 142 -26 251t-73 181.5t-118 119t-156 66.5t-193 20h-250v-537h451q30 0 52.5 -21.5t22.5 -51z" />
<glyph unicode="&#x111;" horiz-adv-x="1169" d="M1139 1303q0 -27 -18 -45.5t-45 -18.5h-58v-809q0 -113 -34 -201.5t-95 -145t-144.5 -85.5t-183.5 -29q-114 0 -202 34.5t-150 103.5t-94.5 176t-32.5 249q0 283 119.5 421.5t349.5 138.5q104 0 188.5 -44.5t129.5 -107.5v299h-223q-26 0 -44 18.5t-18 45.5t18 45t44 18 h223v222q0 32 21 53t53 21t53.5 -21t21.5 -53v-222h58q18 0 32 -8.5t22.5 -23t8.5 -31.5zM869 430v321q-1 3 -3.5 7.5t-10.5 18.5t-17.5 28t-25 32.5t-32.5 34.5t-41.5 32t-50 27.5t-59 19t-68.5 7.5q-161 0 -245.5 -106.5t-84.5 -319.5q0 -427 330 -427q141 0 224.5 82 t83.5 243z" />
<glyph unicode="&#x112;" d="M1041 0h-775q-34 0 -56.5 23t-22.5 57v1412q0 34 22.5 56.5t56.5 22.5h750q19 0 35.5 -9.5t26.5 -26t10 -36.5q0 -30 -21 -51.5t-51 -21.5h-671v-562h515q29 0 50 -21.5t21 -51.5t-21 -51t-50 -21h-515v-574h696q30 0 51.5 -21.5t21.5 -51.5t-21.5 -51t-51.5 -21z M929 1769q0 -25 -16.5 -41.5t-41.5 -16.5h-434q-17 0 -30 7.5t-21 21t-8 29.5q0 12 4.5 23t12.5 19t18.5 13t23.5 5h434q25 0 41.5 -17.5t16.5 -42.5z" />
<glyph unicode="&#x113;" horiz-adv-x="1087" d="M82 532q0 269 126.5 414.5t354.5 145.5q78 0 142.5 -17t109.5 -45t80.5 -67t56 -80t34 -86.5t18.5 -84t5 -75.5q0 -19 -0.5 -29.5t-2 -29t-5 -29t-10 -24t-16.5 -20.5t-25 -12t-35 -5h-681q0 -175 94 -278t258 -103q91 0 154.5 27t125.5 73q23 15 43 15q28 0 47.5 -20 t19.5 -48.5t-25 -53.5q-18 -17 -44.5 -35.5t-72 -42t-110.5 -38.5t-138 -15q-118 0 -210 33.5t-158 101t-101 176t-35 252.5zM862 619q0 54 -8 100t-28.5 91t-53 77t-86 51.5t-123.5 19.5q-149 0 -234 -90t-95 -249h628zM840 1312q0 -25 -16.5 -41.5t-41.5 -16.5h-434 q-25 0 -41.5 16.5t-16.5 41.5t16.5 41.5t41.5 16.5h434q25 0 41.5 -16.5t16.5 -41.5z" />
<glyph unicode="&#x114;" d="M1041 0h-775q-34 0 -56.5 23t-22.5 57v1412q0 34 22.5 56.5t56.5 22.5h750q19 0 35.5 -9.5t26.5 -26t10 -36.5q0 -30 -21 -51.5t-51 -21.5h-671v-562h515q29 0 50 -21.5t21 -51.5t-21 -51t-50 -21h-515v-574h696q30 0 51.5 -21.5t21.5 -51.5t-21.5 -51t-51.5 -21z M651 1704q-54 0 -100.5 14t-83.5 41.5t-58 73.5t-21 107q0 23 16 39.5t39 16.5q16 0 28.5 -7.5t20 -20.5t7.5 -28q0 -129 152 -129q153 0 153 129q0 23 16 39.5t39.5 16.5t39.5 -16.5t16 -39.5q0 -60 -21 -106.5t-58.5 -74t-84 -41.5t-100.5 -14z" />
<glyph unicode="&#x115;" horiz-adv-x="1087" d="M82 532q0 269 126.5 414.5t354.5 145.5q78 0 142.5 -17t109.5 -45t80.5 -67t56 -80t34 -86.5t18.5 -84t5 -75.5q0 -19 -0.5 -29.5t-2 -29t-5 -29t-10 -24t-16.5 -20.5t-25 -12t-35 -5h-681q0 -175 94 -278t258 -103q91 0 154.5 27t125.5 73q23 15 43 15q28 0 47.5 -20 t19.5 -48.5t-25 -53.5q-18 -17 -44.5 -35.5t-72 -42t-110.5 -38.5t-138 -15q-118 0 -210 33.5t-158 101t-101 176t-35 252.5zM862 619q0 54 -8 100t-28.5 91t-53 77t-86 51.5t-123.5 19.5q-149 0 -234 -90t-95 -249h628zM565.5 1235q-54.5 0 -101 13.5t-83.5 41t-58.5 74 t-21.5 107.5q0 23 16.5 39t39.5 16t39.5 -16t16.5 -39q0 -128 152 -128t152 128q0 23 16.5 39t39.5 16t39.5 -16t16.5 -39q0 -61 -21.5 -107.5t-58.5 -74t-83 -41t-100.5 -13.5z" />
<glyph unicode="&#x116;" d="M1041 0h-775q-34 0 -56.5 23t-22.5 57v1412q0 34 22.5 56.5t56.5 22.5h750q19 0 35.5 -9.5t26.5 -26t10 -36.5q0 -30 -21 -51.5t-51 -21.5h-671v-562h515q29 0 50 -21.5t21 -51.5t-21 -51t-50 -21h-515v-574h696q30 0 51.5 -21.5t21.5 -51.5t-21.5 -51t-51.5 -21z M659 1718q-89 0 -89 91q0 94 89 94q88 0 88 -94q0 -91 -88 -91z" />
<glyph unicode="&#x117;" horiz-adv-x="1087" d="M82 532q0 269 126.5 414.5t354.5 145.5q78 0 142.5 -17t109.5 -45t80.5 -67t56 -80t34 -86.5t18.5 -84t5 -75.5q0 -19 -0.5 -29.5t-2 -29t-5 -29t-10 -24t-16.5 -20.5t-25 -12t-35 -5h-681q0 -175 94 -278t258 -103q91 0 154.5 27t125.5 73q23 15 43 15q28 0 47.5 -20 t19.5 -48.5t-25 -53.5q-18 -17 -44.5 -35.5t-72 -42t-110.5 -38.5t-138 -15q-118 0 -210 33.5t-158 101t-101 176t-35 252.5zM862 619q0 54 -8 100t-28.5 91t-53 77t-86 51.5t-123.5 19.5q-149 0 -234 -90t-95 -249h628zM570 1270q-89 0 -89 91q0 94 89 94t89 -94 q0 -91 -89 -91z" />
<glyph unicode="&#x118;" d="M1158 -292q22 0 37 -15t15 -36q0 -29 -27 -45q-66 -40 -167 -40q-112 0 -176.5 52t-64.5 147q0 73 44 132.5t121 96.5h-674q-34 0 -56.5 23t-22.5 57v1412q0 34 22.5 56.5t56.5 22.5h750q19 0 35.5 -9.5t26.5 -26t10 -36.5q0 -30 -21 -51.5t-51 -21.5h-671v-562h515 q29 0 50 -21.5t21 -51.5t-21 -51t-50 -21h-515v-574h696q30 0 51.5 -21.5t21.5 -51.5q0 -47 -61 -74q-75 -35 -118.5 -84t-43.5 -110t35.5 -92.5t93.5 -31.5q57 0 110 21q17 7 28 7z" />
<glyph unicode="&#x119;" horiz-adv-x="1087" d="M885 -292q21 0 36 -15t15 -36q0 -30 -25 -45q-67 -40 -169 -40q-112 0 -176 52t-64 147q0 118 112 198h-28q-118 0 -210 33.5t-158 101t-101 176t-35 252.5q0 269 126.5 414.5t354.5 145.5q78 0 142.5 -17t109.5 -45t80.5 -67t56 -80t34 -86.5t18.5 -84t5 -75.5 q0 -19 -0.5 -29.5t-2 -29t-5 -29t-10 -24t-16.5 -20.5t-25 -12t-35 -5h-681q0 -175 94 -278t258 -103q91 0 154.5 27t125.5 73q23 15 43 15q28 0 47.5 -20t19.5 -48.5t-25 -53.5q-21 -21 -57 -42t-71 -36.5t-73 -37.5t-66 -45t-46.5 -58t-18.5 -77q0 -61 34.5 -92.5 t93.5 -31.5q58 0 110 21q17 7 28 7zM862 619q0 54 -8 100t-28.5 91t-53 77t-86 51.5t-123.5 19.5q-149 0 -234 -90t-95 -249h628z" />
<glyph unicode="&#x11a;" d="M1041 0h-775q-34 0 -56.5 23t-22.5 57v1412q0 34 22.5 56.5t56.5 22.5h750q19 0 35.5 -9.5t26.5 -26t10 -36.5q0 -30 -21 -51.5t-51 -21.5h-671v-562h515q29 0 50 -21.5t21 -51.5t-21 -51t-50 -21h-515v-574h696q30 0 51.5 -21.5t21.5 -51.5t-21.5 -51t-51.5 -21z M675 1805l189 158q15 15 38 15t39.5 -16.5t16.5 -39.5q0 -26 -22 -44l-224 -185q-18 -14 -37.5 -14t-37.5 14l-224 185q-21 17 -21 44q0 15 7.5 28t20.5 20.5t28 7.5q23 0 38 -15z" />
<glyph unicode="&#x11b;" horiz-adv-x="1087" d="M82 532q0 269 126.5 414.5t354.5 145.5q78 0 142.5 -17t109.5 -45t80.5 -67t56 -80t34 -86.5t18.5 -84t5 -75.5q0 -19 -0.5 -29.5t-2 -29t-5 -29t-10 -24t-16.5 -20.5t-25 -12t-35 -5h-681q0 -175 94 -278t258 -103q91 0 154.5 27t125.5 73q23 15 43 15q28 0 47.5 -20 t19.5 -48.5t-25 -53.5q-18 -17 -44.5 -35.5t-72 -42t-110.5 -38.5t-138 -15q-118 0 -210 33.5t-158 101t-101 176t-35 252.5zM862 619q0 54 -8 100t-28.5 91t-53 77t-86 51.5t-123.5 19.5q-149 0 -234 -90t-95 -249h628zM565 1292l190 158q13 14 36 14q15 0 28 -7.5 t20.5 -20.5t7.5 -28q0 -27 -21 -45l-224 -184q-18 -14 -37 -14t-37 14l-225 184q-20 18 -20 45q0 23 16 39.5t40 16.5t37 -14z" />
<glyph unicode="&#x11c;" horiz-adv-x="1546" d="M831 112q150 0 259 52.5t175 134.5v338h-389q-20 0 -36.5 10t-26 27t-9.5 36q0 30 21 51t51 21h471q29 0 50.5 -21t21.5 -51v-409q0 -39 -29 -76q-47 -55 -96.5 -97t-117.5 -80.5t-155.5 -59.5t-189.5 -21q-172 0 -305 47.5t-228.5 145t-145 255t-49.5 369.5 q0 205 50 361t144.5 256.5t228.5 151.5t305 51q165 0 304 -66t222 -181q16 -23 16 -49q0 -32 -21.5 -54t-53.5 -22q-36 0 -61 31q-63 87 -170.5 141.5t-235.5 54.5q-135 0 -239.5 -41.5t-177.5 -124t-110.5 -211t-37.5 -298.5q0 -179 37 -309t111 -209.5t177 -116.5t240 -37 zM1023 1693l-190 158l-189 -158q-14 -14 -38 -14q-23 0 -39 16.5t-16 39.5q0 26 21 45l224 183q19 15 37 15t38 -15l225 -183q20 -18 20 -45q0 -23 -16.5 -39.5t-39.5 -16.5q-24 0 -37 14z" />
<glyph unicode="&#x11d;" horiz-adv-x="1114" d="M535 1092q149 0 249 -58q17 30 34 50.5t41 39t57.5 28t75.5 9.5q28 0 48 -20.5t20 -48.5t-20 -47.5t-48 -19.5q-48 0 -73 -19.5t-39 -52.5q84 -102 84 -253q0 -180 -114 -286t-315 -106q-150 0 -252 59q-42 -33 -42 -84q0 -98 172 -98h240q69 0 130 -12t112.5 -37 t88.5 -62t57.5 -90t20.5 -117q0 -89 -38 -155t-107 -105t-158 -58t-198 -19q-77 0 -145 9.5t-134 32.5t-113.5 59t-76.5 94t-29 133q0 79 47 140.5t131 94.5q-67 22 -106 72t-39 118q0 100 93 163q-84 105 -84 254q0 180 114 286t316 106zM534.5 443q132.5 0 205.5 69.5 t73 187.5t-73 188t-205 70q-89 0 -152 -32.5t-95 -90.5t-32 -135q0 -118 73 -187.5t205.5 -69.5zM911 -133q0 92 -68.5 134.5t-189.5 42.5h-243q-98 -16 -147 -65t-49 -121q0 -52 28 -91t77.5 -61.5t110.5 -33.5t133 -11t132.5 11.5t110 34.5t77.5 64t28 96zM726 1232 l-189 160l-189 -160q-14 -13 -38 -13q-15 0 -28 7.5t-20.5 20t-7.5 28.5q0 26 22 44l223 185q19 13 38 13t38 -13l223 -185q22 -18 22 -44q0 -24 -16.5 -40t-39.5 -16q-24 0 -38 13z" />
<glyph unicode="&#x11e;" horiz-adv-x="1546" d="M831 112q150 0 259 52.5t175 134.5v338h-389q-20 0 -36.5 10t-26 27t-9.5 36q0 30 21 51t51 21h471q29 0 50.5 -21t21.5 -51v-409q0 -39 -29 -76q-47 -55 -96.5 -97t-117.5 -80.5t-155.5 -59.5t-189.5 -21q-172 0 -305 47.5t-228.5 145t-145 255t-49.5 369.5 q0 205 50 361t144.5 256.5t228.5 151.5t305 51q165 0 304 -66t222 -181q16 -23 16 -49q0 -32 -21.5 -54t-53.5 -22q-36 0 -61 31q-63 87 -170.5 141.5t-235.5 54.5q-135 0 -239.5 -41.5t-177.5 -124t-110.5 -211t-37.5 -298.5q0 -179 37 -309t111 -209.5t177 -116.5t240 -37 zM813 1704q-54 0 -100.5 14t-84 41.5t-59 74t-21.5 106.5q0 23 16.5 39.5t39.5 16.5t40 -16.5t17 -39.5q0 -129 151.5 -129t151.5 129q0 23 16.5 39.5t39.5 16.5q15 0 28 -7.5t20.5 -20.5t7.5 -28q0 -61 -21 -107t-58 -73.5t-83.5 -41.5t-100.5 -14z" />
<glyph unicode="&#x11f;" horiz-adv-x="1114" d="M535 1092q149 0 249 -58q17 30 34 50.5t41 39t57.5 28t75.5 9.5q28 0 48 -20.5t20 -48.5t-20 -47.5t-48 -19.5q-48 0 -73 -19.5t-39 -52.5q84 -102 84 -253q0 -180 -114 -286t-315 -106q-150 0 -252 59q-42 -33 -42 -84q0 -98 172 -98h240q69 0 130 -12t112.5 -37 t88.5 -62t57.5 -90t20.5 -117q0 -89 -38 -155t-107 -105t-158 -58t-198 -19q-77 0 -145 9.5t-134 32.5t-113.5 59t-76.5 94t-29 133q0 79 47 140.5t131 94.5q-67 22 -106 72t-39 118q0 100 93 163q-84 105 -84 254q0 180 114 286t316 106zM534.5 443q132.5 0 205.5 69.5 t73 187.5t-73 188t-205 70q-89 0 -152 -32.5t-95 -90.5t-32 -135q0 -118 73 -187.5t205.5 -69.5zM911 -133q0 92 -68.5 134.5t-189.5 42.5h-243q-98 -16 -147 -65t-49 -121q0 -52 28 -91t77.5 -61.5t110.5 -33.5t133 -11t132.5 11.5t110 34.5t77.5 64t28 96zM537 1235 q-54 0 -100.5 13.5t-83.5 41t-58 74t-21 107.5q0 23 16 39t39.5 16t39.5 -16t16 -39q0 -128 152 -128t152 128q0 23 16 39t39.5 16t39.5 -16t16 -39q0 -61 -21 -107.5t-58 -74t-83.5 -41t-100.5 -13.5z" />
<glyph unicode="&#x120;" horiz-adv-x="1546" d="M831 112q150 0 259 52.5t175 134.5v338h-389q-20 0 -36.5 10t-26 27t-9.5 36q0 30 21 51t51 21h471q29 0 50.5 -21t21.5 -51v-409q0 -39 -29 -76q-47 -55 -96.5 -97t-117.5 -80.5t-155.5 -59.5t-189.5 -21q-172 0 -305 47.5t-228.5 145t-145 255t-49.5 369.5 q0 205 50 361t144.5 256.5t228.5 151.5t305 51q165 0 304 -66t222 -181q16 -23 16 -49q0 -32 -21.5 -54t-53.5 -22q-36 0 -61 31q-63 87 -170.5 141.5t-235.5 54.5q-135 0 -239.5 -41.5t-177.5 -124t-110.5 -211t-37.5 -298.5q0 -179 37 -309t111 -209.5t177 -116.5t240 -37 zM813 1718q-89 0 -89 91q0 94 89 94t89 -94q0 -91 -89 -91z" />
<glyph unicode="&#x121;" horiz-adv-x="1114" d="M535 1092q149 0 249 -58q17 30 34 50.5t41 39t57.5 28t75.5 9.5q28 0 48 -20.5t20 -48.5t-20 -47.5t-48 -19.5q-48 0 -73 -19.5t-39 -52.5q84 -102 84 -253q0 -180 -114 -286t-315 -106q-150 0 -252 59q-42 -33 -42 -84q0 -98 172 -98h240q69 0 130 -12t112.5 -37 t88.5 -62t57.5 -90t20.5 -117q0 -89 -38 -155t-107 -105t-158 -58t-198 -19q-77 0 -145 9.5t-134 32.5t-113.5 59t-76.5 94t-29 133q0 79 47 140.5t131 94.5q-67 22 -106 72t-39 118q0 100 93 163q-84 105 -84 254q0 180 114 286t316 106zM534.5 443q132.5 0 205.5 69.5 t73 187.5t-73 188t-205 70q-89 0 -152 -32.5t-95 -90.5t-32 -135q0 -118 73 -187.5t205.5 -69.5zM911 -133q0 92 -68.5 134.5t-189.5 42.5h-243q-98 -16 -147 -65t-49 -121q0 -52 28 -91t77.5 -61.5t110.5 -33.5t133 -11t132.5 11.5t110 34.5t77.5 64t28 96zM541.5 1270 q-88.5 0 -88.5 91q0 94 88.5 94t88.5 -94q0 -91 -88.5 -91z" />
<glyph unicode="&#x122;" horiz-adv-x="1546" d="M831 112q150 0 259 52.5t175 134.5v338h-389q-20 0 -36.5 10t-26 27t-9.5 36q0 30 21 51t51 21h471q29 0 50.5 -21t21.5 -51v-409q0 -39 -29 -76q-47 -55 -96.5 -97t-117.5 -80.5t-155.5 -59.5t-189.5 -21q-172 0 -305 47.5t-228.5 145t-145 255t-49.5 369.5 q0 205 50 361t144.5 256.5t228.5 151.5t305 51q165 0 304 -66t222 -181q16 -23 16 -49q0 -32 -21.5 -54t-53.5 -22q-36 0 -61 31q-63 87 -170.5 141.5t-235.5 54.5q-135 0 -239.5 -41.5t-177.5 -124t-110.5 -211t-37.5 -298.5q0 -179 37 -309t111 -209.5t177 -116.5t240 -37 zM943 -234q0 -113 -31.5 -191t-105.5 -152q-11 -11 -26 -11q-13 0 -22 8.5t-9 22.5q0 10 10 20q36 35 51.5 71t15.5 81q0 27 -13 51.5t-28.5 40t-29 41t-13.5 54.5q0 49 26 74.5t72 25.5q51 0 77 -32t26 -104z" />
<glyph unicode="&#x123;" horiz-adv-x="1114" d="M446 1321q0 120 35.5 210t113.5 171q14 14 31 14q9 0 17 -4.5t13 -12.5t5 -17q0 -10 -8 -22q-33 -46 -50 -82.5t-17 -80.5q0 -25 8.5 -47t21 -39.5t25 -35.5t21 -41.5t8.5 -49.5q0 -57 -28.5 -84.5t-80.5 -27.5q-115 0 -115 149zM535 1092q149 0 249 -58q17 30 34 50.5 t41 39t57.5 28t75.5 9.5q28 0 48 -20.5t20 -48.5t-20 -47.5t-48 -19.5q-48 0 -73 -19.5t-39 -52.5q84 -102 84 -253q0 -180 -114 -286t-315 -106q-150 0 -252 59q-42 -33 -42 -84q0 -98 172 -98h240q69 0 130 -12t112.5 -37t88.5 -62t57.5 -90t20.5 -117q0 -89 -38 -155 t-107 -105t-158 -58t-198 -19q-77 0 -145 9.5t-134 32.5t-113.5 59t-76.5 94t-29 133q0 79 47 140.5t131 94.5q-67 22 -106 72t-39 118q0 100 93 163q-84 105 -84 254q0 180 114 286t316 106zM534.5 443q132.5 0 205.5 69.5t73 187.5t-73 188t-205 70q-89 0 -152 -32.5 t-95 -90.5t-32 -135q0 -118 73 -187.5t205.5 -69.5zM911 -133q0 92 -68.5 134.5t-189.5 42.5h-243q-98 -16 -147 -65t-49 -121q0 -52 28 -91t77.5 -61.5t110.5 -33.5t133 -11t132.5 11.5t110 34.5t77.5 64t28 96z" />
<glyph unicode="&#x124;" horiz-adv-x="1502" d="M1158 733h-813v-673q0 -31 -23 -54.5t-56 -23.5q-22 0 -40 10.5t-28.5 29t-10.5 38.5v1450q0 33 23 56.5t56 23.5t56 -23.5t23 -56.5v-632h813v632q0 33 23 56.5t56 23.5t56.5 -23.5t23.5 -56.5v-1450q0 -20 -10.5 -38.5t-29 -29t-40.5 -10.5t-40 10.5t-28.5 29 t-10.5 38.5v673zM945 1693l-188 158l-189 -158q-14 -14 -38 -14q-23 0 -39.5 16.5t-16.5 39.5q0 27 21 45l224 183q20 15 38 15q17 0 36 -15l225 -183q21 -18 21 -45q0 -23 -16.5 -39.5t-39.5 -16.5q-24 0 -38 14z" />
<glyph unicode="&#x125;" horiz-adv-x="1169" d="M612 1092q75 0 137 -12.5t105.5 -34t77 -53.5t54 -66.5t33 -77.5t17.5 -83t5 -86v-623q0 -32 -21.5 -53t-52.5 -21q-21 0 -38.5 9.5t-27.5 26.5t-10 38v593q0 58 -7 103t-25.5 85.5t-49.5 66.5t-80.5 41t-116.5 15q-84 0 -145.5 -24.5t-97 -69.5t-52 -102.5t-16.5 -130.5 v-577q0 -32 -21.5 -53t-53 -21t-53 21t-21.5 53v1532q0 21 10 38t27 26.5t38 9.5q31 0 52.5 -21t21.5 -53v-659q23 46 66 82t107.5 58.5t137.5 22.5zM416 1693l-189 158l-189 -158q-14 -14 -38 -14q-23 0 -39.5 16.5t-16.5 39.5q0 27 21 45l224 183q20 15 38 15q17 0 36 -15 l225 -183q20 -18 20 -45q0 -23 -16 -39.5t-39 -16.5t-37 14z" />
<glyph unicode="&#x126;" horiz-adv-x="1502" d="M1158 733h-813v-673q0 -31 -23 -54.5t-56 -23.5q-22 0 -40 10.5t-28.5 29t-10.5 38.5v1021h-71q-25 0 -41.5 16.5t-16.5 41.5t17 42t41 17h71v312q0 33 23 56.5t56 23.5t56 -23.5t23 -56.5v-312h813v312q0 33 23 56.5t56 23.5t56.5 -23.5t23.5 -56.5v-312h70q17 0 30 -8 t21 -21.5t8 -29.5q0 -25 -17 -41.5t-42 -16.5h-70v-1021q0 -20 -10.5 -38.5t-29 -29t-40.5 -10.5t-40 10.5t-28.5 29t-10.5 38.5v673zM345 878h813v203h-813v-203z" />
<glyph unicode="&#x127;" horiz-adv-x="1169" d="M612 1092q75 0 137 -12.5t105.5 -34t77 -53.5t54 -66.5t33 -77.5t17.5 -83t5 -86v-623q0 -32 -21.5 -53t-52.5 -21q-21 0 -38.5 9.5t-27.5 26.5t-10 38v593q0 58 -7 103t-25.5 85.5t-49.5 66.5t-80.5 41t-116.5 15q-84 0 -145.5 -24.5t-97 -69.5t-52 -102.5t-16.5 -130.5 v-577q0 -32 -21.5 -53t-53 -21t-53 21t-21.5 53v1254h-68q-24 0 -41 16.5t-17 41.5t17 41.5t41 16.5h68v162q0 21 10 38t27 26.5t38 9.5q31 0 52.5 -21t21.5 -53v-162h260q25 0 41.5 -16.5t16.5 -41.5t-16.5 -41.5t-41.5 -16.5h-260v-381q23 46 66 82t107.5 58.5t137.5 22.5 z" />
<glyph unicode="&#x128;" horiz-adv-x="531" d="M345 1510v-1450q0 -31 -23 -54.5t-56 -23.5q-22 0 -40 10.5t-28.5 29t-10.5 38.5v1450q0 33 23 56.5t56 23.5t56 -23.5t23 -56.5zM131 1912q38 0 77.5 -14.5t67 -31.5t63 -31t67.5 -14q35 0 58.5 15t49.5 51q19 25 47 25q23 0 39.5 -16.5t16.5 -39.5q0 -14 -7 -27 q-26 -52 -78 -87t-126 -35q-39 0 -78 14t-66 31t-62.5 31.5t-68.5 14.5q-35 0 -58.5 -15t-49.5 -50q-20 -26 -46 -26q-23 0 -40 16t-17 39q0 13 8 29q12 24 30 44.5t42.5 38t58.5 28t72 10.5z" />
<glyph unicode="&#x129;" horiz-adv-x="450" d="M84 1441q39 0 78 -14.5t66.5 -31.5t63 -31t67.5 -14q35 0 58.5 15t49.5 50q20 26 47 26q23 0 39.5 -17t16.5 -40q0 -14 -7 -27q-17 -33 -42.5 -59t-68 -44.5t-93.5 -18.5q-39 0 -78 14t-66 31t-62.5 31.5t-68.5 14.5q-35 0 -57.5 -15t-49.5 -50q-19 -26 -47 -26 q-23 0 -40 17t-17 40q0 11 8 27q27 52 78 87t125 35zM299 1004v-948q0 -32 -21.5 -53t-53 -21t-53.5 21t-22 53v948q0 32 22 53t53.5 21t53 -21t21.5 -53z" />
<glyph unicode="&#x12a;" horiz-adv-x="531" d="M345 1510v-1450q0 -31 -23 -54.5t-56 -23.5q-22 0 -40 10.5t-28.5 29t-10.5 38.5v1450q0 33 23 56.5t56 23.5t56 -23.5t23 -56.5zM544 1769q0 -25 -17 -41.5t-41 -16.5h-435q-24 0 -41 16.5t-17 41.5t17 42.5t41 17.5h435q24 0 41 -17.5t17 -42.5z" />
<glyph unicode="&#x12b;" horiz-adv-x="450" d="M499 1312q0 -25 -16.5 -41.5t-41.5 -16.5h-434q-25 0 -41.5 16.5t-16.5 41.5q0 16 7.5 29.5t21 21t29.5 7.5h434q25 0 41.5 -16.5t16.5 -41.5zM299 1004v-948q0 -32 -21.5 -53t-53 -21t-53.5 21t-22 53v948q0 32 22 53t53.5 21t53 -21t21.5 -53z" />
<glyph unicode="&#x12c;" horiz-adv-x="531" d="M345 1510v-1450q0 -31 -23 -54.5t-56 -23.5q-22 0 -40 10.5t-28.5 29t-10.5 38.5v1450q0 33 23 56.5t56 23.5t56 -23.5t23 -56.5zM265.5 1704q-54.5 0 -100.5 14t-83 41.5t-58.5 73.5t-21.5 107q0 23 16.5 39.5t39.5 16.5t39.5 -16.5t16.5 -39.5q0 -129 152 -129t152 129 q0 23 16.5 39.5t39.5 16.5t39.5 -16.5t16.5 -39.5q0 -60 -21.5 -106.5t-58.5 -74t-83.5 -41.5t-101 -14z" />
<glyph unicode="&#x12d;" horiz-adv-x="450" d="M224.5 1235q-54.5 0 -101 13.5t-83.5 41t-58.5 74t-21.5 107.5q0 23 16.5 39t39.5 16t39.5 -16t16.5 -39q0 -128 153 -128q151 0 151 128q0 23 16.5 39t39.5 16t39.5 -16t16.5 -39q0 -61 -21 -107.5t-58.5 -74t-83.5 -41t-100.5 -13.5zM299 1004v-948q0 -32 -21.5 -53 t-53 -21t-53.5 21t-22 53v948q0 32 22 53t53.5 21t53 -21t21.5 -53z" />
<glyph unicode="&#x12e;" horiz-adv-x="531" d="M432 -292q14 0 26 -7t18.5 -18.5t6.5 -25.5q0 -29 -26 -45q-66 -40 -167 -40q-74 0 -128 23t-83.5 67.5t-29.5 108.5q0 72 42.5 131t120.5 100q-25 22 -25 58v1450q0 33 23 56.5t56 23.5t56 -23.5t23 -56.5v-1450q0 -47 -42 -69q-138 -73 -138 -187q0 -61 35 -92.5 t94 -31.5q57 0 110 21q17 7 28 7z" />
<glyph unicode="&#x12f;" horiz-adv-x="450" d="M392 -292q22 0 36.5 -15t14.5 -36q0 -30 -25 -45q-66 -40 -168 -40q-112 0 -176.5 52t-64.5 147q0 72 43 131t121 98q-24 24 -24 56v948q0 32 22 53t53.5 21t53 -21t21.5 -53v-948q0 -24 -10 -38.5t-33 -28.5q-29 -20 -48.5 -36t-40 -38.5t-30.5 -50t-10 -60.5 q0 -61 34.5 -92.5t92.5 -31.5q57 0 110 21q17 7 28 7zM225 1298q-42 0 -65.5 23.5t-23.5 65.5q0 49 22.5 71t66 22t65.5 -22t22 -71q0 -27 -10 -47t-30 -31t-47 -11z" />
<glyph unicode="&#x130;" horiz-adv-x="531" d="M345 1510v-1450q0 -31 -23 -54.5t-56 -23.5q-22 0 -40 10.5t-28.5 29t-10.5 38.5v1450q0 33 23 56.5t56 23.5t56 -23.5t23 -56.5zM269 1718q-89 0 -89 91q0 94 89 94q88 0 88 -94q0 -91 -88 -91z" />
<glyph unicode="&#x131;" horiz-adv-x="450" d="M299 1004v-948q0 -32 -21.5 -53t-53 -21t-53.5 21t-22 53v948q0 32 22 53t53.5 21t53 -21t21.5 -53z" />
<glyph unicode="&#x132;" horiz-adv-x="1437" d="M345 1510v-1450q0 -31 -23 -54.5t-56 -23.5q-22 0 -40 10.5t-28.5 29t-10.5 38.5v1450q0 33 23 56.5t56 23.5t56 -23.5t23 -56.5zM555 23q-43 24 -43 70q0 32 22.5 55t53.5 23q6 0 10 -0.5t9 -2t7.5 -3t9.5 -4.5t11 -5q74 -37 173 -37q75 0 130.5 26t88.5 74.5t49 112 t16 142.5v1036q0 33 23.5 56.5t56.5 23.5t56.5 -23.5t23.5 -56.5v-1036q0 -88 -15 -162t-48 -138.5t-84 -109t-126 -70t-171 -25.5q-70 0 -139.5 14t-113.5 40z" />
<glyph unicode="&#x133;" horiz-adv-x="882" d="M301 1004v-948q0 -32 -21.5 -53t-53 -21t-53 21t-21.5 53v948q0 32 21.5 53t53 21t53 -21t21.5 -53zM227 1298q-42 0 -65.5 23.5t-23.5 65.5q0 49 22.5 71t66 22t66 -22t22.5 -71q0 -42 -23 -65.5t-65 -23.5zM581 -82v1086q0 32 21.5 53t53 21t53.5 -21t22 -53v-1086 q0 -97 -43.5 -177t-122 -126.5t-175.5 -46.5q-30 0 -50 20.5t-20 50.5t20 49.5t50 19.5q83 0 137 61t54 149zM655.5 1298q-41.5 0 -64.5 23.5t-23 65.5q0 49 22 71t65.5 22t66 -22t22.5 -71q0 -42 -23.5 -65.5t-65 -23.5z" />
<glyph unicode="&#x134;" horiz-adv-x="963" d="M82 23q-44 25 -44 70q0 32 22 55t54 23q5 0 9.5 -0.5t9.5 -2t7.5 -3t9.5 -4.5t11 -5q73 -37 173 -37q75 0 131 26t89 74.5t49 112t16 142.5v1036q0 33 23 56.5t56 23.5t56 -23.5t23 -56.5v-1036q0 -88 -14.5 -162t-48 -138.5t-84 -109t-126 -70t-170.5 -25.5 q-70 0 -139 14t-113 40zM880 1693l-189 158l-189 -158q-14 -14 -37 -14t-40 16.5t-17 39.5q0 26 22 45l223 183q20 15 38 15t37 -15l225 -183q21 -18 21 -45q0 -15 -7.5 -28t-20.5 -20.5t-28 -7.5q-24 0 -38 14z" />
<glyph unicode="&#x135;" horiz-adv-x="452" d="M152 -82v1086q0 32 21.5 53t53 21t53 -21t21.5 -53v-1086q0 -97 -43.5 -177t-122 -126.5t-175.5 -46.5q-30 0 -49.5 20.5t-19.5 50.5t19.5 49.5t49.5 19.5q83 0 137.5 61t54.5 149zM408 1232l-188 160l-189 -160q-14 -13 -38 -13q-15 0 -28 7.5t-20.5 20t-7.5 28.5 q0 27 21 44l224 185q19 13 38 13q18 0 36 -13l225 -185q21 -17 21 -44q0 -24 -16.5 -40t-39.5 -16q-24 0 -38 13z" />
<glyph unicode="&#x136;" horiz-adv-x="1292" d="M345 782l680 778q24 30 63 30q33 0 57.5 -24t24.5 -58q0 -29 -23 -56l-488 -546l564 -797q16 -24 16 -49q0 -33 -22.5 -55.5t-55.5 -22.5q-43 0 -69 36l-541 771l-206 -232v-497q0 -33 -23 -55.5t-56.5 -22.5t-56 22.5t-22.5 55.5v1450q0 34 22.5 57t56 23t56.5 -23 t23 -57v-728zM793 -234q0 -112 -31.5 -190.5t-105.5 -152.5q-12 -11 -26 -11q-6 0 -11.5 2t-9.5 6t-6.5 10t-2.5 13q0 10 10 20q18 18 30.5 35t20.5 35.5t12 38.5t4 43q0 27 -13 51.5t-29 40t-29 41t-13 54.5q0 49 26 74.5t72 25.5q50 0 76 -32t26 -104z" />
<glyph unicode="&#x137;" horiz-adv-x="1056" d="M922 -18q-37 0 -65 34l-414 530l-142 -114v-376q0 -32 -21.5 -53t-53 -21t-53 21t-21.5 53v1532q0 21 10 38t27 26.5t38 9.5q31 0 52.5 -21t21.5 -53v-978l552 450q21 18 51 18q32 0 53 -21t21 -53q0 -37 -31 -61l-382 -306l415 -534q16 -19 16 -47q0 -32 -21 -53 t-53 -21zM682 -234q0 -112 -32 -190.5t-106 -152.5q-12 -11 -25 -11q-8 0 -15 3.5t-11.5 11t-4.5 16.5q0 11 9 20q36 36 52 71.5t16 80.5q0 27 -13 51.5t-29 40t-29 41t-13 54.5q0 49 26 74.5t72 25.5q51 0 77 -32t26 -104z" />
<glyph unicode="&#x138;" horiz-adv-x="1056" d="M922 -18q-37 0 -65 34l-414 530l-142 -114v-376q0 -32 -21.5 -53t-53 -21t-53 21t-21.5 53v948q0 32 21.5 53t53 21t53 -21t21.5 -53v-394l552 450q21 18 51 18q32 0 53 -21t21 -53q0 -37 -31 -61l-382 -306l415 -534q16 -19 16 -47q0 -32 -21 -53t-53 -21z" />
<glyph unicode="&#x139;" horiz-adv-x="1127" d="M345 149h640q32 0 53.5 -21t21.5 -52.5t-21.5 -53.5t-53.5 -22h-719q-34 0 -56.5 23t-22.5 57v1430q0 34 22.5 57t56 23t56.5 -23t23 -57v-1361zM173 1691q-38 30 -8 69l209 252q15 19 37 21t52 -21q49 -46 7 -88l-227 -229q-34 -33 -70 -4z" />
<glyph unicode="&#x13a;" horiz-adv-x="510" d="M227 1662q31 0 52.5 -22t21.5 -52v-1334q0 -69 23 -101t70 -32q29 0 50 -20t21 -49.5t-21 -49.5t-50 -20q-118 0 -180 69t-62 203v1334q0 15 6 28.5t16 23.5t24 16t29 6zM119 1733q-38 30 -7 69l208 252q16 19 37 21t51 -21q50 -47 8 -89l-227 -228q-34 -34 -70 -4z" />
<glyph unicode="&#x13b;" horiz-adv-x="1127" d="M345 149h640q32 0 53.5 -21t21.5 -52.5t-21.5 -53.5t-53.5 -22h-719q-34 0 -56.5 23t-22.5 57v1430q0 34 22.5 57t56 23t56.5 -23t23 -57v-1361zM755 -234q0 -112 -32 -190.5t-106 -152.5q-12 -11 -26 -11q-13 0 -21.5 8.5t-8.5 22.5q0 11 9 20q35 35 51 71t16 81 q0 27 -13 51.5t-29 40t-29 41t-13 54.5q0 49 26 74.5t72 25.5q104 0 104 -136z" />
<glyph unicode="&#x13c;" horiz-adv-x="510" d="M227 1662q31 0 52.5 -22t21.5 -52v-1334q0 -69 23 -101t70 -32q29 0 50 -20t21 -49.5t-21 -49.5t-50 -20q-118 0 -180 69t-62 203v1334q0 15 6 28.5t16 23.5t24 16t29 6zM404 -234q0 -76 -14.5 -135t-44 -108.5t-79.5 -99.5q-12 -11 -25 -11q-8 0 -15 3.5t-11.5 11 t-4.5 16.5q0 10 10 20q18 18 30.5 35t20.5 35.5t12 38.5t4 43q0 27 -13 51.5t-29 40t-29 41t-13 54.5q0 49 26 74.5t72 25.5q50 0 76.5 -32t26.5 -104z" />
<glyph unicode="&#x13d;" horiz-adv-x="1127" d="M345 149h640q32 0 53.5 -21t21.5 -52.5t-21.5 -53.5t-53.5 -22h-719q-34 0 -56.5 23t-22.5 57v1430q0 34 22.5 57t56 23t56.5 -23t23 -57v-1361zM922 1441q0 -118 -44.5 -227t-122.5 -191q-14 -14 -31 -14q-7 0 -13.5 2.5t-11.5 7t-7.5 11t-2.5 13.5q0 11 6 22 q47 65 67 109.5t20 102.5q0 24 -8.5 45t-21 37l-25 32t-21 38t-8.5 48q0 57 29 85t81 28q114 0 114 -149z" />
<glyph unicode="&#x13e;" horiz-adv-x="546" d="M227 1662q31 0 52.5 -22t21.5 -52v-1334q0 -69 23 -101t70 -32q29 0 50 -20t21 -49.5t-21 -49.5t-50 -20q-118 0 -180 69t-62 203v1334q0 15 6 28.5t16 23.5t24 16t29 6zM633 1513q0 -119 -44.5 -227t-123.5 -190q-15 -15 -31 -15q-9 0 -17 4.5t-13 12.5t-5 18t7 21 q23 32 37.5 55t26.5 49t17 52.5t5 56.5q0 24 -8.5 45t-21 36.5t-25 32t-21 38.5t-8.5 48q0 57 29 84.5t82 27.5q114 0 114 -149z" />
<glyph unicode="&#x13f;" horiz-adv-x="1127" d="M345 149h640q32 0 53.5 -21t21.5 -52.5t-21.5 -53.5t-53.5 -22h-719q-34 0 -56.5 23t-22.5 57v1430q0 34 22.5 57t56 23t56.5 -23t23 -57v-1361zM882.5 693q-109.5 0 -109.5 111q0 56 28.5 83.5t80.5 27.5t81 -27.5t29 -83.5q0 -111 -109.5 -111z" />
<glyph unicode="&#x140;" horiz-adv-x="650" d="M227 1662q31 0 52.5 -22t21.5 -52v-1334q0 -69 23 -101t70 -32q29 0 50 -20t21 -49.5t-21 -49.5t-50 -20q-118 0 -180 69t-62 203v1334q0 15 6 28.5t16 23.5t24 16t29 6zM506 766q-109 0 -109 110q0 38 13.5 63t37.5 36.5t58 11.5q52 0 81.5 -27.5t29.5 -83.5 q0 -110 -111 -110z" />
<glyph unicode="&#x141;" horiz-adv-x="1174" d="M390 149h639q32 0 54 -21t22 -53q0 -21 -10 -38t-27.5 -27t-38.5 -10h-719q-22 0 -40 10.5t-28.5 29t-10.5 40.5v513l-104 -49q-14 -7 -31 -7q-28 0 -48 19.5t-20 47.5q0 46 42 64l161 74v768q0 34 23 57t56 23t56.5 -23t23.5 -57v-695l401 189q14 7 31 7q28 0 47.5 -20 t19.5 -48q0 -21 -12 -38.5t-30 -24.5l-457 -214v-517z" />
<glyph unicode="&#x142;" horiz-adv-x="592" d="M227 1662q31 0 52.5 -22t21.5 -52v-612l182 105q14 7 29 7q25 0 44 -18t19 -45q0 -38 -33 -56l-241 -138v-577q0 -69 23 -101t70 -32q29 0 50 -20t21 -49.5t-21 -49.5t-50 -20q-118 0 -180 69t-62 203v490l-56 -32q-17 -10 -33 -10q-26 0 -44.5 18.5t-18.5 45.5 q0 38 33 56l119 67v699q0 15 6 28.5t16 23.5t24 16t29 6z" />
<glyph unicode="&#x143;" horiz-adv-x="1446" d="M1207.5 1590q31.5 0 54 -22.5t22.5 -54.5v-1453q0 -33 -23 -55.5t-56 -22.5q-41 0 -66 32l-821 1240v-1196q0 -31 -23 -53.5t-54 -22.5q-16 0 -30.5 6t-25 16t-16.5 24.5t-6 29.5v1455q0 21 10.5 38.5t28.5 28t39 10.5q39 0 62 -33l827 -1242v1198q0 31 23 54t54.5 23z M640 1688q-38 30 -7 70l207 252q15 19 37 21t52 -21q49 -46 7 -88l-226 -229q-34 -34 -70 -5z" />
<glyph unicode="&#x144;" horiz-adv-x="1169" d="M612 1092q75 0 137 -12.5t105.5 -34t77 -53.5t54 -66.5t33 -77.5t17.5 -83t5 -86v-623q0 -32 -21.5 -53t-52.5 -21q-21 0 -38.5 9.5t-27.5 26.5t-10 38v593q0 58 -7 103t-25.5 85.5t-49.5 66.5t-80.5 41t-116.5 15q-84 0 -145.5 -24.5t-97 -69.5t-52 -102.5t-16.5 -130.5 v-577q0 -32 -21.5 -53t-53 -21t-53 21t-21.5 53v948q0 32 21.5 53t53 21t53 -21t21.5 -53v-75q23 46 66 82t107.5 58.5t137.5 22.5zM457 1214q-37 30 -7 70l209 253q15 19 36.5 20.5t51.5 -20.5q50 -47 8 -89l-227 -229q-34 -34 -71 -5z" />
<glyph unicode="&#x145;" horiz-adv-x="1446" d="M1207.5 1590q31.5 0 54 -22.5t22.5 -54.5v-1453q0 -33 -23 -55.5t-56 -22.5q-41 0 -66 32l-821 1240v-1196q0 -31 -23 -53.5t-54 -22.5q-16 0 -30.5 6t-25 16t-16.5 24.5t-6 29.5v1455q0 21 10.5 38.5t28.5 28t39 10.5q39 0 62 -33l827 -1242v1198q0 31 23 54t54.5 23z M817 -234q0 -112 -31.5 -190.5t-106.5 -152.5q-11 -11 -26 -11q-12 0 -20.5 8.5t-8.5 22.5q0 11 9 20q35 35 51 71t16 81q0 27 -13 51.5t-28.5 40t-28.5 41t-13 54.5q0 49 25.5 74.5t72.5 25.5q50 0 76 -32t26 -104z" />
<glyph unicode="&#x146;" horiz-adv-x="1169" d="M612 1092q75 0 137 -12.5t105.5 -34t77 -53.5t54 -66.5t33 -77.5t17.5 -83t5 -86v-623q0 -32 -21.5 -53t-52.5 -21q-21 0 -38.5 9.5t-27.5 26.5t-10 38v593q0 58 -7 103t-25.5 85.5t-49.5 66.5t-80.5 41t-116.5 15q-84 0 -145.5 -24.5t-97 -69.5t-52 -102.5t-16.5 -130.5 v-577q0 -32 -21.5 -53t-53 -21t-53 21t-21.5 53v948q0 32 21.5 53t53 21t53 -21t21.5 -53v-75q23 46 66 82t107.5 58.5t137.5 22.5zM708 -234q0 -112 -32 -190.5t-106 -152.5q-11 -11 -26 -11q-12 0 -21 8.5t-9 22.5q0 11 9 20q36 35 52 71t16 81q0 27 -13.5 51.5t-29 40 t-29 41t-13.5 54.5q0 49 26 74.5t72 25.5q104 0 104 -136z" />
<glyph unicode="&#x147;" horiz-adv-x="1446" d="M1207.5 1590q31.5 0 54 -22.5t22.5 -54.5v-1453q0 -33 -23 -55.5t-56 -22.5q-41 0 -66 32l-821 1240v-1196q0 -31 -23 -53.5t-54 -22.5q-16 0 -30.5 6t-25 16t-16.5 24.5t-6 29.5v1455q0 21 10.5 38.5t28.5 28t39 10.5q39 0 62 -33l827 -1242v1198q0 31 23 54t54.5 23z M749 1805l189 158q15 15 38 15t39.5 -16.5t16.5 -39.5q0 -27 -21 -44l-224 -185q-19 -14 -38 -14q-18 0 -37 14l-224 185q-21 17 -21 44q0 15 7.5 28t20.5 20.5t28 7.5q23 0 38 -15z" />
<glyph unicode="&#x148;" horiz-adv-x="1169" d="M612 1092q75 0 137 -12.5t105.5 -34t77 -53.5t54 -66.5t33 -77.5t17.5 -83t5 -86v-623q0 -32 -21.5 -53t-52.5 -21q-21 0 -38.5 9.5t-27.5 26.5t-10 38v593q0 58 -7 103t-25.5 85.5t-49.5 66.5t-80.5 41t-116.5 15q-84 0 -145.5 -24.5t-97 -69.5t-52 -102.5t-16.5 -130.5 v-577q0 -32 -21.5 -53t-53 -21t-53 21t-21.5 53v948q0 32 21.5 53t53 21t53 -21t21.5 -53v-75q23 46 66 82t107.5 58.5t137.5 22.5zM619 1292l189 158q14 14 37 14t40 -16.5t17 -39.5q0 -27 -22 -45l-224 -184q-19 -14 -37 -14q-19 0 -38 14l-224 184q-21 18 -21 45 q0 23 16.5 39.5t39.5 16.5q24 0 38 -14z" />
<glyph unicode="&#x149;" horiz-adv-x="1169" d="M612 1092q75 0 137 -12.5t105.5 -34t77 -53.5t54 -66.5t33 -77.5t17.5 -83t5 -86v-623q0 -32 -21.5 -53t-52.5 -21q-21 0 -38.5 9.5t-27.5 26.5t-10 38v593q0 58 -7 103t-25.5 85.5t-49.5 66.5t-80.5 41t-116.5 15q-84 0 -145.5 -24.5t-97 -69.5t-52 -102.5t-16.5 -130.5 v-577q0 -32 -21.5 -53t-53 -21t-53 21t-21.5 53v948q0 32 21.5 53t53 21t53 -21t21.5 -53v-75q23 46 66 82t107.5 58.5t137.5 22.5zM214 1441q0 -76 -14 -135t-43.5 -108.5t-78.5 -99.5q-13 -13 -27 -13q-6 0 -11.5 2.5t-9.5 6.5t-6.5 9.5t-2.5 12.5q0 10 10 21 q35 35 51 70.5t16 80.5q0 23 -8.5 42.5t-21 34.5l-25 30t-21 35.5t-8.5 44.5q0 50 25.5 75t72.5 25q50 0 76 -31.5t26 -102.5z" />
<glyph unicode="&#x14a;" horiz-adv-x="1446" d="M840 -320q74 0 130 26t90.5 73.5t51.5 109.5t18 139l-812 1226v-1196q0 -31 -23 -53.5t-54 -22.5q-16 0 -30.5 6t-25 16t-16.5 24.5t-6 29.5v1455q0 21 10.5 38.5t28.5 28t39 10.5q39 0 62 -33l827 -1242v1198q0 31 23 54t54.5 23t54 -22.5t22.5 -54.5v-1478 q0 -88 -15 -162t-48 -138.5t-84 -109t-126.5 -70t-170.5 -25.5q-21 0 -38 10t-26.5 27.5t-9.5 38.5q0 31 21.5 52.5t52.5 21.5z" />
<glyph unicode="&#x14b;" horiz-adv-x="1169" d="M891 -119v768q0 58 -7 103t-25.5 85.5t-49.5 66.5t-80.5 41t-116.5 15q-84 0 -145.5 -24.5t-97 -69.5t-52 -102.5t-16.5 -130.5v-577q0 -32 -21.5 -53t-53 -21t-53 21t-21.5 53v948q0 32 21.5 53t53 21t53 -21t21.5 -53v-75q23 46 66 82t107.5 58.5t137.5 22.5 q75 0 137 -12.5t105.5 -34t77 -53.5t54 -66.5t33 -77.5t17.5 -83t5 -86v-798q0 -97 -43.5 -177t-122 -127t-175.5 -47q-30 0 -50 20.5t-20 50.5t20 50t50 20q83 0 137 61t54 149z" />
<glyph unicode="&#x14c;" horiz-adv-x="1662" d="M831 -33q171 0 305 51t228.5 151.5t145 256t50.5 358.5q0 205 -50 361t-145 256.5t-229 151.5t-305 51t-305 -51t-228.5 -151.5t-144.5 -256.5t-50 -361q0 -203 50 -358.5t144.5 -256t228.5 -151.5t305 -51zM831 1459q135 0 239 -41.5t177 -124t111 -211t38 -298.5 q0 -335 -146 -503.5t-418.5 -168.5t-419 168.5t-146.5 503.5q0 337 146 506t419 169zM1114 1769q0 -25 -17 -41.5t-41 -16.5h-435q-24 0 -41 16.5t-17 41.5q0 17 7.5 30.5t21 21.5t29.5 8h435q24 0 41 -17.5t17 -42.5z" />
<glyph unicode="&#x14d;" horiz-adv-x="1143" d="M572 1092q234 0 362 -139.5t128 -420.5t-128.5 -422t-361.5 -141q-232 0 -361 141.5t-129 421.5q0 281 129 420.5t361 139.5zM572.5 105q338.5 0 338.5 427q0 216 -87 321t-251.5 105t-251.5 -105t-87 -321q0 -427 338.5 -427zM847 1312q0 -25 -16.5 -41.5t-41.5 -16.5 h-434q-25 0 -42 16.5t-17 41.5q0 16 8 29.5t21 21t30 7.5h434q25 0 41.5 -16.5t16.5 -41.5z" />
<glyph unicode="&#x14e;" horiz-adv-x="1662" d="M831 -33q171 0 305 51t228.5 151.5t145 256t50.5 358.5q0 205 -50 361t-145 256.5t-229 151.5t-305 51t-305 -51t-228.5 -151.5t-144.5 -256.5t-50 -361q0 -203 50 -358.5t144.5 -256t228.5 -151.5t305 -51zM831 1459q135 0 239 -41.5t177 -124t111 -211t38 -298.5 q0 -335 -146 -503.5t-418.5 -168.5t-419 168.5t-146.5 503.5q0 337 146 506t419 169zM836 1704q-36 0 -68.5 6t-62.5 18t-54 31.5t-41.5 45t-27.5 60t-10 75.5q0 23 16.5 39.5t39.5 16.5t39.5 -16.5t16.5 -39.5q0 -129 151.5 -129t151.5 129q0 23 16.5 39.5t39.5 16.5 t40 -16.5t17 -39.5q0 -60 -21.5 -106.5t-58.5 -74t-83.5 -41.5t-100.5 -14z" />
<glyph unicode="&#x14f;" horiz-adv-x="1143" d="M572 1092q234 0 362 -139.5t128 -420.5t-128.5 -422t-361.5 -141q-232 0 -361 141.5t-129 421.5q0 281 129 420.5t361 139.5zM572.5 105q338.5 0 338.5 427q0 216 -87 321t-251.5 105t-251.5 -105t-87 -321q0 -427 338.5 -427zM570 1235q-54 0 -100.5 13.5t-84 41 t-58.5 74t-21 107.5q0 23 16 39t39.5 16t40 -16t16.5 -39q0 -128 152 -128t152 128q0 23 16 39t39.5 16t39.5 -16t16 -39q0 -61 -21 -107.5t-58 -74t-83.5 -41t-100.5 -13.5z" />
<glyph unicode="&#x150;" horiz-adv-x="1662" d="M831 -33q171 0 305 51t228.5 151.5t145 256t50.5 358.5q0 205 -50 361t-145 256.5t-229 151.5t-305 51t-305 -51t-228.5 -151.5t-144.5 -256.5t-50 -361q0 -203 50 -358.5t144.5 -256t228.5 -151.5t305 -51zM831 1459q135 0 239 -41.5t177 -124t111 -211t38 -298.5 q0 -335 -146 -503.5t-418.5 -168.5t-419 168.5t-146.5 503.5q0 337 146 506t419 169zM675 1688q-38 30 -7 70l208 252q15 19 37 21t51 -21q49 -46 7 -88l-227 -229q-33 -34 -69 -5zM929 1688q-37 30 -7 70l208 252q15 19 37 21t52 -21q49 -46 7 -88l-226 -229 q-34 -34 -71 -5z" />
<glyph unicode="&#x151;" horiz-adv-x="1143" d="M572 1092q234 0 362 -139.5t128 -420.5t-128.5 -422t-361.5 -141q-232 0 -361 141.5t-129 421.5q0 281 129 420.5t361 139.5zM572.5 105q338.5 0 338.5 427q0 216 -87 321t-251.5 105t-251.5 -105t-87 -321q0 -427 338.5 -427zM364 1214q-38 30 -7 70l208 253 q16 19 37 20.5t51 -20.5q50 -47 8 -89l-227 -229q-34 -34 -70 -5zM619 1214q-38 30 -7 70l208 253q15 19 37 21t52 -21q49 -47 6 -89l-226 -229q-34 -34 -70 -5z" />
<glyph unicode="&#x152;" horiz-adv-x="2154" d="M1987 0h-775q-36 0 -58 26q-151 -59 -328 -59q-170 0 -303.5 51t-227.5 151.5t-143 256t-49 358.5q0 205 49 361t143 257t227.5 151.5t303.5 50.5q180 0 325 -60q24 27 61 27h749q30 0 51.5 -21t21.5 -51t-21.5 -51.5t-51.5 -21.5h-669v-562h513q30 0 51.5 -21.5 t21.5 -51.5q0 -19 -10 -36t-27 -26.5t-36 -9.5h-513v-574h695q30 0 51 -21.5t21 -51.5t-21 -51t-51 -21zM826 1459q-134 0 -237.5 -41.5t-176 -124t-109.5 -211t-37 -298.5q0 -336 144.5 -504t415.5 -168q180 0 306 73v1199q-129 75 -306 75z" />
<glyph unicode="&#x153;" horiz-adv-x="1916" d="M572 1092q294 0 415 -216q122 216 405 216q77 0 142 -17t110 -45t80 -67t56 -80t34.5 -86.5t18.5 -84t5 -75.5q0 -17 -0.5 -26t-1.5 -25t-3.5 -25.5t-6.5 -22.5t-11 -20.5t-16.5 -15t-23.5 -11t-31 -3.5h-682q0 -175 94.5 -278t258.5 -103q91 0 154.5 27t125.5 73 q22 15 42 15q28 0 48 -20t20 -48.5t-25 -53.5q-18 -17 -45 -35.5t-72 -42t-110.5 -38.5t-137.5 -15q-306 0 -430 216q-122 -216 -413 -216q-232 0 -361 141.5t-129 421.5q0 281 129 420.5t361 139.5zM911 532q-10 426 -339 426q-164 0 -251 -105t-87 -321q0 -427 338 -427 q161 0 247.5 102.5t91.5 324.5zM1691 619q0 54 -8 100t-28.5 91t-53 77t-86 51.5t-123.5 19.5q-150 0 -234.5 -90t-95.5 -249h629z" />
<glyph unicode="&#x154;" horiz-adv-x="1274" d="M345 1426v-602h390q121 0 201 87t80 214q0 64 -21.5 120t-59.5 96t-91.5 62.5t-115.5 22.5h-383zM345 679v-619q0 -33 -23 -55.5t-56.5 -22.5t-56 22.5t-22.5 55.5v1432q0 34 22.5 56.5t56.5 22.5h465q127 0 229.5 -59t159 -161t56.5 -226q0 -89 -30 -169t-83.5 -139.5 t-132 -96t-171.5 -41.5l427 -570q17 -20 17 -49q0 -33 -23.5 -55.5t-56.5 -22.5q-44 0 -67 36l-475 661h-236zM528 1691q-38 30 -7 69l207 252q16 19 38 21t51 -21q49 -46 7 -88l-227 -229q-33 -33 -69 -4z" />
<glyph unicode="&#x155;" horiz-adv-x="720" d="M301 1004v-102q36 83 122 134.5t203 51.5q30 0 51 -21t21 -51t-21 -51.5t-51 -21.5q-105 0 -179 -46.5t-110 -127.5t-36 -190v-523q0 -32 -21.5 -53t-53 -21t-53 21t-21.5 53v948q0 32 21.5 53t53 21t53 -21t21.5 -53zM320 1214q-38 31 -8 70l209 253q15 19 37 21t52 -21 q49 -47 7 -89l-227 -229q-34 -34 -70 -5z" />
<glyph unicode="&#x156;" horiz-adv-x="1274" d="M345 1426v-602h390q121 0 201 87t80 214q0 64 -21.5 120t-59.5 96t-91.5 62.5t-115.5 22.5h-383zM345 679v-619q0 -33 -23 -55.5t-56.5 -22.5t-56 22.5t-22.5 55.5v1432q0 34 22.5 56.5t56.5 22.5h465q127 0 229.5 -59t159 -161t56.5 -226q0 -89 -30 -169t-83.5 -139.5 t-132 -96t-171.5 -41.5l427 -570q17 -20 17 -49q0 -33 -23.5 -55.5t-56.5 -22.5q-44 0 -67 36l-475 661h-236zM773 -234q0 -112 -32 -190.5t-106 -152.5q-11 -11 -25 -11q-6 0 -11.5 2t-10 6t-7 10t-2.5 13q0 11 9 20q36 35 52 71t16 81q0 27 -13.5 51.5t-29 40t-28.5 41 t-13 54.5q0 49 26 74.5t72 25.5q51 0 77 -32t26 -104z" />
<glyph unicode="&#x157;" horiz-adv-x="720" d="M301 1004v-102q36 83 122 134.5t203 51.5q30 0 51 -21t21 -51t-21 -51.5t-51 -21.5q-105 0 -179 -46.5t-110 -127.5t-36 -190v-523q0 -32 -21.5 -53t-53 -21t-53 21t-21.5 53v948q0 32 21.5 53t53 21t53 -21t21.5 -53zM323 -234q0 -112 -32 -190.5t-106 -152.5 q-12 -11 -27 -11q-8 0 -14.5 3.5t-10.5 11t-4 16.5q0 11 9 20q24 24 38.5 47t21.5 48.5t7 56.5q0 27 -13 51.5t-29 40t-29 41t-13 54.5q0 49 26.5 74.5t72.5 25.5q51 0 77 -32t26 -104z" />
<glyph unicode="&#x158;" horiz-adv-x="1274" d="M345 1426v-602h390q121 0 201 87t80 214q0 64 -21.5 120t-59.5 96t-91.5 62.5t-115.5 22.5h-383zM345 679v-619q0 -33 -23 -55.5t-56.5 -22.5t-56 22.5t-22.5 55.5v1432q0 34 22.5 56.5t56.5 22.5h465q127 0 229.5 -59t159 -161t56.5 -226q0 -89 -30 -169t-83.5 -139.5 t-132 -96t-171.5 -41.5l427 -570q17 -20 17 -49q0 -33 -23.5 -55.5t-56.5 -22.5q-44 0 -67 36l-475 661h-236zM637 1805l189 158q15 15 38 15t39.5 -16.5t16.5 -39.5q0 -26 -22 -44l-223 -185q-18 -14 -37.5 -14t-37.5 14l-224 185q-21 18 -21 44q0 23 16 39.5t39 16.5 t38 -15z" />
<glyph unicode="&#x159;" horiz-adv-x="720" d="M301 1004v-102q36 83 122 134.5t203 51.5q30 0 51 -21t21 -51t-21 -51.5t-51 -21.5q-105 0 -179 -46.5t-110 -127.5t-36 -190v-523q0 -32 -21.5 -53t-53 -21t-53 21t-21.5 53v948q0 32 21.5 53t53 21t53 -21t21.5 -53zM392 1292l189 158q14 14 38 14q23 0 39.5 -16.5 t16.5 -39.5q0 -27 -22 -45l-223 -184q-18 -14 -37.5 -14t-37.5 14l-224 184q-22 18 -22 45q0 23 16.5 39.5t39.5 16.5q24 0 38 -14z" />
<glyph unicode="&#x15a;" horiz-adv-x="1301" d="M1034 1275q-148 184 -378 184q-89 0 -156 -20.5t-105.5 -56.5t-57.5 -80.5t-19 -96.5q0 -37 12 -69t27.5 -56t48.5 -48t58 -39t73 -34.5t76 -29.5t85 -29q69 -24 104.5 -37t98 -40t97 -49.5t79 -60t67.5 -77.5t39.5 -95.5t16.5 -119.5q0 -219 -145.5 -336.5 t-414.5 -117.5q-97 0 -185.5 23.5t-157 63.5t-120 91t-81.5 109q-12 23 -12 42q0 32 21.5 54t52.5 22q44 0 67 -38q61 -99 165.5 -160.5t249.5 -61.5q194 0 297.5 78t103.5 231q0 43 -12.5 80t-30 64t-52 53t-61.5 42.5t-77.5 36.5t-80.5 30t-88 30q-67 21 -101.5 33 t-94.5 37t-92.5 46t-75 56t-64 72.5t-37.5 90t-16 113.5q0 82 30.5 153t90 126.5t156.5 87.5t221 32q164 0 294.5 -64t205.5 -177q14 -20 14 -44q0 -21 -10 -38t-27 -26.5t-37 -9.5q-38 0 -62 30zM588 1691q-37 30 -7 69l208 252q15 19 37 21t52 -21q49 -46 7 -88l-226 -229 q-34 -34 -71 -4z" />
<glyph unicode="&#x15b;" horiz-adv-x="989" d="M483 947q-42 0 -77 -7t-65.5 -22t-47.5 -43t-17 -67t21 -70t56.5 -52.5t81.5 -40t97 -35.5t101.5 -36t96.5 -45t81.5 -59t56.5 -81.5t21 -108.5q0 -77 -30.5 -137t-84.5 -97t-125.5 -55.5t-156.5 -18.5q-132 0 -239.5 51t-159.5 117q-15 23 -15 45q0 28 19.5 47.5 t47.5 19.5t51 -23q115 -115 296 -115q52 0 95.5 9.5t78.5 28.5t54.5 52t19.5 76q0 39 -21 69t-56.5 51t-81.5 39t-97 35t-101.5 35.5t-97 45t-81.5 60t-56 83t-21 110.5q0 71 27.5 125.5t76.5 88.5t113 51t139 17q119 0 210 -38.5t145 -111.5q17 -22 17 -44 q0 -14 -5.5 -26.5t-14.5 -21.5t-22 -14t-26 -5q-29 0 -49 20q-51 49 -110 73.5t-145 24.5zM392 1214q-37 30 -7 70l208 253q15 19 37 21t52 -21q49 -47 7 -89l-226 -229q-34 -34 -71 -5z" />
<glyph unicode="&#x15c;" horiz-adv-x="1301" d="M1034 1275q-148 184 -378 184q-89 0 -156 -20.5t-105.5 -56.5t-57.5 -80.5t-19 -96.5q0 -37 12 -69t27.5 -56t48.5 -48t58 -39t73 -34.5t76 -29.5t85 -29q69 -24 104.5 -37t98 -40t97 -49.5t79 -60t67.5 -77.5t39.5 -95.5t16.5 -119.5q0 -219 -145.5 -336.5 t-414.5 -117.5q-97 0 -185.5 23.5t-157 63.5t-120 91t-81.5 109q-12 23 -12 42q0 32 21.5 54t52.5 22q44 0 67 -38q61 -99 165.5 -160.5t249.5 -61.5q194 0 297.5 78t103.5 231q0 43 -12.5 80t-30 64t-52 53t-61.5 42.5t-77.5 36.5t-80.5 30t-88 30q-67 21 -101.5 33 t-94.5 37t-92.5 46t-75 56t-64 72.5t-37.5 90t-16 113.5q0 82 30.5 153t90 126.5t156.5 87.5t221 32q164 0 294.5 -64t205.5 -177q14 -20 14 -44q0 -21 -10 -38t-27 -26.5t-37 -9.5q-38 0 -62 30zM849 1693l-188 158l-189 -158q-14 -14 -38 -14q-23 0 -39.5 16.5t-16.5 39.5 q0 27 21 45l225 183q19 15 37 15q17 0 37 -15l224 -183q21 -18 21 -45q0 -23 -16.5 -39.5t-39.5 -16.5q-24 0 -38 14z" />
<glyph unicode="&#x15d;" horiz-adv-x="989" d="M483 947q-42 0 -77 -7t-65.5 -22t-47.5 -43t-17 -67t21 -70t56.5 -52.5t81.5 -40t97 -35.5t101.5 -36t96.5 -45t81.5 -59t56.5 -81.5t21 -108.5q0 -77 -30.5 -137t-84.5 -97t-125.5 -55.5t-156.5 -18.5q-132 0 -239.5 51t-159.5 117q-15 23 -15 45q0 28 19.5 47.5 t47.5 19.5t51 -23q115 -115 296 -115q52 0 95.5 9.5t78.5 28.5t54.5 52t19.5 76q0 39 -21 69t-56.5 51t-81.5 39t-97 35t-101.5 35.5t-97 45t-81.5 60t-56 83t-21 110.5q0 71 27.5 125.5t76.5 88.5t113 51t139 17q119 0 210 -38.5t145 -111.5q17 -22 17 -44 q0 -14 -5.5 -26.5t-14.5 -21.5t-22 -14t-26 -5q-29 0 -49 20q-51 49 -110 73.5t-145 24.5zM693 1232l-189 160l-189 -160q-14 -13 -37 -13t-39.5 16t-16.5 40q0 27 21 44l224 185q19 13 37 13q19 0 38 -13l224 -185q21 -17 21 -44q0 -24 -16.5 -40t-39.5 -16q-24 0 -38 13z " />
<glyph unicode="&#x15e;" horiz-adv-x="1301" d="M889 -325q0 -198 -226 -198q-42 0 -82.5 12.5t-66.5 29.5q-19 14 -19 35q0 18 12.5 31.5t29.5 13.5q15 0 28 -7q48 -24 98 -24q66 0 95 22t29 85q0 39 -12.5 63.5t-34.5 34.5t-56 10q-22 0 -53 -5t-43 -5q-18 0 -31 13t-11 38l5 148q-160 18 -280 96.5t-175 185.5 q-12 23 -12 42q0 32 21.5 54t52.5 22q44 0 67 -38q61 -99 165.5 -160.5t249.5 -61.5q194 0 297.5 78t103.5 231q0 43 -12.5 80t-30 64t-52 53t-61.5 42.5t-77.5 36.5t-80.5 30t-88 30q-67 21 -101.5 33t-94.5 37t-92.5 46t-75 56t-64 72.5t-37.5 90t-16 113.5q0 82 30.5 153 t90 126.5t156.5 87.5t221 32q164 0 294.5 -64t205.5 -177q14 -20 14 -44q0 -21 -10 -38t-27 -26.5t-37 -9.5q-38 0 -62 30q-148 184 -378 184q-89 0 -156 -20.5t-105.5 -56.5t-57.5 -80.5t-19 -96.5q0 -37 12 -69t27.5 -56t48.5 -48t58 -39t73 -34.5t76 -29.5t85 -29 q69 -24 104.5 -37t98 -40t97 -49.5t79 -60t67.5 -77.5t39.5 -95.5t16.5 -119.5q0 -220 -146 -337t-421 -117l-9 -105q42 5 62 5q103 0 153 -47.5t50 -144.5z" />
<glyph unicode="&#x15f;" horiz-adv-x="989" d="M728 -325q0 -198 -226 -198q-43 0 -83.5 12.5t-66.5 29.5q-18 13 -18 35q0 18 12.5 31.5t29.5 13.5q14 0 28 -7q47 -24 98 -24q66 0 95 22t29 85q0 58 -26 83t-77 25q-21 0 -52.5 -5t-42.5 -5q-18 0 -31 13t-12 38l5 158q-98 16 -177 61t-120 97q-15 23 -15 45 q0 28 19.5 47.5t47.5 19.5t51 -23q115 -115 296 -115q52 0 95.5 9.5t78.5 28.5t54.5 52t19.5 76q0 39 -21 69t-56.5 51t-81.5 39t-97 35t-101.5 35.5t-97 45t-81.5 60t-56 83t-21 110.5q0 71 27.5 125.5t76.5 88.5t113 51t139 17q119 0 210 -38.5t145 -111.5q17 -22 17 -44 q0 -14 -5.5 -26.5t-14.5 -21.5t-22 -14t-26 -5q-29 0 -49 20q-51 49 -110 73.5t-145 24.5q-42 0 -77 -7t-65.5 -22t-47.5 -43t-17 -67t21 -70t56.5 -52.5t81.5 -40t97 -35.5t101.5 -36t96.5 -45t81.5 -59t56.5 -81.5t21 -108.5q0 -103 -54.5 -173.5t-146.5 -102.5t-216 -32 l-9 -110q42 5 63 5q103 0 152.5 -47.5t49.5 -144.5z" />
<glyph unicode="&#x160;" horiz-adv-x="1301" d="M1034 1275q-148 184 -378 184q-89 0 -156 -20.5t-105.5 -56.5t-57.5 -80.5t-19 -96.5q0 -37 12 -69t27.5 -56t48.5 -48t58 -39t73 -34.5t76 -29.5t85 -29q69 -24 104.5 -37t98 -40t97 -49.5t79 -60t67.5 -77.5t39.5 -95.5t16.5 -119.5q0 -219 -145.5 -336.5 t-414.5 -117.5q-97 0 -185.5 23.5t-157 63.5t-120 91t-81.5 109q-12 23 -12 42q0 32 21.5 54t52.5 22q44 0 67 -38q61 -99 165.5 -160.5t249.5 -61.5q194 0 297.5 78t103.5 231q0 43 -12.5 80t-30 64t-52 53t-61.5 42.5t-77.5 36.5t-80.5 30t-88 30q-67 21 -101.5 33 t-94.5 37t-92.5 46t-75 56t-64 72.5t-37.5 90t-16 113.5q0 82 30.5 153t90 126.5t156.5 87.5t221 32q164 0 294.5 -64t205.5 -177q14 -20 14 -44q0 -21 -10 -38t-27 -26.5t-37 -9.5q-38 0 -62 30zM668 1805l189 158q15 15 37 15q23 0 40 -16.5t17 -39.5q0 -26 -22 -44 l-224 -185q-19 -14 -37 -14q-19 0 -38 14l-224 185q-21 17 -21 44q0 15 7.5 28t20.5 20.5t28 7.5q23 0 38 -15z" />
<glyph unicode="&#x161;" horiz-adv-x="989" d="M483 947q-42 0 -77 -7t-65.5 -22t-47.5 -43t-17 -67t21 -70t56.5 -52.5t81.5 -40t97 -35.5t101.5 -36t96.5 -45t81.5 -59t56.5 -81.5t21 -108.5q0 -77 -30.5 -137t-84.5 -97t-125.5 -55.5t-156.5 -18.5q-132 0 -239.5 51t-159.5 117q-15 23 -15 45q0 28 19.5 47.5 t47.5 19.5t51 -23q115 -115 296 -115q52 0 95.5 9.5t78.5 28.5t54.5 52t19.5 76q0 39 -21 69t-56.5 51t-81.5 39t-97 35t-101.5 35.5t-97 45t-81.5 60t-56 83t-21 110.5q0 71 27.5 125.5t76.5 88.5t113 51t139 17q119 0 210 -38.5t145 -111.5q17 -22 17 -44 q0 -14 -5.5 -26.5t-14.5 -21.5t-22 -14t-26 -5q-29 0 -49 20q-51 49 -110 73.5t-145 24.5zM495 1292l189 158q14 14 38 14q23 0 39 -16.5t16 -39.5q0 -27 -20 -45l-225 -184q-18 -14 -37.5 -14t-37.5 14l-223 184q-22 18 -22 45q0 15 8 28t21 20.5t28 7.5q23 0 37 -14z" />
<glyph unicode="&#x162;" horiz-adv-x="1255" d="M548 1422h-417q-32 0 -53.5 21.5t-21.5 53t21.5 53t53.5 21.5h992q32 0 53.5 -21.5t21.5 -52.5q0 -21 -10 -38.5t-27 -27t-38 -9.5h-415v-1362q0 -33 -23 -55.5t-56.5 -22.5t-57 22.5t-23.5 55.5v1362zM728 -234q0 -112 -31.5 -190.5t-105.5 -152.5q-12 -11 -26 -11 q-6 0 -11.5 2t-9.5 6t-6.5 10t-2.5 13q0 11 9 20q35 36 51.5 71.5t16.5 80.5q0 27 -13 51.5t-29 40t-29 41t-13 54.5q0 33 12 55.5t33.5 33.5t52.5 11q50 0 76 -32t26 -104z" />
<glyph unicode="&#x163;" horiz-adv-x="650" d="M210 1060v245q0 20 10.5 37t27.5 27t37 10q31 0 52.5 -21.5t21.5 -52.5v-245h153q30 0 49.5 -20t19.5 -50t-19.5 -50t-49.5 -20h-153v-644q0 -49 17.5 -84.5t48 -53t70.5 -17.5q30 0 51.5 -20t21.5 -50q0 -19 -10 -35t-26.5 -25t-36.5 -9q-135 0 -210 81t-75 213v644h-91 q-30 0 -50 20t-20 50t20 50t50 20h91zM474 -234q0 -112 -31.5 -190.5t-106.5 -152.5q-11 -11 -26 -11q-12 0 -21 8.5t-9 22.5q0 11 10 20q23 24 38 47t22 48.5t7 56.5q0 27 -13 51.5t-28.5 40t-28.5 41t-13 54.5q0 49 25.5 74.5t72.5 25.5q50 0 76 -32t26 -104z" />
<glyph unicode="&#x164;" horiz-adv-x="1255" d="M548 1422h-417q-32 0 -53.5 21.5t-21.5 53t21.5 53t53.5 21.5h992q32 0 53.5 -21.5t21.5 -52.5q0 -21 -10 -38.5t-27 -27t-38 -9.5h-415v-1362q0 -33 -23 -55.5t-56.5 -22.5t-57 22.5t-23.5 55.5v1362zM630 1805l190 158q14 15 37 15t39.5 -16.5t16.5 -39.5 q0 -26 -22 -44l-223 -185q-18 -14 -37.5 -14t-37.5 14l-224 185q-21 18 -21 44q0 15 7.5 28t20 20.5t28.5 7.5q22 0 37 -15z" />
<glyph unicode="&#x165;" horiz-adv-x="650" d="M210 1060v245q0 20 10.5 37t27.5 27t37 10q31 0 52.5 -21.5t21.5 -52.5v-245h153q30 0 49.5 -20t19.5 -50t-19.5 -50t-49.5 -20h-153v-644q0 -49 17.5 -84.5t48 -53t70.5 -17.5q30 0 51.5 -20t21.5 -50q0 -19 -10 -35t-26.5 -25t-36.5 -9q-135 0 -210 81t-75 213v644h-91 q-30 0 -50 20t-20 50t20 50t50 20h91zM740 1569q0 -119 -44.5 -227.5t-123.5 -190.5q-15 -14 -30 -14q-10 0 -18 4.5t-13 12.5t-5 18t8 22q46 64 66 109t20 103q0 29 -13 55t-29 42.5t-29 43.5t-13 59q0 57 29 84.5t81 27.5q114 0 114 -149z" />
<glyph unicode="&#x166;" horiz-adv-x="1255" d="M548 1422h-417q-32 0 -53.5 21.5t-21.5 53t21.5 53t53.5 21.5h992q32 0 53.5 -21.5t21.5 -52.5q0 -21 -10 -38.5t-27 -27t-38 -9.5h-415v-567h188q25 0 42 -17t17 -42t-17 -41.5t-42 -16.5h-188v-678q0 -33 -23 -55.5t-56.5 -22.5t-57 22.5t-23.5 55.5v678h-203 q-24 0 -41 16.5t-17 41.5q0 12 4.5 23t12.5 19t18.5 12.5t22.5 4.5h203v567z" />
<glyph unicode="&#x167;" horiz-adv-x="650" d="M581 700q0 -25 -16.5 -41.5t-41.5 -16.5h-164v-366q0 -49 17.5 -84.5t48 -53t70.5 -17.5q30 0 51.5 -20t21.5 -50q0 -19 -10 -35t-26.5 -25t-36.5 -9q-135 0 -210 81t-75 213v366h-103q-25 0 -41.5 16.5t-16.5 41.5t16.5 42t41.5 17h103v161h-91q-30 0 -50 20t-20 50 t20 50t50 20h91v245q0 20 10.5 37t27.5 27t37 10q31 0 52.5 -21.5t21.5 -52.5v-245h153q30 0 49.5 -20t19.5 -50t-19.5 -50t-49.5 -20h-153v-161h164q25 0 41.5 -17t16.5 -42z" />
<glyph unicode="&#x168;" horiz-adv-x="1459" d="M737.5 -33q-92.5 0 -169 15t-132.5 41.5t-99.5 64.5t-70.5 81.5t-45 96t-25 104t-7 109.5v1031q0 34 23.5 57t56.5 23t56 -23t23 -57v-1031q0 -37 3.5 -69t11.5 -65.5t23 -61.5t35.5 -54.5t51 -46.5t68 -35t87.5 -23t110 -8q93 0 163 20.5t112 53.5t68 81.5t35 98 t9 109.5v1031q0 34 23.5 57t56.5 23t56 -23t23 -57v-1031q0 -58 -7 -109.5t-24.5 -104t-44.5 -96t-70 -81.5t-99 -64.5t-132.5 -41.5t-169 -15zM614 1912q39 0 78 -14.5t66.5 -31.5t63 -31t67.5 -14q35 0 58 15t49 51q19 25 47 25q23 0 40 -16.5t17 -39.5q0 -11 -8 -27 q-26 -52 -77.5 -87t-125.5 -35q-39 0 -78 14t-66 31t-62.5 31.5t-68.5 14.5q-35 0 -58.5 -15t-49.5 -50q-20 -26 -47 -26q-23 0 -39 16t-16 39q0 15 6 29q27 51 78.5 86t125.5 35z" />
<glyph unicode="&#x169;" horiz-adv-x="1134" d="M203 1078q20 0 37 -9.5t27.5 -26.5t10.5 -38v-610q0 -49 7 -88t26 -76.5t50 -62.5t82 -40t120 -15t120 15t82 40t50 62.5t25.5 76.5t6.5 88v610q0 32 23 53t55 21q19 0 35.5 -9.5t26 -26.5t9.5 -38v-610q0 -44 -3.5 -82t-12.5 -77.5t-25.5 -72.5t-39.5 -63.5t-56 -53.5 t-75.5 -40.5t-98 -26.5t-122.5 -9q-75 0 -137 12t-106.5 33t-78 52.5t-55 67t-34.5 79.5t-18 87.5t-5 93.5v610q0 32 21 53t53 21zM441 1441q38 0 77.5 -14.5t67.5 -31.5t63.5 -31t67.5 -14q35 0 58 14.5t49 50.5q20 26 47 26q23 0 39.5 -17t16.5 -40q0 -14 -7 -27 q-17 -33 -42.5 -59t-67.5 -44.5t-93 -18.5q-39 0 -78.5 14t-66.5 31t-62.5 31.5t-68.5 14.5q-35 0 -58 -15t-49 -50q-20 -26 -47 -26q-11 0 -21.5 4.5t-18 12t-12 18t-4.5 22.5q0 13 7 27q17 33 42.5 59t67.5 44.5t93 18.5z" />
<glyph unicode="&#x16a;" horiz-adv-x="1455" d="M735.5 -33q-92.5 0 -169.5 15t-132.5 41.5t-99 64.5t-71 81.5t-45 96t-24.5 104t-7 109.5v1031q0 34 22.5 57t56 23t56.5 -23t23 -57v-1031q0 -37 4 -69t12 -65.5t22.5 -61.5t35.5 -54.5t51 -46.5t68 -35t88 -23t109 -8q93 0 163 20.5t112 53.5t68 81.5t35.5 98 t9.5 109.5v1031q0 34 23 57t56.5 23t56 -23t22.5 -57v-1031q0 -58 -7 -109.5t-24 -104t-44.5 -96t-70.5 -81.5t-98.5 -64.5t-132 -41.5t-169 -15zM1023 1769q0 -25 -17 -41.5t-42 -16.5h-434q-25 0 -41.5 16.5t-16.5 41.5t16.5 42.5t41.5 17.5h434q25 0 42 -17.5t17 -42.5z " />
<glyph unicode="&#x16b;" horiz-adv-x="1134" d="M203 1078q20 0 37 -9.5t27.5 -26.5t10.5 -38v-610q0 -49 7 -88t26 -76.5t50 -62.5t82 -40t120 -15t120 15t82 40t50 62.5t25.5 76.5t6.5 88v610q0 32 23 53t55 21q19 0 35.5 -9.5t26 -26.5t9.5 -38v-610q0 -44 -3.5 -82t-12.5 -77.5t-25.5 -72.5t-39.5 -63.5t-56 -53.5 t-75.5 -40.5t-98 -26.5t-122.5 -9q-75 0 -137 12t-106.5 33t-78 52.5t-55 67t-34.5 79.5t-18 87.5t-5 93.5v610q0 32 21 53t53 21zM857 1312q0 -25 -17 -41.5t-42 -16.5h-434q-25 0 -41.5 16.5t-16.5 41.5t16.5 41.5t41.5 16.5h434q25 0 42 -16.5t17 -41.5z" />
<glyph unicode="&#x16c;" horiz-adv-x="1455" d="M735.5 -33q-92.5 0 -169.5 15t-132.5 41.5t-99 64.5t-71 81.5t-45 96t-24.5 104t-7 109.5v1031q0 34 22.5 57t56 23t56.5 -23t23 -57v-1031q0 -37 4 -69t12 -65.5t22.5 -61.5t35.5 -54.5t51 -46.5t68 -35t88 -23t109 -8q93 0 163 20.5t112 53.5t68 81.5t35.5 98 t9.5 109.5v1031q0 34 23 57t56.5 23t56 -23t22.5 -57v-1031q0 -58 -7 -109.5t-24 -104t-44.5 -96t-70.5 -81.5t-98.5 -64.5t-132 -41.5t-169 -15zM737.5 1704q-54.5 0 -100.5 14t-83 41.5t-58.5 73.5t-21.5 107q0 23 16.5 39.5t39.5 16.5t39.5 -16.5t16.5 -39.5 q0 -129 151.5 -129t151.5 129q0 23 16.5 39.5t39.5 16.5q9 0 17.5 -3t15.5 -8t12.5 -12t8.5 -15.5t3 -17.5q0 -60 -21.5 -106.5t-58.5 -74t-83.5 -41.5t-101 -14z" />
<glyph unicode="&#x16d;" horiz-adv-x="1134" d="M203 1078q20 0 37 -9.5t27.5 -26.5t10.5 -38v-610q0 -49 7 -88t26 -76.5t50 -62.5t82 -40t120 -15t120 15t82 40t50 62.5t25.5 76.5t6.5 88v610q0 32 23 53t55 21q19 0 35.5 -9.5t26 -26.5t9.5 -38v-610q0 -44 -3.5 -82t-12.5 -77.5t-25.5 -72.5t-39.5 -63.5t-56 -53.5 t-75.5 -40.5t-98 -26.5t-122.5 -9q-75 0 -137 12t-106.5 33t-78 52.5t-55 67t-34.5 79.5t-18 87.5t-5 93.5v610q0 32 21 53t53 21zM563 1235q-54 0 -100.5 13.5t-84 41t-58.5 74t-21 107.5q0 23 16 39t39.5 16t39.5 -16t16 -39q0 -128 153 -128q152 0 152 128q0 23 16.5 39 t39.5 16t39 -16t16 -39q0 -61 -21 -107.5t-58 -74t-83.5 -41t-100.5 -13.5z" />
<glyph unicode="&#x16e;" horiz-adv-x="1455" d="M735.5 -33q-92.5 0 -169.5 15t-132.5 41.5t-99 64.5t-71 81.5t-45 96t-24.5 104t-7 109.5v1031q0 34 22.5 57t56 23t56.5 -23t23 -57v-1031q0 -37 4 -69t12 -65.5t22.5 -61.5t35.5 -54.5t51 -46.5t68 -35t88 -23t109 -8q93 0 163 20.5t112 53.5t68 81.5t35.5 98 t9.5 109.5v1031q0 34 23 57t56.5 23t56 -23t22.5 -57v-1031q0 -58 -7 -109.5t-24 -104t-44.5 -96t-70.5 -81.5t-98.5 -64.5t-132 -41.5t-169 -15zM751 1642q-121 0 -182 59t-61 168.5t61 169.5t182.5 60t182 -60t60.5 -169q0 -73 -26 -123t-80.5 -77.5t-136.5 -27.5z M751.5 2010q-78.5 0 -112 -34t-33.5 -106q0 -35 8 -60.5t25 -43.5t44.5 -26.5t67.5 -8.5q53 0 85.5 16t46 46t13.5 77q0 72 -33 106t-111.5 34z" />
<glyph unicode="&#x16f;" horiz-adv-x="1134" d="M203 1078q20 0 37 -9.5t27.5 -26.5t10.5 -38v-610q0 -49 7 -88t26 -76.5t50 -62.5t82 -40t120 -15t120 15t82 40t50 62.5t25.5 76.5t6.5 88v610q0 32 23 53t55 21q19 0 35.5 -9.5t26 -26.5t9.5 -38v-610q0 -44 -3.5 -82t-12.5 -77.5t-25.5 -72.5t-39.5 -63.5t-56 -53.5 t-75.5 -40.5t-98 -26.5t-122.5 -9q-75 0 -137 12t-106.5 33t-78 52.5t-55 67t-34.5 79.5t-18 87.5t-5 93.5v610q0 32 21 53t53 21zM572 1172q-81 0 -136 28t-81 78.5t-26 122.5q0 109 61 169t182.5 60t182 -60t60.5 -169q0 -54 -15 -96t-44.5 -72t-76 -45.5t-107.5 -15.5z M572.5 1541q-78.5 0 -111.5 -34t-33 -106q0 -35 7.5 -60.5t24.5 -43.5t45 -27t67 -9q53 0 85.5 16.5t46 46.5t13.5 77q0 72 -33 106t-111.5 34z" />
<glyph unicode="&#x170;" horiz-adv-x="1455" d="M724 -33q-81 0 -150 11.5t-122 32.5t-95.5 50t-72.5 66t-51.5 77t-33.5 86.5t-17.5 92.5t-5.5 96v1031q0 34 22.5 57t56 23t56.5 -23t23 -57v-1031q0 -60 9.5 -109t35.5 -98t68 -82t112.5 -53.5t164.5 -20.5q93 0 163 20.5t112 53.5t68 81.5t35.5 98t9.5 109.5v1031 q0 34 22.5 57t56 23t56.5 -23t23 -57v-1031q0 -58 -7 -109.5t-24.5 -104t-44.5 -96t-70 -81.5t-98.5 -64.5t-132.5 -41.5t-169 -15zM519 1691q-38 30 -7 69l207 252q16 19 37.5 21t51.5 -21q49 -46 7 -88l-227 -229q-33 -33 -69 -4zM773 1691q-38 30 -7 69l208 252 q15 19 37 21t51 -21q49 -46 7 -88l-227 -229q-33 -33 -69 -4z" />
<glyph unicode="&#x171;" horiz-adv-x="1134" d="M203 1078q20 0 37 -9.5t27.5 -26.5t10.5 -38v-610q0 -49 7 -88t26 -76.5t50 -62.5t82 -40t120 -15t120 15t82 40t50 62.5t25.5 76.5t6.5 88v610q0 32 23 53t55 21q19 0 35.5 -9.5t26 -26.5t9.5 -38v-610q0 -44 -3.5 -82t-12.5 -77.5t-25.5 -72.5t-39.5 -63.5t-56 -53.5 t-75.5 -40.5t-98 -26.5t-122.5 -9q-75 0 -137 12t-106.5 33t-78 52.5t-55 67t-34.5 79.5t-18 87.5t-5 93.5v610q0 32 21 53t53 21zM364 1214q-38 30 -7 70l208 253q16 19 37 20.5t51 -20.5q50 -47 8 -89l-227 -229q-34 -34 -70 -5zM619 1214q-38 30 -7 70l208 253 q15 19 37 21t52 -21q49 -47 6 -89l-226 -229q-34 -34 -70 -5z" />
<glyph unicode="&#x172;" horiz-adv-x="1455" d="M1083 -292q21 0 36 -15t15 -36q0 -30 -25 -45q-66 -40 -169 -40q-111 0 -175.5 52t-64.5 147q0 120 113 201q-42 -5 -78 -5q-92 0 -169 15t-132.5 41.5t-99 64.5t-71 81.5t-45 96t-24.5 104t-7 109.5v1031q0 34 22.5 57t56 23t56.5 -23t23 -57v-1031q0 -37 4 -69 t12 -65.5t22.5 -61.5t35.5 -54.5t51 -46.5t68 -35t88 -23t109 -8q93 0 163 20.5t112 53.5t68 81.5t35.5 98t9.5 109.5v1031q0 34 23 57t56.5 23t56 -23t22.5 -57v-1031q0 -381 -307 -479q-62 -27 -109.5 -79.5t-47.5 -116.5q0 -61 34.5 -92.5t93.5 -31.5q58 0 111 21 q17 7 27 7z" />
<glyph unicode="&#x173;" horiz-adv-x="1125" d="M876 -292q21 0 36 -15t15 -36q0 -30 -25 -45q-67 -40 -169 -40q-74 0 -127.5 23t-83.5 67.5t-30 108.5q0 117 118 201q-21 -3 -47 -3q-75 0 -137 12t-106.5 33t-78 52.5t-55 67t-34.5 79.5t-18 87.5t-5 93.5v610q0 32 21 53t53 21q20 0 37 -9.5t27.5 -26.5t10.5 -38v-610 q0 -49 7 -88t26 -76.5t50 -62.5t82 -40t120 -15t120 15t82 40t50 62.5t25.5 76.5t6.5 88v610q0 32 23 53t55 21q19 0 35.5 -9.5t26 -26.5t9.5 -38v-610q0 -70 -10 -127t-34.5 -111t-71 -94t-114.5 -62q-40 -16 -74 -43t-58 -68t-24 -85q0 -61 34.5 -92.5t93.5 -31.5 q57 0 109 21q17 7 29 7z" />
<glyph unicode="&#x174;" horiz-adv-x="1909" d="M1292 42l-337 1188l-336 -1188q-2 -8 -5 -15t-7.5 -13t-10 -11t-11.5 -9t-13 -7t-14.5 -4t-15.5 -1q-27 0 -48.5 16t-28.5 42l-414 1442q-4 18 -4 28q0 34 23 57t57 23q30 0 50 -18t26 -41l341 -1206l334 1206q6 27 28 43t49.5 16t48.5 -15.5t28 -43.5l334 -1206 l341 1206q6 23 26 41t51 18q33 0 56 -23t23 -57q0 -10 -5 -28l-412 -1442q-5 -17 -16.5 -30.5t-27.5 -20.5t-34 -7q-28 0 -49 16t-27 44zM1145 1693l-190 158l-189 -158q-14 -14 -38 -14q-23 0 -39 16.5t-16 39.5q0 27 20 45l225 183q19 15 37 15q17 0 37 -15l224 -183 q21 -18 21 -45q0 -23 -16.5 -39.5t-39.5 -16.5t-36 14z" />
<glyph unicode="&#x175;" horiz-adv-x="1493" d="M962 35l-215 740l-215 -740q-6 -24 -26.5 -38.5t-46.5 -14.5q-51 0 -69 49l-343 940q-7 17 -7 33q0 32 21 53t53 21q16 0 30 -5.5t24.5 -16.5t16.5 -27l270 -773l222 773q6 20 24 34.5t45.5 14.5t46.5 -14.5t24 -34.5l222 -773l271 773q18 49 69 49q21 0 38.5 -9.5 t27.5 -26.5t10 -38q0 -16 -7 -33l-343 -940q-9 -23 -27.5 -36t-43.5 -13t-45 14.5t-27 38.5zM936 1232l-189 160l-190 -160q-13 -13 -36 -13t-39.5 16t-16.5 40q0 27 21 44l224 185q18 13 37 13t37 -13l225 -185q20 -17 20 -44q0 -24 -16 -40t-39 -16q-24 0 -38 13z" />
<glyph unicode="&#x176;" d="M604 -18q-33 0 -55.5 22.5t-22.5 55.5v671l-470 737q-12 19 -12 42q0 34 23.5 57t56.5 23q45 0 68 -37l412 -664l414 664q23 37 67 37q34 0 57 -23t23 -57q0 -23 -11 -42l-470 -737v-671q0 -21 -10.5 -39.5t-29 -28.5t-40.5 -10zM793 1693l-189 158l-188 -158 q-14 -14 -38 -14q-23 0 -39 16.5t-16 39.5q0 27 20 45l225 183q19 15 36 15q18 0 38 -15l224 -183q21 -18 21 -45q0 -23 -16.5 -39.5t-39.5 -16.5q-24 0 -38 14z" />
<glyph unicode="&#x177;" horiz-adv-x="1022" d="M82 -329q59 0 105.5 18t76.5 41.5t62.5 80t50.5 97t54 128.5q2 6 3 8l-390 927q-6 21 -6 33q0 32 21 53t53 21q51 0 70 -49l330 -804l328 804q20 49 71 49q31 0 52.5 -21t21.5 -53q0 -12 -7 -33l-459 -1095q-50 -119 -107 -192.5t-138.5 -113.5t-191.5 -40 q-30 0 -50.5 20.5t-20.5 50.5t20.5 50t50.5 20zM700 1232l-188 160l-189 -160q-14 -13 -38 -13q-23 0 -39.5 16t-16.5 40q0 27 21 44l224 185q18 13 38 13q18 0 36 -13l225 -185q20 -17 20 -44q0 -24 -16 -40t-39 -16q-24 0 -38 13z" />
<glyph unicode="&#x178;" d="M604 -18q-33 0 -55.5 22.5t-22.5 55.5v671l-470 737q-12 19 -12 42q0 34 23.5 57t56.5 23q45 0 68 -37l412 -664l414 664q23 37 67 37q34 0 57 -23t23 -57q0 -23 -11 -42l-470 -737v-671q0 -21 -10.5 -39.5t-29 -28.5t-40.5 -10zM421 1731q-85 0 -85 85q0 89 85 89 q83 0 83 -89q0 -85 -83 -85zM786.5 1731q-84.5 0 -84.5 85q0 89 84.5 89t84.5 -89q0 -85 -84.5 -85z" />
<glyph unicode="&#x179;" horiz-adv-x="1197" d="M1096 0h-982q-32 0 -53 21.5t-21 53.5q0 23 14 44l868 1303h-759q-32 0 -53 21.5t-21 53t21 53t53 21.5h897q32 0 53 -21.5t21 -52.5q0 -24 -13 -45l-862 -1303h837q31 0 52.5 -21t21.5 -53t-21.5 -53.5t-52.5 -21.5zM516 1691q-38 30 -8 69l209 252q15 19 37 21t52 -21 q49 -46 7 -88l-227 -229q-33 -33 -70 -4z" />
<glyph unicode="&#x17a;" horiz-adv-x="945" d="M89 990q0 30 20 50t49 20h640q15 0 28 -5.5t22.5 -15t15 -22.5t5.5 -27q0 -26 -16 -47l-582 -798h540q29 0 50 -21.5t21 -51.5t-21 -51t-50 -21h-684q-30 0 -50.5 20t-20.5 50q0 26 16 46l589 804h-503q-29 0 -49 20t-20 50zM352 1214q-37 30 -7 70l208 253q15 19 37 21 t52 -21q49 -47 7 -89l-226 -229q-34 -34 -71 -5z" />
<glyph unicode="&#x17b;" horiz-adv-x="1197" d="M1096 0h-982q-32 0 -53 21.5t-21 53.5q0 23 14 44l868 1303h-759q-32 0 -53 21.5t-21 53t21 53t53 21.5h897q32 0 53 -21.5t21 -52.5q0 -24 -13 -45l-862 -1303h837q31 0 52.5 -21t21.5 -53t-21.5 -53.5t-52.5 -21.5zM606 1718q-87 0 -87 91q0 94 87 94q89 0 89 -94 q0 -91 -89 -91z" />
<glyph unicode="&#x17c;" horiz-adv-x="945" d="M89 990q0 30 20 50t49 20h640q15 0 28 -5.5t22.5 -15t15 -22.5t5.5 -27q0 -26 -16 -47l-582 -798h540q29 0 50 -21.5t21 -51.5t-21 -51t-50 -21h-684q-30 0 -50.5 20t-20.5 50q0 26 16 46l589 804h-503q-29 0 -49 20t-20 50zM488 1270q-89 0 -89 91q0 94 89 94t89 -94 q0 -91 -89 -91z" />
<glyph unicode="&#x17d;" horiz-adv-x="1197" d="M1096 0h-982q-32 0 -53 21.5t-21 53.5q0 23 14 44l868 1303h-759q-32 0 -53 21.5t-21 53t21 53t53 21.5h897q32 0 53 -21.5t21 -52.5q0 -24 -13 -45l-862 -1303h837q31 0 52.5 -21t21.5 -53t-21.5 -53.5t-52.5 -21.5zM630 1805l190 158q14 15 37 15t39.5 -16.5 t16.5 -39.5q0 -26 -22 -44l-223 -185q-18 -14 -37.5 -14t-37.5 14l-224 185q-21 18 -21 44q0 15 7.5 28t20 20.5t28.5 7.5q22 0 37 -15z" />
<glyph unicode="&#x17e;" horiz-adv-x="945" d="M89 990q0 30 20 50t49 20h640q15 0 28 -5.5t22.5 -15t15 -22.5t5.5 -27q0 -26 -16 -47l-582 -798h540q29 0 50 -21.5t21 -51.5t-21 -51t-50 -21h-684q-30 0 -50.5 20t-20.5 50q0 26 16 46l589 804h-503q-29 0 -49 20t-20 50zM495 1292l189 158q14 14 38 14q23 0 39 -16.5 t16 -39.5q0 -27 -20 -45l-225 -184q-18 -14 -37.5 -14t-37.5 14l-223 184q-22 18 -22 45q0 15 8 28t21 20.5t28 7.5q23 0 37 -14z" />
<glyph unicode="&#x17f;" horiz-adv-x="522" d="M198 920h-79q-30 0 -50 20t-20 50t20 50t50 20h79v138q0 54 10.5 103t31 94.5t54 82.5t77 64t102.5 42t129 15q30 0 50.5 -20t20.5 -50t-20.5 -50t-50.5 -20q-131 0 -192.5 -70t-61.5 -191v-1142q0 -32 -21.5 -53t-53 -21t-53.5 21t-22 53v864z" />
<glyph unicode="&#x192;" horiz-adv-x="956" d="M990 1495q0 -25 -17 -42t-42 -17q-13 0 -40 12q-25 10 -42.5 16t-41.5 9.5t-52 3.5q-53 0 -93 -17t-67.5 -51.5t-45.5 -81t-30 -111.5l-52 -287h226q27 0 45.5 -18t18.5 -44.5t-18.5 -44.5t-45.5 -18h-247l-145 -804q-40 -223 -161.5 -346.5t-324.5 -123.5q-84 0 -151 27 q-52 18 -52 62q0 27 18.5 45t44.5 18q13 0 26 -5q6 -1 18.5 -5t17.5 -5.5t16 -3.5t20.5 -3t23 -2t30.5 -1q132 0 214.5 86t110.5 236l147 825h-152q-26 0 -44.5 18t-18.5 44.5t18.5 44.5t44.5 18h173l49 269q35 197 127 301.5t259 104.5q122 0 200 -51q35 -23 35 -58z" />
<glyph unicode="&#x1e2;" horiz-adv-x="1963" d="M1796 0h-776q-33 0 -56.5 23t-23.5 57v385h-492l-277 -447q-20 -36 -68 -36q-34 0 -58 23.5t-24 57.5q0 19 17 46l915 1425q23 37 67 37h749q30 0 51.5 -21t21.5 -51t-21.5 -51.5t-51.5 -21.5h-669v-562h513q15 0 28.5 -6t23 -15.5t15.5 -23t6 -28.5q0 -30 -21.5 -51 t-51.5 -21h-513v-574h696q29 0 50 -21.5t21 -51.5t-21 -51t-50 -21zM532 610h408v653zM1524 1788.5q0 -24.5 -16.5 -41t-41.5 -16.5h-434q-25 0 -41.5 16.5t-16.5 41t16.5 41.5t41.5 17h434q25 0 41.5 -17t16.5 -41.5z" />
<glyph unicode="&#x1e3;" horiz-adv-x="1816" d="M542 953q-92 0 -150 -26.5t-121 -93.5q-28 -33 -61 -33q-28 0 -48 20t-20 49q0 21 12 40q34 53 85.5 93t129.5 65t173 25q131 0 226 -48.5t143 -137.5q123 186 381 186q77 0 142 -17t110 -44.5t80 -66t56 -78.5t34.5 -85.5t18 -83.5t4.5 -75v-23t-1 -23t-2.5 -23 t-4.5 -20.5t-7.5 -20t-11.5 -16t-16.5 -13t-22 -8t-27.5 -3.5h-682q0 -175 94.5 -280t257.5 -105q92 0 155.5 27t125.5 73q22 15 42 15q28 0 47.5 -20t19.5 -48.5t-25 -53.5q-17 -17 -44 -35.5t-72 -42t-110.5 -38.5t-138.5 -15q-155 0 -264.5 58.5t-153.5 173.5 q-116 -232 -413 -232q-123 0 -213.5 38.5t-140 114t-49.5 181.5q0 153 108.5 237t299.5 84h329v71q0 119 -73.5 188.5t-201.5 69.5zM497 105q62 0 119 19t102 55.5t72 94.5t27 130v88h-329q-120 0 -188.5 -45.5t-68.5 -143.5q0 -93 66.5 -145.5t199.5 -52.5zM1590 624 q0 44 -5.5 83t-18 77.5t-35.5 69t-55 54.5t-79 37t-105 13q-150 0 -234.5 -88t-95.5 -246h628zM1186 1354q0 -16 -8 -29.5t-21 -21t-30 -7.5h-434q-16 0 -29.5 7.5t-21 21t-7.5 29.5q0 25 16.5 41.5t41.5 16.5h434q25 0 42 -16.5t17 -41.5z" />
<glyph unicode="&#x1fa;" horiz-adv-x="1437" d="M1043 465h-651l-170 -427q-9 -25 -29 -40.5t-48 -15.5q-33 0 -56.5 23.5t-23.5 54.5q0 22 7 36l558 1414q-156 39 -156 221q0 72 26 122t81 78t136 28q122 0 182.5 -59.5t60.5 -168.5q0 -87 -39.5 -144t-116.5 -77l559 -1414q7 -17 7 -36q0 -32 -23 -55t-59 -23 q-56 0 -76 53zM994 610l-277 714l-276 -714h553zM717.5 1870q-78.5 0 -112 -33.5t-33.5 -105.5q0 -71 33.5 -106t111.5 -35t111.5 35t33.5 106q0 72 -33 105.5t-111.5 33.5zM570 2027q-38 30 -7 69l208 252q15 20 37 21.5t52 -21.5q49 -46 6 -89l-226 -228q-34 -33 -70 -4z " />
<glyph unicode="&#x1fb;" horiz-adv-x="1089" d="M542 953q-92 0 -153.5 -28.5t-117.5 -91.5q-28 -33 -61 -33q-28 0 -48 20t-20 49q0 21 12 40q34 53 85.5 93t129.5 65t173 25q100 0 179.5 -28.5t132.5 -80.5t80.5 -125t27.5 -163v-641q0 -30 -21.5 -51t-51.5 -21t-51 21t-21 51v84q-28 -53 -80.5 -92t-117.5 -58 t-136 -19q-123 0 -213.5 38.5t-140 114t-49.5 181.5q0 154 109.5 242t298.5 88h329v62q0 119 -73.5 188.5t-201.5 69.5zM497 105q62 0 119 19t102 55.5t72 94.5t27 130v98h-329q-118 0 -187.5 -50t-69.5 -149q0 -93 66.5 -145.5t199.5 -52.5zM539.5 1141q-121.5 0 -182.5 60 t-61 169q0 54 15 96t44.5 72t76 45.5t107.5 15.5t107.5 -15.5t76 -45.5t44.5 -72t15 -96q0 -109 -60.5 -169t-182 -60zM539.5 1510q-78.5 0 -112 -34t-33.5 -106q0 -71 33.5 -105.5t111.5 -34.5t111.5 34.5t33.5 105.5q0 72 -33 106t-111.5 34zM385 1655q-37 30 -7 70 l208 253q15 19 37 21t52 -21q49 -46 7 -89l-227 -229q-34 -34 -70 -5z" />
<glyph unicode="&#x1fc;" horiz-adv-x="1963" d="M1796 0h-776q-33 0 -56.5 23t-23.5 57v385h-492l-277 -447q-20 -36 -68 -36q-34 0 -58 23.5t-24 57.5q0 19 17 46l915 1425q23 37 67 37h749q30 0 51.5 -21t21.5 -51t-21.5 -51.5t-51.5 -21.5h-669v-562h513q15 0 28.5 -6t23 -15.5t15.5 -23t6 -28.5q0 -30 -21.5 -51 t-51.5 -21h-513v-574h696q29 0 50 -21.5t21 -51.5t-21 -51t-50 -21zM532 610h408v653zM1212 1691q-38 30 -7 69l207 252q16 19 38 21t51 -21q49 -46 7 -88l-227 -229q-33 -33 -69 -4z" />
<glyph unicode="&#x1fd;" horiz-adv-x="1816" d="M542 953q-92 0 -150 -26.5t-121 -93.5q-28 -33 -61 -33q-28 0 -48 20t-20 49q0 21 12 40q34 53 85.5 93t129.5 65t173 25q131 0 226 -48.5t143 -137.5q123 186 381 186q77 0 142 -17t110 -44.5t80 -66t56 -78.5t34.5 -85.5t18 -83.5t4.5 -75v-23t-1 -23t-2.5 -23 t-4.5 -20.5t-7.5 -20t-11.5 -16t-16.5 -13t-22 -8t-27.5 -3.5h-682q0 -175 94.5 -280t257.5 -105q92 0 155.5 27t125.5 73q22 15 42 15q28 0 47.5 -20t19.5 -48.5t-25 -53.5q-17 -17 -44 -35.5t-72 -42t-110.5 -38.5t-138.5 -15q-155 0 -264.5 58.5t-153.5 173.5 q-116 -232 -413 -232q-123 0 -213.5 38.5t-140 114t-49.5 181.5q0 153 108.5 237t299.5 84h329v71q0 119 -73.5 188.5t-201.5 69.5zM497 105q62 0 119 19t102 55.5t72 94.5t27 130v88h-329q-120 0 -188.5 -45.5t-68.5 -143.5q0 -93 66.5 -145.5t199.5 -52.5zM1590 624 q0 44 -5.5 83t-18 77.5t-35.5 69t-55 54.5t-79 37t-105 13q-150 0 -234.5 -88t-95.5 -246h628zM793 1256q-37 30 -6 70l207 252q15 19 37 21t52 -21q49 -46 7 -88l-226 -229q-34 -34 -71 -5z" />
<glyph unicode="&#x1fe;" horiz-adv-x="1655" d="M826 -33q-284 0 -457 136l-110 -141q-19 -22 -47 -22q-26 0 -44.5 18t-18.5 44q0 21 12 36l119 149q-177 212 -177 597q0 205 49 361t143 257t227.5 151.5t303.5 50.5q281 0 460 -138l108 136q19 22 47 22q26 0 44.5 -18t18.5 -44q0 -21 -12 -36l-115 -144 q176 -214 176 -598q0 -203 -49.5 -358.5t-143.5 -256t-228 -151.5t-306 -51zM826 1459q-134 0 -237.5 -41.5t-176 -124t-109.5 -211t-37 -298.5q0 -298 115 -466l809 1025q-140 116 -364 116zM1390 784q0 298 -115 465l-810 -1024q137 -113 361 -113q135 0 239 41.5 t176.5 124t110.5 210t38 296.5zM698 1691q-38 30 -7 69l207 252q16 19 37.5 21t51.5 -21q49 -46 7 -88l-226 -229q-34 -34 -70 -4z" />
<glyph unicode="&#x1ff;" horiz-adv-x="1143" d="M572 1092q210 0 332 -112l86 94q18 18 44 18q25 0 43.5 -18t18.5 -42q0 -25 -20 -45l-96 -100q82 -136 82 -355q0 -281 -128.5 -422t-361.5 -141q-214 0 -338 118l-85 -89q-16 -16 -42 -16q-25 0 -42.5 17.5t-17.5 42.5q0 26 18 45l91 98q-74 134 -74 347 q0 281 129 420.5t361 139.5zM572 105q339 0 339 427q0 144 -40 236l-537 -574q82 -89 238 -89zM234 532q0 -135 35 -229l535 570q-88 85 -232 85q-164 0 -251 -105t-87 -321zM467 1214q-38 31 -8 70l209 253q15 19 37 21t52 -21q49 -47 7 -89l-227 -229q-33 -34 -70 -5z" />
<glyph unicode="&#x218;" horiz-adv-x="1301" d="M1034 1275q-148 184 -378 184q-89 0 -156 -20.5t-105.5 -56.5t-57.5 -80.5t-19 -96.5q0 -37 12 -69t27.5 -56t48.5 -48t58 -39t73 -34.5t76 -29.5t85 -29q69 -24 104.5 -37t98 -40t97 -49.5t79 -60t67.5 -77.5t39.5 -95.5t16.5 -119.5q0 -219 -145.5 -336.5 t-414.5 -117.5q-97 0 -185.5 23.5t-157 63.5t-120 91t-81.5 109q-12 23 -12 42q0 32 21.5 54t52.5 22q44 0 67 -38q61 -99 165.5 -160.5t249.5 -61.5q194 0 297.5 78t103.5 231q0 43 -12.5 80t-30 64t-52 53t-61.5 42.5t-77.5 36.5t-80.5 30t-88 30q-67 21 -101.5 33 t-94.5 37t-92.5 46t-75 56t-64 72.5t-37.5 90t-16 113.5q0 82 30.5 153t90 126.5t156.5 87.5t221 32q164 0 294.5 -64t205.5 -177q14 -20 14 -44q0 -21 -10 -38t-27 -26.5t-37 -9.5q-38 0 -62 30zM773 -234q0 -112 -32 -190.5t-106 -152.5q-11 -11 -25 -11q-6 0 -11.5 2 t-10 6t-7 10t-2.5 13q0 11 9 20q36 35 52 71t16 81q0 27 -13.5 51.5t-29 40t-28.5 41t-13 54.5q0 49 26 74.5t72 25.5q51 0 77 -32t26 -104z" />
<glyph unicode="&#x219;" horiz-adv-x="989" d="M483 947q-42 0 -77 -7t-65.5 -22t-47.5 -43t-17 -67t21 -70t56.5 -52.5t81.5 -40t97 -35.5t101.5 -36t96.5 -45t81.5 -59t56.5 -81.5t21 -108.5q0 -77 -30.5 -137t-84.5 -97t-125.5 -55.5t-156.5 -18.5q-132 0 -239.5 51t-159.5 117q-15 23 -15 45q0 28 19.5 47.5 t47.5 19.5t51 -23q115 -115 296 -115q52 0 95.5 9.5t78.5 28.5t54.5 52t19.5 76q0 39 -21 69t-56.5 51t-81.5 39t-97 35t-101.5 35.5t-97 45t-81.5 60t-56 83t-21 110.5q0 71 27.5 125.5t76.5 88.5t113 51t139 17q119 0 210 -38.5t145 -111.5q17 -22 17 -44 q0 -14 -5.5 -26.5t-14.5 -21.5t-22 -14t-26 -5q-29 0 -49 20q-51 49 -110 73.5t-145 24.5zM591 -234q0 -112 -32 -190.5t-106 -152.5q-12 -11 -25 -11q-9 0 -16 3.5t-11 11t-4 16.5q0 11 9 20q35 36 51.5 71.5t16.5 80.5q0 27 -13 51.5t-29 40t-29 41t-13 54.5q0 49 26 74.5 t72 25.5q50 0 76.5 -32t26.5 -104z" />
<glyph unicode="&#x2c6;" horiz-adv-x="779" d="M579 1232l-189 160l-189 -160q-14 -13 -38 -13q-23 0 -39.5 16t-16.5 40q0 26 22 44l223 185q18 13 37.5 13t38.5 -13l223 -185q22 -18 22 -44q0 -24 -16.5 -40t-39.5 -16q-24 0 -38 13z" />
<glyph unicode="&#x2c7;" horiz-adv-x="769" d="M390 1292l189 158q14 14 38 14q23 0 39.5 -16.5t16.5 -39.5q0 -27 -22 -45l-223 -184q-19 -14 -38.5 -14t-37.5 14l-223 184q-22 18 -22 45q0 23 16.5 39.5t39.5 16.5q24 0 38 -14z" />
<glyph unicode="&#x2d8;" horiz-adv-x="735" d="M367 1235q-54 0 -100.5 13.5t-84 41t-58.5 74t-21 107.5q0 23 16 39t39.5 16t39.5 -16t16 -39q0 -128 153 -128q152 0 152 128q0 23 16 39t39.5 16t39.5 -16t16 -39q0 -61 -21 -107.5t-58 -74t-83.5 -41t-100.5 -13.5z" />
<glyph unicode="&#x2d9;" horiz-adv-x="646" d="M323 1270q-89 0 -89 91q0 94 89 94q87 0 87 -94q0 -91 -87 -91z" />
<glyph unicode="&#x2da;" horiz-adv-x="622" d="M310 1172q-61 0 -107.5 15.5t-76 45.5t-44.5 72t-15 96q0 109 61 169t182 60t182 -60t61 -169t-61 -169t-182 -60zM310 1541q-78 0 -111.5 -34t-33.5 -106q0 -71 33.5 -105.5t111.5 -34.5t111.5 34.5t33.5 105.5q0 72 -33.5 106t-111.5 34z" />
<glyph unicode="&#x2db;" horiz-adv-x="718" d="M544 -292q21 0 36 -15t15 -36q0 -30 -25 -45q-66 -40 -169 -40q-112 0 -176 52t-64 147q0 144 162 229h114q-64 -26 -111.5 -78.5t-47.5 -117.5q0 -25 6 -45.5t17.5 -35t27 -24.5t35 -14.5t42.5 -4.5q58 0 110 21q18 7 28 7z" />
<glyph unicode="&#x2dc;" horiz-adv-x="882" d="M303 1441q27 0 53.5 -7t47.5 -17t44 -21.5t42.5 -22t43 -17t45.5 -6.5q35 0 58 14.5t49 50.5q20 26 47 26q23 0 39.5 -17t16.5 -40q0 -14 -7 -27q-26 -52 -77.5 -87t-125.5 -35q-39 0 -78.5 14t-66.5 31t-62.5 31.5t-68.5 14.5q-35 0 -58 -15t-49 -50q-20 -26 -47 -26 q-23 0 -39.5 16.5t-16.5 40.5q0 13 7 27q27 52 78 87t125 35z" />
<glyph unicode="&#x2dd;" horiz-adv-x="1141" d="M294 1214q-37 30 -7 70l208 253q15 19 37 21t52 -21q49 -47 7 -89l-227 -229q-34 -34 -70 -5zM548 1214q-37 30 -6 70l207 253q15 19 37 21t52 -21q49 -47 7 -89l-226 -229q-34 -34 -71 -5z" />
<glyph unicode="&#x1e80;" horiz-adv-x="1909" d="M1292 42l-337 1188l-336 -1188q-2 -8 -5 -15t-7.5 -13t-10 -11t-11.5 -9t-13 -7t-14.5 -4t-15.5 -1q-27 0 -48.5 16t-28.5 42l-414 1442q-4 18 -4 28q0 34 23 57t57 23q30 0 50 -18t26 -41l341 -1206l334 1206q6 27 28 43t49.5 16t48.5 -15.5t28 -43.5l334 -1206 l341 1206q6 23 26 41t51 18q33 0 56 -23t23 -57q0 -10 -5 -28l-412 -1442q-5 -17 -16.5 -30.5t-27.5 -20.5t-34 -7q-28 0 -49 16t-27 44zM1112 1691q-37 -30 -71 4l-226 229q-42 42 7 88q30 23 52 21t37 -21l207 -252q31 -39 -6 -69z" />
<glyph unicode="&#x1e81;" horiz-adv-x="1493" d="M962 35l-215 740l-215 -740q-6 -24 -26.5 -38.5t-46.5 -14.5q-51 0 -69 49l-343 940q-7 17 -7 33q0 32 21 53t53 21q16 0 30 -5.5t24.5 -16.5t16.5 -27l270 -773l222 773q6 20 24 34.5t45.5 14.5t46.5 -14.5t24 -34.5l222 -773l271 773q18 49 69 49q21 0 38.5 -9.5 t27.5 -26.5t10 -38q0 -16 -7 -33l-343 -940q-9 -23 -27.5 -36t-43.5 -13t-45 14.5t-27 38.5zM915 1214q-36 -29 -70 5l-226 229q-43 42 7 89q30 23 51.5 21t37.5 -21l207 -253q31 -40 -7 -70z" />
<glyph unicode="&#x1e82;" horiz-adv-x="1909" d="M1292 42l-337 1188l-336 -1188q-2 -8 -5 -15t-7.5 -13t-10 -11t-11.5 -9t-13 -7t-14.5 -4t-15.5 -1q-27 0 -48.5 16t-28.5 42l-414 1442q-4 18 -4 28q0 34 23 57t57 23q30 0 50 -18t26 -41l341 -1206l334 1206q6 27 28 43t49.5 16t48.5 -15.5t28 -43.5l334 -1206 l341 1206q6 23 26 41t51 18q33 0 56 -23t23 -57q0 -10 -5 -28l-412 -1442q-5 -17 -16.5 -30.5t-27.5 -20.5t-34 -7q-28 0 -49 16t-27 44zM817 1691q-37 30 -6 69l207 252q15 19 37 21t52 -21q49 -46 7 -88l-227 -229q-34 -33 -70 -4z" />
<glyph unicode="&#x1e83;" horiz-adv-x="1493" d="M962 35l-215 740l-215 -740q-6 -24 -26.5 -38.5t-46.5 -14.5q-51 0 -69 49l-343 940q-7 17 -7 33q0 32 21 53t53 21q16 0 30 -5.5t24.5 -16.5t16.5 -27l270 -773l222 773q6 20 24 34.5t45.5 14.5t46.5 -14.5t24 -34.5l222 -773l271 773q18 49 69 49q21 0 38.5 -9.5 t27.5 -26.5t10 -38q0 -16 -7 -33l-343 -940q-9 -23 -27.5 -36t-43.5 -13t-45 14.5t-27 38.5zM628 1214q-37 30 -7 70l208 253q15 19 37 21t52 -21q49 -47 7 -89l-227 -229q-34 -34 -70 -5z" />
<glyph unicode="&#x1e84;" horiz-adv-x="1909" d="M1292 42l-337 1188l-336 -1188q-2 -8 -5 -15t-7.5 -13t-10 -11t-11.5 -9t-13 -7t-14.5 -4t-15.5 -1q-27 0 -48.5 16t-28.5 42l-414 1442q-4 18 -4 28q0 34 23 57t57 23q30 0 50 -18t26 -41l341 -1206l334 1206q6 27 28 43t49.5 16t48.5 -15.5t28 -43.5l334 -1206 l341 1206q6 23 26 41t51 18q33 0 56 -23t23 -57q0 -10 -5 -28l-412 -1442q-5 -17 -16.5 -30.5t-27.5 -20.5t-34 -7q-28 0 -49 16t-27 44zM773 1731q-84 0 -84 85q0 89 84 89t84 -89q0 -85 -84 -85zM1139 1731q-83 0 -83 85q0 89 83 89q84 0 84 -89q0 -85 -84 -85z" />
<glyph unicode="&#x1e85;" horiz-adv-x="1493" d="M962 35l-215 740l-215 -740q-6 -24 -26.5 -38.5t-46.5 -14.5q-51 0 -69 49l-343 940q-7 17 -7 33q0 32 21 53t53 21q16 0 30 -5.5t24.5 -16.5t16.5 -27l270 -773l222 773q6 20 24 34.5t45.5 14.5t46.5 -14.5t24 -34.5l222 -773l271 773q18 49 69 49q21 0 38.5 -9.5 t27.5 -26.5t10 -38q0 -16 -7 -33l-343 -940q-9 -23 -27.5 -36t-43.5 -13t-45 14.5t-27 38.5zM565 1247q-84 0 -84 86q0 89 84 89t84 -89q0 -86 -84 -86zM931.5 1247q-84.5 0 -84.5 86q0 89 84.5 89t84.5 -89q0 -86 -84.5 -86z" />
<glyph unicode="&#x1ef2;" d="M604 -18q-33 0 -55.5 22.5t-22.5 55.5v671l-470 737q-12 19 -12 42q0 34 23.5 57t56.5 23q45 0 68 -37l412 -664l414 664q23 37 67 37q34 0 57 -23t23 -57q0 -23 -11 -42l-470 -737v-671q0 -21 -10.5 -39.5t-29 -28.5t-40.5 -10zM715 1691q-37 -30 -71 4l-226 229 q-42 42 7 88q30 23 52 21t37 -21l208 -252q30 -39 -7 -69z" />
<glyph unicode="&#x1ef3;" horiz-adv-x="1022" d="M82 -329q59 0 105.5 18t76.5 41.5t62.5 80t50.5 97t54 128.5q2 6 3 8l-390 927q-6 21 -6 33q0 32 21 53t53 21q51 0 70 -49l330 -804l328 804q20 49 71 49q31 0 52.5 -21t21.5 -53q0 -12 -7 -33l-459 -1095q-50 -119 -107 -192.5t-138.5 -113.5t-191.5 -40 q-30 0 -50.5 20.5t-20.5 50.5t20.5 50t50.5 20zM604 1214q-36 -29 -69 5l-227 229q-43 42 7 89q29 23 51 21t38 -21l208 -253q30 -39 -8 -70z" />
<glyph unicode="&#x2000;" horiz-adv-x="1184" />
<glyph unicode="&#x2001;" horiz-adv-x="2369" />
<glyph unicode="&#x2002;" horiz-adv-x="1184" />
<glyph unicode="&#x2003;" horiz-adv-x="2369" />
<glyph unicode="&#x2004;" horiz-adv-x="789" />
<glyph unicode="&#x2005;" horiz-adv-x="592" />
<glyph unicode="&#x2006;" horiz-adv-x="394" />
<glyph unicode="&#x2007;" horiz-adv-x="394" />
<glyph unicode="&#x2008;" horiz-adv-x="296" />
<glyph unicode="&#x2009;" horiz-adv-x="31" />
<glyph unicode="&#x200a;" horiz-adv-x="131" />
<glyph unicode="&#x2010;" horiz-adv-x="849" d="M722 588.5q0 -26.5 -18.5 -44.5t-44.5 -18h-467q-27 0 -45 18t-18 44.5t18 44.5t45 18h467q26 0 44.5 -18t18.5 -44.5z" />
<glyph unicode="&#x2011;" horiz-adv-x="849" d="M722 588.5q0 -26.5 -18.5 -44.5t-44.5 -18h-467q-27 0 -45 18t-18 44.5t18 44.5t45 18h467q26 0 44.5 -18t18.5 -44.5z" />
<glyph unicode="&#x2012;" horiz-adv-x="849" d="M722 588.5q0 -26.5 -18.5 -44.5t-44.5 -18h-467q-27 0 -45 18t-18 44.5t18 44.5t45 18h467q26 0 44.5 -18t18.5 -44.5z" />
<glyph unicode="&#x2013;" horiz-adv-x="1363" d="M1123 658.5q0 -26.5 -18 -45t-45 -18.5h-757q-26 0 -44 18.5t-18 45t18 45t44 18.5h757q27 0 45 -18.5t18 -45z" />
<glyph unicode="&#x2014;" horiz-adv-x="2143" d="M1903 658.5q0 -26.5 -18.5 -45t-44.5 -18.5h-1537q-26 0 -44 18.5t-18 45t18 45t44 18.5h1537q26 0 44.5 -18.5t18.5 -45z" />
<glyph unicode="&#x2018;" horiz-adv-x="359" d="M67 1158q0 118 45 226.5t124 190.5q15 15 30 15q9 0 17 -4.5t13 -12.5t5 -18t-7 -21q-31 -43 -48 -72t-28 -65t-11 -76q0 -29 13.5 -55t29 -42.5t29 -43.5t13.5 -59q0 -57 -28.5 -84.5t-81.5 -27.5q-115 0 -115 149z" />
<glyph unicode="&#x2019;" horiz-adv-x="359" d="M292 1441q0 -118 -44.5 -227t-123.5 -191q-13 -14 -31 -14q-5 0 -10 1.5t-9.5 4.5t-8 7t-5.5 9.5t-2 11.5q0 11 7 22q47 65 67 109.5t20 102.5q0 24 -9 45t-21.5 37t-24.5 32t-21 38t-9 48q0 57 29.5 85t81.5 28q114 0 114 -149z" />
<glyph unicode="&#x201a;" horiz-adv-x="417" d="M301 54q0 -119 -44.5 -227.5t-123.5 -190.5q-14 -14 -30 -14q-14 0 -25 10t-11 25q0 8 8 20q46 64 66 110t20 104q0 29 -13 55t-28.5 42.5t-28.5 43.5t-13 59q0 38 13.5 63.5t37.5 37t58 11.5q114 0 114 -149z" />
<glyph unicode="&#x201c;" horiz-adv-x="681" d="M67 1158q0 118 45 226.5t124 190.5q15 15 30 15q9 0 17 -4.5t13 -12.5t5 -18t-7 -21q-31 -43 -48 -72t-28 -65t-11 -76q0 -29 13.5 -55t29 -42.5t29 -43.5t13.5 -59q0 -57 -28.5 -84.5t-81.5 -27.5q-115 0 -115 149zM390 1158q0 119 44.5 227t122.5 190q15 15 31 15 q14 0 25 -10t11 -25q0 -10 -7 -21q-19 -25 -31 -44t-23.5 -40.5t-18 -40.5t-10.5 -41t-4 -47q0 -29 13 -55t29 -42.5t29 -43.5t13 -59q0 -57 -29 -84.5t-81 -27.5q-114 0 -114 149z" />
<glyph unicode="&#x201d;" horiz-adv-x="681" d="M614 1441q0 -118 -45 -227t-123 -191q-14 -14 -30 -14q-9 0 -17 4t-13 12t-5 18q0 11 7 22q46 65 66 109.5t20 102.5q0 24 -8.5 45t-21 37l-25 32t-21 38t-8.5 48q0 38 13.5 64t37.5 37.5t58 11.5q115 0 115 -149zM292 1441q0 -118 -44.5 -227t-123.5 -191 q-13 -14 -31 -14q-5 0 -10 1.5t-9.5 4.5t-8 7t-5.5 9.5t-2 11.5q0 11 7 22q47 65 67 109.5t20 102.5q0 24 -9 45t-21.5 37t-24.5 32t-21 38t-9 48q0 57 29.5 85t81.5 28q114 0 114 -149z" />
<glyph unicode="&#x201e;" horiz-adv-x="730" d="M614 54q0 -118 -44.5 -226.5t-123.5 -191.5q-15 -14 -30 -14q-14 0 -24.5 10t-10.5 25q0 10 7 20q31 44 48 73t27.5 65t10.5 76q0 29 -13 55t-29 42.5t-29 43.5t-13 59q0 57 28.5 84.5t80.5 27.5q115 0 115 -149zM292 54q0 -119 -44.5 -227.5t-123.5 -190.5 q-15 -14 -31 -14q-14 0 -24.5 10t-10.5 25q0 10 7 20q46 65 66.5 110.5t20.5 103.5q0 29 -13.5 55t-29 42.5t-29 43.5t-13.5 59q0 57 29.5 84.5t81.5 27.5q114 0 114 -149z" />
<glyph unicode="&#x2020;" horiz-adv-x="1022" d="M512 -350q-22 0 -34.5 10.5t-12.5 29.5l-12 1400h-264q-23 0 -35 15t-12 42q0 13 3.5 24t9 18.5t14.5 11.5t20 4h264l-5 399q0 58 64 58q63 0 63 -58l-5 -399h263q15 0 26 -7t16 -20t5 -31q0 -27 -12 -42t-35 -15h-263l-13 -1400q0 -40 -45 -40z" />
<glyph unicode="&#x2021;" horiz-adv-x="1022" d="M453 1090h-264q-23 0 -35 15t-12 42q0 13 3.5 24t9 18.5t14.5 11.5t20 4h264l-5 399q0 58 64 58q63 0 63 -58l-5 -399h263q15 0 26 -7t16 -20t5 -31q0 -27 -12 -42t-35 -15h-263l-7 -493l7 -492h263q47 0 47 -56q0 -27 -12 -42.5t-35 -15.5h-263l5 -399q0 -59 -63 -59 q-22 0 -36.5 7.5t-21 20.5t-6.5 31l5 399h-264q-22 0 -34.5 15.5t-12.5 42.5q0 56 47 56h264l6 492z" />
<glyph unicode="&#x2022;" horiz-adv-x="975" d="M487.5 348q-147.5 0 -225 75.5t-77.5 227.5q0 318 303 318t303 -318q0 -152 -78 -227.5t-225.5 -75.5z" />
<glyph unicode="&#x202f;" horiz-adv-x="473" />
<glyph unicode="&#x2030;" horiz-adv-x="2513" d="M1249 1590q25 0 42 -17t17 -42q0 -14 -5 -23l-761 -1497q-7 -13 -21.5 -21t-30.5 -8q-25 0 -41.5 16.5t-16.5 41.5q0 14 5 23l761 1497q6 12 19.5 21t31.5 9zM439 951q52 0 92.5 14.5t65.5 38.5t40.5 60t22 74.5t6.5 84.5q0 39 -4.5 72.5t-14.5 65t-27.5 55.5t-42 42.5 t-59.5 28.5t-79 10q-65 0 -110 -21t-69.5 -60.5t-35 -86t-10.5 -106.5q0 -272 225 -272zM439 1604q92 0 160 -29t107 -82.5t57.5 -120t18.5 -149.5q0 -65 -11 -120t-36.5 -104t-64.5 -83t-98 -54t-133 -20t-132 20t-97 54t-64.5 82.5t-36.5 104t-11 120.5q0 83 18.5 150 t57 120t106 82t159.5 29zM1303 78q44 0 79 9.5t59.5 28t42 43t27 56t14 64t4.5 71.5q0 47 -6 86t-22 74.5t-41 60t-64.5 39t-92.5 14.5q-64 0 -109.5 -21.5t-70 -60.5t-35 -85.5t-10.5 -106.5q0 -272 225 -272zM1303 731q92 0 160 -29.5t107 -82.5t57.5 -119.5t18.5 -149.5 q0 -54 -8 -101.5t-24.5 -90.5t-44 -77t-64.5 -59.5t-88.5 -39t-113.5 -13.5q-74 0 -132 20t-97 54t-64.5 82.5t-36.5 104t-11 120.5q0 83 18.5 149.5t57.5 119.5t106 82.5t159 29.5zM2076 78q52 0 92 14.5t65 38.5t41 60t22 74t6 85t-6 86t-22 74.5t-41 60t-65 39t-92 14.5 q-64 0 -109.5 -21.5t-70 -60.5t-35 -85.5t-10.5 -106.5q0 -272 225 -272zM2076 731q92 0 160 -29.5t107 -82.5t57.5 -119.5t18.5 -149.5q0 -65 -11 -120.5t-36.5 -104t-64.5 -82.5t-98 -54t-133 -20q-62 0 -113 13.5t-87.5 39t-64 59.5t-44 77t-24.5 90.5t-8 101.5 q0 83 18.5 149.5t57 119.5t106 82.5t159.5 29.5z" />
<glyph unicode="&#x2039;" horiz-adv-x="856" d="M180 495q0 22 16 42l381 448q18 22 42 22q23 0 39.5 -16.5t16.5 -39.5q0 -21 -16 -40l-358 -416l358 -415q16 -19 16 -40q0 -23 -16.5 -39.5t-39.5 -16.5q-25 0 -42 21l-381 448q-16 20 -16 42z" />
<glyph unicode="&#x203a;" horiz-adv-x="856" d="M677 495q0 -22 -16 -42l-381 -448q-17 -21 -42 -21q-23 0 -39.5 16.5t-16.5 39.5q0 21 16 40l357 415l-357 416q-16 19 -16 40q0 23 16.5 39.5t39.5 16.5q24 0 42 -22l381 -448q16 -20 16 -42z" />
<glyph unicode="&#x2044;" horiz-adv-x="730" d="M21 67l574 1486q4 14 18 25.5t38 11.5q26 0 45 -18.5t19 -45.5q0 -18 -5 -22l-572 -1481q-3 -13 -17.5 -27t-40.5 -14q-27 0 -45.5 18t-18.5 44q0 14 5 23z" />
<glyph unicode="&#x205f;" horiz-adv-x="592" />
<glyph unicode="&#x20ac;" horiz-adv-x="1472" d="M661 557h-376q41 -232 178.5 -338.5t367.5 -106.5q122 0 231 48.5t175 142.5q21 31 61 31q32 0 53.5 -21.5t21.5 -53.5q0 -24 -14 -45q-77 -111 -222 -179t-306 -68q-616 0 -712 590h-79q-26 0 -44.5 19t-18.5 45.5t18 44.5t45 18h65q-2 33 -2 100q0 58 2 87h-65 q-27 0 -45 18t-18 44.5t18 44.5t45 18h79q46 302 230.5 455t481.5 153q165 0 304 -66t222 -181q16 -23 16 -49q0 -32 -21.5 -54t-53.5 -22q-36 0 -61 31q-63 86 -171 141t-235 55q-226 0 -365.5 -115.5t-182.5 -347.5h378q27 0 45 -18t18 -44.5t-18 -44.5t-45 -18h-392 q-3 -43 -3 -87q0 -54 3 -100h392q27 0 45 -18t18 -45q0 -17 -8.5 -31.5t-22.5 -23.5t-32 -9z" />
<glyph unicode="&#x2122;" horiz-adv-x="942" d="M100 1522h288q16 0 28 -12t12 -28t-12 -27.5t-28 -11.5h-98v-309q0 -17 -14 -30.5t-31 -13.5q-19 0 -31.5 13.5t-12.5 30.5v309h-101q-16 0 -28 11.5t-12 27.5t12 28t28 12zM686.5 1183q-23.5 0 -35.5 20l-74 127v-198q0 -17 -12.5 -29.5t-29.5 -12.5t-30 12.5t-13 29.5 v356q0 8 3.5 15.5t9.5 13t13.5 9t16.5 3.5q27 0 40 -25l111 -201l112 201q13 25 40 25q17 0 29.5 -12t12.5 -29v-356q0 -17 -12.5 -29.5t-29.5 -12.5q-11 0 -21 5.5t-15.5 15.5t-5.5 21v198l-74 -127q-12 -20 -35.5 -20z" />
<glyph unicode="&#x221a;" horiz-adv-x="1257" d="M1149 1575l-516 -1932q-5 -19 -22.5 -30.5t-40.5 -11.5q-44 0 -62 40l-399 905q-4 9 -4 24q0 28 19.5 47.5t46.5 19.5q12 0 23.5 -3.5t21.5 -12.5t15 -21l326 -773l463 1786q4 18 21.5 33.5t41.5 15.5q28 0 48 -19.5t20 -47.5q0 -10 -2 -20z" />
<glyph unicode="&#x2260;" horiz-adv-x="1059" d="M1060 329q0 -26 -18.5 -44.5t-45.5 -18.5h-588l-67 -101q-12 -18 -33 -18q-15 0 -26 11t-11 27q0 9 5 18l42 63h-255q-18 0 -32.5 8.5t-22.5 23t-8 31.5q0 27 18 45t45 18h341l159 232h-500q-27 0 -45 18t-18 44.5t18 44.5t45 18h586l73 104q12 18 33 18q15 0 25.5 -11 t10.5 -27q0 -9 -4 -18l-47 -66h256q18 0 32.5 -8t23 -22.5t8.5 -32.5q0 -26 -18.5 -44t-45.5 -18h-343l-158 -232h501q13 0 25 -5t20.5 -13t13.5 -20t5 -25z" />
<glyph unicode="&#x2264;" horiz-adv-x="786" d="M787 63q0 -18 -8.5 -32.5t-23 -22.5t-31.5 -8h-661q-27 0 -45 18t-18 44.5t18 45.5t45 19h661q26 0 44.5 -19t18.5 -45zM154 670l603 -345q30 -19 30 -54q0 -26 -18.5 -45t-44.5 -19q-17 0 -38 13l-655 397q-31 22 -31 53.5t31 53.5l655 397q19 11 38 11q26 0 44.5 -18 t18.5 -45q0 -35 -30 -53z" />
<glyph unicode="&#x2265;" horiz-adv-x="786" d="M0 62.5q0 26.5 18 45.5t45 19h661q26 0 44.5 -19t18.5 -45q0 -18 -8.5 -32.5t-23 -22.5t-31.5 -8h-661q-27 0 -45 18t-18 44.5zM31 325l602 345l-602 346q-31 19 -31 53q0 27 18 45t45 18q18 0 37 -11l657 -397q30 -21 30 -53.5t-30 -53.5l-657 -397q-21 -13 -37 -13 q-27 0 -45 19t-18 45q0 35 31 54z" />
<glyph unicode="&#x25fc;" horiz-adv-x="1073" d="M0 1074h1074v-1074h-1074v1074z" />
</font>
</defs>
</svg>
