<?xml version="1.0" standalone="no"?>
<!DOCTYPE svg PUBLIC "-//W3C//DTD SVG 1.1//EN" "http://www.w3.org/Graphics/SVG/1.1/DTD/svg11.dtd" >
<svg xmlns="http://www.w3.org/2000/svg" xmlns:xlink="http://www.w3.org/1999/xlink" version="1.1">
<metadata></metadata>
<defs>
<font id="bariolregular_italic" horiz-adv-x="1113" >
<font-face units-per-em="2048" ascent="1612" descent="-436" />
<missing-glyph horiz-adv-x="511" />
<glyph unicode="&#x2e;&#x2e;&#x2e;" horiz-adv-x="1510" d="M170 -17q-86 0 -86 73q0 61 33 96t90 35q86 0 86 -73q0 -61 -33 -96t-90 -35zM751 -17q-86 0 -86 73q0 61 33 96t90 35q85 0 85 -73q0 -61 -32.5 -96t-89.5 -35zM1336 -17q-86 0 -86 73q0 30 8.5 54.5t24 41.5t38.5 26t51 9q86 0 86 -73q0 -61 -33 -96t-89 -35z" />
<glyph unicode="&#xfb01;" horiz-adv-x="1024" d="M1036 907l-152 -856q-5 -29 -27 -48.5t-52.5 -19.5t-46.5 19.5t-11 48.5l141 796h-420l-156 -903q-15 -83 -50.5 -151t-91.5 -119t-136 -79t-178 -28q-24 0 -38.5 16t-14.5 39q0 32 21.5 52t52.5 20q125 0 200 68.5t97 190.5l157 894h-73q-24 0 -38.5 15.5t-14.5 38.5 q0 32 22.5 53.5t53.5 21.5h74l21 128q13 76 46 141t85.5 117t131.5 81.5t176 29.5q66 0 127.5 -15.5t89.5 -35.5q31 -22 31 -57q0 -27 -19 -45.5t-46 -18.5q-16 0 -44 10q-86 33 -162 33q-122 0 -190.5 -65t-88.5 -175l-21 -128h491q30 0 44 -19.5t9 -49.5z" />
<glyph unicode="&#xfb02;" horiz-adv-x="1092" d="M1114 1354l-196 -1120q-4 -26 -4 -49q0 -74 71 -74q16 0 28 -7t18.5 -19.5t6.5 -28.5q0 -31 -23 -52t-54 -21q-187 0 -187 181q0 31 6 70l108 613h-420l-156 -903q-15 -83 -50.5 -151t-91.5 -119t-136 -79t-178 -28q-24 0 -38.5 16t-14.5 39q0 32 21.5 52t52.5 20 q125 0 200 68.5t97 190.5l157 894h-73q-24 0 -38.5 15.5t-14.5 38.5q0 32 22.5 53.5t53.5 21.5h74l21 128q12 74 45.5 139t87 117.5t132.5 82.5t174 30q77 0 152.5 -17.5t109.5 -37.5q44 -22 37 -64zM513 1104l-21 -128h417l61 335q-84 33 -178 33q-121 0 -189.5 -64.5 t-89.5 -175.5z" />
<glyph unicode="&#xfb03;" horiz-adv-x="1588" d="M1611 907l-153 -856q-4 -29 -26.5 -48.5t-53 -19.5t-47 19.5t-11.5 48.5l143 796h-420l-157 -903q-15 -83 -50.5 -151t-91.5 -119t-136 -79t-178 -28q-24 0 -39 16t-15 39q0 32 22 52t54 20q83 0 145.5 32.5t99.5 89.5t52 137l156 894h-437l-156 -903q-15 -83 -50.5 -151 t-91.5 -119t-136 -79t-178 -28q-24 0 -38.5 16t-14.5 39q0 32 21.5 52t52.5 20q125 0 200 68.5t97 190.5l157 894h-73q-24 0 -38.5 15.5t-14.5 38.5q0 32 22.5 53.5t53.5 21.5h74l21 128q13 76 46 141t85.5 117t131.5 81.5t176 29.5q24 0 38.5 -15t14.5 -38q0 -32 -22.5 -54 t-53.5 -22q-122 0 -190.5 -65t-88.5 -175l-21 -128h437l21 128q14 76 46.5 141t85.5 117t131.5 81.5t175.5 29.5q67 0 128 -15.5t89 -35.5q31 -22 31 -57q0 -18 -8.5 -32.5t-23.5 -23t-33 -8.5q-15 0 -43 10q-86 33 -164 33q-121 0 -189.5 -65t-87.5 -175l-21 -128h490 q20 0 33.5 -9t18.5 -24.5t2 -35.5z" />
<glyph unicode="&#xfb04;" horiz-adv-x="1666" d="M1688 1354l-196 -1120q-4 -26 -4 -49q0 -74 71 -74q16 0 28.5 -7t19 -19.5t6.5 -28.5q0 -31 -23.5 -52t-54.5 -21q-187 0 -187 181q0 31 6 70l109 613h-420l-157 -903q-15 -83 -50.5 -151t-91.5 -119t-136 -79t-178 -28q-24 0 -39 16t-15 39q0 32 22 52t54 20 q83 0 145.5 32.5t99.5 89.5t52 137l156 894h-437l-156 -903q-15 -83 -50.5 -151t-91.5 -119t-136 -79t-178 -28q-24 0 -38.5 16t-14.5 39q0 32 21.5 52t52.5 20q125 0 200 68.5t97 190.5l157 894h-73q-24 0 -38.5 15.5t-14.5 38.5q0 32 22.5 53.5t53.5 21.5h74l21 128 q13 76 46 141t85.5 117t131.5 81.5t176 29.5q24 0 38.5 -15t14.5 -38q0 -32 -22.5 -54t-53.5 -22q-122 0 -190.5 -65t-88.5 -175l-21 -128h437l21 128q13 74 46.5 139t86.5 117.5t132 82.5t174 30q78 0 153 -17.5t110 -37.5q43 -22 36 -64zM1088 1104l-21 -128h417l60 335 q-85 33 -179 33q-61 0 -110 -17.5t-82 -50.5t-54 -76t-31 -96z" />
<glyph horiz-adv-x="0" />
<glyph horiz-adv-x="682" />
<glyph unicode=" "  horiz-adv-x="511" />
<glyph unicode="&#x09;" horiz-adv-x="511" />
<glyph unicode="&#xa0;" horiz-adv-x="511" />
<glyph unicode="!" horiz-adv-x="446" d="M482 1465q77 0 62 -76l-211 -1013q-8 -38 -49 -38q-40 0 -36 38l146 1013q9 76 88 76zM219 -17q-86 0 -86 73q0 40 15 70t43 45.5t65 15.5q86 0 86 -73q0 -40 -15 -69.5t-42.5 -45.5t-65.5 -16z" />
<glyph unicode="&#x22;" horiz-adv-x="601" d="M439 1465q31 0 43.5 -16t5.5 -43l-84 -370q-9 -36 -47 -36t-35 36l46 370q3 27 21.5 43t49.5 16zM679.5 1465q31.5 0 43.5 -16t6 -43l-84 -370q-10 -36 -48 -36q-36 0 -33 36l45 370q3 27 21 43t49.5 16z" />
<glyph unicode="#" horiz-adv-x="1182" d="M232 49l133 407h-135q-21 0 -32 12.5t-11 32.5q0 11 5 21.5t13.5 18.5t20 13t24.5 5h152l97 293h-150q-21 0 -33.5 12.5t-12.5 32.5q0 23 19 40t43 17h168l132 403q14 45 57 45q23 0 35.5 -13t12.5 -35q0 -12 -7 -31l-120 -369h299l131 403q7 20 22 32.5t36 12.5 q15 0 25.5 -6t16 -16t5.5 -23q0 -15 -4 -28l-123 -375h149q21 0 32 -12t11 -33q0 -23 -18 -40t-43 -17h-165l-96 -293h163q19 0 31 -13t12 -33q0 -22 -19 -39.5t-43 -17.5h-181l-144 -435q-2 -8 -6.5 -15t-10 -12.5t-12.5 -9.5t-15 -6t-17 -2q-21 0 -33 12.5t-12 32.5 q0 9 6 28l136 407h-300l-145 -435q-3 -10 -9 -18t-13.5 -14t-17.5 -9.5t-20 -3.5q-45 0 -45 43q0 11 6 30zM609 852l-98 -293h300l96 293h-298z" />
<glyph unicode="$" horiz-adv-x="1199" d="M918 1475q131 -11 230.5 -73t137.5 -157q7 -15 7 -30q0 -14 -5.5 -27t-15 -22t-22 -14t-27.5 -5q-36 0 -55 31q-104 166 -327 166q-91 0 -162 -23t-111.5 -61.5t-61 -84t-20.5 -96.5q0 -43 19.5 -79t53 -61t77.5 -48.5t94 -41t103 -39.5t103 -43t94.5 -52t77.5 -66.5 t52.5 -86.5t19.5 -113q0 -140 -58.5 -243.5t-178 -164t-291.5 -69.5l-28 -161q-3 -16 -13 -29t-24 -20t-31 -7q-24 0 -36.5 16.5t-8.5 39.5l29 161q-83 5 -154 30.5t-121.5 64t-84.5 84.5t-51 97q-4 12 -4 25q0 29 19.5 49t48.5 20q21 0 39 -11t24 -28q26 -58 71 -101.5 t118 -71t164 -27.5q199 0 311 86.5t112 233.5q0 48 -19.5 88t-53 67.5t-78 52t-94.5 42.5t-103 39.5t-103.5 42t-95 50.5t-78 64.5t-53 84.5t-19.5 111q0 45 9.5 87.5t29 81.5t48 73.5t67.5 63.5t86.5 50.5t106 35.5t124.5 18l29 164q5 24 22.5 40t41.5 16t38 -16.5t9 -39.5 z" />
<glyph unicode="%" horiz-adv-x="1603" d="M1402 1465q23 0 37 -14.5t14 -37.5q0 -20 -10 -34l-938 -1369q-17 -27 -47 -27q-23 0 -38.5 15.5t-15.5 38.5q0 18 13 34l937 1367q18 27 48 27zM559 876q48 0 88 14.5t66 37t46 54t30.5 61.5t17 64t8.5 56.5t2 42.5q0 40 -10 71t-30 54t-53 35.5t-77 12.5q-49 0 -89 -15 t-66 -37.5t-45.5 -54.5t-30 -62t-17 -64t-8 -56t-1.5 -43q0 -81 40.5 -126t128.5 -45zM665 1477q126 0 194 -70t68 -186q0 -54 -9 -106t-28 -102.5t-50.5 -93t-72.5 -75t-99 -50.5t-126 -18q-126 0 -194.5 70t-68.5 186q0 66 13 127.5t42.5 120t73 102t109.5 69.5t148 26z M1215 71q48 0 88 14.5t66.5 37.5t46 54.5t30.5 61.5t17.5 64t8 56.5t1.5 42.5q0 81 -41.5 126.5t-128.5 45.5q-49 0 -88.5 -14.5t-66 -37t-46.5 -54.5t-30.5 -62t-17 -64t-8 -56.5t-1.5 -42.5q0 -81 41.5 -126.5t128.5 -45.5zM1320 673q126 0 194 -70t68 -186 q0 -66 -12.5 -127.5t-42 -120t-72.5 -102t-109 -69.5t-148 -26q-84 0 -144 33t-89 90t-29 133q0 54 9 106t27.5 103t50 93t72.5 74.5t99 50.5t126 18z" />
<glyph unicode="&#x26;" horiz-adv-x="1519" d="M1516 944q39 0 60 -35q30 -54 30 -111q0 -51 -21 -87t-61 -56t-89.5 -29t-114.5 -9q16 -81 16 -133q0 -98 -32 -181t-89.5 -144t-135.5 -104t-172 -64t-197 -21q-120 0 -218.5 34.5t-163 95t-100 142t-35.5 175.5q0 82 26.5 153t69 121t100 89t115.5 62t120 36 q-45 23 -81 57.5t-61.5 88.5t-25.5 115q0 65 20.5 120.5t56 95t83.5 67.5t103.5 41.5t115.5 13.5q111 0 196 -45.5t126 -128.5q6 -13 6 -28q0 -26 -19.5 -46t-49.5 -20q-20 0 -32.5 8t-25.5 30q-28 50 -82.5 77.5t-130.5 27.5q-45 0 -86 -13t-73.5 -38t-51.5 -67t-19 -95 q0 -51 25 -94t64 -69t82 -40.5t83 -14.5q26 0 42 -16.5t16 -40.5q0 -30 -19 -47t-49 -17q-80 0 -150.5 -11.5t-136.5 -40t-113.5 -71.5t-75.5 -109.5t-28 -150.5q0 -60 25 -117t72 -103t122.5 -74.5t167.5 -28.5q223 0 354.5 105.5t131.5 284.5q0 85 -16 133 q-62 0 -100.5 -7t-58.5 -24.5t-20 -45.5q0 -14 9.5 -32t9.5 -37q0 -27 -20 -47t-49 -20q-35 0 -56 31q-29 44 -29 94q0 99 88 152.5t257 53.5q141 0 195.5 13t54.5 50q0 6 -1.5 12t-4 11t-6 13t-6.5 15q-4 13 -4 27q0 29 19.5 48.5t47.5 19.5z" />
<glyph unicode="'" horiz-adv-x="361" d="M439 1465q31 0 43.5 -16t5.5 -43l-84 -370q-9 -36 -47 -36t-35 36l46 370q3 27 21.5 43t49.5 16z" />
<glyph unicode="(" horiz-adv-x="632" d="M243 636q29 162 58 281t64 217t73 165.5t88.5 122t107.5 91t134 67.5q15 7 28 7q24 0 42 -18t18 -42q0 -40 -50 -60q-61 -28 -110.5 -64.5t-86.5 -76t-67.5 -98.5t-51.5 -112.5t-41.5 -139t-34.5 -156t-34 -184.5q-60 -330 -60 -472q0 -135 41 -221t142 -140 q17 -8 27 -24t10 -33q0 -25 -18 -42.5t-42 -17.5q-13 0 -28 6q-89 43 -144.5 101.5t-86 151t-30.5 221.5q0 187 52 470z" />
<glyph unicode=")" horiz-adv-x="632" d="M615 636q-30 -161 -58.5 -280.5t-63.5 -217t-73 -165.5t-88.5 -122t-108 -90.5t-133.5 -68.5q-15 -6 -28 -6q-24 0 -42 17.5t-18 42.5q0 40 49 61q44 19 80.5 41.5t68 51t57 57t47.5 67.5t39 74.5t33.5 86.5t28.5 95t25.5 108t23.5 117t24 131q60 330 60 474 q0 135 -41 220.5t-142 140.5q-37 19 -37 56q0 24 18 42t42 18q13 0 28 -7q89 -42 144.5 -100.5t86 -150.5t30.5 -221q0 -188 -52 -472z" />
<glyph unicode="*" horiz-adv-x="767" d="M744 948l-133 201l-133 -201q-24 -40 -63 -12q-38 26 -13 62l138 188l-218 51q-42 9 -32 58q4 22 20 30.5t36 1.5l226 -67l-8 228q0 43 47 43t47 -43l-9 -228l227 67q20 7 35.5 -1.5t19.5 -30.5q10 -49 -32 -58l-218 -51l138 -188q25 -36 -13 -62q-38 -27 -62 12z" />
<glyph unicode="+" horiz-adv-x="975" d="M1060 478q0 -27 -21 -47t-48 -20h-367l-65 -366q-5 -27 -24 -44.5t-49 -17.5q-26 0 -41 18t-10 44l64 366h-368q-22 0 -35.5 13.5t-13.5 35.5q0 27 20 47t48 20h369l64 368q3 17 13 31t25.5 22.5t34.5 8.5q26 0 41 -18t11 -44l-65 -368h368q23 0 36 -14t13 -35z" />
<glyph unicode="," horiz-adv-x="347" d="M290 88q0 -103 -60 -213t-161 -208q-15 -16 -30 -16q-14 0 -24.5 9t-10.5 22q0 12 11 25q64 75 91 119.5t27 89.5q0 29 -24.5 72t-24.5 76q0 59 32.5 91t90.5 32q41 0 62 -23.5t21 -75.5z" />
<glyph unicode="-" horiz-adv-x="782" d="M761 550q0 -27 -20.5 -46.5t-48.5 -19.5h-430q-22 0 -35.5 14t-13.5 35q0 28 20.5 47.5t47.5 19.5h431q22 0 35.5 -14t13.5 -36z" />
<glyph unicode="." horiz-adv-x="343" d="M170 -17q-86 0 -86 73q0 61 33 96t90 35q86 0 86 -73q0 -61 -33 -96t-90 -35z" />
<glyph unicode="/" horiz-adv-x="874" d="M1054 1508l-867 -1680q-20 -39 -62 -39q-19 0 -35 9t-25 25t-9 35q0 18 10 39l867 1679q21 39 62 39q30 0 50 -19.5t20 -48.5q0 -18 -11 -39z" />
<glyph unicode="0" horiz-adv-x="1293" d="M663 99q88 0 164 34t133 95.5t101.5 144.5t72 183.5t42 209.5t14.5 225q0 125 -34 204t-101 116t-171 37q-88 0 -164 -34t-133 -95.5t-101.5 -144.5t-72.5 -183.5t-42 -209.5t-14 -225q0 -125 34 -204t101 -116t171 -37zM640 -30q-214 0 -319.5 115.5t-105.5 353.5 q0 92 9.5 186t32.5 198t58 196.5t90.5 177.5t125 146.5t165.5 97.5t209 36q215 0 320.5 -115t105.5 -353q0 -92 -9.5 -186.5t-32.5 -198t-58 -196.5t-90.5 -178t-125 -146.5t-166 -97.5t-209.5 -36z" />
<glyph unicode="1" horiz-adv-x="753" d="M640 1264l-257 -165q-20 -11 -39 -11q-27 0 -47 19.5t-20 47.5q0 39 35 60l387 234q25 16 48 16q29 0 46.5 -21.5t12.5 -50.5l-236 -1339q-5 -30 -29 -50.5t-55 -20.5q-30 0 -46 20.5t-12 50.5z" />
<glyph unicode="2" horiz-adv-x="1143" d="M355 1206q66 131 190 201t290 70q93 0 168 -28t123.5 -78t74.5 -117t26 -146q0 -69 -21 -133.5t-49.5 -115t-83.5 -104t-98 -89t-118 -82.5t-117.5 -71t-122.5 -67q-77 -42 -114.5 -63.5t-94 -58t-83.5 -63t-48 -60.5t-21 -68h755q16 0 29 -7.5t20 -20.5t7 -29 q0 -31 -24.5 -53.5t-55.5 -22.5h-829q-25 0 -41 16.5t-16 41.5q0 80 33.5 151t90 125t130.5 103.5t155 94t162.5 89t155 95t130 106.5t90.5 129t34 157q0 53 -17.5 96.5t-50.5 75.5t-84.5 50t-116.5 18q-64 0 -116 -14.5t-92.5 -44t-71.5 -64.5t-62 -84q-20 -33 -58 -33 q-28 0 -47.5 19t-19.5 47q0 16 9 32z" />
<glyph unicode="3" horiz-adv-x="1165" d="M722 878h22q85 0 151.5 -19.5t109.5 -53t71.5 -81t40.5 -100t12 -113.5q0 -256 -151.5 -398.5t-433.5 -142.5q-80 0 -148.5 19.5t-119.5 55t-88 79t-63 95.5q-6 13 -6 31q0 27 18 45.5t46 18.5q41 0 57 -35q91 -180 326 -180q208 0 313.5 102t105.5 291q0 257 -275 257 h-151q-24 0 -39 15t-15 38q0 30 26 56l478 460h-555q-24 0 -39 15.5t-15 38.5q0 32 23 53.5t55 21.5h700q24 0 39.5 -15.5t15.5 -38.5q0 -29 -27 -55z" />
<glyph unicode="4" horiz-adv-x="1160" d="M974 466h122q26 0 42.5 -15.5t16.5 -39.5q0 -31 -25 -54.5t-57 -23.5h-123l-49 -279q-5 -30 -29.5 -50.5t-54.5 -20.5t-46.5 20.5t-11.5 50.5l49 279h-627q-25 0 -40.5 17t-15.5 42t23 51l865 989q27 31 64 31q31 0 48 -21t12 -51zM331 466h502l126 720z" />
<glyph unicode="5" horiz-adv-x="1192" d="M755 959q195 0 309 -102.5t114 -288.5q0 -148 -41.5 -262.5t-118.5 -188t-184.5 -110.5t-242.5 -37q-173 0 -289.5 78t-163.5 214q-7 19 -7 33q0 28 18.5 46t45.5 18q18 0 35.5 -9.5t25.5 -31.5q48 -115 130.5 -165t217.5 -50q97 0 175 26t135.5 79t88.5 137.5t31 196.5 q0 143 -81 214t-222 71q-76 0 -139 -15t-113.5 -42t-106.5 -71q-14 -11 -21 -16t-20 -9.5t-28 -4.5q-24 0 -41 16.5t-17 41.5q0 10 11 41l234 627q6 15 16 26.5t25 18.5t33 7h655q24 0 40 -16.5t16 -41.5q0 -30 -24 -52.5t-55 -22.5h-607l-163 -441q137 86 329 86z" />
<glyph unicode="6" horiz-adv-x="1216" d="M792 931q187 0 299.5 -101.5t112.5 -281.5q0 -148 -42.5 -259.5t-122 -181t-187.5 -103.5t-243 -34q-105 0 -183.5 38t-127 108t-72 164.5t-23.5 211.5q0 311 80.5 531.5t238 337t381.5 116.5q110 0 201.5 -41t125.5 -88q13 -19 13 -39q0 -13 -5.5 -25.5t-14.5 -21 t-21 -14t-26 -5.5q-23 0 -45 17q-118 86 -263 86q-141 0 -250.5 -78.5t-172.5 -214t-80 -313.5q25 31 61 61t88.5 61t125 50t152.5 19zM630 99q96 0 172.5 23.5t135.5 73.5t90.5 133.5t31.5 195.5q0 71 -21.5 125t-61.5 87t-92.5 49t-116.5 16q-72 0 -133.5 -17.5t-111 -51 t-88.5 -72.5t-78 -93q-11 -59 -11 -135q0 -153 74.5 -243.5t209.5 -90.5z" />
<glyph unicode="7" horiz-adv-x="1038" d="M248 41q7 85 30 168t51 148.5t76 138.5t85 120.5t100 113.5t98 100t101 95q76 70 112.5 106.5t84.5 91.5t68.5 100t22.5 91h-724q-16 0 -29 7.5t-20 21t-7 29.5q0 20 11 37.5t29.5 27.5t38.5 10h802q24 0 40.5 -16.5t16.5 -41.5q-1 -39 -8 -77.5t-17 -71t-30 -68t-36 -62 t-46 -61.5t-49.5 -56.5t-57 -57.5t-58.5 -55t-62 -57q-48 -42 -72.5 -64.5t-69 -66t-70 -72t-64 -74.5t-61.5 -83t-51 -88t-45 -99t-31.5 -106t-21.5 -119q-3 -31 -26 -49.5t-53 -18.5q-26 0 -43 17t-15 41z" />
<glyph unicode="8" horiz-adv-x="1190" d="M589 -30q-203 0 -319 92.5t-116 268.5q0 111 36 200.5t110 155.5t184 105q-62 36 -101 98.5t-39 154.5q0 106 38 189t106.5 136t161.5 80t206 27q117 0 201 -32t132 -101.5t48 -171.5q0 -259 -254 -380q93 -37 144 -119.5t51 -192.5q0 -98 -28.5 -180t-81 -142.5 t-125 -103t-162.5 -63.5t-192 -21zM833 1348q-162 0 -253.5 -74.5t-91.5 -215.5q0 -103 67.5 -156t188.5 -53q159 0 252.5 78t93.5 222q0 66 -30.5 110.5t-87.5 66.5t-139 22zM722 720q-195 0 -309 -95t-114 -274q0 -126 84 -189t230 -63q93 0 168.5 22t132.5 66.5t88.5 116 t31.5 164.5q0 84 -37 141t-106 84t-169 27z" />
<glyph unicode="9" horiz-adv-x="1216" d="M681 517q-187 0 -299.5 101t-112.5 281q0 119 28 214.5t79 163t125 113t164.5 66.5t198.5 21q105 0 184 -38t127 -108t71.5 -164.5t23.5 -212.5q0 -310 -80.5 -530.5t-238 -337t-381.5 -116.5q-110 0 -202 41t-125 88q-13 17 -13 39q0 27 20 47t47 20q21 0 45 -18 q118 -86 262 -86q141 0 251 78.5t173 214.5t80 314q-25 -31 -60.5 -61t-88.5 -61t-125.5 -50t-152.5 -19zM843 1348q-96 0 -172.5 -23.5t-135 -73t-90.5 -133t-32 -195.5q0 -140 79.5 -209t213.5 -69q57 0 109 12t92.5 32.5t79 51.5t68.5 64t61 75q11 59 11 135 q0 153 -74.5 243t-209.5 90z" />
<glyph unicode=":" horiz-adv-x="343" d="M170 -17q-86 0 -86 73q0 61 33 96t90 35q86 0 86 -73q0 -61 -33 -96t-90 -35zM310 776q-27 0 -46 8t-29.5 24.5t-10.5 40.5q0 62 33 97t89 35q41 0 64 -18.5t23 -55.5q0 -61 -33 -96t-90 -35z" />
<glyph unicode=";" horiz-adv-x="343" d="M310 776q-27 0 -46 8t-29.5 24.5t-10.5 40.5q0 62 33 97t89 35q41 0 64 -18.5t23 -55.5q0 -61 -33 -96t-90 -35zM290 88q0 -103 -60 -213t-161 -208q-15 -16 -30 -16q-14 0 -24.5 9t-10.5 22q0 12 11 25q64 75 91 119.5t27 89.5q0 29 -24.5 72t-24.5 76q0 59 32.5 91 t90.5 32q41 0 62 -23.5t21 -75.5z" />
<glyph unicode="&#x3c;" horiz-adv-x="724" d="M88 497q0 31 39 57l679 478q18 11 35 11q24 0 41 -17t17 -41q0 -30 -31 -52l-638 -438l484 -429q17 -17 17 -40q0 -24 -17 -41.5t-41 -17.5q-23 0 -37 14l-529 475q-19 19 -19 41z" />
<glyph unicode="=" horiz-adv-x="975" d="M1088 640q0 -27 -20.5 -46.5t-47.5 -19.5h-860q-23 0 -37 14t-14 36q0 27 21.5 46.5t47.5 19.5h860q23 0 36.5 -14t13.5 -36zM1030 312q0 -28 -20.5 -47.5t-48.5 -19.5h-860q-23 0 -36.5 14t-13.5 36q0 27 21.5 46.5t48.5 19.5h860q22 0 35.5 -14t13.5 -35z" />
<glyph unicode="&#x3e;" horiz-adv-x="724" d="M815 513q0 -33 -37 -57l-679 -477q-20 -12 -37 -12q-24 0 -41 17.5t-17 41.5q0 32 29 52l640 433l-480 431q-19 19 -19 43t17 41t41 17t39 -15l525 -474q19 -15 19 -41z" />
<glyph unicode="?" horiz-adv-x="991" d="M464 344q-22 27 -34.5 64t-12.5 72q0 50 15.5 92.5t43 73.5t63.5 59.5t76.5 51t83.5 47.5t83.5 48.5t76.5 54.5t63 65.5t43 82t16 102.5q0 95 -66 144t-186 49q-278 0 -323 -258q-4 -29 -28 -49.5t-54 -20.5q-25 0 -43 18.5t-16 43.5q4 83 35.5 153t90 124.5t151 85 t209.5 30.5q175 0 272 -78.5t97 -220.5q0 -46 -7.5 -89t-18.5 -77t-32 -67t-38.5 -57t-48 -50.5t-50.5 -42.5t-55.5 -38t-54.5 -33t-55 -31q-36 -19 -53 -29t-44.5 -27.5t-41.5 -30.5t-29.5 -30.5t-21.5 -36t-6 -38.5q0 -35 17 -73q8 -19 8 -38.5t-9.5 -35.5t-25.5 -26 t-35 -10q-32 0 -55 26zM439 -17q-86 0 -86 73q0 40 15 70t42.5 45.5t65.5 15.5q86 0 86 -73q0 -40 -15 -69.5t-42.5 -45.5t-65.5 -16z" />
<glyph unicode="@" horiz-adv-x="1722" d="M1288 -15q-206 0 -206 169q-46 -77 -119 -123t-165 -46q-129 0 -198 75.5t-69 201.5q0 110 32.5 205t89.5 162t138 105t175 38q122 0 204 -73l2 11q10 51 61 51q24 0 35.5 -14.5t6.5 -36.5l-91 -478q-4 -19 -4 -49q0 -40 15.5 -64.5t41.5 -33.5t66 -9q81 0 141.5 34.5 t98 98t56 149t18.5 192.5q0 58 -8 109.5t-23.5 95.5t-39 81.5t-53 68t-66 55.5t-79 43t-91 30t-102 17.5t-112.5 5.5q-189 0 -335 -49t-252 -150.5t-162 -265.5t-56 -384q0 -111 25.5 -198.5t72.5 -147.5t117 -99.5t156.5 -57.5t192.5 -18q319 0 518 119q12 8 30 8 q11 0 20.5 -5t15 -14.5t5.5 -21.5q0 -31 -30 -49q-106 -66 -259 -98.5t-317 -32.5q-316 0 -485 152t-169 456q0 231 64 411t184.5 298.5t292.5 180t388 61.5q150 0 271.5 -37.5t209 -111t135.5 -187t48 -259.5q0 -23 -1 -46.5t-6 -66t-13 -81t-24 -86t-37.5 -87t-55 -78.5 t-75 -66t-99 -43.5t-125.5 -16.5zM636 277q0 -42 10 -76.5t30 -62t55.5 -43t83.5 -15.5q64 0 118.5 28.5t91 77.5t60.5 108t35 125l31 185q-22 22 -50.5 38.5t-65.5 26.5t-76 10q-138 0 -230.5 -112.5t-92.5 -289.5z" />
<glyph unicode="A" horiz-adv-x="1317" d="M1013 562l-140 657l-370 -657h510zM1034 428h-599l-228 -393q-27 -52 -74 -52q-30 0 -51.5 21t-21.5 52q0 20 14 43l765 1316q28 50 75 50q26 0 43 -14t22 -36l287 -1327q4 -21 4 -30q0 -22 -8.5 -38.5t-26 -26.5t-41.5 -10q-27 0 -46 14t-23 36z" />
<glyph unicode="B" horiz-adv-x="1205" d="M550 1314l-88 -499h291q151 0 246 83t95 214q0 96 -62.5 149t-190.5 53h-291zM441 690l-99 -557h355q168 0 259 90t91 241q0 107 -66 166.5t-185 59.5h-355zM675 0h-430q-30 0 -47.5 21.5t-12.5 52.5l230 1300q4 31 30 52t56 21h365q191 0 285 -82t94 -228 q0 -136 -76.5 -235.5t-189.5 -129.5q100 -26 159.5 -99.5t59.5 -192.5q0 -104 -33 -191t-96.5 -152t-164 -101t-229.5 -36z" />
<glyph unicode="C" horiz-adv-x="1356" d="M759 -30q-270 0 -414.5 136t-144.5 417q0 226 57 405.5t163 300.5t257.5 184.5t339.5 63.5q156 0 274 -65t178 -173q8 -14 8 -35q0 -19 -9 -35t-25 -25t-35 -9q-38 0 -56 28q-39 63 -91 103t-117 59t-146 19q-303 0 -474 -211.5t-171 -590.5q0 -95 18.5 -168.5t53 -124.5 t87.5 -83.5t119.5 -47.5t150.5 -15q110 0 216 45t184 131q26 29 57 29q19 0 34.5 -9.5t24.5 -25t9 -35.5q0 -27 -21 -51q-87 -101 -231.5 -159t-295.5 -58z" />
<glyph unicode="D" horiz-adv-x="1307" d="M550 1314l-208 -1181h230q149 0 267 47t201 139.5t127 234.5t44 328q0 117 -29 201t-86 134.5t-134.5 73.5t-181.5 23h-230zM501 1447h303q134 0 235 -30.5t174.5 -94.5t111.5 -168.5t38 -248.5q0 -219 -56 -389.5t-161.5 -284t-256.5 -172.5t-341 -59h-303 q-31 0 -48 21.5t-12 52.5l230 1300q4 31 29.5 52t56.5 21z" />
<glyph unicode="E" d="M959 0h-714q-31 0 -48 21.5t-12 52.5l230 1300q4 31 29.5 52t56.5 21h691q24 0 39.5 -16.5t15.5 -41.5q0 -30 -24 -52.5t-55 -22.5h-618l-90 -518h473q16 0 29 -8t20 -21.5t7 -29.5q0 -30 -25 -52t-55 -22h-472l-95 -530h641q24 0 39.5 -16.5t15.5 -40.5q0 -31 -24 -53.5 t-55 -22.5z" />
<glyph unicode="F" d="M430 645l-103 -589q-5 -31 -30.5 -52t-56.5 -21q-30 0 -47 21t-12 52l232 1318q3 21 15.5 37.5t31.5 26t39 9.5h691q25 0 40 -16.5t15 -41.5q0 -30 -24 -52.5t-53 -22.5h-618l-94 -536h473q24 0 40 -16.5t16 -41.5q0 -30 -25 -52.5t-55 -22.5h-475z" />
<glyph unicode="G" horiz-adv-x="1424" d="M782 103q139 0 248.5 48.5t182.5 123.5l55 312h-359q-25 0 -40 16.5t-15 41.5q0 30 23.5 52.5t55.5 22.5h435q26 0 42 -19.5t12 -46.5l-65 -377q-7 -45 -39 -77q-44 -47 -97 -85.5t-122 -72.5t-156.5 -53t-183.5 -19q-270 0 -414.5 136t-144.5 417q0 226 57 405.5 t163 300.5t257.5 184.5t339.5 63.5q156 0 274 -65t178 -173q8 -14 8 -35q0 -19 -9 -35t-25 -25t-35 -9q-38 0 -56 28q-39 63 -91 103t-117 59t-146 19q-303 0 -474 -211.5t-171 -590.5q0 -95 18.5 -168.5t53 -124.5t87.5 -83.5t119.5 -47.5t150.5 -15z" />
<glyph unicode="H" horiz-adv-x="1383" d="M1184 675h-747l-110 -619q-5 -30 -30 -51.5t-57 -21.5q-31 0 -47.5 21.5t-11.5 51.5l236 1335q5 30 29.5 52t56 22t49 -22t12.5 -52l-104 -583h749l102 583q5 30 30 52t56.5 22t48.5 -22t12 -52l-237 -1335q-5 -30 -29.5 -51.5t-56.5 -21.5q-31 0 -48 21.5t-12 51.5z" />
<glyph unicode="I" horiz-adv-x="489" d="M564 1391l-237 -1335q-5 -30 -30 -51.5t-57 -21.5q-31 0 -47.5 21.5t-11.5 51.5l236 1335q5 30 29.5 52t56 22t49 -22t12.5 -52z" />
<glyph unicode="J" horiz-adv-x="887" d="M82 28q-33 23 -33 58q0 19 10 35.5t26.5 26.5t35.5 10q16 0 43 -14q65 -35 163 -35q69 0 124.5 24.5t93.5 69t63 103t39 131.5l170 954q2 15 10 28.5t19 23.5t26 16t31 6q31 0 47 -21.5t11 -52.5l-167 -954q-84 -465 -491 -465q-59 0 -123 15.5t-98 40.5z" />
<glyph unicode="K" horiz-adv-x="1190" d="M445 720l751 721q24 24 54 24t51.5 -21.5t21.5 -52.5q0 -32 -26 -55l-550 -515l397 -731q9 -16 9 -34q0 -20 -10 -37t-26.5 -26.5t-37.5 -9.5q-22 0 -38 10.5t-24 23.5l-377 710l-232 -216l-81 -455q-5 -32 -29 -52.5t-58 -20.5q-33 0 -48.5 20.5t-10.5 52.5l236 1335 q5 31 29.5 52.5t56.5 21.5t49 -21.5t12 -52.5z" />
<glyph unicode="L" horiz-adv-x="1038" d="M342 138h591q26 0 42 -16.5t16 -41.5q0 -32 -25.5 -56t-58.5 -24h-662q-31 0 -48 21.5t-12 52.5l232 1317q5 31 29.5 52.5t56.5 21.5t49 -21.5t12 -52.5z" />
<glyph unicode="M" horiz-adv-x="1635" d="M847 234q-6 0 -12.5 1.5t-13.5 4.5t-12.5 7.5t-10.5 11.5t-8 16l-302 837l-187 -1058q-4 -30 -28.5 -50.5t-55.5 -20.5q-30 0 -46 20.5t-11 50.5l236 1339q5 31 25 51.5t50 20.5q48 0 65 -47l348 -969l692 975q29 41 76 41q29 0 45.5 -21t11.5 -51l-236 -1339 q-5 -30 -29 -50.5t-55 -20.5q-30 0 -46 20.5t-12 50.5l187 1058l-600 -837q-28 -41 -71 -41z" />
<glyph unicode="N" horiz-adv-x="1332" d="M1370 1465q29 0 46 -21t12 -51l-236 -1337q-5 -31 -30 -52t-56 -21q-39 0 -55 30l-548 1179l-202 -1138q-5 -30 -28 -50.5t-56 -20.5q-30 0 -46 20.5t-11 50.5l236 1339q3 20 13.5 36t28 26t38.5 10q40 0 57 -35l557 -1174l196 1137q5 30 29 51t55 21z" />
<glyph unicode="O" horiz-adv-x="1530" d="M761 -30q-558 0 -558 553q0 222 58 401t164.5 300.5t259.5 187t341 65.5q558 0 558 -552q0 -177 -37 -328t-107.5 -266.5t-171 -196.5t-229 -122.5t-278.5 -41.5zM1002 1344q-202 0 -348 -97t-222.5 -277.5t-76.5 -427.5q0 -227 109.5 -333t320.5 -106q202 0 348 97 t222.5 277.5t76.5 427.5q0 227 -109 333t-321 106z" />
<glyph unicode="P" horiz-adv-x="1169" d="M550 1314l-103 -574h333q156 0 249 92.5t93 253.5q0 111 -62.5 169.5t-175.5 58.5h-334zM423 607l-96 -551q-5 -31 -30.5 -52t-56.5 -21q-30 0 -47 21t-12 52l232 1318q3 21 15.5 37.5t31.5 26t39 9.5h428q102 0 178.5 -36t122 -112.5t45.5 -186.5q0 -121 -39 -218 t-107 -159t-157 -95t-192 -33h-355z" />
<glyph unicode="Q" horiz-adv-x="1530" d="M761 -30q-558 0 -558 553q0 222 58 401t164.5 300.5t259.5 187t341 65.5q558 0 558 -552q0 -339 -133 -570.5t-372 -321.5q53 -20 108.5 -70.5t55.5 -100.5q0 -29 -21 -50t-50 -21q-36 0 -54 26q-38 58 -80 89.5t-108 47.5t-169 16zM1002 1344q-202 0 -348 -97 t-222.5 -277.5t-76.5 -427.5q0 -227 109.5 -333t320.5 -106q202 0 348 97t222.5 277.5t76.5 427.5q0 227 -109 333t-321 106z" />
<glyph unicode="R" horiz-adv-x="1173" d="M550 1314l-98 -555h359q92 0 164 44.5t109.5 118t37.5 162.5q0 101 -59.5 165.5t-159.5 64.5h-353zM428 626l-101 -570q-5 -31 -29.5 -52t-57.5 -21q-29 0 -46.5 21t-12.5 52l232 1318q3 21 15.5 37.5t31.5 26t39 9.5h428q157 0 251.5 -98t94.5 -248q0 -93 -34 -179.5 t-94 -152t-147.5 -104.5t-189.5 -39l300 -532q10 -17 10 -38q0 -31 -21 -52t-52 -21q-18 0 -35.5 8.5t-26.5 25.5l-325 609h-230z" />
<glyph unicode="S" horiz-adv-x="1199" d="M1168 1178q-104 166 -327 166q-91 0 -162 -23t-111.5 -61.5t-61 -84t-20.5 -96.5q0 -43 19.5 -79t53 -61t77.5 -48.5t94 -41t103 -39.5t103 -43t94.5 -52t77.5 -66.5t52.5 -86.5t19.5 -113q0 -226 -152 -352.5t-443 -126.5q-92 0 -171.5 23.5t-135 63.5t-93.5 88.5 t-56 102.5q-4 12 -4 25q0 29 19.5 49t48.5 20q21 0 39 -11t24 -28q26 -58 71 -101.5t118 -71t164 -27.5q199 0 311 86.5t112 233.5q0 48 -19.5 88t-53 67.5t-78 52t-94.5 42.5t-103 39.5t-103.5 42t-95 50.5t-78 64.5t-53 84.5t-19.5 111q0 84 33.5 158t98 131t167 90 t230.5 33q150 0 265 -63.5t157 -168.5q7 -15 7 -30q0 -14 -5.5 -27t-15 -22t-22 -14t-27.5 -5q-36 0 -55 31z" />
<glyph unicode="T" horiz-adv-x="1156" d="M737 1309h-384q-26 0 -42 17t-16 42q0 32 24 55.5t57 23.5h914q26 0 42 -16.5t16 -41.5q0 -32 -24.5 -56t-57.5 -24h-382l-221 -1253q-5 -31 -30.5 -52t-56.5 -21q-30 0 -47 21t-12 52z" />
<glyph unicode="U" horiz-adv-x="1340" d="M673 -30q-114 0 -199.5 27.5t-136 77t-75 111t-24.5 134.5q0 46 12 121l167 950q5 31 29.5 52.5t56.5 21.5t49 -21.5t12 -52.5l-168 -950q-9 -49 -9 -90q0 -244 310 -244q86 0 153.5 19t111.5 49.5t75.5 75t48 90t26.5 100.5l168 950q5 31 29 52.5t56 21.5t49 -21.5 t12 -52.5l-168 -950q-8 -47 -19.5 -88t-29 -85t-42.5 -80.5t-57 -71t-75.5 -60.5t-96 -46t-120 -30t-145.5 -10z" />
<glyph unicode="V" horiz-adv-x="1237" d="M663 256l642 1166q22 43 67 43q31 0 52 -21.5t21 -52.5q0 -18 -13 -43l-737 -1315q-27 -50 -78 -50q-21 0 -38.5 13.5t-22.5 36.5l-268 1337q-2 13 -2 21q0 20 9.5 37t26.5 27t37 10q29 0 47.5 -17.5t23.5 -39.5z" />
<glyph unicode="W" horiz-adv-x="1758" d="M1082 1133l-503 -1094q-24 -56 -82 -56q-25 0 -42 14.5t-20 39.5l-145 1326q-2 17 -2 28q0 31 21 52.5t52 21.5q20 0 36.5 -9t26 -23.5t11.5 -32.5l119 -1101l504 1111q24 55 77 55q26 0 44 -15.5t21 -41.5l111 -1109l511 1119q21 47 68 47q31 0 52.5 -21.5t21.5 -52.5 q0 -15 -9 -37l-617 -1317q-24 -54 -74 -54q-60 0 -66 56z" />
<glyph unicode="X" horiz-adv-x="1075" d="M654 617l-500 -607q-24 -27 -57 -27q-31 0 -52 21t-21 52q0 27 17 47l546 646l-294 610q-7 14 -7 32q0 20 9.5 37t26.5 27t37 10q22 0 39 -11t25 -28l269 -548l459 558q25 29 58 29q30 0 51.5 -21.5t21.5 -52.5q0 -25 -16 -45l-511 -604l310 -656q6 -9 6 -30 q0 -31 -21.5 -52t-51.5 -21q-46 0 -65 38z" />
<glyph unicode="Y" d="M554 -17q-31 0 -47.5 20.5t-11.5 52.5l109 617l-311 688q-7 15 -7 30q0 20 9.5 37t26.5 27t37 10q46 0 64 -41l278 -605l485 615q25 31 61 31q31 0 52 -21.5t21 -52.5q0 -27 -17 -47l-552 -671l-111 -617q-4 -31 -28.5 -52t-57.5 -21z" />
<glyph unicode="Z" horiz-adv-x="1102" d="M1009 0h-904q-17 0 -30 7.5t-20.5 21t-7.5 29.5q0 26 22 51l1008 1200h-697q-27 0 -42.5 17t-15.5 42q0 32 25 55.5t59 23.5h827q25 0 40 -16.5t15 -41.5q0 -28 -20 -51l-1001 -1200h765q27 0 42.5 -16.5t15.5 -41.5q0 -33 -23.5 -56.5t-57.5 -23.5z" />
<glyph unicode="[" horiz-adv-x="556" d="M468 -250q0 -26 -19.5 -45t-44.5 -19h-217q-29 0 -46 20t-12 49l312 1763q5 29 28 49t52 20h216q21 0 34.5 -14t13.5 -34q0 -25 -20.5 -44.5t-46.5 -19.5h-148l-295 -1678h148q20 0 32.5 -13.5t12.5 -33.5z" />
<glyph unicode="\" horiz-adv-x="874" d="M634 -150l-275 1662q-4 25 -4 35q0 19 9 34.5t24.5 24.5t34.5 9q12 0 22 -3t17.5 -8t14 -12.5t10.5 -16.5t5 -20l276 -1662q4 -25 4 -35q0 -29 -19.5 -49t-48.5 -20q-27 0 -46 17t-24 44z" />
<glyph unicode="]" horiz-adv-x="556" d="M-4 -267q0 26 20.5 45t45.5 19h149l294 1678h-148q-19 0 -32 14t-13 33q0 26 20 45.5t46 19.5h217q19 0 33.5 -9t20.5 -25t3 -35l-312 -1763q-5 -29 -28 -49t-52 -20h-217q-21 0 -34 13.5t-13 33.5z" />
<glyph unicode="^" horiz-adv-x="1005" d="M950 768l-210 552l-422 -565q-17 -24 -47 -24q-7 0 -13.5 1.5t-12 4.5t-10.5 7t-9 9t-7 10.5t-4.5 12.5t-1.5 14q0 20 15 37l482 631q19 28 51 28q36 0 47 -28l248 -641q7 -16 7 -27q0 -25 -17.5 -42t-41.5 -17q-18 0 -32.5 10t-21.5 27z" />
<glyph unicode="_" horiz-adv-x="872" d="M892 -142q0 -27 -21 -47t-48 -20h-847q-23 0 -36.5 14t-13.5 35q0 27 21.5 47.5t48.5 20.5h847q21 0 35 -14t14 -36z" />
<glyph unicode="`" horiz-adv-x="794" d="M751 1118q-30 -29 -67 4l-241 205q-44 41 -4 83q21 23 43.5 24.5t40.5 -16.5l224 -234q35 -35 4 -66z" />
<glyph unicode="a" horiz-adv-x="1102" d="M862 189q-56 -103 -150 -160t-213 -57q-170 0 -260.5 99t-90.5 264q0 145 42.5 269.5t117.5 213t181.5 138.5t230.5 50q161 0 267 -92l2 11q7 31 27 49.5t53 18.5q31 0 47 -19.5t11 -48.5l-155 -874q-4 -29 -26.5 -48.5t-53.5 -19.5q-30 0 -45 19.5t-10 48.5zM286 357 q0 -44 7.5 -81.5t25.5 -71t44.5 -57t66.5 -37t91 -13.5q68 0 128 25t104.5 67t79 99.5t56.5 120.5t34 133l41 243q-46 46 -111.5 73.5t-142.5 27.5q-88 0 -166 -39t-135 -107.5t-90 -168t-33 -214.5z" />
<glyph unicode="b" horiz-adv-x="1077" d="M400 692l-54 -296q-6 -37 -6 -78q0 -110 60 -165.5t170 -55.5q125 0 215 68t134.5 185t44.5 272q0 260 -254 260q-57 0 -109.5 -19.5t-87.5 -47.5t-61.5 -56t-39.5 -47zM747 1006q167 0 262 -94.5t95 -273.5q0 -203 -68 -354t-193.5 -231.5t-294.5 -80.5q-164 0 -256 82 t-92 241q0 39 9 101l189 1067q5 29 27 48.5t52.5 19.5t46.5 -19.5t12 -48.5l-106 -597q54 60 134 100t183 40z" />
<glyph unicode="c" horiz-adv-x="948" d="M148 363q0 142 36.5 260t105.5 203t173 132.5t234 47.5q54 0 101.5 -12.5t79 -29.5t58.5 -40t40.5 -40.5t23.5 -34.5q9 -15 9 -32q0 -26 -17.5 -44t-43.5 -18q-29 0 -51 25q-17 19 -24.5 26.5t-29.5 25.5t-42.5 26.5t-54.5 16t-73 7.5q-65 0 -120.5 -18t-97 -51 t-74 -78.5t-53 -102t-30.5 -119.5t-10 -133q0 -99 28 -162t81.5 -92t135.5 -29q44 0 81 6.5t70 21t55.5 27.5t54.5 35q23 16 43 16q25 0 42.5 -18t17.5 -43q0 -38 -39 -64q-152 -106 -347 -106q-363 0 -363 391z" />
<glyph unicode="d" horiz-adv-x="1077" d="M868 396l55 296q-1 4 -3.5 11t-11.5 26.5t-20.5 37.5t-32.5 40t-45.5 37.5t-61 26.5t-77.5 11q-119 0 -206.5 -65t-133 -183t-45.5 -275q0 -262 247 -262q126 0 217.5 75.5t117.5 223.5zM684 1006q96 0 166 -41t102 -99l106 597q5 29 27 48.5t52 19.5q31 0 47.5 -19.5 t11.5 -48.5l-190 -1067q-24 -139 -93.5 -235.5t-171.5 -142.5t-232 -46q-173 0 -268 93t-95 275q0 196 64 346t186.5 235t287.5 85z" />
<glyph unicode="e" horiz-adv-x="991" d="M148 340q0 197 68 347t196.5 234.5t301.5 84.5q78 0 139.5 -19t99.5 -51.5t57.5 -74t19.5 -89.5q0 -174 -179 -261.5t-558 -87.5q-7 -38 -7 -66q0 -141 64.5 -199.5t199.5 -58.5q136 0 263 90q22 16 41 16q26 0 44 -17.5t18 -43.5q0 -13 -5.5 -24.5t-11 -17t-15.5 -14.5 q-140 -116 -359 -116q-181 0 -279 92t-98 276zM308 536q292 0 438 57.5t146 163.5q0 52 -50 88.5t-150 36.5q-78 0 -145 -27.5t-114.5 -75.5t-79.5 -110t-45 -133z" />
<glyph unicode="f" horiz-adv-x="620" d="M492 976h196q24 0 39 -15t15 -38q0 -32 -23 -54t-54 -22h-197l-156 -903q-15 -83 -50.5 -151t-91.5 -119t-136 -79t-178 -28q-24 0 -38.5 16t-14.5 39q0 32 21.5 52t52.5 20q125 0 200 68.5t97 190.5l157 894h-73q-24 0 -38.5 15.5t-14.5 38.5q0 32 22.5 53.5t53.5 21.5 h74l21 128q13 76 46 141t85.5 117t131.5 81.5t176 29.5q24 0 38.5 -15t14.5 -38q0 -32 -22.5 -54t-53.5 -22q-122 0 -190.5 -65t-88.5 -175z" />
<glyph unicode="g" horiz-adv-x="1008" d="M849 380l35 203q6 42 6 77q0 110 -64 166t-174 56q-73 0 -134 -20.5t-104.5 -57t-74 -87t-45.5 -111t-15 -128.5q0 -152 64 -219.5t190 -67.5q45 0 86.5 10.5t72.5 27t58 37t44.5 40.5t30.5 36.5t19 27.5zM262 -209q0 -35 22.5 -58.5t59 -34t84.5 -10.5q82 0 142.5 19.5 t100 57t63.5 86t38 114.5l51 257q-29 -47 -76.5 -85t-98.5 -64t-106.5 -49.5t-104.5 -45.5t-88.5 -47.5t-63 -60.5t-23.5 -79zM1022 583l-108 -609q-37 -209 -162 -308t-350 -99q-128 0 -203.5 57t-75.5 146q0 110 91 180t283 121q-169 5 -263 99.5t-94 278.5 q0 170 61 294.5t181.5 193.5t290.5 69q165 0 261 -82.5t96 -239.5q0 -52 -8 -101z" />
<glyph unicode="h" horiz-adv-x="1077" d="M740 1006q91 0 158 -20.5t106 -57t57 -83t18 -103.5q0 -58 -10 -116l-101 -575q-5 -29 -27 -48.5t-52.5 -19.5t-46.5 19.5t-11 48.5l96 546q11 62 11 107q0 88 -52.5 134t-167.5 46q-285 0 -338 -301l-94 -532q-5 -29 -27 -48.5t-52 -19.5q-31 0 -47.5 19.5t-11.5 48.5 l250 1412q5 29 27 48.5t53 19.5q29 0 45.5 -19.5t12.5 -48.5l-108 -607q41 65 124 107.5t188 42.5z" />
<glyph unicode="i" horiz-adv-x="414" d="M439 925l-155 -874q-5 -29 -27 -48.5t-52 -19.5q-31 0 -47.5 19.5t-11.5 48.5l155 874q3 19 14 34.5t28 24.5t37 9q31 0 47.5 -19.5t11.5 -48.5zM447 1363q23 0 39 -7.5t24.5 -21t8.5 -31.5q0 -50 -27 -78.5t-73 -28.5q-34 0 -52 16t-18 44q0 50 26 78.5t72 28.5z" />
<glyph unicode="j" horiz-adv-x="416" d="M127 -76l176 1001q5 29 28 48.5t52 19.5t46 -19.5t12 -48.5l-176 -1001q-25 -139 -126.5 -230.5t-243.5 -91.5q-24 0 -40.5 15.5t-16.5 38.5q0 32 23 53.5t55 21.5q76 0 136.5 56t74.5 137zM449 1363q34 0 53 -16t19 -44q0 -50 -27 -78.5t-73 -28.5q-22 0 -38 7.5 t-24 20.5t-8 32q0 50 26 78.5t72 28.5z" />
<glyph unicode="k" horiz-adv-x="973" d="M860 -17q-39 0 -58 32l-297 492l-156 -105l-63 -351q-5 -29 -27.5 -48.5t-51.5 -19.5t-46.5 19.5t-12.5 48.5l250 1412q5 29 28 48.5t52 19.5t45.5 -19.5t12.5 -48.5l-160 -901l574 414q22 17 50 17q26 0 45.5 -18.5t19.5 -43.5q0 -42 -39 -69l-415 -288l310 -488 q8 -14 8 -35q0 -29 -20 -48.5t-49 -19.5z" />
<glyph unicode="l" horiz-adv-x="470" d="M477.5 1531q30.5 0 46.5 -19.5t12 -48.5l-218 -1229q-4 -26 -4 -49q0 -74 71 -74q10 0 18.5 -2.5t15 -7.5t11 -11.5t7 -15.5t2.5 -18q0 -31 -23.5 -52t-54.5 -21q-187 0 -187 181q0 31 7 70l217 1229q5 29 27 48.5t52.5 19.5z" />
<glyph unicode="m" horiz-adv-x="1736" d="M1389 1006q80 0 141 -15.5t100 -41t63.5 -62.5t34.5 -77t10 -88q0 -50 -9 -96l-101 -575q-4 -19 -14.5 -34.5t-27.5 -24.5t-37 -9q-31 0 -47.5 19.5t-11.5 48.5l97 546q9 52 9 91q0 95 -53.5 145.5t-174.5 50.5q-135 0 -213.5 -67.5t-100.5 -190.5l-102 -575 q-4 -29 -26.5 -48.5t-53 -19.5t-46.5 19.5t-11 48.5l96 546q12 64 12 95q0 91 -55 141.5t-171 50.5q-73 0 -128.5 -21t-92.5 -62t-60 -94.5t-36 -123.5l-94 -532q-5 -29 -27 -48.5t-52 -19.5q-31 0 -47.5 19.5t-11.5 48.5l155 874q5 30 27.5 49t53 19t46.5 -19t11 -49 l-13 -69q41 65 122.5 107.5t182.5 42.5q85 0 151 -20t105.5 -53t59.5 -77q124 150 340 150z" />
<glyph unicode="n" horiz-adv-x="1077" d="M740 1006q91 0 158 -20.5t106 -57t57 -83t18 -103.5q0 -58 -10 -116l-101 -575q-5 -29 -27 -48.5t-52.5 -19.5t-46.5 19.5t-11 48.5l96 546q11 62 11 107q0 88 -52.5 134t-167.5 46q-285 0 -338 -301l-94 -532q-5 -29 -27 -48.5t-52 -19.5q-31 0 -47.5 19.5t-11.5 48.5 l155 874q5 30 27.5 49t52.5 19q29 0 46 -19.5t12 -48.5l-13 -69q41 65 124 107.5t188 42.5z" />
<glyph unicode="o" horiz-adv-x="1053" d="M542 97q82 0 149 29t112 78.5t75.5 117.5t44 142.5t13.5 157.5q0 260 -255 260q-82 0 -149 -29t-112 -78.5t-75 -117.5t-43.5 -143t-13.5 -157q0 -260 254 -260zM521 -28q-179 0 -276 92t-97 276q0 86 14 166t42 155.5t73.5 137.5t105.5 108.5t142 72.5t179 26 q179 0 275 -92t96 -276q0 -103 -19 -198t-62 -181t-106.5 -149.5t-157.5 -100.5t-209 -37z" />
<glyph unicode="p" horiz-adv-x="1094" d="M383 993q29 0 46 -19.5t12 -48.5l-13 -69q48 68 129 109t190 41q180 0 276.5 -91.5t96.5 -276.5q0 -103 -19 -198t-62 -181t-106.5 -149.5t-157.5 -100.5t-209 -37q-200 0 -265 159l-88 -494q-5 -30 -27 -50t-52.5 -20t-46.5 20t-11 50l227 1288q5 29 28 48.5t52 19.5z M346 376q0 -147 62 -213t179 -66q82 0 149.5 29t112 78.5t75 117.5t44 142.5t13.5 157.5q0 260 -254 260q-79 0 -148 -34t-121 -97t-82 -160t-30 -215z" />
<glyph unicode="q" horiz-adv-x="1053" d="M852 286l51 297q6 42 6 77q0 110 -63 166t-173 56q-94 0 -168.5 -40t-122 -110.5t-72 -166t-24.5 -208.5q0 -132 64 -196t183 -64q57 0 110.5 19.5t89.5 47t64 55.5t41 47zM503 -28q-169 0 -263 93t-94 275q0 199 65.5 349t190 233.5t293.5 83.5q164 0 259 -82.5 t95 -239.5q0 -52 -8 -101l-168 -946q-5 -30 -26.5 -50t-52.5 -20q-21 0 -35.5 9.5t-20.5 25t-3 35.5l84 474q-51 -59 -132.5 -99t-183.5 -40z" />
<glyph unicode="r" horiz-adv-x="663" d="M441 925l-18 -94q47 76 134.5 123.5t195.5 47.5q24 0 39.5 -16.5t15.5 -41.5q0 -30 -24 -53t-55 -23q-145 0 -238 -91t-119 -244l-86 -482q-5 -29 -27.5 -48.5t-51.5 -19.5t-46.5 19.5t-12.5 48.5l155 874q5 30 27.5 49t52.5 19q29 0 46 -19.5t12 -48.5z" />
<glyph unicode="s" horiz-adv-x="911" d="M597 873q-41 0 -77.5 -7.5t-68 -23.5t-50 -45.5t-18.5 -69.5q0 -37 21 -66.5t55 -48t77.5 -37t89 -33.5t89 -37.5t78 -48t55 -66.5t20.5 -93q0 -158 -110.5 -240.5t-299.5 -82.5q-117 0 -211 48t-140 116q-8 14 -8 32q0 26 18.5 44t44.5 18q29 0 47 -21q89 -106 262 -106 q53 0 98 9.5t81.5 29t57.5 53.5t21 78q0 34 -21 61t-55.5 44.5t-78.5 35.5t-89.5 33.5t-89.5 39t-78.5 50.5t-55.5 69.5t-21 95.5q0 74 28.5 132.5t79.5 94.5t118.5 54.5t148.5 18.5q102 0 187 -42.5t121 -101.5q10 -18 10 -35q0 -26 -18 -44t-44.5 -18t-45.5 19 q-28 28 -57 47t-73 31.5t-98 12.5z" />
<glyph unicode="t" horiz-adv-x="599" d="M363 976l41 226q3 18 15 34t30 25t37 9q30 0 45.5 -19.5t10.5 -48.5l-41 -226h142q24 0 39 -15t15 -38q0 -32 -23 -54t-54 -22h-138l-106 -593q-4 -21 -4 -39q0 -50 28 -77t76 -27q24 0 39.5 -15.5t15.5 -39.5q0 -30 -24 -51.5t-55 -21.5q-107 0 -163.5 55.5t-56.5 150.5 q0 34 6 65l106 593h-86q-24 0 -38.5 15.5t-14.5 38.5q0 32 22.5 53.5t53.5 21.5h82z" />
<glyph unicode="u" horiz-adv-x="1036" d="M361 993q29 0 46 -19.5t12 -48.5l-99 -562q-8 -49 -8 -79q0 -85 50.5 -133t173.5 -48q64 0 114 14t82.5 37t56 58t36 70.5t20.5 80.5l99 562q5 29 28 48.5t54 19.5q29 0 44.5 -19.5t11.5 -48.5l-99 -562q-8 -41 -17.5 -75.5t-23.5 -71.5t-33.5 -67t-45.5 -58t-59.5 -49.5 t-75 -37.5t-94 -24t-113.5 -8q-93 0 -161.5 21t-108.5 59t-59.5 87t-19.5 109q0 51 11 115l98 562q5 30 27.5 49t52.5 19z" />
<glyph unicode="v" horiz-adv-x="941" d="M466 -17q-46 0 -55 43l-211 871q-5 17 -5 28q0 29 20 48.5t50 19.5q18 0 33 -8t22.5 -19t10.5 -22l176 -737l435 752q21 34 60 34q19 0 35 -8.5t25 -24.5t9 -35q0 -16 -13 -41l-518 -858q-26 -43 -74 -43z" />
<glyph unicode="w" horiz-adv-x="1375" d="M813 714l-318 -681q-10 -23 -30 -36.5t-46 -13.5q-23 0 -38 12t-18 33l-160 869q-6 26 -6 28q0 29 20 48.5t50 19.5q24 0 43.5 -15t22.5 -36l127 -706l325 706q25 51 73 51q19 0 33 -7.5t20 -17.5t7 -22l80 -710l374 718q20 39 62 39q19 0 35 -8.5t25.5 -24.5t9.5 -35 t-12 -39l-470 -858q-11 -21 -31 -33t-43 -12t-38.5 13.5t-19.5 36.5z" />
<glyph unicode="x" horiz-adv-x="885" d="M523 398l-338 -388q-24 -27 -58 -27q-29 0 -49 19.5t-20 48.5q0 27 20 50l371 404l-221 390q-6 12 -6 30q0 29 19.5 48.5t48.5 19.5q20 0 37 -10.5t24 -23.5l193 -359l324 366q24 27 57 27q29 0 48.5 -19.5t19.5 -48.5q0 -27 -21 -52l-355 -376l224 -415q6 -13 6 -31 q0 -29 -20 -48.5t-49 -19.5q-43 0 -60 34z" />
<glyph unicode="y" horiz-adv-x="1036" d="M361 993q29 0 46 -19.5t12 -48.5l-81 -463q-9 -55 -9 -79q0 -40 10.5 -71.5t35 -57t69.5 -38.5t108 -13q73 0 130 21.5t92.5 59.5t56.5 82t31 96l82 463q5 29 28 48.5t54 19.5q29 0 44.5 -19.5t11.5 -48.5l-168 -951q-37 -209 -162 -308t-350 -99q-128 0 -203.5 57 t-75.5 146q0 109 90.5 178t285.5 123q-83 5 -143.5 28t-96.5 60.5t-53 84t-17 102.5q0 51 11 116l81 463q5 30 27.5 49t52.5 19zM262 -209q0 -35 22.5 -58.5t59 -34t84.5 -10.5q82 0 142.5 19.5t100 57t63.5 86t38 114.5l51 257q-29 -47 -76.5 -85t-98.5 -64t-106.5 -49.5 t-104.5 -45.5t-88.5 -47.5t-63 -60.5t-23.5 -79z" />
<glyph unicode="z" horiz-adv-x="870" d="M240 901q0 32 23 53.5t55 21.5h589q24 0 39 -15t15 -38q0 -27 -23 -55l-659 -735h491q25 0 40 -16t15 -41q0 -31 -23 -53.5t-55 -22.5h-630q-25 0 -40 15t-15 39q0 25 24 53l667 740h-456q-25 0 -41 15.5t-16 38.5z" />
<glyph unicode="{" horiz-adv-x="726" d="M628 -245q0 -18 -10.5 -34t-27.5 -25.5t-36 -9.5q-68 0 -120 18t-82 49t-44.5 68.5t-14.5 79.5q0 60 29 166t57.5 211t28.5 161q0 45 -14 75.5t-41 45.5t-58 21t-73 6h-15q-18 0 -29.5 11.5t-11.5 31.5q0 23 17.5 39.5t40.5 16.5h14q39 0 69.5 4t62 17t53.5 34.5t40 58 t27 86.5q9 45 15 110t9 118t11.5 116t21.5 112t40 96.5t65.5 78.5t99 50.5t138.5 19.5q22 0 37 -15.5t15 -36.5q0 -18 -11 -34t-28 -25t-35 -9q-84 0 -125.5 -41.5t-58.5 -116.5q-13 -52 -22 -126.5t-17.5 -153.5t-16.5 -126q-21 -117 -102 -192t-206 -75q109 0 164.5 -53 t55.5 -148q0 -57 -25 -162.5t-49.5 -204.5t-24.5 -142q0 -26 7.5 -47.5t23 -38t42 -25t62.5 -8.5q15 0 27 -7t18.5 -19t6.5 -26z" />
<glyph unicode="|" horiz-adv-x="464" d="M595 1666l-341 -1939q-2 -14 -10 -27.5t-19.5 -23t-26 -15t-28.5 -5.5q-29 0 -46 21t-13 50l343 1939q4 30 28 51t56 21q29 0 45.5 -21t11.5 -51z" />
<glyph unicode="}" horiz-adv-x="726" d="M324 1518q0 27 23 48t51 21q68 0 120 -18t82.5 -49t45 -68t14.5 -80q0 -59 -29 -165t-58 -211t-29 -161q0 -45 14 -76t41.5 -46t58.5 -21t73 -6h16q18 0 29.5 -12t11.5 -31q0 -23 -18 -39.5t-41 -16.5h-15q-39 0 -69 -4t-61.5 -16.5t-54 -34t-40.5 -58t-27 -87.5 q-8 -45 -14 -109.5t-9 -118t-12 -116.5t-22 -112t-40 -96.5t-65 -79t-98.5 -50.5t-139.5 -19q-14 0 -26 7t-19 19t-7 26q0 26 23.5 47.5t50.5 21.5q84 0 125.5 41t59.5 115q16 68 31.5 214t23.5 193q21 117 102 191.5t206 74.5q-109 0 -164 53.5t-55 149.5q0 56 24.5 161.5 t49 204.5t24.5 141q0 56 -32.5 88.5t-102.5 32.5q-15 0 -27 7t-18.5 18.5t-6.5 25.5z" />
<glyph unicode="~" horiz-adv-x="1024" d="M819 630q27 0 49 8t40 25t26.5 27.5t22.5 29.5q24 33 54 33q22 0 39 -15.5t17 -38.5q0 -15 -9 -32q-31 -62 -98.5 -106t-159.5 -44q-48 0 -91.5 14t-76 34.5t-63 41t-66 35t-70.5 14.5q-27 0 -49.5 -8t-40 -25t-26.5 -27.5t-22 -29.5q-24 -33 -55 -33q-21 0 -38 16 t-17 38q0 16 8 33q32 61 99 105.5t160 44.5q45 0 88 -14.5t76 -35t64.5 -41t67.5 -35t71 -14.5z" />
<glyph unicode="&#xa1;" horiz-adv-x="446" d="M138 -476q-78 0 -62 76l210 1013q7 39 49 39q41 0 37 -39l-146 -1013q-10 -76 -88 -76zM400 1006q86 0 86 -73q0 -61 -33 -96t-90 -35q-27 0 -46 8t-29.5 24.5t-10.5 41.5q0 61 33 95.5t90 34.5z" />
<glyph unicode="&#xa2;" horiz-adv-x="948" d="M148 363q0 180 56 318.5t167.5 223.5t266.5 99l22 121q4 22 23.5 38.5t43.5 16.5q22 0 35 -16t10 -39l-21 -123q53 -6 98.5 -24.5t75 -43.5t46.5 -45t29 -40q9 -15 9 -32q0 -26 -17.5 -44t-43.5 -18q-29 0 -51 25q-17 19 -24.5 26.5t-29.5 25.5t-42.5 26.5t-54.5 16 t-73 7.5q-65 0 -120.5 -18t-97 -51t-74 -78.5t-53 -102t-30.5 -119.5t-10 -133q0 -99 28 -162t81.5 -92t135.5 -29q44 0 81 6.5t70 21t55.5 27.5t54.5 35q23 16 43 16q25 0 42.5 -18t17.5 -43q0 -38 -39 -64q-130 -92 -288 -104l-26 -148q-5 -23 -24.5 -39.5t-42 -16.5 t-36 16.5t-8.5 39.5l25 148q-310 29 -310 389z" />
<glyph unicode="&#xa3;" horiz-adv-x="1270" d="M1163 256q28 0 47.5 -20.5t19.5 -48.5q0 -22 -13 -41q-71 -100 -152.5 -139.5t-194.5 -39.5q-45 0 -97.5 16t-92.5 35t-92.5 35t-99.5 16q-69 0 -115.5 -17t-103.5 -54q-27 -17 -50 -17q-24 0 -41.5 17t-17.5 41q0 37 35 64q37 28 77 69t78.5 91.5t63.5 107.5t25 105 q0 70 -20 131h-109q-24 0 -39 15t-15 38q0 21 10.5 38.5t28 27t38.5 9.5h50q-50 138 -50 252q0 106 38.5 197t108 155.5t172 101t226.5 36.5q172 0 284 -72t139 -205q4 -21 4 -37q0 -31 -20 -51t-52 -20q-30 0 -47 16t-23 39q-47 199 -309 199q-105 0 -190.5 -39 t-137.5 -116t-52 -180q0 -131 57 -276h376q24 0 39 -15t15 -39q0 -31 -23 -52.5t-54 -21.5h-322q12 -49 12 -100q0 -200 -182 -343q52 27 115 27q55 0 110.5 -14.5t93.5 -31.5t84.5 -31.5t86.5 -14.5q45 0 81 10.5t70 37t63 70.5q24 39 67 39z" />
<glyph unicode="&#xa4;" horiz-adv-x="1003" d="M690 271q-133 0 -232 75l-99 -98q-22 -22 -47 -22q-27 0 -45.5 19.5t-18.5 47.5t21 49l96 101q-66 99 -66 228q0 59 19 121.5t50 110.5l-101 103q-19 22 -19 48q0 28 18 47t46 19q26 0 47 -21l99 -104q47 33 110 54.5t122 21.5q128 0 228 -71l97 99q18 21 48 21 q27 0 46.5 -19t19.5 -47q0 -27 -23 -50l-97 -99q68 -100 68 -234q0 -60 -19 -121.5t-49 -108.5l97 -99q23 -27 23 -49q0 -28 -19.5 -47.5t-46.5 -19.5q-29 0 -48 22l-94 96q-97 -73 -231 -73zM690 402q111 0 181.5 78t70.5 191q0 74 -31.5 135t-89.5 97.5t-131 36.5 q-110 0 -182.5 -78.5t-72.5 -190.5t72.5 -190.5t182.5 -78.5z" />
<glyph unicode="&#xa5;" d="M976 568h-245l-17 -102h245q22 0 36 -14t14 -35q0 -27 -21.5 -46.5t-47.5 -19.5h-248l-52 -295q-4 -31 -28.5 -52t-57.5 -21q-31 0 -47.5 20.5t-11.5 52.5l51 295h-247q-21 0 -35 14t-14 35q0 27 21 46.5t47 19.5h250l17 102h-250q-21 0 -34 14t-13 35q0 28 20.5 47.5 t48.5 19.5h240l-304 677q-7 15 -7 30q0 20 9.5 37t26.5 27t37 10q46 0 64 -41l278 -605l485 615q25 31 61 31q31 0 52 -21.5t21 -52.5q0 -27 -17 -47l-544 -660h239q21 0 35 -14.5t14 -35.5q0 -18 -10 -33t-26 -24t-35 -9z" />
<glyph unicode="&#xa6;" horiz-adv-x="464" d="M595 1666l-146 -829q-4 -29 -29 -50.5t-55 -21.5q-29 0 -45.5 21.5t-11.5 50.5l146 829q4 30 28.5 51t55.5 21q29 0 45.5 -21t11.5 -51zM400 559l-146 -832q-2 -14 -10 -27.5t-19.5 -23t-26 -15t-28.5 -5.5q-29 0 -46 21t-13 50l147 832q5 29 29.5 50t54.5 21t47 -21 t11 -50z" />
<glyph unicode="&#xa7;" horiz-adv-x="1083" d="M942 474q0 50 -27 91.5t-68 68t-97 52t-107.5 42t-107 38.5t-88.5 42q-58 -41 -92.5 -105.5t-34.5 -132.5q0 -48 27 -88.5t68 -67.5t97.5 -52.5t108.5 -43t107.5 -40t88.5 -42.5q58 44 91.5 107t33.5 131zM176 562q0 53 13 99.5t38 87t53 71.5t69 68q-48 74 -48 181 q0 65 19 124t59.5 111.5t99.5 90.5t146 60t192 22q132 0 234.5 -57t154.5 -145q9 -14 9 -32q0 -27 -19.5 -47t-46.5 -20q-32 0 -55 26q-34 44 -71 73.5t-96.5 50t-132.5 20.5q-90 0 -159.5 -21.5t-109.5 -58.5t-60 -81.5t-20 -94.5q0 -48 22 -87t59.5 -66.5t85.5 -51 t101.5 -44.5t106.5 -43.5t101 -51t85.5 -63t59.5 -85t22 -112.5q0 -53 -12.5 -99.5t-38.5 -87t-54 -72.5t-69 -69q50 -74 50 -182q0 -65 -19 -124.5t-60.5 -111.5t-101 -90t-146 -60.5t-190.5 -22.5q-64 0 -127.5 18.5t-113.5 48t-88 64t-58 70.5q-11 17 -11 35 q0 27 20 46.5t48 19.5q30 0 53 -27q26 -28 51 -49.5t62.5 -45t85.5 -36t102 -12.5q91 0 160 21.5t108.5 58.5t59.5 81t20 95q0 45 -18 81.5t-49 62t-72 48.5t-87 40t-95 37.5t-95.5 40t-87.5 48.5t-72 62t-49 81t-18 106z" />
<glyph unicode="&#xa8;" horiz-adv-x="681" d="M374 1149q-64 0 -64 60q0 47 24 73.5t68 26.5q66 0 66 -62q0 -46 -24.5 -72t-69.5 -26zM712 1149q-65 0 -65 60q0 31 10.5 53.5t32 34.5t50.5 12q66 0 66 -62q0 -46 -24.5 -72t-69.5 -26z" />
<glyph unicode="&#xa9;" horiz-adv-x="1722" d="M961 333q-167 0 -252 94.5t-85 296.5q0 204 85 299t252 95q95 0 167.5 -39.5t98.5 -87.5q8 -14 8 -25q0 -23 -16 -39t-39 -16t-43 20q-40 40 -80.5 60t-95.5 20q-112 0 -165.5 -65.5t-53.5 -221.5q0 -97 25 -160.5t73 -93t121 -29.5q62 0 100.5 13.5t75.5 50.5 q22 22 43 22q15 0 27.5 -7t20 -19t7.5 -27q0 -18 -14 -35q-27 -34 -60.5 -56.5t-84.5 -36t-115 -13.5zM968 1477q365 0 556.5 -188.5t191.5 -566.5q0 -376 -192 -564t-556 -188q-359 0 -552.5 189t-193.5 563q0 376 193 565.5t553 189.5zM968 82q312 0 471 157t159 483 q0 327 -159 485t-471 158q-207 0 -344 -68.5t-207.5 -211.5t-70.5 -362.5t70.5 -362t207.5 -210.5t344 -68z" />
<glyph unicode="&#xaa;" horiz-adv-x="735" d="M802 624q0 -12 -7 -22.5t-18.5 -16.5t-23.5 -6h-564q-14 0 -24.5 11t-10.5 25q0 9 4.5 17.5t12 14.5t16.5 9.5t18 3.5h563q14 0 24 -11t10 -25zM724 923q-37 -69 -101.5 -108t-144.5 -39q-115 0 -176.5 67t-61.5 179q0 132 49.5 235.5t137.5 161.5t201 58q110 0 180 -64 l3 9q3 20 17.5 33.5t37.5 13.5q21 0 32.5 -14.5t8.5 -32.5l-105 -591q-3 -21 -19 -35t-36.5 -14t-31.5 14t-7 35zM335 1036q0 -79 37.5 -127.5t119.5 -48.5q59 0 107 25.5t80.5 69.5t53.5 95.5t32 110.5l29 164q-72 68 -172 68q-123 0 -205 -99.5t-82 -257.5z" />
<glyph unicode="&#xab;" horiz-adv-x="1122" d="M248 447q0 24 23 48l417 412q20 20 41 20q20 0 34.5 -15t14.5 -36q0 -20 -21 -41l-400 -388l260 -383q9 -14 9 -29q0 -20 -15.5 -35t-36.5 -15q-26 0 -38 19l-278 411q-10 17 -10 32zM579 447q0 24 23 48l418 412q20 20 40 20t35 -15t15 -36q0 -19 -22 -41l-400 -388 l260 -383q9 -14 9 -29q0 -20 -15.5 -35t-36.5 -15q-26 0 -39 19l-277 411q-10 17 -10 32z" />
<glyph unicode="&#xac;" horiz-adv-x="1210" d="M1239 600l-98 -553q-4 -27 -26.5 -45.5t-49.5 -18.5q-28 0 -42.5 18.5t-9.5 45.5l88 501h-869q-22 0 -35.5 14t-13.5 35q0 27 21 47.5t48 20.5h932q19 0 32.5 -8.5t19.5 -23.5t3 -33z" />
<glyph unicode="&#xad;" horiz-adv-x="782" d="M761 550q0 -27 -20.5 -46.5t-48.5 -19.5h-430q-22 0 -35.5 14t-13.5 35q0 28 20.5 47.5t47.5 19.5h431q22 0 35.5 -14t13.5 -36z" />
<glyph unicode="&#xae;" horiz-adv-x="810" d="M595 1477q103 0 173.5 -34.5t109 -108t38.5 -183.5q0 -165 -83 -247.5t-238 -82.5q-150 0 -233 83t-83 247t83 245t233 81zM597 873q129 0 194 67t65 211q0 143 -65 209t-194 66q-127 0 -192 -66t-65 -209q0 -73 17 -126t50 -86.5t80 -49.5t110 -16zM579 1114h-50v-105 q0 -11 -8.5 -19.5t-19.5 -8.5t-19 8.5t-8 19.5v281q0 8 3.5 14t10 10t13.5 4h119q48 0 77.5 -29.5t29.5 -71.5q0 -40 -26.5 -71.5t-62.5 -31.5l72 -88q6 -9 6 -17q0 -11 -7.5 -19.5t-18.5 -8.5q-14 0 -23 12zM529 1161h91q10 0 18.5 3t14.5 7.5t10 11.5t6 15.5t2 18.5 q0 23 -13.5 38t-37.5 15h-91v-109z" />
<glyph unicode="&#xaf;" horiz-adv-x="821" d="M880 1217q0 -26 -19.5 -44t-45.5 -18h-400q-20 0 -32.5 12.5t-12.5 32.5q0 26 19 44t46 18h400q19 0 32 -12.5t13 -32.5z" />
<glyph unicode="&#xb0;" horiz-adv-x="769" d="M882 1182q0 -121 -86 -206.5t-209 -85.5q-120 0 -206 85.5t-86 206.5q0 122 86 208.5t206 86.5q122 0 208.5 -86.5t86.5 -208.5zM800 1182q0 89 -61 151t-152 62q-88 0 -149.5 -62.5t-61.5 -150.5q0 -87 61 -148.5t150 -61.5q91 0 152 61t61 149z" />
<glyph unicode="&#xb1;" horiz-adv-x="975" d="M1092 669q0 -28 -20.5 -47.5t-47.5 -19.5h-368l-65 -368q-5 -26 -25.5 -44t-46.5 -18t-41.5 18t-11.5 44l65 368h-367q-21 0 -35.5 14.5t-14.5 35.5q0 18 10 33.5t26.5 24t34.5 8.5h367l65 366q4 17 14.5 31.5t26 23t32.5 8.5q26 0 41.5 -19t10.5 -44l-65 -366h368 q21 0 34 -14t13 -35zM987 66q0 -27 -21.5 -46.5t-47.5 -19.5h-860q-23 0 -36.5 14t-13.5 35q0 18 10.5 34t26.5 25t33 9h860q22 0 35.5 -14.5t13.5 -36.5z" />
<glyph unicode="&#xb2;" horiz-adv-x="571" d="M333 1463q31 53 91 80t138 27q44 0 81 -11t64 -31.5t41.5 -51t14.5 -68.5q0 -45 -17.5 -84t-47 -66.5t-67 -52.5t-76.5 -42.5t-76.5 -36t-67 -34t-47.5 -35t-18 -40.5h294q9 0 17 -3t14 -9t9.5 -14.5t3.5 -18.5q0 -23 -18.5 -40.5t-43.5 -17.5h-360q-18 0 -30.5 12.5 t-12.5 32.5q0 55 24 99.5t62 74t83.5 54.5t91.5 46.5t84 43t61.5 50.5t23.5 64t-26.5 56.5t-78.5 21.5q-48 0 -74 -15t-53 -48q-17 -21 -43 -21q-21 0 -35.5 14t-14.5 35q0 15 9 29z" />
<glyph unicode="&#xb3;" horiz-adv-x="556" d="M714 1465l-172 -151q76 0 119 -47.5t43 -113.5q0 -54 -16.5 -98.5t-50 -79.5t-88.5 -54.5t-128 -19.5q-44 0 -80.5 12.5t-60.5 32.5t-39.5 41.5t-23.5 44.5q-4 13 -4 24q0 22 14 36t35 14q31 0 46 -29q19 -36 47.5 -54.5t74.5 -18.5q50 0 85 14.5t53.5 44t18.5 72.5 q0 84 -111 84h-48q-19 0 -31 12.5t-12 32.5q0 25 19 41l158 144h-199q-21 0 -33 12.5t-12 32.5q0 27 17.5 45t44.5 18h310q21 0 33 -12.5t12 -32.5q0 -32 -21 -47z" />
<glyph unicode="&#xb4;" horiz-adv-x="794" d="M458 1118q-31 31 4 66l224 234q17 18 40 16.5t44 -24.5q39 -42 -5 -83l-240 -205q-38 -33 -67 -4z" />
<glyph unicode="&#xb5;" horiz-adv-x="1036" d="M419 925l-101 -562q-8 -49 -8 -90q0 -83 51 -126.5t175 -43.5q53 0 96.5 9.5t75 27.5t55.5 40.5t40 53t26 61.5t16 68l97 562q6 29 30.5 48.5t53.5 19.5q28 0 44 -19.5t12 -48.5l-101 -562q-9 -46 -20.5 -86t-31 -81t-44.5 -73.5t-61 -61t-80.5 -48t-103.5 -30.5 t-129 -11q-178 0 -244 99l-78 -443q-5 -29 -28 -49t-52 -20t-45.5 20t-12.5 49l228 1297q5 29 29 48.5t53 19.5q28 0 45.5 -19.5t12.5 -48.5z" />
<glyph unicode="&#xb6;" horiz-adv-x="1102" d="M1243 1393q0 -32 -22 -53.5t-53 -21.5h-60l-119 -675q-62 -356 -247.5 -535t-481.5 -179q-90 0 -131 22q-15 7 -27 23t-12 36q0 28 20 48t48 20q10 0 35 -9q39 -11 88 -11q115 0 195 100t109 263l58 328h-71q-126 0 -208.5 86t-82.5 212q0 79 35.5 153t92.5 128 t132.5 86.5t153.5 32.5h495q24 0 38.5 -15t14.5 -39zM970 1318h-88l-153 -864q-24 -135 -69 -214t-137 -156q133 51 210.5 191t118.5 368z" />
<glyph unicode="&#xb7;" horiz-adv-x="351" d="M271 544q-41 0 -63.5 18.5t-22.5 54.5q0 62 33 97t90 35q27 0 46 -8t29.5 -25t10.5 -41q0 -61 -33 -96t-90 -35z" />
<glyph unicode="&#xb8;" horiz-adv-x="677" d="M478 -260q0 -222 -238 -222q-38 0 -75.5 10.5t-59.5 26.5q-17 13 -17 34q0 16 12.5 28.5t28.5 12.5q11 0 23 -6q40 -22 93 -22q73 0 104 27.5t31 97.5q0 39 -19.5 56t-59.5 17q-20 0 -49.5 -4.5t-40.5 -4.5q-13 0 -23 8t-10 25q0 5 5 26l32 150h75l-32 -127q39 4 58 4 q162 0 162 -137z" />
<glyph unicode="&#xb9;" horiz-adv-x="421" d="M462 1406l-66 -41q-22 -15 -41 -15q-23 0 -38.5 15.5t-15.5 38.5q0 32 30 49l178 100q18 10 35 10q23 0 36.5 -16t10.5 -39l-96 -544q-4 -23 -23 -40t-41.5 -17t-36.5 17t-11 40z" />
<glyph unicode="&#xba;" horiz-adv-x="747" d="M527 860q127 0 197 88t70 250q0 97 -44.5 146t-127.5 49q-127 0 -197 -87.5t-70 -249.5q0 -97 44.5 -146.5t127.5 -49.5zM819 624q0 -12 -7.5 -22.5t-18.5 -16.5t-23 -6h-585q-14 0 -24.5 11t-10.5 25q0 18 15.5 31.5t34.5 13.5h585q10 0 17.5 -5t12 -13.5t4.5 -17.5z M636 1477q124 0 189 -66.5t65 -197.5q0 -104 -25.5 -186t-73.5 -137.5t-119 -84.5t-161 -29q-124 0 -189.5 66.5t-65.5 198.5q0 208 99.5 322t280.5 114z" />
<glyph unicode="&#xbb;" horiz-adv-x="1122" d="M1036 464q0 -24 -23 -47l-418 -413q-19 -19 -41 -19q-13 0 -24 7t-18 19t-7 26q0 19 22 41l400 386l-260 383q-9 14 -9 31q0 13 7 24t19 18t26 7q25 0 39 -20l277 -410q10 -18 10 -33zM706 464q0 -23 -25 -47l-416 -413q-19 -19 -41 -19q-20 0 -35 15.5t-15 36.5 q0 20 21 41l400 386l-260 383q-8 14 -8 31q0 13 6.5 24t18.5 18t26 7q26 0 39 -20l278 -410q11 -18 11 -33z" />
<glyph unicode="&#xbc;" horiz-adv-x="1057" d="M203 71l765 1359q20 35 54 35q24 0 40.5 -17.5t16.5 -41.5q0 -13 -8 -29l-765 -1360q-21 -34 -54 -34q-16 0 -29.5 7.5t-21.5 21t-8 29.5q0 15 10 30zM445 1314l-67 -41q-22 -15 -40 -15q-15 0 -27.5 7t-19.5 19t-7 27q0 32 30 50l178 100q18 10 35 10q23 0 37 -16.5 t10 -39.5l-96 -545q-3 -22 -22.5 -38.5t-42.5 -16.5q-15 0 -27 7.5t-17.5 20t-3.5 27.5zM952 230h35q18 0 30.5 -13t12.5 -32q0 -23 -19.5 -40.5t-42.5 -17.5h-35l-15 -88q-4 -24 -22 -40t-44 -16q-23 0 -36 16.5t-10 39.5l15 88h-238q-20 0 -32.5 13t-12.5 32t18 41 l358 400q25 25 52 25q24 0 38.5 -16t10.5 -39zM697 230h144l37 207z" />
<glyph unicode="&#xbd;" horiz-adv-x="1132" d="M203 71l765 1359q20 35 54 35q24 0 40.5 -17.5t16.5 -41.5q0 -13 -8 -29l-765 -1360q-21 -34 -54 -34q-16 0 -29.5 7.5t-21.5 21t-8 29.5q0 15 10 30zM445 1314l-67 -41q-22 -15 -40 -15q-15 0 -27.5 7t-19.5 19t-7 27q0 32 30 50l178 100q18 10 35 10q23 0 37 -16.5 t10 -39.5l-96 -545q-3 -22 -22.5 -38.5t-42.5 -16.5q-15 0 -27 7.5t-17.5 20t-3.5 27.5zM733 548q31 54 90.5 81t137.5 27q91 0 146.5 -43t55.5 -118q0 -51 -23 -94.5t-59.5 -73t-81 -55t-89 -45.5t-81 -39t-59.5 -40.5t-23 -44.5h294q12 0 21.5 -6t15.5 -16t6 -23 q0 -23 -18.5 -40.5t-43.5 -17.5h-359q-19 0 -31 13t-12 32q0 49 18 89.5t48.5 68t69 52.5t78.5 42.5t79 38t69 39.5t48.5 45.5t18.5 57.5q0 34 -26 55t-79 21q-33 0 -57.5 -8.5t-38 -20t-31.5 -33.5q-17 -21 -43 -21q-21 0 -35.5 14.5t-14.5 35.5q0 13 9 27z" />
<glyph unicode="&#xbe;" horiz-adv-x="1244" d="M720 1372l-172 -151q76 0 119 -47t43 -114q0 -53 -16.5 -98t-49.5 -80t-88 -54.5t-128 -19.5q-43 0 -80 12.5t-61.5 33t-40 42t-22.5 44.5q-5 12 -5 24q0 21 14.5 35t35.5 14q31 0 45 -28q13 -24 28 -39.5t39 -25t56 -9.5q37 0 66 8.5t49 25t30.5 41.5t10.5 57 q0 84 -111 84h-47q-20 0 -31.5 12.5t-11.5 32.5q0 25 19 41l157 144h-198q-21 0 -33.5 12.5t-12.5 32.5q0 17 8 31.5t22.5 23t32.5 8.5h310q11 0 19.5 -3.5t14 -9.5t8.5 -14.5t3 -17.5q0 -31 -22 -48zM322 71l766 1359q20 35 53 35q16 0 29.5 -8t21.5 -21.5t8 -29.5 q0 -13 -8 -29l-766 -1360q-20 -34 -54 -34q-25 0 -41.5 17t-16.5 41q0 16 8 30zM1073 230h35q18 0 30.5 -13t12.5 -32q0 -23 -20 -40.5t-43 -17.5h-34l-16 -88q-3 -24 -21 -40t-45 -16q-22 0 -35 16.5t-10 39.5l15 88h-238q-20 0 -33 13t-13 32t19 41l357 400q25 25 52 25 q24 0 38 -16t11 -39zM817 230h144l37 207z" />
<glyph unicode="&#xbf;" horiz-adv-x="991" d="M701 645q23 -27 35.5 -64t12.5 -72q0 -49 -16 -92t-43 -74t-63 -59.5t-76.5 -51t-83.5 -47.5t-83.5 -48.5t-76.5 -54.5t-63.5 -65.5t-43 -82t-15.5 -102.5q0 -95 66 -144t186 -49q278 0 322 258q5 31 26.5 50.5t55.5 19.5q28 0 45 -18t15 -43q-4 -84 -36 -154 t-90.5 -124.5t-150.5 -85t-209 -30.5q-176 0 -273 78.5t-97 220.5q0 46 7.5 89t19 77t32.5 67t38.5 57t47.5 50.5t50.5 42.5t56 38t54.5 33t55 31q35 19 52.5 29t45 27.5t41 30.5t29 30.5t22 36t6.5 38.5q0 36 -17 74q-9 19 -9 38q0 29 21 50t50 21q32 0 54 -26zM727 1006 q86 0 86 -73q0 -61 -33 -96t-90 -35q-41 0 -63.5 18.5t-22.5 55.5q0 61 33 95.5t90 34.5z" />
<glyph unicode="&#xc0;" horiz-adv-x="1317" d="M1013 562l-140 657l-370 -657h510zM1034 428h-599l-228 -393q-27 -52 -74 -52q-30 0 -51.5 21t-21.5 52q0 20 14 43l765 1316q28 50 75 50q26 0 43 -14t22 -36l287 -1327q4 -21 4 -30q0 -22 -8.5 -38.5t-26 -26.5t-41.5 -10q-27 0 -46 14t-23 36zM1063 1557 q-30 -29 -68 4l-240 204q-44 41 -4 84q21 22 43.5 23.5t40.5 -17.5l223 -232q36 -35 5 -66z" />
<glyph unicode="&#xc1;" horiz-adv-x="1317" d="M1013 562l-140 657l-370 -657h510zM1034 428h-599l-228 -393q-27 -52 -74 -52q-30 0 -51.5 21t-21.5 52q0 20 14 43l765 1316q28 50 75 50q26 0 43 -14t22 -36l287 -1327q4 -21 4 -30q0 -22 -8.5 -38.5t-26 -26.5t-41.5 -10q-27 0 -46 14t-23 36zM821 1557q-31 31 4 66 l224 232q18 19 40.5 17.5t43.5 -23.5q40 -43 -4 -84l-241 -204q-37 -33 -67 -4z" />
<glyph unicode="&#xc2;" horiz-adv-x="1317" d="M1013 562l-140 657l-370 -657h510zM1034 428h-599l-228 -393q-27 -52 -74 -52q-30 0 -51.5 21t-21.5 52q0 20 14 43l765 1316q28 50 75 50q26 0 43 -14t22 -36l287 -1327q4 -21 4 -30q0 -22 -8.5 -38.5t-26 -26.5t-41.5 -10q-27 0 -46 14t-23 36zM1114 1561l-144 144 l-205 -146q-16 -12 -34 -12q-21 0 -36.5 15t-15.5 36q0 25 25 43l240 167q18 14 37 14t34 -16l175 -174q12 -13 12 -34t-15 -36t-36 -15q-22 0 -37 14z" />
<glyph unicode="&#xc3;" horiz-adv-x="1317" d="M1013 562l-140 657l-370 -657h510zM1034 428h-599l-228 -393q-27 -52 -74 -52q-30 0 -51.5 21t-21.5 52q0 20 14 43l765 1316q28 50 75 50q26 0 43 -14t22 -36l287 -1327q4 -21 4 -30q0 -22 -8.5 -38.5t-26 -26.5t-41.5 -10q-27 0 -46 14t-23 36zM845 1761q35 0 69 -13 t56 -29t52 -29t60 -13q13 0 25 2.5t22.5 7.5t21 13t20 18t21.5 24q15 19 41 19q21 0 36 -15t15 -37q0 -13 -11 -32q-32 -46 -85.5 -75.5t-122.5 -29.5q-36 0 -69.5 13t-55.5 29t-52.5 29t-60.5 13q-28 0 -51.5 -15.5t-57.5 -48.5q-20 -20 -41 -20t-36 15t-15 36q0 19 12 35 q83 103 207 103z" />
<glyph unicode="&#xc4;" horiz-adv-x="1317" d="M1013 562l-140 657l-370 -657h510zM1034 428h-599l-228 -393q-27 -52 -74 -52q-30 0 -51.5 21t-21.5 52q0 20 14 43l765 1316q28 50 75 50q26 0 43 -14t22 -36l287 -1327q4 -21 4 -30q0 -22 -8.5 -38.5t-26 -26.5t-41.5 -10q-27 0 -46 14t-23 36zM770 1594q-64 0 -64 60 q0 31 10.5 53.5t31 35t50.5 12.5q66 0 66 -62q0 -47 -25 -73t-69 -26zM1108 1594q-65 0 -65 60q0 47 24 74t68 27q67 0 67 -62q0 -47 -24.5 -73t-69.5 -26z" />
<glyph unicode="&#xc5;" horiz-adv-x="1317" d="M1013 562l-140 657l-370 -657h510zM1034 428h-599l-228 -393q-27 -52 -74 -52q-30 0 -51.5 21t-21.5 52q0 20 14 43l765 1316q28 50 75 50q26 0 43 -14t22 -36l287 -1327q4 -21 4 -30q0 -22 -8.5 -38.5t-26 -26.5t-41.5 -10q-27 0 -46 14t-23 36zM925 1512q-94 0 -143 44 t-49 123q0 116 68 185t199 69q93 0 142.5 -44.5t49.5 -123.5q0 -56 -16.5 -102t-49 -80t-84 -52.5t-117.5 -18.5zM985 1851q-88 0 -124 -42.5t-36 -118.5q0 -31 11 -52t36.5 -32.5t67.5 -11.5q159 0 159 161q0 49 -27 72.5t-87 23.5z" />
<glyph unicode="&#xc6;" horiz-adv-x="1808" d="M1654 0h-714q-31 0 -48 21.5t-12 52.5l62 354h-456l-320 -411q-24 -34 -69 -34q-28 0 -48.5 20t-20.5 48q0 30 23 56l1063 1306q27 34 66 34h704q25 0 40 -16.5t15 -41.5q0 -30 -23.5 -52.5t-54.5 -22.5h-618l-90 -518h472q25 0 41 -17t16 -42q0 -30 -24 -52t-56 -22 h-473l-93 -530h641q24 0 40.5 -16.5t16.5 -40.5q0 -31 -24.5 -53.5t-55.5 -22.5zM589 562h377l105 601z" />
<glyph unicode="&#xc7;" horiz-adv-x="1356" d="M901 -260q0 -222 -236 -222q-39 0 -76.5 10.5t-59.5 26.5q-18 14 -18 34q0 16 13 28.5t28 12.5q12 0 24 -6q40 -22 93 -22q49 0 78 11.5t43 39t14 74.5q0 39 -20 56t-60 17q-19 0 -49 -4.5t-41 -4.5q-13 0 -22.5 8t-9.5 25l5 26l27 129q-211 28 -322.5 163t-111.5 381 q0 226 57 405.5t163 300.5t257.5 184.5t339.5 63.5q156 0 274 -65t178 -173q8 -14 8 -35q0 -19 -9 -35t-25 -25t-35 -9q-38 0 -56 28q-39 63 -91 103t-117 59t-146 19q-303 0 -474 -211.5t-171 -590.5q0 -95 18.5 -168.5t53 -124.5t87.5 -83.5t119.5 -47.5t150.5 -15 q110 0 216 45t184 131q26 29 57 29q19 0 34.5 -9.5t24.5 -25t9 -35.5q0 -27 -21 -51q-87 -101 -231.5 -159t-295.5 -58q-32 0 -53 2l-25 -99q40 4 59 4q161 0 161 -137z" />
<glyph unicode="&#xc8;" d="M959 0h-714q-31 0 -48 21.5t-12 52.5l230 1300q4 31 29.5 52t56.5 21h691q24 0 39.5 -16.5t15.5 -41.5q0 -30 -24 -52.5t-55 -22.5h-618l-90 -518h473q16 0 29 -8t20 -21.5t7 -29.5q0 -30 -25 -52t-55 -22h-472l-95 -530h641q24 0 39.5 -16.5t15.5 -40.5q0 -31 -24 -53.5 t-55 -22.5zM1017 1557q-29 -29 -67 4l-240 204q-45 41 -4 84q20 22 43 23.5t41 -17.5l223 -232q35 -35 4 -66z" />
<glyph unicode="&#xc9;" d="M959 0h-714q-31 0 -48 21.5t-12 52.5l230 1300q4 31 29.5 52t56.5 21h691q24 0 39.5 -16.5t15.5 -41.5q0 -30 -24 -52.5t-55 -22.5h-618l-90 -518h473q16 0 29 -8t20 -21.5t7 -29.5q0 -30 -25 -52t-55 -22h-472l-95 -530h641q24 0 39.5 -16.5t15.5 -40.5q0 -31 -24 -53.5 t-55 -22.5zM763 1557q-31 31 5 66l223 232q18 19 40.5 17.5t43.5 -23.5q40 -43 -4 -84l-240 -204q-38 -33 -68 -4z" />
<glyph unicode="&#xca;" d="M959 0h-714q-31 0 -48 21.5t-12 52.5l230 1300q4 31 29.5 52t56.5 21h691q24 0 39.5 -16.5t15.5 -41.5q0 -30 -24 -52.5t-55 -22.5h-618l-90 -518h473q16 0 29 -8t20 -21.5t7 -29.5q0 -30 -25 -52t-55 -22h-472l-95 -530h641q24 0 39.5 -16.5t15.5 -40.5q0 -31 -24 -53.5 t-55 -22.5zM1060 1561l-144 144l-204 -146q-17 -12 -35 -12q-21 0 -36 15t-15 36q0 26 23 43l241 167q19 14 37 14t34 -16l174 -174q14 -14 14 -34q0 -21 -15.5 -36t-37.5 -15q-21 0 -36 14z" />
<glyph unicode="&#xcb;" d="M959 0h-714q-31 0 -48 21.5t-12 52.5l230 1300q4 31 29.5 52t56.5 21h691q24 0 39.5 -16.5t15.5 -41.5q0 -30 -24 -52.5t-55 -22.5h-618l-90 -518h473q16 0 29 -8t20 -21.5t7 -29.5q0 -30 -25 -52t-55 -22h-472l-95 -530h641q24 0 39.5 -16.5t15.5 -40.5q0 -31 -24 -53.5 t-55 -22.5zM710 1594q-65 0 -65 60q0 47 24 74t68 27q67 0 67 -62q0 -47 -24.5 -73t-69.5 -26zM1047 1594q-64 0 -64 60q0 47 24 74t68 27q66 0 66 -62q0 -47 -24.5 -73t-69.5 -26z" />
<glyph unicode="&#xcc;" horiz-adv-x="489" d="M564 1391l-237 -1335q-5 -30 -30 -51.5t-57 -21.5q-31 0 -47.5 21.5t-11.5 51.5l236 1335q5 30 29.5 52t56 22t49 -22t12.5 -52zM649 1557q-29 -29 -66 4l-241 204q-44 41 -4 84q21 22 43 23.5t40 -17.5l224 -232q35 -35 4 -66z" />
<glyph unicode="&#xcd;" horiz-adv-x="489" d="M564 1391l-237 -1335q-5 -30 -30 -51.5t-57 -21.5q-31 0 -47.5 21.5t-11.5 51.5l236 1335q5 30 29.5 52t56 22t49 -22t12.5 -52zM408 1557q-31 31 5 66l223 232q18 19 40.5 17.5t43.5 -23.5q40 -43 -4 -84l-240 -204q-38 -33 -68 -4z" />
<glyph unicode="&#xce;" horiz-adv-x="489" d="M564 1391l-237 -1335q-5 -30 -30 -51.5t-57 -21.5q-31 0 -47.5 21.5t-11.5 51.5l236 1335q5 30 29.5 52t56 22t49 -22t12.5 -52zM704 1561l-145 144l-204 -146q-17 -12 -35 -12q-21 0 -36 15t-15 36q0 25 24 43l240 167q19 14 37 14t34 -16l174 -174q14 -14 14 -34 q0 -8 -3 -16t-7.5 -14.5t-11 -11t-14 -7t-16.5 -2.5q-22 0 -36 14z" />
<glyph unicode="&#xcf;" horiz-adv-x="489" d="M564 1391l-237 -1335q-5 -30 -30 -51.5t-57 -21.5q-31 0 -47.5 21.5t-11.5 51.5l236 1335q5 30 29.5 52t56 22t49 -22t12.5 -52zM357 1594q-64 0 -64 60q0 47 24 74t68 27q67 0 67 -62q0 -47 -25 -73t-70 -26zM695 1594q-65 0 -65 60q0 47 24 74t68 27q68 0 68 -62 q0 -47 -25 -73t-70 -26z" />
<glyph unicode="&#xd0;" horiz-adv-x="1307" d="M501 1447h303q134 0 235 -30.5t174.5 -94.5t111.5 -168.5t38 -248.5q0 -219 -56 -389.5t-161.5 -284t-256.5 -172.5t-341 -59h-303q-31 0 -48 21.5t-12 52.5l108 607h-67q-24 0 -40 17.5t-16 41.5q0 31 24.5 53t55.5 22h66l99 559q4 31 29.5 52t56.5 21zM550 1314 l-88 -499h416q24 0 41 -17t17 -41q0 -30 -25.5 -53t-56.5 -23h-415l-97 -548h230q149 0 267 47t201 139.5t127 234.5t44 328q0 117 -29 201t-86 134.5t-134.5 73.5t-181.5 23h-230z" />
<glyph unicode="&#xd1;" horiz-adv-x="1332" d="M1370 1465q29 0 46 -21t12 -51l-236 -1337q-5 -31 -30 -52t-56 -21q-39 0 -55 30l-548 1179l-202 -1138q-5 -30 -28 -50.5t-56 -20.5q-30 0 -46 20.5t-11 50.5l236 1339q3 20 13.5 36t28 26t38.5 10q40 0 57 -35l557 -1174l196 1137q5 30 29 51t55 21zM864 1761 q35 0 69 -13t56.5 -29t52.5 -29t59 -13q23 0 41 7t33.5 20.5t35.5 37.5q15 19 41 19q14 0 25.5 -7t18.5 -19t7 -26q0 -15 -10 -32q-32 -46 -86 -75.5t-123 -29.5q-30 0 -57 8.5t-47.5 21t-40.5 25t-43.5 21t-48.5 8.5q-28 0 -52.5 -15.5t-57.5 -48.5q-20 -20 -40 -20 q-21 0 -36.5 15t-15.5 36q0 18 13 35q83 103 206 103z" />
<glyph unicode="&#xd2;" horiz-adv-x="1530" d="M761 -30q-558 0 -558 553q0 222 58 401t164.5 300.5t259.5 187t341 65.5q558 0 558 -552q0 -177 -37 -328t-107.5 -266.5t-171 -196.5t-229 -122.5t-278.5 -41.5zM1002 1344q-202 0 -348 -97t-222.5 -277.5t-76.5 -427.5q0 -227 109.5 -333t320.5 -106q202 0 348 97 t222.5 277.5t76.5 427.5q0 227 -109 333t-321 106zM1196 1557q-30 -29 -67 4l-241 204q-44 41 -4 84q21 22 43.5 23.5t40.5 -17.5l224 -232q35 -35 4 -66z" />
<glyph unicode="&#xd3;" horiz-adv-x="1530" d="M761 -30q-558 0 -558 553q0 222 58 401t164.5 300.5t259.5 187t341 65.5q558 0 558 -552q0 -177 -37 -328t-107.5 -266.5t-171 -196.5t-229 -122.5t-278.5 -41.5zM1002 1344q-202 0 -348 -97t-222.5 -277.5t-76.5 -427.5q0 -227 109.5 -333t320.5 -106q202 0 348 97 t222.5 277.5t76.5 427.5q0 227 -109 333t-321 106zM923 1557q-31 31 4 66l224 232q17 19 40 17.5t44 -23.5q40 -43 -5 -84l-241 -204q-37 -33 -66 -4z" />
<glyph unicode="&#xd4;" horiz-adv-x="1530" d="M761 -30q-558 0 -558 553q0 222 58 401t164.5 300.5t259.5 187t341 65.5q558 0 558 -552q0 -177 -37 -328t-107.5 -266.5t-171 -196.5t-229 -122.5t-278.5 -41.5zM1002 1344q-202 0 -348 -97t-222.5 -277.5t-76.5 -427.5q0 -227 109.5 -333t320.5 -106q202 0 348 97 t222.5 277.5t76.5 427.5q0 227 -109 333t-321 106zM1227 1561l-143 144l-204 -146q-17 -12 -35 -12q-21 0 -36 15t-15 36q0 26 23 43l241 167q19 14 36 14q19 0 35 -16l174 -174q13 -13 13 -34q0 -10 -4.5 -19.5t-11 -16.5t-16 -11t-20.5 -4q-22 0 -37 14z" />
<glyph unicode="&#xd5;" horiz-adv-x="1530" d="M761 -30q-558 0 -558 553q0 222 58 401t164.5 300.5t259.5 187t341 65.5q558 0 558 -552q0 -177 -37 -328t-107.5 -266.5t-171 -196.5t-229 -122.5t-278.5 -41.5zM1002 1344q-202 0 -348 -97t-222.5 -277.5t-76.5 -427.5q0 -227 109.5 -333t320.5 -106q202 0 348 97 t222.5 277.5t76.5 427.5q0 227 -109 333t-321 106zM950 1761q35 0 69 -13t56 -29t52 -29t59 -13q23 0 41.5 7t34.5 20.5t35 37.5q15 19 41 19q21 0 36 -15t15 -37q0 -15 -10 -32q-32 -46 -86 -75.5t-123 -29.5q-36 0 -69.5 13t-55 29t-52 29t-60.5 13q-28 0 -52.5 -15.5 t-57.5 -48.5q-20 -20 -41 -20t-36 15t-15 36q0 18 13 35q83 103 206 103z" />
<glyph unicode="&#xd6;" horiz-adv-x="1530" d="M761 -30q-558 0 -558 553q0 222 58 401t164.5 300.5t259.5 187t341 65.5q558 0 558 -552q0 -177 -37 -328t-107.5 -266.5t-171 -196.5t-229 -122.5t-278.5 -41.5zM1002 1344q-202 0 -348 -97t-222.5 -277.5t-76.5 -427.5q0 -227 109.5 -333t320.5 -106q202 0 348 97 t222.5 277.5t76.5 427.5q0 227 -109 333t-321 106zM878 1594q-65 0 -65 60q0 47 24 74t68 27q67 0 67 -62q0 -47 -24.5 -73t-69.5 -26zM1215 1594q-64 0 -64 60q0 47 24 74t68 27q66 0 66 -62q0 -47 -24.5 -73t-69.5 -26z" />
<glyph unicode="&#xd7;" horiz-adv-x="760" d="M476 554l318 269q23 20 45 20q24 0 42 -18t18 -43q0 -27 -23 -47l-334 -269l234 -275q14 -17 14 -37q0 -24 -18.5 -42t-42.5 -18q-27 0 -45 23l-228 275l-325 -278q-23 -20 -45 -20q-24 0 -42 18t-18 42q0 28 23 49l336 275l-237 271q-10 14 -10 33q0 25 17.5 43t41.5 18 q27 0 46 -22z" />
<glyph unicode="&#xd8;" horiz-adv-x="1530" d="M761 -30q-263 0 -400 118l-118 -123q-21 -21 -46 -21q-22 0 -38.5 16.5t-16.5 39.5t18 41l128 133q-85 132 -85 349q0 222 58 401t164.5 300.5t259.5 187t341 65.5q264 0 402 -123l116 121q20 21 45 21q23 0 39.5 -16.5t16.5 -38.5q0 -21 -17 -41l-126 -132 q82 -133 82 -343q0 -177 -37 -328t-107.5 -266.5t-171 -196.5t-229 -122.5t-278.5 -41.5zM1002 1344q-202 0 -348 -97t-222.5 -277.5t-76.5 -427.5q0 -150 49 -247l914 946q-106 103 -316 103zM1432 905q0 144 -47 244l-914 -946q106 -100 314 -100q202 0 348 97 t222.5 277.5t76.5 427.5z" />
<glyph unicode="&#xd9;" horiz-adv-x="1340" d="M673 -30q-114 0 -199.5 27.5t-136 77t-75 111t-24.5 134.5q0 46 12 121l167 950q5 31 29.5 52.5t56.5 21.5t49 -21.5t12 -52.5l-168 -950q-9 -49 -9 -90q0 -244 310 -244q86 0 153.5 19t111.5 49.5t75.5 75t48 90t26.5 100.5l168 950q5 31 29 52.5t56 21.5t49 -21.5 t12 -52.5l-168 -950q-8 -47 -19.5 -88t-29 -85t-42.5 -80.5t-57 -71t-75.5 -60.5t-96 -46t-120 -30t-145.5 -10zM1099 1557q-29 -29 -67 4l-240 204q-45 41 -4 84q20 22 42.5 23.5t39.5 -17.5l224 -232q36 -35 5 -66z" />
<glyph unicode="&#xda;" horiz-adv-x="1340" d="M673 -30q-114 0 -199.5 27.5t-136 77t-75 111t-24.5 134.5q0 46 12 121l167 950q5 31 29.5 52.5t56.5 21.5t49 -21.5t12 -52.5l-168 -950q-9 -49 -9 -90q0 -244 310 -244q86 0 153.5 19t111.5 49.5t75.5 75t48 90t26.5 100.5l168 950q5 31 29 52.5t56 21.5t49 -21.5 t12 -52.5l-168 -950q-8 -47 -19.5 -88t-29 -85t-42.5 -80.5t-57 -71t-75.5 -60.5t-96 -46t-120 -30t-145.5 -10zM852 1557q-31 31 4 66l223 232q18 19 41 17.5t43 -23.5q41 -43 -4 -84l-241 -204q-37 -33 -66 -4z" />
<glyph unicode="&#xdb;" horiz-adv-x="1340" d="M673 -30q-114 0 -199.5 27.5t-136 77t-75 111t-24.5 134.5q0 46 12 121l167 950q5 31 29.5 52.5t56.5 21.5t49 -21.5t12 -52.5l-168 -950q-9 -49 -9 -90q0 -244 310 -244q86 0 153.5 19t111.5 49.5t75.5 75t48 90t26.5 100.5l168 950q5 31 29 52.5t56 21.5t49 -21.5 t12 -52.5l-168 -950q-8 -47 -19.5 -88t-29 -85t-42.5 -80.5t-57 -71t-75.5 -60.5t-96 -46t-120 -30t-145.5 -10zM1133 1561l-144 144l-204 -146q-16 -12 -34 -12q-22 0 -37 15t-15 36q0 26 23 43l242 167q18 14 36 14t34 -16l175 -174q12 -13 12 -34q0 -10 -4 -19.5 t-11 -16.5t-16.5 -11t-19.5 -4q-22 0 -37 14z" />
<glyph unicode="&#xdc;" horiz-adv-x="1340" d="M673 -30q-114 0 -199.5 27.5t-136 77t-75 111t-24.5 134.5q0 46 12 121l167 950q5 31 29.5 52.5t56.5 21.5t49 -21.5t12 -52.5l-168 -950q-9 -49 -9 -90q0 -244 310 -244q86 0 153.5 19t111.5 49.5t75.5 75t48 90t26.5 100.5l168 950q5 31 29 52.5t56 21.5t49 -21.5 t12 -52.5l-168 -950q-8 -47 -19.5 -88t-29 -85t-42.5 -80.5t-57 -71t-75.5 -60.5t-96 -46t-120 -30t-145.5 -10zM788 1594q-66 0 -66 60q0 47 24 74t69 27q67 0 67 -62q0 -47 -25 -73t-69 -26zM1125 1594q-65 0 -65 60q0 47 24.5 74t68.5 27q66 0 66 -62q0 -47 -25 -73 t-69 -26z" />
<glyph unicode="&#xdd;" d="M554 -17q-31 0 -47.5 20.5t-11.5 52.5l109 617l-311 688q-7 15 -7 30q0 20 9.5 37t26.5 27t37 10q46 0 64 -41l278 -605l485 615q25 31 61 31q31 0 52 -21.5t21 -52.5q0 -27 -17 -47l-552 -671l-111 -617q-4 -31 -28.5 -52t-57.5 -21zM740 1557q-31 31 4 66l224 232 q18 19 40 17.5t43 -23.5q40 -43 -4 -84l-241 -204q-37 -33 -66 -4z" />
<glyph unicode="&#xde;" horiz-adv-x="1169" d="M376 331l-49 -275q-5 -31 -30.5 -52t-56.5 -21q-30 0 -47 21t-12 52l236 1335q2 15 10 28.5t19.5 23.5t26.5 16t30 6q30 0 48 -22t13 -52l-39 -219h343q101 0 180.5 -38.5t127 -115t47.5 -181.5q0 -122 -36.5 -218.5t-102.5 -159t-156 -95.5t-197 -33h-355zM501 1038 l-101 -574h333q156 0 249 89.5t93 257.5q0 74 -29.5 125.5t-83 76.5t-127.5 25h-334z" />
<glyph unicode="&#xdf;" horiz-adv-x="1188" d="M806 1473q123 0 204.5 -69.5t81.5 -176.5q0 -54 -17.5 -101t-45.5 -79.5t-64 -63t-74 -52t-74 -45.5t-64.5 -46t-45.5 -51.5t-17 -61.5q0 -35 21 -62.5t55 -46t77.5 -37t89.5 -34t89.5 -39t77.5 -50t55 -68t21 -93.5q0 -105 -53.5 -179.5t-143 -109t-205.5 -34.5 q-123 0 -222 47.5t-135 107.5q-11 18 -11 35q0 29 20 48.5t50 19.5q31 0 49 -21q50 -53 109.5 -79.5t145.5 -26.5q52 0 96.5 9.5t81 29t57.5 53.5t21 78q0 34 -20.5 61t-55 44.5t-78 35.5t-89 33.5t-89.5 39t-78 50.5t-55 69.5t-21 95.5q0 57 22.5 104.5t58 79.5t78.5 60 t86.5 54t79 53.5t57.5 66.5t22 87q0 27 -12 51.5t-33.5 43t-54.5 29.5t-72 11q-227 0 -269 -240l-201 -1160q-15 -83 -50.5 -151t-91.5 -119t-136 -79t-178 -28q-24 0 -38.5 16t-14.5 39q0 32 21.5 52t52.5 20q125 0 200 68.5t97 190.5l157 894h-73q-24 0 -38.5 15.5 t-14.5 38.5q0 32 22.5 53.5t53.5 21.5h74l21 130q8 49 24 93.5t40.5 86.5t59.5 75.5t79 59t102 39t125 13.5z" />
<glyph unicode="&#xe0;" horiz-adv-x="1102" d="M862 189q-56 -103 -150 -160t-213 -57q-170 0 -260.5 99t-90.5 264q0 145 42.5 269.5t117.5 213t181.5 138.5t230.5 50q161 0 267 -92l2 11q7 31 27 49.5t53 18.5q31 0 47 -19.5t11 -48.5l-155 -874q-4 -29 -26.5 -48.5t-53.5 -19.5q-30 0 -45 19.5t-10 48.5zM286 357 q0 -44 7.5 -81.5t25.5 -71t44.5 -57t66.5 -37t91 -13.5q68 0 128 25t104.5 67t79 99.5t56.5 120.5t34 133l41 243q-46 46 -111.5 73.5t-142.5 27.5q-88 0 -166 -39t-135 -107.5t-90 -168t-33 -214.5zM952 1118q-29 -29 -66 4l-241 205q-44 41 -5 83q21 23 44 24.5t40 -16.5 l224 -234q35 -35 4 -66z" />
<glyph unicode="&#xe1;" horiz-adv-x="1102" d="M862 189q-56 -103 -150 -160t-213 -57q-170 0 -260.5 99t-90.5 264q0 145 42.5 269.5t117.5 213t181.5 138.5t230.5 50q161 0 267 -92l2 11q7 31 27 49.5t53 18.5q31 0 47 -19.5t11 -48.5l-155 -874q-4 -29 -26.5 -48.5t-53.5 -19.5q-30 0 -45 19.5t-10 48.5zM286 357 q0 -44 7.5 -81.5t25.5 -71t44.5 -57t66.5 -37t91 -13.5q68 0 128 25t104.5 67t79 99.5t56.5 120.5t34 133l41 243q-46 46 -111.5 73.5t-142.5 27.5q-88 0 -166 -39t-135 -107.5t-90 -168t-33 -214.5zM673 1118q-31 31 4 66l224 234q18 18 40.5 16.5t43.5 -24.5 q40 -42 -4 -83l-241 -205q-37 -33 -67 -4z" />
<glyph unicode="&#xe2;" horiz-adv-x="1102" d="M862 189q-56 -103 -150 -160t-213 -57q-170 0 -260.5 99t-90.5 264q0 145 42.5 269.5t117.5 213t181.5 138.5t230.5 50q161 0 267 -92l2 11q7 31 27 49.5t53 18.5q31 0 47 -19.5t11 -48.5l-155 -874q-4 -29 -26.5 -48.5t-53.5 -19.5q-30 0 -45 19.5t-10 48.5zM286 357 q0 -44 7.5 -81.5t25.5 -71t44.5 -57t66.5 -37t91 -13.5q68 0 128 25t104.5 67t79 99.5t56.5 120.5t34 133l41 243q-46 46 -111.5 73.5t-142.5 27.5q-88 0 -166 -39t-135 -107.5t-90 -168t-33 -214.5zM964 1137l-145 145l-204 -147q-16 -13 -34 -13q-22 0 -37 15.5t-15 36.5 q0 26 23 43l242 168q17 13 37 13q18 0 33 -15l174 -174q13 -13 13 -35q0 -21 -15 -36.5t-36 -15.5t-36 15z" />
<glyph unicode="&#xe3;" horiz-adv-x="1102" d="M862 189q-56 -103 -150 -160t-213 -57q-170 0 -260.5 99t-90.5 264q0 145 42.5 269.5t117.5 213t181.5 138.5t230.5 50q161 0 267 -92l2 11q7 31 27 49.5t53 18.5q31 0 47 -19.5t11 -48.5l-155 -874q-4 -29 -26.5 -48.5t-53.5 -19.5q-30 0 -45 19.5t-10 48.5zM286 357 q0 -44 7.5 -81.5t25.5 -71t44.5 -57t66.5 -37t91 -13.5q68 0 128 25t104.5 67t79 99.5t56.5 120.5t34 133l41 243q-46 46 -111.5 73.5t-142.5 27.5q-88 0 -166 -39t-135 -107.5t-90 -168t-33 -214.5zM643 1327q35 0 68.5 -13t56 -29t53 -29t59.5 -13q33 0 57 14.5t52 49.5 q16 20 41 20q14 0 26 -7t19 -19t7 -26t-11 -32q-32 -46 -86 -76t-123 -30q-36 0 -69.5 13t-55 29t-51.5 29t-60 13q-28 0 -52 -15t-57 -49q-20 -20 -41 -20q-22 0 -37.5 15.5t-15.5 37.5q0 16 14 33q83 104 206 104z" />
<glyph unicode="&#xe4;" horiz-adv-x="1102" d="M862 189q-56 -103 -150 -160t-213 -57q-170 0 -260.5 99t-90.5 264q0 145 42.5 269.5t117.5 213t181.5 138.5t230.5 50q161 0 267 -92l2 11q7 31 27 49.5t53 18.5q31 0 47 -19.5t11 -48.5l-155 -874q-4 -29 -26.5 -48.5t-53.5 -19.5q-30 0 -45 19.5t-10 48.5zM286 357 q0 -44 7.5 -81.5t25.5 -71t44.5 -57t66.5 -37t91 -13.5q68 0 128 25t104.5 67t79 99.5t56.5 120.5t34 133l41 243q-46 46 -111.5 73.5t-142.5 27.5q-88 0 -166 -39t-135 -107.5t-90 -168t-33 -214.5zM574 1149q-65 0 -65 60q0 47 24 73.5t69 26.5q67 0 67 -62q0 -46 -25 -72 t-70 -26zM911 1149q-64 0 -64 60q0 47 24 73.5t69 26.5q66 0 66 -62q0 -46 -25 -72t-70 -26z" />
<glyph unicode="&#xe5;" horiz-adv-x="1102" d="M862 189q-56 -103 -150 -160t-213 -57q-170 0 -260.5 99t-90.5 264q0 145 42.5 269.5t117.5 213t181.5 138.5t230.5 50q161 0 267 -92l2 11q7 31 27 49.5t53 18.5q31 0 47 -19.5t11 -48.5l-155 -874q-4 -29 -26.5 -48.5t-53.5 -19.5q-30 0 -45 19.5t-10 48.5zM286 357 q0 -44 7.5 -81.5t25.5 -71t44.5 -57t66.5 -37t91 -13.5q68 0 128 25t104.5 67t79 99.5t56.5 120.5t34 133l41 243q-46 46 -111.5 73.5t-142.5 27.5q-88 0 -166 -39t-135 -107.5t-90 -168t-33 -214.5zM751 1079q-94 0 -143 45t-49 123q0 116 67.5 185.5t198.5 69.5 q94 0 143 -45t49 -123q0 -116 -67.5 -185.5t-198.5 -69.5zM811 1420q-31 0 -55.5 -6t-41.5 -16.5t-29.5 -24.5t-19.5 -33t-10 -39t-3 -43q0 -48 26.5 -72.5t86.5 -24.5q160 0 160 162q0 49 -27 73t-87 24z" />
<glyph unicode="&#xe6;" horiz-adv-x="1738" d="M1273 -28q-153 0 -246.5 65t-119.5 195q-32 -74 -87 -131.5t-138.5 -93t-182.5 -35.5q-170 0 -260.5 99t-90.5 264q0 145 42.5 269.5t117.5 213t181.5 138.5t230.5 50q118 0 209 -42t153 -106q148 148 381 148q78 0 139.5 -19t99.5 -51.5t57.5 -74t19.5 -89.5 q0 -174 -179.5 -261.5t-558.5 -87.5q-7 -31 -7 -66q0 -141 65 -199.5t200 -58.5q136 0 262 90q22 16 41 16q26 0 44 -17.5t18 -43.5q0 -13 -5.5 -24.5t-11 -17t-15.5 -14.5q-141 -116 -359 -116zM286 357q0 -44 7.5 -81.5t25.5 -71t44.5 -57t66.5 -37t91 -13.5q43 0 83 9.5 t73.5 27.5t63.5 43.5t54 56.5t44.5 67t36 74.5t27.5 80.5q19 173 101 305q-23 27 -54.5 49.5t-69 39.5t-81.5 26.5t-89 9.5q-88 0 -166 -39t-135 -107.5t-90 -168t-33 -214.5zM1056 533q292 0 438.5 59t146.5 165q0 52 -50 88.5t-150 36.5q-63 0 -119 -18.5t-99 -50.5 t-77.5 -76t-56.5 -95.5t-33 -108.5z" />
<glyph unicode="&#xe7;" horiz-adv-x="948" d="M690 -260q0 -222 -236 -222q-39 0 -76.5 10.5t-59.5 26.5q-17 13 -17 34q0 16 13 28.5t28 12.5q11 0 23 -6q40 -22 93 -22q49 0 78 11.5t43 39t14 74.5q0 39 -20 56t-60 17q-19 0 -49 -4.5t-41 -4.5q-6 0 -11 2t-10 5.5t-7.5 10t-2.5 15.5q0 5 4 26l27 129 q-275 44 -275 384q0 142 36.5 260t105.5 203t173 132.5t234 47.5q54 0 101.5 -12.5t79 -29.5t58.5 -40t40.5 -40.5t23.5 -34.5q9 -15 9 -32q0 -26 -17.5 -44t-43.5 -18q-29 0 -51 25q-17 19 -24.5 26.5t-29.5 25.5t-42.5 26.5t-54.5 16t-73 7.5q-65 0 -120.5 -18t-97 -51 t-74 -78.5t-53 -102t-30.5 -119.5t-10 -133q0 -99 28 -162t81.5 -92t135.5 -29q44 0 81 6.5t70 21t55.5 27.5t54.5 35q23 16 43 16q25 0 42.5 -18t17.5 -43q0 -38 -39 -64q-152 -106 -347 -106h-16l-24 -99q39 4 58 4q161 0 161 -137z" />
<glyph unicode="&#xe8;" horiz-adv-x="991" d="M148 340q0 197 68 347t196.5 234.5t301.5 84.5q78 0 139.5 -19t99.5 -51.5t57.5 -74t19.5 -89.5q0 -174 -179 -261.5t-558 -87.5q-7 -38 -7 -66q0 -141 64.5 -199.5t199.5 -58.5q136 0 263 90q22 16 41 16q26 0 44 -17.5t18 -43.5q0 -13 -5.5 -24.5t-11 -17t-15.5 -14.5 q-140 -116 -359 -116q-181 0 -279 92t-98 276zM308 536q292 0 438 57.5t146 163.5q0 52 -50 88.5t-150 36.5q-78 0 -145 -27.5t-114.5 -75.5t-79.5 -110t-45 -133zM914 1118q-30 -29 -67 4l-240 205q-45 41 -5 83q21 23 43.5 24.5t40.5 -16.5l223 -234q35 -35 5 -66z" />
<glyph unicode="&#xe9;" horiz-adv-x="991" d="M148 340q0 197 68 347t196.5 234.5t301.5 84.5q78 0 139.5 -19t99.5 -51.5t57.5 -74t19.5 -89.5q0 -174 -179 -261.5t-558 -87.5q-7 -38 -7 -66q0 -141 64.5 -199.5t199.5 -58.5q136 0 263 90q22 16 41 16q26 0 44 -17.5t18 -43.5q0 -13 -5.5 -24.5t-11 -17t-15.5 -14.5 q-140 -116 -359 -116q-181 0 -279 92t-98 276zM308 536q292 0 438 57.5t146 163.5q0 52 -50 88.5t-150 36.5q-78 0 -145 -27.5t-114.5 -75.5t-79.5 -110t-45 -133zM550 1118q-31 31 4 66l224 234q18 18 40.5 16.5t43.5 -24.5q40 -42 -4 -83l-241 -205q-37 -33 -67 -4z" />
<glyph unicode="&#xea;" horiz-adv-x="991" d="M148 340q0 197 68 347t196.5 234.5t301.5 84.5q78 0 139.5 -19t99.5 -51.5t57.5 -74t19.5 -89.5q0 -174 -179 -261.5t-558 -87.5q-7 -38 -7 -66q0 -141 64.5 -199.5t199.5 -58.5q136 0 263 90q22 16 41 16q26 0 44 -17.5t18 -43.5q0 -13 -5.5 -24.5t-11 -17t-15.5 -14.5 q-140 -116 -359 -116q-181 0 -279 92t-98 276zM308 536q292 0 438 57.5t146 163.5q0 52 -50 88.5t-150 36.5q-78 0 -145 -27.5t-114.5 -75.5t-79.5 -110t-45 -133zM914 1137l-144 145l-204 -147q-17 -13 -35 -13q-21 0 -36 15.5t-15 36.5q0 26 23 43l241 168q17 13 36 13 q20 0 35 -15l174 -174q13 -13 13 -35q0 -21 -15 -36.5t-37 -15.5t-36 15z" />
<glyph unicode="&#xeb;" horiz-adv-x="991" d="M148 340q0 197 68 347t196.5 234.5t301.5 84.5q78 0 139.5 -19t99.5 -51.5t57.5 -74t19.5 -89.5q0 -174 -179 -261.5t-558 -87.5q-7 -38 -7 -66q0 -141 64.5 -199.5t199.5 -58.5q136 0 263 90q22 16 41 16q26 0 44 -17.5t18 -43.5q0 -13 -5.5 -24.5t-11 -17t-15.5 -14.5 q-140 -116 -359 -116q-181 0 -279 92t-98 276zM308 536q292 0 438 57.5t146 163.5q0 52 -50 88.5t-150 36.5q-78 0 -145 -27.5t-114.5 -75.5t-79.5 -110t-45 -133zM581 1149q-64 0 -64 60q0 47 24 73.5t68 26.5q66 0 66 -62q0 -46 -25 -72t-69 -26zM918 1149q-64 0 -64 60 q0 47 24 73.5t68 26.5q67 0 67 -62q0 -30 -11 -52.5t-33 -34t-51 -11.5z" />
<glyph unicode="&#xec;" horiz-adv-x="414" d="M439 925l-155 -874q-5 -29 -27.5 -48.5t-51.5 -19.5q-30 0 -47 19.5t-12 48.5l155 874q5 29 27.5 48.5t51.5 19.5t46.5 -19.5t12.5 -48.5zM536 1118q-30 -29 -68 4l-240 205q-44 41 -4 83q21 23 43.5 24.5t40.5 -16.5l223 -234q35 -35 5 -66z" />
<glyph unicode="&#xed;" horiz-adv-x="414" d="M439 925l-155 -874q-5 -29 -27.5 -48.5t-51.5 -19.5q-30 0 -47 19.5t-12 48.5l155 874q5 29 27.5 48.5t51.5 19.5t46.5 -19.5t12.5 -48.5zM312 1118q-31 31 4 66l224 234q18 18 40.5 16.5t43.5 -24.5q39 -42 -4 -83l-242 -205q-37 -33 -66 -4z" />
<glyph unicode="&#xee;" horiz-adv-x="414" d="M439 925l-155 -874q-5 -29 -27.5 -48.5t-51.5 -19.5q-30 0 -47 19.5t-12 48.5l155 874q5 29 27.5 48.5t51.5 19.5t46.5 -19.5t12.5 -48.5zM587 1137l-144 145l-205 -147q-16 -13 -33 -13q-22 0 -37.5 15.5t-15.5 36.5q0 25 24 43l241 168q17 13 37 13t34 -15l175 -174 q12 -13 12 -35q0 -21 -15 -36.5t-36 -15.5q-22 0 -37 15z" />
<glyph unicode="&#xef;" horiz-adv-x="414" d="M439 925l-155 -874q-5 -29 -27.5 -48.5t-51.5 -19.5q-30 0 -47 19.5t-12 48.5l155 874q5 29 27.5 48.5t51.5 19.5t46.5 -19.5t12.5 -48.5zM240 1149q-64 0 -64 60q0 47 24 73.5t69 26.5q66 0 66 -62q0 -46 -25 -72t-70 -26zM579 1149q-66 0 -66 60q0 46 24.5 73t69.5 27 q66 0 66 -62q0 -46 -25 -72t-69 -26z" />
<glyph unicode="&#xf0;" horiz-adv-x="1057" d="M704 1006q148 0 238 -66q-20 168 -93 258l-127 -80q-7 -4 -16.5 -7t-15.5 -3h-6q-28 0 -46 18t-18 46q0 38 34 58l118 69q-54 59 -144 119q-28 15 -28 51q0 26 18 44t45 18q17 0 34 -9q95 -52 187 -152l107 62q19 11 39 11q28 0 46 -18.5t18 -45.5q0 -39 -34 -59l-99 -56 q62 -88 96.5 -212t34.5 -272q0 -81 -6.5 -156t-24 -158t-45 -152.5t-72 -134t-102.5 -109.5t-139.5 -71.5t-179.5 -26.5q-180 0 -277.5 92.5t-97.5 277.5q0 82 13.5 160.5t41 154t73.5 138t105.5 110t142 74.5t180.5 27zM544 97q82 0 149.5 30t112 80.5t75 118.5t44 141 t13.5 150q0 265 -257 265q-82 0 -149.5 -30.5t-112 -81t-75 -118.5t-43.5 -140.5t-13 -150.5q0 -264 256 -264z" />
<glyph unicode="&#xf1;" horiz-adv-x="1077" d="M740 1006q91 0 158 -20.5t106 -57t57 -83t18 -103.5q0 -58 -10 -116l-101 -575q-5 -29 -27 -48.5t-52.5 -19.5t-46.5 19.5t-11 48.5l96 546q11 62 11 107q0 88 -52.5 134t-167.5 46q-285 0 -338 -301l-94 -532q-5 -29 -27 -48.5t-52 -19.5q-31 0 -47.5 19.5t-11.5 48.5 l155 874q5 30 27.5 49t52.5 19q29 0 46 -19.5t12 -48.5l-13 -69q41 65 124 107.5t188 42.5zM667 1327q35 0 68.5 -13t55.5 -29t52.5 -29t59.5 -13q33 0 57.5 14.5t52.5 49.5q16 20 41 20q14 0 26 -7t19 -19t7 -26q0 -13 -12 -32q-32 -46 -85.5 -76t-122.5 -30 q-36 0 -69.5 13t-55.5 29t-52 29t-60 13q-20 0 -38.5 -8.5t-33.5 -21t-37 -34.5q-20 -20 -41 -20t-36.5 15.5t-15.5 37.5q0 18 13 33q83 104 207 104z" />
<glyph unicode="&#xf2;" horiz-adv-x="1053" d="M542 97q82 0 149 29t112 78.5t75.5 117.5t44 142.5t13.5 157.5q0 260 -255 260q-82 0 -149 -29t-112 -78.5t-75 -117.5t-43.5 -143t-13.5 -157q0 -260 254 -260zM521 -28q-179 0 -276 92t-97 276q0 86 14 166t42 155.5t73.5 137.5t105.5 108.5t142 72.5t179 26 q179 0 275 -92t96 -276q0 -103 -19 -198t-62 -181t-106.5 -149.5t-157.5 -100.5t-209 -37zM897 1118q-29 -29 -66 4l-242 205q-44 41 -4 83q21 23 43.5 24.5t40.5 -16.5l223 -234q36 -35 5 -66z" />
<glyph unicode="&#xf3;" horiz-adv-x="1053" d="M542 97q82 0 149 29t112 78.5t75.5 117.5t44 142.5t13.5 157.5q0 260 -255 260q-82 0 -149 -29t-112 -78.5t-75 -117.5t-43.5 -143t-13.5 -157q0 -260 254 -260zM521 -28q-179 0 -276 92t-97 276q0 86 14 166t42 155.5t73.5 137.5t105.5 108.5t142 72.5t179 26 q179 0 275 -92t96 -276q0 -103 -19 -198t-62 -181t-106.5 -149.5t-157.5 -100.5t-209 -37zM628 1118q-31 31 4 66l224 234q18 18 40.5 16.5t43.5 -24.5q39 -42 -4 -83l-241 -205q-37 -33 -67 -4z" />
<glyph unicode="&#xf4;" horiz-adv-x="1053" d="M542 97q82 0 149 29t112 78.5t75.5 117.5t44 142.5t13.5 157.5q0 260 -255 260q-82 0 -149 -29t-112 -78.5t-75 -117.5t-43.5 -143t-13.5 -157q0 -260 254 -260zM521 -28q-179 0 -276 92t-97 276q0 86 14 166t42 155.5t73.5 137.5t105.5 108.5t142 72.5t179 26 q179 0 275 -92t96 -276q0 -103 -19 -198t-62 -181t-106.5 -149.5t-157.5 -100.5t-209 -37zM916 1137l-144 145l-204 -147q-17 -13 -35 -13q-21 0 -36 15.5t-15 36.5q0 26 23 43l242 168q16 13 35 13q20 0 35 -15l174 -174q13 -13 13 -35q0 -21 -15 -36.5t-37 -15.5t-36 15z " />
<glyph unicode="&#xf5;" horiz-adv-x="1053" d="M542 97q82 0 149 29t112 78.5t75.5 117.5t44 142.5t13.5 157.5q0 260 -255 260q-82 0 -149 -29t-112 -78.5t-75 -117.5t-43.5 -143t-13.5 -157q0 -260 254 -260zM521 -28q-179 0 -276 92t-97 276q0 86 14 166t42 155.5t73.5 137.5t105.5 108.5t142 72.5t179 26 q179 0 275 -92t96 -276q0 -103 -19 -198t-62 -181t-106.5 -149.5t-157.5 -100.5t-209 -37zM638 1327q36 0 69.5 -13t56 -29t52.5 -29t60 -13q33 0 56.5 14.5t52.5 49.5q16 20 41 20q14 0 26 -7t18.5 -19t6.5 -26t-10 -32q-32 -46 -86 -76t-123 -30q-30 0 -57 8.5t-47.5 21 t-40 25t-43.5 21t-48 8.5q-20 0 -39 -8.5t-34.5 -21t-37.5 -34.5q-20 -20 -40 -20q-21 0 -36.5 15.5t-15.5 37.5q0 16 14 33q83 104 205 104z" />
<glyph unicode="&#xf6;" horiz-adv-x="1053" d="M542 97q82 0 149 29t112 78.5t75.5 117.5t44 142.5t13.5 157.5q0 260 -255 260q-82 0 -149 -29t-112 -78.5t-75 -117.5t-43.5 -143t-13.5 -157q0 -260 254 -260zM521 -28q-179 0 -276 92t-97 276q0 86 14 166t42 155.5t73.5 137.5t105.5 108.5t142 72.5t179 26 q179 0 275 -92t96 -276q0 -103 -19 -198t-62 -181t-106.5 -149.5t-157.5 -100.5t-209 -37zM570 1149q-65 0 -65 60q0 47 24 73.5t68 26.5q68 0 68 -62q0 -46 -25 -72t-70 -26zM907 1149q-64 0 -64 60q0 47 24 73.5t69 26.5q66 0 66 -62q0 -46 -25 -72t-70 -26z" />
<glyph unicode="&#xf7;" horiz-adv-x="975" d="M452 197q0 10 2 18.5t6.5 17t10 15.5t13 12.5t16 10t18.5 6.5t20 2q28 0 43.5 -17t15.5 -43q0 -33 -26 -58.5t-60 -25.5q-13 0 -24.5 5t-19 13t-11.5 19.5t-4 24.5zM544 720q0 35 25 59.5t61 24.5q28 0 44 -17.5t16 -44.5q0 -33 -26 -57.5t-60 -24.5q-18 0 -32 8 t-21 21.5t-7 30.5zM1060 480q0 -18 -10 -33.5t-26 -24.5t-33 -9h-860q-22 0 -35.5 13.5t-13.5 35.5q0 27 21 47t47 20h861q14 0 25.5 -6.5t17.5 -17.5t6 -25z" />
<glyph unicode="&#xf8;" horiz-adv-x="1053" d="M521 -28q-197 0 -289 106l-86 -78q-20 -17 -41 -17q-23 0 -39.5 16.5t-16.5 39.5q0 24 22 43l103 92q-26 74 -26 166q0 86 14 166t42 155.5t73.5 137.5t105.5 108.5t142 72.5t179 26q189 0 283 -101l95 84q20 17 40 17q23 0 39.5 -16.5t16.5 -39.5q0 -25 -21 -43 l-110 -99q28 -79 28 -170q0 -103 -19 -198t-62 -181t-106.5 -149.5t-157.5 -100.5t-209 -37zM542 97q82 0 149 29t112 78.5t75.5 117.5t44 142.5t13.5 157.5q0 31 -9 79l-587 -527q63 -77 202 -77zM288 357q0 -33 7 -76l585 527q-64 74 -199 74q-82 0 -149 -29t-112 -78.5 t-75 -117.5t-43.5 -143t-13.5 -157z" />
<glyph unicode="&#xf9;" horiz-adv-x="1036" d="M361 993q29 0 46 -19.5t12 -48.5l-99 -562q-8 -49 -8 -79q0 -85 50.5 -133t173.5 -48q64 0 114 14t82.5 37t56 58t36 70.5t20.5 80.5l99 562q5 29 28 48.5t54 19.5q29 0 44.5 -19.5t11.5 -48.5l-99 -562q-8 -41 -17.5 -75.5t-23.5 -71.5t-33.5 -67t-45.5 -58t-59.5 -49.5 t-75 -37.5t-94 -24t-113.5 -8q-93 0 -161.5 21t-108.5 59t-59.5 87t-19.5 109q0 51 11 115l98 562q5 30 27.5 49t52.5 19zM843 1118q-29 -29 -67 4l-240 205q-44 41 -5 83q21 23 43.5 24.5t40.5 -16.5l224 -234q35 -35 4 -66z" />
<glyph unicode="&#xfa;" horiz-adv-x="1036" d="M361 993q29 0 46 -19.5t12 -48.5l-99 -562q-8 -49 -8 -79q0 -85 50.5 -133t173.5 -48q64 0 114 14t82.5 37t56 58t36 70.5t20.5 80.5l99 562q5 29 28 48.5t54 19.5q29 0 44.5 -19.5t11.5 -48.5l-99 -562q-8 -41 -17.5 -75.5t-23.5 -71.5t-33.5 -67t-45.5 -58t-59.5 -49.5 t-75 -37.5t-94 -24t-113.5 -8q-93 0 -161.5 21t-108.5 59t-59.5 87t-19.5 109q0 51 11 115l98 562q5 30 27.5 49t52.5 19zM632 1118q-31 31 4 66l224 234q18 18 40.5 16.5t43.5 -24.5q40 -42 -4 -83l-241 -205q-37 -33 -67 -4z" />
<glyph unicode="&#xfb;" horiz-adv-x="1036" d="M361 993q29 0 46 -19.5t12 -48.5l-99 -562q-8 -49 -8 -79q0 -85 50.5 -133t173.5 -48q64 0 114 14t82.5 37t56 58t36 70.5t20.5 80.5l99 562q5 29 28 48.5t54 19.5q29 0 44.5 -19.5t11.5 -48.5l-99 -562q-8 -41 -17.5 -75.5t-23.5 -71.5t-33.5 -67t-45.5 -58t-59.5 -49.5 t-75 -37.5t-94 -24t-113.5 -8q-93 0 -161.5 21t-108.5 59t-59.5 87t-19.5 109q0 51 11 115l98 562q5 30 27.5 49t52.5 19zM907 1137l-144 145l-204 -147q-17 -13 -34 -13q-21 0 -36 15.5t-15 36.5q0 26 23 43l240 168q17 13 37 13t34 -15l175 -174q12 -13 12 -35 q0 -21 -15 -36.5t-36 -15.5q-22 0 -37 15z" />
<glyph unicode="&#xfc;" horiz-adv-x="1036" d="M361 993q29 0 46 -19.5t12 -48.5l-99 -562q-8 -49 -8 -79q0 -85 50.5 -133t173.5 -48q64 0 114 14t82.5 37t56 58t36 70.5t20.5 80.5l99 562q5 29 28 48.5t54 19.5q29 0 44.5 -19.5t11.5 -48.5l-99 -562q-8 -41 -17.5 -75.5t-23.5 -71.5t-33.5 -67t-45.5 -58t-59.5 -49.5 t-75 -37.5t-94 -24t-113.5 -8q-93 0 -161.5 21t-108.5 59t-59.5 87t-19.5 109q0 51 11 115l98 562q5 30 27.5 49t52.5 19zM566 1149q-65 0 -65 60q0 47 24 73.5t68 26.5q67 0 67 -62q0 -46 -24.5 -72t-69.5 -26zM903 1149q-64 0 -64 60q0 47 24 73.5t68 26.5q67 0 67 -62 q0 -46 -25 -72t-70 -26z" />
<glyph unicode="&#xfd;" horiz-adv-x="1036" d="M361 993q29 0 46 -19.5t12 -48.5l-81 -463q-9 -55 -9 -79q0 -40 10.5 -71.5t35 -57t69.5 -38.5t108 -13q73 0 130 21.5t92.5 59.5t56.5 82t31 96l82 463q5 29 28 48.5t54 19.5q29 0 44.5 -19.5t11.5 -48.5l-168 -951q-37 -209 -162 -308t-350 -99q-128 0 -203.5 57 t-75.5 146q0 109 90.5 178t285.5 123q-83 5 -143.5 28t-96.5 60.5t-53 84t-17 102.5q0 51 11 116l81 463q5 30 27.5 49t52.5 19zM262 -209q0 -35 22.5 -58.5t59 -34t84.5 -10.5q82 0 142.5 19.5t100 57t63.5 86t38 114.5l51 257q-29 -47 -76.5 -85t-98.5 -64t-106.5 -49.5 t-104.5 -45.5t-88.5 -47.5t-63 -60.5t-23.5 -79zM607 1118q-31 31 4 66l224 234q18 18 40 16.5t43 -24.5q39 -42 -4 -83l-241 -205q-37 -33 -66 -4z" />
<glyph unicode="&#xfe;" horiz-adv-x="1094" d="M477.5 1531q30.5 0 46.5 -19.5t12 -48.5l-110 -607q46 62 129.5 106t191.5 44q180 0 276.5 -91.5t96.5 -276.5q0 -104 -17.5 -198t-58 -180.5t-101 -149.5t-153 -100.5t-207.5 -37.5q-104 0 -177.5 41.5t-104.5 117.5l-88 -494q-5 -30 -27 -50t-52.5 -20t-46.5 20t-11 50 l322 1826q5 29 27 48.5t52.5 19.5zM346 376q0 -147 62 -213t179 -66q82 0 149.5 29t112 78.5t75 117.5t44 142.5t13.5 157.5q0 260 -254 260q-79 0 -148 -34t-121 -97t-82 -160t-30 -215z" />
<glyph unicode="&#xff;" horiz-adv-x="1036" d="M361 993q29 0 46 -19.5t12 -48.5l-81 -463q-9 -55 -9 -79q0 -40 10.5 -71.5t35 -57t69.5 -38.5t108 -13q73 0 130 21.5t92.5 59.5t56.5 82t31 96l82 463q5 29 28 48.5t54 19.5q29 0 44.5 -19.5t11.5 -48.5l-168 -951q-37 -209 -162 -308t-350 -99q-128 0 -203.5 57 t-75.5 146q0 109 90.5 178t285.5 123q-83 5 -143.5 28t-96.5 60.5t-53 84t-17 102.5q0 51 11 116l81 463q5 30 27.5 49t52.5 19zM262 -209q0 -35 22.5 -58.5t59 -34t84.5 -10.5q82 0 142.5 19.5t100 57t63.5 86t38 114.5l51 257q-29 -47 -76.5 -85t-98.5 -64t-106.5 -49.5 t-104.5 -45.5t-88.5 -47.5t-63 -60.5t-23.5 -79zM554 1149q-64 0 -64 60q0 47 24 73.5t69 26.5q66 0 66 -62q0 -46 -25 -72t-70 -26zM892 1149q-65 0 -65 60q0 46 24.5 73t69.5 27q66 0 66 -62q0 -46 -25 -72t-70 -26z" />
<glyph unicode="&#x100;" horiz-adv-x="1317" d="M1013 562l-140 657l-370 -657h510zM1034 428h-599l-228 -393q-27 -52 -74 -52q-30 0 -51.5 21t-21.5 52q0 20 14 43l765 1316q28 50 75 50q26 0 43 -14t22 -36l287 -1327q4 -21 4 -30q0 -22 -8.5 -38.5t-26 -26.5t-41.5 -10q-27 0 -46 14t-23 36zM1200 1639 q0 -26 -19.5 -44.5t-45.5 -18.5h-400q-20 0 -32.5 13t-12.5 32q0 26 19.5 44.5t45.5 18.5h400q20 0 32.5 -12.5t12.5 -32.5z" />
<glyph unicode="&#x101;" horiz-adv-x="1102" d="M862 189q-56 -103 -150 -160t-213 -57q-170 0 -260.5 99t-90.5 264q0 145 42.5 269.5t117.5 213t181.5 138.5t230.5 50q161 0 267 -92l2 11q7 31 27 49.5t53 18.5q31 0 47 -19.5t11 -48.5l-155 -874q-4 -29 -26.5 -48.5t-53.5 -19.5q-30 0 -45 19.5t-10 48.5zM286 357 q0 -44 7.5 -81.5t25.5 -71t44.5 -57t66.5 -37t91 -13.5q68 0 128 25t104.5 67t79 99.5t56.5 120.5t34 133l41 243q-46 46 -111.5 73.5t-142.5 27.5q-88 0 -166 -39t-135 -107.5t-90 -168t-33 -214.5zM1060 1217q0 -26 -19 -44t-46 -18h-400q-13 0 -23 6t-16 16t-6 23 q0 17 9 31.5t24 22.5t32 8h400q20 0 32.5 -12.5t12.5 -32.5z" />
<glyph unicode="&#x102;" horiz-adv-x="1317" d="M1013 562l-140 657l-370 -657h510zM1034 428h-599l-228 -393q-27 -52 -74 -52q-30 0 -51.5 21t-21.5 52q0 20 14 43l765 1316q28 50 75 50q26 0 43 -14t22 -36l287 -1327q4 -21 4 -30q0 -22 -8.5 -38.5t-26 -26.5t-41.5 -10q-27 0 -46 14t-23 36zM933 1570 q-59 0 -104.5 17.5t-75 58.5t-29.5 102q0 43 18 67t46 24q20 0 33.5 -14t13.5 -38q0 -6 -2 -19t-2 -20q0 -23 7 -38.5t22.5 -24.5t37 -13t52.5 -4q140 0 162 119q3 22 18.5 37t39.5 15q18 0 31.5 -13t13.5 -33q0 -107 -79 -165t-203 -58z" />
<glyph unicode="&#x103;" horiz-adv-x="1102" d="M862 189q-56 -103 -150 -160t-213 -57q-170 0 -260.5 99t-90.5 264q0 145 42.5 269.5t117.5 213t181.5 138.5t230.5 50q161 0 267 -92l2 11q7 31 27 49.5t53 18.5q31 0 47 -19.5t11 -48.5l-155 -874q-4 -29 -26.5 -48.5t-53.5 -19.5q-30 0 -45 19.5t-10 48.5zM286 357 q0 -44 7.5 -81.5t25.5 -71t44.5 -57t66.5 -37t91 -13.5q68 0 128 25t104.5 67t79 99.5t56.5 120.5t34 133l41 243q-46 46 -111.5 73.5t-142.5 27.5q-88 0 -166 -39t-135 -107.5t-90 -168t-33 -214.5zM796 1137q-93 0 -151 44t-58 135q0 43 17.5 66.5t44.5 23.5q20 0 34 -14 t14 -38q0 -6 -2.5 -19t-2.5 -19q0 -31 14 -48.5t39.5 -24t67.5 -6.5q140 0 161 117q4 23 19.5 37.5t38.5 14.5q12 0 22.5 -6t16.5 -16t6 -23q0 -107 -79 -165.5t-202 -58.5z" />
<glyph unicode="&#x104;" horiz-adv-x="1317" d="M1297 -269q19 0 33 -13.5t14 -33.5q0 -27 -28 -43q-61 -35 -163 -35q-45 0 -81 10.5t-61.5 29.5t-38.5 48t-13 66q0 150 188 240q-19 11 -22 33l-91 395h-599l-228 -393q-27 -52 -74 -52q-30 0 -51.5 21t-21.5 52q0 20 14 43l765 1316q28 50 75 50q26 0 43 -14t22 -36 l287 -1327q4 -21 4 -30q0 -27 -11 -42.5t-40 -30.5q-146 -76 -146 -188q0 -45 27.5 -68.5t73.5 -23.5q43 0 94 20q16 6 29 6zM1013 562l-140 657l-370 -657h510z" />
<glyph unicode="&#x105;" horiz-adv-x="1102" d="M991 -269q20 0 33.5 -13.5t13.5 -33.5q0 -27 -27 -43q-60 -35 -164 -35q-91 0 -142 40t-51 114q0 75 50.5 136t142.5 106q-17 20 -10 49l25 138q-56 -103 -150 -160t-213 -57q-170 0 -260.5 99t-90.5 264q0 145 42.5 269.5t117.5 213t181.5 138.5t230.5 50q161 0 267 -92 l2 11q7 31 27 49.5t53 18.5q31 0 47 -19.5t11 -48.5l-155 -874q-5 -24 -17 -38t-44 -30q-67 -32 -105 -76.5t-38 -109.5q0 -45 27 -68.5t73 -23.5q44 0 96 20q16 6 27 6zM286 357q0 -44 7.5 -81.5t25.5 -71t44.5 -57t66.5 -37t91 -13.5q68 0 128 25t104.5 67t79 99.5 t56.5 120.5t34 133l41 243q-46 46 -111.5 73.5t-142.5 27.5q-88 0 -166 -39t-135 -107.5t-90 -168t-33 -214.5z" />
<glyph unicode="&#x106;" horiz-adv-x="1356" d="M759 -30q-270 0 -414.5 136t-144.5 417q0 226 57 405.5t163 300.5t257.5 184.5t339.5 63.5q156 0 274 -65t178 -173q8 -14 8 -35q0 -19 -9 -35t-25 -25t-35 -9q-38 0 -56 28q-39 63 -91 103t-117 59t-146 19q-303 0 -474 -211.5t-171 -590.5q0 -95 18.5 -168.5t53 -124.5 t87.5 -83.5t119.5 -47.5t150.5 -15q110 0 216 45t184 131q26 29 57 29q19 0 34.5 -9.5t24.5 -25t9 -35.5q0 -27 -21 -51q-87 -101 -231.5 -159t-295.5 -58zM918 1557q-31 31 5 66l224 232q17 19 39.5 17.5t43.5 -23.5q40 -43 -5 -84l-240 -204q-38 -33 -67 -4z" />
<glyph unicode="&#x107;" horiz-adv-x="948" d="M148 363q0 142 36.5 260t105.5 203t173 132.5t234 47.5q54 0 101.5 -12.5t79 -29.5t58.5 -40t40.5 -40.5t23.5 -34.5q9 -15 9 -32q0 -26 -17.5 -44t-43.5 -18q-29 0 -51 25q-17 19 -24.5 26.5t-29.5 25.5t-42.5 26.5t-54.5 16t-73 7.5q-65 0 -120.5 -18t-97 -51 t-74 -78.5t-53 -102t-30.5 -119.5t-10 -133q0 -99 28 -162t81.5 -92t135.5 -29q44 0 81 6.5t70 21t55.5 27.5t54.5 35q23 16 43 16q25 0 42.5 -18t17.5 -43q0 -38 -39 -64q-152 -106 -347 -106q-363 0 -363 391zM595 1118q-31 31 5 66l223 234q18 18 40.5 16.5t43.5 -24.5 q40 -42 -4 -83l-240 -205q-38 -33 -68 -4z" />
<glyph unicode="&#x108;" horiz-adv-x="1356" d="M759 -30q-270 0 -414.5 136t-144.5 417q0 226 57 405.5t163 300.5t257.5 184.5t339.5 63.5q156 0 274 -65t178 -173q8 -14 8 -35q0 -19 -9 -35t-25 -25t-35 -9q-38 0 -56 28q-39 63 -91 103t-117 59t-146 19q-303 0 -474 -211.5t-171 -590.5q0 -95 18.5 -168.5t53 -124.5 t87.5 -83.5t119.5 -47.5t150.5 -15q110 0 216 45t184 131q26 29 57 29q19 0 34.5 -9.5t24.5 -25t9 -35.5q0 -27 -21 -51q-87 -101 -231.5 -159t-295.5 -58zM1223 1561l-144 144l-203 -146q-17 -12 -35 -12q-21 0 -36 15t-15 36q0 26 23 43l241 167q18 14 36 14q19 0 35 -16 l174 -174q12 -13 12 -34q0 -10 -4 -19.5t-11 -16.5t-16.5 -11t-19.5 -4q-22 0 -37 14z" />
<glyph unicode="&#x109;" horiz-adv-x="948" d="M148 363q0 142 36.5 260t105.5 203t173 132.5t234 47.5q54 0 101.5 -12.5t79 -29.5t58.5 -40t40.5 -40.5t23.5 -34.5q9 -15 9 -32q0 -26 -17.5 -44t-43.5 -18q-29 0 -51 25q-17 19 -24.5 26.5t-29.5 25.5t-42.5 26.5t-54.5 16t-73 7.5q-65 0 -120.5 -18t-97 -51 t-74 -78.5t-53 -102t-30.5 -119.5t-10 -133q0 -99 28 -162t81.5 -92t135.5 -29q44 0 81 6.5t70 21t55.5 27.5t54.5 35q23 16 43 16q25 0 42.5 -18t17.5 -43q0 -38 -39 -64q-152 -106 -347 -106q-363 0 -363 391zM897 1137l-144 145l-205 -147q-17 -13 -35 -13 q-21 0 -36 15.5t-15 36.5q0 25 24 43l241 168q16 13 36 13t35 -15l174 -174q13 -13 13 -35q0 -21 -15 -36.5t-37 -15.5t-36 15z" />
<glyph unicode="&#x10a;" horiz-adv-x="1356" d="M759 -30q-270 0 -414.5 136t-144.5 417q0 226 57 405.5t163 300.5t257.5 184.5t339.5 63.5q156 0 274 -65t178 -173q8 -14 8 -35q0 -19 -9 -35t-25 -25t-35 -9q-38 0 -56 28q-39 63 -91 103t-117 59t-146 19q-303 0 -474 -211.5t-171 -590.5q0 -95 18.5 -168.5t53 -124.5 t87.5 -83.5t119.5 -47.5t150.5 -15q110 0 216 45t184 131q26 29 57 29q19 0 34.5 -9.5t24.5 -25t9 -35.5q0 -27 -21 -51q-87 -101 -231.5 -159t-295.5 -58zM1038 1582q-68 0 -68 65q0 26 6.5 46t19 33t31 19.5t42.5 6.5q68 0 68 -64q0 -51 -25 -78.5t-74 -27.5z" />
<glyph unicode="&#x10b;" horiz-adv-x="948" d="M148 363q0 142 36.5 260t105.5 203t173 132.5t234 47.5q54 0 101.5 -12.5t79 -29.5t58.5 -40t40.5 -40.5t23.5 -34.5q9 -15 9 -32q0 -26 -17.5 -44t-43.5 -18q-29 0 -51 25q-17 19 -24.5 26.5t-29.5 25.5t-42.5 26.5t-54.5 16t-73 7.5q-65 0 -120.5 -18t-97 -51 t-74 -78.5t-53 -102t-30.5 -119.5t-10 -133q0 -99 28 -162t81.5 -92t135.5 -29q44 0 81 6.5t70 21t55.5 27.5t54.5 35q23 16 43 16q25 0 42.5 -18t17.5 -43q0 -38 -39 -64q-152 -106 -347 -106q-363 0 -363 391zM731 1170q-68 0 -68 65q0 52 25 78.5t73 26.5q70 0 70 -65 q0 -52 -26 -78.5t-74 -26.5z" />
<glyph unicode="&#x10c;" horiz-adv-x="1356" d="M759 -30q-270 0 -414.5 136t-144.5 417q0 226 57 405.5t163 300.5t257.5 184.5t339.5 63.5q156 0 274 -65t178 -173q8 -14 8 -35q0 -19 -9 -35t-25 -25t-35 -9q-38 0 -56 28q-39 63 -91 103t-117 59t-146 19q-303 0 -474 -211.5t-171 -590.5q0 -95 18.5 -168.5t53 -124.5 t87.5 -83.5t119.5 -47.5t150.5 -15q110 0 216 45t184 131q26 29 57 29q19 0 34.5 -9.5t24.5 -25t9 -35.5q0 -27 -21 -51q-87 -101 -231.5 -159t-295.5 -58zM1038 1662l207 146q21 14 35 14q21 0 36 -15t15 -37q0 -28 -26 -46l-238 -165q-17 -12 -37 -12t-32 12l-177 177 q-13 12 -13 34t15.5 37t36.5 15q24 0 37 -16z" />
<glyph unicode="&#x10d;" horiz-adv-x="948" d="M148 363q0 142 36.5 260t105.5 203t173 132.5t234 47.5q54 0 101.5 -12.5t79 -29.5t58.5 -40t40.5 -40.5t23.5 -34.5q9 -15 9 -32q0 -26 -17.5 -44t-43.5 -18q-29 0 -51 25q-17 19 -24.5 26.5t-29.5 25.5t-42.5 26.5t-54.5 16t-73 7.5q-65 0 -120.5 -18t-97 -51 t-74 -78.5t-53 -102t-30.5 -119.5t-10 -133q0 -99 28 -162t81.5 -92t135.5 -29q44 0 81 6.5t70 21t55.5 27.5t54.5 35q23 16 43 16q25 0 42.5 -18t17.5 -43q0 -38 -39 -64q-152 -106 -347 -106q-363 0 -363 391zM731 1190l207 146q19 12 34 12q22 0 37 -15t15 -36 q0 -28 -26 -45l-239 -166q-17 -13 -37 -13t-32 13l-177 176q-12 13 -12 35q0 21 15 36t36 15q25 0 37 -14z" />
<glyph unicode="&#x10e;" horiz-adv-x="1307" d="M550 1314l-208 -1181h230q149 0 267 47t201 139.5t127 234.5t44 328q0 117 -29 201t-86 134.5t-134.5 73.5t-181.5 23h-230zM501 1447h303q134 0 235 -30.5t174.5 -94.5t111.5 -168.5t38 -248.5q0 -219 -56 -389.5t-161.5 -284t-256.5 -172.5t-341 -59h-303 q-31 0 -48 21.5t-12 52.5l230 1300q4 31 29.5 52t56.5 21zM880 1662l206 146q20 14 34 14q22 0 37 -15t15 -37q0 -29 -25 -46l-240 -165q-17 -12 -37 -12q-18 0 -31 12l-176 177q-14 13 -14 34q0 14 7 26t19 19t26 7q24 0 36 -16z" />
<glyph unicode="&#x10f;" horiz-adv-x="1151" d="M868 396l55 296q-1 4 -3.5 11t-11.5 26.5t-20.5 37.5t-32.5 40t-45.5 37.5t-61 26.5t-77.5 11q-119 0 -206.5 -65t-133 -183t-45.5 -275q0 -262 247 -262q126 0 217.5 75.5t117.5 223.5zM684 1006q96 0 166 -41t102 -99l106 597q5 29 27 48.5t52 19.5q31 0 47.5 -19.5 t11.5 -48.5l-190 -1067q-24 -139 -93.5 -235.5t-171.5 -142.5t-232 -46q-173 0 -268 93t-95 275q0 196 64 346t186.5 235t287.5 85zM1482 1430q0 -102 -60.5 -212.5t-161.5 -208.5q-16 -16 -30 -16q-15 0 -24.5 9t-9.5 22q0 12 10 25q65 75 92 119.5t27 89.5q0 29 -25 72 t-25 76q0 59 32.5 91t90.5 32q41 0 62.5 -23.5t21.5 -75.5z" />
<glyph unicode="&#x110;" horiz-adv-x="1307" d="M501 1447h303q134 0 235 -30.5t174.5 -94.5t111.5 -168.5t38 -248.5q0 -219 -56 -389.5t-161.5 -284t-256.5 -172.5t-341 -59h-303q-31 0 -48 21.5t-12 52.5l108 607h-67q-24 0 -40 17.5t-16 41.5q0 31 24.5 53t55.5 22h66l99 559q4 31 29.5 52t56.5 21zM550 1314 l-88 -499h416q24 0 41 -17t17 -41q0 -30 -25.5 -53t-56.5 -23h-415l-97 -548h230q149 0 267 47t201 139.5t127 234.5t44 328q0 117 -29 201t-86 134.5t-134.5 73.5t-181.5 23h-230z" />
<glyph unicode="&#x111;" horiz-adv-x="1077" d="M684 1006q96 0 166 -41t102 -99l48 275h-202q-15 0 -26.5 7t-17 18.5t-5.5 25.5q0 27 20 46.5t48 19.5h205l36 205q5 29 27 48.5t52 19.5q31 0 47.5 -19.5t11.5 -48.5l-37 -205h54q22 0 35.5 -14t13.5 -35q0 -28 -20 -48t-48 -20h-57l-131 -745q-24 -139 -93.5 -235.5 t-171.5 -142.5t-232 -46q-173 0 -268 93t-95 275q0 196 64 346t186.5 235t287.5 85zM868 396l55 296q-1 4 -3.5 11t-11.5 26.5t-20.5 37.5t-32.5 40t-45.5 37.5t-61 26.5t-77.5 11q-119 0 -206.5 -65t-133 -183t-45.5 -275q0 -262 247 -262q126 0 217.5 75.5t117.5 223.5z " />
<glyph unicode="&#x112;" d="M959 0h-714q-31 0 -48 21.5t-12 52.5l230 1300q4 31 29.5 52t56.5 21h691q24 0 39.5 -16.5t15.5 -41.5q0 -30 -24 -52.5t-55 -22.5h-618l-90 -518h473q16 0 29 -8t20 -21.5t7 -29.5q0 -30 -25 -52t-55 -22h-472l-95 -530h641q24 0 39.5 -16.5t15.5 -40.5q0 -31 -24 -53.5 t-55 -22.5zM1144 1639q0 -26 -19 -44.5t-46 -18.5h-400q-13 0 -23 6t-16 16t-6 23q0 26 19.5 44.5t45.5 18.5h400q20 0 32.5 -12.5t12.5 -32.5z" />
<glyph unicode="&#x113;" horiz-adv-x="991" d="M148 340q0 197 68 347t196.5 234.5t301.5 84.5q78 0 139.5 -19t99.5 -51.5t57.5 -74t19.5 -89.5q0 -174 -179 -261.5t-558 -87.5q-7 -38 -7 -66q0 -141 64.5 -199.5t199.5 -58.5q136 0 263 90q22 16 41 16q26 0 44 -17.5t18 -43.5q0 -13 -5.5 -24.5t-11 -17t-15.5 -14.5 q-140 -116 -359 -116q-181 0 -279 92t-98 276zM308 536q292 0 438 57.5t146 163.5q0 52 -50 88.5t-150 36.5q-78 0 -145 -27.5t-114.5 -75.5t-79.5 -110t-45 -133zM1024 1217q0 -26 -19.5 -44t-45.5 -18h-400q-13 0 -23.5 6t-16.5 16t-6 23q0 17 9 31.5t24 22.5t33 8h400 q19 0 32 -12.5t13 -32.5z" />
<glyph unicode="&#x114;" d="M959 0h-714q-31 0 -48 21.5t-12 52.5l230 1300q4 31 29.5 52t56.5 21h691q24 0 39.5 -16.5t15.5 -41.5q0 -30 -24 -52.5t-55 -22.5h-618l-90 -518h473q16 0 29 -8t20 -21.5t7 -29.5q0 -30 -25 -52t-55 -22h-472l-95 -530h641q24 0 39.5 -16.5t15.5 -40.5q0 -31 -24 -53.5 t-55 -22.5zM876 1570q-60 0 -105.5 17.5t-74.5 58.5t-29 102q0 44 17.5 67.5t44.5 23.5q20 0 33.5 -14t13.5 -38q0 -6 -2 -19t-2 -20q0 -44 29 -62t91 -18q140 0 162 119q3 22 18.5 37t39.5 15q18 0 31.5 -13t13.5 -33q0 -107 -79 -165t-202 -58z" />
<glyph unicode="&#x115;" horiz-adv-x="991" d="M148 340q0 197 68 347t196.5 234.5t301.5 84.5q78 0 139.5 -19t99.5 -51.5t57.5 -74t19.5 -89.5q0 -174 -179 -261.5t-558 -87.5q-7 -38 -7 -66q0 -141 64.5 -199.5t199.5 -58.5q136 0 263 90q22 16 41 16q26 0 44 -17.5t18 -43.5q0 -13 -5.5 -24.5t-11 -17t-15.5 -14.5 q-140 -116 -359 -116q-181 0 -279 92t-98 276zM308 536q292 0 438 57.5t146 163.5q0 52 -50 88.5t-150 36.5q-78 0 -145 -27.5t-114.5 -75.5t-79.5 -110t-45 -133zM724 1137q-92 0 -149.5 44t-57.5 135q0 43 17 66.5t45 23.5q13 0 23.5 -6t17 -18t6.5 -28q0 -6 -2 -19 t-2 -19q0 -31 14 -48.5t39 -24t67 -6.5q139 0 161 117q3 23 18.5 37.5t39.5 14.5q18 0 31.5 -13t13.5 -32q0 -72 -38 -123.5t-100.5 -76t-143.5 -24.5z" />
<glyph unicode="&#x116;" d="M959 0h-714q-31 0 -48 21.5t-12 52.5l230 1300q4 31 29.5 52t56.5 21h691q24 0 39.5 -16.5t15.5 -41.5q0 -30 -24 -52.5t-55 -22.5h-618l-90 -518h473q16 0 29 -8t20 -21.5t7 -29.5q0 -30 -25 -52t-55 -22h-472l-95 -530h641q24 0 39.5 -16.5t15.5 -40.5q0 -31 -24 -53.5 t-55 -22.5zM866 1582q-68 0 -68 65q0 52 25 78.5t74 26.5q69 0 69 -64q0 -34 -11.5 -58t-34 -36t-54.5 -12z" />
<glyph unicode="&#x117;" horiz-adv-x="991" d="M148 340q0 197 68 347t196.5 234.5t301.5 84.5q78 0 139.5 -19t99.5 -51.5t57.5 -74t19.5 -89.5q0 -174 -179 -261.5t-558 -87.5q-7 -38 -7 -66q0 -141 64.5 -199.5t199.5 -58.5q136 0 263 90q22 16 41 16q26 0 44 -17.5t18 -43.5q0 -13 -5.5 -24.5t-11 -17t-15.5 -14.5 q-140 -116 -359 -116q-181 0 -279 92t-98 276zM308 536q292 0 438 57.5t146 163.5q0 52 -50 88.5t-150 36.5q-78 0 -145 -27.5t-114.5 -75.5t-79.5 -110t-45 -133zM735 1170q-68 0 -68 65q0 52 25 78.5t73 26.5q70 0 70 -65q0 -52 -26 -78.5t-74 -26.5z" />
<glyph unicode="&#x118;" d="M1006 -269q13 0 24 -6t17.5 -17t6.5 -24q0 -27 -28 -43q-60 -35 -164 -35q-91 0 -142 40t-51 114q0 150 189 240h-613q-31 0 -48 21.5t-12 52.5l230 1300q4 31 29.5 52t56.5 21h691q24 0 39.5 -16.5t15.5 -41.5q0 -30 -24 -52.5t-55 -22.5h-618l-90 -518h473q16 0 29 -8 t20 -21.5t7 -29.5q0 -30 -25 -52t-55 -22h-472l-95 -530h641q24 0 39.5 -16.5t15.5 -40.5q0 -51 -66 -78q-37 -16 -68 -35t-60 -44t-45.5 -56.5t-16.5 -65.5q0 -45 28 -68.5t74 -23.5q43 0 95 20q15 6 27 6z" />
<glyph unicode="&#x119;" horiz-adv-x="991" d="M759 -269q20 0 33.5 -13.5t13.5 -33.5q0 -27 -28 -43q-60 -35 -163 -35q-60 0 -103.5 18t-67 52.5t-23.5 83.5q0 124 143 214q-11 -2 -39 -2q-181 0 -279 92t-98 276q0 197 68 347t196.5 234.5t301.5 84.5q78 0 139.5 -19t99.5 -51.5t57.5 -74t19.5 -89.5 q0 -174 -179 -261.5t-558 -87.5q-7 -38 -7 -66q0 -141 64.5 -199.5t199.5 -58.5q136 0 263 90q22 16 41 16q26 0 44 -17.5t18 -43.5q0 -13 -5.5 -24.5t-11 -17t-15.5 -14.5q-19 -16 -50.5 -33t-63 -31t-66 -30.5t-64 -35.5t-53.5 -41.5t-37.5 -53t-13.5 -66.5 q0 -45 27 -68.5t73 -23.5q43 0 95 20q16 6 28 6zM308 533q147 0 258.5 15.5t183 45t107 70.5t35.5 93t-50 88.5t-150 36.5q-81 0 -149 -28t-114.5 -76.5t-77 -110.5t-43.5 -134z" />
<glyph unicode="&#x11a;" d="M959 0h-714q-31 0 -48 21.5t-12 52.5l230 1300q4 31 29.5 52t56.5 21h691q24 0 39.5 -16.5t15.5 -41.5q0 -30 -24 -52.5t-55 -22.5h-618l-90 -518h473q16 0 29 -8t20 -21.5t7 -29.5q0 -30 -25 -52t-55 -22h-472l-95 -530h641q24 0 39.5 -16.5t15.5 -40.5q0 -31 -24 -53.5 t-55 -22.5zM890 1662l206 146q21 14 35 14q21 0 36 -15t15 -37q0 -29 -25 -46l-239 -165q-17 -12 -36 -12q-20 0 -33 12l-176 177q-13 12 -13 34t15.5 37t36.5 15q24 0 37 -16z" />
<glyph unicode="&#x11b;" horiz-adv-x="991" d="M148 340q0 197 68 347t196.5 234.5t301.5 84.5q78 0 139.5 -19t99.5 -51.5t57.5 -74t19.5 -89.5q0 -174 -179 -261.5t-558 -87.5q-7 -38 -7 -66q0 -141 64.5 -199.5t199.5 -58.5q136 0 263 90q22 16 41 16q26 0 44 -17.5t18 -43.5q0 -13 -5.5 -24.5t-11 -17t-15.5 -14.5 q-140 -116 -359 -116q-181 0 -279 92t-98 276zM308 536q292 0 438 57.5t146 163.5q0 52 -50 88.5t-150 36.5q-78 0 -145 -27.5t-114.5 -75.5t-79.5 -110t-45 -133zM737 1190l207 146q19 12 35 12q21 0 36 -15t15 -36q0 -28 -26 -45l-239 -166q-16 -13 -36 -13q-19 0 -32 13 l-176 176q-14 14 -14 35t15 36t37 15q25 0 36 -14z" />
<glyph unicode="&#x11c;" horiz-adv-x="1424" d="M782 103q139 0 248.5 48.5t182.5 123.5l55 312h-359q-25 0 -40 16.5t-15 41.5q0 30 23.5 52.5t55.5 22.5h435q26 0 42 -19.5t12 -46.5l-65 -377q-7 -45 -39 -77q-44 -47 -97 -85.5t-122 -72.5t-156.5 -53t-183.5 -19q-270 0 -414.5 136t-144.5 417q0 226 57 405.5 t163 300.5t257.5 184.5t339.5 63.5q156 0 274 -65t178 -173q8 -14 8 -35q0 -19 -9 -35t-25 -25t-35 -9q-38 0 -56 28q-39 63 -91 103t-117 59t-146 19q-303 0 -474 -211.5t-171 -590.5q0 -95 18.5 -168.5t53 -124.5t87.5 -83.5t119.5 -47.5t150.5 -15zM1223 1561l-144 144 l-203 -146q-17 -12 -35 -12q-21 0 -36 15t-15 36q0 26 23 43l241 167q18 14 36 14q19 0 35 -16l174 -174q12 -13 12 -34q0 -10 -4 -19.5t-11 -16.5t-16.5 -11t-19.5 -4q-22 0 -37 14z" />
<glyph unicode="&#x11d;" horiz-adv-x="1008" d="M849 380l35 203q6 42 6 77q0 110 -64 166t-174 56q-73 0 -134 -20.5t-104.5 -57t-74 -87t-45.5 -111t-15 -128.5q0 -152 64 -219.5t190 -67.5q45 0 86.5 10.5t72.5 27t58 37t44.5 40.5t30.5 36.5t19 27.5zM262 -209q0 -35 22.5 -58.5t59 -34t84.5 -10.5q82 0 142.5 19.5 t100 57t63.5 86t38 114.5l51 257q-29 -47 -76.5 -85t-98.5 -64t-106.5 -49.5t-104.5 -45.5t-88.5 -47.5t-63 -60.5t-23.5 -79zM1022 583l-108 -609q-37 -209 -162 -308t-350 -99q-128 0 -203.5 57t-75.5 146q0 110 91 180t283 121q-169 5 -263 99.5t-94 278.5 q0 170 61 294.5t181.5 193.5t290.5 69q165 0 261 -82.5t96 -239.5q0 -52 -8 -101zM888 1137l-144 145l-204 -147q-17 -13 -35 -13q-21 0 -36 15.5t-15 36.5q0 25 24 43l240 168q17 13 37 13t35 -15l174 -174q12 -13 12 -35q0 -21 -15 -36.5t-36 -15.5q-22 0 -37 15z" />
<glyph unicode="&#x11e;" horiz-adv-x="1424" d="M782 103q139 0 248.5 48.5t182.5 123.5l55 312h-359q-25 0 -40 16.5t-15 41.5q0 30 23.5 52.5t55.5 22.5h435q26 0 42 -19.5t12 -46.5l-65 -377q-7 -45 -39 -77q-44 -47 -97 -85.5t-122 -72.5t-156.5 -53t-183.5 -19q-270 0 -414.5 136t-144.5 417q0 226 57 405.5 t163 300.5t257.5 184.5t339.5 63.5q156 0 274 -65t178 -173q8 -14 8 -35q0 -19 -9 -35t-25 -25t-35 -9q-38 0 -56 28q-39 63 -91 103t-117 59t-146 19q-303 0 -474 -211.5t-171 -590.5q0 -95 18.5 -168.5t53 -124.5t87.5 -83.5t119.5 -47.5t150.5 -15zM1024 1570 q-60 0 -105.5 17.5t-74.5 58.5t-29 102q0 43 17.5 67t45.5 24q20 0 33.5 -14t13.5 -38q0 -6 -2 -19t-2 -20q0 -45 28.5 -62.5t91.5 -17.5q139 0 161 119q2 15 9.5 26.5t20 18.5t28.5 7q18 0 31.5 -13t13.5 -33q0 -107 -79 -165t-202 -58z" />
<glyph unicode="&#x11f;" horiz-adv-x="1008" d="M849 380l35 203q6 42 6 77q0 110 -64 166t-174 56q-73 0 -134 -20.5t-104.5 -57t-74 -87t-45.5 -111t-15 -128.5q0 -152 64 -219.5t190 -67.5q45 0 86.5 10.5t72.5 27t58 37t44.5 40.5t30.5 36.5t19 27.5zM262 -209q0 -35 22.5 -58.5t59 -34t84.5 -10.5q82 0 142.5 19.5 t100 57t63.5 86t38 114.5l51 257q-29 -47 -76.5 -85t-98.5 -64t-106.5 -49.5t-104.5 -45.5t-88.5 -47.5t-63 -60.5t-23.5 -79zM1022 583l-108 -609q-37 -209 -162 -308t-350 -99q-128 0 -203.5 57t-75.5 146q0 110 91 180t283 121q-169 5 -263 99.5t-94 278.5 q0 170 61 294.5t181.5 193.5t290.5 69q165 0 261 -82.5t96 -239.5q0 -52 -8 -101zM688 1137q-93 0 -150.5 44t-57.5 135q0 43 17.5 66.5t44.5 23.5q13 0 23.5 -6t17 -18t6.5 -28q0 -6 -2 -19t-2 -19q0 -31 14 -48.5t39.5 -24t67.5 -6.5q139 0 160 117q4 23 19.5 37.5 t39.5 14.5q19 0 32 -13t13 -32q0 -107 -79.5 -165.5t-202.5 -58.5z" />
<glyph unicode="&#x120;" horiz-adv-x="1424" d="M782 103q139 0 248.5 48.5t182.5 123.5l55 312h-359q-25 0 -40 16.5t-15 41.5q0 30 23.5 52.5t55.5 22.5h435q26 0 42 -19.5t12 -46.5l-65 -377q-7 -45 -39 -77q-44 -47 -97 -85.5t-122 -72.5t-156.5 -53t-183.5 -19q-270 0 -414.5 136t-144.5 417q0 226 57 405.5 t163 300.5t257.5 184.5t339.5 63.5q156 0 274 -65t178 -173q8 -14 8 -35q0 -19 -9 -35t-25 -25t-35 -9q-38 0 -56 28q-39 63 -91 103t-117 59t-146 19q-303 0 -474 -211.5t-171 -590.5q0 -95 18.5 -168.5t53 -124.5t87.5 -83.5t119.5 -47.5t150.5 -15zM1028 1582 q-69 0 -69 65q0 52 25.5 78.5t73.5 26.5q69 0 69 -64q0 -51 -25.5 -78.5t-73.5 -27.5z" />
<glyph unicode="&#x121;" horiz-adv-x="1008" d="M849 380l35 203q6 42 6 77q0 110 -64 166t-174 56q-73 0 -134 -20.5t-104.5 -57t-74 -87t-45.5 -111t-15 -128.5q0 -152 64 -219.5t190 -67.5q45 0 86.5 10.5t72.5 27t58 37t44.5 40.5t30.5 36.5t19 27.5zM262 -209q0 -35 22.5 -58.5t59 -34t84.5 -10.5q82 0 142.5 19.5 t100 57t63.5 86t38 114.5l51 257q-29 -47 -76.5 -85t-98.5 -64t-106.5 -49.5t-104.5 -45.5t-88.5 -47.5t-63 -60.5t-23.5 -79zM1022 583l-108 -609q-37 -209 -162 -308t-350 -99q-128 0 -203.5 57t-75.5 146q0 110 91 180t283 121q-169 5 -263 99.5t-94 278.5 q0 170 61 294.5t181.5 193.5t290.5 69q165 0 261 -82.5t96 -239.5q0 -52 -8 -101zM718 1170q-69 0 -69 65q0 51 25.5 78t74.5 27q68 0 68 -65q0 -52 -25.5 -78.5t-73.5 -26.5z" />
<glyph unicode="&#x122;" horiz-adv-x="1424" d="M782 103q139 0 248.5 48.5t182.5 123.5l55 312h-359q-25 0 -40 16.5t-15 41.5q0 30 23.5 52.5t55.5 22.5h435q26 0 42 -19.5t12 -46.5l-65 -377q-7 -45 -39 -77q-44 -47 -97 -85.5t-122 -72.5t-156.5 -53t-183.5 -19q-270 0 -414.5 136t-144.5 417q0 226 57 405.5 t163 300.5t257.5 184.5t339.5 63.5q156 0 274 -65t178 -173q8 -14 8 -35q0 -19 -9 -35t-25 -25t-35 -9q-38 0 -56 28q-39 63 -91 103t-117 59t-146 19q-303 0 -474 -211.5t-171 -590.5q0 -95 18.5 -168.5t53 -124.5t87.5 -83.5t119.5 -47.5t150.5 -15zM837 -178 q0 -202 -188 -353q-14 -11 -23 -11q-11 0 -20 9t-9 20q0 12 14 23q25 21 42 39.5t28 37t15.5 36t4.5 37.5q0 27 -24.5 69.5t-24.5 73.5q0 51 28.5 79t78.5 28q78 0 78 -88z" />
<glyph unicode="&#x123;" horiz-adv-x="1008" d="M849 380l35 203q6 42 6 77q0 110 -64 166t-174 56q-73 0 -134 -20.5t-104.5 -57t-74 -87t-45.5 -111t-15 -128.5q0 -152 64 -219.5t190 -67.5q45 0 86.5 10.5t72.5 27t58 37t44.5 40.5t30.5 36.5t19 27.5zM262 -209q0 -35 22.5 -58.5t59 -34t84.5 -10.5q82 0 142.5 19.5 t100 57t63.5 86t38 114.5l51 257q-29 -47 -76.5 -85t-98.5 -64t-106.5 -49.5t-104.5 -45.5t-88.5 -47.5t-63 -60.5t-23.5 -79zM1022 583l-108 -609q-37 -209 -162 -308t-350 -99q-128 0 -203.5 57t-75.5 146q0 110 91 180t283 121q-169 5 -263 99.5t-94 278.5 q0 170 61 294.5t181.5 193.5t290.5 69q165 0 261 -82.5t96 -239.5q0 -52 -8 -101zM620 1174q0 202 186 353q14 10 25 10t19 -8t8 -19q0 -14 -13 -24q-49 -41 -69.5 -76t-20.5 -74q0 -28 24.5 -70t24.5 -72q0 -52 -28.5 -80t-78.5 -28q-77 0 -77 88z" />
<glyph unicode="&#x124;" horiz-adv-x="1383" d="M1184 675h-747l-110 -619q-5 -30 -30 -51.5t-57 -21.5q-31 0 -47.5 21.5t-11.5 51.5l236 1335q5 30 29.5 52t56 22t49 -22t12.5 -52l-104 -583h749l102 583q5 30 30 52t56.5 22t48.5 -22t12 -52l-237 -1335q-5 -30 -29.5 -51.5t-56.5 -21.5q-31 0 -48 21.5t-12 51.5z M1149 1561l-145 144l-204 -146q-17 -12 -35 -12q-21 0 -36 15t-15 36q0 26 23 43l242 167q18 14 36 14t34 -16l174 -174q14 -14 14 -34q0 -21 -15.5 -36t-37.5 -15q-21 0 -35 14z" />
<glyph unicode="&#x125;" horiz-adv-x="1077" d="M740 1006q91 0 158 -20.5t106 -57t57 -83t18 -103.5q0 -58 -10 -116l-101 -575q-5 -29 -27 -48.5t-52.5 -19.5t-46.5 19.5t-11 48.5l96 546q11 62 11 107q0 88 -52.5 134t-167.5 46q-285 0 -338 -301l-94 -532q-5 -29 -27 -48.5t-52 -19.5q-31 0 -47.5 19.5t-11.5 48.5 l250 1412q5 29 27 48.5t53 19.5q29 0 45.5 -19.5t12.5 -48.5l-108 -607q41 65 124 107.5t188 42.5zM665 1561l-144 144l-205 -146q-17 -12 -35 -12q-21 0 -36 15t-15 36q0 25 24 43l241 167q18 14 36 14q19 0 35 -16l174 -174q13 -13 13 -34t-15 -36t-37 -15t-36 14z" />
<glyph unicode="&#x126;" horiz-adv-x="1383" d="M1184 675h-747l-110 -619q-5 -30 -30.5 -51.5t-56.5 -21.5q-30 0 -47 21.5t-12 51.5l165 939h-65q-19 0 -32 13t-13 33q0 10 3.5 19.5t9.5 17t14 13.5t18 9.5t20 3.5h64l52 287q2 15 10 28.5t19.5 23.5t26.5 16t30 6q30 0 48 -22t13 -52l-53 -287h749l51 287 q5 30 30.5 52t56 22t48 -22t12.5 -52l-52 -287h65q20 0 32.5 -13t12.5 -33q0 -17 -9 -31.5t-24 -23t-32 -8.5h-64l-166 -939q-5 -30 -30 -51.5t-56 -21.5q-30 0 -47.5 21.5t-12.5 51.5zM460 808h749l32 187h-749z" />
<glyph unicode="&#x127;" horiz-adv-x="1077" d="M740 1006q91 0 158 -20.5t106 -57t57 -83t18 -103.5q0 -58 -10 -116l-101 -575q-5 -29 -27 -48.5t-52.5 -19.5t-46.5 19.5t-11 48.5l96 546q11 62 11 107q0 88 -52.5 134t-167.5 46q-285 0 -338 -301l-94 -532q-5 -29 -27 -48.5t-52 -19.5q-31 0 -47.5 19.5t-11.5 48.5 l205 1155h-63q-21 0 -33 13t-12 33q0 25 19 43.5t46 18.5h62l26 149q5 29 27 48.5t53 19.5q29 0 45.5 -19.5t12.5 -48.5l-27 -149h240q19 0 32 -13t13 -33q0 -25 -20 -43.5t-45 -18.5h-239l-62 -350q41 65 124 107.5t188 42.5z" />
<glyph unicode="&#x128;" horiz-adv-x="489" d="M564 1391l-237 -1335q-5 -30 -30 -51.5t-57 -21.5q-31 0 -47.5 21.5t-11.5 51.5l236 1335q5 30 29.5 52t56 22t49 -22t12.5 -52zM433 1761q35 0 68.5 -13t55.5 -29t52.5 -29t59.5 -13q33 0 56.5 15t52.5 50q15 19 41 19q21 0 36 -15t15 -37q0 -15 -10 -32 q-21 -30 -49 -52.5t-70 -37.5t-89 -15q-36 0 -69.5 13t-55.5 29t-52 29t-60 13q-29 0 -52.5 -15.5t-56.5 -48.5q-20 -20 -41 -20q-22 0 -37 15t-15 36q0 19 13 35q82 103 207 103z" />
<glyph unicode="&#x129;" horiz-adv-x="423" d="M312 1327q24 0 47.5 -6t40.5 -15.5t36 -20.5t35 -20t36.5 -15.5t40.5 -6.5q33 0 57.5 14.5t52.5 49.5q16 20 41 20q14 0 26 -7t19 -19t7 -26t-11 -32q-32 -46 -85.5 -76t-123.5 -30q-36 0 -69.5 13t-55 29t-51.5 29t-60 13q-28 0 -52.5 -15.5t-57.5 -48.5 q-20 -20 -41 -20t-36.5 15.5t-15.5 37.5q0 18 13 33q84 104 207 104zM439 925l-155 -874q-5 -29 -27.5 -48.5t-51.5 -19.5q-30 0 -47 19.5t-12 48.5l155 874q5 29 27.5 48.5t51.5 19.5t46.5 -19.5t12.5 -48.5z" />
<glyph unicode="&#x12a;" horiz-adv-x="489" d="M564 1391l-237 -1335q-5 -30 -30 -51.5t-57 -21.5q-31 0 -47.5 21.5t-11.5 51.5l236 1335q5 30 29.5 52t56 22t49 -22t12.5 -52zM790 1639q0 -26 -19.5 -44.5t-46.5 -18.5h-400q-19 0 -32 13t-13 32q0 26 19.5 44.5t45.5 18.5h400q13 0 23.5 -5.5t16.5 -16t6 -23.5z" />
<glyph unicode="&#x12b;" horiz-adv-x="414" d="M675 1217q0 -26 -19 -44t-45 -18h-400q-20 0 -32.5 12.5t-12.5 32.5q0 26 19 44t45 18h400q20 0 32.5 -12.5t12.5 -32.5zM439 925l-155 -874q-5 -29 -27.5 -48.5t-51.5 -19.5q-30 0 -47 19.5t-12 48.5l155 874q5 29 27.5 48.5t51.5 19.5t46.5 -19.5t12.5 -48.5z" />
<glyph unicode="&#x12c;" horiz-adv-x="489" d="M564 1391l-237 -1335q-5 -30 -30 -51.5t-57 -21.5q-31 0 -47.5 21.5t-11.5 51.5l236 1335q5 30 29.5 52t56 22t49 -22t12.5 -52zM523 1570q-93 0 -151 44t-58 134q0 29 8.5 50t22 31t31.5 10q20 0 33.5 -14t13.5 -38q0 -6 -2 -19t-2 -20q0 -44 29 -62t92 -18 q140 0 161 119q4 22 19.5 37t38.5 15q19 0 32 -13t13 -33q0 -107 -79 -165t-202 -58z" />
<glyph unicode="&#x12d;" horiz-adv-x="414" d="M406 1137q-59 0 -105 17.5t-75 59t-29 102.5q0 43 18 66.5t45 23.5q14 0 24.5 -6t17 -18t6.5 -28q0 -6 -2.5 -19t-2.5 -19q0 -45 28.5 -62t91.5 -17q140 0 162 117q3 23 18.5 37.5t39.5 14.5q18 0 31.5 -13t13.5 -32q0 -107 -79 -165.5t-203 -58.5zM439 925l-155 -874 q-5 -29 -27.5 -48.5t-51.5 -19.5q-30 0 -47 19.5t-12 48.5l155 874q5 29 27.5 48.5t51.5 19.5t46.5 -19.5t12.5 -48.5z" />
<glyph unicode="&#x12e;" horiz-adv-x="489" d="M342 -269q20 0 34 -13.5t14 -33.5q0 -27 -29 -43q-60 -35 -164 -35q-91 0 -142 40t-51 114q0 150 191 240q-9 6 -13.5 23t-0.5 33l236 1335q5 30 29.5 52t56 22t49 -22t12.5 -52l-237 -1335q-5 -25 -16.5 -38t-39.5 -28q-75 -40 -113.5 -85.5t-38.5 -107.5 q0 -45 27 -68.5t73 -23.5q43 0 95 20q16 6 28 6z" />
<glyph unicode="&#x12f;" horiz-adv-x="414" d="M303 -269q20 0 34 -13.5t14 -33.5q0 -27 -29 -43q-60 -35 -162 -35q-61 0 -104.5 18t-67 52.5t-23.5 83.5q0 75 51 136t144 104q-20 23 -14 51l155 874q3 19 14 34.5t28 24.5t37 9q31 0 47.5 -19.5t11.5 -48.5l-155 -874q-10 -47 -58 -68q-146 -67 -146 -186 q0 -45 27 -68.5t74 -23.5q43 0 94 20q16 6 28 6zM447 1363q23 0 39 -7.5t24.5 -21t8.5 -31.5q0 -50 -27 -78.5t-73 -28.5q-34 0 -52 16t-18 44q0 50 26 78.5t72 28.5z" />
<glyph unicode="&#x130;" horiz-adv-x="489" d="M564 1391l-237 -1335q-5 -30 -30 -51.5t-57 -21.5q-31 0 -47.5 21.5t-11.5 51.5l236 1335q5 30 29.5 52t56 22t49 -22t12.5 -52zM527 1582q-69 0 -69 65q0 52 25 78.5t73 26.5q70 0 70 -64q0 -51 -25.5 -78.5t-73.5 -27.5z" />
<glyph unicode="&#x131;" horiz-adv-x="414" d="M439 925l-155 -874q-5 -29 -27.5 -48.5t-51.5 -19.5q-30 0 -47 19.5t-12 48.5l155 874q5 29 27.5 48.5t51.5 19.5t46.5 -19.5t12.5 -48.5z" />
<glyph unicode="&#x132;" horiz-adv-x="1324" d="M564 1391l-237 -1335q-5 -30 -30 -51.5t-57 -21.5q-31 0 -47.5 21.5t-11.5 51.5l236 1335q5 30 29.5 52t56 22t49 -22t12.5 -52zM519 28q-33 23 -33 58q0 14 5.5 27.5t15 23t22.5 15.5t27 6q16 0 44 -14q65 -35 163 -35q69 0 124.5 24.5t94 69t63.5 103t39 131.5l170 954 q5 30 29.5 52t56.5 22q31 0 46.5 -21.5t11.5 -52.5l-168 -954q-84 -465 -490 -465q-59 0 -123 15.5t-98 40.5z" />
<glyph unicode="&#x133;" horiz-adv-x="812" d="M439 925l-155 -874q-5 -29 -27 -48.5t-52 -19.5q-31 0 -47.5 19.5t-11.5 48.5l155 874q3 19 14 34.5t28 24.5t37 9q31 0 47.5 -19.5t11.5 -48.5zM447 1363q23 0 39 -7.5t24.5 -21t8.5 -31.5q0 -50 -27 -78.5t-73 -28.5q-34 0 -52 16t-18 44q0 50 26 78.5t72 28.5z M523 -76l176 1001q5 29 27.5 48.5t51.5 19.5q19 0 33.5 -8.5t21.5 -24.5t4 -35l-177 -1001q-25 -138 -126.5 -230t-243.5 -92q-24 0 -40 15.5t-16 38.5q0 21 10.5 38.5t28.5 27t39 9.5q76 0 136.5 56t74.5 137zM845 1363q34 0 52.5 -16t18.5 -44q0 -50 -26.5 -78.5 t-72.5 -28.5q-22 0 -38 7.5t-24 20.5t-8 32q0 33 11.5 57t34 37t52.5 13z" />
<glyph unicode="&#x134;" horiz-adv-x="887" d="M82 28q-33 23 -33 58q0 19 10 35.5t26.5 26.5t35.5 10q16 0 43 -14q65 -35 163 -35q69 0 124.5 24.5t93.5 69t63 103t39 131.5l170 954q2 15 10 28.5t19 23.5t26 16t31 6q31 0 47 -21.5t11 -52.5l-167 -954q-84 -465 -491 -465q-59 0 -123 15.5t-98 40.5zM1092 1561 l-144 144l-204 -146q-16 -12 -34 -12q-21 0 -36.5 15t-15.5 36q0 26 23 43l242 167q18 14 36 14q19 0 34 -16l175 -174q12 -13 12 -34q0 -10 -4 -19.5t-11 -16.5t-16.5 -11t-19.5 -4q-22 0 -37 14z" />
<glyph unicode="&#x135;" horiz-adv-x="416" d="M127 -76l176 1001q5 29 28 48.5t52 19.5t46 -19.5t12 -48.5l-176 -1001q-25 -136 -130.5 -229t-241.5 -93q-24 0 -39.5 15t-15.5 39q0 31 23.5 53t54.5 22q76 0 136.5 56t74.5 137zM570 1137l-144 145l-204 -147q-17 -13 -35 -13q-21 0 -36.5 15.5t-15.5 36.5q0 25 25 43 l240 168q17 13 37 13t34 -15l174 -174q13 -14 13 -35q0 -14 -6.5 -26t-18.5 -19t-26 -7q-22 0 -37 15z" />
<glyph unicode="&#x136;" horiz-adv-x="1190" d="M445 720l751 721q24 24 54 24t51.5 -21.5t21.5 -52.5q0 -32 -26 -55l-550 -515l397 -731q9 -16 9 -34q0 -20 -10 -37t-26.5 -26.5t-37.5 -9.5q-22 0 -38 10.5t-24 23.5l-377 710l-232 -216l-81 -455q-5 -32 -29 -52.5t-58 -20.5q-33 0 -48.5 20.5t-10.5 52.5l236 1335 q5 31 29.5 52.5t56.5 21.5t49 -21.5t12 -52.5zM699 -178q0 -202 -188 -353q-14 -11 -23 -11q-11 0 -19.5 9t-8.5 20q0 12 14 23q48 41 69 76t21 74q0 27 -25.5 69.5t-25.5 73.5q0 51 29 79t80 28q77 0 77 -88z" />
<glyph unicode="&#x137;" horiz-adv-x="973" d="M860 -17q-39 0 -58 32l-297 492l-156 -105l-63 -351q-5 -29 -27.5 -48.5t-51.5 -19.5t-46.5 19.5t-12.5 48.5l250 1412q5 29 28 48.5t52 19.5t45.5 -19.5t12.5 -48.5l-160 -901l574 414q22 17 50 17q26 0 45.5 -18.5t19.5 -43.5q0 -42 -39 -69l-415 -288l310 -488 q8 -14 8 -35q0 -29 -20 -48.5t-49 -19.5zM620 -178q0 -203 -187 -353q-14 -11 -25 -11t-19.5 9t-8.5 20q0 12 14 23q49 41 69.5 76t20.5 74q0 27 -24.5 69.5t-24.5 73.5q0 51 28.5 79t78.5 28q78 0 78 -88z" />
<glyph unicode="&#x138;" horiz-adv-x="973" d="M860 -17q-39 0 -58 32l-297 492l-156 -105l-63 -351q-5 -29 -27.5 -48.5t-51.5 -19.5t-46.5 19.5t-12.5 48.5l155 874q5 29 28 48.5t52 19.5t46 -19.5t12 -48.5l-65 -363l574 414q22 17 50 17q26 0 45.5 -18.5t19.5 -43.5q0 -42 -39 -69l-415 -288l310 -488q8 -14 8 -35 q0 -29 -20 -48.5t-49 -19.5z" />
<glyph unicode="&#x139;" horiz-adv-x="1038" d="M342 138h591q26 0 42 -16.5t16 -41.5q0 -32 -25.5 -56t-58.5 -24h-662q-31 0 -48 21.5t-12 52.5l232 1317q5 31 29.5 52.5t56.5 21.5t49 -21.5t12 -52.5zM435 1557q-31 31 4 66l224 232q17 19 40 17.5t44 -23.5q40 -43 -5 -84l-241 -204q-37 -33 -66 -4z" />
<glyph unicode="&#x13a;" horiz-adv-x="470" d="M477.5 1531q30.5 0 46.5 -19.5t12 -48.5l-218 -1229q-4 -26 -4 -49q0 -74 71 -74q10 0 18.5 -2.5t15 -7.5t11 -11.5t7 -15.5t2.5 -18q0 -31 -23.5 -52t-54.5 -21q-187 0 -187 181q0 31 7 70l217 1229q5 29 27 48.5t52.5 19.5zM392 1596q-31 31 4 66l224 232 q17 19 40 17.5t44 -23.5q40 -43 -5 -84l-241 -204q-37 -33 -66 -4z" />
<glyph unicode="&#x13b;" horiz-adv-x="1038" d="M342 138h591q26 0 42 -16.5t16 -41.5q0 -32 -25.5 -56t-58.5 -24h-662q-31 0 -48 21.5t-12 52.5l232 1317q5 31 29.5 52.5t56.5 21.5t49 -21.5t12 -52.5zM663 -178q0 -203 -187 -353q-14 -11 -24 -11q-12 0 -20.5 9t-8.5 20q0 12 14 23q49 41 69.5 76t20.5 74 q0 27 -24.5 69.5t-24.5 73.5q0 51 28.5 79t78.5 28q78 0 78 -88z" />
<glyph unicode="&#x13c;" horiz-adv-x="470" d="M477.5 1531q30.5 0 46.5 -19.5t12 -48.5l-218 -1229q-4 -26 -4 -49q0 -74 71 -74q10 0 18.5 -2.5t15 -7.5t11 -11.5t7 -15.5t2.5 -18q0 -31 -23.5 -52t-54.5 -21q-187 0 -187 181q0 31 7 70l217 1229q5 29 27 48.5t52.5 19.5zM340 -178q0 -202 -188 -353q-14 -11 -23 -11 q-11 0 -19.5 9t-8.5 20q0 12 13 23q33 27 53 52t29 48.5t9 49.5q0 27 -25.5 69.5t-25.5 73.5q0 51 29 79t79 28q78 0 78 -88z" />
<glyph unicode="&#x13d;" horiz-adv-x="1038" d="M342 138h591q26 0 42 -16.5t16 -41.5q0 -32 -25.5 -56t-58.5 -24h-662q-31 0 -48 21.5t-12 52.5l232 1317q5 31 29.5 52.5t56.5 21.5t49 -21.5t12 -52.5zM1086 1365q0 -103 -60.5 -213t-161.5 -208q-15 -15 -29 -15q-15 0 -25 8.5t-10 21.5t11 26q32 37 51 61.5t36 51 t24 49.5t7 47q0 29 -24.5 72t-24.5 76q0 59 32 91t90 32q84 0 84 -100z" />
<glyph unicode="&#x13e;" horiz-adv-x="502" d="M477.5 1531q30.5 0 46.5 -19.5t12 -48.5l-218 -1229q-4 -26 -4 -49q0 -74 71 -74q10 0 18.5 -2.5t15 -7.5t11 -11.5t7 -15.5t2.5 -18q0 -31 -23.5 -52t-54.5 -21q-187 0 -187 181q0 31 7 70l217 1229q5 29 27 48.5t52.5 19.5zM831 1432q0 -69 -29 -144t-78 -144 t-115 -133q-16 -16 -30 -16q-15 0 -25 9t-10 22q0 12 10 25q64 75 91.5 119.5t27.5 89.5q0 29 -24.5 72t-24.5 76q0 59 32.5 91t90.5 32q16 0 29 -3.5t23.5 -11t17 -19t10.5 -28t4 -37.5z" />
<glyph unicode="&#x13f;" horiz-adv-x="1038" d="M342 138h591q26 0 42 -16.5t16 -41.5q0 -32 -25.5 -56t-58.5 -24h-662q-31 0 -48 21.5t-12 52.5l232 1317q5 31 29.5 52.5t56.5 21.5t49 -21.5t12 -52.5zM925 638q-41 0 -63.5 19t-22.5 55q0 30 8.5 54.5t24 41.5t38.5 26t51 9q27 0 46 -8t29.5 -24.5t10.5 -40.5 q0 -62 -32.5 -97t-89.5 -35z" />
<glyph unicode="&#x140;" horiz-adv-x="599" d="M477.5 1531q30.5 0 46.5 -19.5t12 -48.5l-218 -1229q-4 -26 -4 -49q0 -74 71 -74q10 0 18.5 -2.5t15 -7.5t11 -11.5t7 -15.5t2.5 -18q0 -31 -23.5 -52t-54.5 -21q-187 0 -187 181q0 31 7 70l217 1229q5 29 27 48.5t52.5 19.5zM591 706q-86 0 -86 72q0 61 33 96t90 35 q86 0 86 -72q0 -61 -33 -96t-90 -35z" />
<glyph unicode="&#x141;" horiz-adv-x="1081" d="M383 138h589q26 0 42 -16.5t16 -41.5q0 -32 -24.5 -56t-57.5 -24h-662q-31 0 -48 21.5t-12 52.5l84 468l-95 -41q-12 -6 -30 -6q-26 0 -44 18t-18 43q0 44 39 59l171 69l125 707q3 20 15.5 37t31.5 27t39 10q30 0 47.5 -21.5t12.5 -52.5l-114 -640l392 174q13 6 27 6 q26 0 44.5 -18.5t18.5 -44.5q0 -42 -39 -57l-467 -202z" />
<glyph unicode="&#x142;" horiz-adv-x="546" d="M477.5 1531q30.5 0 46.5 -19.5t12 -48.5l-101 -564l176 96q13 7 27 7q16 0 29.5 -7.5t21.5 -21t8 -29.5q0 -36 -32 -52l-254 -129l-93 -529q-4 -28 -4 -49q0 -74 71 -74q10 0 18.5 -2.5t15 -7.5t11 -11.5t7 -15.5t2.5 -18q0 -31 -23.5 -52t-54.5 -21q-60 0 -101.5 20 t-63.5 60t-22 99q0 33 7 72l81 454l-51 -32q-19 -9 -33 -9q-24 0 -40.5 17t-16.5 42q0 36 33 53l132 66l112 638q5 29 27 48.5t52.5 19.5z" />
<glyph unicode="&#x143;" horiz-adv-x="1332" d="M1370 1465q29 0 46 -21t12 -51l-236 -1337q-5 -31 -30 -52t-56 -21q-39 0 -55 30l-548 1179l-202 -1138q-5 -30 -28 -50.5t-56 -20.5q-30 0 -46 20.5t-11 50.5l236 1339q3 20 13.5 36t28 26t38.5 10q40 0 57 -35l557 -1174l196 1137q5 30 29 51t55 21zM856 1555 q-31 31 4 66l224 232q17 19 40 17.5t44 -23.5q40 -43 -5 -84l-240 -204q-38 -34 -67 -4z" />
<glyph unicode="&#x144;" horiz-adv-x="1077" d="M740 1006q91 0 158 -20.5t106 -57t57 -83t18 -103.5q0 -58 -10 -116l-101 -575q-5 -29 -27 -48.5t-52.5 -19.5t-46.5 19.5t-11 48.5l96 546q11 62 11 107q0 88 -52.5 134t-167.5 46q-285 0 -338 -301l-94 -532q-5 -29 -27 -48.5t-52 -19.5q-31 0 -47.5 19.5t-11.5 48.5 l155 874q5 30 27.5 49t52.5 19q29 0 46 -19.5t12 -48.5l-13 -69q41 65 124 107.5t188 42.5zM620 1118q-31 31 4 66l223 234q18 18 40.5 16.5t43.5 -24.5q40 -42 -4 -83l-241 -205q-37 -33 -66 -4z" />
<glyph unicode="&#x145;" horiz-adv-x="1332" d="M1370 1465q29 0 46 -21t12 -51l-236 -1337q-5 -31 -30 -52t-56 -21q-39 0 -55 30l-548 1179l-202 -1138q-5 -30 -28 -50.5t-56 -20.5q-30 0 -46 20.5t-11 50.5l236 1339q3 20 13.5 36t28 26t38.5 10q40 0 57 -35l557 -1174l196 1137q5 30 29 51t55 21zM714 -178 q0 -203 -187 -353q-14 -11 -24 -11q-11 0 -19 8.5t-8 20.5q0 13 12 23q49 41 70 76t21 74q0 27 -25 69.5t-25 73.5q0 51 28.5 79t78.5 28q78 0 78 -88z" />
<glyph unicode="&#x146;" horiz-adv-x="1077" d="M740 1006q91 0 158 -20.5t106 -57t57 -83t18 -103.5q0 -58 -10 -116l-101 -575q-5 -29 -27 -48.5t-52.5 -19.5t-46.5 19.5t-11 48.5l96 546q11 62 11 107q0 88 -52.5 134t-167.5 46q-285 0 -338 -301l-94 -532q-5 -29 -27 -48.5t-52 -19.5q-31 0 -47.5 19.5t-11.5 48.5 l155 874q5 30 27.5 49t52.5 19q29 0 46 -19.5t12 -48.5l-13 -69q41 65 124 107.5t188 42.5zM620 -178q0 -203 -187 -353q-14 -11 -25 -11t-19.5 9t-8.5 20q0 12 14 23q49 41 69.5 76t20.5 74q0 27 -24.5 69.5t-24.5 73.5q0 51 28.5 79t78.5 28q78 0 78 -88z" />
<glyph unicode="&#x147;" horiz-adv-x="1332" d="M1370 1465q29 0 46 -21t12 -51l-236 -1337q-5 -31 -30 -52t-56 -21q-39 0 -55 30l-548 1179l-202 -1138q-5 -30 -28 -50.5t-56 -20.5q-30 0 -46 20.5t-11 50.5l236 1339q3 20 13.5 36t28 26t38.5 10q40 0 57 -35l557 -1174l196 1137q5 30 29 51t55 21zM952 1662l207 146 q21 14 35 14q21 0 36 -15t15 -37q0 -28 -26 -46l-238 -165q-17 -12 -37 -12t-33 12l-176 177q-13 12 -13 34q0 14 7 26t19 19t26 7q24 0 37 -16z" />
<glyph unicode="&#x148;" horiz-adv-x="1077" d="M740 1006q91 0 158 -20.5t106 -57t57 -83t18 -103.5q0 -58 -10 -116l-101 -575q-5 -29 -27 -48.5t-52.5 -19.5t-46.5 19.5t-11 48.5l96 546q11 62 11 107q0 88 -52.5 134t-167.5 46q-285 0 -338 -301l-94 -532q-5 -29 -27 -48.5t-52 -19.5q-31 0 -47.5 19.5t-11.5 48.5 l155 874q5 30 27.5 49t52.5 19q29 0 46 -19.5t12 -48.5l-13 -69q41 65 124 107.5t188 42.5zM768 1190l206 146q19 12 35 12q14 0 26 -7t18.5 -18.5t6.5 -25.5q0 -28 -26 -45l-238 -166q-17 -13 -37 -13t-32 13l-177 176q-12 13 -12 35q0 21 15 36t36 15q25 0 37 -14z" />
<glyph unicode="&#x149;" horiz-adv-x="1077" d="M740 1006q91 0 158 -20.5t106 -57t57 -83t18 -103.5q0 -58 -10 -116l-101 -575q-5 -29 -27 -48.5t-52.5 -19.5t-46.5 19.5t-11 48.5l96 546q11 62 11 107q0 88 -52.5 134t-167.5 46q-285 0 -338 -301l-94 -532q-5 -29 -27 -48.5t-52 -19.5q-31 0 -47.5 19.5t-11.5 48.5 l155 874q5 30 27.5 49t52.5 19q29 0 46 -19.5t12 -48.5l-13 -69q41 65 124 107.5t188 42.5zM437 1363q0 -38 -6.5 -73t-24 -82t-57.5 -98t-99 -99q-15 -11 -24 -11q-11 0 -20 8.5t-9 19.5q0 12 14 23q49 41 69.5 76.5t20.5 74.5q0 28 -24.5 70t-24.5 72q0 51 28.5 79 t78.5 28q78 0 78 -88z" />
<glyph unicode="&#x14a;" horiz-adv-x="1332" d="M1370 1465q29 0 46 -21t12 -51l-244 -1369q-17 -100 -54 -181t-95 -144t-144 -97.5t-194 -34.5q-25 0 -42 17t-17 42q0 32 26 55.5t58 23.5q69 0 124.5 24t94.5 67.5t64.5 101t39.5 128.5l-542 1166l-202 -1138q-5 -30 -28 -50.5t-56 -20.5q-30 0 -46 20.5t-11 50.5 l236 1339q3 20 13.5 36t28 26t38.5 10q40 0 57 -35l557 -1174l196 1137q5 30 29 51t55 21z" />
<glyph unicode="&#x14b;" horiz-adv-x="1075" d="M740 1006q91 0 158 -20.5t106 -57t57 -83t18 -103.5q0 -58 -10 -116l-129 -735q-16 -90 -69 -163.5t-132 -117t-169 -43.5q-16 0 -29 7.5t-20.5 20t-7.5 27.5q0 32 23.5 53.5t54.5 21.5q76 0 136.5 56t74.5 138l125 706q11 62 11 107q0 88 -52.5 134t-167.5 46 q-285 0 -338 -301l-94 -532q-5 -29 -27 -48.5t-52 -19.5q-31 0 -47.5 19.5t-11.5 48.5l155 874q5 30 27.5 49t52.5 19q29 0 46 -19.5t12 -48.5l-13 -69q41 65 124 107.5t188 42.5z" />
<glyph unicode="&#x14c;" horiz-adv-x="1530" d="M761 -30q-558 0 -558 553q0 222 58 401t164.5 300.5t259.5 187t341 65.5q558 0 558 -552q0 -177 -37 -328t-107.5 -266.5t-171 -196.5t-229 -122.5t-278.5 -41.5zM1002 1344q-202 0 -348 -97t-222.5 -277.5t-76.5 -427.5q0 -227 109.5 -333t320.5 -106q202 0 348 97 t222.5 277.5t76.5 427.5q0 227 -109 333t-321 106zM1314 1639q0 -17 -9 -31.5t-23.5 -23t-31.5 -8.5h-401q-19 0 -32 13t-13 32q0 26 19 44.5t45 18.5h400q20 0 33 -12.5t13 -32.5z" />
<glyph unicode="&#x14d;" horiz-adv-x="1053" d="M542 97q82 0 149 29t112 78.5t75.5 117.5t44 142.5t13.5 157.5q0 260 -255 260q-82 0 -149 -29t-112 -78.5t-75 -117.5t-43.5 -143t-13.5 -157q0 -260 254 -260zM521 -28q-179 0 -276 92t-97 276q0 86 14 166t42 155.5t73.5 137.5t105.5 108.5t142 72.5t179 26 q179 0 275 -92t96 -276q0 -103 -19 -198t-62 -181t-106.5 -149.5t-157.5 -100.5t-209 -37zM995 1217q0 -26 -18.5 -44t-45.5 -18h-400q-19 0 -32 12.5t-13 32.5q0 26 19 44t45 18h400q20 0 32.5 -12.5t12.5 -32.5z" />
<glyph unicode="&#x14e;" horiz-adv-x="1530" d="M761 -30q-558 0 -558 553q0 222 58 401t164.5 300.5t259.5 187t341 65.5q558 0 558 -552q0 -177 -37 -328t-107.5 -266.5t-171 -196.5t-229 -122.5t-278.5 -41.5zM1002 1344q-202 0 -348 -97t-222.5 -277.5t-76.5 -427.5q0 -227 109.5 -333t320.5 -106q202 0 348 97 t222.5 277.5t76.5 427.5q0 227 -109 333t-321 106zM1045 1570q-93 0 -150.5 44t-57.5 134q0 44 17.5 67.5t44.5 23.5q20 0 33.5 -14t13.5 -38q0 -6 -2 -19t-2 -20q0 -44 29 -62t92 -18q138 0 160 119q4 22 19.5 37t39.5 15q19 0 32 -13t13 -33q0 -107 -79.5 -165t-202.5 -58 z" />
<glyph unicode="&#x14f;" horiz-adv-x="1053" d="M542 97q82 0 149 29t112 78.5t75.5 117.5t44 142.5t13.5 157.5q0 260 -255 260q-82 0 -149 -29t-112 -78.5t-75 -117.5t-43.5 -143t-13.5 -157q0 -260 254 -260zM521 -28q-179 0 -276 92t-97 276q0 86 14 166t42 155.5t73.5 137.5t105.5 108.5t142 72.5t179 26 q179 0 275 -92t96 -276q0 -103 -19 -198t-62 -181t-106.5 -149.5t-157.5 -100.5t-209 -37zM724 1137q-92 0 -149.5 44t-57.5 135q0 43 17 66.5t45 23.5q13 0 23.5 -6t17 -18t6.5 -28q0 -6 -2 -19t-2 -19q0 -31 14 -48.5t39 -24t67 -6.5q139 0 161 117q3 23 18.5 37.5 t39.5 14.5q18 0 31.5 -13t13.5 -32q0 -72 -38 -123.5t-100.5 -76t-143.5 -24.5z" />
<glyph unicode="&#x150;" horiz-adv-x="1530" d="M761 -30q-558 0 -558 553q0 222 58 401t164.5 300.5t259.5 187t341 65.5q558 0 558 -552q0 -177 -37 -328t-107.5 -266.5t-171 -196.5t-229 -122.5t-278.5 -41.5zM1002 1344q-202 0 -348 -97t-222.5 -277.5t-76.5 -427.5q0 -227 109.5 -333t320.5 -106q202 0 348 97 t222.5 277.5t76.5 427.5q0 227 -109 333t-321 106zM884 1555q-31 31 4 66l224 232q18 19 40.5 17.5t43.5 -23.5q40 -43 -4 -84l-242 -204q-37 -33 -66 -4zM1137 1555q-31 31 4 66l224 232q18 19 40.5 17.5t43.5 -23.5q40 -43 -4 -84l-241 -204q-37 -34 -67 -4z" />
<glyph unicode="&#x151;" horiz-adv-x="1053" d="M542 97q82 0 149 29t112 78.5t75.5 117.5t44 142.5t13.5 157.5q0 260 -255 260q-82 0 -149 -29t-112 -78.5t-75 -117.5t-43.5 -143t-13.5 -157q0 -260 254 -260zM521 -28q-179 0 -276 92t-97 276q0 86 14 166t42 155.5t73.5 137.5t105.5 108.5t142 72.5t179 26 q179 0 275 -92t96 -276q0 -103 -19 -198t-62 -181t-106.5 -149.5t-157.5 -100.5t-209 -37zM523 1118q-31 31 4 66l224 234q18 18 40.5 16.5t43.5 -24.5q39 -42 -4 -83l-242 -205q-37 -33 -66 -4zM776 1118q-31 31 4 66l224 234q18 18 40.5 16.5t43.5 -24.5q39 -42 -4 -83 l-241 -205q-37 -33 -67 -4z" />
<glyph unicode="&#x152;" horiz-adv-x="1986" d="M1832 0h-714q-16 0 -31 7.5t-18 18.5q-62 -24 -145 -40t-163 -16q-558 0 -558 553q0 222 58 401t164.5 300.5t259.5 187t341 65.5q173 0 290 -53q19 23 58 23h690q25 0 40.5 -16.5t15.5 -41.5q0 -30 -24 -52.5t-55 -22.5h-617l-90 -518h472q24 0 40.5 -17t16.5 -42 q0 -30 -25 -52t-55 -22h-474l-94 -530h640q25 0 41 -16.5t16 -40.5q0 -31 -24.5 -53.5t-55.5 -22.5zM785 103q163 0 290 65l195 1112q-103 64 -268 64q-202 0 -348 -97t-222.5 -277.5t-76.5 -427.5q0 -227 109.5 -333t320.5 -106z" />
<glyph unicode="&#x153;" horiz-adv-x="1754" d="M521 -28q-179 0 -276 92t-97 276q0 86 14 166t42 155.5t73.5 137.5t105.5 108.5t142 72.5t179 26q272 0 345 -206q73 100 182 153t246 53q154 0 235 -67t81 -167q0 -174 -178.5 -261.5t-558.5 -87.5q-7 -38 -7 -66q0 -141 65 -199.5t200 -58.5q136 0 262 90q22 16 41 16 q26 0 44 -17.5t18 -43.5q0 -13 -5.5 -24.5t-11 -17t-15.5 -14.5q-140 -116 -348 -116q-137 0 -231 55t-126 160q-26 -43 -63.5 -79.5t-89 -68t-120.5 -49.5t-148 -18zM542 97q82 0 149 29t112 78.5t75.5 117.5t44 142.5t13.5 157.5q0 260 -255 260q-82 0 -149 -29 t-112 -78.5t-75 -117.5t-43.5 -143t-13.5 -157q0 -260 254 -260zM1073 540q293 0 438 56t145 161q0 52 -50 88.5t-151 36.5q-77 0 -144 -27t-114.5 -74t-79 -108.5t-44.5 -132.5z" />
<glyph unicode="&#x154;" horiz-adv-x="1173" d="M550 1314l-98 -555h359q92 0 164 44.5t109.5 118t37.5 162.5q0 101 -59.5 165.5t-159.5 64.5h-353zM428 626l-101 -570q-5 -31 -29.5 -52t-57.5 -21q-29 0 -46.5 21t-12.5 52l232 1318q3 21 15.5 37.5t31.5 26t39 9.5h428q157 0 251.5 -98t94.5 -248q0 -93 -34 -179.5 t-94 -152t-147.5 -104.5t-189.5 -39l300 -532q10 -17 10 -38q0 -31 -21 -52t-52 -21q-18 0 -35.5 8.5t-26.5 25.5l-325 609h-230zM761 1557q-31 31 4 66l224 232q18 19 40.5 17.5t43.5 -23.5q40 -43 -4 -84l-242 -204q-37 -33 -66 -4z" />
<glyph unicode="&#x155;" horiz-adv-x="663" d="M441 925l-18 -94q47 76 134.5 123.5t195.5 47.5q24 0 39.5 -16.5t15.5 -41.5q0 -30 -24 -53t-55 -23q-145 0 -238 -91t-119 -244l-86 -482q-5 -29 -27.5 -48.5t-51.5 -19.5t-46.5 19.5t-12.5 48.5l155 874q5 30 27.5 49t52.5 19q29 0 46 -19.5t12 -48.5zM492 1118 q-31 31 5 66l223 234q18 18 40.5 16.5t43.5 -24.5q40 -42 -4 -83l-241 -205q-37 -33 -67 -4z" />
<glyph unicode="&#x156;" horiz-adv-x="1173" d="M550 1314l-98 -555h359q92 0 164 44.5t109.5 118t37.5 162.5q0 101 -59.5 165.5t-159.5 64.5h-353zM428 626l-101 -570q-5 -31 -29.5 -52t-57.5 -21q-29 0 -46.5 21t-12.5 52l232 1318q3 21 15.5 37.5t31.5 26t39 9.5h428q157 0 251.5 -98t94.5 -248q0 -93 -34 -179.5 t-94 -152t-147.5 -104.5t-189.5 -39l300 -532q10 -17 10 -38q0 -31 -21 -52t-52 -21q-18 0 -35.5 8.5t-26.5 25.5l-325 609h-230zM679 -178q0 -203 -187 -353q-14 -11 -24 -11q-11 0 -19 8.5t-8 20.5q0 13 13 23q24 21 41.5 39.5t28 37t15.5 36t5 37.5q0 27 -24.5 69.5 t-24.5 73.5q0 34 13 58t37 36.5t57 12.5q77 0 77 -88z" />
<glyph unicode="&#x157;" horiz-adv-x="663" d="M441 925l-18 -94q47 76 134.5 123.5t195.5 47.5q24 0 39.5 -16.5t15.5 -41.5q0 -30 -24 -53t-55 -23q-145 0 -238 -91t-119 -244l-86 -482q-5 -29 -27.5 -48.5t-51.5 -19.5t-46.5 19.5t-12.5 48.5l155 874q5 30 27.5 49t52.5 19q29 0 46 -19.5t12 -48.5zM269 -178 q0 -203 -187 -353q-14 -11 -24 -11q-11 0 -19.5 8.5t-8.5 20.5q0 13 13 23q49 41 69.5 76t20.5 74q0 27 -24.5 69.5t-24.5 73.5q0 51 28.5 79t78.5 28q78 0 78 -88z" />
<glyph unicode="&#x158;" horiz-adv-x="1173" d="M550 1314l-98 -555h359q92 0 164 44.5t109.5 118t37.5 162.5q0 101 -59.5 165.5t-159.5 64.5h-353zM428 626l-101 -570q-5 -31 -29.5 -52t-57.5 -21q-29 0 -46.5 21t-12.5 52l232 1318q3 21 15.5 37.5t31.5 26t39 9.5h428q157 0 251.5 -98t94.5 -248q0 -93 -34 -179.5 t-94 -152t-147.5 -104.5t-189.5 -39l300 -532q10 -17 10 -38q0 -31 -21 -52t-52 -21q-18 0 -35.5 8.5t-26.5 25.5l-325 609h-230zM868 1662l207 146q21 14 35 14q21 0 36 -15t15 -37q0 -28 -26 -46l-238 -165q-17 -12 -37 -12t-33 12l-175 177q-14 13 -14 34q0 14 7 26 t19 19t26 7q24 0 37 -16z" />
<glyph unicode="&#x159;" horiz-adv-x="663" d="M441 925l-18 -94q47 76 134.5 123.5t195.5 47.5q24 0 39.5 -16.5t15.5 -41.5q0 -30 -24 -53t-55 -23q-145 0 -238 -91t-119 -244l-86 -482q-5 -29 -27.5 -48.5t-51.5 -19.5t-46.5 19.5t-12.5 48.5l155 874q5 30 27.5 49t52.5 19q29 0 46 -19.5t12 -48.5zM556 1190 l207 146q19 12 35 12q21 0 36 -15t15 -36q0 -28 -26 -45l-238 -166q-17 -13 -37 -13q-19 0 -31 13l-177 176q-13 14 -13 35t15 36t36 15q25 0 37 -14z" />
<glyph unicode="&#x15a;" horiz-adv-x="1199" d="M1168 1178q-104 166 -327 166q-91 0 -162 -23t-111.5 -61.5t-61 -84t-20.5 -96.5q0 -43 19.5 -79t53 -61t77.5 -48.5t94 -41t103 -39.5t103 -43t94.5 -52t77.5 -66.5t52.5 -86.5t19.5 -113q0 -226 -152 -352.5t-443 -126.5q-92 0 -171.5 23.5t-135 63.5t-93.5 88.5 t-56 102.5q-4 12 -4 25q0 29 19.5 49t48.5 20q21 0 39 -11t24 -28q26 -58 71 -101.5t118 -71t164 -27.5q199 0 311 86.5t112 233.5q0 48 -19.5 88t-53 67.5t-78 52t-94.5 42.5t-103 39.5t-103.5 42t-95 50.5t-78 64.5t-53 84.5t-19.5 111q0 84 33.5 158t98 131t167 90 t230.5 33q150 0 265 -63.5t157 -168.5q7 -15 7 -30q0 -14 -5.5 -27t-15 -22t-22 -14t-27.5 -5q-36 0 -55 31zM817 1557q-31 31 4 66l224 232q17 19 40 17.5t44 -23.5q40 -43 -4 -84l-241 -204q-37 -33 -67 -4z" />
<glyph unicode="&#x15b;" horiz-adv-x="911" d="M597 873q-41 0 -77.5 -7.5t-68 -23.5t-50 -45.5t-18.5 -69.5q0 -37 21 -66.5t55 -48t77.5 -37t89 -33.5t89 -37.5t78 -48t55 -66.5t20.5 -93q0 -158 -110.5 -240.5t-299.5 -82.5q-117 0 -211 48t-140 116q-8 14 -8 32q0 26 18.5 44t44.5 18q29 0 47 -21q89 -106 262 -106 q53 0 98 9.5t81.5 29t57.5 53.5t21 78q0 34 -21 61t-55.5 44.5t-78.5 35.5t-89.5 33.5t-89.5 39t-78.5 50.5t-55.5 69.5t-21 95.5q0 74 28.5 132.5t79.5 94.5t118.5 54.5t148.5 18.5q102 0 187 -42.5t121 -101.5q10 -18 10 -35q0 -26 -18 -44t-44.5 -18t-45.5 19 q-28 28 -57 47t-73 31.5t-98 12.5zM559 1118q-31 31 5 66l224 234q17 18 39 16.5t43 -24.5q40 -42 -4 -83l-240 -205q-38 -33 -67 -4z" />
<glyph unicode="&#x15c;" horiz-adv-x="1199" d="M1168 1178q-104 166 -327 166q-91 0 -162 -23t-111.5 -61.5t-61 -84t-20.5 -96.5q0 -43 19.5 -79t53 -61t77.5 -48.5t94 -41t103 -39.5t103 -43t94.5 -52t77.5 -66.5t52.5 -86.5t19.5 -113q0 -226 -152 -352.5t-443 -126.5q-92 0 -171.5 23.5t-135 63.5t-93.5 88.5 t-56 102.5q-4 12 -4 25q0 29 19.5 49t48.5 20q21 0 39 -11t24 -28q26 -58 71 -101.5t118 -71t164 -27.5q199 0 311 86.5t112 233.5q0 48 -19.5 88t-53 67.5t-78 52t-94.5 42.5t-103 39.5t-103.5 42t-95 50.5t-78 64.5t-53 84.5t-19.5 111q0 84 33.5 158t98 131t167 90 t230.5 33q150 0 265 -63.5t157 -168.5q7 -15 7 -30q0 -14 -5.5 -27t-15 -22t-22 -14t-27.5 -5q-36 0 -55 31zM1065 1561l-144 144l-205 -146q-17 -12 -35 -12q-21 0 -36 15t-15 36q0 25 24 43l241 167q18 14 36 14q19 0 35 -16l173 -174q14 -14 14 -34q0 -10 -4 -19.5 t-11 -16.5t-16.5 -11t-20.5 -4q-22 0 -36 14z" />
<glyph unicode="&#x15d;" horiz-adv-x="911" d="M597 873q-41 0 -77.5 -7.5t-68 -23.5t-50 -45.5t-18.5 -69.5q0 -37 21 -66.5t55 -48t77.5 -37t89 -33.5t89 -37.5t78 -48t55 -66.5t20.5 -93q0 -158 -110.5 -240.5t-299.5 -82.5q-117 0 -211 48t-140 116q-8 14 -8 32q0 26 18.5 44t44.5 18q29 0 47 -21q89 -106 262 -106 q53 0 98 9.5t81.5 29t57.5 53.5t21 78q0 34 -21 61t-55.5 44.5t-78.5 35.5t-89.5 33.5t-89.5 39t-78.5 50.5t-55.5 69.5t-21 95.5q0 74 28.5 132.5t79.5 94.5t118.5 54.5t148.5 18.5q102 0 187 -42.5t121 -101.5q10 -18 10 -35q0 -26 -18 -44t-44.5 -18t-45.5 19 q-28 28 -57 47t-73 31.5t-98 12.5zM845 1137l-144 145l-204 -147q-17 -13 -35 -13q-21 0 -36 15.5t-15 36.5q0 25 24 43l240 168q17 13 37 13t35 -15l174 -174q12 -13 12 -35q0 -21 -15 -36.5t-36 -15.5q-22 0 -37 15z" />
<glyph unicode="&#x15e;" horiz-adv-x="1199" d="M776 -260q0 -222 -236 -222q-38 0 -76 10.5t-60 26.5q-17 13 -17 34q0 16 13 28.5t28 12.5q11 0 24 -6q39 -22 92 -22q74 0 104.5 27.5t30.5 97.5q0 39 -20 56t-59 17q-20 0 -50 -4.5t-41 -4.5q-8 0 -14.5 3t-11.5 10.5t-5 19.5q0 5 4 26l25 124q-148 18 -246.5 95.5 t-131.5 178.5q-4 12 -4 25q0 29 19.5 49t48.5 20q21 0 39 -11t24 -28q26 -58 71 -101.5t118 -71t164 -27.5q199 0 311 86.5t112 233.5q0 48 -19.5 88t-53 67.5t-78 52t-94.5 42.5t-103 39.5t-103.5 42t-95 50.5t-78 64.5t-53 84.5t-19.5 111q0 84 33.5 158t98 131t167 90 t230.5 33q150 0 265 -63.5t157 -168.5q7 -15 7 -30q0 -14 -5.5 -27t-15 -22t-22 -14t-27.5 -5q-36 0 -55 31q-104 166 -327 166q-91 0 -162 -23t-111.5 -61.5t-61 -84t-20.5 -96.5q0 -43 19.5 -79t53 -61t77.5 -48.5t94 -41t103 -39.5t103 -43t94.5 -52t77.5 -66.5 t52.5 -86.5t19.5 -113q0 -226 -153 -352.5t-446 -126.5l-25 -97q40 4 59 4q161 0 161 -137z" />
<glyph unicode="&#x15f;" horiz-adv-x="911" d="M622 -260q0 -222 -237 -222q-38 0 -76 10.5t-59 26.5q-18 14 -18 34q0 16 12.5 28.5t28.5 12.5q12 0 24 -6q40 -22 93 -22q49 0 78 11.5t43 39t14 74.5q0 26 -9.5 42.5t-26.5 23.5t-44 7q-20 0 -50 -4.5t-40 -4.5q-13 0 -23 8t-10 25q0 5 5 26l28 135q-83 18 -148 59.5 t-100 93.5q-8 14 -8 32q0 26 18.5 44t44.5 18q29 0 47 -21q89 -106 262 -106q53 0 98 9.5t81.5 29t57.5 53.5t21 78q0 34 -21 61t-55.5 44.5t-78.5 35.5t-89.5 33.5t-89.5 39t-78.5 50.5t-55.5 69.5t-21 95.5q0 74 28.5 132.5t79.5 94.5t118.5 54.5t148.5 18.5 q102 0 187 -42.5t121 -101.5q10 -18 10 -35q0 -26 -18 -44t-44.5 -18t-45.5 19q-28 28 -57 47t-73 31.5t-98 12.5q-41 0 -77.5 -7.5t-68 -23.5t-50 -45.5t-18.5 -69.5q0 -37 21 -66.5t55 -48t77.5 -37t89 -33.5t89 -37.5t78 -48t55 -66.5t20.5 -93q0 -158 -110.5 -240.5 t-299.5 -82.5l-30 2l-26 -103q39 4 58 4q162 0 162 -137z" />
<glyph unicode="&#x160;" horiz-adv-x="1199" d="M1168 1178q-104 166 -327 166q-91 0 -162 -23t-111.5 -61.5t-61 -84t-20.5 -96.5q0 -43 19.5 -79t53 -61t77.5 -48.5t94 -41t103 -39.5t103 -43t94.5 -52t77.5 -66.5t52.5 -86.5t19.5 -113q0 -226 -152 -352.5t-443 -126.5q-92 0 -171.5 23.5t-135 63.5t-93.5 88.5 t-56 102.5q-4 12 -4 25q0 29 19.5 49t48.5 20q21 0 39 -11t24 -28q26 -58 71 -101.5t118 -71t164 -27.5q199 0 311 86.5t112 233.5q0 48 -19.5 88t-53 67.5t-78 52t-94.5 42.5t-103 39.5t-103.5 42t-95 50.5t-78 64.5t-53 84.5t-19.5 111q0 84 33.5 158t98 131t167 90 t230.5 33q150 0 265 -63.5t157 -168.5q7 -15 7 -30q0 -14 -5.5 -27t-15 -22t-22 -14t-27.5 -5q-36 0 -55 31zM897 1662l207 146q20 14 33 14q22 0 37.5 -15.5t15.5 -36.5q0 -28 -27 -46l-238 -165q-17 -12 -37 -12t-32 12l-177 177q-12 12 -12 34t15 37t36 15q24 0 37 -16z " />
<glyph unicode="&#x161;" horiz-adv-x="911" d="M597 873q-41 0 -77.5 -7.5t-68 -23.5t-50 -45.5t-18.5 -69.5q0 -37 21 -66.5t55 -48t77.5 -37t89 -33.5t89 -37.5t78 -48t55 -66.5t20.5 -93q0 -158 -110.5 -240.5t-299.5 -82.5q-117 0 -211 48t-140 116q-8 14 -8 32q0 26 18.5 44t44.5 18q29 0 47 -21q89 -106 262 -106 q53 0 98 9.5t81.5 29t57.5 53.5t21 78q0 34 -21 61t-55.5 44.5t-78.5 35.5t-89.5 33.5t-89.5 39t-78.5 50.5t-55.5 69.5t-21 95.5q0 74 28.5 132.5t79.5 94.5t118.5 54.5t148.5 18.5q102 0 187 -42.5t121 -101.5q10 -18 10 -35q0 -26 -18 -44t-44.5 -18t-45.5 19 q-28 28 -57 47t-73 31.5t-98 12.5zM654 1190l206 146q19 12 35 12q14 0 25.5 -7t18.5 -18.5t7 -25.5q0 -29 -25 -45l-240 -166q-16 -13 -36 -13q-19 0 -32 13l-176 176q-14 14 -14 35t15.5 36t37.5 15q24 0 35 -14z" />
<glyph unicode="&#x162;" horiz-adv-x="1156" d="M737 1309h-384q-26 0 -42 17t-16 42q0 32 24 55.5t57 23.5h914q26 0 42 -16.5t16 -41.5q0 -32 -24.5 -56t-57.5 -24h-382l-221 -1253q-5 -31 -30.5 -52t-56.5 -21q-30 0 -47 21t-12 52zM638 -178q0 -203 -186 -353q-15 -11 -24 -11q-11 0 -19.5 9t-8.5 20q0 13 13 23 q49 41 69.5 76t20.5 74q0 27 -24.5 69.5t-24.5 73.5q0 51 28.5 79t79.5 28q76 0 76 -88z" />
<glyph unicode="&#x163;" horiz-adv-x="599" d="M363 976l41 226q3 18 15 34t30 25t37 9q30 0 45.5 -19.5t10.5 -48.5l-41 -226h142q24 0 39 -15t15 -38q0 -32 -23 -54t-54 -22h-138l-106 -593q-4 -21 -4 -39q0 -50 28 -77t76 -27q24 0 39.5 -15.5t15.5 -39.5q0 -30 -24 -51.5t-55 -21.5q-107 0 -163.5 55.5t-56.5 150.5 q0 34 6 65l106 593h-86q-24 0 -38.5 15.5t-14.5 38.5q0 32 22.5 53.5t53.5 21.5h82zM404 -178q0 -203 -187 -353q-14 -11 -24 -11q-11 0 -19 8.5t-8 20.5q0 13 12 23q49 41 70 76t21 74q0 27 -25 69.5t-25 73.5q0 51 28.5 79t79.5 28q77 0 77 -88z" />
<glyph unicode="&#x164;" horiz-adv-x="1156" d="M737 1309h-384q-26 0 -42 17t-16 42q0 32 24 55.5t57 23.5h914q26 0 42 -16.5t16 -41.5q0 -32 -24.5 -56t-57.5 -24h-382l-221 -1253q-5 -31 -30.5 -52t-56.5 -21q-30 0 -47 21t-12 52zM862 1662l207 146q20 14 35 14q21 0 36 -15t15 -37q0 -28 -26 -46l-239 -165 q-16 -12 -36 -12t-33 12l-176 177q-13 12 -13 34q0 14 7 26t19 19t26 7q24 0 36 -16z" />
<glyph unicode="&#x165;" horiz-adv-x="599" d="M363 976l41 226q3 18 15 34t30 25t37 9q30 0 45.5 -19.5t10.5 -48.5l-41 -226h142q24 0 39 -15t15 -38q0 -32 -23 -54t-54 -22h-138l-106 -593q-4 -21 -4 -39q0 -50 28 -77t76 -27q24 0 39.5 -15.5t15.5 -39.5q0 -30 -24 -51.5t-55 -21.5q-107 0 -163.5 55.5t-56.5 150.5 q0 34 6 65l106 593h-86q-24 0 -38.5 15.5t-14.5 38.5q0 32 22.5 53.5t53.5 21.5h82zM938 1484q0 -103 -60.5 -213t-161.5 -208q-16 -16 -30 -16t-24 9t-10 21q0 13 11 27q42 50 64.5 80t37.5 63.5t15 63.5t-24.5 73.5t-24.5 76.5q0 59 32.5 90t90.5 31q41 0 62.5 -23 t21.5 -75z" />
<glyph unicode="&#x166;" horiz-adv-x="1156" d="M737 1309h-384q-26 0 -42 17t-16 42q0 32 24 55.5t57 23.5h914q26 0 42 -16.5t16 -41.5q0 -32 -24.5 -56t-57.5 -24h-382l-92 -521h174q20 0 32.5 -13t12.5 -33q0 -25 -19.5 -44t-45.5 -19h-174l-109 -623q-5 -31 -30.5 -52t-56.5 -21q-30 0 -47 21t-12 52l109 623h-187 q-20 0 -32.5 13t-12.5 32q0 26 19 45t45 19h187z" />
<glyph unicode="&#x167;" horiz-adv-x="599" d="M363 976l41 226q3 18 15 34t30 25t37 9q30 0 45.5 -19.5t10.5 -48.5l-41 -226h142q24 0 39 -15t15 -38q0 -32 -23 -54t-54 -22h-138l-26 -148h148q19 0 32 -12.5t13 -32.5q0 -26 -19 -44.5t-45 -18.5h-148l-61 -337q-4 -21 -4 -39q0 -50 28 -77t76 -27q24 0 39.5 -15.5 t15.5 -39.5q0 -30 -24 -51.5t-55 -21.5q-107 0 -163.5 55.5t-56.5 150.5q0 34 6 65l61 337h-96q-20 0 -32.5 13t-12.5 32q0 26 18.5 44.5t45.5 18.5h96l26 148h-86q-24 0 -38.5 15.5t-14.5 38.5q0 32 22.5 53.5t53.5 21.5h82z" />
<glyph unicode="&#x168;" horiz-adv-x="1340" d="M673 -30q-114 0 -199.5 27.5t-136 77t-75 111t-24.5 134.5q0 46 12 121l167 950q5 31 29.5 52.5t56.5 21.5t49 -21.5t12 -52.5l-168 -950q-9 -49 -9 -90q0 -244 310 -244q86 0 153.5 19t111.5 49.5t75.5 75t48 90t26.5 100.5l168 950q5 31 29 52.5t56 21.5t49 -21.5 t12 -52.5l-168 -950q-8 -47 -19.5 -88t-29 -85t-42.5 -80.5t-57 -71t-75.5 -60.5t-96 -46t-120 -30t-145.5 -10zM868 1761q36 0 69.5 -13t56 -29t52.5 -29t60 -13q32 0 56 15t53 50q15 19 41 19q14 0 25.5 -7t18.5 -19t7 -26q0 -15 -10 -32q-32 -46 -86 -75.5t-123 -29.5 q-36 0 -69.5 13t-55 29t-52 29t-59.5 13t-52.5 -15.5t-57.5 -48.5q-20 -20 -41 -20t-36.5 15t-15.5 36q0 18 14 35q82 103 205 103z" />
<glyph unicode="&#x169;" horiz-adv-x="1036" d="M361 993q29 0 46 -19.5t12 -48.5l-99 -562q-8 -49 -8 -79q0 -85 50.5 -133t173.5 -48q64 0 114 14t82.5 37t56 58t36 70.5t20.5 80.5l99 562q5 29 28 48.5t54 19.5q29 0 44.5 -19.5t11.5 -48.5l-99 -562q-8 -41 -17.5 -75.5t-23.5 -71.5t-33.5 -67t-45.5 -58t-59.5 -49.5 t-75 -37.5t-94 -24t-113.5 -8q-93 0 -161.5 21t-108.5 59t-59.5 87t-19.5 109q0 51 11 115l98 562q5 30 27.5 49t52.5 19zM640 1327q36 0 69.5 -13t56 -29t53 -29t59.5 -13q22 0 40 7t34 20.5t35 36.5q16 20 41 20q14 0 26 -7t18.5 -19t6.5 -26t-10 -32q-32 -46 -86 -76 t-123 -30q-36 0 -69.5 13t-55 29t-51.5 29t-60 13q-20 0 -39 -8.5t-34.5 -21t-37.5 -34.5q-20 -20 -39 -20q-11 0 -20.5 4.5t-16.5 11.5t-11.5 16.5t-4.5 20.5q0 16 14 33q83 104 205 104z" />
<glyph unicode="&#x16a;" horiz-adv-x="1340" d="M673 -30q-114 0 -199.5 27.5t-136 77t-75 111t-24.5 134.5q0 46 12 121l167 950q5 31 29.5 52.5t56.5 21.5t49 -21.5t12 -52.5l-168 -950q-9 -49 -9 -90q0 -244 310 -244q86 0 153.5 19t111.5 49.5t75.5 75t48 90t26.5 100.5l168 950q5 31 29 52.5t56 21.5t49 -21.5 t12 -52.5l-168 -950q-8 -47 -19.5 -88t-29 -85t-42.5 -80.5t-57 -71t-75.5 -60.5t-96 -46t-120 -30t-145.5 -10zM1230 1639q0 -17 -9 -31.5t-23.5 -23t-31.5 -8.5h-401q-19 0 -32 13t-13 32q0 26 19.5 44.5t45.5 18.5h399q20 0 33 -12.5t13 -32.5z" />
<glyph unicode="&#x16b;" horiz-adv-x="1036" d="M361 993q29 0 46 -19.5t12 -48.5l-99 -562q-8 -49 -8 -79q0 -85 50.5 -133t173.5 -48q64 0 114 14t82.5 37t56 58t36 70.5t20.5 80.5l99 562q5 29 28 48.5t54 19.5q29 0 44.5 -19.5t11.5 -48.5l-99 -562q-8 -41 -17.5 -75.5t-23.5 -71.5t-33.5 -67t-45.5 -58t-59.5 -49.5 t-75 -37.5t-94 -24t-113.5 -8q-93 0 -161.5 21t-108.5 59t-59.5 87t-19.5 109q0 51 11 115l98 562q5 30 27.5 49t52.5 19zM1004 1217q0 -26 -19 -44t-45 -18h-400q-20 0 -32.5 12.5t-12.5 32.5q0 26 18.5 44t45.5 18h400q19 0 32 -12.5t13 -32.5z" />
<glyph unicode="&#x16c;" horiz-adv-x="1340" d="M673 -30q-114 0 -199.5 27.5t-136 77t-75 111t-24.5 134.5q0 46 12 121l167 950q5 31 29.5 52.5t56.5 21.5t49 -21.5t12 -52.5l-168 -950q-9 -49 -9 -90q0 -244 310 -244q86 0 153.5 19t111.5 49.5t75.5 75t48 90t26.5 100.5l168 950q5 31 29 52.5t56 21.5t49 -21.5 t12 -52.5l-168 -950q-8 -47 -19.5 -88t-29 -85t-42.5 -80.5t-57 -71t-75.5 -60.5t-96 -46t-120 -30t-145.5 -10zM942 1570q-93 0 -151 44t-58 134q0 43 18 67t45 24q20 0 33.5 -14t13.5 -38q0 -6 -2 -19t-2 -20q0 -30 13.5 -48t39 -25t67.5 -7q139 0 161 119q4 22 19.5 37 t38.5 15q19 0 32 -13t13 -33q0 -107 -79 -165t-202 -58z" />
<glyph unicode="&#x16d;" horiz-adv-x="1036" d="M361 993q29 0 46 -19.5t12 -48.5l-99 -562q-8 -49 -8 -79q0 -85 50.5 -133t173.5 -48q64 0 114 14t82.5 37t56 58t36 70.5t20.5 80.5l99 562q5 29 28 48.5t54 19.5q29 0 44.5 -19.5t11.5 -48.5l-99 -562q-8 -41 -17.5 -75.5t-23.5 -71.5t-33.5 -67t-45.5 -58t-59.5 -49.5 t-75 -37.5t-94 -24t-113.5 -8q-93 0 -161.5 21t-108.5 59t-59.5 87t-19.5 109q0 51 11 115l98 562q5 30 27.5 49t52.5 19zM718 1137q-92 0 -150.5 44t-58.5 135q0 43 18 66.5t45 23.5q13 0 24 -6t17.5 -18t6.5 -28q0 -6 -2.5 -19t-2.5 -19q0 -45 28.5 -62t91.5 -17 q140 0 162 117q3 23 18.5 37.5t38.5 14.5q19 0 32.5 -13t13.5 -32q0 -72 -38 -123.5t-101 -76t-143 -24.5z" />
<glyph unicode="&#x16e;" horiz-adv-x="1340" d="M673 -30q-114 0 -199.5 27.5t-136 77t-75 111t-24.5 134.5q0 46 12 121l167 950q5 31 29.5 52.5t56.5 21.5t49 -21.5t12 -52.5l-168 -950q-9 -49 -9 -90q0 -244 310 -244q86 0 153.5 19t111.5 49.5t75.5 75t48 90t26.5 100.5l168 950q5 31 29 52.5t56 21.5t49 -21.5 t12 -52.5l-168 -950q-8 -47 -19.5 -88t-29 -85t-42.5 -80.5t-57 -71t-75.5 -60.5t-96 -46t-120 -30t-145.5 -10zM952 1512q-93 0 -142 44t-49 123q0 116 68 185t199 69q93 0 142 -44.5t49 -123.5q0 -56 -16.5 -102t-49 -80t-83.5 -52.5t-118 -18.5zM1013 1851 q-87 0 -123 -42.5t-36 -118.5q0 -48 26.5 -72t87.5 -24q159 0 159 161q0 32 -11.5 53t-36.5 32t-66 11z" />
<glyph unicode="&#x16f;" horiz-adv-x="1036" d="M361 993q29 0 46 -19.5t12 -48.5l-99 -562q-8 -49 -8 -79q0 -85 50.5 -133t173.5 -48q64 0 114 14t82.5 37t56 58t36 70.5t20.5 80.5l99 562q5 29 28 48.5t54 19.5q29 0 44.5 -19.5t11.5 -48.5l-99 -562q-8 -41 -17.5 -75.5t-23.5 -71.5t-33.5 -67t-45.5 -58t-59.5 -49.5 t-75 -37.5t-94 -24t-113.5 -8q-93 0 -161.5 21t-108.5 59t-59.5 87t-19.5 109q0 51 11 115l98 562q5 30 27.5 49t52.5 19zM716 1079q-47 0 -83.5 12t-60 34t-35.5 53t-12 69q0 116 68 185.5t199 69.5q47 0 83 -12t60 -34t36 -53t12 -69q0 -116 -68 -185.5t-199 -69.5z M776 1420q-87 0 -123 -43.5t-36 -118.5q0 -32 11 -53t36.5 -32.5t66.5 -11.5q159 0 159 162q0 49 -27 73t-87 24z" />
<glyph unicode="&#x170;" horiz-adv-x="1330" d="M663 -30q-114 0 -200 27.5t-136 77t-74.5 111t-24.5 134.5q0 53 10 121l168 950q5 31 29.5 52.5t56.5 21.5q21 0 36 -10t21 -26.5t3 -37.5l-167 -950q-9 -55 -9 -90q0 -244 310 -244q61 0 113.5 10t92 26.5t72 41.5t54.5 53t39 62.5t27.5 68t16.5 72.5l167 950 q5 31 29.5 52.5t56.5 21.5t49 -21.5t12 -52.5l-168 -950q-8 -47 -19.5 -88t-29 -85t-42 -80.5t-57 -71t-75.5 -60.5t-95.5 -46t-120 -30t-145.5 -10zM742 1557q-31 31 5 66l223 232q18 19 40.5 17.5t43.5 -23.5q40 -43 -5 -84l-241 -204q-37 -33 -66 -4zM995 1557 q-31 31 5 66l223 232q18 19 40.5 17.5t43.5 -23.5q40 -43 -4 -84l-240 -204q-38 -33 -68 -4z" />
<glyph unicode="&#x171;" horiz-adv-x="1036" d="M361 993q29 0 46 -19.5t12 -48.5l-99 -562q-8 -49 -8 -79q0 -85 50.5 -133t173.5 -48q64 0 114 14t82.5 37t56 58t36 70.5t20.5 80.5l99 562q5 29 28 48.5t54 19.5q29 0 44.5 -19.5t11.5 -48.5l-99 -562q-8 -41 -17.5 -75.5t-23.5 -71.5t-33.5 -67t-45.5 -58t-59.5 -49.5 t-75 -37.5t-94 -24t-113.5 -8q-93 0 -161.5 21t-108.5 59t-59.5 87t-19.5 109q0 51 11 115l98 562q5 30 27.5 49t52.5 19zM523 1118q-31 31 4 66l224 234q18 18 40.5 16.5t43.5 -24.5q39 -42 -4 -83l-242 -205q-37 -33 -66 -4zM776 1118q-31 31 4 66l224 234 q18 18 40.5 16.5t43.5 -24.5q39 -42 -4 -83l-241 -205q-37 -33 -67 -4z" />
<glyph unicode="&#x172;" horiz-adv-x="1340" d="M948 -269q20 0 33.5 -13.5t13.5 -33.5q0 -28 -27 -43q-60 -35 -164 -35q-91 0 -142 40t-51 114q0 125 144 214q-34 -4 -82 -4q-114 0 -199.5 27.5t-136 77t-75 111t-24.5 134.5q0 46 12 121l167 950q5 31 29.5 52.5t56.5 21.5t49 -21.5t12 -52.5l-168 -950q-9 -49 -9 -90 q0 -244 310 -244q86 0 153.5 19t111.5 49.5t75.5 75t48 90t26.5 100.5l168 950q5 31 29 52.5t56 21.5t49 -21.5t12 -52.5l-168 -950q-11 -61 -26.5 -112.5t-43.5 -105t-66 -94.5t-95 -76t-128 -55q-69 -26 -122 -80.5t-53 -120.5q0 -45 27.5 -68.5t73.5 -23.5q44 0 96 20 q16 6 27 6z" />
<glyph unicode="&#x173;" horiz-adv-x="1036" d="M759 -269q20 0 33.5 -13.5t13.5 -33.5q0 -27 -28 -43q-60 -35 -163 -35q-60 0 -103.5 18t-67 52.5t-23.5 83.5q0 127 138 214q-13 -2 -38 -2q-93 0 -161.5 21t-108.5 59t-59.5 87t-19.5 109q0 51 11 115l98 562q5 30 27.5 49t52.5 19q29 0 46 -19.5t12 -48.5l-99 -562 q-8 -49 -8 -79q0 -85 50.5 -133t173.5 -48q64 0 114 14t82.5 37t56 58t36 70.5t20.5 80.5l99 562q5 29 28 48.5t54 19.5q29 0 44.5 -19.5t11.5 -48.5l-99 -562q-12 -64 -29.5 -116t-48 -102t-79 -87t-112.5 -58q-69 -26 -123.5 -81t-54.5 -122q0 -45 27 -68.5t73 -23.5 q43 0 95 20q16 6 28 6z" />
<glyph unicode="&#x174;" horiz-adv-x="1758" d="M1082 1133l-503 -1094q-24 -56 -82 -56q-25 0 -42 14.5t-20 39.5l-145 1326q-2 17 -2 28q0 31 21 52.5t52 21.5q20 0 36.5 -9t26 -23.5t11.5 -32.5l119 -1101l504 1111q24 55 77 55q26 0 44 -15.5t21 -41.5l111 -1109l511 1119q21 47 68 47q31 0 52.5 -21.5t21.5 -52.5 q0 -15 -9 -37l-617 -1317q-24 -54 -74 -54q-60 0 -66 56zM1336 1561l-144 144l-205 -146q-17 -12 -35 -12q-21 0 -36 15t-15 36q0 25 24 43l241 167q18 14 36 14q19 0 35 -16l173 -174q14 -14 14 -34q0 -21 -15 -36t-37 -15t-36 14z" />
<glyph unicode="&#x175;" horiz-adv-x="1375" d="M813 714l-318 -681q-10 -23 -30 -36.5t-46 -13.5q-23 0 -38 12t-18 33l-160 869q-6 26 -6 28q0 29 20 48.5t50 19.5q24 0 43.5 -15t22.5 -36l127 -706l325 706q25 51 73 51q19 0 33 -7.5t20 -17.5t7 -22l80 -710l374 718q20 39 62 39q19 0 35 -8.5t25.5 -24.5t9.5 -35 t-12 -39l-470 -858q-11 -21 -31 -33t-43 -12t-38.5 13.5t-19.5 36.5zM1069 1137l-144 145l-205 -147q-16 -13 -34 -13q-22 0 -37 15.5t-15 36.5q0 25 24 43l241 168q17 13 37 13t34 -15l174 -174q13 -13 13 -35q0 -14 -7 -26t-18.5 -19t-25.5 -7q-22 0 -37 15z" />
<glyph unicode="&#x176;" d="M554 -17q-31 0 -47.5 20.5t-11.5 52.5l109 617l-311 688q-7 15 -7 30q0 20 9.5 37t26.5 27t37 10q46 0 64 -41l278 -605l485 615q25 31 61 31q31 0 52 -21.5t21 -52.5q0 -27 -17 -47l-552 -671l-111 -617q-4 -31 -28.5 -52t-57.5 -21zM1013 1561l-145 144l-203 -146 q-17 -12 -35 -12q-21 0 -36 15t-15 36q0 26 23 43l241 167q18 14 37 14q18 0 34 -16l174 -174q13 -14 13 -34q0 -21 -15.5 -36t-36.5 -15t-36 14z" />
<glyph unicode="&#x177;" horiz-adv-x="1036" d="M361 993q29 0 46 -19.5t12 -48.5l-81 -463q-9 -55 -9 -79q0 -40 10.5 -71.5t35 -57t69.5 -38.5t108 -13q73 0 130 21.5t92.5 59.5t56.5 82t31 96l82 463q5 29 28 48.5t54 19.5q29 0 44.5 -19.5t11.5 -48.5l-168 -951q-37 -209 -162 -308t-350 -99q-128 0 -203.5 57 t-75.5 146q0 109 90.5 178t285.5 123q-83 5 -143.5 28t-96.5 60.5t-53 84t-17 102.5q0 51 11 116l81 463q5 30 27.5 49t52.5 19zM262 -209q0 -35 22.5 -58.5t59 -34t84.5 -10.5q82 0 142.5 19.5t100 57t63.5 86t38 114.5l51 257q-29 -47 -76.5 -85t-98.5 -64t-106.5 -49.5 t-104.5 -45.5t-88.5 -47.5t-63 -60.5t-23.5 -79zM886 1137l-144 145l-204 -147q-17 -13 -35 -13q-21 0 -36 15.5t-15 36.5q0 25 24 43l240 168q17 13 37 13t35 -15l173 -174q13 -14 13 -35t-15 -36.5t-36 -15.5q-22 0 -37 15z" />
<glyph unicode="&#x178;" d="M554 -17q-31 0 -47.5 20.5t-11.5 52.5l109 617l-311 688q-7 15 -7 30q0 20 9.5 37t26.5 27t37 10q46 0 64 -41l278 -605l485 615q25 31 61 31q31 0 52 -21.5t21 -52.5q0 -27 -17 -47l-552 -671l-111 -617q-4 -31 -28.5 -52t-57.5 -21zM667 1594q-65 0 -65 60 q0 47 24.5 74t68.5 27q66 0 66 -62q0 -47 -24.5 -73t-69.5 -26zM1004 1594q-64 0 -64 60q0 47 24 74t68 27q67 0 67 -62q0 -47 -25 -73t-70 -26z" />
<glyph unicode="&#x179;" horiz-adv-x="1102" d="M1009 0h-904q-17 0 -30 7.5t-20.5 21t-7.5 29.5q0 26 22 51l1008 1200h-697q-27 0 -42.5 17t-15.5 42q0 32 25 55.5t59 23.5h827q25 0 40 -16.5t15 -41.5q0 -28 -20 -51l-1001 -1200h765q27 0 42.5 -16.5t15.5 -41.5q0 -33 -23.5 -56.5t-57.5 -23.5zM751 1557 q-31 31 4 66l224 232q17 19 40 17.5t44 -23.5q40 -43 -5 -84l-241 -204q-37 -33 -66 -4z" />
<glyph unicode="&#x17a;" horiz-adv-x="870" d="M240 901q0 32 23 53.5t55 21.5h589q24 0 39 -15t15 -38q0 -27 -23 -55l-659 -735h491q25 0 40 -16t15 -41q0 -31 -23 -53.5t-55 -22.5h-630q-25 0 -40 15t-15 39q0 25 24 53l667 740h-456q-25 0 -41 15.5t-16 38.5zM523 1118q-31 31 4 66l224 234q18 18 40.5 16.5 t43.5 -24.5q39 -42 -4 -83l-242 -205q-37 -33 -66 -4z" />
<glyph unicode="&#x17b;" horiz-adv-x="1102" d="M1009 0h-904q-17 0 -30 7.5t-20.5 21t-7.5 29.5q0 26 22 51l1008 1200h-697q-27 0 -42.5 17t-15.5 42q0 32 25 55.5t59 23.5h827q25 0 40 -16.5t15 -41.5q0 -28 -20 -51l-1001 -1200h765q27 0 42.5 -16.5t15.5 -41.5q0 -33 -23.5 -56.5t-57.5 -23.5zM839 1582 q-69 0 -69 65q0 35 11 58.5t33 35t54 11.5q70 0 70 -64q0 -51 -25.5 -78.5t-73.5 -27.5z" />
<glyph unicode="&#x17c;" horiz-adv-x="870" d="M240 901q0 32 23 53.5t55 21.5h589q24 0 39 -15t15 -38q0 -27 -23 -55l-659 -735h491q25 0 40 -16t15 -41q0 -31 -23 -53.5t-55 -22.5h-630q-25 0 -40 15t-15 39q0 25 24 53l667 740h-456q-25 0 -41 15.5t-16 38.5zM656 1170q-69 0 -69 65q0 52 25 78.5t74 26.5 q69 0 69 -65q0 -52 -25.5 -78.5t-73.5 -26.5z" />
<glyph unicode="&#x17d;" horiz-adv-x="1102" d="M1009 0h-904q-17 0 -30 7.5t-20.5 21t-7.5 29.5q0 26 22 51l1008 1200h-697q-27 0 -42.5 17t-15.5 42q0 32 25 55.5t59 23.5h827q25 0 40 -16.5t15 -41.5q0 -28 -20 -51l-1001 -1200h765q27 0 42.5 -16.5t15.5 -41.5q0 -33 -23.5 -56.5t-57.5 -23.5zM862 1662l207 146 q20 14 35 14q21 0 36 -15t15 -37q0 -28 -26 -46l-239 -165q-16 -12 -36 -12t-33 12l-176 177q-13 12 -13 34q0 14 7 26t19 19t26 7q24 0 36 -16z" />
<glyph unicode="&#x17e;" horiz-adv-x="870" d="M240 901q0 32 23 53.5t55 21.5h589q24 0 39 -15t15 -38q0 -27 -23 -55l-659 -735h491q25 0 40 -16t15 -41q0 -31 -23 -53.5t-55 -22.5h-630q-25 0 -40 15t-15 39q0 25 24 53l667 740h-456q-25 0 -41 15.5t-16 38.5zM654 1190l206 146q19 12 35 12q14 0 25.5 -7 t18.5 -18.5t7 -25.5q0 -29 -25 -45l-240 -166q-16 -13 -36 -13q-19 0 -32 13l-176 176q-14 14 -14 35t15.5 36t37.5 15q24 0 35 -14z" />
<glyph unicode="&#x17f;" horiz-adv-x="480" d="M355 976l21 128q13 76 46 141t85.5 117t131.5 81.5t176 29.5q24 0 38.5 -15t14.5 -38q0 -32 -22.5 -54t-53.5 -22q-122 0 -190.5 -65t-88.5 -175l-201 -1160q-15 -83 -50.5 -151t-91.5 -119t-136 -79t-178 -28q-24 0 -38.5 16t-14.5 39q0 32 21.5 52t52.5 20 q125 0 200 68.5t97 190.5l157 894h-73q-24 0 -38.5 15.5t-14.5 38.5q0 32 22.5 53.5t53.5 21.5h74z" />
<glyph unicode="&#x192;" horiz-adv-x="880" d="M911 1377q0 -23 -15 -38.5t-38 -15.5q-12 0 -37 11q-66 27 -126 27q-94 0 -144.5 -60t-72.5 -181l-48 -264h208q16 0 29.5 -7.5t21.5 -21t8 -29.5q0 -24 -17 -41t-42 -17h-227l-134 -740q-18 -101 -54 -179.5t-91 -135.5t-131.5 -87.5t-170.5 -30.5q-77 0 -140 25 q-47 17 -47 57q0 25 16.5 41.5t41.5 16.5q11 0 24 -4q5 -2 16.5 -5t16.5 -4.5t15 -4t18.5 -3t21 -1.5t27.5 -1q123 0 198.5 79t101.5 218l135 759h-140q-24 0 -40.5 17t-16.5 41t16.5 41t40.5 17h160l45 248q33 181 117.5 277t237.5 96q113 0 185 -47q31 -21 31 -53z" />
<glyph unicode="&#x1e2;" horiz-adv-x="1808" d="M1654 0h-714q-31 0 -48 21.5t-12 52.5l62 354h-456l-320 -411q-24 -34 -69 -34q-28 0 -48.5 20t-20.5 48q0 30 23 56l1063 1306q27 34 66 34h704q25 0 40 -16.5t15 -41.5q0 -30 -23.5 -52.5t-54.5 -22.5h-618l-90 -518h472q25 0 41 -17t16 -42q0 -30 -24 -52t-56 -22 h-473l-93 -530h641q24 0 40.5 -16.5t16.5 -40.5q0 -31 -24.5 -53.5t-55.5 -22.5zM589 562h377l105 601zM1697 1656q0 -17 -9 -31.5t-24 -22.5t-32 -8h-399q-20 0 -33.5 12.5t-13.5 32.5q0 26 19.5 44t46.5 18h400q19 0 32 -12.5t13 -32.5z" />
<glyph unicode="&#x1e3;" horiz-adv-x="1738" d="M1273 -28q-153 0 -246.5 65t-119.5 195q-32 -74 -87 -131.5t-138.5 -93t-182.5 -35.5q-170 0 -260.5 99t-90.5 264q0 145 42.5 269.5t117.5 213t181.5 138.5t230.5 50q118 0 209 -42t153 -106q148 148 381 148q78 0 139.5 -19t99.5 -51.5t57.5 -74t19.5 -89.5 q0 -174 -179.5 -261.5t-558.5 -87.5q-7 -31 -7 -66q0 -141 65 -199.5t200 -58.5q136 0 262 90q22 16 41 16q26 0 44 -17.5t18 -43.5q0 -13 -5.5 -24.5t-11 -17t-15.5 -14.5q-141 -116 -359 -116zM286 357q0 -44 7.5 -81.5t25.5 -71t44.5 -57t66.5 -37t91 -13.5q43 0 83 9.5 t73.5 27.5t63.5 43.5t54 56.5t44.5 67t36 74.5t27.5 80.5q19 173 101 305q-23 27 -54.5 49.5t-69 39.5t-81.5 26.5t-89 9.5q-88 0 -166 -39t-135 -107.5t-90 -168t-33 -214.5zM1056 533q292 0 438.5 59t146.5 165q0 52 -50 88.5t-150 36.5q-85 0 -153 -27.5t-114 -77 t-75 -110.5t-43 -134zM1413 1256q0 -26 -19.5 -44t-45.5 -18h-400q-20 0 -32.5 12.5t-12.5 32.5q0 26 19.5 44t45.5 18h400q20 0 32.5 -13t12.5 -32z" />
<glyph unicode="&#x1fa;" horiz-adv-x="1324" d="M1034 428h-599l-228 -393q-27 -52 -74 -52q-30 0 -51.5 21t-21.5 52q0 20 14 43l751 1292q-57 16 -85 57t-28 103q0 115 67.5 184t199.5 69q93 0 142 -44t49 -123q0 -97 -47 -162t-140 -86l283 -1301q4 -21 4 -30q0 -22 -8.5 -38.5t-26 -26.5t-41.5 -10q-27 0 -46 14 t-23 36zM1013 562l-140 657l-370 -657h510zM964 1722q-88 0 -124 -43t-36 -118q0 -48 26.5 -72t87.5 -24q159 0 159 160q0 50 -26.5 73.5t-86.5 23.5zM854 1867q-31 31 4 66l224 232q17 19 40 17.5t44 -23.5q40 -43 -5 -84l-240 -204q-38 -34 -67 -4z" />
<glyph unicode="&#x1fb;" horiz-adv-x="1102" d="M862 189q-56 -103 -150 -160t-213 -57q-170 0 -260.5 99t-90.5 264q0 145 42.5 269.5t117.5 213t181.5 138.5t230.5 50q161 0 267 -92l2 11q7 31 27 49.5t53 18.5q31 0 47 -19.5t11 -48.5l-155 -874q-4 -29 -26.5 -48.5t-53.5 -19.5q-30 0 -45 19.5t-10 48.5zM286 357 q0 -44 7.5 -81.5t25.5 -71t44.5 -57t66.5 -37t91 -13.5q68 0 128 25t104.5 67t79 99.5t56.5 120.5t34 133l41 243q-46 46 -111.5 73.5t-142.5 27.5q-88 0 -166 -39t-135 -107.5t-90 -168t-33 -214.5zM729 1051q-94 0 -142.5 44.5t-48.5 123.5q0 116 67.5 185t198.5 69 q94 0 142.5 -44.5t48.5 -123.5q0 -75 -28.5 -131.5t-89 -89.5t-148.5 -33zM790 1391q-46 0 -78 -12t-49.5 -35t-25 -51t-7.5 -63q0 -49 26.5 -73t87.5 -24q159 0 159 162q0 49 -26.5 72.5t-86.5 23.5zM671 1525q-32 31 4 67l224 232q17 18 40 17t44 -23q40 -44 -4 -84 l-242 -205q-37 -34 -66 -4z" />
<glyph unicode="&#x1fc;" horiz-adv-x="1808" d="M1654 0h-714q-31 0 -48 21.5t-12 52.5l62 354h-456l-320 -411q-24 -34 -69 -34q-28 0 -48.5 20t-20.5 48q0 30 23 56l1063 1306q27 34 66 34h704q25 0 40 -16.5t15 -41.5q0 -30 -23.5 -52.5t-54.5 -22.5h-618l-90 -518h472q25 0 41 -17t16 -42q0 -30 -24 -52t-56 -22 h-473l-93 -530h641q24 0 40.5 -16.5t16.5 -40.5q0 -31 -24.5 -53.5t-55.5 -22.5zM589 562h377l105 601zM1391 1557q-31 31 4 66l224 232q18 19 40.5 17.5t43.5 -23.5q40 -43 -4 -84l-241 -204q-37 -33 -67 -4z" />
<glyph unicode="&#x1fd;" horiz-adv-x="1738" d="M1273 -28q-153 0 -246.5 65t-119.5 195q-32 -74 -87 -131.5t-138.5 -93t-182.5 -35.5q-170 0 -260.5 99t-90.5 264q0 145 42.5 269.5t117.5 213t181.5 138.5t230.5 50q118 0 209 -42t153 -106q148 148 381 148q78 0 139.5 -19t99.5 -51.5t57.5 -74t19.5 -89.5 q0 -174 -179.5 -261.5t-558.5 -87.5q-7 -31 -7 -66q0 -141 65 -199.5t200 -58.5q136 0 262 90q22 16 41 16q26 0 44 -17.5t18 -43.5q0 -13 -5.5 -24.5t-11 -17t-15.5 -14.5q-141 -116 -359 -116zM286 357q0 -44 7.5 -81.5t25.5 -71t44.5 -57t66.5 -37t91 -13.5q43 0 83 9.5 t73.5 27.5t63.5 43.5t54 56.5t44.5 67t36 74.5t27.5 80.5q19 173 101 305q-23 27 -54.5 49.5t-69 39.5t-81.5 26.5t-89 9.5q-88 0 -166 -39t-135 -107.5t-90 -168t-33 -214.5zM1056 533q292 0 438.5 59t146.5 165q0 52 -50 88.5t-150 36.5q-63 0 -119 -18.5t-99 -50.5 t-77.5 -76t-56.5 -95.5t-33 -108.5zM1020 1157q-31 31 4 66l223 232q18 19 41 17.5t43 -23.5q41 -43 -4 -84l-241 -204q-37 -33 -66 -4z" />
<glyph unicode="&#x1fe;" horiz-adv-x="1530" d="M761 -30q-263 0 -400 118l-118 -123q-21 -21 -46 -21q-22 0 -38.5 16.5t-16.5 39.5t18 41l128 133q-85 132 -85 349q0 222 58 401t164.5 300.5t259.5 187t341 65.5q264 0 402 -123l116 121q20 21 45 21q23 0 39.5 -16.5t16.5 -38.5q0 -21 -17 -41l-126 -132 q82 -133 82 -343q0 -177 -37 -328t-107.5 -266.5t-171 -196.5t-229 -122.5t-278.5 -41.5zM1002 1344q-202 0 -348 -97t-222.5 -277.5t-76.5 -427.5q0 -150 49 -247l914 946q-106 103 -316 103zM1432 905q0 144 -47 244l-914 -946q106 -100 314 -100q202 0 348 97 t222.5 277.5t76.5 427.5zM918 1557q-31 31 5 66l224 232q17 19 39.5 17.5t43.5 -23.5q40 -43 -5 -84l-240 -204q-38 -33 -67 -4z" />
<glyph unicode="&#x1ff;" horiz-adv-x="1053" d="M521 -28q-197 0 -289 106l-86 -78q-20 -17 -41 -17q-23 0 -39.5 16.5t-16.5 39.5q0 24 22 43l103 92q-26 74 -26 166q0 86 14 166t42 155.5t73.5 137.5t105.5 108.5t142 72.5t179 26q189 0 283 -101l95 84q20 17 40 17q23 0 39.5 -16.5t16.5 -39.5q0 -25 -21 -43 l-110 -99q28 -79 28 -170q0 -103 -19 -198t-62 -181t-106.5 -149.5t-157.5 -100.5t-209 -37zM542 97q82 0 149 29t112 78.5t75.5 117.5t44 142.5t13.5 157.5q0 31 -9 79l-587 -527q63 -77 202 -77zM288 357q0 -33 7 -76l585 527q-64 74 -199 74q-82 0 -149 -29t-112 -78.5 t-75 -117.5t-43.5 -143t-13.5 -157zM628 1118q-31 31 4 66l224 234q18 18 40.5 16.5t43.5 -24.5q39 -42 -4 -83l-241 -205q-37 -33 -67 -4z" />
<glyph unicode="&#x218;" horiz-adv-x="1199" d="M1168 1178q-104 166 -327 166q-91 0 -162 -23t-111.5 -61.5t-61 -84t-20.5 -96.5q0 -43 19.5 -79t53 -61t77.5 -48.5t94 -41t103 -39.5t103 -43t94.5 -52t77.5 -66.5t52.5 -86.5t19.5 -113q0 -226 -152 -352.5t-443 -126.5q-92 0 -171.5 23.5t-135 63.5t-93.5 88.5 t-56 102.5q-4 12 -4 25q0 29 19.5 49t48.5 20q21 0 39 -11t24 -28q26 -58 71 -101.5t118 -71t164 -27.5q199 0 311 86.5t112 233.5q0 48 -19.5 88t-53 67.5t-78 52t-94.5 42.5t-103 39.5t-103.5 42t-95 50.5t-78 64.5t-53 84.5t-19.5 111q0 84 33.5 158t98 131t167 90 t230.5 33q150 0 265 -63.5t157 -168.5q7 -15 7 -30q0 -14 -5.5 -27t-15 -22t-22 -14t-27.5 -5q-36 0 -55 31zM679 -178q0 -203 -187 -353q-14 -11 -24 -11q-11 0 -19 8.5t-8 20.5q0 13 13 23q24 21 41.5 39.5t28 37t15.5 36t5 37.5q0 27 -24.5 69.5t-24.5 73.5q0 34 13 58 t37 36.5t57 12.5q77 0 77 -88z" />
<glyph unicode="&#x219;" horiz-adv-x="911" d="M597 873q-41 0 -77.5 -7.5t-68 -23.5t-50 -45.5t-18.5 -69.5q0 -37 21 -66.5t55 -48t77.5 -37t89 -33.5t89 -37.5t78 -48t55 -66.5t20.5 -93q0 -158 -110.5 -240.5t-299.5 -82.5q-117 0 -211 48t-140 116q-8 14 -8 32q0 26 18.5 44t44.5 18q29 0 47 -21q89 -106 262 -106 q53 0 98 9.5t81.5 29t57.5 53.5t21 78q0 34 -21 61t-55.5 44.5t-78.5 35.5t-89.5 33.5t-89.5 39t-78.5 50.5t-55.5 69.5t-21 95.5q0 74 28.5 132.5t79.5 94.5t118.5 54.5t148.5 18.5q102 0 187 -42.5t121 -101.5q10 -18 10 -35q0 -26 -18 -44t-44.5 -18t-45.5 19 q-28 28 -57 47t-73 31.5t-98 12.5zM511 -178q0 -203 -187 -353q-14 -11 -23 -11q-11 0 -19.5 9t-8.5 20q0 13 13 23q49 41 69.5 76t20.5 74q0 27 -24.5 69.5t-24.5 73.5q0 51 28.5 79t79.5 28q76 0 76 -88z" />
<glyph unicode="&#x2c6;" horiz-adv-x="718" d="M740 1137l-145 145l-203 -147q-17 -13 -35 -13q-21 0 -36 15.5t-15 36.5q0 26 23 43l241 168q17 13 37 13q19 0 33 -15l175 -174q12 -13 12 -35q0 -21 -15 -36.5t-36 -15.5t-36 15z" />
<glyph unicode="&#x2c7;" horiz-adv-x="708" d="M556 1190l207 146q19 12 35 12q21 0 36 -15t15 -36q0 -28 -26 -45l-238 -166q-17 -13 -37 -13q-19 0 -31 13l-177 176q-13 14 -13 35t15 36t36 15q25 0 37 -14z" />
<glyph unicode="&#x2d8;" horiz-adv-x="677" d="M538 1137q-93 0 -151 44t-58 135q0 29 8.5 49.5t22.5 30.5t32 10q13 0 23.5 -6t17 -18t6.5 -28q0 -6 -2 -19t-2 -19q0 -45 28.5 -62t90.5 -17q140 0 162 117q3 23 18.5 37.5t39.5 14.5q18 0 31.5 -13t13.5 -32q0 -72 -38 -123.5t-100.5 -76t-142.5 -24.5z" />
<glyph unicode="&#x2d9;" horiz-adv-x="595" d="M503 1170q-68 0 -68 65q0 52 25 78.5t73 26.5q69 0 69 -65q0 -52 -25.5 -78.5t-73.5 -26.5z" />
<glyph unicode="&#x2da;" horiz-adv-x="573" d="M476 1079q-94 0 -143 45t-49 123q0 116 67.5 185.5t198.5 69.5q63 0 106.5 -21t64.5 -58.5t21 -88.5q0 -116 -67.5 -185.5t-198.5 -69.5zM536 1420q-88 0 -124 -43.5t-36 -118.5q0 -48 26.5 -72.5t87.5 -24.5q159 0 159 162q0 49 -26.5 73t-86.5 24z" />
<glyph unicode="&#x2db;" horiz-adv-x="661" d="M445 -269q20 0 33.5 -13.5t13.5 -33.5q0 -27 -28 -43q-60 -35 -163 -35q-60 0 -103.5 18t-67 52.5t-23.5 83.5q0 149 190 240h105q-70 -26 -125 -81t-55 -122q0 -45 27 -68.5t73 -23.5q43 0 95 20q16 6 28 6z" />
<glyph unicode="&#x2dc;" horiz-adv-x="812" d="M513 1327q36 0 69.5 -13t56 -29t53 -29t59.5 -13q22 0 40 7t34 20.5t35 36.5q16 20 41 20q21 0 36 -15.5t15 -36.5q0 -14 -10 -32q-32 -46 -86 -76t-123 -30q-36 0 -69.5 13t-55 29t-51.5 29t-60 13q-20 0 -39 -8.5t-33.5 -21t-37.5 -34.5q-20 -20 -41 -20t-36 15.5 t-15 37.5q0 18 13 33q83 104 205 104z" />
<glyph unicode="&#x2dd;" horiz-adv-x="1051" d="M458 1118q-31 31 4 66l224 234q17 18 40 16.5t44 -24.5q39 -42 -5 -83l-240 -205q-38 -33 -67 -4zM712 1118q-31 31 4 66l224 234q18 18 40.5 16.5t43.5 -24.5q39 -42 -4 -83l-242 -205q-37 -33 -66 -4z" />
<glyph unicode="&#x1e80;" horiz-adv-x="1758" d="M1082 1133l-503 -1094q-24 -56 -82 -56q-25 0 -42 14.5t-20 39.5l-145 1326q-2 17 -2 28q0 31 21 52.5t52 21.5q20 0 36.5 -9t26 -23.5t11.5 -32.5l119 -1101l504 1111q24 55 77 55q26 0 44 -15.5t21 -41.5l111 -1109l511 1119q21 47 68 47q31 0 52.5 -21.5t21.5 -52.5 q0 -15 -9 -37l-617 -1317q-24 -54 -74 -54q-60 0 -66 56zM1316 1557q-29 -29 -66 4l-241 204q-45 41 -5 84q21 22 43.5 23.5t40.5 -17.5l223 -232q36 -35 5 -66z" />
<glyph unicode="&#x1e81;" horiz-adv-x="1375" d="M813 714l-318 -681q-10 -23 -30 -36.5t-46 -13.5q-23 0 -38 12t-18 33l-160 869q-6 26 -6 28q0 29 20 48.5t50 19.5q24 0 43.5 -15t22.5 -36l127 -706l325 706q25 51 73 51q19 0 33 -7.5t20 -17.5t7 -22l80 -710l374 718q20 39 62 39q19 0 35 -8.5t25.5 -24.5t9.5 -35 t-12 -39l-470 -858q-11 -21 -31 -33t-43 -12t-38.5 13.5t-19.5 36.5zM1058 1118q-29 -29 -67 4l-240 205q-44 41 -4 83q21 23 43.5 24.5t40.5 -16.5l223 -234q35 -35 4 -66z" />
<glyph unicode="&#x1e82;" horiz-adv-x="1758" d="M1082 1133l-503 -1094q-24 -56 -82 -56q-25 0 -42 14.5t-20 39.5l-145 1326q-2 17 -2 28q0 31 21 52.5t52 21.5q20 0 36.5 -9t26 -23.5t11.5 -32.5l119 -1101l504 1111q24 55 77 55q26 0 44 -15.5t21 -41.5l111 -1109l511 1119q21 47 68 47q31 0 52.5 -21.5t21.5 -52.5 q0 -15 -9 -37l-617 -1317q-24 -54 -74 -54q-60 0 -66 56zM1028 1557q-31 31 4 66l224 232q17 19 40 17.5t44 -23.5q40 -43 -4 -84l-242 -204q-37 -33 -66 -4z" />
<glyph unicode="&#x1e83;" horiz-adv-x="1375" d="M813 714l-318 -681q-10 -23 -30 -36.5t-46 -13.5q-23 0 -38 12t-18 33l-160 869q-6 26 -6 28q0 29 20 48.5t50 19.5q24 0 43.5 -15t22.5 -36l127 -706l325 706q25 51 73 51q19 0 33 -7.5t20 -17.5t7 -22l80 -710l374 718q20 39 62 39q19 0 35 -8.5t25.5 -24.5t9.5 -35 t-12 -39l-470 -858q-11 -21 -31 -33t-43 -12t-38.5 13.5t-19.5 36.5zM776 1118q-31 31 4 66l224 234q18 18 40.5 16.5t43.5 -24.5q39 -42 -4 -83l-241 -205q-37 -33 -67 -4z" />
<glyph unicode="&#x1e84;" horiz-adv-x="1758" d="M1082 1133l-503 -1094q-24 -56 -82 -56q-25 0 -42 14.5t-20 39.5l-145 1326q-2 17 -2 28q0 31 21 52.5t52 21.5q20 0 36.5 -9t26 -23.5t11.5 -32.5l119 -1101l504 1111q24 55 77 55q26 0 44 -15.5t21 -41.5l111 -1109l511 1119q21 47 68 47q31 0 52.5 -21.5t21.5 -52.5 q0 -15 -9 -37l-617 -1317q-24 -54 -74 -54q-60 0 -66 56zM991 1594q-64 0 -64 60q0 47 24 74t69 27q66 0 66 -62q0 -47 -25 -73t-70 -26zM1329 1594q-65 0 -65 60q0 47 24 74t69 27q67 0 67 -62q0 -47 -25 -73t-70 -26z" />
<glyph unicode="&#x1e85;" horiz-adv-x="1375" d="M813 714l-318 -681q-10 -23 -30 -36.5t-46 -13.5q-23 0 -38 12t-18 33l-160 869q-6 26 -6 28q0 29 20 48.5t50 19.5q24 0 43.5 -15t22.5 -36l127 -706l325 706q25 51 73 51q19 0 33 -7.5t20 -17.5t7 -22l80 -710l374 718q20 39 62 39q19 0 35 -8.5t25.5 -24.5t9.5 -35 t-12 -39l-470 -858q-11 -21 -31 -33t-43 -12t-38.5 13.5t-19.5 36.5zM722 1149q-64 0 -64 60q0 47 24 73.5t69 26.5q66 0 66 -62q0 -46 -25 -72t-70 -26zM1060 1149q-65 0 -65 60q0 47 24 73.5t69 26.5q67 0 67 -62q0 -46 -25 -72t-70 -26z" />
<glyph unicode="&#x1ef2;" d="M554 -17q-31 0 -47.5 20.5t-11.5 52.5l109 617l-311 688q-7 15 -7 30q0 20 9.5 37t26.5 27t37 10q46 0 64 -41l278 -605l485 615q25 31 61 31q31 0 52 -21.5t21 -52.5q0 -27 -17 -47l-552 -671l-111 -617q-4 -31 -28.5 -52t-57.5 -21zM950 1557q-29 -29 -66 4l-241 204 q-45 41 -5 84q21 22 44 23.5t40 -17.5l224 -232q35 -35 4 -66z" />
<glyph unicode="&#x1ef3;" horiz-adv-x="1036" d="M361 993q29 0 46 -19.5t12 -48.5l-81 -463q-9 -55 -9 -79q0 -40 10.5 -71.5t35 -57t69.5 -38.5t108 -13q73 0 130 21.5t92.5 59.5t56.5 82t31 96l82 463q5 29 28 48.5t54 19.5q29 0 44.5 -19.5t11.5 -48.5l-168 -951q-37 -209 -162 -308t-350 -99q-128 0 -203.5 57 t-75.5 146q0 109 90.5 178t285.5 123q-83 5 -143.5 28t-96.5 60.5t-53 84t-17 102.5q0 51 11 116l81 463q5 30 27.5 49t52.5 19zM262 -209q0 -35 22.5 -58.5t59 -34t84.5 -10.5q82 0 142.5 19.5t100 57t63.5 86t38 114.5l51 257q-29 -47 -76.5 -85t-98.5 -64t-106.5 -49.5 t-104.5 -45.5t-88.5 -47.5t-63 -60.5t-23.5 -79zM817 1118q-29 -29 -66 4l-242 205q-44 41 -4 83q21 23 43.5 24.5t40.5 -16.5l224 -234q35 -35 4 -66z" />
<glyph unicode="&#x2000;" horiz-adv-x="1091" />
<glyph unicode="&#x2001;" horiz-adv-x="2182" />
<glyph unicode="&#x2002;" horiz-adv-x="1091" />
<glyph unicode="&#x2003;" horiz-adv-x="2182" />
<glyph unicode="&#x2004;" horiz-adv-x="727" />
<glyph unicode="&#x2005;" horiz-adv-x="545" />
<glyph unicode="&#x2006;" horiz-adv-x="363" />
<glyph unicode="&#x2007;" horiz-adv-x="363" />
<glyph unicode="&#x2008;" horiz-adv-x="272" />
<glyph unicode="&#x2009;" horiz-adv-x="29" />
<glyph unicode="&#x200a;" horiz-adv-x="121" />
<glyph unicode="&#x2010;" horiz-adv-x="782" d="M761 550q0 -27 -20.5 -46.5t-48.5 -19.5h-430q-22 0 -35.5 14t-13.5 35q0 28 20.5 47.5t47.5 19.5h431q22 0 35.5 -14t13.5 -36z" />
<glyph unicode="&#x2011;" horiz-adv-x="782" d="M761 550q0 -27 -20.5 -46.5t-48.5 -19.5h-430q-22 0 -35.5 14t-13.5 35q0 28 20.5 47.5t47.5 19.5h431q22 0 35.5 -14t13.5 -36z" />
<glyph unicode="&#x2012;" horiz-adv-x="782" d="M761 550q0 -27 -20.5 -46.5t-48.5 -19.5h-430q-22 0 -35.5 14t-13.5 35q0 28 20.5 47.5t47.5 19.5h431q22 0 35.5 -14t13.5 -36z" />
<glyph unicode="&#x2013;" horiz-adv-x="1255" d="M1141 615q0 -27 -20 -47t-48 -20h-697q-23 0 -36 14t-13 35q0 27 21 47.5t48 20.5h696q22 0 35.5 -14t13.5 -36z" />
<glyph unicode="&#x2014;" horiz-adv-x="1974" d="M1861 615q0 -13 -6 -25.5t-15.5 -21.5t-22 -14.5t-26.5 -5.5h-1415q-23 0 -36 14t-13 35q0 27 21 47.5t48 20.5h1414q23 0 37 -14t14 -36z" />
<glyph unicode="&#x2018;" horiz-adv-x="330" d="M245 1028q0 103 60 213t161 208q16 16 31 16q14 0 24 -9t10 -22t-10 -26q-65 -75 -92 -119t-27 -89q0 -29 25 -72.5t25 -76.5q0 -59 -33 -90.5t-90 -31.5q-42 0 -63 23.5t-21 75.5z" />
<glyph unicode="&#x2019;" horiz-adv-x="330" d="M505 1365q0 -103 -60 -213t-161 -208q-15 -15 -30 -15q-14 0 -24.5 8.5t-10.5 21.5t11 26q64 75 91.5 119.5t27.5 89.5q0 29 -25 72t-25 76q0 59 32.5 91t89.5 32q84 0 84 -100z" />
<glyph unicode="&#x201a;" horiz-adv-x="384" d="M290 88q0 -103 -60 -213t-161 -208q-15 -16 -30 -16q-14 0 -24.5 9t-10.5 22q0 12 11 25q64 75 91 119.5t27 89.5q0 29 -24.5 72t-24.5 76q0 59 32.5 91t90.5 32q41 0 62 -23.5t21 -75.5z" />
<glyph unicode="&#x201c;" horiz-adv-x="627" d="M245 1028q0 103 60 213t161 208q16 16 31 16q14 0 24 -9t10 -22t-10 -26q-65 -75 -92 -119t-27 -89q0 -29 25 -72.5t25 -76.5q0 -59 -33 -90.5t-90 -31.5q-42 0 -63 23.5t-21 75.5zM544 1028q0 103 60 213t161 208q16 16 31 16q14 0 24.5 -9t10.5 -22q0 -12 -12 -26 q-64 -74 -91 -118.5t-27 -89.5q0 -29 25 -72.5t25 -76.5q0 -59 -32.5 -90.5t-90.5 -31.5q-42 0 -63 23.5t-21 75.5z" />
<glyph unicode="&#x201d;" horiz-adv-x="627" d="M804 1365q0 -103 -60 -213t-161 -208q-15 -15 -31 -15q-14 0 -23.5 8.5t-9.5 21.5t10 26q64 74 91 119t27 90q0 29 -25 72t-25 76q0 59 33 91t90 32q84 0 84 -100zM505 1365q0 -103 -60 -213t-161 -208q-15 -15 -30 -15q-14 0 -24.5 8.5t-10.5 21.5t11 26 q64 75 91.5 119.5t27.5 89.5q0 29 -25 72t-25 76q0 59 32.5 91t89.5 32q84 0 84 -100z" />
<glyph unicode="&#x201e;" horiz-adv-x="673" d="M579 88q0 -102 -60.5 -212.5t-161.5 -208.5q-16 -16 -30 -16q-15 0 -24.5 9t-9.5 22q0 12 10 25q64 74 91 119t27 90q0 29 -24.5 72t-24.5 76q0 30 8.5 53t24.5 38.5t38.5 23.5t51.5 8q27 0 45.5 -9.5t28.5 -32t10 -57.5zM279 88q0 -102 -60 -212.5t-161 -208.5 q-16 -16 -30 -16t-24 9t-10 22q0 12 10 25q64 75 91.5 119.5t27.5 89.5q0 29 -24.5 72t-24.5 76q0 59 32 91t89 32q42 0 63 -23.5t21 -75.5z" />
<glyph unicode="&#x2020;" horiz-adv-x="941" d="M415 -322q-20 0 -30 9.5t-7 26.5l215 1290h-242q-35 0 -35 39q0 28 14.5 47.5t39.5 19.5h243l60 367q10 54 69 54q58 0 48 -54l-70 -367h244q34 0 34 -41q0 -30 -14.5 -47.5t-39.5 -17.5h-240l-240 -1290q-6 -36 -49 -36z" />
<glyph unicode="&#x2021;" horiz-adv-x="941" d="M593 1004h-242q-35 0 -35 39q0 28 14.5 47.5t39.5 19.5h243l60 367q10 54 69 54q58 0 48 -54l-70 -367h244q34 0 34 -41q0 -30 -14.5 -47.5t-39.5 -17.5h-243l-86 -454l-73 -453h243q34 0 34 -39q0 -29 -14 -47.5t-40 -18.5h-242l-61 -368q-11 -54 -66 -54 q-30 0 -42 14.5t-8 39.5l69 368h-243q-34 0 -34 41q0 29 14 46.5t39 17.5h244l86 453z" />
<glyph unicode="&#x2022;" horiz-adv-x="898" d="M564 320q-136 0 -208 70t-72 210q0 292 280 292q279 0 279 -292q0 -140 -71.5 -210t-207.5 -70z" />
<glyph unicode="&#x202f;" horiz-adv-x="436" />
<glyph unicode="&#x2030;" horiz-adv-x="2313" d="M1402 1465q23 0 37 -14.5t14 -37.5q0 -20 -10 -34l-938 -1369q-17 -27 -47 -27q-23 0 -38.5 15.5t-15.5 38.5q0 18 13 34l937 1367q18 27 48 27zM559 876q48 0 88 14.5t66 37t46 54t30.5 61.5t17 64t8.5 56.5t2 42.5q0 40 -10 71t-30 54t-53 35.5t-77 12.5q-49 0 -89 -15 t-66 -37.5t-45.5 -54.5t-30 -62t-17 -64t-8 -56t-1.5 -43q0 -81 40.5 -126t128.5 -45zM665 1477q126 0 194 -70t68 -186q0 -54 -9 -106t-28 -102.5t-50.5 -93t-72.5 -75t-99 -50.5t-126 -18q-126 0 -194.5 70t-68.5 186q0 66 13 127.5t42.5 120t73 102t109.5 69.5t148 26z M1215 71q48 0 88 14.5t66.5 37.5t46 54.5t30.5 61.5t17.5 64t8 56.5t1.5 42.5q0 81 -41.5 126.5t-128.5 45.5q-49 0 -88.5 -14.5t-66 -37t-46.5 -54.5t-30.5 -62t-17 -64t-8 -56.5t-1.5 -42.5q0 -81 41.5 -126.5t128.5 -45.5zM1320 673q126 0 194 -70t68 -186 q0 -66 -12.5 -127.5t-42 -120t-72.5 -102t-109 -69.5t-148 -26q-84 0 -144 33t-89 90t-29 133q0 54 9 106t27.5 103t50 93t72.5 74.5t99 50.5t126 18zM1925 71q48 0 88 14.5t66 37.5t46 54.5t30.5 61.5t17 64t8.5 56.5t2 42.5q0 81 -41.5 126.5t-128.5 45.5q-49 0 -89 -14.5 t-66 -37t-46 -54.5t-30.5 -62t-17 -64t-8 -56.5t-1.5 -42.5q0 -81 41 -126.5t129 -45.5zM2030 673q126 0 194 -70t68 -186q0 -66 -12.5 -127.5t-42 -120t-72.5 -102t-109.5 -69.5t-147.5 -26q-126 0 -194.5 70t-68.5 186q0 66 13 127.5t42 120t72.5 102t109.5 69.5t148 26z " />
<glyph unicode="&#x2039;" horiz-adv-x="788" d="M248 447q0 24 23 48l417 412q20 20 41 20q20 0 34.5 -15t14.5 -36q0 -20 -21 -41l-400 -388l260 -383q9 -14 9 -29q0 -20 -15.5 -35t-36.5 -15q-26 0 -38 19l-278 411q-10 17 -10 32z" />
<glyph unicode="&#x203a;" horiz-adv-x="788" d="M706 464q0 -23 -25 -47l-416 -413q-19 -19 -41 -19q-20 0 -35 15.5t-15 36.5q0 20 21 41l400 386l-260 383q-8 14 -8 31q0 13 6.5 24t18.5 18t26 7q26 0 39 -20l278 -410q11 -18 11 -33z" />
<glyph unicode="&#x2044;" horiz-adv-x="673" d="M30 71l766 1359q20 35 53 35q25 0 41.5 -17.5t16.5 -41.5q0 -13 -8 -29l-766 -1360q-20 -34 -53 -34q-25 0 -42 17t-17 41q0 15 9 30z" />
<glyph unicode="&#x205f;" horiz-adv-x="545" />
<glyph unicode="&#x20ac;" horiz-adv-x="1356" d="M759 -30q-132 0 -234.5 32t-175 98t-111 170t-38.5 243h-73q-22 0 -35.5 14.5t-13.5 36.5q0 27 20.5 46.5t47.5 19.5h57q6 97 21 172h-48q-21 0 -34 14t-13 36q0 27 20.5 46.5t47.5 19.5h57q82 270 280 414.5t483 144.5q156 0 274 -65t178 -173q8 -14 8 -35q0 -19 -9 -35 t-25 -25t-35 -9q-38 0 -56 28q-39 63 -91 103t-117 59t-146 19q-217 0 -368.5 -110.5t-221.5 -315.5h362q14 0 24.5 -6.5t16.5 -18t6 -25.5q0 -27 -20.5 -46.5t-47.5 -19.5h-373q-14 -71 -21 -172h363q23 0 36.5 -14t13.5 -35q0 -27 -21 -47.5t-48 -20.5h-346 q6 -217 114 -313.5t315 -96.5q110 0 216 45t184 131q26 29 57 29q19 0 34.5 -9.5t24.5 -25t9 -35.5q0 -27 -21 -51q-87 -101 -231.5 -159t-295.5 -58z" />
<glyph unicode="&#x2122;" horiz-adv-x="868" d="M333 1402h264q16 0 26.5 -11t10.5 -25.5t-10.5 -25.5t-26.5 -11h-90v-284q0 -16 -12.5 -28.5t-28.5 -12.5q-17 0 -28.5 12t-11.5 29v284h-93q-10 0 -18.5 5t-13 13.5t-4.5 17.5q0 15 10.5 26t25.5 11zM873 1090q-21 0 -32 18l-69 117v-182q0 -16 -11.5 -27.5t-27.5 -11.5 t-27 11.5t-11 27.5v327q0 16 11 27t27 11q25 0 37 -23l103 -185l103 185q12 23 37 23q16 0 27 -11t11 -27v-327q0 -11 -5 -20t-13.5 -14t-19.5 -5q-15 0 -27 11.5t-12 27.5v182l-69 -117q-11 -18 -32 -18z" />
<glyph unicode="&#x221a;" horiz-adv-x="1158" d="M1311 1443l-784 -1767q-19 -44 -63 -44q-20 0 -35.5 11.5t-20.5 32.5l-213 819q0 3 -2 9.5t-3 11.5t-1 11q0 24 18 42t43 18q12 0 22 -3.5t17 -10t11.5 -14.5t7.5 -17l176 -702l718 1652q17 39 56 39q24 0 42 -18t18 -42q0 -13 -7 -28z" />
<glyph unicode="&#x2260;" horiz-adv-x="975" d="M1030 312q0 -28 -20.5 -47.5t-48.5 -19.5h-542l-81 -97q-12 -13 -28 -13q-14 0 -24.5 10.5t-10.5 24.5q0 15 11 25l43 50h-228q-23 0 -36.5 14t-13.5 36q0 27 21.5 46.5t48.5 19.5h309l185 213h-455q-23 0 -37 14t-14 36q0 27 21.5 46.5t47.5 19.5h536l84 95q14 17 33 17 q14 0 23.5 -10t9.5 -24q0 -11 -8 -24l-50 -54h232q23 0 36.5 -14t13.5 -36q0 -27 -20.5 -46.5t-47.5 -19.5h-316l-185 -213h462q22 0 35.5 -14t13.5 -35z" />
<glyph unicode="&#x2264;" horiz-adv-x="724" d="M735 66q0 -27 -21 -46.5t-47 -19.5h-609q-23 0 -36.5 14t-13.5 35q0 18 10.5 34t26.5 25t33 9h608q22 0 35.5 -14.5t13.5 -36.5zM262 611l482 -312q26 -16 26 -49q0 -16 -8 -29.5t-21 -21.5t-29 -8q-18 0 -45 18l-540 359q-20 16 -20 41q0 34 39 58l667 365q21 11 36 11 q25 0 41.5 -17t16.5 -41q0 -36 -34 -54z" />
<glyph unicode="&#x2265;" horiz-adv-x="724" d="M8 49q0 28 22 48t50 20h608q14 0 24.5 -7t16.5 -18.5t6 -25.5q0 -27 -20 -46.5t-48 -19.5h-609q-22 0 -36 14t-14 35zM82 306l602 318l-491 316q-21 14 -21 45q0 24 17 41t41 17q17 0 35 -11l550 -365q20 -16 20 -41q0 -35 -39 -58l-658 -365q-24 -12 -37 -12 q-16 0 -29.5 8t-21 21.5t-7.5 29.5q0 35 39 56z" />
<glyph unicode="&#x25fc;" horiz-adv-x="989" d="M0 989h989v-989h-989v989z" />
</font>
</defs>
</svg>
